<svg xmlns="http://www.w3.org/2000/svg" viewBox="0 0 295 295"><defs><style>.cls-1{fill:#f34f28;}.cls-2{fill:#383838;}</style></defs><g id="Capa_2" data-name="Capa 2"><g id="Capa_1-2" data-name="Capa 1"><path class="cls-1" d="M248.45,295H46.55A46.6,46.6,0,0,1,0,248.45V46.55A46.6,46.6,0,0,1,46.55,0h201.9A46.6,46.6,0,0,1,295,46.55v201.9A46.6,46.6,0,0,1,248.45,295ZM46.55,2A44.59,44.59,0,0,0,2,46.55v201.9A44.59,44.59,0,0,0,46.55,293h201.9A44.59,44.59,0,0,0,293,248.45V46.55A44.59,44.59,0,0,0,248.45,2Z"/><path class="cls-2" d="M110.13,154a1.63,1.63,0,0,1-.31,0,1.51,1.51,0,0,1-1.16-1.79l2.37-11a1.5,1.5,0,0,1,2.94.64l-2.37,11A1.51,1.51,0,0,1,110.13,154Z"/><path class="cls-2" d="M106.47,171l-.32,0a1.51,1.51,0,0,1-1.15-1.79l2.37-11a1.5,1.5,0,0,1,2.94.64l-2.37,11A1.51,1.51,0,0,1,106.47,171Z"/><path class="cls-2" d="M102.81,188a1.73,1.73,0,0,1-.32,0,1.51,1.51,0,0,1-1.15-1.79l2.37-11a1.5,1.5,0,1,1,2.93.64l-2.37,11A1.49,1.49,0,0,1,102.81,188Z"/><path class="cls-2" d="M98.5,208l-.32,0A1.51,1.51,0,0,1,97,206.18l3-14a1.5,1.5,0,1,1,2.93.64l-3,14A1.51,1.51,0,0,1,98.5,208Z"/><path class="cls-2" d="M122.66,154h-.12a1.5,1.5,0,0,1-1.38-1.61l.84-11a1.5,1.5,0,1,1,3,.22l-.85,11A1.5,1.5,0,0,1,122.66,154Z"/><path class="cls-2" d="M121.35,171h-.12a1.51,1.51,0,0,1-1.38-1.62l.85-11a1.5,1.5,0,0,1,1.61-1.38,1.52,1.52,0,0,1,1.38,1.62l-.85,11A1.5,1.5,0,0,1,121.35,171Z"/><path class="cls-2" d="M120,188h-.12a1.52,1.52,0,0,1-1.38-1.62l.85-11a1.5,1.5,0,1,1,3,.24l-.85,11A1.49,1.49,0,0,1,120,188Z"/><path class="cls-2" d="M118.5,208h-.12a1.52,1.52,0,0,1-1.38-1.62l1.08-14a1.5,1.5,0,1,1,3,.24l-1.07,14A1.51,1.51,0,0,1,118.5,208Z"/><path class="cls-2" d="M161.87,154a1.51,1.51,0,0,1-1.47-1.18l-2.37-11a1.5,1.5,0,0,1,2.94-.64l2.37,11a1.51,1.51,0,0,1-1.16,1.79A1.63,1.63,0,0,1,161.87,154Z"/><path class="cls-2" d="M165.53,171a1.51,1.51,0,0,1-1.47-1.18l-2.37-11a1.5,1.5,0,0,1,2.94-.64l2.37,11a1.51,1.51,0,0,1-1.15,1.79Z"/><path class="cls-2" d="M169.19,188a1.49,1.49,0,0,1-1.46-1.18l-2.37-11a1.5,1.5,0,1,1,2.93-.64l2.37,11a1.51,1.51,0,0,1-1.15,1.79A1.73,1.73,0,0,1,169.19,188Z"/><path class="cls-2" d="M173.5,208a1.51,1.51,0,0,1-1.47-1.18l-3-14a1.5,1.5,0,1,1,2.93-.64l3,14a1.51,1.51,0,0,1-1.15,1.79Z"/><path class="cls-2" d="M149.34,154a1.5,1.5,0,0,1-1.49-1.39l-.85-11a1.51,1.51,0,0,1,1.38-1.61,1.53,1.53,0,0,1,1.62,1.39l.84,11a1.5,1.5,0,0,1-1.38,1.61Z"/><path class="cls-2" d="M150.65,171a1.5,1.5,0,0,1-1.49-1.38l-.85-11a1.5,1.5,0,1,1,3-.24l.85,11a1.51,1.51,0,0,1-1.38,1.62Z"/><path class="cls-2" d="M152,188a1.49,1.49,0,0,1-1.49-1.38l-.85-11a1.5,1.5,0,1,1,3-.24l.85,11a1.52,1.52,0,0,1-1.38,1.62Z"/><path class="cls-2" d="M153.5,208a1.51,1.51,0,0,1-1.5-1.38l-1.07-14a1.5,1.5,0,0,1,1.38-1.62,1.53,1.53,0,0,1,1.61,1.38l1.08,14a1.52,1.52,0,0,1-1.38,1.62Z"/><path class="cls-2" d="M136.5,154a1.5,1.5,0,0,1-1.5-1.5v-11a1.5,1.5,0,0,1,3,0v11A1.5,1.5,0,0,1,136.5,154Z"/><path class="cls-2" d="M136.5,171a1.5,1.5,0,0,1-1.5-1.5v-11a1.5,1.5,0,0,1,3,0v11A1.5,1.5,0,0,1,136.5,171Z"/><path class="cls-2" d="M136.5,188a1.5,1.5,0,0,1-1.5-1.5v-11a1.5,1.5,0,0,1,3,0v11A1.5,1.5,0,0,1,136.5,188Z"/><path class="cls-2" d="M136.5,208a1.5,1.5,0,0,1-1.5-1.5v-14a1.5,1.5,0,0,1,3,0v14A1.5,1.5,0,0,1,136.5,208Z"/><path class="cls-2" d="M167,136.5H106a6.5,6.5,0,0,1,0-13v4a2.5,2.5,0,0,0,0,5h61a2.5,2.5,0,0,0,0-5v-4a6.5,6.5,0,0,1,0,13Z"/><rect class="cls-2" x="106" y="123.5" width="61" height="4"/><path class="cls-2" d="M144,102.5H129a6.5,6.5,0,0,1,0-13h15a6.5,6.5,0,0,1,0,13Zm-15-9a2.5,2.5,0,0,0,0,5h15a2.5,2.5,0,0,0,0-5Z"/><path class="cls-2" d="M191.5,224.5a7,7,0,0,1-7-7V91.13a6.63,6.63,0,0,0-6.63-6.63H150.13a6.63,6.63,0,0,0-6.63,6.63v2h-14v-2A20.65,20.65,0,0,1,150.13,70.5h27.74A20.65,20.65,0,0,1,198.5,91.13V217.5A7,7,0,0,1,191.5,224.5Zm-41.37-144h27.74A10.64,10.64,0,0,1,188.5,91.13V217.5a3,3,0,0,0,6,0V91.13A16.65,16.65,0,0,0,177.87,74.5H150.13a16.66,16.66,0,0,0-16.51,14.63h6.07A10.64,10.64,0,0,1,150.13,80.5Z"/><path class="cls-2" d="M164.53,126a29,29,0,0,0-56.06,0l-3.86-1a33,33,0,0,1,63.78,0Z"/></g></g></svg>