<svg xmlns="http://www.w3.org/2000/svg" viewBox="0 0 16.58 13.49"><defs><style>.cls-1{fill:currentColor;}</style></defs><g id="Capa_2" data-name="Capa 2"><g id="Capa_1-2" data-name="Capa 1"><path class="cls-1" d="M8.54.8H.5a.5.5,0,0,0,0,1h8a1.35,1.35,0,0,1-.1-.5h0A1.35,1.35,0,0,1,8.54.8Z"/><path class="cls-1" d="M16.08.8H13.47a1.3,1.3,0,0,0-1.2-.8H10.32a1.29,1.29,0,0,0-1.2.8,1.18,1.18,0,0,0-.1.5H9a1.18,1.18,0,0,0,.1.5,1.29,1.29,0,0,0,1.2.8h1.95a1.3,1.3,0,0,0,1.2-.8h2.61a.5.5,0,0,0,0-1Z"/><path class="cls-1" d="M.5,7.24H3.7a1.35,1.35,0,0,1-.1-.5h0a1.44,1.44,0,0,1,.1-.5H.5a.5.5,0,0,0-.5.5A.5.5,0,0,0,.5,7.24Z"/><path class="cls-1" d="M5.46,8h2a1.3,1.3,0,0,0,1.2-.8H16a.5.5,0,0,0,.5-.5.5.5,0,0,0-.5-.5H8.61a1.3,1.3,0,0,0-1.2-.8H5.46a1.3,1.3,0,0,0-1.2.8,1.44,1.44,0,0,0-.1.5h0a1.35,1.35,0,0,0,.1.5A1.3,1.3,0,0,0,5.46,8Z"/><path class="cls-1" d="M16,11.69H11.35a1.29,1.29,0,0,0-1.2-.8h-2a1.3,1.3,0,0,0-1.2.8,1.35,1.35,0,0,0-.1.5h0a1.35,1.35,0,0,0,.1.5,1.3,1.3,0,0,0,1.2.8h2a1.29,1.29,0,0,0,1.2-.8H16a.5.5,0,0,0,0-1Z"/><path class="cls-1" d="M6.49,11.69H.5a.5.5,0,0,0,0,1h6a1.18,1.18,0,0,1-.1-.5h0A1.18,1.18,0,0,1,6.49,11.69Z"/></g></g></svg>
