<svg id="Capa_1" data-name="Capa 1" xmlns="http://www.w3.org/2000/svg" width="130" height="32" viewBox="0 0 180.9 44.2"><defs><style>.cls-1{fill:#f94f28;}</style></defs><title>logo-horizontal_WEB</title><g id="Capa_2" data-name="Capa 2"><g id="Capa_1-2" data-name="Capa 1-2"><polygon class="cls-1" points="18.3 29 25.8 38.4 28.7 38.4 27.4 36.8 16.6 23.5 16.6 24.5 16.6 36.8 7.8 36.8 7.8 12.4 6.2 10.5 6.2 38.4 18.3 38.4 18.3 29"/><polygon class="cls-1" points="14.9 24.5 14.9 21.1 9.5 14.6 9.5 35 14.9 35 14.9 24.5"/><path class="cls-1" d="M0,0V44.2H44.2V0ZM24.9,40.5,20,34v6.5H4.5V5.5l28.2,35Zm14.8,0H37.2L7.5,3.7H20.1l3.7,4.6V3.7h16Z"/><polygon class="cls-1" points="19.2 5.5 11.1 5.5 12.6 7.3 17.9 7.3 27.4 19.1 27.4 7.3 36.2 7.3 36.2 35 35 35 36.6 37 38 37 38 5.5 25.5 5.5 25.5 8.3 25.5 13.3 22.4 9.4 19.2 5.5"/><polygon class="cls-1" points="29.1 19.1 29.1 24 26 20.1 17 9.1 14 9.1 33.6 33.3 34.4 33.3 34.4 9.1 29.1 9.1 29.1 19.1"/><polygon class="cls-1" points="52.4 11.6 59 11.6 66.4 20.9 66.4 11.6 73.4 11.6 73.4 32.6 67.2 32.6 59.3 22.9 59.3 32.6 52.4 32.6 52.4 11.6"/><path class="cls-1" d="M75.6,23.2V11.6h7.2V23.1c0,2.6,1.3,3.7,3.2,3.7s3.2-1,3.2-3.6V11.6h7.2V23c0,7.2-4.2,10-10.4,10S75.6,30.1,75.6,23.2ZM86.3,5.4,93.2,7l-4.8,3.5h-5Z"/><path class="cls-1" d="M98.1,22.2h0a10.8648,10.8648,0,0,1,10.7-11.1h.4a10.1386,10.1386,0,0,1,9.5,5.5L113,20a3.7857,3.7857,0,0,0-3.8-2.5c-2.4,0-3.9,2.1-3.9,4.6v.1c0,2.7,1.6,4.7,3.9,4.7,2,0,3.1-1.1,4-2.6l5.8,3.3a11.159,11.159,0,0,1-15.2,4.3,12.0769,12.0769,0,0,1-5.7-9.7Z"/><polygon class="cls-1" points="120.3 11.6 127.4 11.6 127.4 26.6 137.2 26.6 137.2 32.6 120.3 32.6 120.3 11.6"/><polygon class="cls-1" points="138.8 11.6 156.7 11.6 156.7 17.4 145.7 17.4 145.7 19.5 155.9 19.5 155.9 24.6 145.7 24.6 145.7 26.9 156.9 26.9 156.9 32.6 138.8 32.6 138.8 11.6"/><path class="cls-1" d="M158,22.2h0a11.1686,11.1686,0,0,1,11.5-11.1c6.5,0,11.4,4.8,11.4,10.9v.1a11.1494,11.1494,0,0,1-11.5,11C162.9,33.1,158,28.3,158,22.2Zm15.9,0h0a4.5651,4.5651,0,0,0-4.2-4.8h-.2a4.4608,4.4608,0,0,0-4.4,4.5v.3a4.4727,4.4727,0,0,0,4.2,4.7h.2a4.5266,4.5266,0,0,0,4.4-4.5c-.1-.1-.1-.2,0-.2Z"/></g></g></svg>