<svg width="130" height="32" viewBox="0 0 130 32" fill="none" xmlns="http://www.w3.org/2000/svg">
<path d="M13.1044 20.6022L18.5042 27.2354H20.6153L19.689 26.1003L11.934 16.6576V17.3884V26.1003H5.60074V8.8254L4.47339 7.45618V27.2354H13.1044V20.6022Z" fill="#F94F28"/>
<path d="M10.6845 17.3883V14.962L6.8501 10.3364V24.8658H10.6845V17.3883Z" fill="#F94F28"/>
<path d="M0 0V31.3503H31.7309V0H0ZM17.9083 28.7182L14.3611 24.1211V28.7253H3.21689V3.89484L23.4876 28.7253L17.9083 28.7182ZM28.514 28.7182H26.7045L5.37824 2.63203H14.4114L17.0395 5.87419V2.63203H28.5284L28.514 28.7182Z" fill="#F94F28"/>
<path d="M13.8081 3.87354H7.99902L9.06893 5.17891H12.8315L19.6387 13.522V5.17891H25.972V24.866H25.1677L26.2951 26.2423H27.2645V3.87354H18.2959V5.87416V9.4001L16.0628 6.65455L13.8081 3.87354Z" fill="#F94F28"/>
<path d="M20.8885 13.5218V17.0265L18.6626 14.2951L12.236 6.42029H10.0818L24.1557 23.6314H24.723V6.42029H20.8885V13.5218Z" fill="#F94F28"/>
<path d="M39.8593 26.0436V26.2493C39.8851 26.5981 39.7915 26.9454 39.5936 27.2354C39.4822 27.3519 39.3454 27.4418 39.1937 27.4983C39.0419 27.5548 38.8791 27.5765 38.7176 27.5618C38.5478 27.5695 38.3782 27.542 38.2199 27.4809C38.0616 27.4198 37.918 27.3265 37.7985 27.207C37.5601 26.9288 37.4393 26.5706 37.461 26.2067C37.4393 25.8428 37.5601 25.4846 37.7985 25.2064C37.9117 25.0886 38.049 24.9961 38.2014 24.9349C38.3537 24.8737 38.5174 24.8454 38.6817 24.8517C38.9376 24.8474 39.1885 24.9218 39.3997 25.0645C39.5001 25.1364 39.5849 25.2274 39.649 25.3322C39.7132 25.437 39.7554 25.5534 39.7731 25.6746H39.17C39.1356 25.5777 39.0698 25.4946 38.9829 25.4381C38.8959 25.3817 38.7926 25.3552 38.6889 25.3625C38.6013 25.36 38.5145 25.3795 38.4366 25.4192C38.3587 25.4589 38.2923 25.5175 38.2437 25.5895C38.1331 25.7761 38.0806 25.9908 38.0929 26.2067C38.0815 26.4235 38.1365 26.6386 38.2509 26.8239C38.3221 26.9172 38.4201 26.987 38.5322 27.0244C38.6442 27.0619 38.765 27.0651 38.8789 27.0337C38.9928 27.0023 39.0945 26.9378 39.1707 26.8485C39.247 26.7592 39.2943 26.6493 39.3064 26.5331H38.8109V26.0648L39.8593 26.0436Z" fill="#F94F28"/>
<path d="M42.6382 26.9729H43.9379V27.4908H42.0278V24.88H43.902V25.3979H42.6382V25.93H43.7153V26.4124H42.6382V26.9729Z" fill="#F94F28"/>
<path d="M47.3919 25.9656C47.6282 26 47.8511 26.0955 48.0381 26.2423C48.1128 26.3173 48.1695 26.4079 48.2044 26.5073C48.2392 26.6067 48.2512 26.7126 48.2395 26.8172C48.2278 26.9217 48.1927 27.0224 48.1368 27.112C48.0809 27.2015 48.0055 27.2776 47.9161 27.3348C47.6806 27.4762 47.4089 27.5476 47.1334 27.5405C46.8575 27.5534 46.5857 27.4706 46.3651 27.3064C46.2641 27.2269 46.1817 27.1268 46.1234 27.0129C46.0652 26.8991 46.0325 26.7741 46.0276 26.6466H46.6738C46.694 26.7582 46.7464 26.8617 46.8246 26.9446C46.8697 26.9833 46.9221 27.0127 46.9788 27.031C47.0356 27.0492 47.0955 27.0561 47.1549 27.051C47.2743 27.0548 47.392 27.0226 47.4924 26.9588C47.531 26.9376 47.5632 26.9068 47.5859 26.8695C47.6086 26.8321 47.6209 26.7895 47.6217 26.746C47.6217 26.5615 47.5068 26.4764 47.2411 26.4267L46.9036 26.3629C46.6917 26.3296 46.4917 26.2443 46.322 26.1146C46.247 26.0435 46.1885 25.9571 46.1505 25.8615C46.1126 25.7658 46.0961 25.6632 46.1023 25.5606C46.1084 25.4581 46.137 25.3581 46.1861 25.2676C46.2352 25.177 46.3036 25.0981 46.3866 25.0362C46.5961 24.8905 46.8488 24.818 47.1047 24.8305C47.3595 24.8259 47.6099 24.8977 47.8227 25.0362C47.9181 25.1077 47.9969 25.1985 48.0538 25.3025C48.1108 25.4065 48.1446 25.5213 48.153 25.6392H47.5211C47.4876 25.4264 47.3368 25.32 47.0688 25.32C46.9694 25.3163 46.8722 25.3492 46.7959 25.4122C46.7539 25.4473 46.7236 25.4941 46.709 25.5464C46.6943 25.5988 46.696 25.6543 46.7139 25.7057C46.7318 25.7571 46.7649 25.8019 46.809 25.8344C46.8531 25.8668 46.9061 25.8854 46.9611 25.8875L47.3919 25.9656Z" fill="#F94F28"/>
<path d="M52.3749 24.88V25.3979H51.585V27.4908H50.9819V25.3979H50.1848V24.88H52.3749Z" fill="#F94F28"/>
<path d="M55.0818 24.88H54.4714V27.4908H55.0818V24.88Z" fill="#F94F28"/>
<path d="M58.4929 24.8305C58.6622 24.8238 58.8309 24.8525 58.9881 24.9149C59.1453 24.9772 59.2873 25.0718 59.4048 25.1923C59.6284 25.4763 59.7498 25.8258 59.7498 26.1855C59.7498 26.5453 59.6284 26.8948 59.4048 27.1788C59.1579 27.4108 58.8301 27.5402 58.4893 27.5402C58.1485 27.5402 57.8207 27.4108 57.5738 27.1788C57.3454 26.8969 57.2209 26.5466 57.2209 26.1855C57.2209 25.8245 57.3454 25.4742 57.5738 25.1923C57.6918 25.0705 57.835 24.9752 57.9936 24.9127C58.1521 24.8503 58.3224 24.8223 58.4929 24.8305ZM58.4929 27.0298C58.5836 27.0327 58.6736 27.0135 58.755 26.9739C58.8364 26.9343 58.9067 26.8755 58.9596 26.8028C59.077 26.6187 59.1323 26.4026 59.1176 26.1855C59.1176 25.6464 58.9022 25.3413 58.4929 25.3413C58.0836 25.3413 57.861 25.6464 57.861 26.1855C57.8463 26.4026 57.9016 26.6187 58.019 26.8028C58.0731 26.8761 58.1446 26.9351 58.2273 26.9747C58.3099 27.0143 58.4011 27.0332 58.4929 27.0298Z" fill="#F94F28"/>
<path d="M64.1367 24.88V27.4908H63.5048L62.5067 25.8803H62.4923V27.4908H61.8892V24.88H62.4995L63.512 26.5259H63.5335V24.88H64.1367Z" fill="#F94F28"/>
<path d="M66.959 26.9729H68.2587V27.4908H66.3486V24.88H68.2228V25.3979H66.959V25.93H68.0361V26.4124H66.959V26.9729Z" fill="#F94F28"/>
<path d="M71.6979 25.9656C71.9358 26.0022 72.1605 26.0974 72.3514 26.2423C72.426 26.3173 72.4828 26.4079 72.5176 26.5073C72.5524 26.6067 72.5644 26.7126 72.5527 26.8172C72.5411 26.9217 72.506 27.0224 72.45 27.112C72.3941 27.2015 72.3187 27.2776 72.2293 27.3348C71.9938 27.4762 71.7221 27.5476 71.4466 27.5405C71.1687 27.5521 70.8951 27.4695 70.6711 27.3064C70.5722 27.2256 70.4916 27.1251 70.4347 27.0114C70.3777 26.8977 70.3458 26.7734 70.3408 26.6466H70.9727C70.9799 26.7594 71.0198 26.8678 71.0876 26.9588C71.1819 27.036 71.3029 27.0742 71.4251 27.0652C71.5606 27.0742 71.695 27.0366 71.8057 26.9588C71.8434 26.9373 71.8746 26.9062 71.896 26.8688C71.9175 26.8314 71.9284 26.789 71.9277 26.746C71.9277 26.5615 71.82 26.4764 71.5543 26.4267L71.2168 26.3629C71.0041 26.3325 70.8034 26.2468 70.6352 26.1146C70.5602 26.0435 70.5017 25.9571 70.4637 25.8615C70.4258 25.7658 70.4093 25.6632 70.4155 25.5606C70.4216 25.4581 70.4502 25.3581 70.4993 25.2676C70.5484 25.177 70.6168 25.0981 70.6998 25.0362C70.9093 24.8905 71.162 24.818 71.4179 24.8305C71.6726 24.8272 71.9225 24.8989 72.136 25.0362C72.2313 25.1077 72.3101 25.1985 72.3671 25.3025C72.424 25.4065 72.4579 25.5213 72.4663 25.6392H71.8344C71.8009 25.4264 71.6501 25.32 71.382 25.32C71.2826 25.3163 71.1854 25.3492 71.1091 25.4122C71.0671 25.4473 71.0368 25.4941 71.0222 25.5464C71.0076 25.5988 71.0093 25.6543 71.0271 25.7057C71.045 25.7571 71.0781 25.8019 71.1222 25.8344C71.1663 25.8668 71.2193 25.8854 71.2743 25.8875L71.6979 25.9656Z" fill="#F94F28"/>
<path d="M78.218 24.88H77.6077V27.4908H78.218V24.88Z" fill="#F94F28"/>
<path d="M82.6845 24.88V27.4908H82.0526L81.0617 25.8803H81.0402V27.4908H80.437V24.88H81.0474L82.0598 26.5259H82.0814V24.88H82.6845Z" fill="#F94F28"/>
<path d="M84.8955 24.88H85.5992L86.3101 26.6891L87.0138 24.88H87.7175V27.4908H87.1143V25.8803H87.0928L86.5255 27.4908H86.0875L85.5274 25.8803H85.5059V27.4908H84.8955V24.88Z" fill="#F94F28"/>
<path d="M91.1214 24.8305C91.2918 24.8232 91.4618 24.8516 91.6202 24.914C91.7787 24.9764 91.9219 25.0712 92.0405 25.1923C92.2618 25.4772 92.3817 25.8264 92.3817 26.1855C92.3817 26.5447 92.2618 26.8938 92.0405 27.1787C91.7936 27.4108 91.4658 27.5402 91.125 27.5402C90.7842 27.5402 90.4564 27.4108 90.2095 27.1787C89.9859 26.8948 89.8645 26.5453 89.8645 26.1855C89.8645 25.8257 89.9859 25.4762 90.2095 25.1923C90.3267 25.0714 90.4687 24.9766 90.626 24.9142C90.7832 24.8518 90.9521 24.8233 91.1214 24.8305ZM91.1214 27.0297C91.2122 27.0333 91.3024 27.0144 91.3839 26.9747C91.4654 26.9351 91.5356 26.876 91.5882 26.8027C91.7055 26.6187 91.7608 26.4026 91.7461 26.1855C91.7461 25.6463 91.5307 25.3413 91.1214 25.3413C90.7121 25.3413 90.4895 25.6463 90.4895 26.1855C90.4738 26.4036 90.5319 26.6208 90.6547 26.8027C90.7067 26.8764 90.7768 26.9359 90.8585 26.9756C90.9401 27.0153 91.0305 27.0339 91.1214 27.0297Z" fill="#F94F28"/>
<path d="M96.5499 26.3131C96.6379 26.4247 96.6859 26.5619 96.6863 26.7033C96.6863 27.1999 96.3489 27.4908 95.6667 27.4908H94.5178V24.8801H95.6236C95.8538 24.8687 96.0813 24.9336 96.2699 25.0645C96.3482 25.1232 96.4112 25.1995 96.4537 25.2872C96.4962 25.3748 96.5168 25.4711 96.514 25.5682C96.5153 25.6723 96.4853 25.7744 96.4278 25.8615C96.3702 25.9487 96.2878 26.017 96.1909 26.0577C96.3348 26.1034 96.4604 26.1928 96.5499 26.3131ZM95.1138 25.3767V25.8875H95.6236C95.6922 25.8875 95.7579 25.8606 95.8064 25.8127C95.8549 25.7648 95.8821 25.6998 95.8821 25.6321C95.8821 25.5643 95.8549 25.4994 95.8064 25.4515C95.7579 25.4036 95.6922 25.3767 95.6236 25.3767H95.1138ZM95.638 26.9942C95.8965 26.9942 96.0329 26.8878 96.0329 26.675C96.0356 26.5879 96.0077 26.5027 95.9539 26.4337C95.9141 26.3989 95.8673 26.3727 95.8166 26.3568C95.7659 26.3409 95.7124 26.3357 95.6595 26.3415H95.1138V26.9942H95.638Z" fill="#F94F28"/>
<path d="M99.4504 24.88H98.8401V27.4908H99.4504V24.88Z" fill="#F94F28"/>
<path d="M102.273 26.9729H103.458V27.4908H101.663V24.88H102.273V26.9729Z" fill="#F94F28"/>
<path d="M106.186 24.88H105.576V27.4908H106.186V24.88Z" fill="#F94F28"/>
<path d="M110.222 27.4908L110.064 27.0225H109.145L108.987 27.4908H108.326L109.346 24.88H109.863L110.882 27.4908H110.222ZM109.252 26.5827H109.913L109.583 25.6178L109.252 26.5827Z" fill="#F94F28"/>
<path d="M115.14 27.0508C115.132 27.2015 115.159 27.3519 115.219 27.4907H114.616C114.554 27.3524 114.527 27.2016 114.537 27.0508V26.8806C114.539 26.8359 114.532 26.7913 114.515 26.7497C114.498 26.7082 114.473 26.6706 114.44 26.6397C114.407 26.6087 114.368 26.5851 114.325 26.5703C114.283 26.5556 114.237 26.5501 114.192 26.5542H113.582V27.4907H112.971V24.8799H114.128C114.386 24.8669 114.64 24.9449 114.846 25.0999C114.928 25.171 114.993 25.2597 115.035 25.3593C115.077 25.4589 115.096 25.5667 115.09 25.6745C115.089 25.7983 115.055 25.9198 114.992 26.0268C114.929 26.1339 114.839 26.2227 114.731 26.2846C114.848 26.3294 114.948 26.4099 115.017 26.5144C115.085 26.6189 115.118 26.7421 115.111 26.8664L115.14 27.0508ZM114.099 26.086C114.386 26.086 114.494 25.9796 114.494 25.7242C114.494 25.4688 114.364 25.3978 114.113 25.3978H113.582V26.1073L114.099 26.086Z" fill="#F94F28"/>
<path d="M117.955 24.88H117.345V27.4908H117.955V24.88Z" fill="#F94F28"/>
<path d="M121.983 27.4908L121.825 27.0225H120.87L120.712 27.4908H120.052L121.071 24.88H121.617L122.63 27.4908H121.983ZM121.014 26.5827H121.675L121.351 25.6178L121.014 26.5827Z" fill="#F94F28"/>
<path d="M125.969 25.9656C126.205 26 126.428 26.0955 126.615 26.2423C126.689 26.3174 126.746 26.4079 126.781 26.5073C126.816 26.6067 126.828 26.7126 126.816 26.8172C126.804 26.9217 126.769 27.0224 126.713 27.112C126.658 27.2015 126.582 27.2776 126.493 27.3348C126.26 27.4775 125.991 27.5491 125.717 27.5406C125.439 27.5521 125.166 27.4695 124.942 27.3064C124.841 27.2269 124.758 27.1268 124.7 27.013C124.642 26.8991 124.609 26.7741 124.604 26.6467H125.236C125.256 26.7583 125.309 26.8617 125.387 26.9446C125.433 26.9839 125.487 27.0135 125.545 27.0318C125.603 27.0501 125.664 27.0567 125.724 27.051C125.841 27.0538 125.957 27.0217 126.055 26.9588C126.093 26.9377 126.126 26.9069 126.148 26.8695C126.171 26.8321 126.183 26.7895 126.184 26.746C126.184 26.5615 126.069 26.4764 125.803 26.4267L125.466 26.3629C125.254 26.3297 125.054 26.2443 124.884 26.1146C124.809 26.0435 124.751 25.9571 124.713 25.8615C124.675 25.7658 124.658 25.6632 124.665 25.5607C124.671 25.4581 124.699 25.3581 124.748 25.2676C124.798 25.177 124.866 25.0981 124.949 25.0362C125.159 24.891 125.411 24.8186 125.667 24.8305C125.922 24.8246 126.173 24.8964 126.385 25.0362C126.482 25.1064 126.562 25.1968 126.619 25.3011C126.676 25.4054 126.709 25.5209 126.715 25.6393H126.083C126.083 25.4264 125.897 25.32 125.638 25.32C125.537 25.3153 125.437 25.3481 125.358 25.4122C125.316 25.4473 125.286 25.4941 125.271 25.5464C125.257 25.5988 125.258 25.6543 125.276 25.7057C125.294 25.7571 125.327 25.802 125.371 25.8344C125.415 25.8669 125.468 25.8854 125.523 25.8876L125.969 25.9656Z" fill="#F94F28"/>
<path d="M39.8593 26.0436V26.2493C39.8851 26.5981 39.7915 26.9454 39.5936 27.2354C39.4822 27.3519 39.3454 27.4418 39.1937 27.4983C39.0419 27.5548 38.8791 27.5765 38.7176 27.5618C38.5478 27.5695 38.3782 27.542 38.2199 27.4809C38.0616 27.4198 37.918 27.3265 37.7985 27.207C37.5601 26.9288 37.4393 26.5706 37.461 26.2067C37.4393 25.8428 37.5601 25.4846 37.7985 25.2064C37.9117 25.0886 38.049 24.9961 38.2014 24.9349C38.3537 24.8737 38.5174 24.8454 38.6817 24.8517C38.9376 24.8474 39.1885 24.9218 39.3997 25.0645C39.5001 25.1364 39.5849 25.2274 39.649 25.3322C39.7132 25.437 39.7554 25.5534 39.7731 25.6746H39.17C39.1356 25.5777 39.0698 25.4946 38.9829 25.4381C38.8959 25.3817 38.7926 25.3552 38.6889 25.3625C38.6013 25.36 38.5145 25.3795 38.4366 25.4192C38.3587 25.4589 38.2923 25.5175 38.2437 25.5895C38.1331 25.7761 38.0806 25.9908 38.0929 26.2067C38.0815 26.4235 38.1365 26.6386 38.2509 26.8239C38.3221 26.9172 38.4201 26.987 38.5322 27.0244C38.6442 27.0619 38.765 27.0651 38.8789 27.0337C38.9928 27.0023 39.0945 26.9378 39.1707 26.8485C39.247 26.7592 39.2943 26.6493 39.3064 26.5331H38.8109V26.0648L39.8593 26.0436Z" fill="#F94F28"/>
<path d="M42.6382 26.9729H43.9379V27.4908H42.0278V24.88H43.902V25.3979H42.6382V25.93H43.7153V26.4124H42.6382V26.9729Z" fill="#F94F28"/>
<path d="M47.3919 25.9656C47.6282 26 47.8511 26.0955 48.0381 26.2423C48.1128 26.3173 48.1695 26.4079 48.2044 26.5073C48.2392 26.6067 48.2512 26.7126 48.2395 26.8172C48.2278 26.9217 48.1927 27.0224 48.1368 27.112C48.0809 27.2015 48.0055 27.2776 47.9161 27.3348C47.6806 27.4762 47.4089 27.5476 47.1334 27.5405C46.8575 27.5534 46.5857 27.4706 46.3651 27.3064C46.2641 27.2269 46.1817 27.1268 46.1234 27.0129C46.0652 26.8991 46.0325 26.7741 46.0276 26.6466H46.6738C46.694 26.7582 46.7464 26.8617 46.8246 26.9446C46.8697 26.9833 46.9221 27.0127 46.9788 27.031C47.0356 27.0492 47.0955 27.0561 47.1549 27.051C47.2743 27.0548 47.392 27.0226 47.4924 26.9588C47.531 26.9376 47.5632 26.9068 47.5859 26.8695C47.6086 26.8321 47.6209 26.7895 47.6217 26.746C47.6217 26.5615 47.5068 26.4764 47.2411 26.4267L46.9036 26.3629C46.6917 26.3296 46.4917 26.2443 46.322 26.1146C46.247 26.0435 46.1885 25.9571 46.1505 25.8615C46.1126 25.7658 46.0961 25.6632 46.1023 25.5606C46.1084 25.4581 46.137 25.3581 46.1861 25.2676C46.2352 25.177 46.3036 25.0981 46.3866 25.0362C46.5961 24.8905 46.8488 24.818 47.1047 24.8305C47.3595 24.8259 47.6099 24.8977 47.8227 25.0362C47.9181 25.1077 47.9969 25.1985 48.0538 25.3025C48.1108 25.4065 48.1446 25.5213 48.153 25.6392H47.5211C47.4876 25.4264 47.3368 25.32 47.0688 25.32C46.9694 25.3163 46.8722 25.3492 46.7959 25.4122C46.7539 25.4473 46.7236 25.4941 46.709 25.5464C46.6943 25.5988 46.696 25.6543 46.7139 25.7057C46.7318 25.7571 46.7649 25.8019 46.809 25.8344C46.8531 25.8668 46.9061 25.8854 46.9611 25.8875L47.3919 25.9656Z" fill="#F94F28"/>
<path d="M52.3749 24.88V25.3979H51.585V27.4908H50.9819V25.3979H50.1848V24.88H52.3749Z" fill="#F94F28"/>
<path d="M55.0818 24.88H54.4714V27.4908H55.0818V24.88Z" fill="#F94F28"/>
<path d="M58.4929 24.8305C58.6622 24.8238 58.8309 24.8525 58.9881 24.9149C59.1453 24.9772 59.2873 25.0718 59.4048 25.1923C59.6284 25.4763 59.7498 25.8258 59.7498 26.1855C59.7498 26.5453 59.6284 26.8948 59.4048 27.1788C59.1579 27.4108 58.8301 27.5402 58.4893 27.5402C58.1485 27.5402 57.8207 27.4108 57.5738 27.1788C57.3454 26.8969 57.2209 26.5466 57.2209 26.1855C57.2209 25.8245 57.3454 25.4742 57.5738 25.1923C57.6918 25.0705 57.835 24.9752 57.9936 24.9127C58.1521 24.8503 58.3224 24.8223 58.4929 24.8305ZM58.4929 27.0298C58.5836 27.0327 58.6736 27.0135 58.755 26.9739C58.8364 26.9343 58.9067 26.8755 58.9596 26.8028C59.077 26.6187 59.1323 26.4026 59.1176 26.1855C59.1176 25.6464 58.9022 25.3413 58.4929 25.3413C58.0836 25.3413 57.861 25.6464 57.861 26.1855C57.8463 26.4026 57.9016 26.6187 58.019 26.8028C58.0731 26.8761 58.1446 26.9351 58.2273 26.9747C58.3099 27.0143 58.4011 27.0332 58.4929 27.0298Z" fill="#F94F28"/>
<path d="M64.1367 24.88V27.4908H63.5048L62.5067 25.8803H62.4923V27.4908H61.8892V24.88H62.4995L63.512 26.5259H63.5335V24.88H64.1367Z" fill="#F94F28"/>
<path d="M66.959 26.9729H68.2587V27.4908H66.3486V24.88H68.2228V25.3979H66.959V25.93H68.0361V26.4124H66.959V26.9729Z" fill="#F94F28"/>
<path d="M71.6979 25.9656C71.9358 26.0022 72.1605 26.0974 72.3514 26.2423C72.426 26.3173 72.4828 26.4079 72.5176 26.5073C72.5524 26.6067 72.5644 26.7126 72.5527 26.8172C72.5411 26.9217 72.506 27.0224 72.45 27.112C72.3941 27.2015 72.3187 27.2776 72.2293 27.3348C71.9938 27.4762 71.7221 27.5476 71.4466 27.5405C71.1687 27.5521 70.8951 27.4695 70.6711 27.3064C70.5722 27.2256 70.4916 27.1251 70.4347 27.0114C70.3777 26.8977 70.3458 26.7734 70.3408 26.6466H70.9727C70.9799 26.7594 71.0198 26.8678 71.0876 26.9588C71.1819 27.036 71.3029 27.0742 71.4251 27.0652C71.5606 27.0742 71.695 27.0366 71.8057 26.9588C71.8434 26.9373 71.8746 26.9062 71.896 26.8688C71.9175 26.8314 71.9284 26.789 71.9277 26.746C71.9277 26.5615 71.82 26.4764 71.5543 26.4267L71.2168 26.3629C71.0041 26.3325 70.8034 26.2468 70.6352 26.1146C70.5602 26.0435 70.5017 25.9571 70.4637 25.8615C70.4258 25.7658 70.4093 25.6632 70.4155 25.5606C70.4216 25.4581 70.4502 25.3581 70.4993 25.2676C70.5484 25.177 70.6168 25.0981 70.6998 25.0362C70.9093 24.8905 71.162 24.818 71.4179 24.8305C71.6726 24.8272 71.9225 24.8989 72.136 25.0362C72.2313 25.1077 72.3101 25.1985 72.3671 25.3025C72.424 25.4065 72.4579 25.5213 72.4663 25.6392H71.8344C71.8009 25.4264 71.6501 25.32 71.382 25.32C71.2826 25.3163 71.1854 25.3492 71.1091 25.4122C71.0671 25.4473 71.0368 25.4941 71.0222 25.5464C71.0076 25.5988 71.0093 25.6543 71.0271 25.7057C71.045 25.7571 71.0781 25.8019 71.1222 25.8344C71.1663 25.8668 71.2193 25.8854 71.2743 25.8875L71.6979 25.9656Z" fill="#F94F28"/>
<path d="M78.218 24.88H77.6077V27.4908H78.218V24.88Z" fill="#F94F28"/>
<path d="M82.6845 24.88V27.4908H82.0526L81.0617 25.8803H81.0402V27.4908H80.437V24.88H81.0474L82.0598 26.5259H82.0814V24.88H82.6845Z" fill="#F94F28"/>
<path d="M84.8955 24.88H85.5992L86.3101 26.6891L87.0138 24.88H87.7175V27.4908H87.1143V25.8803H87.0928L86.5255 27.4908H86.0875L85.5274 25.8803H85.5059V27.4908H84.8955V24.88Z" fill="#F94F28"/>
<path d="M91.1214 24.8305C91.2918 24.8232 91.4618 24.8516 91.6202 24.914C91.7787 24.9764 91.9219 25.0712 92.0405 25.1923C92.2618 25.4772 92.3817 25.8264 92.3817 26.1855C92.3817 26.5447 92.2618 26.8938 92.0405 27.1787C91.7936 27.4108 91.4658 27.5402 91.125 27.5402C90.7842 27.5402 90.4564 27.4108 90.2095 27.1787C89.9859 26.8948 89.8645 26.5453 89.8645 26.1855C89.8645 25.8257 89.9859 25.4762 90.2095 25.1923C90.3267 25.0714 90.4687 24.9766 90.626 24.9142C90.7832 24.8518 90.9521 24.8233 91.1214 24.8305ZM91.1214 27.0297C91.2122 27.0333 91.3024 27.0144 91.3839 26.9747C91.4654 26.9351 91.5356 26.876 91.5882 26.8027C91.7055 26.6187 91.7608 26.4026 91.7461 26.1855C91.7461 25.6463 91.5307 25.3413 91.1214 25.3413C90.7121 25.3413 90.4895 25.6463 90.4895 26.1855C90.4738 26.4036 90.5319 26.6208 90.6547 26.8027C90.7067 26.8764 90.7768 26.9359 90.8585 26.9756C90.9401 27.0153 91.0305 27.0339 91.1214 27.0297Z" fill="#F94F28"/>
<path d="M96.5499 26.3131C96.6379 26.4247 96.6859 26.5619 96.6863 26.7033C96.6863 27.1999 96.3489 27.4908 95.6667 27.4908H94.5178V24.8801H95.6236C95.8538 24.8687 96.0813 24.9336 96.2699 25.0645C96.3482 25.1232 96.4112 25.1995 96.4537 25.2872C96.4962 25.3748 96.5168 25.4711 96.514 25.5682C96.5153 25.6723 96.4853 25.7744 96.4278 25.8615C96.3702 25.9487 96.2878 26.017 96.1909 26.0577C96.3348 26.1034 96.4604 26.1928 96.5499 26.3131ZM95.1138 25.3767V25.8875H95.6236C95.6922 25.8875 95.7579 25.8606 95.8064 25.8127C95.8549 25.7648 95.8821 25.6998 95.8821 25.6321C95.8821 25.5643 95.8549 25.4994 95.8064 25.4515C95.7579 25.4036 95.6922 25.3767 95.6236 25.3767H95.1138ZM95.638 26.9942C95.8965 26.9942 96.0329 26.8878 96.0329 26.675C96.0356 26.5879 96.0077 26.5027 95.9539 26.4337C95.9141 26.3989 95.8673 26.3727 95.8166 26.3568C95.7659 26.3409 95.7124 26.3357 95.6595 26.3415H95.1138V26.9942H95.638Z" fill="#F94F28"/>
<path d="M99.4504 24.88H98.8401V27.4908H99.4504V24.88Z" fill="#F94F28"/>
<path d="M102.273 26.9729H103.458V27.4908H101.663V24.88H102.273V26.9729Z" fill="#F94F28"/>
<path d="M106.186 24.88H105.576V27.4908H106.186V24.88Z" fill="#F94F28"/>
<path d="M110.222 27.4908L110.064 27.0225H109.145L108.987 27.4908H108.326L109.346 24.88H109.863L110.882 27.4908H110.222ZM109.252 26.5827H109.913L109.583 25.6178L109.252 26.5827Z" fill="#F94F28"/>
<path d="M115.14 27.0508C115.132 27.2015 115.159 27.3519 115.219 27.4907H114.616C114.554 27.3524 114.527 27.2016 114.537 27.0508V26.8806C114.539 26.8359 114.532 26.7913 114.515 26.7497C114.498 26.7082 114.473 26.6706 114.44 26.6397C114.407 26.6087 114.368 26.5851 114.325 26.5703C114.283 26.5556 114.237 26.5501 114.192 26.5542H113.582V27.4907H112.971V24.8799H114.128C114.386 24.8669 114.64 24.9449 114.846 25.0999C114.928 25.171 114.993 25.2597 115.035 25.3593C115.077 25.4589 115.096 25.5667 115.09 25.6745C115.089 25.7983 115.055 25.9198 114.992 26.0268C114.929 26.1339 114.839 26.2227 114.731 26.2846C114.848 26.3294 114.948 26.4099 115.017 26.5144C115.085 26.6189 115.118 26.7421 115.111 26.8664L115.14 27.0508ZM114.099 26.086C114.386 26.086 114.494 25.9796 114.494 25.7242C114.494 25.4688 114.364 25.3978 114.113 25.3978H113.582V26.1073L114.099 26.086Z" fill="#F94F28"/>
<path d="M117.955 24.88H117.345V27.4908H117.955V24.88Z" fill="#F94F28"/>
<path d="M121.983 27.4908L121.825 27.0225H120.87L120.712 27.4908H120.052L121.071 24.88H121.617L122.63 27.4908H121.983ZM121.014 26.5827H121.675L121.351 25.6178L121.014 26.5827Z" fill="#F94F28"/>
<path d="M125.969 25.9656C126.205 26 126.428 26.0955 126.615 26.2423C126.689 26.3174 126.746 26.4079 126.781 26.5073C126.816 26.6067 126.828 26.7126 126.816 26.8172C126.804 26.9217 126.769 27.0224 126.713 27.112C126.658 27.2015 126.582 27.2776 126.493 27.3348C126.26 27.4775 125.991 27.5491 125.717 27.5406C125.439 27.5521 125.166 27.4695 124.942 27.3064C124.841 27.2269 124.758 27.1268 124.7 27.013C124.642 26.8991 124.609 26.7741 124.604 26.6467H125.236C125.256 26.7583 125.309 26.8617 125.387 26.9446C125.433 26.9839 125.487 27.0135 125.545 27.0318C125.603 27.0501 125.664 27.0567 125.724 27.051C125.841 27.0538 125.957 27.0217 126.055 26.9588C126.093 26.9377 126.126 26.9069 126.148 26.8695C126.171 26.8321 126.183 26.7895 126.184 26.746C126.184 26.5615 126.069 26.4764 125.803 26.4267L125.466 26.3629C125.254 26.3297 125.054 26.2443 124.884 26.1146C124.809 26.0435 124.751 25.9571 124.713 25.8615C124.675 25.7658 124.658 25.6632 124.665 25.5607C124.671 25.4581 124.699 25.3581 124.748 25.2676C124.798 25.177 124.866 25.0981 124.949 25.0362C125.159 24.891 125.411 24.8186 125.667 24.8305C125.922 24.8246 126.173 24.8964 126.385 25.0362C126.482 25.1064 126.562 25.1968 126.619 25.3011C126.676 25.4054 126.709 25.5209 126.715 25.6393H126.083C126.083 25.4264 125.897 25.32 125.638 25.32C125.537 25.3153 125.437 25.3481 125.358 25.4122C125.316 25.4473 125.286 25.4941 125.271 25.5464C125.257 25.5988 125.258 25.6543 125.276 25.7057C125.294 25.7571 125.327 25.802 125.371 25.8344C125.415 25.8669 125.468 25.8854 125.523 25.8876L125.969 25.9656Z" fill="#F94F28"/>
<path d="M37.6042 8.22241H42.3291L47.7001 14.806V8.22241H52.705V23.1349H48.2171L42.6091 16.2533V23.1349H37.6042V8.22241Z" fill="#F94F28"/>
<path d="M54.2996 16.4448V8.22231H59.4337V16.3809C59.4337 18.2396 60.403 19.0271 61.7602 19.0271C63.1173 19.0271 64.0867 18.3177 64.0867 16.4873V8.22231H69.2208V16.3171C69.2208 21.4109 66.2265 23.4115 61.7171 23.4115C57.2077 23.4115 54.2996 21.3896 54.2996 16.4448ZM61.9325 3.80957L66.9158 4.9163L63.462 7.37097H59.8717L61.9325 3.80957Z" fill="#F94F28"/>
<path d="M70.4696 15.721V15.6785C70.4566 14.6399 70.6561 13.6094 71.0562 12.6488C71.4562 11.6883 72.0485 10.8175 72.7976 10.0887C73.5466 9.35989 74.437 8.7881 75.4152 8.40763C76.3934 8.02716 77.4394 7.84586 78.4903 7.87461C79.885 7.81899 81.2674 8.15373 82.478 8.84029C83.6887 9.52684 84.6785 10.5373 85.3333 11.7553L81.1399 14.1887C80.9193 13.6499 80.5398 13.1892 80.0505 12.8666C79.5613 12.5439 78.9851 12.3742 78.3969 12.3796C76.6951 12.3796 75.575 13.8481 75.575 15.6359V15.6785C75.575 17.6153 76.7382 18.9845 78.3969 18.9845C79.833 18.9845 80.6229 18.2183 81.2692 17.1116L85.4339 19.4314C84.5743 20.9432 83.2353 22.1337 81.6234 22.8194C80.0114 23.5052 78.216 23.6481 76.5137 23.2262C74.8114 22.8044 73.2968 21.8411 72.2033 20.4848C71.1098 19.1286 70.498 17.4547 70.4624 15.721H70.4696Z" fill="#F94F28"/>
<path d="M86.4036 8.22241H91.4515V18.8782H98.5459V23.1349H86.4036V8.22241Z" fill="#F94F28"/>
<path d="M99.6445 8.22241H112.519V12.3159H104.606V13.827H111.981V17.431H104.606V19.0485H112.627V23.1349H99.6445V8.22241Z" fill="#F94F28"/>
<path d="M113.453 15.7212V15.6786C113.453 11.351 117.043 7.87476 121.718 7.87476C126.392 7.87476 129.932 11.2801 129.932 15.6077V15.6502C129.932 19.9779 126.342 23.4541 121.675 23.4541C117.007 23.4541 113.453 20.0488 113.453 15.7212ZM124.841 15.7212V15.6786C124.865 15.2504 124.802 14.8217 124.654 14.4183C124.507 14.0149 124.278 13.6451 123.983 13.3311C123.687 13.017 123.33 12.7653 122.933 12.5908C122.537 12.4164 122.109 12.3228 121.675 12.3159C121.246 12.3183 120.822 12.4063 120.428 12.5748C120.035 12.7432 119.68 12.9886 119.384 13.2961C119.089 13.6036 118.86 13.9669 118.711 14.3641C118.561 14.7614 118.495 15.1844 118.515 15.6077V15.6502C118.491 16.0794 118.555 16.509 118.703 16.9133C118.85 17.3175 119.08 17.6881 119.376 18.0028C119.672 18.3175 120.03 18.5698 120.427 18.7446C120.825 18.9194 121.254 19.0131 121.689 19.0201C122.115 19.013 122.536 18.9212 122.926 18.7503C123.316 18.5793 123.667 18.3325 123.958 18.0248C124.25 17.717 124.476 17.3545 124.622 16.9587C124.769 16.563 124.834 16.1421 124.813 15.7212H124.841Z" fill="#F94F28"/>
</svg>
