<?xml version="1.0" encoding="utf-8"?>
<!-- Generator: Adobe Illustrator 24.0.2, SVG Export Plug-In . SVG Version: 6.00 Build 0)  -->
<svg version="1.1" id="Capa_1" xmlns="http://www.w3.org/2000/svg" xmlns:xlink="http://www.w3.org/1999/xlink" x="0px" y="0px"
	 viewBox="0 0 296.3 405.1" style="enable-background:new 0 0 296.3 405.1;" xml:space="preserve">
<style type="text/css">
	.st0{fill-rule:evenodd;clip-rule:evenodd;fill:#F94F28;}
	.st1{fill:#FFFFFF;}
	.st2{fill:#F94F28;}
</style>
<g>
	<path class="st0" d="M148.2,0C230,0,296.3,68.5,296.3,153c0,74.6-71.9,180.5-127.3,242.8c-11.1,12.5-30.6,12.5-41.7,0
		C71.9,333.5,0,227.6,0,153C0,68.5,66.3,0,148.2,0z M148.2,75.7c43.8,0,79.3,35.5,79.3,79.3s-35.5,79.3-79.3,79.3
		S68.8,198.8,68.8,155S104.3,75.7,148.2,75.7z"/>
</g>
<circle class="st1" cx="148.2" cy="153.7" r="101.8"/>
<g>
	<path class="st2" d="M153.6,90.4v15.1l-12.1-15.1H99.8l98.4,121.9h8.4V90.4H153.6z M189,188.5h-2.6l-65.1-80.4h9.9l29.8,36.8
		l10.2,12.8v-49.5H189V188.5z M200.9,200.7h-4.6l-5.2-6.4h3.7v-92h-29.2v39l-31.4-39h-17.4l-4.9-6.1h26.8l10.4,13l10.3,12.8V96.2
		h41.5V200.7z"/>
	<path class="st2" d="M89.8,96.2v116h51.4v-21.4l16.6,21.5h25.8L89.8,96.2z M130,159.3V156l35.8,44.1l4.3,5.3h-9.7l-25-31.2v31H95.6
		v-92.3l5.1,6.4V200H130V159.3z M106.6,126.3l17.7,21.6v46.4h-17.7V126.3z"/>
</g>
</svg>
