<svg version="1.1" id="Capa_1" xmlns="http://www.w3.org/2000/svg" xmlns:xlink="http://www.w3.org/1999/xlink" x="0px" y="0px"
	 viewBox="0 0 27.9 36.2" style="enable-background:new 0 0 27.9 36.2;" xml:space="preserve">
<style type="text/css">
	.st0{fill:#FFFFFF;}
	.st1{fill:#322F31;}
</style>
<rect x="7.4" y="5" class="st0" width="13" height="17.8"/>
<g id="Capa_2_1_">
	<g id="Capa_1-2">
		<path class="st1" d="M13.9,0C6.2,0.1,0,6.4,0,14.1c0,2.8,0.9,5.4,2.4,7.7l9.8,13.4c0.5,1,1.8,1.3,2.7,0.7c0.3-0.2,0.6-0.4,0.7-0.7
			l9.8-13.4c4.3-6.4,2.6-15.1-3.8-19.4C19.4,0.8,16.7,0,13.9,0z M17.8,16.2h-2.3l-2.8-3.5v3.5h-2.5V8.6h2.4l2.7,3.4V8.6h2.5V16.2z"
			/>
	</g>
</g>
</svg>
