<svg xmlns="http://www.w3.org/2000/svg" viewBox="0 0 295 295"><defs><style>.cls-1{fill:#f34f28;}.cls-2{fill:#383838;}</style></defs><g id="Capa_2" data-name="Capa 2"><g id="Capa_1-2" data-name="Capa 1"><path class="cls-1" d="M248.45,295H46.55A46.6,46.6,0,0,1,0,248.45V46.55A46.6,46.6,0,0,1,46.55,0h201.9A46.6,46.6,0,0,1,295,46.55v201.9A46.6,46.6,0,0,1,248.45,295ZM46.55,2A44.59,44.59,0,0,0,2,46.55v201.9A44.59,44.59,0,0,0,46.55,293h201.9A44.59,44.59,0,0,0,293,248.45V46.55A44.59,44.59,0,0,0,248.45,2Z"/><path class="cls-2" d="M161.92,206.27a58.77,58.77,0,1,1,28-110.44,3,3,0,1,1-2.87,5.27,52.77,52.77,0,1,0,.33,92.62,3,3,0,0,1,2.9,5.26A58.85,58.85,0,0,1,161.92,206.27Z"/><path class="cls-2" d="M154.85,141.5h0L91,140.7a2,2,0,0,1-2-2,2,2,0,0,1,2-2h0l63.84.8a2,2,0,0,1,0,4Z"/><path class="cls-2" d="M154.89,157.5h0L91,156.7a2,2,0,0,1,0-4l63.84.8a2,2,0,0,1,0,4Z"/></g></g></svg>