<svg xmlns="http://www.w3.org/2000/svg" viewBox="0 0 295 295"><defs><style>.cls-1{fill:#f34f28;}.cls-2{fill:#383838;}</style></defs><g id="Capa_2" data-name="Capa 2"><g id="Capa_1-2" data-name="Capa 1"><path class="cls-1" d="M248.45,295H46.55A46.6,46.6,0,0,1,0,248.45V46.55A46.6,46.6,0,0,1,46.55,0h201.9A46.6,46.6,0,0,1,295,46.55v201.9A46.6,46.6,0,0,1,248.45,295ZM46.55,2A44.59,44.59,0,0,0,2,46.55v201.9A44.59,44.59,0,0,0,46.55,293h201.9A44.59,44.59,0,0,0,293,248.45V46.55A44.59,44.59,0,0,0,248.45,2Z"/><path class="cls-2" d="M221,135.5a1.5,1.5,0,0,1-1.5-1.5V116A31.55,31.55,0,0,0,188,84.5H107A31.55,31.55,0,0,0,75.5,116v18a1.5,1.5,0,0,1-3,0V116A34.55,34.55,0,0,1,107,81.5h81A34.55,34.55,0,0,1,222.5,116v18A1.5,1.5,0,0,1,221,135.5Z"/><path class="cls-2" d="M226,199a2,2,0,0,1-2-2V149a23,23,0,0,0-23-23H94a23,23,0,0,0-23,23v48a2,2,0,0,1-4,0V149a27,27,0,0,1,27-27H201a27,27,0,0,1,27,27v48A2,2,0,0,1,226,199Z"/><path class="cls-2" d="M129,126H105a12,12,0,0,1,0-24h24a12,12,0,0,1,0,24Zm-24-20a8,8,0,0,0,0,16h24a8,8,0,0,0,0-16Z"/><path class="cls-2" d="M190,126H166a12,12,0,0,1,0-24h24a12,12,0,0,1,0,24Zm-24-20a8,8,0,0,0,0,16h24a8,8,0,0,0,0-16Z"/><path class="cls-2" d="M226,172H69a2,2,0,0,1,0-4H226a2,2,0,0,1,0,4Z"/></g></g></svg>