<svg xmlns="http://www.w3.org/2000/svg" viewBox="0 0 295 295"><defs><style>.cls-1{fill:#f34f28;}.cls-2{fill:#383838;}</style></defs><g id="Capa_2" data-name="Capa 2"><g id="Capa_1-2" data-name="Capa 1"><path class="cls-1" d="M248.45,295H46.55A46.6,46.6,0,0,1,0,248.45V46.55A46.6,46.6,0,0,1,46.55,0h201.9A46.6,46.6,0,0,1,295,46.55v201.9A46.6,46.6,0,0,1,248.45,295ZM46.55,2A44.59,44.59,0,0,0,2,46.55v201.9A44.59,44.59,0,0,0,46.55,293h201.9A44.59,44.59,0,0,0,293,248.45V46.55A44.59,44.59,0,0,0,248.45,2Z"/><rect class="cls-2" x="88.94" y="76.75" width="80.11" height="3"/><path class="cls-2" d="M164.45,86.06a1.48,1.48,0,0,1-.95-.34,1.49,1.49,0,0,1-.21-2.11l4.41-5.39-4.6-5.29a1.5,1.5,0,0,1,2.27-2l6.25,7.2-6,7.34A1.51,1.51,0,0,1,164.45,86.06Z"/><path class="cls-2" d="M201.39,224.42a1.5,1.5,0,0,1-1.5-1.5V105.37a1.5,1.5,0,0,1,3,0V222.92A1.5,1.5,0,0,1,201.39,224.42Z"/><path class="cls-2" d="M145.64,224.12h-33a26.94,26.94,0,0,1-26.91-26.91V130.49a27,27,0,0,1,26.91-26.92h33a27,27,0,0,1,26.92,26.92v66.72A26.94,26.94,0,0,1,145.64,224.12Zm-33-117.55a23.94,23.94,0,0,0-23.91,23.92v66.72a23.93,23.93,0,0,0,23.91,23.91h33a23.94,23.94,0,0,0,23.92-23.91V130.49a24,24,0,0,0-23.92-23.92Z"/><path class="cls-2" d="M94.4,86.06a1.49,1.49,0,0,1-1.13-.52L87,78.34,93,71a1.5,1.5,0,0,1,2.32,1.9l-4.41,5.39,4.59,5.29a1.48,1.48,0,0,1-.15,2.11A1.46,1.46,0,0,1,94.4,86.06Z"/><path class="cls-2" d="M195.18,111.68a1.5,1.5,0,0,1-1-2.63l7.2-6.25,7.34,6a1.5,1.5,0,1,1-1.9,2.32l-5.38-4.41-5.29,4.59A1.51,1.51,0,0,1,195.18,111.68Z"/><path class="cls-2" d="M201.58,225l-7.35-6a1.5,1.5,0,0,1,1.9-2.33l5.39,4.41,5.29-4.59a1.5,1.5,0,1,1,2,2.27Z"/><rect class="cls-2" x="84.3" y="113.57" width="26.03" height="2" transform="translate(-52.51 102.37) rotate(-45)"/><rect class="cls-2" x="139.97" y="208.51" width="35.94" height="2" transform="translate(-101.88 173.05) rotate(-45)"/><rect class="cls-2" x="80.22" y="120.95" width="47.73" height="2" transform="translate(-55.75 109.31) rotate(-45)"/><rect class="cls-2" x="121.97" y="201.58" width="57.51" height="2" transform="translate(-99.1 165.92) rotate(-45)"/><rect class="cls-2" x="77.35" y="128.17" width="67.31" height="2" transform="translate(-58.82 116.32) rotate(-45)"/><rect class="cls-2" x="105.25" y="194.37" width="77.09" height="2" transform="translate(-96.03 158.9) rotate(-45)"/><rect class="cls-2" x="74.42" y="135.24" width="87.31" height="2" transform="translate(-61.75 123.4) rotate(-45)"/><rect class="cls-2" x="90.03" y="186.53" width="94.94" height="2" transform="translate(-92.33 152.15) rotate(-45)"/><rect class="cls-2" x="72.26" y="144.17" width="102.04" height="2" transform="translate(-66.54 129.7) rotate(-45)"/><rect class="cls-2" x="79.48" y="176.76" width="107.3" height="2" transform="translate(-86.7 146.2) rotate(-45)"/><rect class="cls-2" x="69.63" y="155.05" width="113.84" height="2" transform="translate(-73.28 135.19) rotate(-45)"/><rect class="cls-2" x="72.1" y="164.79" width="115.71" height="2" transform="translate(-79.17 140.45) rotate(-45)"/></g></g></svg>