<svg width="161" height="135" viewBox="0 0 161 135" fill="none" xmlns="http://www.w3.org/2000/svg">
<path opacity="0.35" d="M31.7646 63.5293L95.4445 -0.000109595L160.588 63.5293L31.7646 63.5293Z" fill="#F94F28"/>
<path opacity="0.35" d="M128.823 63.5293L65.1437 -0.000109595L-4.57764e-05 63.5293L128.823 63.5293Z" fill="#F94F28"/>
<path opacity="0.35" d="M128.823 5.72205e-05L144.706 16.2986L144.706 48.04L128.823 32.5472L128.823 5.72205e-05Z" fill="#F94F28"/>
<path opacity="0.35" d="M31.7646 5.72205e-05L15.8823 16.2986L15.8823 48.04L31.7646 32.5472L31.7646 5.72205e-05Z" fill="#F94F28"/>
<rect opacity="0.35" x="47.647" y="63.5293" width="97.0588" height="71.4706" fill="#F94F28"/>
<rect opacity="0.35" width="97.0588" height="71.4706" transform="matrix(-1 0 0 1 112.941 63.5293)" fill="#F94F28"/>
<g clip-path="url(#clip0)">
<path d="M75.3979 110.501L87.5695 125.622H92.3182L90.2226 123.033L72.766 101.498V103.163V123.033H58.4986V83.6391L55.9514 80.5273V125.622H75.3979V110.501Z" fill="#F94F28"/>
<path d="M69.9505 103.163V97.6381L61.314 87.0894V120.217H69.9505V103.163Z" fill="#F94F28"/>
<path d="M76.9854 72.3564H63.8965L66.3096 75.3411H74.791L90.1097 94.3572V75.3411H104.384V120.218H102.564L105.097 123.357H107.284V72.3564H87.0897V76.9288V84.9515L82.0658 78.6928L76.9854 72.3564Z" fill="#F94F28"/>
<path d="M45.8823 63.5293V135H117.353V63.5293H45.8823ZM86.2217 128.995L78.2131 118.496V128.995H53.1289V72.3564L98.8026 128.995H86.2217ZM110.106 128.995H106.028L57.9975 69.534H78.3401L84.2672 76.9358V69.534H110.092L110.106 128.995Z" fill="#F94F28"/>
<path d="M92.9319 94.3572V102.352L87.9151 96.1282L73.4361 78.1636H68.5886L100.284 117.395H101.561V78.1636H92.9319V94.3572Z" fill="#F94F28"/>
</g>
<defs>
<clipPath id="clip0">
<rect width="71.4706" height="71.4706" fill="white" transform="translate(45.8823 63.5293)"/>
</clipPath>
</defs>
</svg>
