<svg width="178" height="143" viewBox="0 0 178 143" fill="none" xmlns="http://www.w3.org/2000/svg">
<path opacity="0.6" d="M109.556 108.796L54.3982 54.4264L164.685 54.3979L109.556 108.796Z" fill="#F94F28"/>
<path opacity="0.7" d="M109.542 54.3979L55.0018 -0.0001952L3.05176e-05 54.3979L109.542 54.3979Z" fill="#F94F28"/>
<path opacity="0.8" d="M54.3983 54.3979V109.541L81.97 81.4574L54.3983 54.3979Z" fill="#F94F28"/>
<path opacity="0.3" d="M108.97 -1.87916e-05L81.9698 27.5717L136.368 27.3733L108.97 -1.87916e-05Z" fill="#F94F28"/>
<path opacity="0.7" d="M81.9402 81.2246L109.949 108.656L82.0349 136.858L54.398 109.44L81.9402 81.2246Z" fill="#F94F28"/>
<path opacity="0.4" d="M54.3981 109.542L0 54.3982L54.3981 54.3982L54.3981 109.542Z" fill="#F94F28"/>
<path opacity="0.8" d="M81.9697 27.6296L109.35 54.3987H163.939L136.588 27.5723L81.9697 27.6296Z" fill="#F94F28"/>
<g opacity="0.25">
<path opacity="0.6" d="M117.556 111.796L62.3982 57.4264L172.685 57.3979L117.556 111.796Z" fill="#F94F28"/>
<path opacity="0.7" d="M117.542 57.3979L63.0018 2.9998L8.00003 57.3979L117.542 57.3979Z" fill="#F94F28"/>
<path opacity="0.8" d="M62.3983 57.3979V112.541L89.97 84.4574L62.3983 57.3979Z" fill="#F94F28"/>
<path opacity="0.3" d="M116.97 2.99998L89.9698 30.5717L144.368 30.3733L116.97 2.99998Z" fill="#F94F28"/>
<path opacity="0.7" d="M89.9402 84.2246L117.949 111.656L90.0349 139.858L62.398 112.44L89.9402 84.2246Z" fill="#F94F28"/>
<path opacity="0.4" d="M62.3981 112.542L8 57.3982L62.3981 57.3982L62.3981 112.542Z" fill="#F94F28"/>
<path opacity="0.8" d="M89.9697 30.6296L117.35 57.3987H171.939L144.588 30.5723L89.9697 30.6296Z" fill="#F94F28"/>
</g>
<g opacity="0.25">
<path opacity="0.6" d="M122.556 114.796L67.3982 60.4264L177.685 60.3979L122.556 114.796Z" fill="#F94F28"/>
<path opacity="0.7" d="M122.542 60.3979L68.0018 5.9998L13 60.3979L122.542 60.3979Z" fill="#F94F28"/>
<path opacity="0.8" d="M67.3983 60.3979V115.541L94.97 87.4574L67.3983 60.3979Z" fill="#F94F28"/>
<path opacity="0.3" d="M121.97 5.99998L94.9698 33.5717L149.368 33.3733L121.97 5.99998Z" fill="#F94F28"/>
<path opacity="0.7" d="M94.9402 87.2246L122.949 114.656L95.0349 142.858L67.398 115.44L94.9402 87.2246Z" fill="#F94F28"/>
<path opacity="0.4" d="M67.3981 115.542L13 60.3982L67.3981 60.3982V115.542Z" fill="#F94F28"/>
<path opacity="0.8" d="M94.9697 33.6296L122.35 60.3987H176.939L149.588 33.5723L94.9697 33.6296Z" fill="#F94F28"/>
</g>
</svg>
