<svg width="125" height="109" viewBox="0 0 125 109" fill="none" xmlns="http://www.w3.org/2000/svg">
<g clip-path="url(#clip0)">
<path opacity="0.25" d="M62.2085 2.30566L18.1606 46.0033L62.0041 90.694L105.847 46.9964L62.2085 2.30566Z" fill="#F94F28"/>
<g opacity="0.25">
<path d="M93.1504 15.3957L31.3503 14.8989L31.0019 77.75L92.6576 78.1011L93.1504 15.3957Z" fill="#F94F28"/>
<path d="M93.1504 15.3957L31.3503 14.8989L31.0019 77.75L92.6576 78.1011L93.1504 15.3957Z" fill="#F94F28"/>
</g>
<g opacity="0.25">
<path d="M83.6017 24.9315L40.7479 24.587L40.5063 68.1696L83.2599 68.413L83.6017 24.9315Z" fill="#F94F28"/>
<path d="M83.6017 24.9315L40.7479 24.587L40.5063 68.1696L83.2599 68.413L83.6017 24.9315Z" fill="#F94F28"/>
</g>
<g opacity="0.25">
<path d="M92.4062 46.6427L62.3457 15.8545L31.6019 46.4999L61.6625 77.1453L92.4062 46.6427Z" fill="#F94F28"/>
<path d="M92.4062 46.6427L62.3457 15.8545L31.6019 46.4999L61.6625 77.1453L92.4062 46.6427Z" fill="#F94F28"/>
</g>
</g>
<defs>
<clipPath id="clip0">
<rect width="124.008" height="125" fill="white" transform="translate(0 -16)"/>
</clipPath>
</defs>
</svg>
