<?xml version="1.0" encoding="utf-8"?><!-- Generator: Adobe Illustrator 24.0.2, SVG Export Plug-In . SVG Version: 6.00 Build 0)  -->
<svg version="1.1" id="Capa_1" xmlns="http://www.w3.org/2000/svg" xmlns:xlink="http://www.w3.org/1999/xlink" x="0px" y="0px" viewBox="0 0 1080 1080" style="enable-background:new 0 0 1080 1080;" xml:space="preserve">
	<style type="text/css">
	.st1{fill:none;stroke:#FFFFFF;stroke-width:8;stroke-miterlimit:10;}
	.st2{enable-background:new    ;}
	.st3{fill:#FFFDFD;}
	.st4{fill:#FFFFFF;}
	.st5{display:none;}
	.st6{display:inline;fill:#FFFFFF;}
	.st7{display:inline;fill:#FFFDFD;}
	.st8{font-family:&apos;Montserrat-Bold&apos;;}
	.st9{font-size:16.5296px;}
</style>
	<g id="Capa_1_1_">
		<g>
			<g id="1_Baix_Segura" class="zone">
				<path class="st0" d="M426.5,802.6c1.3-12.6,3-28.3,4.8-40.7c-9.5-3.5-36.7-13.6-50.6-15.2c-4.8-0.6-9.8-0.8-14.7-0.7
				c-9.3,0-17.3,0-27.9-6.5c-21.9-13.4-35.3-23.1-40.7-29.5c-1.9-2.2-4.8-5-8-7.9c-10.5-9.9-17.3-16.9-17.3-23.6
				c0-5.8,4.2-20.3,6.9-29.2c-2.8,0.6-6,1.1-9.6,1.7c-14.1,2.2-23,3-27.3,3.3c-1.4,4.8-3.2,10-5,15.2c-0.6,1.7-1.1,3.4-1.7,5
				c-1,3.1-2.1,6.7-3.2,10.7c-2.4,8.6-5,17.5-8.2,23.1c-4.3,7.5-11,18.7-15.5,25.6c-1.2,1.8-2.3,3.2-3.3,4.4
				c-2.9,3.6-3.7,4.7-2.8,8.4c1.4,5.2,2,11.2,2.5,16.6c0.2,3.1,0.6,6.1,0.9,7.9c0.3,1.8,0.9,3.5,1.7,5.2c1.1,2.5,2,5.1,2.8,7.7
				l0.2,0.9c2,6.9,3,10.4,7.5,14.9c6,6,14.9,16,20.5,25c2.4,4.1,4.6,8.3,6.5,12.6c2.4,5.2,4.7,10,7.5,13.3c1.1,1.4,2.4,2.8,3.6,4.1
				c4.7,5.2,9.6,10.6,10.6,18c1.1,7.8,6.7,21,16.5,31.8c1.7,1.8,3.2,3.5,4.6,5.2c8.4,9.3,14.4,16,23.7,24.2c2.3,2.1,4.3,4,6.1,5.5
				c6.6,6.2,8.9,8.2,12.7,8.8c5.1,0.9,8.8,3.6,12.6,6.3c2,1.5,4.1,2.9,6.4,4.1c2.4,1.2,6.3,2.1,9.3,0.6c2.2-1.1,3.6-3.6,4.3-7.3
				c0.3-1.9,0.6-3.7,0.9-5.6c2-12.9,4-26.1,11.7-32.3c5-4,7.9-10.4,9.7-14.8c1-2.4,2.2-4.7,3.5-7.1c1.5-2.8,3-5.5,4.2-8.4
				c0.7-1.5,1.1-3.4,1.7-5.3c1.8-6.4,4.3-15.1,13.4-15.1c5.4,0,16.2-9.5,18-13.8c0.9-2.1,0.3-11.8,0-18.2
				c-0.4-7.1-0.8-14.4-0.2-19.3C425.7,809.6,426,806.3,426.5,802.6z"/>
			</g>
			<g id="1_Baix_Vinalopó" class="zone">
				<path class="st0" d="M434.3,746.7c0.4-1.5,0.9-3.2,1.3-5c2-7.4,4.1-15.6,8-21.6c0.7-1.1,1.5-2.3,2.3-3.6c5-8,11.2-18.1,20.1-18.1
				c2.1,0,4.5,0.1,7.3,0.3c7.6,0.4,18.1,1,25.6-1.2c8.6-2.5,9.6-4.5,11.2-8l0.3-0.8c1.2-2.5,1.1-11.2-1.4-21.2
				c-0.8-3-6.4-26.4-5.5-43.1c-8.3-0.7-25.5-2.4-35-6.8c-5.1-2.3-10.8-5.7-16.4-8.9c-7.9-4.6-16.1-9.5-21.4-10.6l-1.7-0.3
				c-5.4-1.2-12.3-2.8-17.4-6.2c-5.4,5.2-16.9,16.1-23.6,21.2c-9.6,7.2-20.1,9.6-38.5,11.9c-12.1,1.5-20.8,5.7-30,10.1
				c-3.4,1.7-7.1,3.4-10.8,5l-2.3,1c-5.7,2.5-11.7,4.7-17.6,6.4c-3.4,10.6-8.2,26.8-8.2,31.5c0,3.4,9.5,12.3,14.5,17.2
				c3.3,3.1,6.5,6.1,8.6,8.6c4.8,5.6,17.7,15,38.7,27.8c8.5,5.2,14.7,5.2,23.3,5.2c5.3-0.1,10.6,0.2,15.8,0.8
				c14.2,1.8,40.1,11,51,15.1C433.3,750.6,433.8,748.4,434.3,746.7z"/>
			</g>
			<g id="1_Vinalopó_Mitjà" class="zone">
				<path class="st0" d="M181.4,507.5c-2.1,2.2-4,4.2-5.3,5.5c-3.9,3.9-8.6,8.6-8.6,13.4c0,2.1-0.2,4.7-0.4,7.9
				c-0.4,6.7-1.1,15.9,0.2,20.6c1.8,6.3,6.4,17.5,17.4,22.6c5.1,2.3,10.4,4.2,15.8,5.7c4.8,1.4,9.6,3.2,14.1,5.3
				c9.8,5,16.2,11.4,18.7,19.1c1.1,2.8,2.6,5.4,4.5,7.7c1.9,2.6,3.7,5.1,4.4,8c0.1,0.6,0.3,1.1,0.4,1.7c1.2,4.4,3,11.1,1.9,18.7
				c-0.1,0.4-0.1,0.9-0.2,1.3c4.7-0.3,12.6-1.2,23.8-3c19.2-3,23.8-5,35.2-9.7l2.3-1c3.5-1.4,6.8-3.1,10.2-4.7
				c9.5-4.6,19.2-9.3,32.7-11c16.9-2.1,26.2-4.2,34.3-10.1c6.6-5,18.2-16.1,23.3-20.9c-0.8-2.2-1.1-4.5-0.8-6.8
				c1.2-11.9,17.9-62.8,27.9-85.1c1.5-3.3,3.2-7.1,5.1-11c-4.1,1.2-8.3,1.9-12.6,1.9c-1,0-2.1,0-3.2-0.1c-17-1.2-29.2-9.7-40.9-28.5
				c-3.5-5.7-6.7-11.7-9.6-17.9c-5,1.2-14.5,3.9-21.8,8.3c-3.1,1.9-7.7,4.5-13.1,7.6c-11.5,6.6-30.6,17.6-33.4,20.4
				c-1.9,1.9-25.2,22.8-34.4,24.4c-2.1,0.3-4.2,0.4-6.4,0.4c-6.7,0-14.9-1.3-20.6-4.2c-8-4.1-13.1-13-14.4-19.6
				c-0.4-2-2.1-5.5-5-6.6c-2.6-1.1-5.8,0.1-8.5,1.7c-0.4,1.2-1.1,2.4-1.9,3.4l-1.1,1.5c-5.7,7.7-12.1,16.1-16.3,19.2
				C192.6,495.6,186.1,502.5,181.4,507.5z"/>
			</g>
			<g id="1_Alt_Vinalopó" class="zone">
				<path class="st0" d="M209.1,349.6c0,0.1-0.1,0.4,0.4,1.1l0.8,1c3,4,5.6,7.4,5.6,16c0,5.7,2.2,14.2,4.1,21.6
				c0.4,1.7,0.9,3.3,1.2,5c0.3,1.1,0.6,2.1,0.8,3.1c1.8,6.7,2.6,10,0.1,16.2c-1.1,2.8-3.3,8.6-5.5,14.2c-2.2,5.7-4.4,11.6-5.5,14.4
				c-1.5,4-0.9,7.1,1.1,12.1l0.4,1.2c0.6,1.4,1.2,2.9,1.7,4.3c3.9-1.7,8.2-1.7,12.1-0.2c6.2,2.5,9.4,8.6,10.2,13.1
				c0.9,4.6,4.6,10.9,9.8,13.4c5.8,2.9,15.9,3.9,21.5,2.9c4.6-0.8,24.1-16.5,29.5-21.9c3.3-3.3,16.8-11.1,35.3-21.8
				c5.3-3.1,9.9-5.7,13-7.6c7.6-4.5,17-7.4,22.7-8.8c-5.3-12.6-9.1-25.3-10.5-35.3c-2.2-16.1-4.5-48.5-3.3-62.7
				c0.2-2.1,0.3-3.9,0.6-5.5c0.9-9.1,1-11.7-1-15c-2.6-4.3-13.4-21.2-17.7-27.7c-10,2.6-13.9,3.3-16.7,1.9c-4.7-2.3-8-6.7-8.9-11.9
				c-0.8-4.1-5.4-9.8-8-11.6c-2.1-1.4-6.6-3.6-14.1-3.6c-2.2,0-4.4,0.2-6.6,0.4c-5.7,0.6-12.2,1.1-14.1-4.5
				c-0.8-2.3-3.6-5.1-4.6-4.8c-3.9,1-12,5.4-13.6,7.3c-0.9,2.9-1.5,5.8,1,10.7c5.7,11.5,13.6,27.2,15.5,32.3
				c0.6,1.4,2.5,3.3,4.3,4.8c3.4,3.2,8.2,7.5,5.4,13c-0.2,0.4-0.4,0.9-0.7,1.4c-2.3,4.8-5.8,12.1-12.6,17.6c-0.7,0.6-1.2,1-1.8,1.5
				c-6,5.1-11.1,9.4-19.7,9.4c-2.5,0-5.8-0.2-9.3-0.4c-3.6-0.2-8.4-0.6-12.2-0.6c-2.2-0.1-4.4,0.1-6.6,0.7
				C210.8,347.4,209.4,348.7,209.1,349.6z"/>
			</g>
			<g id="1_L'Alcoià" class="zone">
				<path class="st0" d="M433.2,314.6c-1.1-5.5-6.6-17.9-9.1-19.8c-3.2-0.9-10.4-3.1-15-7.7c-3.1-3.1-4.2-4.2-10.1-4.2
				c-2.2,0-4.2,0.2-6.2,0.4c-4.8,0.4-9.7,1-14.1-2.3c-3-2.1-21.5-3.5-33.1-0.6c5,7.6,14,21.6,16.4,25.6c3.5,6,3.1,10.7,2.2,20.3
				c-0.1,1.7-0.3,3.4-0.4,5.5c-1,12.3,1,43.3,3.3,60.7c2.1,15.8,11.8,40.6,22.5,57.7c10.2,16.3,20.1,23.4,34.1,24.4
				c7.5,0.7,15-1.3,21.3-5.5c9.5-18.8,20.9-40,28.8-51c10.6-14.9,25.1-35.2,47.9-56.9c4.2-4,7.7-7.4,10.8-10.5
				c13.1-13,18.5-18.3,32-18.3c10.9,0,20.7,4.3,29.4,8c0,0,0.1,0,0.2,0.1c-3-5.3-6.3-10.5-9.9-15.3c-7.7-9.9-18.7-17.1-26.2-17.1
				c-10.5,0-27.7-12.1-35.3-17.9c-0.4,0.3-0.9,0.7-1.4,0.9c-4.3,2.2-36.3,16.5-42.2,18.8c-3.2,1.5-6.3,3.3-9.3,5.2
				c-9.5,5.7-14.3,8.4-17.7,8.4C446.7,323.6,434.9,323.6,433.2,314.6z"/>
			</g>
			<g id="1_L'Alacantí" class="zone">
				<path class="st0" d="M579.8,525.8c2.3-3.3,4.4-6.4,5.5-9.7c2.1-6.3,16.3-16.5,43.5-34.6c1.7-1.1,3.2-2.1,4.5-3
				c8.4-5.6,16.2-9,26.7-13.1c-6.4-3.9-15.1-9.4-20.5-14.1c-10.1-8.8-21.5-20.5-20.2-32.5c0.9-7.6-3.3-14.3-7.4-15l-1.1-0.2
				c-7.9-1.3-26.6-4.3-27.9-19.2c-1.1-12.2-1.2-20.4,6.4-30.6l1.4-1.9c0.7-0.9,1.3-1.8,1.9-2.5c-0.9-0.3-1.7-0.8-2.5-1.1
				c-8.3-3.6-16.9-7.3-25.9-7.3c-9.8,0-13.1,3.3-25.8,15.8c-3.1,3.1-6.6,6.5-10.9,10.6c-22.3,21.2-36.5,41-46.8,55.5
				c-11.2,15.6-30,52.5-39.2,73.1c-10,22.3-26.2,72.4-27.2,82.4c-0.6,5.5,5,7.7,16.9,10.2l1.8,0.3c6.6,1.4,15,6.4,23.9,11.6
				c5.4,3.2,10.9,6.4,15.5,8.5c8.6,3.9,25.3,5.5,32.7,6.1c0.3-1.7,0.7-3.1,1-4.6c2.1-9.7,3.7-17.4,17.9-28.5c2.5-2,4.8-3.9,6.9-5.6
				c10.2-8.4,17-14,28.7-8.2c4.1,2,7.2,2.6,8.9,1.7c1.8-1,3.1-4.2,3.4-9c0.3-4,0.4-7.9,0.3-11.9c-0.1-5.6-0.2-10,2.3-15.1
				C576.1,531.3,577.9,528.6,579.8,525.8z"/>
			</g>
			<g id="1_Comtat" class="zone">
				<path class="st0" d="M554.9,222.3c-2.9,2-5.8,3.6-8.9,5.1c-9.4,3.6-19.6,4.1-29.2,1.2c-10.5-2.9-33.2-1.1-37.5,1
				c-2,2.2-4.2,4.1-6.6,5.7c-1.3,1.1-3.3,2.5-4.6,3.7c2.2,2.9,4.8,7.5,3.3,12c-0.4,1.7,1,7.4,2.2,8.7c0.2,0.2,0.4,0.4,0.7,0.8
				c1,1,1.1,1.2,1.7,1.2c0.8,0,3.2-0.2,8.7-3.6c12.2-7.8,16.3-9.1,20.8-6.8c2.5,1.2,3.6,4,4.7,6.8c0.6,1.4,1.7,4,2.3,4.5
				c1.3,0.7,2.6,1.2,4.1,1.7c4.4,1.5,10,3.4,10,8.7c0,0.4,0,1,0,1.5c0.2,2.6,0.1,5.3-0.2,7.9c10.9,8.5,24.8,17,31.1,17
				c12,0,25.3,10.2,33.3,20.4c4.5,6.2,8.6,12.6,12.2,19.3c2.2-1.7,4.8-3.6,8.3-5.8c1.8-1.1,3.4-2.2,5-3.3
				c10-6.6,16.2-10.5,18.5-18.5c4-13.1,8.9-25.6,18.4-28.3c1.9-0.6,3.7-1,5.4-1.4c-5-4.7-8.7-10-10.7-19.9
				c-2.2-11.1-2.5-20.1,2.5-30.4c0.7-1.1,1.1-2.4,1.3-3.7c-1.2-0.4-2.4-0.8-3.7-1c-5.6-1.1-14-2.8-15.6-12.5
				c-0.8-4.4-1.8-15.8-2.4-23.5c-0.7,0.4-1.3,0.9-2.1,1.4c-6.2,4.2-14.5,9.8-22.9,12.3c-5.3,1.5-10.9,2.1-16.4,1.7
				c-0.6,0-1.2-0.1-1.8-0.1c-2.9,3.6-9.3,7.5-16.6,8.5C566.4,215.1,560.1,219,554.9,222.3z"/>
			</g>
			<g id="1_Marina_Baixa" class="zone">
				<path class="st0" d="M795.6,349.5c-4.8-2.8-10-5.3-15.1-7.8c-11.2-5.5-21.9-10.8-27.1-17.6c-3.3-4.7-6.3-9.7-9-14.8
				c-4.2-7.3-9.8-17.3-13-19.5c-10.5-7.1-23.7-13.2-26.9-12.8c-1.7,0.8-5.1,4.5-7.5,7.3c-4.6,5.2-8.6,9.7-13,10.5
				c-6.1,1.2-11.6-2-16.9-6.1c-2.3,0.4-6.6,1.3-11.5,2.8c-6.3,1.8-10.7,16.8-12.5,22.4c-3.3,11.1-11.2,16.3-22.1,23.4
				c-1.5,1-3.2,2.1-5,3.2c-11.6,7.7-13.2,9.9-18.4,17l-1.4,1.9c-5.6,7.5-5.7,12.7-4.6,24.5c0.8,8,14.7,10.4,20.6,11.4l1.1,0.2
				c9.3,1.5,16,12.9,14.7,24.7c-1,8.9,12.8,20.9,17.3,24.8c6.8,6,20.4,13.9,25.1,16.6c4-1.5,8.4-3.3,13.2-5.3
				c8.4-3.4,17-7.5,25.2-11.5c19.7-9.4,29.4-13.8,35.2-11.8c2,0.7,3.9,1.5,5.7,2.4c5.3,2.4,13.2,6.1,16.2,3.1c0.9-0.9,2.1-2,3.3-3.3
				c4-3.9,15.6-15.1,17.1-19.5c-6.9-6.1-7.4-14.1-1.2-23.8c4.3-6.8,17.7-25.1,29.8-30.1C809.9,358.2,803.1,353.7,795.6,349.5z"/>
			</g>
			<g id="1_Marina_Alta" class="zone">
				<path class="st0" d="M897,318.2c10.6-2.6,17.6-6.8,18.8-11.2c2-6.8,8-11.1,12.9-14.7c1.7-1.1,3.2-2.4,4.7-3.7
				c0.4-0.4,0.9-0.9,1.3-1.3c3.7-3.9,7.9-8.2,16.4-5.3c1.3,0.6,2.8,0.3,3.9-0.6c1.5-1.2,2.5-3.2,2.4-5.2c0-1.2-0.9-5.5-13-11.5
				c-7.8-4-15.1-15-16.5-20.5c-0.2-0.7-0.4-1.4-0.8-2.2c-0.9-2.6-2.1-6-0.2-9.1c0.9-1.5,2.3-2.6,4-3.2c-2-2.3-4.3-4.2-7.1-5.5
				c-4.4-2-8.7-4.2-12.8-6.6c-2.9-1.7-6-3.3-8.5-4.5c-3.2-1.7-7.2-5-11.4-8.4c-4.7-4-10.8-9-14.3-10c-0.8-0.2-1.7-0.4-2.5-0.8
				c-13.7-4-21.8-5.7-24.1-5.1c-6.4,3.1-14.5,0.1-22.4-3.2c-4-1.9-8.3-3.2-12.6-4c-0.1,4.6-1,11.8-6.1,14.4c-3.4,1.8-7.4,1-11.9-2.1
				c-4.7-3.5-9.1-7.5-13.1-11.9c-2.5-2.6-6.4-6.7-7.9-7.2c-1.8,0.6-7.2,3.9-11,6.3c-8.5,5.2-17.2,10.6-23.3,11.4
				c-6.6,0.9-11.7,1.2-15.1-1.9c-2.1-1.9-3.1-4.4-3.1-8c0-5.7-3-10.8-4.4-11.1c-4.1-1-6.8-0.6-9.5,1.4c-0.9,0.7-2.3,1.8-3.9,3.1
				c-10,8.2-15.4,12.1-19.7,12.1c-0.8,0-1.9,0.1-3.2,0.2c-5.5,0.4-13.8,1.2-20.3-3.2c-6.5-4.3-14.9-8.3-17.9-9
				c-1.3,1.4-2.5,2.9-3.6,4.4c-1,1.3-2.1,2.6-3.2,4c0.4,5.7,2,23,2.9,28.3c0.6,3.2,2.3,4,8.6,5.2c3.4,0.7,8,1.5,10,5.7
				c2,4,0.1,8.6-1.4,11.6c-3.6,7.3-4.1,13.4-1.9,24.7c2,9.9,5.7,13.4,11.7,18.4c6.1,5.1,10.6,8.6,14,7.8c1.7-0.4,5.7-5.1,8.2-7.7
				c4-4.4,7.4-8.3,10.9-9.7c8.6-3.4,30.6,10.8,34.9,13.7c4.6,3.1,9.3,10.9,15.8,22.5c2.5,4.7,5.4,9.4,8.5,13.9
				c3.9,5.2,13.6,9.9,23.9,15c5.2,2.5,10.5,5.2,15.5,8c9.6,5.5,18.8,11.6,27.8,18.2c1.1,0,2.2,0.1,3.2,0.2c4.5,0.3,7.4,0.4,8.9-1.1
				c6.3-6.3,11.9-9,18.5-9c3.5,0,7.7-5.8,11.7-12.2C876.4,328.2,886,321.2,897,318.2z"/>
			</g>
			<g id="_Strokes">
				<path class="st1" d="M429.8,812.9c1.9-16.4,5.1-51.9,8.8-65c2.2-7.7,4.4-18.7,8.8-25.3s11-19.8,18.7-19.8s23.1,2.2,34.2-1.1
				s12.1-6.6,14.3-11s1.1-15.4-1.1-24.2c-2.2-8.8-7.7-35.3-4.4-48.5s2.2-19.8,17.6-32c15.4-12.1,19.8-18.7,30.9-13.2
				c11,5.5,17.6,2.2,18.7-11c1.1-13.2-1.1-18.7,2.2-25.3s8.8-12.1,11-18.7c2.2-6.6,33.1-26.4,46.3-35.3s25.3-12.1,49.6-22
				c24.2-9.9,50.7-25.3,57.3-23.1c6.6,2.2,19.8,11,26.4,4.4c6.6-6.6,26.4-24.2,20.9-28.7c-5.5-4.4-6.6-9.9-1.1-18.7
				c5.5-8.8,18.7-25.3,28.7-28.7s19.8,2.2,25.3-3.3s9.9-7.7,15.4-7.7s9.9-5.5,15.4-14.3c5.6-8.6,14.3-14.9,24.2-17.6
				c8.8-2.2,19.8-6.6,22-14.3c2.2-7.7,12.1-12.1,16.5-16.5s6.6-7.7,13.2-5.5s12.1-3.3,12.1-9.9s-8.8-12.1-15.4-15.4
				c-6.6-3.3-13.2-13.2-14.3-17.6c-1.1-4.4-4.4-8.8,2.2-9.9c6.6-1.1-3.3-11-8.8-13.2s-14.3-7.7-20.9-11
				c-6.6-3.3-18.7-16.5-26.4-18.7s-25.3-7.7-29.8-5.5c-4.4,2.2-11,0-18.7-3.3s-18.7-6.6-18.7-2.2s0,18.7-11,11s-18.7-20.9-24.2-19.8
				c-5.5,1.1-25.3,16.5-34.2,17.6c-8.8,1.1-13.2,1.1-13.2-5.5s-3.3-14.3-7.7-15.4c-4.4-1.1-8.8-1.1-13.2,2.2s-16.5,14.3-20.9,14.3
				s-14.3,2.2-20.9-2.2c-6.6-4.4-17.6-9.9-20.9-9.9c-3.3,0-8.8,11-13.2,13.2S615,197.4,604,200.7c-11,3.3-18.7,0-19.8,2.2
				s-6.6,6.6-14.3,7.7s-19.8,11-25.3,13.2s-14.3,4.4-26.4,1.1c-12.1-3.3-39.7-1.1-41.9,2.2c-2.2,3.3-15.4,11-13.2,13.2
				c2.2,2.2,5.5,6.6,4.4,9.9c-1.1,3.3,1.1,11,3.3,13.2c2.2,2.2,4.4,6.6,16.5-1.1c12.1-7.7,14.3-7.7,16.5-6.6c2.2,1.1,3.3,8.8,6.6,11
				s12.1,3.3,12.1,6.6s1.1,12.1-3.3,14.3s-36.4,16.5-41.9,18.7s-20.9,13.2-25.3,13.2s-13.2,0-14.3-5.5c-1.1-5.5-7.7-22-12.1-23.1
				s-9.9-3.3-13.2-6.6c-3.3-3.3-5.5-5.5-13.2-5.5s-13.2,2.2-17.6-1.1c-4.4-3.3-25.3-4.4-37.5-1.1s-19.8,5.5-22,4.4
				c-3.5-1.7-6.1-5-6.6-8.8c-1.1-5.5-6.6-12.1-9.9-14.3c-3.3-2.2-8.8-4.4-16.5-4.4s-15.4,2.2-16.5-1.1s-5.5-8.8-9.9-7.7
				s-15.4,6.6-16.5,9.9c-1.1,3.3-2.2,7.7,1.1,14.3s13.2,26.4,15.4,32s12.1,9.9,9.9,14.3s-5.5,12.1-12.1,17.6s-11,9.9-18.7,9.9
				s-24.2-2.2-29.8,0s-8.8,6.6-5.5,11s5.5,6.6,5.5,14.3s3.3,18.7,5.5,27.5s3.3,11,1.1,16.5s-8.8,23.1-11,28.7
				c-2.2,5.5-1.1,9.9,1.1,15.4s4.4,9.9,1.1,14.3c-3.3,4.4-12.1,16.5-16.5,19.8s-15.4,15.4-19.8,19.8c-4.4,4.4-9.9,9.9-9.9,16.5
				s-2.2,22,0,29.8c2.2,7.7,7.7,19.8,19.8,25.3s20.9,6.6,29.8,11c8.8,4.4,14.3,9.9,16.5,16.5s7.7,11,8.8,15.4s3.3,11,2.2,18.7
				s-5.5,19.8-8.8,29.8c-3.3,9.9-6.6,25.3-11,33.1s-11,18.7-15.4,25.3s-8.8,8.8-6.6,16.5s2.2,18.7,3.3,24.2s2.2,5.5,4.4,13.2
				s3.3,12.1,8.8,17.6s14.3,15.4,19.8,24.2s8.8,19.8,14.3,26.4s12.1,12.1,13.2,19.8s6.6,22,17.6,34.2c11,12.1,17.6,19.8,28.7,29.8
				c11,9.9,14.3,14.3,20.9,15.4s11,6.6,17.6,9.9c6.6,3.3,17.6,3.3,19.8-9.9c2.2-13.2,3.6-29.3,11-35.3c5.5-4.4,8.8-11,11-16.5
				c1.7-4.1,5.5-9.9,7.7-15.4c2.9-7.3,3.3-17.6,11-17.6s19.8-11,22-16.5C432,845.9,428.7,822.8,429.8,812.9z"/>
				<path class="st1" d="M826.2,364.4c-9-6.8-18.5-13-28.4-18.7c-15.4-8.8-34.2-15.4-40.8-24.2c-6.6-8.8-16.5-30.9-23.1-35.3
				S708.6,270.8,703,273c-5.5,2.2-14.3,16.5-19.8,17.6s-11-3.3-17.6-8.8s-11-9.9-13.2-20.9s-2.2-18.7,2.2-27.5s0-9.9-5.5-11
				s-11-2.2-12.1-8.8s-3.1-30.5-3.1-30.5"/>
				<path class="st1" d="M670.2,466.3c0,0-19-10.5-27.8-18.2s-19.8-18.7-18.7-28.7c1.1-9.9-4.4-18.7-11-19.8
				c-6.6-1.1-24.2-3.3-25.3-15.4s-1.1-18.7,5.5-27.5s7.7-11,20.9-19.8s22-13.2,25.3-24.2s7.7-23.1,15.4-25.3
				c4.5-1.3,9.3-2.3,13.9-3.2"/>
				<path class="st1" d="M508.7,620.2c0,0-26-1.2-38.1-6.7s-28.7-17.6-38.6-19.8s-23.1-4.4-22-15.4s17.6-61.7,27.5-83.7
				s28.7-58.4,39.7-73.8s25.3-35.3,47.4-56.2c22-20.9,25.3-27.5,39.7-27.5c11.2,0,21.4,5,30.9,9c1.7,0.7,3.6-0.1,4.3-1.8
				c0.3-0.9,0.3-2-0.1-2.8c-3.5-6.5-7.5-12.9-11.9-18.8c-7.7-9.9-19.8-18.7-29.8-18.7c-9.9,0-29.1-14-36-19.7"/>
				<path class="st1" d="M448.2,471.9c-7.2,5.3-16.1,7.8-25,7.1c-15.4-1.1-26.4-8.8-37.5-26.4c-11-17.6-20.9-43-23.1-59.5
				s-4.4-48.5-3.3-61.7s2.2-17.6-1.1-23.1s-19.6-30.5-19.6-30.5"/>
				<path class="st1" d="M374.9,431.9c0,0-15.6,3-26.7,9.6c-11,6.6-43,24.2-47.4,28.7c-4.4,4.4-25.3,22-32,23.1
				c-6.6,1.1-17.6,0-24.2-3.3s-11-11-12.1-16.5s-7.7-16.5-22-6.6"/>
				<path class="st1" d="M411.8,585.3c0,0-17.3,17.1-26.1,23.7s-18.7,8.8-36.4,11c-17.6,2.2-28.7,9.9-41.9,15.4s-17.6,7.7-38.6,11
				c-20.9,3.3-30.1,3.4-30.1,3.4"/>
				<path class="st1" d="M436.3,759.1c0,0-37.4-14.5-55-16.7s-26.4,2.2-40.8-6.6c-14.3-8.8-33.1-20.9-39.7-28.7
				c-6.6-7.7-24.2-20.9-24.2-28.7s9-35.2,9-35.2"/>
			</g>
			<g id="_Texto" class="text">
				<g class="st2">
					<path class="st3" d="M476.1,505c-0.9-0.2-1.5-0.6-2.1-1l0.9-2c0.5,0.4,1.1,0.7,1.8,0.9c0.7,0.2,1.4,0.3,2,0.3
					c0.8,0,1.3-0.1,1.7-0.3c0.4-0.2,0.5-0.5,0.5-0.9c0-0.3-0.1-0.5-0.3-0.7s-0.5-0.3-0.8-0.4c-0.3-0.1-0.8-0.2-1.4-0.4
					c-0.9-0.2-1.6-0.4-2.2-0.6c-0.6-0.2-1-0.5-1.4-1s-0.6-1.1-0.6-1.9c0-0.7,0.2-1.3,0.5-1.8s0.9-1,1.6-1.3c0.7-0.3,1.6-0.5,2.7-0.5
					c0.7,0,1.5,0.1,2.2,0.3c0.7,0.2,1.3,0.4,1.9,0.8l-0.8,2c-1.1-0.6-2.1-0.9-3.2-0.9c-0.7,0-1.3,0.1-1.7,0.4
					c-0.4,0.2-0.5,0.6-0.5,1s0.2,0.7,0.6,0.9c0.4,0.2,1,0.4,1.9,0.6c0.9,0.2,1.6,0.4,2.2,0.6c0.6,0.2,1,0.5,1.4,1
					c0.4,0.5,0.6,1.1,0.6,1.8c0,0.7-0.2,1.3-0.6,1.8c-0.4,0.5-0.9,1-1.7,1.3s-1.6,0.5-2.7,0.5C477.8,505.4,476.9,505.2,476.1,505z"/>
					<path class="st3" d="M492.1,497.1c0.7,0.7,1.1,1.6,1.1,3v5.1h-2.4v-1.1c-0.5,0.8-1.4,1.2-2.7,1.2c-0.7,0-1.3-0.1-1.8-0.3
					c-0.5-0.2-0.9-0.6-1.1-1c-0.3-0.4-0.4-0.9-0.4-1.4c0-0.8,0.3-1.5,0.9-2s1.6-0.7,2.9-0.7h2c0-0.6-0.2-1-0.5-1.3
					c-0.3-0.3-0.9-0.5-1.5-0.5c-0.5,0-0.9,0.1-1.4,0.2c-0.5,0.1-0.8,0.3-1.2,0.6l-0.9-1.8c0.5-0.3,1.1-0.6,1.7-0.8s1.4-0.3,2.1-0.3
					C490.3,496.1,491.3,496.5,492.1,497.1z M489.9,503.3c0.3-0.2,0.6-0.5,0.7-0.9v-0.9h-1.8c-1.1,0-1.6,0.3-1.6,1
					c0,0.3,0.1,0.6,0.4,0.8c0.3,0.2,0.6,0.3,1.1,0.3C489.1,503.6,489.5,503.5,489.9,503.3z"/>
					<path class="st3" d="M503.6,497.1c0.7,0.7,1,1.6,1,2.9v5.1H502v-4.7c0-0.7-0.2-1.2-0.5-1.6c-0.3-0.3-0.8-0.5-1.3-0.5
					c-0.7,0-1.2,0.2-1.6,0.6s-0.6,1-0.6,1.8v4.4h-2.6v-8.9h2.5v1c0.3-0.4,0.8-0.7,1.3-0.9c0.5-0.2,1.1-0.3,1.7-0.3
					C502,496.1,502.9,496.5,503.6,497.1z"/>
					<path class="st3" d="M511.8,504.9c-0.7-0.3-1.2-0.7-1.6-1.2l1.5-1.8c0.6,0.8,1.3,1.3,2.1,1.3c1.1,0,1.6-0.6,1.6-1.9v-5.5h-4.1
					v-2.1h6.7v7.5c0,1.4-0.4,2.5-1.1,3.2c-0.7,0.7-1.7,1.1-3.1,1.1C513.1,505.4,512.4,505.2,511.8,504.9z"/>
					<path class="st3" d="M529.5,496.3v8.9h-2.4v-1.1c-0.3,0.4-0.7,0.7-1.2,0.9c-0.5,0.2-1,0.3-1.5,0.3c-1.2,0-2.1-0.3-2.8-1
					c-0.7-0.7-1-1.7-1-3v-5h2.6v4.6c0,1.4,0.6,2.1,1.8,2.1c0.6,0,1.1-0.2,1.5-0.6c0.4-0.4,0.6-1,0.6-1.8v-4.4H529.5z"/>
					<path class="st3" d="M538.7,497.1c0.7,0.7,1.1,1.6,1.1,3v5.1h-2.4v-1.1c-0.5,0.8-1.4,1.2-2.7,1.2c-0.7,0-1.3-0.1-1.8-0.3
					c-0.5-0.2-0.9-0.6-1.1-1c-0.3-0.4-0.4-0.9-0.4-1.4c0-0.8,0.3-1.5,0.9-2s1.6-0.7,2.9-0.7h2c0-0.6-0.2-1-0.5-1.3
					c-0.3-0.3-0.9-0.5-1.5-0.5c-0.5,0-0.9,0.1-1.4,0.2c-0.5,0.1-0.8,0.3-1.2,0.6l-0.9-1.8c0.5-0.3,1.1-0.6,1.7-0.8s1.4-0.3,2.1-0.3
					C536.9,496.1,537.9,496.5,538.7,497.1z M536.5,503.3c0.3-0.2,0.6-0.5,0.7-0.9v-0.9h-1.8c-1.1,0-1.6,0.3-1.6,1
					c0,0.3,0.1,0.6,0.4,0.8c0.3,0.2,0.6,0.3,1.1,0.3C535.7,503.6,536.1,503.5,536.5,503.3z"/>
					<path class="st3" d="M550.2,497.1c0.7,0.7,1,1.6,1,2.9v5.1h-2.6v-4.7c0-0.7-0.2-1.2-0.5-1.6c-0.3-0.3-0.8-0.5-1.3-0.5
					c-0.7,0-1.2,0.2-1.6,0.6c-0.4,0.4-0.6,1-0.6,1.8v4.4h-2.6v-8.9h2.5v1c0.3-0.4,0.8-0.7,1.3-0.9c0.5-0.2,1.1-0.3,1.7-0.3
					C548.6,496.1,549.5,496.5,550.2,497.1z"/>
				</g>
				<g class="st2">
					<path class="st3" d="M483.8,512.7V525h-2.5v-1c-0.6,0.8-1.6,1.2-2.8,1.2c-0.8,0-1.6-0.2-2.3-0.6s-1.2-0.9-1.6-1.6
					s-0.6-1.5-0.6-2.4s0.2-1.7,0.6-2.4c0.4-0.7,0.9-1.2,1.6-1.6c0.7-0.4,1.4-0.6,2.3-0.6c1.1,0,2,0.4,2.7,1.1v-4.3H483.8z
					 M480.6,522.3c0.4-0.4,0.6-1,0.6-1.8s-0.2-1.3-0.6-1.8s-1-0.7-1.6-0.7c-0.7,0-1.2,0.2-1.6,0.7s-0.6,1-0.6,1.8s0.2,1.3,0.6,1.8
					s1,0.7,1.6,0.7C479.7,523,480.2,522.8,480.6,522.3z"/>
					<path class="st3" d="M494.9,521.2h-6.7c0.1,0.6,0.4,1,0.9,1.3c0.5,0.3,1,0.5,1.7,0.5c0.5,0,0.9-0.1,1.2-0.2
					c0.4-0.1,0.7-0.4,1-0.7l1.4,1.5c-0.8,1-2.1,1.4-3.7,1.4c-1,0-1.9-0.2-2.7-0.6c-0.8-0.4-1.4-0.9-1.8-1.6
					c-0.4-0.7-0.6-1.5-0.6-2.4c0-0.9,0.2-1.7,0.6-2.4c0.4-0.7,1-1.2,1.7-1.6c0.7-0.4,1.5-0.6,2.4-0.6c0.9,0,1.7,0.2,2.4,0.6
					c0.7,0.4,1.3,0.9,1.7,1.6c0.4,0.7,0.6,1.5,0.6,2.4C494.9,520.6,494.9,520.8,494.9,521.2z M488.8,518.4c-0.4,0.3-0.6,0.8-0.7,1.4
					h4.4c-0.1-0.6-0.3-1-0.7-1.3c-0.4-0.3-0.9-0.5-1.5-0.5C489.7,517.9,489.2,518.1,488.8,518.4z"/>
					<path class="st3" d="M509.1,522.5h-5.4l-1,2.5H500l5.2-11.6h2.6l5.2,11.6h-2.8L509.1,522.5z M508.3,520.5l-1.8-4.4l-1.8,4.4
					H508.3z"/>
					<path class="st3" d="M514,512.7h2.6V525H514V512.7z"/>
					<path class="st3" d="M519.1,514.4c-0.3-0.3-0.4-0.6-0.4-1c0-0.4,0.1-0.8,0.4-1c0.3-0.3,0.7-0.4,1.2-0.4c0.5,0,0.9,0.1,1.2,0.4
					c0.3,0.3,0.4,0.6,0.4,1c0,0.4-0.1,0.8-0.4,1.1c-0.3,0.3-0.7,0.4-1.2,0.4C519.8,514.8,519.4,514.7,519.1,514.4z M518.9,516.1h2.6
					v8.9h-2.6V516.1z"/>
					<path class="st3" d="M525.7,524.5c-0.8-0.4-1.3-0.9-1.8-1.6c-0.4-0.7-0.6-1.5-0.6-2.4s0.2-1.7,0.6-2.4c0.4-0.7,1-1.2,1.8-1.6
					c0.8-0.4,1.6-0.6,2.6-0.6c0.9,0,1.8,0.2,2.5,0.6c0.7,0.4,1.2,1,1.5,1.7l-2,1.1c-0.5-0.8-1.1-1.2-2-1.2c-0.7,0-1.2,0.2-1.7,0.7
					c-0.4,0.4-0.7,1-0.7,1.8c0,0.8,0.2,1.4,0.7,1.8c0.4,0.4,1,0.7,1.7,0.7c0.9,0,1.5-0.4,2-1.2l2,1.1c-0.3,0.7-0.8,1.3-1.5,1.7
					s-1.5,0.6-2.5,0.6C527.3,525.1,526.4,524.9,525.7,524.5z"/>
					<path class="st3" d="M540.4,516.9c0.7,0.7,1.1,1.6,1.1,3v5.1h-2.4v-1.1c-0.5,0.8-1.4,1.2-2.7,1.2c-0.7,0-1.3-0.1-1.8-0.3
					c-0.5-0.2-0.9-0.6-1.1-1c-0.3-0.4-0.4-0.9-0.4-1.4c0-0.8,0.3-1.5,0.9-2s1.6-0.7,2.9-0.7h2c0-0.6-0.2-1-0.5-1.3
					c-0.3-0.3-0.9-0.5-1.5-0.5c-0.5,0-0.9,0.1-1.4,0.2c-0.5,0.1-0.8,0.3-1.2,0.6l-0.9-1.8c0.5-0.3,1.1-0.6,1.7-0.8s1.4-0.3,2.1-0.3
					C538.6,515.9,539.7,516.3,540.4,516.9z M538.2,523.1c0.3-0.2,0.6-0.5,0.7-0.9v-0.9h-1.8c-1.1,0-1.6,0.3-1.6,1
					c0,0.3,0.1,0.6,0.4,0.8c0.3,0.2,0.6,0.3,1.1,0.3C537.5,523.4,537.9,523.3,538.2,523.1z"/>
					<path class="st3" d="M552,516.9c0.7,0.7,1,1.6,1,2.9v5.1h-2.6v-4.7c0-0.7-0.2-1.2-0.5-1.6c-0.3-0.3-0.8-0.5-1.3-0.5
					c-0.7,0-1.2,0.2-1.6,0.6c-0.4,0.4-0.6,1-0.6,1.8v4.4h-2.6v-8.9h2.5v1c0.3-0.4,0.8-0.7,1.3-0.9c0.5-0.2,1.1-0.3,1.7-0.3
					C550.4,515.9,551.3,516.3,552,516.9z"/>
					<path class="st3" d="M561,524.5c-0.3,0.2-0.6,0.3-0.9,0.4c-0.4,0.1-0.8,0.1-1.2,0.1c-1.1,0-1.9-0.3-2.5-0.8s-0.9-1.3-0.9-2.4
					v-3.7h-1.4v-2h1.4v-2.2h2.6v2.2h2.2v2h-2.2v3.6c0,0.4,0.1,0.7,0.3,0.9c0.2,0.2,0.5,0.3,0.8,0.3c0.4,0,0.8-0.1,1-0.3L561,524.5z"/>
					<path class="st3" d="M570.9,521.2h-6.7c0.1,0.6,0.4,1,0.9,1.3c0.5,0.3,1,0.5,1.7,0.5c0.5,0,0.9-0.1,1.2-0.2s0.7-0.4,1-0.7
					l1.4,1.5c-0.8,1-2.1,1.4-3.7,1.4c-1,0-1.9-0.2-2.7-0.6c-0.8-0.4-1.4-0.9-1.8-1.6c-0.4-0.7-0.6-1.5-0.6-2.4
					c0-0.9,0.2-1.7,0.6-2.4s1-1.2,1.7-1.6c0.7-0.4,1.5-0.6,2.4-0.6c0.9,0,1.7,0.2,2.4,0.6c0.7,0.4,1.3,0.9,1.7,1.6
					c0.4,0.7,0.6,1.5,0.6,2.4C570.9,520.6,570.9,520.8,570.9,521.2z M564.8,518.4c-0.4,0.3-0.6,0.8-0.7,1.4h4.4
					c-0.1-0.6-0.3-1-0.7-1.3s-0.9-0.5-1.5-0.5C565.7,517.9,565.2,518.1,564.8,518.4z"/>
				</g>
				<g class="st2">
					<path class="st3" d="M652.7,416.3l-5,11.6h-2.6l-5-11.6h2.9l3.5,8.3l3.6-8.3H652.7z"/>
					<path class="st3" d="M653.8,417.3c-0.3-0.3-0.4-0.6-0.4-1c0-0.4,0.1-0.8,0.4-1c0.3-0.3,0.7-0.4,1.2-0.4c0.5,0,0.9,0.1,1.2,0.4
					c0.3,0.3,0.4,0.6,0.4,1c0,0.4-0.1,0.8-0.4,1.1c-0.3,0.3-0.7,0.4-1.2,0.4C654.5,417.7,654.1,417.6,653.8,417.3z M653.7,418.9h2.6
					v8.9h-2.6V418.9z"/>
					<path class="st3" d="M658.7,415.6h2.6v12.3h-2.6V415.6z"/>
					<path class="st3" d="M663.6,415.6h2.6v12.3h-2.6V415.6z"/>
					<path class="st3" d="M675.4,419.8c0.7,0.7,1.1,1.6,1.1,3v5.1h-2.4v-1.1c-0.5,0.8-1.4,1.2-2.7,1.2c-0.7,0-1.3-0.1-1.8-0.3
					c-0.5-0.2-0.9-0.6-1.1-1c-0.3-0.4-0.4-0.9-0.4-1.4c0-0.8,0.3-1.5,0.9-2s1.6-0.7,2.9-0.7h2c0-0.6-0.2-1-0.5-1.3
					c-0.3-0.3-0.9-0.5-1.5-0.5c-0.5,0-0.9,0.1-1.4,0.2c-0.5,0.1-0.8,0.3-1.2,0.6l-0.9-1.8c0.5-0.3,1.1-0.6,1.7-0.8s1.4-0.3,2.1-0.3
					C673.6,418.8,674.6,419.1,675.4,419.8z M673.2,425.9c0.3-0.2,0.6-0.5,0.7-0.9v-0.9h-1.8c-1.1,0-1.6,0.3-1.6,1
					c0,0.3,0.1,0.6,0.4,0.8c0.3,0.2,0.6,0.3,1.1,0.3C672.4,426.2,672.8,426.1,673.2,425.9z"/>
					<path class="st3" d="M676.1,430.7l0.7-1.9c0.3,0.2,0.7,0.3,1.1,0.3c0.3,0,0.6-0.1,0.8-0.3c0.2-0.2,0.3-0.5,0.3-1v-8.9h2.6v8.9
					c0,1-0.3,1.9-0.9,2.5c-0.6,0.6-1.4,0.9-2.5,0.9C677.2,431.2,676.6,431,676.1,430.7z M679.1,417.3c-0.3-0.3-0.4-0.6-0.4-1
					c0-0.4,0.1-0.8,0.4-1c0.3-0.3,0.7-0.4,1.2-0.4c0.5,0,0.9,0.1,1.2,0.4c0.3,0.3,0.4,0.6,0.4,1c0,0.4-0.1,0.8-0.4,1.1
					c-0.3,0.3-0.7,0.4-1.2,0.4C679.7,417.7,679.4,417.6,679.1,417.3z"/>
					<path class="st3" d="M685.6,427.4c-0.7-0.4-1.3-0.9-1.7-1.6s-0.6-1.5-0.6-2.4s0.2-1.7,0.6-2.4s1-1.2,1.7-1.6
					c0.7-0.4,1.6-0.6,2.5-0.6c0.9,0,1.8,0.2,2.5,0.6c0.7,0.4,1.3,0.9,1.7,1.6c0.4,0.7,0.6,1.5,0.6,2.4s-0.2,1.7-0.6,2.4
					c-0.4,0.7-1,1.2-1.7,1.6c-0.7,0.4-1.6,0.6-2.5,0.6C687.2,428,686.3,427.8,685.6,427.4z M689.7,425.2c0.4-0.4,0.6-1,0.6-1.8
					s-0.2-1.3-0.6-1.8s-1-0.7-1.6-0.7s-1.2,0.2-1.6,0.7s-0.6,1-0.6,1.8s0.2,1.3,0.6,1.8s1,0.7,1.6,0.7S689.3,425.6,689.7,425.2z"/>
					<path class="st3" d="M703.3,418.9l-4,9.4c-0.4,1-0.9,1.7-1.5,2.2c-0.6,0.4-1.3,0.6-2.2,0.6c-0.5,0-0.9-0.1-1.4-0.2
					c-0.5-0.1-0.8-0.3-1.1-0.6l0.9-1.8c0.2,0.2,0.4,0.3,0.7,0.4c0.3,0.1,0.5,0.1,0.8,0.1c0.4,0,0.6-0.1,0.9-0.3s0.4-0.5,0.6-0.9
					l0-0.1l-3.9-9h2.7l2.5,6l2.5-6H703.3z"/>
					<path class="st3" d="M705.8,427.4c-0.7-0.4-1.3-0.9-1.7-1.6c-0.4-0.7-0.6-1.5-0.6-2.4s0.2-1.7,0.6-2.4c0.4-0.7,1-1.2,1.7-1.6
					c0.7-0.4,1.6-0.6,2.5-0.6s1.8,0.2,2.5,0.6c0.7,0.4,1.3,0.9,1.7,1.6s0.6,1.5,0.6,2.4s-0.2,1.7-0.6,2.4s-1,1.2-1.7,1.6
					c-0.7,0.4-1.6,0.6-2.5,0.6S706.6,427.8,705.8,427.4z M710,425.2c0.4-0.4,0.6-1,0.6-1.8s-0.2-1.3-0.6-1.8s-1-0.7-1.6-0.7
					s-1.2,0.2-1.6,0.7s-0.6,1-0.6,1.8s0.2,1.3,0.6,1.8s1,0.7,1.6,0.7S709.5,425.6,710,425.2z"/>
					<path class="st3" d="M715.7,427.7c-0.7-0.2-1.3-0.4-1.7-0.7l0.9-1.9c0.4,0.3,0.9,0.5,1.4,0.6c0.6,0.2,1.1,0.2,1.7,0.2
					c1.1,0,1.6-0.3,1.6-0.8c0-0.3-0.1-0.4-0.4-0.5c-0.3-0.1-0.8-0.2-1.4-0.3c-0.7-0.1-1.3-0.2-1.8-0.4c-0.5-0.1-0.9-0.4-1.2-0.8
					c-0.3-0.4-0.5-0.9-0.5-1.6c0-0.6,0.2-1.1,0.5-1.5c0.3-0.4,0.8-0.8,1.4-1s1.4-0.4,2.2-0.4c0.6,0,1.3,0.1,1.9,0.2
					c0.6,0.1,1.1,0.3,1.5,0.6l-0.9,1.8c-0.8-0.4-1.6-0.7-2.6-0.7c-0.6,0-1,0.1-1.2,0.2s-0.4,0.4-0.4,0.6c0,0.3,0.1,0.5,0.4,0.6
					c0.3,0.1,0.8,0.2,1.4,0.3c0.7,0.1,1.3,0.3,1.8,0.4c0.5,0.1,0.9,0.4,1.2,0.8c0.3,0.4,0.5,0.9,0.5,1.5c0,0.6-0.2,1-0.5,1.5
					c-0.3,0.4-0.8,0.8-1.4,1c-0.6,0.2-1.4,0.4-2.3,0.4C717.2,428,716.5,427.9,715.7,427.7z"/>
					<path class="st3" d="M730.5,419.8c0.7,0.7,1.1,1.6,1.1,3v5.1h-2.4v-1.1c-0.5,0.8-1.4,1.2-2.7,1.2c-0.7,0-1.3-0.1-1.8-0.3
					c-0.5-0.2-0.9-0.6-1.1-1c-0.3-0.4-0.4-0.9-0.4-1.4c0-0.8,0.3-1.5,0.9-2c0.6-0.5,1.6-0.7,2.9-0.7h2c0-0.6-0.2-1-0.5-1.3
					c-0.3-0.3-0.9-0.5-1.5-0.5c-0.5,0-0.9,0.1-1.4,0.2c-0.5,0.1-0.8,0.3-1.2,0.6l-0.9-1.8c0.5-0.3,1.1-0.6,1.7-0.8s1.4-0.3,2.1-0.3
					C728.7,418.8,729.7,419.1,730.5,419.8z M728.3,425.9c0.3-0.2,0.6-0.5,0.7-0.9v-0.9h-1.8c-1.1,0-1.6,0.3-1.6,1
					c0,0.3,0.1,0.6,0.4,0.8c0.3,0.2,0.6,0.3,1.1,0.3C727.5,426.2,727.9,426.1,728.3,425.9z"/>
				</g>
				<g class="st2">
					<path class="st3" d="M690.2,394.1c0.4,0.5,0.6,1.1,0.6,1.8c0,1-0.4,1.8-1.2,2.3c-0.8,0.5-1.9,0.8-3.4,0.8h-6v-11.6h5.7
					c1.4,0,2.5,0.3,3.2,0.8s1.1,1.3,1.1,2.2c0,0.6-0.1,1.1-0.4,1.5c-0.3,0.4-0.6,0.8-1.1,1C689.3,393.3,689.8,393.6,690.2,394.1z
					 M682.8,389.5v2.7h2.7c0.7,0,1.2-0.1,1.5-0.3s0.5-0.6,0.5-1c0-0.5-0.2-0.8-0.5-1c-0.3-0.2-0.8-0.3-1.5-0.3H682.8z M687.5,396.7
					c0.4-0.2,0.5-0.6,0.5-1.1c0-1-0.7-1.4-2.1-1.4h-3.1v2.9h3.1C686.6,397.1,687.1,396.9,687.5,396.7z"/>
					<path class="st3" d="M701.2,395.4h-6.7c0.1,0.6,0.4,1,0.9,1.3c0.5,0.3,1,0.5,1.7,0.5c0.5,0,0.9-0.1,1.2-0.2s0.7-0.4,1-0.7
					l1.4,1.5c-0.8,1-2.1,1.4-3.7,1.4c-1,0-1.9-0.2-2.7-0.6c-0.8-0.4-1.4-0.9-1.8-1.6s-0.6-1.5-0.6-2.4c0-0.9,0.2-1.7,0.6-2.4
					c0.4-0.7,1-1.2,1.7-1.6c0.7-0.4,1.5-0.6,2.4-0.6c0.9,0,1.7,0.2,2.4,0.6c0.7,0.4,1.3,0.9,1.7,1.6c0.4,0.7,0.6,1.5,0.6,2.4
					C701.3,394.7,701.3,394.9,701.2,395.4z M695.2,392.5c-0.4,0.3-0.6,0.8-0.7,1.4h4.4c-0.1-0.6-0.3-1-0.7-1.3s-0.9-0.5-1.5-0.5
					C696.1,392,695.6,392.2,695.2,392.5z"/>
					<path class="st3" d="M711.1,391c0.7,0.7,1,1.6,1,2.9v5.1h-2.6v-4.7c0-0.7-0.2-1.2-0.5-1.6c-0.3-0.3-0.8-0.5-1.3-0.5
					c-0.7,0-1.2,0.2-1.6,0.6s-0.6,1-0.6,1.8v4.4H703v-8.9h2.5v1c0.3-0.4,0.8-0.7,1.3-0.9c0.5-0.2,1.1-0.3,1.7-0.3
					C709.5,390,710.4,390.4,711.1,391z"/>
					<path class="st3" d="M714.6,388.5c-0.3-0.3-0.4-0.6-0.4-1c0-0.4,0.1-0.8,0.4-1s0.7-0.4,1.2-0.4c0.5,0,0.9,0.1,1.2,0.4
					c0.3,0.3,0.4,0.6,0.4,1c0,0.4-0.1,0.8-0.4,1.1c-0.3,0.3-0.7,0.4-1.2,0.4C715.2,388.9,714.9,388.8,714.6,388.5z M714.4,390.2h2.6
					v8.9h-2.6V390.2z"/>
					<path class="st3" d="M728.5,386.8v12.3H726v-1c-0.6,0.8-1.6,1.2-2.8,1.2c-0.8,0-1.6-0.2-2.3-0.6s-1.2-0.9-1.6-1.6
					s-0.6-1.5-0.6-2.4s0.2-1.7,0.6-2.4c0.4-0.7,0.9-1.2,1.6-1.6c0.7-0.4,1.4-0.6,2.3-0.6c1.1,0,2,0.4,2.7,1.1v-4.3H728.5z
					 M725.3,396.4c0.4-0.4,0.6-1,0.6-1.8s-0.2-1.3-0.6-1.8s-1-0.7-1.6-0.7c-0.7,0-1.2,0.2-1.6,0.7s-0.6,1-0.6,1.8s0.2,1.3,0.6,1.8
					s1,0.7,1.6,0.7C724.3,397.1,724.9,396.9,725.3,396.4z"/>
					<path class="st3" d="M732.6,398.6c-0.7-0.4-1.3-0.9-1.7-1.6s-0.6-1.5-0.6-2.4s0.2-1.7,0.6-2.4s1-1.2,1.7-1.6
					c0.7-0.4,1.6-0.6,2.5-0.6s1.8,0.2,2.5,0.6c0.7,0.4,1.3,0.9,1.7,1.6s0.6,1.5,0.6,2.4s-0.2,1.7-0.6,2.4s-1,1.2-1.7,1.6
					c-0.7,0.4-1.6,0.6-2.5,0.6S733.3,399,732.6,398.6z M736.7,396.4c0.4-0.4,0.6-1,0.6-1.8s-0.2-1.3-0.6-1.8c-0.4-0.4-1-0.7-1.6-0.7
					s-1.2,0.2-1.6,0.7s-0.6,1-0.6,1.8s0.2,1.3,0.6,1.8s1,0.7,1.6,0.7S736.3,396.9,736.7,396.4z"/>
					<path class="st3" d="M745.4,390.4c0.5-0.2,1.1-0.3,1.8-0.3v2.4c-0.3,0-0.5,0-0.6,0c-0.7,0-1.3,0.2-1.7,0.6
					c-0.4,0.4-0.6,1-0.6,1.9v4.2h-2.6v-8.9h2.5v1.2C744.4,390.9,744.9,390.6,745.4,390.4z"/>
					<path class="st3" d="M762.8,391c0.7,0.7,1,1.6,1,3v5.1h-2.6v-4.7c0-0.7-0.1-1.2-0.4-1.6c-0.3-0.3-0.7-0.5-1.2-0.5
					c-0.6,0-1.1,0.2-1.4,0.6c-0.4,0.4-0.5,1-0.5,1.7v4.5h-2.6v-4.7c0-1.4-0.6-2.1-1.7-2.1c-0.6,0-1.1,0.2-1.4,0.6
					c-0.4,0.4-0.5,1-0.5,1.7v4.5h-2.6v-8.9h2.5v1c0.3-0.4,0.7-0.7,1.2-0.9c0.5-0.2,1-0.3,1.6-0.3c0.6,0,1.2,0.1,1.7,0.4
					s0.9,0.6,1.2,1.1c0.4-0.5,0.8-0.8,1.4-1.1c0.6-0.3,1.2-0.4,1.8-0.4C761.2,390,762.1,390.4,762.8,391z"/>
				</g>
				<g class="st2">
					<path class="st3" d="M854.4,281.3c-0.7-0.3-1.2-0.7-1.6-1.2l1.5-1.8c0.6,0.8,1.3,1.3,2.1,1.3c1.1,0,1.6-0.6,1.6-1.9v-5.5H854
					V270h6.7v7.5c0,1.4-0.4,2.5-1.1,3.2c-0.7,0.7-1.7,1.1-3.1,1.1C855.8,281.8,855.1,281.6,854.4,281.3z"/>
					<path class="st3" d="M869.9,273.5c0.7,0.7,1.1,1.6,1.1,3v5.1h-2.4v-1.1c-0.5,0.8-1.4,1.2-2.7,1.2c-0.7,0-1.3-0.1-1.8-0.3
					s-0.9-0.6-1.1-1c-0.3-0.4-0.4-0.9-0.4-1.4c0-0.8,0.3-1.5,0.9-2c0.6-0.5,1.6-0.7,2.9-0.7h2c0-0.6-0.2-1-0.5-1.3
					c-0.3-0.3-0.9-0.5-1.5-0.5c-0.5,0-0.9,0.1-1.4,0.2c-0.5,0.1-0.8,0.3-1.2,0.6l-0.9-1.8c0.5-0.3,1.1-0.6,1.7-0.8s1.4-0.3,2.1-0.3
					C868.2,272.6,869.2,272.9,869.9,273.5z M867.8,279.7c0.3-0.2,0.6-0.5,0.7-0.9v-0.9h-1.8c-1.1,0-1.6,0.3-1.6,1
					c0,0.3,0.1,0.6,0.4,0.8s0.6,0.3,1.1,0.3C867,280,867.4,279.9,867.8,279.7z M867.8,269.2h2.8l-3,2.4h-2L867.8,269.2z"/>
					<path class="st3" d="M882,272.7l-3.8,8.9h-2.7l-3.7-8.9h2.7l2.5,6l2.5-6H882z"/>
					<path class="st3" d="M891.5,277.9h-6.7c0.1,0.6,0.4,1,0.9,1.3s1,0.5,1.7,0.5c0.5,0,0.9-0.1,1.2-0.2c0.4-0.1,0.7-0.4,1-0.7
					l1.4,1.5c-0.8,1-2.1,1.4-3.7,1.4c-1,0-1.9-0.2-2.7-0.6c-0.8-0.4-1.4-0.9-1.8-1.6s-0.6-1.5-0.6-2.4c0-0.9,0.2-1.7,0.6-2.4
					c0.4-0.7,1-1.2,1.7-1.6c0.7-0.4,1.5-0.6,2.4-0.6c0.9,0,1.7,0.2,2.4,0.6c0.7,0.4,1.3,0.9,1.7,1.6c0.4,0.7,0.6,1.5,0.6,2.4
					C891.6,277.2,891.6,277.4,891.5,277.9z M885.5,275c-0.4,0.3-0.6,0.8-0.7,1.4h4.4c-0.1-0.6-0.3-1-0.7-1.3s-0.9-0.5-1.5-0.5
					C886.4,274.5,885.9,274.7,885.5,275z"/>
					<path class="st3" d="M899.8,273.5c0.7,0.7,1.1,1.6,1.1,3v5.1h-2.4v-1.1c-0.5,0.8-1.4,1.2-2.7,1.2c-0.7,0-1.3-0.1-1.8-0.3
					c-0.5-0.2-0.9-0.6-1.1-1c-0.3-0.4-0.4-0.9-0.4-1.4c0-0.8,0.3-1.5,0.9-2s1.6-0.7,2.9-0.7h2c0-0.6-0.2-1-0.5-1.3
					c-0.3-0.3-0.9-0.5-1.5-0.5c-0.5,0-0.9,0.1-1.4,0.2c-0.5,0.1-0.8,0.3-1.2,0.6l-0.9-1.8c0.5-0.3,1.1-0.6,1.7-0.8s1.4-0.3,2.1-0.3
					C898,272.6,899.1,272.9,899.8,273.5z M897.6,279.7c0.3-0.2,0.6-0.5,0.7-0.9v-0.9h-1.8c-1.1,0-1.6,0.3-1.6,1
					c0,0.3,0.1,0.6,0.4,0.8c0.3,0.2,0.6,0.3,1.1,0.3C896.9,280,897.3,279.9,897.6,279.7z"/>
				</g>
				<g class="st2">
					<path class="st3" d="M816.8,332.4c-1-0.5-1.7-1.2-2.2-2.1c-0.5-0.9-0.8-1.9-0.8-3.1s0.3-2.2,0.8-3.1s1.3-1.6,2.2-2.1
					c1-0.5,2-0.8,3.2-0.8c1,0,1.9,0.2,2.7,0.5c0.8,0.4,1.5,0.9,2,1.5l-1.7,1.6c-0.8-0.9-1.8-1.4-2.9-1.4c-0.7,0-1.4,0.2-1.9,0.5
					c-0.6,0.3-1,0.8-1.3,1.3c-0.3,0.6-0.5,1.2-0.5,1.9c0,0.7,0.2,1.4,0.5,1.9c0.3,0.6,0.8,1,1.3,1.3c0.6,0.3,1.2,0.5,1.9,0.5
					c1.2,0,2.1-0.5,2.9-1.4l1.7,1.6c-0.6,0.7-1.2,1.2-2,1.5s-1.7,0.5-2.7,0.5C818.8,333.2,817.8,332.9,816.8,332.4z"/>
					<path class="st3" d="M833.1,324.9c0.7,0.7,1.1,1.6,1.1,3v5.1h-2.4v-1.1c-0.5,0.8-1.4,1.2-2.7,1.2c-0.7,0-1.3-0.1-1.8-0.3
					c-0.5-0.2-0.9-0.6-1.1-1c-0.3-0.4-0.4-0.9-0.4-1.4c0-0.8,0.3-1.5,0.9-2c0.6-0.5,1.6-0.7,2.9-0.7h2c0-0.6-0.2-1-0.5-1.3
					c-0.3-0.3-0.9-0.5-1.5-0.5c-0.5,0-0.9,0.1-1.4,0.2c-0.5,0.1-0.8,0.3-1.2,0.6l-0.9-1.8c0.5-0.3,1.1-0.6,1.7-0.8s1.4-0.3,2.1-0.3
					C831.3,323.9,832.4,324.3,833.1,324.9z M830.9,331c0.3-0.2,0.6-0.5,0.7-0.9v-0.9h-1.8c-1.1,0-1.6,0.3-1.6,1
					c0,0.3,0.1,0.6,0.4,0.8c0.3,0.2,0.6,0.3,1.1,0.3C830.2,331.3,830.6,331.2,830.9,331z"/>
					<path class="st3" d="M836.5,320.7h2.6V333h-2.6V320.7z"/>
					<path class="st3" d="M849,324.5c0.7,0.4,1.2,0.9,1.6,1.6s0.6,1.5,0.6,2.4s-0.2,1.7-0.6,2.4s-0.9,1.2-1.6,1.6
					c-0.7,0.4-1.4,0.6-2.3,0.6c-1.1,0-2-0.4-2.7-1.1v4.1h-2.6v-12.1h2.5v1c0.6-0.8,1.6-1.2,2.8-1.2
					C847.6,323.9,848.3,324.1,849,324.5z M848,330.3c0.4-0.4,0.6-1,0.6-1.8s-0.2-1.3-0.6-1.8c-0.4-0.4-1-0.7-1.6-0.7
					c-0.7,0-1.2,0.2-1.6,0.7s-0.6,1-0.6,1.8s0.2,1.3,0.6,1.8s1,0.7,1.6,0.7C847,331,847.5,330.7,848,330.3z"/>
					<path class="st3" d="M861.6,329.2h-6.7c0.1,0.6,0.4,1,0.9,1.3s1,0.5,1.7,0.5c0.5,0,0.9-0.1,1.2-0.2c0.4-0.1,0.7-0.4,1-0.7
					l1.4,1.5c-0.8,1-2.1,1.4-3.7,1.4c-1,0-1.9-0.2-2.7-0.6c-0.8-0.4-1.4-0.9-1.8-1.6s-0.6-1.5-0.6-2.4c0-0.9,0.2-1.7,0.6-2.4
					c0.4-0.7,1-1.2,1.7-1.6c0.7-0.4,1.5-0.6,2.4-0.6c0.9,0,1.7,0.2,2.4,0.6c0.7,0.4,1.3,0.9,1.7,1.6c0.4,0.7,0.6,1.5,0.6,2.4
					C861.6,328.6,861.6,328.8,861.6,329.2z M855.5,326.4c-0.4,0.3-0.6,0.8-0.7,1.4h4.4c-0.1-0.6-0.3-1-0.7-1.3s-0.9-0.5-1.5-0.5
					C856.4,325.9,855.9,326,855.5,326.4z"/>
				</g>
				<g class="st2">
					<path class="st3" d="M440,572.5h-5.4l-1,2.5h-2.7l5.2-11.6h2.6l5.2,11.6H441L440,572.5z M439.2,570.5l-1.8-4.4l-1.8,4.4H439.2z"/>
					<path class="st3" d="M444.9,562.7h2.6V575h-2.6V562.7z"/>
					<path class="st3" d="M450,564.4c-0.3-0.3-0.4-0.6-0.4-1c0-0.4,0.1-0.8,0.4-1c0.3-0.3,0.7-0.4,1.2-0.4c0.5,0,0.9,0.1,1.2,0.4
					c0.3,0.3,0.4,0.6,0.4,1c0,0.4-0.1,0.8-0.4,1.1c-0.3,0.3-0.7,0.4-1.2,0.4C450.7,564.8,450.3,564.7,450,564.4z M449.8,566.1h2.6
					v8.9h-2.6V566.1z"/>
					<path class="st3" d="M456.6,574.5c-0.8-0.4-1.3-0.9-1.8-1.6c-0.4-0.7-0.6-1.5-0.6-2.4s0.2-1.7,0.6-2.4c0.4-0.7,1-1.2,1.8-1.6
					c0.8-0.4,1.6-0.6,2.6-0.6c0.9,0,1.8,0.2,2.5,0.6c0.7,0.4,1.2,1,1.5,1.7l-2,1.1c-0.5-0.8-1.1-1.2-2-1.2c-0.7,0-1.2,0.2-1.7,0.7
					c-0.4,0.4-0.7,1-0.7,1.8c0,0.8,0.2,1.4,0.7,1.8c0.4,0.4,1,0.7,1.7,0.7c0.9,0,1.5-0.4,2-1.2l2,1.1c-0.3,0.7-0.8,1.3-1.5,1.7
					s-1.5,0.6-2.5,0.6C458.2,575.1,457.3,574.9,456.6,574.5z"/>
					<path class="st3" d="M471.3,566.9c0.7,0.7,1.1,1.6,1.1,3v5.1H470v-1.1c-0.5,0.8-1.4,1.2-2.7,1.2c-0.7,0-1.3-0.1-1.8-0.3
					c-0.5-0.2-0.9-0.6-1.1-1c-0.3-0.4-0.4-0.9-0.4-1.4c0-0.8,0.3-1.5,0.9-2s1.6-0.7,2.9-0.7h2c0-0.6-0.2-1-0.5-1.3
					c-0.3-0.3-0.9-0.5-1.5-0.5c-0.5,0-0.9,0.1-1.4,0.2c-0.5,0.1-0.8,0.3-1.2,0.6l-0.9-1.8c0.5-0.3,1.1-0.6,1.7-0.8s1.4-0.3,2.1-0.3
					C469.6,565.9,470.6,566.3,471.3,566.9z M469.2,573.1c0.3-0.2,0.6-0.5,0.7-0.9v-0.9h-1.8c-1.1,0-1.6,0.3-1.6,1
					c0,0.3,0.1,0.6,0.4,0.8c0.3,0.2,0.6,0.3,1.1,0.3C468.4,573.4,468.8,573.3,469.2,573.1z"/>
					<path class="st3" d="M482.9,566.9c0.7,0.7,1,1.6,1,2.9v5.1h-2.6v-4.7c0-0.7-0.2-1.2-0.5-1.6c-0.3-0.3-0.8-0.5-1.3-0.5
					c-0.7,0-1.2,0.2-1.6,0.6s-0.6,1-0.6,1.8v4.4h-2.6v-8.9h2.5v1c0.3-0.4,0.8-0.7,1.3-0.9c0.5-0.2,1.1-0.3,1.7-0.3
					C481.3,565.9,482.2,566.3,482.9,566.9z"/>
					<path class="st3" d="M491.9,574.5c-0.3,0.2-0.6,0.3-0.9,0.4c-0.4,0.1-0.8,0.1-1.2,0.1c-1.1,0-1.9-0.3-2.5-0.8s-0.9-1.3-0.9-2.4
					v-3.7h-1.4v-2h1.4v-2.2h2.6v2.2h2.2v2h-2.2v3.6c0,0.4,0.1,0.7,0.3,0.9c0.2,0.2,0.5,0.3,0.8,0.3c0.4,0,0.8-0.1,1-0.3L491.9,574.5
					z"/>
					<path class="st3" d="M501.8,571.2h-6.7c0.1,0.6,0.4,1,0.9,1.3c0.5,0.3,1,0.5,1.7,0.5c0.5,0,0.9-0.1,1.2-0.2
					c0.4-0.1,0.7-0.4,1-0.7l1.4,1.5c-0.8,1-2.1,1.4-3.7,1.4c-1,0-1.9-0.2-2.7-0.6c-0.8-0.4-1.4-0.9-1.8-1.6
					c-0.4-0.7-0.6-1.5-0.6-2.4c0-0.9,0.2-1.7,0.6-2.4c0.4-0.7,1-1.2,1.7-1.6c0.7-0.4,1.5-0.6,2.4-0.6c0.9,0,1.7,0.2,2.4,0.6
					c0.7,0.4,1.3,0.9,1.7,1.6c0.4,0.7,0.6,1.5,0.6,2.4C501.8,570.6,501.8,570.8,501.8,571.2z M495.7,568.4c-0.4,0.3-0.6,0.8-0.7,1.4
					h4.4c-0.1-0.6-0.3-1-0.7-1.3c-0.4-0.3-0.9-0.5-1.5-0.5C496.6,567.9,496.1,568.1,495.7,568.4z"/>
				</g>
				<g id="Texto">
					<circle class="st4" cx="512.2" cy="571" r="3.7"/>
				</g>
				<g class="st2">
					<path class="st3" d="M311.8,838.5h-3.7v-2.2h10.1v2.2h-3.7v9.4h-2.7V838.5z"/>
					<path class="st3" d="M320.2,847.5c-0.7-0.4-1.3-0.9-1.7-1.6c-0.4-0.7-0.6-1.5-0.6-2.4s0.2-1.7,0.6-2.4c0.4-0.7,1-1.2,1.7-1.6
					c0.7-0.4,1.6-0.6,2.5-0.6c0.9,0,1.8,0.2,2.5,0.6c0.7,0.4,1.3,0.9,1.7,1.6c0.4,0.7,0.6,1.5,0.6,2.4s-0.2,1.7-0.6,2.4
					c-0.4,0.7-1,1.2-1.7,1.6c-0.7,0.4-1.6,0.6-2.5,0.6C321.8,848.1,321,847.9,320.2,847.5z M324.4,845.3c0.4-0.4,0.6-1,0.6-1.8
					s-0.2-1.3-0.6-1.8s-1-0.7-1.6-0.7s-1.2,0.2-1.6,0.7s-0.6,1-0.6,1.8s0.2,1.3,0.6,1.8s1,0.7,1.6,0.7S324,845.7,324.4,845.3z"/>
					<path class="st3" d="M333.1,839.2c0.5-0.2,1.1-0.3,1.8-0.3v2.4c-0.3,0-0.5,0-0.6,0c-0.7,0-1.3,0.2-1.7,0.6
					c-0.4,0.4-0.6,1-0.6,1.9v4.2h-2.6V839h2.5v1.2C332.1,839.8,332.5,839.5,333.1,839.2z"/>
					<path class="st3" d="M340.1,839.2c0.5-0.2,1.1-0.3,1.8-0.3v2.4c-0.3,0-0.5,0-0.6,0c-0.7,0-1.3,0.2-1.7,0.6
					c-0.4,0.4-0.6,1-0.6,1.9v4.2h-2.6V839h2.5v1.2C339.2,839.8,339.6,839.5,340.1,839.2z"/>
					<path class="st3" d="M352,844.2h-6.7c0.1,0.6,0.4,1,0.9,1.3c0.5,0.3,1,0.5,1.7,0.5c0.5,0,0.9-0.1,1.2-0.2c0.4-0.1,0.7-0.4,1-0.7
					l1.4,1.5c-0.8,1-2.1,1.4-3.7,1.4c-1,0-1.9-0.2-2.7-0.6c-0.8-0.4-1.4-0.9-1.8-1.6c-0.4-0.7-0.6-1.5-0.6-2.4
					c0-0.9,0.2-1.7,0.6-2.4c0.4-0.7,1-1.2,1.7-1.6c0.7-0.4,1.5-0.6,2.4-0.6c0.9,0,1.7,0.2,2.4,0.6c0.7,0.4,1.3,0.9,1.7,1.6
					c0.4,0.7,0.6,1.5,0.6,2.4C352.1,843.6,352.1,843.8,352,844.2z M346,841.4c-0.4,0.3-0.6,0.8-0.7,1.4h4.4c-0.1-0.6-0.3-1-0.7-1.3
					c-0.4-0.3-0.9-0.5-1.5-0.5C346.9,840.9,346.4,841,346,841.4z"/>
					<path class="st3" d="M362.5,839l-3.8,8.9h-2.7l-3.7-8.9h2.7l2.5,6l2.5-6H362.5z"/>
					<path class="st3" d="M363.7,837.4c-0.3-0.3-0.4-0.6-0.4-1c0-0.4,0.1-0.8,0.4-1c0.3-0.3,0.7-0.4,1.2-0.4c0.5,0,0.9,0.1,1.2,0.4
					c0.3,0.3,0.4,0.6,0.4,1c0,0.4-0.1,0.8-0.4,1.1c-0.3,0.3-0.7,0.4-1.2,0.4C364.3,837.8,364,837.7,363.7,837.4z M363.5,839h2.6v8.9
					h-2.6V839z"/>
					<path class="st3" d="M377.2,844.2h-6.7c0.1,0.6,0.4,1,0.9,1.3c0.5,0.3,1,0.5,1.7,0.5c0.5,0,0.9-0.1,1.2-0.2
					c0.4-0.1,0.7-0.4,1-0.7l1.4,1.5c-0.8,1-2.1,1.4-3.7,1.4c-1,0-1.9-0.2-2.7-0.6c-0.8-0.4-1.4-0.9-1.8-1.6
					c-0.4-0.7-0.6-1.5-0.6-2.4c0-0.9,0.2-1.7,0.6-2.4c0.4-0.7,1-1.2,1.7-1.6c0.7-0.4,1.5-0.6,2.4-0.6c0.9,0,1.7,0.2,2.4,0.6
					c0.7,0.4,1.3,0.9,1.7,1.6c0.4,0.7,0.6,1.5,0.6,2.4C377.2,843.6,377.2,843.8,377.2,844.2z M371.1,841.4c-0.4,0.3-0.6,0.8-0.7,1.4
					h4.4c-0.1-0.6-0.3-1-0.7-1.3c-0.4-0.3-0.9-0.5-1.5-0.5C372,840.9,371.5,841,371.1,841.4z"/>
					<path class="st3" d="M376.2,850.8l0.7-1.9c0.3,0.2,0.7,0.3,1.1,0.3c0.3,0,0.6-0.1,0.8-0.3c0.2-0.2,0.3-0.5,0.3-1V839h2.6v8.9
					c0,1-0.3,1.9-0.9,2.5c-0.6,0.6-1.4,0.9-2.5,0.9C377.4,851.3,376.7,851.1,376.2,850.8z M379.2,837.4c-0.3-0.3-0.4-0.6-0.4-1
					c0-0.4,0.1-0.8,0.4-1c0.3-0.3,0.7-0.4,1.2-0.4c0.5,0,0.9,0.1,1.2,0.4c0.3,0.3,0.4,0.6,0.4,1c0,0.4-0.1,0.8-0.4,1.1
					c-0.3,0.3-0.7,0.4-1.2,0.4C379.9,837.8,379.5,837.7,379.2,837.4z"/>
					<path class="st3" d="M390.8,839.9c0.7,0.7,1.1,1.6,1.1,3v5.1h-2.4v-1.1c-0.5,0.8-1.4,1.2-2.7,1.2c-0.7,0-1.3-0.1-1.8-0.3
					c-0.5-0.2-0.9-0.6-1.1-1c-0.3-0.4-0.4-0.9-0.4-1.4c0-0.8,0.3-1.5,0.9-2s1.6-0.7,2.9-0.7h2c0-0.6-0.2-1-0.5-1.3
					c-0.3-0.3-0.9-0.5-1.5-0.5c-0.5,0-0.9,0.1-1.4,0.2c-0.5,0.1-0.8,0.3-1.2,0.6l-0.9-1.8c0.5-0.3,1.1-0.6,1.7-0.8s1.4-0.3,2.1-0.3
					C389,838.9,390,839.2,390.8,839.9z M388.6,846c0.3-0.2,0.6-0.5,0.7-0.9v-0.9h-1.8c-1.1,0-1.6,0.3-1.6,1c0,0.3,0.1,0.6,0.4,0.8
					c0.3,0.2,0.6,0.3,1.1,0.3C387.8,846.3,388.2,846.2,388.6,846z"/>
				</g>
				<g class="st2">
					<path class="st3" d="M262.5,774.8c-1-0.5-1.7-1.2-2.3-2.1s-0.8-1.9-0.8-3.1s0.3-2.2,0.8-3.1s1.3-1.6,2.3-2.1
					c1-0.5,2-0.8,3.2-0.8c1.2,0,2.3,0.3,3.2,0.8c1,0.5,1.7,1.2,2.3,2.1c0.6,0.9,0.8,1.9,0.8,3.1s-0.3,2.2-0.8,3.1
					c-0.6,0.9-1.3,1.6-2.3,2.1c-1,0.5-2,0.8-3.2,0.8C264.5,775.6,263.4,775.3,262.5,774.8z M267.6,772.8c0.6-0.3,1-0.8,1.3-1.3
					c0.3-0.6,0.5-1.2,0.5-1.9c0-0.7-0.2-1.4-0.5-1.9c-0.3-0.6-0.7-1-1.3-1.3c-0.6-0.3-1.2-0.5-1.9-0.5c-0.7,0-1.3,0.2-1.9,0.5
					c-0.6,0.3-1,0.8-1.3,1.3c-0.3,0.6-0.5,1.2-0.5,1.9c0,0.7,0.2,1.4,0.5,1.9c0.3,0.6,0.7,1,1.3,1.3c0.6,0.3,1.2,0.5,1.9,0.5
					C266.4,773.3,267,773.2,267.6,772.8z"/>
					<path class="st3" d="M277.6,766.7c0.5-0.2,1.1-0.3,1.8-0.3v2.4c-0.3,0-0.5,0-0.6,0c-0.7,0-1.3,0.2-1.7,0.6
					c-0.4,0.4-0.6,1-0.6,1.9v4.2h-2.6v-8.9h2.5v1.2C276.7,767.2,277.1,766.9,277.6,766.7z"/>
					<path class="st3" d="M281.1,764.8c-0.3-0.3-0.4-0.6-0.4-1c0-0.4,0.1-0.8,0.4-1c0.3-0.3,0.7-0.4,1.2-0.4c0.5,0,0.9,0.1,1.2,0.4
					c0.3,0.3,0.4,0.6,0.4,1c0,0.4-0.1,0.8-0.4,1.1c-0.3,0.3-0.7,0.4-1.2,0.4C281.8,765.3,281.4,765.1,281.1,764.8z M281,766.5h2.6
					v8.9H281V766.5z"/>
					<path class="st3" d="M294,767.4c0.7,0.7,1,1.6,1,2.9v5.1h-2.6v-4.7c0-0.7-0.2-1.2-0.5-1.6c-0.3-0.3-0.8-0.5-1.3-0.5
					c-0.7,0-1.2,0.2-1.6,0.6s-0.6,1-0.6,1.8v4.4h-2.6v-12.3h2.6v4.3c0.3-0.3,0.8-0.6,1.2-0.8c0.5-0.2,1-0.3,1.6-0.3
					C292.4,766.4,293.3,766.7,294,767.4z"/>
					<path class="st3" d="M306.3,766.5v8.9h-2.4v-1.1c-0.3,0.4-0.7,0.7-1.2,0.9c-0.5,0.2-1,0.3-1.5,0.3c-1.2,0-2.1-0.3-2.8-1
					c-0.7-0.7-1-1.7-1-3v-5h2.6v4.6c0,1.4,0.6,2.1,1.8,2.1c0.6,0,1.1-0.2,1.5-0.6c0.4-0.4,0.6-1,0.6-1.8v-4.4H306.3z"/>
					<path class="st3" d="M317.4,771.7h-6.7c0.1,0.6,0.4,1,0.9,1.3c0.5,0.3,1,0.5,1.7,0.5c0.5,0,0.9-0.1,1.2-0.2
					c0.4-0.1,0.7-0.4,1-0.7l1.4,1.5c-0.8,1-2.1,1.4-3.7,1.4c-1,0-1.9-0.2-2.7-0.6c-0.8-0.4-1.4-0.9-1.8-1.6
					c-0.4-0.7-0.6-1.5-0.6-2.4c0-0.9,0.2-1.7,0.6-2.4c0.4-0.7,1-1.2,1.7-1.6c0.7-0.4,1.5-0.6,2.4-0.6c0.9,0,1.7,0.2,2.4,0.6
					c0.7,0.4,1.3,0.9,1.7,1.6c0.4,0.7,0.6,1.5,0.6,2.4C317.4,771,317.4,771.2,317.4,771.7z M311.3,768.8c-0.4,0.3-0.6,0.8-0.7,1.4
					h4.4c-0.1-0.6-0.3-1-0.7-1.3c-0.4-0.3-0.9-0.5-1.5-0.5C312.2,768.3,311.7,768.5,311.3,768.8z"/>
					<path class="st3" d="M319.1,763.1h2.6v12.3h-2.6V763.1z"/>
					<path class="st3" d="M330.9,767.3c0.7,0.7,1.1,1.6,1.1,3v5.1h-2.4v-1.1c-0.5,0.8-1.4,1.2-2.7,1.2c-0.7,0-1.3-0.1-1.8-0.3
					c-0.5-0.2-0.9-0.6-1.1-1c-0.3-0.4-0.4-0.9-0.4-1.4c0-0.8,0.3-1.5,0.9-2s1.6-0.7,2.9-0.7h2c0-0.6-0.2-1-0.5-1.3
					c-0.3-0.3-0.9-0.5-1.5-0.5c-0.5,0-0.9,0.1-1.4,0.2c-0.5,0.1-0.8,0.3-1.2,0.6l-0.9-1.8c0.5-0.3,1.1-0.6,1.7-0.8s1.4-0.3,2.1-0.3
					C329.1,766.4,330.1,766.7,330.9,767.3z M328.7,773.5c0.3-0.2,0.6-0.5,0.7-0.9v-0.9h-1.8c-1.1,0-1.6,0.3-1.6,1
					c0,0.3,0.1,0.6,0.4,0.8c0.3,0.2,0.6,0.3,1.1,0.3C327.9,773.8,328.3,773.7,328.7,773.5z"/>
				</g>
				<g class="st2">
					<path class="st3" d="M378.8,685.8c-0.9-0.2-1.5-0.6-2.1-1l0.9-2c0.5,0.4,1.1,0.7,1.8,0.9c0.7,0.2,1.4,0.3,2,0.3
					c0.8,0,1.3-0.1,1.7-0.3c0.4-0.2,0.5-0.5,0.5-0.9c0-0.3-0.1-0.5-0.3-0.7s-0.5-0.3-0.8-0.4c-0.3-0.1-0.8-0.2-1.4-0.4
					c-0.9-0.2-1.6-0.4-2.2-0.6c-0.6-0.2-1-0.5-1.4-1s-0.6-1.1-0.6-1.9c0-0.7,0.2-1.3,0.5-1.8s0.9-1,1.6-1.3c0.7-0.3,1.6-0.5,2.7-0.5
					c0.7,0,1.5,0.1,2.2,0.3c0.7,0.2,1.3,0.4,1.9,0.8l-0.8,2c-1.1-0.6-2.1-0.9-3.2-0.9c-0.7,0-1.3,0.1-1.7,0.4
					c-0.4,0.2-0.5,0.6-0.5,1s0.2,0.7,0.6,0.9c0.4,0.2,1,0.4,1.9,0.6c0.9,0.2,1.6,0.4,2.2,0.6c0.6,0.2,1,0.5,1.4,1
					c0.4,0.5,0.6,1.1,0.6,1.8c0,0.7-0.2,1.3-0.6,1.8c-0.4,0.5-0.9,1-1.7,1.3s-1.6,0.5-2.7,0.5C380.5,686.1,379.6,686,378.8,685.8z"/>
					<path class="st3" d="M394.7,677.9c0.7,0.7,1.1,1.6,1.1,3v5.1h-2.4v-1.1c-0.5,0.8-1.4,1.2-2.7,1.2c-0.7,0-1.3-0.1-1.8-0.3
					c-0.5-0.2-0.9-0.6-1.1-1c-0.3-0.4-0.4-0.9-0.4-1.4c0-0.8,0.3-1.5,0.9-2s1.6-0.7,2.9-0.7h2c0-0.6-0.2-1-0.5-1.3
					c-0.3-0.3-0.9-0.5-1.5-0.5c-0.5,0-0.9,0.1-1.4,0.2c-0.5,0.1-0.8,0.3-1.2,0.6l-0.9-1.8c0.5-0.3,1.1-0.6,1.7-0.8s1.4-0.3,2.1-0.3
					C392.9,676.9,394,677.2,394.7,677.9z M392.5,684c0.3-0.2,0.6-0.5,0.7-0.9v-0.9h-1.8c-1.1,0-1.6,0.3-1.6,1c0,0.3,0.1,0.6,0.4,0.8
					c0.3,0.2,0.6,0.3,1.1,0.3C391.8,684.3,392.2,684.2,392.5,684z"/>
					<path class="st3" d="M406.2,677.9c0.7,0.7,1,1.6,1,2.9v5.1h-2.6v-4.7c0-0.7-0.2-1.2-0.5-1.6c-0.3-0.3-0.8-0.5-1.3-0.5
					c-0.7,0-1.2,0.2-1.6,0.6s-0.6,1-0.6,1.8v4.4h-2.6V677h2.5v1c0.3-0.4,0.8-0.7,1.3-0.9c0.5-0.2,1.1-0.3,1.7-0.3
					C404.7,676.9,405.6,677.2,406.2,677.9z"/>
					<path class="st3" d="M415.3,685.5c-0.3,0.2-0.6,0.3-0.9,0.4c-0.4,0.1-0.8,0.1-1.2,0.1c-1.1,0-1.9-0.3-2.5-0.8s-0.9-1.3-0.9-2.4
					v-3.7h-1.4v-2h1.4v-2.2h2.6v2.2h2.2v2h-2.2v3.6c0,0.4,0.1,0.7,0.3,0.9c0.2,0.2,0.5,0.3,0.8,0.3c0.4,0,0.8-0.1,1-0.3L415.3,685.5
					z"/>
					<path class="st3" d="M423.5,677.9c0.7,0.7,1.1,1.6,1.1,3v5.1h-2.4v-1.1c-0.5,0.8-1.4,1.2-2.7,1.2c-0.7,0-1.3-0.1-1.8-0.3
					c-0.5-0.2-0.9-0.6-1.1-1c-0.3-0.4-0.4-0.9-0.4-1.4c0-0.8,0.3-1.5,0.9-2s1.6-0.7,2.9-0.7h2c0-0.6-0.2-1-0.5-1.3
					c-0.3-0.3-0.9-0.5-1.5-0.5c-0.5,0-0.9,0.1-1.4,0.2c-0.5,0.1-0.8,0.3-1.2,0.6l-0.9-1.8c0.5-0.3,1.1-0.6,1.7-0.8s1.4-0.3,2.1-0.3
					C421.7,676.9,422.8,677.2,423.5,677.9z M421.3,684c0.3-0.2,0.6-0.5,0.7-0.9v-0.9h-1.8c-1.1,0-1.6,0.3-1.6,1
					c0,0.3,0.1,0.6,0.4,0.8c0.3,0.2,0.6,0.3,1.1,0.3C420.6,684.3,421,684.2,421.3,684z"/>
					<path class="st3" d="M439.5,674.9c0.8,0.3,1.3,0.8,1.7,1.5c0.4,0.6,0.6,1.4,0.6,2.2c0,0.8-0.2,1.6-0.6,2.2
					c-0.4,0.6-1,1.1-1.7,1.5s-1.6,0.5-2.7,0.5h-2.3v3.2h-2.7v-11.6h5C437.9,674.4,438.8,674.5,439.5,674.9z M438.5,680
					c0.4-0.3,0.6-0.8,0.6-1.5c0-0.7-0.2-1.1-0.6-1.5s-1-0.5-1.8-0.5h-2.2v4h2.2C437.5,680.6,438.1,680.4,438.5,680z"/>
					<path class="st3" d="M445.3,685.5c-0.7-0.4-1.3-0.9-1.7-1.6c-0.4-0.7-0.6-1.5-0.6-2.4s0.2-1.7,0.6-2.4c0.4-0.7,1-1.2,1.7-1.6
					c0.7-0.4,1.6-0.6,2.5-0.6c0.9,0,1.8,0.2,2.5,0.6c0.7,0.4,1.3,0.9,1.7,1.6c0.4,0.7,0.6,1.5,0.6,2.4s-0.2,1.7-0.6,2.4
					c-0.4,0.7-1,1.2-1.7,1.6c-0.7,0.4-1.6,0.6-2.5,0.6C446.9,686.1,446,685.9,445.3,685.5z M449.4,683.3c0.4-0.4,0.6-1,0.6-1.8
					s-0.2-1.3-0.6-1.8s-1-0.7-1.6-0.7s-1.2,0.2-1.6,0.7s-0.6,1-0.6,1.8s0.2,1.3,0.6,1.8s1,0.7,1.6,0.7S449,683.7,449.4,683.3z"/>
					<path class="st3" d="M454.4,673.7h2.6v12.3h-2.6V673.7z"/>
					<path class="st3" d="M466.1,677.9c0.7,0.7,1.1,1.6,1.1,3v5.1h-2.4v-1.1c-0.5,0.8-1.4,1.2-2.7,1.2c-0.7,0-1.3-0.1-1.8-0.3
					c-0.5-0.2-0.9-0.6-1.1-1c-0.3-0.4-0.4-0.9-0.4-1.4c0-0.8,0.3-1.5,0.9-2s1.6-0.7,2.9-0.7h2c0-0.6-0.2-1-0.5-1.3
					c-0.3-0.3-0.9-0.5-1.5-0.5c-0.5,0-0.9,0.1-1.4,0.2c-0.5,0.1-0.8,0.3-1.2,0.6l-0.9-1.8c0.5-0.3,1.1-0.6,1.7-0.8s1.4-0.3,2.1-0.3
					C464.3,676.9,465.4,677.2,466.1,677.9z M463.9,684c0.3-0.2,0.6-0.5,0.7-0.9v-0.9h-1.8c-1.1,0-1.6,0.3-1.6,1
					c0,0.3,0.1,0.6,0.4,0.8c0.3,0.2,0.6,0.3,1.1,0.3C463.2,684.3,463.6,684.2,463.9,684z"/>
				</g>
				<g class="st2">
					<path class="st3" d="M385.4,647.2v2.1h-9v-11.6h8.7v2.1h-6.1v2.5h5.4v2.1h-5.4v2.7H385.4z"/>
					<path class="st3" d="M387.4,637.1h2.6v12.3h-2.6V637.1z"/>
					<path class="st3" d="M394.1,648.9c-0.8-0.4-1.3-0.9-1.8-1.6c-0.4-0.7-0.6-1.5-0.6-2.4s0.2-1.7,0.6-2.4c0.4-0.7,1-1.2,1.8-1.6
					c0.8-0.4,1.6-0.6,2.6-0.6c0.9,0,1.8,0.2,2.5,0.6c0.7,0.4,1.2,1,1.5,1.7l-2,1.1c-0.5-0.8-1.1-1.2-2-1.2c-0.7,0-1.2,0.2-1.7,0.7
					c-0.4,0.4-0.7,1-0.7,1.8c0,0.8,0.2,1.4,0.7,1.8c0.4,0.4,1,0.7,1.7,0.7c0.9,0,1.5-0.4,2-1.2l2,1.1c-0.3,0.7-0.8,1.3-1.5,1.7
					s-1.5,0.6-2.5,0.6C395.7,649.5,394.9,649.3,394.1,648.9z"/>
					<path class="st3" d="M410.1,641.3c0.7,0.7,1,1.6,1,2.9v5.1h-2.6v-4.7c0-0.7-0.2-1.2-0.5-1.6c-0.3-0.3-0.8-0.5-1.3-0.5
					c-0.7,0-1.2,0.2-1.6,0.6s-0.6,1-0.6,1.8v4.4h-2.6v-12.3h2.6v4.3c0.3-0.3,0.8-0.6,1.2-0.8c0.5-0.2,1-0.3,1.6-0.3
					C408.6,640.3,409.5,640.7,410.1,641.3z"/>
					<path class="st3" d="M422.2,645.6h-6.7c0.1,0.6,0.4,1,0.9,1.3c0.5,0.3,1,0.5,1.7,0.5c0.5,0,0.9-0.1,1.2-0.2
					c0.4-0.1,0.7-0.4,1-0.7l1.4,1.5c-0.8,1-2.1,1.4-3.7,1.4c-1,0-1.9-0.2-2.7-0.6c-0.8-0.4-1.4-0.9-1.8-1.6
					c-0.4-0.7-0.6-1.5-0.6-2.4c0-0.9,0.2-1.7,0.6-2.4c0.4-0.7,1-1.2,1.7-1.6c0.7-0.4,1.5-0.6,2.4-0.6c0.9,0,1.7,0.2,2.4,0.6
					c0.7,0.4,1.3,0.9,1.7,1.6c0.4,0.7,0.6,1.5,0.6,2.4C422.3,645,422.3,645.2,422.2,645.6z M416.2,642.8c-0.4,0.3-0.6,0.8-0.7,1.4
					h4.4c-0.1-0.6-0.3-1-0.7-1.3c-0.4-0.3-0.9-0.5-1.5-0.5C417.1,642.3,416.6,642.4,416.2,642.8z"/>
				</g>
				<g class="st2">
					<path class="st3" d="M325.9,505.8c0.8,0.3,1.3,0.8,1.7,1.5c0.4,0.6,0.6,1.4,0.6,2.2c0,0.8-0.2,1.6-0.6,2.2
					c-0.4,0.6-1,1.1-1.7,1.5s-1.6,0.5-2.7,0.5h-2.3v3.2h-2.7v-11.6h5C324.3,505.3,325.2,505.4,325.9,505.8z M324.9,511
					c0.4-0.3,0.6-0.8,0.6-1.5c0-0.7-0.2-1.1-0.6-1.5s-1-0.5-1.8-0.5h-2.2v4h2.2C323.9,511.5,324.5,511.3,324.9,511z"/>
					<path class="st3" d="M338.7,513.1h-6.7c0.1,0.6,0.4,1,0.9,1.3c0.5,0.3,1,0.5,1.7,0.5c0.5,0,0.9-0.1,1.2-0.2
					c0.4-0.1,0.7-0.4,1-0.7l1.4,1.5c-0.8,1-2.1,1.4-3.7,1.4c-1,0-1.9-0.2-2.7-0.6c-0.8-0.4-1.4-0.9-1.8-1.6
					c-0.4-0.7-0.6-1.5-0.6-2.4c0-0.9,0.2-1.7,0.6-2.4c0.4-0.7,1-1.2,1.7-1.6c0.7-0.4,1.5-0.6,2.4-0.6c0.9,0,1.7,0.2,2.4,0.6
					c0.7,0.4,1.3,0.9,1.7,1.6c0.4,0.7,0.6,1.5,0.6,2.4C338.7,512.5,338.7,512.7,338.7,513.1z M332.6,510.3c-0.4,0.3-0.6,0.8-0.7,1.4
					h4.4c-0.1-0.6-0.3-1-0.7-1.3c-0.4-0.3-0.9-0.5-1.5-0.5C333.5,509.8,333,509.9,332.6,510.3z"/>
					<path class="st3" d="M346.2,516.4c-0.3,0.2-0.6,0.3-0.9,0.4c-0.4,0.1-0.8,0.1-1.2,0.1c-1.1,0-1.9-0.3-2.5-0.8s-0.9-1.3-0.9-2.4
					v-3.7h-1.4v-2h1.4V506h2.6v2.2h2.2v2h-2.2v3.6c0,0.4,0.1,0.7,0.3,0.9c0.2,0.2,0.5,0.3,0.8,0.3c0.4,0,0.8-0.1,1-0.3L346.2,516.4z
					"/>
					<path class="st3" d="M351.3,508.1c0.5-0.2,1.1-0.3,1.8-0.3v2.4c-0.3,0-0.5,0-0.6,0c-0.7,0-1.3,0.2-1.7,0.6
					c-0.4,0.4-0.6,1-0.6,1.9v4.2h-2.6V508h2.5v1.2C350.4,508.7,350.8,508.4,351.3,508.1z"/>
					<path class="st3" d="M363.2,513.1h-6.7c0.1,0.6,0.4,1,0.9,1.3c0.5,0.3,1,0.5,1.7,0.5c0.5,0,0.9-0.1,1.2-0.2
					c0.4-0.1,0.7-0.4,1-0.7l1.4,1.5c-0.8,1-2.1,1.4-3.7,1.4c-1,0-1.9-0.2-2.7-0.6c-0.8-0.4-1.4-0.9-1.8-1.6
					c-0.4-0.7-0.6-1.5-0.6-2.4c0-0.9,0.2-1.7,0.6-2.4c0.4-0.7,1-1.2,1.7-1.6c0.7-0.4,1.5-0.6,2.4-0.6c0.9,0,1.7,0.2,2.4,0.6
					c0.7,0.4,1.3,0.9,1.7,1.6c0.4,0.7,0.6,1.5,0.6,2.4C363.3,512.5,363.3,512.7,363.2,513.1z M357.2,510.3c-0.4,0.3-0.6,0.8-0.7,1.4
					h4.4c-0.1-0.6-0.3-1-0.7-1.3c-0.4-0.3-0.9-0.5-1.5-0.5C358.1,509.8,357.6,509.9,357.2,510.3z"/>
					<path class="st3" d="M368.7,508.1c0.5-0.2,1.1-0.3,1.8-0.3v2.4c-0.3,0-0.5,0-0.6,0c-0.7,0-1.3,0.2-1.7,0.6
					c-0.4,0.4-0.6,1-0.6,1.9v4.2H365V508h2.5v1.2C367.8,508.7,368.2,508.4,368.7,508.1z"/>
				</g>
				<g class="st2">
					<path class="st3" d="M279.8,349.9l-5,11.6h-2.6l-5-11.6h2.9l3.5,8.3l3.6-8.3H279.8z"/>
					<path class="st3" d="M280.9,350.9c-0.3-0.3-0.4-0.6-0.4-1c0-0.4,0.1-0.8,0.4-1c0.3-0.3,0.7-0.4,1.2-0.4c0.5,0,0.9,0.1,1.2,0.4
					c0.3,0.3,0.4,0.6,0.4,1c0,0.4-0.1,0.8-0.4,1.1c-0.3,0.3-0.7,0.4-1.2,0.4C281.6,351.3,281.2,351.2,280.9,350.9z M280.8,352.6h2.6
					v8.9h-2.6V352.6z"/>
					<path class="st3" d="M285.8,349.2h2.6v12.3h-2.6V349.2z"/>
					<path class="st3" d="M290.7,349.2h2.6v12.3h-2.6V349.2z"/>
					<path class="st3" d="M304.4,357.7h-6.7c0.1,0.6,0.4,1,0.9,1.3c0.5,0.3,1,0.5,1.7,0.5c0.5,0,0.9-0.1,1.2-0.2
					c0.4-0.1,0.7-0.4,1-0.7l1.4,1.5c-0.8,1-2.1,1.4-3.7,1.4c-1,0-1.9-0.2-2.7-0.6c-0.8-0.4-1.4-0.9-1.8-1.6
					c-0.4-0.7-0.6-1.5-0.6-2.4c0-0.9,0.2-1.7,0.6-2.4c0.4-0.7,1-1.2,1.7-1.6c0.7-0.4,1.5-0.6,2.4-0.6c0.9,0,1.7,0.2,2.4,0.6
					c0.7,0.4,1.3,0.9,1.7,1.6c0.4,0.7,0.6,1.5,0.6,2.4C304.4,357.1,304.4,357.3,304.4,357.7z M298.3,354.9c-0.4,0.3-0.6,0.8-0.7,1.4
					h4.4c-0.1-0.6-0.3-1-0.7-1.3c-0.4-0.3-0.9-0.5-1.5-0.5C299.2,354.4,298.7,354.5,298.3,354.9z"/>
					<path class="st3" d="M314.2,353.4c0.7,0.7,1,1.6,1,2.9v5.1h-2.6v-4.7c0-0.7-0.2-1.2-0.5-1.6c-0.3-0.3-0.8-0.5-1.3-0.5
					c-0.7,0-1.2,0.2-1.6,0.6s-0.6,1-0.6,1.8v4.4h-2.6v-8.9h2.5v1c0.3-0.4,0.8-0.7,1.3-0.9c0.5-0.2,1.1-0.3,1.7-0.3
					C312.6,352.4,313.5,352.8,314.2,353.4z"/>
					<path class="st3" d="M324.3,353.4c0.7,0.7,1.1,1.6,1.1,3v5.1H323v-1.1c-0.5,0.8-1.4,1.2-2.7,1.2c-0.7,0-1.3-0.1-1.8-0.3
					c-0.5-0.2-0.9-0.6-1.1-1c-0.3-0.4-0.4-0.9-0.4-1.4c0-0.8,0.3-1.5,0.9-2s1.6-0.7,2.9-0.7h2c0-0.6-0.2-1-0.5-1.3
					c-0.3-0.3-0.9-0.5-1.5-0.5c-0.5,0-0.9,0.1-1.4,0.2c-0.5,0.1-0.8,0.3-1.2,0.6l-0.9-1.8c0.5-0.3,1.1-0.6,1.7-0.8s1.4-0.3,2.1-0.3
					C322.5,352.4,323.6,352.8,324.3,353.4z M322.1,359.5c0.3-0.2,0.6-0.5,0.7-0.9v-0.9h-1.8c-1.1,0-1.6,0.3-1.6,1
					c0,0.3,0.1,0.6,0.4,0.8c0.3,0.2,0.6,0.3,1.1,0.3C321.4,359.9,321.8,359.8,322.1,359.5z"/>
				</g>
				<g class="st2">
					<path class="st3" d="M435.5,383.9h2.7v11.6h-2.7V383.9z"/>
					<path class="st3" d="M448.2,387c0.7,0.4,1.2,0.9,1.6,1.6s0.6,1.5,0.6,2.4s-0.2,1.7-0.6,2.4s-0.9,1.2-1.6,1.6
					c-0.7,0.4-1.4,0.6-2.3,0.6c-1.2,0-2.2-0.4-2.8-1.2v1h-2.5v-12.3h2.6v4.3c0.7-0.7,1.5-1.1,2.7-1.1
					C446.8,386.5,447.6,386.7,448.2,387z M447.2,392.9c0.4-0.4,0.6-1,0.6-1.8s-0.2-1.3-0.6-1.8s-1-0.7-1.6-0.7
					c-0.7,0-1.2,0.2-1.6,0.7s-0.6,1-0.6,1.8s0.2,1.3,0.6,1.8s1,0.7,1.6,0.7C446.2,393.5,446.7,393.3,447.2,392.9z"/>
					<path class="st3" d="M452.3,385c-0.3-0.3-0.4-0.6-0.4-1c0-0.4,0.1-0.8,0.4-1c0.3-0.3,0.7-0.4,1.2-0.4c0.5,0,0.9,0.1,1.2,0.4
					c0.3,0.3,0.4,0.6,0.4,1c0,0.4-0.1,0.8-0.4,1.1c-0.3,0.3-0.7,0.4-1.2,0.4C452.9,385.4,452.6,385.2,452.3,385z M452.1,386.6h2.6
					v8.9h-2.6V386.6z"/>
				</g>
				<g class="st2">
					<path class="st3" d="M453.8,361.2h-5.4l-1,2.5h-2.7l5.2-11.6h2.6l5.2,11.6h-2.8L453.8,361.2z M453,359.1l-1.8-4.4l-1.8,4.4H453z
					"/>
					<path class="st3" d="M458.7,351.4h2.6v12.3h-2.6V351.4z"/>
					<path class="st3" d="M465.4,363.2c-0.8-0.4-1.3-0.9-1.8-1.6c-0.4-0.7-0.6-1.5-0.6-2.4s0.2-1.7,0.6-2.4c0.4-0.7,1-1.2,1.8-1.6
					c0.8-0.4,1.6-0.6,2.6-0.6c0.9,0,1.8,0.2,2.5,0.6c0.7,0.4,1.2,1,1.5,1.7l-2,1.1c-0.5-0.8-1.1-1.2-2-1.2c-0.7,0-1.2,0.2-1.7,0.7
					c-0.4,0.4-0.7,1-0.7,1.8c0,0.8,0.2,1.4,0.7,1.8c0.4,0.4,1,0.7,1.7,0.7c0.9,0,1.5-0.4,2-1.2l2,1.1c-0.3,0.7-0.8,1.3-1.5,1.7
					s-1.5,0.6-2.5,0.6C467,363.8,466.2,363.6,465.4,363.2z"/>
					<path class="st3" d="M475,363.2c-0.7-0.4-1.3-0.9-1.7-1.6c-0.4-0.7-0.6-1.5-0.6-2.4s0.2-1.7,0.6-2.4c0.4-0.7,1-1.2,1.7-1.6
					c0.7-0.4,1.6-0.6,2.5-0.6c0.9,0,1.8,0.2,2.5,0.6c0.7,0.4,1.3,0.9,1.7,1.6c0.4,0.7,0.6,1.5,0.6,2.4s-0.2,1.7-0.6,2.4
					c-0.4,0.7-1,1.2-1.7,1.6c-0.7,0.4-1.6,0.6-2.5,0.6C476.6,363.8,475.8,363.6,475,363.2z M479.2,361c0.4-0.4,0.6-1,0.6-1.8
					s-0.2-1.3-0.6-1.8s-1-0.7-1.6-0.7s-1.2,0.2-1.6,0.7s-0.6,1-0.6,1.8s0.2,1.3,0.6,1.8s1,0.7,1.6,0.7S478.8,361.5,479.2,361z"/>
					<path class="st3" d="M484.3,353.1c-0.3-0.3-0.4-0.6-0.4-1c0-0.4,0.1-0.8,0.4-1c0.3-0.3,0.7-0.4,1.2-0.4c0.5,0,0.9,0.1,1.2,0.4
					c0.3,0.3,0.4,0.6,0.4,1c0,0.4-0.1,0.8-0.4,1.1c-0.3,0.3-0.7,0.4-1.2,0.4C485,353.5,484.6,353.4,484.3,353.1z M484.2,354.8h2.6
					v8.9h-2.6V354.8z"/>
				</g>
				<g class="st2">
					<path class="st3" d="M558.7,250.9c0.4,0.5,0.6,1.1,0.6,1.8c0,1-0.4,1.8-1.2,2.3c-0.8,0.5-1.9,0.8-3.4,0.8h-6v-11.6h5.7
					c1.4,0,2.5,0.3,3.2,0.8s1.1,1.3,1.1,2.2c0,0.6-0.1,1.1-0.4,1.5c-0.3,0.4-0.6,0.8-1.1,1C557.8,250,558.3,250.4,558.7,250.9z
					 M551.3,246.3v2.7h2.7c0.7,0,1.2-0.1,1.5-0.3s0.5-0.6,0.5-1c0-0.5-0.2-0.8-0.5-1c-0.3-0.2-0.8-0.3-1.5-0.3H551.3z M556,253.5
					c0.4-0.2,0.5-0.6,0.5-1.1c0-1-0.7-1.4-2.1-1.4h-3.1v2.9h3.1C555.1,253.8,555.7,253.7,556,253.5z"/>
					<path class="st3" d="M569.8,252.1H563c0.1,0.6,0.4,1,0.9,1.3c0.5,0.3,1,0.5,1.7,0.5c0.5,0,0.9-0.1,1.2-0.2s0.7-0.4,1-0.7
					l1.4,1.5c-0.8,1-2.1,1.4-3.7,1.4c-1,0-1.9-0.2-2.7-0.6c-0.8-0.4-1.4-0.9-1.8-1.6s-0.6-1.5-0.6-2.4c0-0.9,0.2-1.7,0.6-2.4
					c0.4-0.7,1-1.2,1.7-1.6c0.7-0.4,1.5-0.6,2.4-0.6c0.9,0,1.7,0.2,2.4,0.6c0.7,0.4,1.3,0.9,1.7,1.6c0.4,0.7,0.6,1.5,0.6,2.4
					C569.8,251.5,569.8,251.7,569.8,252.1z M563.7,249.3c-0.4,0.3-0.6,0.8-0.7,1.4h4.4c-0.1-0.6-0.3-1-0.7-1.3s-0.9-0.5-1.5-0.5
					C564.6,248.8,564.1,248.9,563.7,249.3z"/>
					<path class="st3" d="M579.6,247.8c0.7,0.7,1,1.6,1,2.9v5.1H578v-4.7c0-0.7-0.2-1.2-0.5-1.6c-0.3-0.3-0.8-0.5-1.3-0.5
					c-0.7,0-1.2,0.2-1.6,0.6s-0.6,1-0.6,1.8v4.4h-2.6V247h2.5v1c0.3-0.4,0.8-0.7,1.3-0.9c0.5-0.2,1.1-0.3,1.7-0.3
					C578,246.8,578.9,247.2,579.6,247.8z"/>
					<path class="st3" d="M583.1,245.3c-0.3-0.3-0.4-0.6-0.4-1c0-0.4,0.1-0.8,0.4-1s0.7-0.4,1.2-0.4c0.5,0,0.9,0.1,1.2,0.4
					c0.3,0.3,0.4,0.6,0.4,1c0,0.4-0.1,0.8-0.4,1.1c-0.3,0.3-0.7,0.4-1.2,0.4C583.8,245.7,583.4,245.6,583.1,245.3z M582.9,247h2.6
					v8.9h-2.6V247z"/>
					<path class="st3" d="M594.7,247.8c0.7,0.7,1.1,1.6,1.1,3v5.1h-2.4v-1.1c-0.5,0.8-1.4,1.2-2.7,1.2c-0.7,0-1.3-0.1-1.8-0.3
					c-0.5-0.2-0.9-0.6-1.1-1c-0.3-0.4-0.4-0.9-0.4-1.4c0-0.8,0.3-1.5,0.9-2c0.6-0.5,1.6-0.7,2.9-0.7h2c0-0.6-0.2-1-0.5-1.3
					c-0.3-0.3-0.9-0.5-1.5-0.5c-0.5,0-0.9,0.1-1.4,0.2c-0.5,0.1-0.8,0.3-1.2,0.6l-0.9-1.8c0.5-0.3,1.1-0.6,1.7-0.8s1.4-0.3,2.1-0.3
					C592.9,246.8,593.9,247.2,594.7,247.8z M592.5,253.9c0.3-0.2,0.6-0.5,0.7-0.9v-0.9h-1.8c-1.1,0-1.6,0.3-1.6,1
					c0,0.3,0.1,0.6,0.4,0.8c0.3,0.2,0.6,0.3,1.1,0.3C591.7,254.3,592.1,254.2,592.5,253.9z"/>
					<path class="st3" d="M601.8,247.2c0.5-0.2,1.1-0.3,1.8-0.3v2.4c-0.3,0-0.5,0-0.6,0c-0.7,0-1.3,0.2-1.7,0.6
					c-0.4,0.4-0.6,1-0.6,1.9v4.2h-2.6V247h2.5v1.2C600.9,247.7,601.3,247.4,601.8,247.2z"/>
					<path class="st3" d="M608.9,247.2c0.5-0.2,1.1-0.3,1.8-0.3v2.4c-0.3,0-0.5,0-0.6,0c-0.7,0-1.3,0.2-1.7,0.6
					c-0.4,0.4-0.6,1-0.6,1.9v4.2h-2.6V247h2.5v1.2C607.9,247.7,608.4,247.4,608.9,247.2z"/>
					<path class="st3" d="M620.8,252.1h-6.7c0.1,0.6,0.4,1,0.9,1.3s1,0.5,1.7,0.5c0.5,0,0.9-0.1,1.2-0.2c0.4-0.1,0.7-0.4,1-0.7
					l1.4,1.5c-0.8,1-2.1,1.4-3.7,1.4c-1,0-1.9-0.2-2.7-0.6c-0.8-0.4-1.4-0.9-1.8-1.6c-0.4-0.7-0.6-1.5-0.6-2.4
					c0-0.9,0.2-1.7,0.6-2.4s1-1.2,1.7-1.6c0.7-0.4,1.5-0.6,2.4-0.6c0.9,0,1.7,0.2,2.4,0.6c0.7,0.4,1.3,0.9,1.7,1.6
					c0.4,0.7,0.6,1.5,0.6,2.4C620.9,251.5,620.8,251.7,620.8,252.1z M612.7,243.4h2.8l2.2,2.4h-2L612.7,243.4z M614.8,249.3
					c-0.4,0.3-0.6,0.8-0.7,1.4h4.4c-0.1-0.6-0.3-1-0.7-1.3c-0.4-0.3-0.9-0.5-1.5-0.5C615.7,248.8,615.2,248.9,614.8,249.3z"/>
					<path class="st3" d="M623.4,255.7c-0.7-0.2-1.3-0.4-1.7-0.7l0.9-1.9c0.4,0.3,0.9,0.5,1.4,0.6c0.6,0.2,1.1,0.2,1.7,0.2
					c1.1,0,1.6-0.3,1.6-0.8c0-0.3-0.1-0.4-0.4-0.5c-0.3-0.1-0.8-0.2-1.4-0.3c-0.7-0.1-1.3-0.2-1.8-0.4c-0.5-0.1-0.9-0.4-1.2-0.8
					c-0.3-0.4-0.5-0.9-0.5-1.6c0-0.6,0.2-1.1,0.5-1.5c0.3-0.4,0.8-0.8,1.4-1c0.6-0.2,1.4-0.4,2.2-0.4c0.6,0,1.3,0.1,1.9,0.2
					c0.6,0.1,1.1,0.3,1.5,0.6l-0.9,1.8c-0.8-0.4-1.6-0.7-2.6-0.7c-0.6,0-1,0.1-1.2,0.2s-0.4,0.4-0.4,0.6c0,0.3,0.1,0.5,0.4,0.6
					c0.3,0.1,0.8,0.2,1.4,0.3c0.7,0.1,1.3,0.3,1.8,0.4s0.9,0.4,1.2,0.8c0.3,0.4,0.5,0.9,0.5,1.5c0,0.6-0.2,1-0.5,1.5
					c-0.3,0.4-0.8,0.8-1.4,1c-0.6,0.2-1.4,0.4-2.3,0.4C624.8,256,624.1,255.9,623.4,255.7z"/>
				</g>
				<g class="st2">
					<path class="st3" d="M324.4,543v2.1h-9v-11.6h8.7v2.1h-6.1v2.5h5.4v2.1h-5.4v2.7H324.4z"/>
					<path class="st3" d="M326.4,532.8h2.6v12.3h-2.6V532.8z"/>
					<path class="st3" d="M340.4,532.8v12.3h-2.5v-1c-0.6,0.8-1.6,1.2-2.8,1.2c-0.8,0-1.6-0.2-2.3-0.6s-1.2-0.9-1.6-1.6
					s-0.6-1.5-0.6-2.4s0.2-1.7,0.6-2.4c0.4-0.7,0.9-1.2,1.6-1.6c0.7-0.4,1.4-0.6,2.3-0.6c1.1,0,2,0.4,2.7,1.1v-4.3H340.4z
					 M337.2,542.4c0.4-0.4,0.6-1,0.6-1.8s-0.2-1.3-0.6-1.8s-1-0.7-1.6-0.7c-0.7,0-1.2,0.2-1.6,0.7s-0.6,1-0.6,1.8s0.2,1.3,0.6,1.8
					s1,0.7,1.6,0.7C336.3,543.1,336.8,542.9,337.2,542.4z"/>
					<path class="st3" d="M349.5,537.1c0.7,0.7,1.1,1.6,1.1,3v5.1h-2.4V544c-0.5,0.8-1.4,1.2-2.7,1.2c-0.7,0-1.3-0.1-1.8-0.3
					c-0.5-0.2-0.9-0.6-1.1-1c-0.3-0.4-0.4-0.9-0.4-1.4c0-0.8,0.3-1.5,0.9-2s1.6-0.7,2.9-0.7h2c0-0.6-0.2-1-0.5-1.3
					c-0.3-0.3-0.9-0.5-1.5-0.5c-0.5,0-0.9,0.1-1.4,0.2c-0.5,0.1-0.8,0.3-1.2,0.6l-0.9-1.8c0.5-0.3,1.1-0.6,1.7-0.8s1.4-0.3,2.1-0.3
					C347.7,536.1,348.8,536.4,349.5,537.1z M347.3,543.2c0.3-0.2,0.6-0.5,0.7-0.9v-0.9h-1.8c-1.1,0-1.6,0.3-1.6,1
					c0,0.3,0.1,0.6,0.4,0.8c0.3,0.2,0.6,0.3,1.1,0.3C346.6,543.5,347,543.4,347.3,543.2z"/>
				</g>
				<g id="Texto_2_">
					<circle class="st4" cx="401.1" cy="843.1" r="3.7"/>
				</g>
				<g id="Texto_4_">
					<circle class="st4" cx="475.8" cy="682.3" r="3.7"/>
				</g>
				<g id="Texto_5_">
					<circle class="st4" cx="366.8" cy="643.3" r="3.7"/>
				</g>
				<g id="Texto_6_">
					<circle class="st4" cx="377.7" cy="511.8" r="3.7"/>
				</g>
				<g id="Texto_8_">
					<circle class="st4" cx="334.8" cy="356.9" r="3.7"/>
				</g>
				<g id="Texto_9_">
					<circle class="st4" cx="464.8" cy="390.7" r="3.7"/>
				</g>
				<g id="Texto_10_">
					<circle class="st4" cx="497.2" cy="359.7" r="3.7"/>
				</g>
				<g id="Texto_11_">
					<circle class="st4" cx="586.8" cy="234.8" r="3.7"/>
				</g>
				<g id="Texto_7_">
					<circle class="st4" cx="358.7" cy="539.7" r="3.7"/>
				</g>
				<g id="Texto_3_">
					<circle class="st4" cx="251.6" cy="770.8" r="3.7"/>
				</g>
				<g id="Texto_1_">
					<circle class="st4" cx="547.1" cy="535.9" r="3.7"/>
				</g>
				<g id="Texto_12_">
					<circle class="st4" cx="752.8" cy="409.2" r="3.7"/>
				</g>
				<g id="Texto_14_">
					<circle class="st4" cx="909.7" cy="277.4" r="3.7"/>
				</g>
				<g id="Texto_15_">
					<circle class="st4" cx="836.7" cy="344.8" r="3.7"/>
				</g>
			</g>
			<g id="_Texto_1_" class="st5">
				<path class="st6" d="M327.7,804c0.6,0.7,0.8,1.5,0.8,2.4c0,1.2-0.6,2.4-1.5,3.1c-1.4,0.8-3,1.2-4.6,1.1h-7.9v-15.4h7.5
				c1.5-0.1,3.1,0.3,4.3,1.1c1,0.7,1.5,1.8,1.5,3c0,1.4-0.8,2.8-2.1,3.4C326.4,802.9,327.2,803.3,327.7,804z M317.8,797.9v3.6h3.5
				c0.7,0,1.4-0.1,2-0.4c0.4-0.3,0.7-0.8,0.7-1.3s-0.2-1.1-0.7-1.3c-0.7-0.3-1.3-0.4-2-0.4L317.8,797.9z M324.1,807.5
				c0.4-0.3,0.8-0.9,0.7-1.4c0-1.3-1-1.9-2.9-1.9h-4.2v3.9h4.2C322.8,807.9,323.5,807.8,324.1,807.5L324.1,807.5z"/>
				<path class="st6" d="M339.9,799.9c1.1,1,1.5,2.5,1.4,4v6.7h-3.2v-1.4c-0.8,1.2-2.2,1.9-3.6,1.7c-0.8,0-1.7-0.1-2.3-0.4
				c-0.7-0.2-1.1-0.7-1.5-1.3c-0.3-0.6-0.6-1.2-0.6-1.9c0-1,0.4-2,1.2-2.6c1.1-0.8,2.5-1.1,3.9-1h2.8c0-0.7-0.2-1.3-0.7-1.8
				c-0.6-0.4-1.3-0.7-2.1-0.7c-0.7,0-1.2,0.1-1.9,0.3c-0.6,0.2-1.1,0.4-1.5,0.8l-1.2-2.4c0.7-0.4,1.5-0.9,2.3-1.1
				c0.9-0.2,1.9-0.3,2.8-0.3C337.2,798.5,338.7,798.9,339.9,799.9z M337,808c0.4-0.2,0.8-0.7,1-1.2v-1.2h-2.3
				c-1.4,0-2.1,0.4-2.1,1.4c0,0.4,0.2,0.8,0.6,1.1s0.9,0.4,1.4,0.3C336,808.5,336.5,808.4,337,808L337,808z"/>
				<path class="st6" d="M344.7,796.6c-0.8-0.7-0.8-1.9-0.1-2.6l0.1-0.1c0.4-0.3,1-0.6,1.5-0.6s1.1,0.1,1.5,0.6
				c0.4,0.3,0.6,0.8,0.6,1.3s-0.2,1.1-0.6,1.4c-0.4,0.3-1,0.6-1.5,0.6C345.7,797.1,345.1,796.9,344.7,796.6z M344.5,798.8h3.4v11.9
				h-3.4V798.8z"/>
				<path class="st6" d="M358.7,810.6l-2.6-3.6l-2.6,3.6h-3.7l4.5-6l-4.4-5.8h3.9l2.5,3.4l2.5-3.4h3.6l-4.4,5.8l4.6,6.1L358.7,810.6
				L358.7,810.6z"/>
				<path class="st6" d="M300.2,836.8c-1-0.2-1.9-0.7-2.8-1.3l1.2-2.6c0.8,0.6,1.5,0.9,2.3,1.2c0.9,0.3,1.8,0.4,2.8,0.4
				c0.8,0,1.5-0.1,2.2-0.4c0.4-0.2,0.8-0.7,0.8-1.2c0-0.3-0.1-0.7-0.4-0.9s-0.7-0.4-1.1-0.6c-0.4-0.1-1.1-0.3-1.8-0.4
				c-1-0.2-2-0.6-2.9-0.9c-0.8-0.3-1.4-0.8-2-1.3c-0.6-0.7-0.9-1.5-0.8-2.4c0-0.9,0.2-1.8,0.8-2.4c0.6-0.8,1.3-1.4,2.2-1.8
				c1.1-0.4,2.3-0.7,3.6-0.7c1,0,2,0.1,2.9,0.3s1.7,0.6,2.4,1l-1.1,2.8c-1.3-0.8-2.8-1.2-4.3-1.2c-0.8,0-1.5,0.1-2.2,0.4
				c-0.4,0.2-0.8,0.8-0.7,1.3c0,0.6,0.3,1,0.9,1.2c0.8,0.3,1.7,0.6,2.5,0.8c1,0.2,2,0.6,2.9,0.9c0.8,0.2,1.4,0.8,2,1.3
				c0.6,0.7,0.9,1.5,0.8,2.4c0,0.9-0.2,1.7-0.8,2.4c-0.6,0.8-1.3,1.4-2.2,1.8c-1.1,0.4-2.3,0.7-3.6,0.7
				C302.5,837.4,301.4,837.1,300.2,836.8z"/>
				<path class="st6" d="M324,832.1h-9c0.1,0.7,0.6,1.3,1.1,1.8c0.7,0.4,1.4,0.7,2.2,0.7c0.6,0,1.1-0.1,1.7-0.3s1-0.4,1.3-0.9l1.9,2
				c-1.2,1.3-3.1,2.1-4.8,1.9c-1.2,0-2.4-0.2-3.5-0.8c-1-0.4-1.8-1.2-2.4-2.2s-0.9-2.1-0.9-3.2c0-1.1,0.2-2.2,0.9-3.2
				c0.6-0.9,1.3-1.7,2.3-2.2c2-1,4.4-1,6.4,0c0.9,0.4,1.7,1.2,2.2,2.2c0.6,1,0.9,2.1,0.8,3.3C324.1,831.2,324.1,831.5,324,832.1z
				 M315.9,828.3c-0.6,0.4-0.9,1.1-1,1.8h5.8c-0.1-0.7-0.4-1.3-1-1.8c-0.6-0.4-1.2-0.7-2-0.7C317.2,827.5,316.5,827.9,315.9,828.3
				L315.9,828.3z"/>
				<path class="st6" d="M338.6,825.2v9.9c0.1,1.8-0.4,3.5-1.7,4.8c-1.4,1.1-3.2,1.8-5,1.5c-1.1,0-2.2-0.1-3.3-0.4
				c-0.9-0.2-1.8-0.7-2.5-1.2l1.3-2.4c0.6,0.4,1.2,0.8,1.9,1c0.8,0.2,1.5,0.3,2.3,0.3c1,0.1,1.9-0.2,2.6-0.8
				c0.7-0.7,0.9-1.5,0.9-2.4V835c-1,1-2.3,1.5-3.7,1.4c-1,0-2.1-0.2-3-0.8c-0.9-0.4-1.7-1.2-2.1-2c-1.1-1.9-1.1-4.2,0-6
				c0.6-0.9,1.2-1.5,2.1-2s2-0.8,3-0.8c1.5-0.1,3,0.6,4,1.7V825L338.6,825.2z M334.3,832.8c1.2-1.2,1.2-3.1,0-4.2
				c-0.7-0.6-1.4-0.9-2.2-0.8c-0.8,0-1.7,0.2-2.2,0.8c-1.2,1.1-1.2,3,0,4.2l0,0c0.7,0.6,1.4,0.9,2.2,0.8
				C332.9,833.7,333.8,833.4,334.3,832.8L334.3,832.8z"/>
				<path class="st6" d="M353.7,825.2v11.9h-3.3v-1.4c-0.4,0.6-1,0.9-1.7,1.2c-0.7,0.2-1.3,0.4-2.1,0.4c-1.3,0.1-2.8-0.4-3.7-1.3
				c-1-1.1-1.4-2.5-1.3-4v-6.7h3.4v6.2c0,1.9,0.8,2.9,2.4,2.9c0.8,0,1.4-0.2,2-0.8c0.6-0.7,0.8-1.5,0.8-2.4v-5.8L353.7,825.2z"/>
				<path class="st6" d="M361.9,825.5c0.8-0.3,1.5-0.4,2.4-0.4v3.2c-0.3,0-0.7,0-0.8,0c-0.9,0-1.7,0.2-2.3,0.9
				c-0.6,0.7-0.9,1.5-0.9,2.5v5.6h-3.4v-11.9h3.3v1.5C360.7,826.2,361.2,825.7,361.9,825.5z"/>
				<path class="st6" d="M375.3,826.3c1.1,1,1.5,2.5,1.4,4v6.7h-3.2v-1.4c-0.8,1.2-2.2,1.9-3.6,1.7c-0.8,0-1.7-0.1-2.3-0.4
				c-0.7-0.2-1.1-0.7-1.5-1.3c-0.3-0.6-0.6-1.2-0.6-1.9c0-1,0.4-2,1.2-2.6c1.1-0.8,2.5-1.1,3.9-1h2.8c0-0.7-0.2-1.3-0.7-1.8
				c-0.6-0.4-1.3-0.7-2.1-0.7c-0.7,0-1.2,0.1-1.9,0.3c-0.6,0.2-1.1,0.4-1.5,0.8l-1.2-2.4c0.7-0.4,1.5-0.9,2.3-1.1
				c0.9-0.2,1.9-0.3,2.8-0.3C372.6,824.9,374.1,825.3,375.3,826.3z M372.3,834.5c0.4-0.2,0.8-0.7,1-1.2v-1.2H371
				c-1.4,0-2.1,0.4-2.1,1.4c0,0.4,0.2,0.8,0.6,1.1s0.9,0.4,1.4,0.3C371.4,834.9,371.9,834.8,372.3,834.5L372.3,834.5z"/>
				<path class="st6" d="M374,658.5c0.6,0.7,0.8,1.5,0.8,2.4c0,1.2-0.6,2.4-1.5,3.1c-1.4,0.8-3,1.2-4.6,1.1h-7.9v-15.4h7.5
				c1.5-0.1,3.1,0.3,4.3,1.1c1,0.7,1.5,1.8,1.5,3c0,1.4-0.8,2.8-2.1,3.4C372.7,657.4,373.4,657.8,374,658.5z M364.1,652.4v3.6h3.5
				c0.7,0,1.4-0.1,2-0.4c0.4-0.3,0.7-0.8,0.7-1.3s-0.2-1.1-0.7-1.3c-0.7-0.3-1.3-0.4-2-0.4L364.1,652.4z M370.4,662
				c0.4-0.3,0.8-0.9,0.7-1.4c0-1.3-1-1.9-2.9-1.9H364v3.9h4.2C369,662.5,369.8,662.4,370.4,662L370.4,662z"/>
				<path class="st6" d="M386.2,654.4c1.1,1,1.5,2.5,1.4,4v6.7h-3.2v-1.4c-0.8,1.2-2.2,1.9-3.6,1.7c-0.8,0-1.7-0.1-2.3-0.4
				c-0.7-0.2-1.1-0.7-1.5-1.3c-0.3-0.6-0.6-1.2-0.6-1.9c0-1,0.4-2,1.2-2.6c1.1-0.8,2.5-1.1,3.9-1h2.8c0-0.7-0.2-1.3-0.7-1.8
				c-0.6-0.4-1.3-0.7-2.1-0.7c-0.7,0-1.2,0.1-1.9,0.3c-0.6,0.2-1.1,0.4-1.5,0.8l-1.2-2.4c0.7-0.4,1.5-0.9,2.3-1.1
				c0.9-0.2,1.9-0.3,2.8-0.3C383.5,653,385,653.4,386.2,654.4z M383.3,662.6c0.4-0.2,0.8-0.7,1-1.2v-1.2H382c-1.4,0-2.1,0.4-2.1,1.4
				c0,0.4,0.2,0.8,0.6,1.1s0.9,0.4,1.4,0.3C382.3,663,382.8,662.9,383.3,662.6L383.3,662.6z"/>
				<path class="st6" d="M391,651.1c-0.8-0.7-0.8-1.9-0.1-2.6l0.1-0.1c0.4-0.3,1-0.6,1.5-0.6c0.6,0,1.1,0.1,1.5,0.6
				c0.4,0.3,0.6,0.8,0.6,1.3s-0.2,1.1-0.6,1.4c-0.4,0.3-1,0.6-1.5,0.6S391.4,651.5,391,651.1z M390.7,653.3h3.4v11.9h-3.4V653.3z"/>
				<path class="st6" d="M405,665.1l-2.6-3.6l-2.6,3.6h-3.7l4.5-6l-4.4-5.8h3.9l2.5,3.4l2.5-3.4h3.6l-4.4,5.8l4.6,6.1L405,665.1
				L405,665.1z"/>
				<path class="st6" d="M349.2,676.1l-6.7,15.4H339l-6.6-15.4h3.9l4.7,11l4.7-11H349.2z"/>
				<path class="st6" d="M350.6,677.6c-0.8-0.7-0.8-1.9-0.1-2.6l0.1-0.1c0.4-0.3,1-0.6,1.5-0.6c0.6,0,1.1,0.1,1.5,0.6
				c0.4,0.3,0.6,0.8,0.6,1.3c0,0.6-0.2,1.1-0.6,1.4c-0.4,0.3-1,0.6-1.5,0.6C351.6,678.1,351.1,677.9,350.6,677.6z M350.5,679.8h3.4
				v11.9h-3.4V679.8z"/>
				<path class="st6" d="M367.9,680.9c1,1.1,1.4,2.5,1.3,4v6.8h-3.4v-6.3c0.1-0.8-0.1-1.5-0.7-2.1c-0.4-0.4-1.1-0.8-1.8-0.7
				c-0.8,0-1.5,0.2-2.1,0.8c-0.6,0.7-0.9,1.5-0.8,2.4v5.8H357v-11.9h3.3v1.4c0.4-0.6,1.1-0.9,1.7-1.1c0.7-0.3,1.4-0.4,2.2-0.4
				C365.6,679.4,366.9,680,367.9,680.9z"/>
				<path class="st6" d="M381.4,680.9c1.1,1,1.5,2.5,1.4,4v6.7h-3.2v-1.4c-0.8,1.2-2.2,1.9-3.6,1.7c-0.8,0-1.7-0.1-2.3-0.4
				c-0.7-0.2-1.1-0.7-1.5-1.3c-0.3-0.6-0.6-1.2-0.6-1.9c0-1,0.4-2,1.2-2.6c1.1-0.8,2.5-1.1,3.9-1h2.8c0-0.7-0.2-1.3-0.7-1.8
				c-0.6-0.4-1.3-0.7-2.1-0.7c-0.7,0-1.2,0.1-1.9,0.3c-0.6,0.2-1.1,0.4-1.5,0.8l-1.2-2.4c0.7-0.4,1.5-0.9,2.3-1.1
				c0.9-0.2,1.9-0.3,2.8-0.3C378.7,679.4,380.2,679.9,381.4,680.9z M378.4,689c0.4-0.2,0.8-0.7,1-1.2v-1.2h-2.3
				c-1.4,0-2.1,0.4-2.1,1.4c0,0.4,0.2,0.8,0.6,1.1s0.9,0.4,1.4,0.3C377.4,689.5,378,689.4,378.4,689L378.4,689z"/>
				<path class="st6" d="M386,675.3h3.4v16.3H386V675.3z"/>
				<path class="st6" d="M394.9,691c-1-0.4-1.8-1.2-2.3-2.2c-1.1-2-1.1-4.3,0-6.3c0.6-0.9,1.3-1.7,2.3-2.2c2.1-1,4.6-1,6.7,0
				c1,0.6,1.8,1.2,2.3,2.2c1.1,2,1.1,4.3,0,6.3c-0.6,0.9-1.3,1.7-2.3,2.2C399.5,692,397,692,394.9,691z M400.4,688
				c1.1-1.4,1.1-3.4,0-4.7c-0.6-0.6-1.3-0.9-2.2-0.9c-0.8,0-1.7,0.3-2.2,0.9c-1.1,1.4-1.1,3.4,0,4.7c0.6,0.6,1.3,0.9,2.2,0.9
				C399,688.9,399.9,688.7,400.4,688L400.4,688z"/>
				<path class="st6" d="M417.1,680.3c0.9,0.6,1.7,1.2,2.1,2.1c1,2,1,4.4,0,6.4c-0.4,0.9-1.2,1.7-2.1,2.1c-0.9,0.6-2,0.8-3,0.8
				c-1.3,0.1-2.6-0.4-3.5-1.4v5.5h-3.4v-16.1h3.3v1.3c0.9-1.1,2.3-1.7,3.7-1.5C415.1,679.6,416.1,679.8,417.1,680.3z M415.7,688
				c1.1-1.4,1.1-3.4,0-4.7c-1.2-1.2-3.1-1.2-4.3,0c-1.1,1.4-1.1,3.4,0,4.7C412.5,689.2,414.4,689.2,415.7,688z"/>
				<path class="st6" d="M424.6,691c-1-0.4-1.8-1.2-2.3-2.2c-1.1-2-1.1-4.3,0-6.3c0.6-0.9,1.3-1.7,2.3-2.2c2.1-1,4.6-1,6.7,0
				c1,0.6,1.8,1.2,2.3,2.2c1.1,2,1.1,4.3,0,6.3c-0.6,0.9-1.3,1.7-2.3,2.2C429.1,692,426.7,692,424.6,691z M430.1,688
				c1.1-1.4,1.1-3.4,0-4.7c-0.6-0.6-1.3-0.9-2.2-0.9c-0.8,0-1.7,0.3-2.2,0.9c-1.1,1.4-1.1,3.4,0,4.7c0.6,0.6,1.3,0.9,2.2,0.9
				C428.7,688.9,429.5,688.7,430.1,688L430.1,688z M428.8,675h3.7l-4,3.2h-2.6L428.8,675z"/>
				<path class="st6" d="M271,532.9l-6.7,15.4h-3.5l-6.6-15.4h3.9l4.7,11l4.7-11H271z"/>
				<path class="st6" d="M272.4,534.3c-0.8-0.7-0.8-1.9-0.1-2.6l0.1-0.1c0.4-0.3,1-0.6,1.5-0.6c0.6,0,1.1,0.1,1.5,0.6
				c0.4,0.3,0.6,0.8,0.6,1.3s-0.2,1.1-0.6,1.4c-0.4,0.3-1,0.6-1.5,0.6S272.8,534.6,272.4,534.3z M272.3,536.5h3.4v11.9h-3.4V536.5z"/>
				<path class="st6" d="M289.7,537.6c1,1.1,1.4,2.5,1.3,4v6.8h-3.4v-6.3c0.1-0.8-0.1-1.5-0.7-2.1c-0.4-0.4-1.1-0.8-1.8-0.7
				c-0.8,0-1.5,0.2-2.1,0.8c-0.6,0.7-0.9,1.5-0.8,2.4v5.8h-3.4v-11.9h3.3v1.4c0.4-0.6,1.1-0.9,1.7-1.1c0.7-0.3,1.4-0.4,2.2-0.4
				C287.4,536.2,288.7,536.7,289.7,537.6z"/>
				<path class="st6" d="M303.1,537.6c1.1,1,1.5,2.5,1.4,4v6.7h-3.2v-1.4c-0.8,1.2-2.2,1.9-3.6,1.7c-0.8,0-1.7-0.1-2.3-0.4
				c-0.7-0.2-1.1-0.7-1.5-1.3c-0.3-0.6-0.6-1.2-0.6-1.9c0-1,0.4-2,1.2-2.6c1.1-0.8,2.5-1.1,3.9-1h2.8c0-0.7-0.2-1.3-0.7-1.8
				c-0.6-0.4-1.3-0.7-2.1-0.7c-0.7,0-1.2,0.1-1.9,0.3c-0.6,0.2-1.1,0.4-1.5,0.8l-1.2-2.4c0.7-0.4,1.5-0.9,2.3-1.1
				c0.9-0.2,1.9-0.3,2.8-0.3C300.5,536.2,301.9,536.6,303.1,537.6z M300.2,545.8c0.4-0.2,0.8-0.7,1-1.2v-1.2h-2.3
				c-1.4,0-2.1,0.4-2.1,1.4c0,0.4,0.2,0.8,0.6,1.1s0.9,0.4,1.4,0.3C299.2,546.2,299.7,546.1,300.2,545.8L300.2,545.8z"/>
				<path class="st6" d="M307.8,532h3.4v16.3h-3.4V532z"/>
				<path class="st6" d="M316.7,547.8c-1-0.4-1.8-1.2-2.3-2.2c-1.1-2-1.1-4.3,0-6.3c0.6-0.9,1.3-1.7,2.3-2.2c2.1-1,4.6-1,6.7,0
				c1,0.6,1.8,1.2,2.3,2.2c1.1,2,1.1,4.3,0,6.3c-0.6,0.9-1.3,1.7-2.3,2.2C321.2,548.7,318.8,548.7,316.7,547.8z M322.2,544.8
				c1.1-1.4,1.1-3.4,0-4.7c-0.6-0.6-1.3-0.9-2.2-0.9c-0.8,0-1.7,0.3-2.2,0.9c-1.1,1.4-1.1,3.4,0,4.7c0.6,0.6,1.3,0.9,2.2,0.9
				C320.8,545.7,321.7,545.4,322.2,544.8L322.2,544.8z"/>
				<path class="st6" d="M338.8,537.1c0.9,0.6,1.7,1.2,2.1,2.1c1,2,1,4.4,0,6.4c-0.4,0.9-1.2,1.7-2.1,2.1c-0.9,0.6-2,0.8-3,0.8
				c-1.3,0.1-2.6-0.4-3.5-1.4v5.5h-3.4v-16.1h3.3v1.3c0.9-1.1,2.3-1.7,3.7-1.5C336.9,536.3,337.9,536.5,338.8,537.1z M337.4,544.8
				c1.1-1.4,1.1-3.4,0-4.7c-1.2-1.2-3.1-1.2-4.3,0c-1.1,1.4-1.1,3.4,0,4.7C334.2,546,336.2,546,337.4,544.8z"/>
				<path class="st6" d="M346.3,547.8c-1-0.4-1.8-1.2-2.3-2.2c-1.1-2-1.1-4.3,0-6.3c0.6-0.9,1.3-1.7,2.3-2.2c2.1-1,4.6-1,6.7,0
				c1,0.6,1.8,1.2,2.3,2.2c1.1,2,1.1,4.3,0,6.3c-0.6,0.9-1.3,1.7-2.3,2.2C350.9,548.7,348.4,548.7,346.3,547.8z M351.8,544.8
				c1.1-1.4,1.1-3.4,0-4.7c-0.6-0.6-1.3-0.9-2.2-0.9c-0.8,0-1.7,0.3-2.2,0.9c-1.1,1.4-1.1,3.4,0,4.7c0.6,0.6,1.3,0.9,2.2,0.9
				C350.4,545.7,351.3,545.4,351.8,544.8L351.8,544.8z M350.5,531.8h3.7l-4,3.2h-2.6L350.5,531.8z"/>
				<path class="st6" d="M292.7,574.8v-9.3l-4.5,7.6h-1.7l-4.5-7.4v9h-3.3v-15.4h3l5.7,9.6l5.7-9.6h3v15.4h-3.4V574.8z"/>
				<path class="st6" d="M299.6,560.8c-0.8-0.7-0.8-1.9-0.1-2.6l0.1-0.1c0.4-0.3,1-0.6,1.5-0.6s1.1,0.1,1.5,0.6
				c0.4,0.3,0.6,0.8,0.6,1.3c0,0.6-0.2,1.1-0.6,1.4c-0.4,0.3-1,0.6-1.5,0.6S300.1,561.1,299.6,560.8z M299.4,563h3.4v11.9h-3.4V563z
				"/>
				<path class="st6" d="M313.7,574.2c-0.3,0.2-0.8,0.4-1.2,0.6c-0.6,0.1-1,0.2-1.5,0.2c-1.2,0.1-2.3-0.3-3.3-1.1
				c-0.8-0.9-1.2-2-1.1-3.2v-4.8h-1.9v-2.6h1.9v-2.9h3.4v2.9h3v2.6h-3v4.8c0,0.4,0.1,0.9,0.4,1.1c0.3,0.3,0.7,0.4,1.1,0.4
				c0.6,0,1-0.1,1.4-0.4L313.7,574.2z"/>
				<path class="st6" d="M312,578.6l0.9-2.5c0.4,0.3,1,0.4,1.4,0.4s0.8-0.1,1-0.4c0.3-0.3,0.4-0.9,0.3-1.3v-11.9h3.4v11.8
				c0.1,1.2-0.3,2.4-1.2,3.3c-0.9,0.9-2.1,1.3-3.3,1.2C313.8,579.3,312.8,579.1,312,578.6z M315.9,560.8c-0.8-0.7-0.8-1.9-0.1-2.6
				l0.1-0.1c0.4-0.3,1-0.6,1.5-0.6s1.1,0.1,1.5,0.6c0.4,0.3,0.6,0.8,0.6,1.3c0,0.6-0.2,1.1-0.6,1.4
				C318.1,561.4,316.9,561.4,315.9,560.8L315.9,560.8z"/>
				<path class="st6" d="M331.5,564.1c1.1,1,1.5,2.5,1.4,4v6.7h-3.2v-1.4c-0.8,1.2-2.2,1.9-3.6,1.7c-0.8,0-1.7-0.1-2.3-0.4
				c-0.7-0.2-1.1-0.7-1.5-1.3c-0.3-0.6-0.6-1.2-0.6-1.9c0-1,0.4-2,1.2-2.6c1.1-0.8,2.5-1.1,3.9-1h2.8c0-0.7-0.2-1.3-0.7-1.8
				c-0.6-0.4-1.3-0.7-2.1-0.7c-0.7,0-1.2,0.1-1.9,0.3c-0.6,0.2-1.1,0.4-1.5,0.8l-1.2-2.4c0.7-0.4,1.5-0.9,2.3-1.1
				c0.9-0.2,1.9-0.3,2.8-0.3C328.7,562.6,330.2,563.1,331.5,564.1z M328.5,572.2c0.4-0.2,0.8-0.7,1-1.2v-1.2h-2.3
				c-1.4,0-2.1,0.4-2.1,1.4c0,0.4,0.2,0.8,0.6,1.1s0.9,0.4,1.4,0.3C327.5,572.7,328,572.5,328.5,572.2L328.5,572.2z M328.5,558.2
				h3.7l-4,3.2h-2.6L328.5,558.2z"/>
				<path class="st6" d="M285.2,389.6H278l-1.3,3.3h-3.6l6.8-15.4h3.5l6.9,15.4h-3.9L285.2,389.6z M284.1,387l-2.4-6l-2.4,6H284.1z"/>
				<path class="st6" d="M291.7,376.6h3.4v16.3h-3.4V376.6z"/>
				<path class="st6" d="M306.8,392.4c-0.3,0.2-0.8,0.4-1.2,0.6c-0.6,0.1-1,0.2-1.5,0.2c-1.2,0.1-2.3-0.3-3.3-1.1
				c-0.8-0.9-1.2-2-1.1-3.2V384h-1.9v-2.6h1.9v-2.9h3.4v2.9h3v2.6h-3v4.8c0,0.4,0.1,0.9,0.4,1.1c0.3,0.3,0.7,0.4,1.1,0.4
				c0.6,0,1-0.1,1.4-0.4L306.8,392.4z"/>
				<path class="st6" d="M255.5,403.9l-6.7,15.4h-3.5l-6.6-15.4h3.9l4.7,11l4.7-11H255.5z"/>
				<path class="st6" d="M257,405.4c-0.8-0.7-0.8-1.9-0.1-2.6l0.1-0.1c0.4-0.3,1-0.6,1.5-0.6s1.1,0.1,1.5,0.6
				c0.4,0.3,0.6,0.8,0.6,1.3s-0.2,1.1-0.6,1.4s-1,0.6-1.5,0.6S257.4,405.7,257,405.4z M256.9,407.6h3.4v11.9h-3.4V407.6z"/>
				<path class="st6" d="M274.3,408.7c1,1.1,1.4,2.5,1.3,4v6.8h-3.4v-6.3c0.1-0.8-0.1-1.5-0.7-2.1c-0.4-0.4-1.1-0.8-1.8-0.7
				c-0.8,0-1.5,0.2-2.1,0.8c-0.6,0.7-0.9,1.5-0.8,2.4v5.8h-3.4v-11.9h3.3v1.4c0.4-0.6,1.1-0.9,1.7-1.1c0.7-0.3,1.4-0.4,2.2-0.4
				C272,407.3,273.3,407.8,274.3,408.7z"/>
				<path class="st6" d="M287.7,408.7c1.1,1,1.5,2.5,1.4,4v6.7H286V418c-0.8,1.2-2.2,1.9-3.6,1.7c-0.8,0-1.7-0.1-2.3-0.4
				c-0.7-0.2-1.1-0.7-1.5-1.3c-0.3-0.6-0.6-1.2-0.6-1.9c0-1,0.4-2,1.2-2.6c1.1-0.8,2.5-1.1,3.9-1h2.8c0-0.7-0.2-1.3-0.7-1.8
				c-0.6-0.4-1.3-0.7-2.1-0.7c-0.7,0-1.2,0.1-1.9,0.3c-0.6,0.2-1.1,0.4-1.5,0.8l-1.2-2.4c0.7-0.4,1.5-0.9,2.3-1.1
				c0.9-0.2,1.9-0.3,2.8-0.3C285.1,407.3,286.5,407.7,287.7,408.7z M284.7,416.8c0.4-0.2,0.8-0.7,1-1.2v-1.2h-2.3
				c-1.4,0-2.1,0.4-2.1,1.4c0,0.4,0.2,0.8,0.6,1.1c0.4,0.3,0.9,0.4,1.4,0.4C283.7,417.3,284.3,417.2,284.7,416.8L284.7,416.8z"/>
				<path class="st6" d="M292.3,403.1h3.4v16.3h-3.4V403.1z"/>
				<path class="st6" d="M301.3,418.8c-1-0.4-1.8-1.2-2.3-2.2c-1.1-2-1.1-4.3,0-6.3c0.6-0.9,1.3-1.7,2.3-2.2c2.1-1,4.6-1,6.7,0
				c1,0.6,1.8,1.2,2.3,2.2c1.1,2,1.1,4.3,0,6.3c-0.6,0.9-1.3,1.7-2.3,2.2C305.8,419.8,303.4,419.8,301.3,418.8z M306.8,415.8
				c1.1-1.4,1.1-3.4,0-4.7c-0.6-0.6-1.3-0.9-2.2-0.9c-0.8,0-1.7,0.3-2.2,0.9c-1.1,1.4-1.1,3.4,0,4.7c0.6,0.6,1.3,0.9,2.2,0.9
				C305.3,416.7,306.2,416.5,306.8,415.8L306.8,415.8z"/>
				<path class="st6" d="M323.4,408.1c0.9,0.6,1.7,1.2,2.1,2.1c1,2,1,4.4,0,6.4c-0.4,0.9-1.2,1.7-2.1,2.1c-0.9,0.6-2,0.8-3,0.8
				c-1.3,0.1-2.6-0.4-3.5-1.4v5.5h-3.4v-16.1h3.3v1.3c0.9-1.1,2.3-1.7,3.7-1.5C321.4,407.4,322.4,407.6,323.4,408.1z M322,415.8
				c1.1-1.4,1.1-3.4,0-4.7c-1.2-1.2-3.1-1.2-4.3,0c-1.1,1.4-1.1,3.4,0,4.7C318.8,417.1,320.8,417.1,322,415.8z"/>
				<path class="st6" d="M330.9,418.8c-1-0.4-1.8-1.2-2.3-2.2c-1.1-2-1.1-4.3,0-6.3c0.6-0.9,1.3-1.7,2.3-2.2c2.1-1,4.6-1,6.7,0
				c1,0.6,1.8,1.2,2.3,2.2c1.1,2,1.1,4.3,0,6.3c-0.6,0.9-1.3,1.7-2.3,2.2C335.4,419.8,333,419.8,330.9,418.8z M336.4,415.8
				c1.1-1.4,1.1-3.4,0-4.7c-0.6-0.6-1.3-0.9-2.2-0.9c-0.8,0-1.7,0.3-2.2,0.9c-1.1,1.4-1.1,3.4,0,4.7c0.6,0.6,1.3,0.9,2.2,0.9
				C335,416.7,335.9,416.5,336.4,415.8L336.4,415.8z M335.1,402.8h3.7l-4,3.2h-2.6L335.1,402.8z"/>
				<path class="st6" d="M394.4,363.2h3.5v12.6h7.7v2.9h-11.4L394.4,363.2z"/>
				<path class="st6" d="M409.3,362.7c0.4,0.4,0.7,1,0.6,1.5c0,0.3,0,0.6-0.1,0.9c-0.1,0.4-0.3,0.9-0.4,1.3l-1.3,3.2h-2.2l1-3.5
				c-0.3-0.1-0.7-0.4-0.9-0.8c-0.2-0.3-0.3-0.8-0.3-1.2c0-0.6,0.2-1.1,0.6-1.5s1-0.6,1.5-0.6C408.4,362.1,408.8,362.3,409.3,362.7z"/>
				<path class="st6" d="M421.8,375.3h-7.2l-1.3,3.3h-3.6l6.8-15.4h3.5l6.9,15.4H423L421.8,375.3z M420.7,372.7l-2.4-6l-2.4,6H420.7z
				"/>
				<path class="st6" d="M428.3,362.3h3.4v16.3h-3.4V362.3z"/>
				<path class="st6" d="M437.3,378.1c-1-0.4-1.8-1.2-2.3-2.2c-1.1-2-1.1-4.4,0-6.3c0.6-0.9,1.4-1.7,2.3-2.2c1.1-0.6,2.2-0.8,3.4-0.8
				c1.1,0,2.3,0.2,3.3,0.8c0.9,0.6,1.7,1.3,2.1,2.2l-2.6,1.4c-0.6-1-1.5-1.7-2.6-1.7c-0.9,0-1.7,0.3-2.2,0.9c-1.2,1.4-1.2,3.4,0,4.8
				c0.6,0.6,1.4,0.9,2.2,0.9c1.1,0,2.2-0.7,2.6-1.7l2.6,1.4c-0.4,0.9-1.1,1.8-2.1,2.2c-1,0.6-2.1,0.8-3.3,0.8
				C439.5,378.8,438.4,378.6,437.3,378.1z"/>
				<path class="st6" d="M450,378.1c-1-0.4-1.8-1.2-2.3-2.2c-1.1-2-1.1-4.3,0-6.3c0.6-0.9,1.3-1.7,2.3-2.2c1-0.6,2.2-0.8,3.3-0.8
				c1.2,0,2.3,0.2,3.3,0.8c1,0.6,1.8,1.2,2.3,2.2c1.1,2,1.1,4.3,0,6.3c-0.6,0.9-1.3,1.7-2.3,2.2s-2.2,0.8-3.3,0.8
				C452.2,378.8,451.1,378.6,450,378.1z M455.7,375.1c1.1-1.4,1.1-3.4,0-4.7c-0.6-0.6-1.3-0.9-2.2-0.9c-0.8,0-1.7,0.3-2.2,0.9
				c-1.1,1.4-1.1,3.4,0,4.7c0.6,0.6,1.3,0.9,2.2,0.9C454.2,376,455.1,375.7,455.7,375.1L455.7,375.1z"/>
				<path class="st6" d="M462.4,364.6c-0.8-0.7-0.8-1.9-0.1-2.6l0.1-0.1c0.4-0.3,1-0.6,1.5-0.6c0.6,0,1.1,0.1,1.5,0.6
				c0.4,0.3,0.6,0.8,0.6,1.3c0,0.6-0.2,1.1-0.6,1.4s-1,0.6-1.5,0.6C463.4,365.2,462.8,364.9,462.4,364.6z M462.3,366.8h3.4v11.9
				h-3.4V366.8z"/>
				<path class="st6" d="M477.9,367.9c1.1,1,1.5,2.5,1.4,4v6.7h-3.2v-1.4c-0.8,1.2-2.2,1.9-3.6,1.7c-0.8,0-1.7-0.1-2.3-0.4
				c-0.7-0.2-1.1-0.7-1.5-1.3c-0.3-0.6-0.6-1.2-0.6-1.9c0-1,0.4-2,1.2-2.6c1.1-0.8,2.5-1.1,3.9-1h2.8c0-0.7-0.2-1.3-0.7-1.8
				c-0.6-0.4-1.3-0.7-2.1-0.7c-0.7,0-1.2,0.1-1.9,0.3c-0.6,0.2-1.1,0.4-1.5,0.8l-1.2-2.4c0.7-0.4,1.5-0.9,2.3-1.1
				c0.9-0.2,1.9-0.3,2.8-0.3C475.2,366.5,476.7,366.9,477.9,367.9z M469.3,362.1h3.7l3,3.2h-2.6L469.3,362.1z M474.9,376.1
				c0.4-0.2,0.8-0.7,1-1.2v-1.2h-2.3c-1.4,0-2.1,0.4-2.1,1.4c0,0.4,0.2,0.8,0.6,1.1c0.4,0.3,0.9,0.4,1.4,0.4
				C473.9,376.5,474.5,376.4,474.9,376.1L474.9,376.1z"/>
				<path class="st6" d="M482.5,469h3.5v12.6h7.7v2.9h-11.4L482.5,469z"/>
				<path class="st6" d="M497.4,468.5c0.4,0.4,0.7,1,0.6,1.5c0,0.3,0,0.6-0.1,0.9c-0.1,0.4-0.3,0.9-0.4,1.3l-1.3,3.2H494l1-3.5
				c-0.3-0.1-0.7-0.4-0.9-0.8c-0.2-0.3-0.3-0.8-0.3-1.2c0-0.6,0.2-1.1,0.6-1.5s1-0.6,1.5-0.6C496.4,467.9,497,468.1,497.4,468.5z"/>
				<path class="st6" d="M510,481.1h-7.2l-1.3,3.3h-3.6l6.8-15.4h3.5l6.9,15.4h-3.9L510,481.1z M508.9,478.4l-2.4-6l-2.4,6H508.9z"/>
				<path class="st6" d="M516.5,468.1h3.4v16.3h-3.4V468.1z"/>
				<path class="st6" d="M532.1,473.7c1.1,1,1.5,2.5,1.4,4v6.7h-3.2V483c-0.8,1.2-2.2,1.9-3.6,1.7c-0.8,0-1.7-0.1-2.4-0.4
				c-0.7-0.2-1.1-0.7-1.5-1.3c-0.3-0.6-0.6-1.2-0.6-1.9c0-1,0.4-2,1.2-2.6c1.1-0.8,2.5-1.1,3.9-1h2.8c0-0.7-0.2-1.3-0.7-1.8
				c-0.6-0.4-1.3-0.7-2.1-0.7c-0.7,0-1.2,0.1-1.9,0.3c-0.6,0.2-1.1,0.4-1.5,0.8l-1.2-2.4c0.7-0.4,1.5-0.9,2.3-1.1
				c0.9-0.2,1.9-0.3,2.8-0.3C529.4,472.3,530.9,472.7,532.1,473.7z M529.2,481.9c0.4-0.2,0.8-0.7,1-1.2v-1.2h-2.3
				c-1.4,0-2.1,0.4-2.1,1.4c0,0.4,0.2,0.8,0.6,1.1c0.4,0.3,0.9,0.4,1.4,0.4C528.2,482.3,528.7,482.2,529.2,481.9L529.2,481.9z"/>
				<path class="st6" d="M539.2,483.8c-1-0.4-1.8-1.2-2.3-2.2c-1.1-2-1.1-4.4,0-6.3c0.6-0.9,1.4-1.7,2.3-2.2c1.1-0.6,2.2-0.8,3.4-0.8
				c1.1,0,2.3,0.2,3.3,0.8c0.9,0.6,1.7,1.3,2,2.2l-2.6,1.4c-0.6-1-1.5-1.7-2.6-1.7c-0.9,0-1.7,0.3-2.2,0.9c-1.2,1.4-1.2,3.4,0,4.8
				c0.6,0.6,1.4,0.9,2.2,0.9c1.1,0,2.2-0.7,2.6-1.7l2.6,1.4c-0.4,0.9-1.1,1.8-2,2.2c-1,0.6-2.1,0.8-3.3,0.8
				C541.4,484.6,540.2,484.4,539.2,483.8z"/>
				<path class="st6" d="M558.8,473.7c1.1,1,1.5,2.5,1.4,4v6.7H557V483c-0.8,1.2-2.2,1.9-3.6,1.7c-0.8,0-1.7-0.1-2.3-0.4
				c-0.7-0.2-1.1-0.7-1.5-1.3c-0.3-0.6-0.6-1.2-0.6-1.9c0-1,0.4-2,1.2-2.6c1.1-0.8,2.5-1.1,3.9-1h2.8c0-0.7-0.2-1.3-0.7-1.8
				c-0.6-0.4-1.3-0.7-2.1-0.7c-0.7,0-1.2,0.1-1.9,0.3c-0.6,0.2-1.1,0.4-1.5,0.8l-1.2-2.4c0.7-0.4,1.5-0.9,2.3-1.1
				c0.9-0.2,1.9-0.3,2.8-0.3C556.2,472.3,557.7,472.7,558.8,473.7z M555.9,481.9c0.4-0.2,0.8-0.7,1-1.2v-1.2h-2.3
				c-1.4,0-2.1,0.4-2.1,1.4c0,0.4,0.2,0.8,0.6,1.1c0.4,0.3,0.9,0.4,1.4,0.4C554.9,482.3,555.5,482.2,555.9,481.9L555.9,481.9z"/>
				<path class="st6" d="M574.2,473.7c1,1.1,1.4,2.5,1.3,4v6.8h-3.4v-6.3c0.1-0.8-0.1-1.5-0.7-2.1c-0.4-0.4-1.1-0.8-1.8-0.7
				c-0.8,0-1.5,0.2-2.1,0.8c-0.6,0.7-0.9,1.5-0.8,2.4v5.8h-3.4v-11.9h3.3v1.4c0.4-0.6,1.1-0.9,1.7-1.1c0.7-0.3,1.4-0.4,2.2-0.4
				C571.9,472.3,573.2,472.8,574.2,473.7z"/>
				<path class="st6" d="M586.3,483.8c-0.3,0.2-0.8,0.4-1.2,0.6c-0.6,0.1-1,0.2-1.5,0.2c-1.2,0.1-2.3-0.3-3.3-1.1
				c-0.8-0.9-1.2-2-1.1-3.2v-4.8h-1.9v-2.6h1.9V470h3.4v2.9h3v2.6h-3v4.8c0,0.4,0.1,0.9,0.3,1.1c0.3,0.3,0.7,0.4,1.1,0.4
				c0.6,0,1-0.1,1.4-0.4L586.3,483.8z"/>
				<path class="st6" d="M591,467.9h3.7l-4,3.2h-2.6L591,467.9z M588.2,472.6h3.4v11.9h-3.4V472.6z"/>
				<path class="st6" d="M671.9,368.7v-9.3l-4.5,7.6h-1.7l-4.5-7.4v9h-3.3v-15.4h3l5.7,9.6l5.7-9.6h3v15.4L671.9,368.7L671.9,368.7z"/>
				<path class="st6" d="M687.6,358c1.1,1,1.5,2.5,1.4,4v6.7h-3.2v-1.4c-0.8,1.2-2.2,1.9-3.6,1.7c-0.8,0-1.7-0.1-2.3-0.4
				c-0.7-0.2-1.1-0.7-1.5-1.3c-0.3-0.6-0.6-1.2-0.6-1.9c0-1,0.4-2,1.2-2.6c1.1-0.8,2.5-1.1,3.9-1h2.8c0-0.7-0.2-1.3-0.7-1.8
				c-0.6-0.4-1.3-0.7-2.1-0.7c-0.7,0-1.2,0.1-1.9,0.3c-0.6,0.2-1.1,0.4-1.5,0.8l-1.2-2.4c0.7-0.4,1.5-0.9,2.3-1.1
				c0.9-0.2,1.9-0.3,2.8-0.3C684.9,356.6,686.4,357,687.6,358z M684.6,366.1c0.4-0.2,0.8-0.7,1-1.2v-1.2h-2.3
				c-1.4,0-2.1,0.4-2.1,1.4c0,0.4,0.2,0.8,0.6,1.1c0.4,0.3,0.9,0.4,1.4,0.4C683.7,366.6,684.2,366.5,684.6,366.1L684.6,366.1z"/>
				<path class="st6" d="M697.1,357.1c0.8-0.3,1.5-0.4,2.4-0.4v3.2c-0.3,0-0.7,0-0.8,0c-0.9,0-1.7,0.2-2.3,0.9
				c-0.6,0.7-0.9,1.5-0.9,2.5v5.6h-3.4V357h3.3v1.5C695.9,357.9,696.4,357.3,697.1,357.1z"/>
				<path class="st6" d="M701.7,354.7c-0.8-0.7-0.8-1.9-0.1-2.6l0.1-0.1c0.4-0.3,1-0.6,1.5-0.6c0.6,0,1.1,0.1,1.5,0.6
				c0.4,0.3,0.6,0.8,0.6,1.3c0,0.6-0.2,1.1-0.6,1.4c-0.4,0.3-1,0.6-1.5,0.6C702.7,355.2,702.2,355,701.7,354.7z M701.6,356.9h3.4
				v11.9h-3.4V356.9z"/>
				<path class="st6" d="M719,358c1,1.1,1.4,2.5,1.3,4v6.8h-3.4v-6.3c0.1-0.8-0.1-1.5-0.7-2.1c-0.4-0.4-1.1-0.8-1.8-0.7
				c-0.8,0-1.5,0.2-2.1,0.8c-0.6,0.7-0.9,1.5-0.8,2.4v5.8h-3.4v-11.9h3.3v1.4c0.4-0.6,1.1-0.9,1.7-1.1c0.7-0.3,1.4-0.4,2.2-0.4
				C716.7,356.6,718,357.1,719,358z"/>
				<path class="st6" d="M732.5,358c1.1,1,1.5,2.5,1.4,4v6.7h-3.2v-1.4c-0.8,1.2-2.2,1.9-3.6,1.7c-0.8,0-1.7-0.1-2.3-0.4
				c-0.7-0.2-1.1-0.7-1.5-1.3c-0.3-0.6-0.6-1.2-0.6-1.9c0-1,0.4-2,1.2-2.6c1.1-0.8,2.5-1.1,3.9-1h2.8c0-0.7-0.2-1.3-0.7-1.8
				c-0.6-0.4-1.3-0.7-2.1-0.7c-0.7,0-1.2,0.1-1.9,0.3c-0.6,0.2-1.1,0.4-1.5,0.8l-1.2-2.4c0.7-0.4,1.5-0.9,2.3-1.1
				c0.9-0.2,1.9-0.3,2.8-0.3C729.7,356.6,731.3,357,732.5,358z M729.5,366.1c0.4-0.2,0.8-0.7,1-1.2v-1.2h-2.3
				c-1.4,0-2.1,0.4-2.1,1.4c0,0.4,0.2,0.8,0.6,1.1c0.4,0.3,0.9,0.4,1.4,0.4C728.5,366.6,729.1,366.5,729.5,366.1L729.5,366.1z"/>
				<path class="st6" d="M679.1,388.5c0.6,0.7,0.8,1.5,0.8,2.4c0,1.2-0.6,2.4-1.5,3.1c-1.4,0.8-3,1.2-4.6,1.1h-7.9v-15.4h7.5
				c1.5-0.1,3.1,0.3,4.3,1.1c1,0.7,1.5,1.8,1.5,3c0,1.4-0.8,2.8-2.1,3.4C677.9,387.4,678.6,387.9,679.1,388.5z M669.3,382.5v3.6h3.5
				c0.7,0,1.4-0.1,2-0.4c0.4-0.3,0.7-0.8,0.7-1.3s-0.2-1.1-0.7-1.3c-0.7-0.3-1.3-0.4-2-0.4L669.3,382.5z M675.6,392
				c0.4-0.3,0.8-0.9,0.8-1.4c0-1.3-1-1.9-2.9-1.9h-4.2v3.9h4.2C674.2,392.5,674.9,392.4,675.6,392L675.6,392z"/>
				<path class="st6" d="M691.4,384.4c1.1,1,1.5,2.5,1.4,4v6.7h-3.2v-1.4c-0.8,1.2-2.2,1.9-3.6,1.7c-0.8,0-1.7-0.1-2.3-0.4
				c-0.7-0.2-1.1-0.7-1.5-1.3c-0.3-0.6-0.6-1.2-0.6-1.9c0-1,0.4-2,1.2-2.6c1.1-0.8,2.5-1.1,3.9-1h2.8c0-0.7-0.2-1.3-0.7-1.8
				c-0.6-0.4-1.3-0.7-2.1-0.7c-0.7,0-1.2,0.1-1.9,0.3c-0.6,0.2-1.1,0.4-1.5,0.8l-1.2-2.4c0.7-0.4,1.5-0.9,2.3-1.1
				c0.9-0.2,1.9-0.3,2.8-0.3C688.7,383,690.2,383.5,691.4,384.4z M688.4,392.6c0.4-0.2,0.8-0.7,1-1.2v-1.2h-2.3
				c-1.4,0-2.1,0.4-2.1,1.4c0,0.4,0.2,0.8,0.6,1.1c0.4,0.3,0.9,0.4,1.4,0.4C687.4,393,687.9,392.9,688.4,392.6L688.4,392.6z"/>
				<path class="st6" d="M696.1,381.1c-0.8-0.7-0.8-1.9-0.1-2.6l0.1-0.1c0.4-0.3,1-0.6,1.5-0.6s1.1,0.1,1.5,0.6
				c0.4,0.3,0.6,0.8,0.6,1.3c0,0.6-0.2,1.1-0.6,1.4c-0.4,0.3-1,0.6-1.5,0.6C697.1,381.7,696.5,381.5,696.1,381.1z M696,383.3h3.4
				v11.9H696V383.3z"/>
				<path class="st6" d="M710.1,395.1l-2.6-3.6l-2.6,3.6h-3.7l4.5-6l-4.4-5.8h3.9l2.5,3.4l2.5-3.4h3.6l-4.4,5.8l4.6,6.1h-3.9
				L710.1,395.1L710.1,395.1z"/>
				<path class="st6" d="M724.5,384.4c1.1,1,1.5,2.5,1.4,4v6.7h-3.2v-1.4c-0.8,1.2-2.2,1.9-3.6,1.7c-0.8,0-1.7-0.1-2.3-0.4
				c-0.7-0.2-1.1-0.7-1.5-1.3c-0.3-0.6-0.6-1.2-0.6-1.9c0-1,0.4-2,1.2-2.6c1.1-0.8,2.5-1.1,3.9-1h2.8c0-0.7-0.2-1.3-0.7-1.8
				c-0.6-0.4-1.3-0.7-2.1-0.7c-0.7,0-1.2,0.1-1.9,0.3c-0.6,0.2-1.1,0.4-1.5,0.8l-1.2-2.4c0.7-0.4,1.5-0.9,2.3-1.1
				c0.9-0.2,1.9-0.3,2.8-0.3C721.8,383,723.3,383.5,724.5,384.4z M721.6,392.6c0.4-0.2,0.8-0.7,1-1.2v-1.2h-2.3
				c-1.4,0-2.1,0.4-2.1,1.4c0,0.4,0.2,0.8,0.6,1.1c0.4,0.3,0.9,0.4,1.4,0.4C720.6,393,721.1,392.9,721.6,392.6L721.6,392.6z"/>
				<path class="st6" d="M790.9,260.7v-9.3l-4.5,7.6h-1.7l-4.5-7.4v9h-3.3v-15.4h3l5.7,9.6l5.7-9.6h3v15.4h-3.4V260.7z"/>
				<path class="st6" d="M806.6,250c1.1,1,1.5,2.5,1.4,4v6.7h-3.2v-1.4c-0.8,1.2-2.2,1.9-3.6,1.7c-0.8,0-1.7-0.1-2.3-0.4
				c-0.7-0.2-1.1-0.7-1.5-1.3c-0.3-0.6-0.6-1.2-0.6-1.9c0-1,0.4-2,1.2-2.6c1.1-0.8,2.5-1.1,3.9-1h2.8c0-0.7-0.2-1.3-0.7-1.8
				c-0.6-0.4-1.3-0.7-2.1-0.7c-0.7,0-1.2,0.1-1.9,0.3c-0.6,0.2-1.1,0.4-1.5,0.8l-1.2-2.4c0.7-0.4,1.5-0.9,2.3-1.1
				c0.9-0.2,1.9-0.3,2.8-0.3C803.9,248.6,805.4,249,806.6,250z M803.7,258.2c0.4-0.2,0.8-0.7,1-1.2v-1.2h-2.3
				c-1.4,0-2.1,0.4-2.1,1.4c0,0.4,0.2,0.8,0.6,1.1c0.4,0.3,0.9,0.4,1.4,0.4C802.7,258.6,803.2,258.5,803.7,258.2L803.7,258.2z"/>
				<path class="st6" d="M816.1,249.1c0.8-0.3,1.5-0.4,2.4-0.4v3.2c-0.3,0-0.7,0-0.8,0c-0.9,0-1.7,0.2-2.3,0.9s-0.9,1.5-0.9,2.5v5.6
				h-3.4V249h3.3v1.5C814.9,249.9,815.4,249.3,816.1,249.1z"/>
				<path class="st6" d="M820.7,246.7c-0.8-0.7-0.8-1.9-0.1-2.6l0.1-0.1c0.4-0.3,1-0.6,1.5-0.6s1.1,0.1,1.5,0.6
				c0.4,0.3,0.6,0.8,0.6,1.3c0,0.6-0.2,1.1-0.6,1.4c-0.4,0.3-1,0.6-1.5,0.6S821.2,247,820.7,246.7z M820.6,248.9h3.4v11.9h-3.4
				V248.9z"/>
				<path class="st6" d="M838,250c1,1.1,1.4,2.5,1.3,4v6.8h-3.4v-6.3c0.1-0.8-0.1-1.5-0.7-2.1c-0.4-0.4-1.1-0.8-1.8-0.7
				c-0.8,0-1.5,0.2-2.1,0.8c-0.6,0.7-0.9,1.5-0.8,2.4v5.8h-3.4v-11.9h3.3v1.4c0.4-0.6,1.1-0.9,1.7-1.1c0.7-0.3,1.4-0.4,2.2-0.4
				C835.7,248.6,837,249.1,838,250z"/>
				<path class="st6" d="M851.5,250c1.1,1,1.5,2.5,1.4,4v6.7h-3.2v-1.4c-0.8,1.2-2.2,1.9-3.6,1.7c-0.8,0-1.7-0.1-2.3-0.4
				c-0.7-0.2-1.1-0.7-1.5-1.3c-0.3-0.6-0.6-1.2-0.6-1.9c0-1,0.4-2,1.2-2.6c1.1-0.8,2.5-1.1,3.9-1h2.8c0-0.7-0.2-1.3-0.7-1.8
				c-0.6-0.4-1.3-0.7-2.1-0.7c-0.7,0-1.2,0.1-1.9,0.3c-0.6,0.2-1.1,0.4-1.5,0.8l-1.2-2.4c0.7-0.4,1.5-0.9,2.3-1.1
				c0.9-0.2,1.9-0.3,2.8-0.3C848.7,248.6,850.3,249,851.5,250z M848.5,258.2c0.4-0.2,0.8-0.7,1-1.2v-1.2h-2.3
				c-1.4,0-2.1,0.4-2.1,1.4c0,0.4,0.2,0.8,0.6,1.1c0.4,0.3,0.9,0.4,1.4,0.4C847.5,258.6,848.1,258.5,848.5,258.2L848.5,258.2z"/>
				<path class="st6" d="M802.9,283.8h-7.2l-1.3,3.3h-3.6l6.8-15.4h3.5l6.9,15.4h-3.7L802.9,283.8z M801.8,281.2l-2.4-6l-2.4,6H801.8
				z"/>
				<path class="st6" d="M809.4,270.8h3.4v16.3h-3.4V270.8z"/>
				<path class="st6" d="M824.6,286.6c-0.3,0.2-0.8,0.4-1.2,0.6c-0.6,0.1-1,0.2-1.5,0.2c-1.2,0.1-2.3-0.3-3.3-1.1
				c-0.8-0.9-1.2-2-1.1-3.2v-4.8h-2v-2.6h1.9v-2.9h3.4v2.9h3v2.6h-3v4.8c0,0.4,0.1,0.9,0.3,1.1c0.3,0.3,0.7,0.4,1.1,0.4
				c0.6,0,1-0.1,1.4-0.4L824.6,286.6z"/>
				<path class="st6" d="M835.5,276.4c1.1,1,1.5,2.5,1.4,4v6.7h-3.2v-1.4c-0.8,1.2-2.2,1.9-3.6,1.7c-0.8,0-1.7-0.1-2.3-0.4
				c-0.7-0.2-1.1-0.7-1.5-1.3c-0.3-0.6-0.6-1.2-0.6-1.9c0-1,0.4-2,1.2-2.6c1.1-0.8,2.5-1.1,3.9-1h2.8c0-0.7-0.2-1.3-0.7-1.8
				c-0.6-0.4-1.3-0.7-2.1-0.7c-0.7,0-1.2,0.1-1.9,0.3c-0.6,0.2-1.1,0.4-1.5,0.8l-1.2-2.4c0.7-0.4,1.5-0.9,2.3-1.1
				c0.9-0.2,1.9-0.3,2.8-0.3C832.7,275,834.3,275.5,835.5,276.4z M832.5,284.6c0.4-0.2,0.8-0.7,1-1.2v-1.2h-2.3
				c-1.4,0-2.1,0.4-2.1,1.4c0,0.4,0.2,0.8,0.6,1.1c0.4,0.3,0.9,0.4,1.4,0.4C831.5,285,832.1,284.9,832.5,284.6L832.5,284.6z"/>
				<path class="st6" d="M545.8,270.4c-1.2-0.7-2.3-1.7-3-2.9c-1.4-2.5-1.4-5.6,0-8.3c0.8-1.2,1.8-2.2,3-2.9c2.4-1.2,5.4-1.3,7.9-0.3
				c1.1,0.4,2,1.1,2.8,2l-2.3,2.1c-1-1.2-2.4-1.9-3.9-1.8c-0.9,0-1.8,0.2-2.5,0.7c-0.8,0.4-1.3,1-1.8,1.8c-0.9,1.7-0.9,3.5,0,5.1
				c0.4,0.8,1,1.3,1.8,1.8c0.8,0.4,1.7,0.7,2.5,0.7c1.5,0,3-0.7,3.9-1.9l2.3,2.1c-0.8,0.9-1.7,1.5-2.8,2.1c-1.1,0.4-2.4,0.8-3.6,0.7
				C548.6,271.5,547.1,271.2,545.8,270.4z"/>
				<path class="st6" d="M560.5,270.6c-1-0.4-1.8-1.2-2.3-2.2c-1.1-2-1.1-4.3,0-6.3c0.6-0.9,1.3-1.7,2.3-2.2c2.1-1,4.6-1,6.7,0
				c1,0.6,1.8,1.2,2.3,2.2c1.1,2,1.1,4.3,0,6.3c-0.6,0.9-1.3,1.7-2.3,2.2C565,271.6,562.5,271.6,560.5,270.6z M566,267.6
				c1.1-1.4,1.1-3.4,0-4.7c-0.6-0.6-1.3-0.9-2.2-0.9c-0.8,0-1.7,0.3-2.2,0.9c-1.1,1.4-1.1,3.4,0,4.7c0.6,0.6,1.3,0.9,2.2,0.9
				C564.6,268.5,565.4,268.2,566,267.6L566,267.6z"/>
				<path class="st6" d="M591.3,260.5c1,1.1,1.4,2.5,1.3,4v6.8h-3.4V265c0.1-0.8-0.1-1.5-0.6-2.1c-0.4-0.4-1-0.8-1.7-0.7
				c-0.8,0-1.4,0.2-1.9,0.8c-0.6,0.7-0.8,1.5-0.7,2.3v6h-3.4V265c0-1.9-0.8-2.8-2.2-2.8c-0.8,0-1.4,0.2-1.9,0.8
				c-0.6,0.7-0.8,1.5-0.7,2.3v6h-3.4v-11.9h3.3v1.3c0.4-0.6,1-0.9,1.7-1.1s1.4-0.4,2.1-0.4c0.8,0,1.5,0.1,2.3,0.6
				c0.7,0.3,1.2,0.8,1.7,1.4c0.4-0.7,1.1-1.1,1.9-1.4c0.8-0.3,1.5-0.6,2.4-0.6C589.1,259,590.3,259.6,591.3,260.5z"/>
				<path class="st6" d="M603.3,270.6c-0.3,0.2-0.8,0.4-1.2,0.6c-0.6,0.1-1,0.2-1.5,0.2c-1.2,0.1-2.3-0.3-3.3-1.1
				c-0.8-0.9-1.2-2-1.1-3.2v-4.8h-1.9v-2.6h1.9v-2.9h3.4v2.9h3v2.6h-3v4.8c0,0.4,0.1,0.9,0.3,1.1c0.3,0.3,0.7,0.4,1.1,0.4
				c0.6,0,1-0.1,1.4-0.4L603.3,270.6z"/>
				<path class="st6" d="M614.3,260.5c1.1,1,1.5,2.5,1.4,4v6.7h-3.2v-1.4c-0.8,1.2-2.2,1.9-3.6,1.7c-0.8,0-1.7-0.1-2.3-0.4
				c-0.7-0.2-1.1-0.7-1.5-1.3c-0.3-0.6-0.6-1.2-0.6-1.9c0-1,0.4-2,1.2-2.6c1.1-0.8,2.5-1.1,3.9-1h2.8c0-0.7-0.2-1.3-0.7-1.8
				c-0.6-0.4-1.3-0.7-2.1-0.7c-0.7,0-1.2,0.1-1.9,0.3c-0.6,0.2-1.1,0.4-1.5,0.8l-1.2-2.4c0.7-0.4,1.5-0.9,2.3-1.1
				c0.9-0.2,1.9-0.3,2.8-0.3C611.6,259,613.1,259.5,614.3,260.5z M611.4,268.6c0.4-0.2,0.8-0.7,1-1.2v-1.2H610
				c-1.4,0-2.1,0.4-2.1,1.4c0,0.4,0.2,0.8,0.6,1.1c0.4,0.3,0.9,0.4,1.4,0.4C610.4,269.1,610.9,269,611.4,268.6L611.4,268.6z"/>
				<path class="st6" d="M626.6,270.6c-0.3,0.2-0.8,0.4-1.2,0.6c-0.6,0.1-1,0.2-1.5,0.2c-1.2,0.1-2.3-0.3-3.3-1.1
				c-0.8-0.9-1.2-2-1.1-3.2v-4.8h-1.9v-2.6h1.9v-2.9h3.4v2.9h3v2.6h-3v4.8c0,0.4,0.1,0.9,0.3,1.1c0.3,0.3,0.7,0.4,1.1,0.4
				c0.6,0,1-0.1,1.4-0.4L626.6,270.6z"/>
				<text transform="matrix(1 0 0 1 473.5669 505.1655)" class="st7 st8 st9">San Juan</text>
				<text transform="matrix(1 0 0 1 473.5669 524.9655)" class="st7 st8 st9">de Alicante</text>
				<text transform="matrix(1 0 0 1 640.2422 427.8213)" class="st7 st8 st9">Villajoyosa</text>
				<text transform="matrix(1 0 0 1 853.0557 281.5806)" class="st7 st8 st9">Jávea</text>
				<text transform="matrix(1 0 0 1 813.0996 332.9531)" class="st7 st8 st9">Calpe</text>
				<text transform="matrix(1 0 0 1 431.0181 574.9678)" class="st7 st8 st9">Alicante</text>
				<circle id="Texto_30_" class="st6" cx="512.2" cy="571" r="3.7"/>
				<text transform="matrix(1 0 0 1 308.0254 847.9385)" class="st7 st8 st9">Torrevieja</text>
				<text transform="matrix(1 0 0 1 258.7539 775.3916)" class="st7 st8 st9">Orihuela</text>
				<text transform="matrix(1 0 0 1 376.229 685.9414)" class="st7 st8 st9">Santa Pola</text>
				<text transform="matrix(1 0 0 1 375.0962 649.3564)" class="st7 st8 st9">Elche</text>
				<text transform="matrix(1 0 0 1 316.8809 516.8438)" class="st7 st8 st9">Petrer</text>
				<text transform="matrix(1 0 0 1 267.3394 361.4551)" class="st7 st8 st9">Villena</text>
				<text transform="matrix(1 0 0 1 434.1104 395.5044)" class="st7 st8 st9">Ibi</text>
				<text transform="matrix(1 0 0 1 444.8525 363.6587)" class="st7 st8 st9">Alcoi</text>
				<text transform="matrix(1 0 0 1 547.2568 255.856)" class="st7 st8 st9">Beniarrès</text>
				<text transform="matrix(1 0 0 1 314.0903 545.0986)" class="st7 st8 st9">Elda</text>
				<circle id="Texto_29_" class="st6" cx="401.1" cy="843.1" r="3.7"/>
				<circle id="Texto_28_" class="st6" cx="475.8" cy="682.3" r="3.7"/>
				<circle id="Texto_27_" class="st6" cx="366.8" cy="643.3" r="3.7"/>
				<circle id="Texto_26_" class="st6" cx="377.7" cy="511.8" r="3.7"/>
				<circle id="Texto_25_" class="st6" cx="334.8" cy="356.9" r="3.7"/>
				<circle id="Texto_24_" class="st6" cx="464.8" cy="390.7" r="3.7"/>
				<circle id="Texto_23_" class="st6" cx="497.2" cy="359.7" r="3.7"/>
				<circle id="Texto_22_" class="st6" cx="586.8" cy="234.8" r="3.7"/>
				<circle id="Texto_21_" class="st6" cx="358.7" cy="539.7" r="3.7"/>
				<circle id="Texto_20_" class="st6" cx="251.6" cy="770.8" r="3.7"/>
				<circle id="Texto_19_" class="st6" cx="547.1" cy="535.9" r="3.7"/>
				<circle id="Texto_18_" class="st6" cx="752.8" cy="409.2" r="3.7"/>
				<circle id="Texto_17_" class="st6" cx="909.7" cy="277.4" r="3.7"/>
				<circle id="Texto_16_" class="st6" cx="836.7" cy="344.8" r="3.7"/>
			</g>
		</g>
	</g>
	<circle id="Texto_13_" class="st4" cx="684" cy="439.7" r="3.7"/>
</svg>