<?xml version="1.0" encoding="utf-8"?>
<!-- Generator: Adobe Illustrator 22.0.1, SVG Export Plug-In . SVG Version: 6.00 Build 0)  -->
<svg version="1.1"
	 xmlns="http://www.w3.org/2000/svg" xmlns:xlink="http://www.w3.org/1999/xlink" x="0px" y="0px" viewBox="0 0 1080 1080"
	 style="enable-background:new 0 0 1080 1080;" xml:space="preserve">
<style type="text/css">
	.st1{fill:none;stroke:#FFFFFF;stroke-width:8;stroke-miterlimit:10;}
</style>
	<g>
		<g id="2_El_Campello" class="zone">
			<path class="st0" d="M782.2,578.4c12.6-6.3,39.8-23.1,59-41.3c19-18,45.1-35.2,49.8-37.6c2.7-2.3,9.7-19.4,8-30.9
				c-1.8-11.8-12.2-24.8-16.1-27.2c-2.4-1.4-18.3-4.4-31.5-6.5l-0.4-0.1c-0.8-0.2-5.2-1.5-16.2-8.5c-0.7-0.4-1.3-0.9-1.9-1.4
				l-65.2,62.9c-0.5,0.5-5.3,5-14.3,6.1c-10.8,1.4-12.2-5-13.1-8.8c-0.1-0.4-0.2-0.8-0.3-1.2c-0.7-2.9-0.6-4.4-0.4-6.3
				c0.1-0.9,0.2-1.9,0.2-3.6c0-3.3-1-6.7-2.3-7.8c-0.3-0.2-0.5-0.3-1.1-0.2c-0.8,0.1-1.7,0.3-2.7,0.4c-5.8,0.8-12.9,1.7-18.9,9.2
				c-7.4,9.2-12.3,17.9-13.2,23.2l-0.2,1.3c-1,6.3-2.7,16.8-12.5,23.4c-8.5,5.7-48.1,36.8-50.6,38.7c-0.6,0.5-2.8,2.5-5.8,5
				c4.7-0.2,10-0.7,14.2-1.9c7.3-2,14.7-3.3,19.3,0.2c2.5,1.9,3.7,4.8,3.7,8.7c0,7.4,1.9,19.1,2.9,23c1.1,4.3,2.1,23.5,0.1,35.2
				c6.3,5.8,30.8,27.1,49,27.8c0-0.2,0-0.4,0-0.6c0-1,0-2.2,0-3.4c0-11.7,6.9-31.5,20-46.6C756.5,592.6,769.9,584.6,782.2,578.4z"/>
		</g>
		<g id="2_San_Juan" class="zone">
			<path class="st0" d="M671.6,641.7c0,0.3-0.1,0.7-0.1,1c-1.5,11.8-3.2,25.1-8.2,32.5c-1.3,2-3,4.6-4.7,7.4
				c-8,12.6-14.4,22.5-19.4,25.8c-0.9,0.6-2,1.4-3.3,2.3c-6.7,4.7-13.6,9.3-19.8,12.3c0.8,8,3.2,30.6,4.8,39.4
				c1.5,8.3,7.7,21.7,10,26.6c0.3,0.1,0.6,0.1,0.9,0.2c15,3.5,16.9,9.1,18.1,17.3c0.3,2.2,12.4,6.6,28,6.6c4.3,0,8.3,0.4,11.9,0.7
				c0.5,0,0.9,0.1,1.4,0.1c-1.3-1.3-2.3-3.1-2.3-5.8c0-2.2-0.2-5.5-0.5-8.9c-0.3-3.9-0.5-7.9-0.5-11.1c0-3.8,1.8-63.9,6.2-79.1
				c1.8-6.1,2.9-13,4-19c1.6-9.2,2.6-14.5,4.7-17.3c2.4-3.2,5.1-5.4,8.2-6.6C695.6,661.1,679.8,648.8,671.6,641.7z"/>
		</g>
		<g id="2_Mutxamell" class="zone">
			<path class="st0" d="M613.3,578.5c-4.1,1.4-7.6,2.6-11.3,2.6c-3.3,0-6.9-1-11.1-3.6c-8.1-5.1-18-12.9-18.4-13.3l-0.3-0.3
				c-0.5-0.4-3.3-2.3-9.3-1c-8.5,1.9-21.9,6.3-23.5,6.8c-2,0.8-7.9,1.9-24.1-0.8c-16.9-2.8-33.8-10-38-11.9
				c-4.8,0.4-25.2,2-33.9,2.9c-5.5,0.5-5.6,0.7-7.6,4.1c-0.9,1.4-1.9,3.2-3.6,5.4c-3.3,4.4-2.6,5.8-1.5,8c0.4,0.7,0.8,1.5,1.1,2.4
				c0.5,1.6,4.7,10.7,8.1,17.9c2.5,5.4,5.1,11.1,6.7,14.7c3.4,7.6,15.4,20,27.2,22.7c11,2.5,22.9,11.4,28.6,15.6
				c1,0.7,2.1,1.6,2.4,1.7c3.3,1.8,31.2,24.9,38.1,32.9c3.4,3.8,9.4,8.9,15.3,13.7c6,4.9,11.6,9.6,14.8,13.3
				c4.7,5.4,10.7,5.6,11,5.6h21c6.4,0,19.9-9.4,26.3-13.9c1.4-1,2.5-1.8,3.5-2.4c3.9-2.6,11.8-15.1,17.1-23.4
				c1.8-2.8,3.4-5.4,4.8-7.5c3.9-5.9,5.6-18.8,6.9-29.1c0.5-3.8,1-7.4,1.5-10.4c2-10.8,0.8-29.2,0.1-32.3c-1.1-4.5-3.1-16.7-3.1-25
				c0-0.7-0.1-1.9-0.6-2.3c-0.6-0.5-3.1-1.4-12.3,1.2c-9.7,2.7-23.4,2.4-27.9,2.2c-2,1.1-4,2.1-5.9,2.7
				C614.6,578,613.9,578.2,613.3,578.5z"/>
		</g>
		<g id="2_Busot__x2F__Aigues__x2F__Jijona" class="zone">
			<path class="st0" d="M431.9,518.3c4.3,1.6,10.3,3.7,14.2,4.8c8,2.3,17.3,11.6,21.7,16c3.3,3.3,10.5,9,12.3,10.4
				c2.9,1.3,20.1,8.8,36.6,11.5c13.9,2.3,18.7,1.5,19.7,1.3l0.4-0.3l0,0.1c0.6-0.2,15-5,24.4-7.1c10-2.2,15.2,1.8,16.5,2.9
				c1.1,0.9,10.2,8.1,17.5,12.6c5.8,3.6,8.3,2.8,15.6,0.3c0.6-0.2,1.3-0.4,2-0.7c6.7-2.2,17.1-11,20.6-14.1l0.2-0.2
				c1.7-1.4,42.2-33.2,51.3-39.2c6.9-4.6,8.2-12.4,9.1-18l0.2-1.3c1.1-6.8,6.4-16.3,14.8-26.8c8-10,17.7-11.2,24.1-12.1
				c0.9-0.1,1.7-0.2,2.4-0.3c2.8-0.5,5.4,0.2,7.5,2c3.8,3.2,5.1,9.3,5.1,13.9c0,2.2-0.2,3.6-0.3,4.7c-0.2,1.3-0.2,1.7,0.2,3.4
				c0.1,0.5,0.2,0.9,0.3,1.4c0.2,0.9,0.5,2.3,0.8,2.5c0,0,0.7,0.4,3.5,0.1c6.3-0.8,9.6-3.8,9.7-3.9l66-63.6c-1.5-4-0.8-8.1-0.4-11
				c0.2-1.5,0.5-3,0.3-3.8c-0.2-1-0.5-2.7-0.8-4.8c-0.9-5.8-3.8-23.3-6.4-26.5c-5.1-6.3-8.9-24.7-8.9-33.5c0-9.1-3.4-9.7-5.7-10.1
				c-3.6-0.6-10.5,0.1-15.1,0.6c-2.4,0.3-4.1,0.4-5.3,0.4c-3.7,0-17.6-2.3-19-13.5l-0.2-1.5c-1-7.7-2.4-18.2,9.5-29
				c6.2-5.6,15.2-12.8,22.4-18.6c5.6-4.5,10.8-8.7,12.5-10.3c3.6-3.6,9.4-18,8-23.1c-2.4-8.6-9-19.7-11.8-20.2
				c-2.8-0.5-4.9-1.6-6.7-2.6c-2.7-1.5-4.5-2.4-8.7-1.5c-8.1,1.8-16.8,2.2-24.9-7.3c-2.5-2.9-3.7-5.7-4.9-8.1
				c-1.8-4-2.8-6.2-8.1-7.6c-6.1-1.7-36.6-10.9-37.9-29.6c-0.3-4.2-0.8-7.5-1.2-10.7c-1-7-1.9-13.1,0.3-23.4
				c1.9-9.1-10.2-18-15-20.7l-0.3-0.2c-0.1-0.1-11.3-7.1-32.3-4.4c-21.8,2.8-64.5,21.5-64.9,21.7l-0.3,0.1
				c-0.8,0.3-78.4,26.9-94.6,42.1c-1.3,1.2-2.6,2.4-3.9,3.6c-14.8,13.8-23.8,22.1-30,51.3c-6.6,31.3-15.2,86.8-15.9,91.5
				c0,2.6,0.2,22.2,2.9,33.8c3.6,15.6,3.9,25.3,0.8,33.3c-1.3,3.5-3.5,7.1-5.8,10.8c-3.2,5.2-6.5,10.6-7,15.2
				c-0.9,8.3,0.9,31.2,2,42.2c0,0.3,2.6,33.1-3,39.1c-0.8,1.2-3.1,6.8-4.8,11.2C438.9,504.5,435.4,513,431.9,518.3z"/>
		</g>
		<g id="2_San_Vicente_del_Raspeig" class="zone">
			<path class="st0" d="M373.7,538.7c3.3,9.7,7.7,21,10.1,23.5c0.8,0.8,1.8,1.6,2.8,2.4c4.8,3.8,11.3,8.9,10.3,24.7
				c-0.3,4.5-0.7,8.7-1,12.7c-1,10.7-1.8,19.1,0.8,25.6c0.8,1.9,1.7,4.1,2.7,6.6c4.5,10.7,10.7,25.3,11.5,35.6
				c0.1,1.7,0.3,3.4,0.5,4.9c0.6,5.9,1.1,11.1,0.2,17.3L411,694c0,0.2,3.2,17.4,23.6,35c2.9,2.5,5.5,4.8,7.8,6.8
				c14.8,12.9,17.4,15.2,28.7,18.4c3,0.9,5.5,1.7,7.8,2.4c8.2,2.6,11.5,3.7,19.1,1.6c7.8-2.1,18.2-13.8,21.7-18.4
				c1.3-2.3,10.7-17.6,23.7-19.7c2.1-0.4,4-0.7,5.7-1c5.6-1,9.9-1.8,17.2-2.2c-2.9-3.1-8.1-7.4-13.1-11.6
				c-6.1-5.1-12.4-10.3-16.2-14.6c-6.6-7.5-32.9-29.2-35.9-31.1c-0.7-0.4-1.5-1-3.4-2.4c-5.3-3.9-16.2-12.1-25.6-14.2
				c-13.8-3.2-28-16.7-32.8-27.3c-1.6-3.6-4.2-9.2-6.7-14.6c-4.8-10.4-7.8-16.9-8.4-18.8c-0.1-0.3-0.3-0.7-0.6-1.2
				c-1.5-2.8-4.2-8,2.2-16.5c1.4-1.9,2.3-3.4,3.2-4.7c3.1-5,5-7,13.6-7.9c5.9-0.6,17-1.5,25.1-2.2c-2.1-1.7-4.1-3.5-5.6-5
				c-3.4-3.4-12.3-12.3-18.3-14c-5.6-1.6-14.8-5-18.6-6.5c-8.7,4.4-29,11.6-39.6,13.6C382.5,538.5,378.3,538.8,373.7,538.7z"/>
		</g>
		<g id="2_Barriadas_de_Alicante" class="zone">
			<path class="st0" d="M248.8,830.4c5.7,2.9,25.5,13.2,39.9,26.6c3.8,3.6,11.3,10,20.2,17.4c4.5-4.4,15.9-15.3,21.3-18
				c6.8-3.4,17.6-10.9,20.2-16.2c2.2-4.5,1.7-8.2-0.2-13.9c-1.1-3.2-1.5-3.6-2.1-4.3c-1.4-1.5-2.7-3.1-4.8-8.5
				c-4.3-10.8-12-24.5-14.1-26.7c-4.3-4.3-4.5-10.8-0.8-19.4c2.9-6.8,11.6-10.1,18.5-12.8c2-0.8,4-1.5,5.3-2.2
				c3.5-1.8,12.8-8,21-13.5c5-3.3,9.7-6.5,12.7-8.4c5.1-3.2,7.4-9.5,10.9-19c1-2.7,2.1-5.8,3.5-9.1c4.8-11.9,4.1-18,3.2-27.1
				c-0.2-1.6-0.3-3.3-0.5-5.1c-0.8-9.1-6.6-23-10.9-33.1c-1-2.4-2-4.7-2.8-6.7c-3.3-8.3-2.4-18-1.3-29.3c0.4-3.9,0.8-8,1-12.4
				c0.7-11.6-3-14.5-7.3-17.9c-1.2-0.9-2.4-1.9-3.5-3c-4.6-4.6-10.6-22-13.1-29.7c-7.2-0.8-14.7-2.4-20.8-5
				c7.5,12.8,14.6,25.2,15.6,28.7c0.3,1.1,0.7,2.1,1.1,3.3c2,5.8,4.5,13.1-1.4,23.8c-5.2,9.6-11.9,13.8-16.4,16.5
				c-1.1,0.7-2,1.2-2.7,1.8c-3.2,2.4-6,9.2-8.7,16.2c-2.6,7-0.6,14.3,2,21.2c1,2.7,2.9,4.2,5,5.8c2.8,2.2,6.3,4.9,6.3,10.6
				c0,1.6,0.3,3.2,0.5,5.1c0.9,5.8,2,12.9-2.9,23.5c-4.4,9.5-6.7,11.3-11.7,13.5c-1.5,0.7-3.3,1.5-5.8,3.1
				c-6.8,4.5-23.8,15.3-35.4,17.6c-10.1,2-35.4,4-36.5,4.1c-5.4,0.5-19.6,2-25.5,3.4c1,3.9,1.6,8.5,1.2,13.9c-0.5,7-2,11.8-3.2,15.7
				c-1.4,4.6-2.3,7.4-1,11.9c0.9,2.9,1.9,5,3,7.3c2.4,4.9,4.9,9.9,4.1,21.1C231.1,814.4,244.1,828.1,248.8,830.4z"/>
		</g>
		<g id="2_Agost" class="zone">
			<path class="st0" d="M229.3,578.2l-0.4,0.7l-0.7,0.4c-0.3,0.2-6.7,4.4-15.2,6.6c-8,2-30.2,6.8-31.1,7l-0.6,0.1
				c-3.1,0.2-12.9,1.9-16,6.3c-6.7,9.3-10.9,18.8-10.3,23.1c0.3,2,0.4,4.6,0.6,7.6c0.3,7,0.9,18.8,4.3,22.1l25,25
				c1,1,26.3,25.4,32.5,34.6c0.6,0.9,1.2,1.7,1.7,2.6c2,3,4.1,6.1,5.8,9.5c7.3-1.9,25.5-3.6,27.7-3.8c0.3,0,25.9-2,35.6-3.9
				c7.1-1.4,19.3-7.6,32.6-16.4c3-2,5.2-3,6.9-3.8c3.1-1.4,4.1-1.9,7.7-9.6c3.9-8.4,3.1-13.8,2.3-19c-0.3-2.1-0.6-4.2-0.6-6.4
				c0-1.6-0.7-2.3-3.2-4.3c-2.4-1.9-5.7-4.5-7.5-9.3c-3.1-8.3-5.5-17.4-2-26.8c3-7.9,6.3-16,11.3-19.8c1-0.7,2.1-1.4,3.3-2.2
				c4.2-2.6,9.4-5.8,13.6-13.5c4.2-7.6,2.7-11.9,0.8-17.3c-0.4-1.2-0.8-2.4-1.2-3.6c-1.3-4.6-20.2-36.2-32.5-56.3
				c-6.2-9.3-11.1-18.1-12.1-19.9l-9.2-17.4c-0.3-0.4-1.8-2.2-6.9-1.6c-3.7,0.4-5.3,2.8-7.2,5.5c-1.5,2.2-3.2,4.7-6.2,5.4
				c-4.3,1.1-11.8,1.1-12.9,1.1c-0.3,0.4-1.1,2-1.1,6c0,3.4,0.4,7.4,0.9,11.2c0.9,8.4,1.9,17.2-1.3,23.6c-1.1,2.2-2.1,5.3-3.2,8.9
				c-2.8,8.8-6.2,19.8-14.5,28.1C235.3,569.4,229.4,578.1,229.3,578.2z"/>
		</g>
		<g id="2_Alicante" class="zone">
			<path class="st0" d="M601.4,801.9c1.8-1.9,10.6-10.3,20.9-12.7c-3-6.5-7.8-17.7-9.2-25.5c-1.5-8.5-3.7-28.7-4.7-38.1
				c-1.2,0.2-2.3,0.4-3.3,0.4h-21c-0.2,0-3.4,0-7.4-1.6c-13.6,0.3-18.3,1.2-26.1,2.5c-1.8,0.3-3.7,0.6-5.8,1
				c-8.3,1.4-15.9,12-18.2,16l-0.3,0.5c-1.4,1.9-14.2,18.2-26.1,21.4c-3.5,1-6.4,1.4-9.1,1.4c-4.8,0-9-1.3-14.5-3.1
				c-2.2-0.7-4.7-1.5-7.5-2.3c-13-3.7-16.6-6.9-31.8-20.1c-2.3-2-4.8-4.2-7.8-6.7c-12.1-10.4-18.4-21.3-21.7-29.5
				c-1.3,3.2-2.3,6.1-3.4,8.9c-3.9,10.7-6.8,18.4-14.2,23c-2.9,1.8-7.6,4.9-12.5,8.2c-8.8,5.9-17.9,12-21.9,14
				c-1.7,0.9-3.8,1.7-6,2.5c-5.3,2-12.5,4.8-14.1,8.5c-1.6,3.7-3,8.5-0.8,10.6c3.7,3.7,11.9,19.5,15.9,29.3c1.8,4.4,2.6,5.3,3.3,6
				c1.3,1.4,2.3,2.7,3.8,7.2c2,6,3.6,12.4-0.2,20.1c-4.3,8.6-18.6,17.2-23.8,19.8c-3.5,1.7-12.5,10-18.7,16
				c21.4,17.8,47.2,38.6,49.3,40.2c14.7,10,55.1,36.2,67.6,39.3c7.9,2,31.9,8,40.8,1.4c2.1-1.5,3.1-3.7,3.3-6.7
				c1-20.1,9.7-56.2,10.1-57.7l0-0.1c1.7-6.2,8-26.6,18.4-27.9c6-0.7,8.2,0,10.8,2c0.6,0.4,1.1,0.8,1.9,1.2c0.9-0.6,2.2-3.1,2.9-5.4
				l0.2-0.4c0.2-0.4,4.2-9.4,14.7-9.4c1.8,0,2.4-0.6,2.6-0.8c1.4-1.4,1.4-5,1.4-6.6l0-0.5c0-6.9,13.1-13.5,13.2-13.6
				C554.9,833.1,583.7,813.9,601.4,801.9z"/>
		</g>
		<g id="Strokes_1_" class="text">
			<path class="st1" d="M601,116c0,0-79,27-96,43s-28,24-35,57s-16,92-16,92s0,22,3,35s4,23,1,31s-12,18-13,27s1,33,2,43s1,33-2,36
				s-13,36-20,40s-29,12-40,14s-33,0-44-7s-30-41-30-41l-9-17c0,0-2-5-11-4s-10,10-14,11s-12,1-12,1s-5-1-5,10s4,25,0,33
				s-6,25-17,36s-17,20-17,20s-6,4-14,6s-31,7-31,7s-14,1-19,8s-12,19-11,26s0,26,6,32s25,25,25,25s26,25,32,34s12,16,11,31
				s-7,19-4,29s8,12,7,27s13,30,19,33s25,13,39,26s76,63,76,63s53,36,69,40s48,11,49-9s10-57,10-57s6.5-23.9,15-25c8-1,6.4,1.1,11,3
				c5,2,8-8,8-8s3-7,11-7c8.5,0,8-9,8-12s7-8,11-10s50-33,50-33s14-15,27-12s14,7,15,14s20,10,32,10s23,3,22-1s-7-3-7-8s-1-14-1-20
				s2-64,6-78s5-31,8-35s7-7,14-6s6-3,6-13s6-29,19-44s25-23,39-30s41-24,60-42s45-35,49-37s12-22,10-35s-13-27-18-30
				c-4.4-2.6-33-7-33-7s-4-1-15-8c-9.6-6.1-4-15-5-20s-4-28-8-33s-8-22-8-31s-3-13-9-14s-18,1-21,1s-14-2-15-10s-3-17,8-27
				s31-25,35-29s11-20,9-27s-9-22-15-23s-8-6-17-4s-15,1-21-6s-4-14-15-17s-34-12-35-26s-4-19-1-33s-17-25-17-25s-12-8-35-5
				C644.4,96.9,601,116,601,116z"/>
			<path class="st1" d="M833.1,419.4L765,485c0,0-4.1,4-12,5c-8,1-7.9-2.7-9-7c-1-4,0-4,0-9s-2-13-8-12s-16,1-24,11s-13,19-14,25
				s-2,16-11,22s-51,39-51,39s-13,12-22,15s-13,5-21,0s-18-13-18-13s-4-4-13-2c-9.3,2.1-24,7-24,7s-4,2-22-1c-18.7-3.1-38-12-38-12
				s-9-7-13-11s-13-13-20-15s-20-7-20-7"/>
			<path class="st1" d="M322,504c0,0,32,52,34,59s6,13,0,24s-14,14-18,17s-7,10-10,18s-1,16,2,24s11,8,11,15s4,14-2,27s-7,9-16,15
				s-24,15-34,17s-36,4-36,4s-22,2-28,4"/>
			<path class="st1" d="M368,534c0,0,8,26,13,31s13,7,12,24s-4,30,0,40s13,29,14,41s3,19-3,34s-8,25-16,30s-28,19-34,22s-19,6-22,13
				s-3,12,0,15s11,18,15,28s4.3,4.8,7,13c2,6,3,11,0,17c-3.5,7-16,15-22,18s-22,19-22,19"/>
			<path class="st1" d="M620,571c0,0,17,1,28-2s18-3,18,5s2,20,3,24s2,23,0,34s-3,32-9,41s-17,28-23,32s-23,17-32,17s-21,0-21,0
				s-8,0-14-7s-23-19-30-27s-35-31-37-32s-17-14-30-17s-26-16-30-25s-14-30-15-33s-5-6,1-14s4-10,14-11s35-3,35-3"/>
			<path class="st1" d="M668.7,633.6c0,0,32.3,31.4,55.3,30.4"/>
			<path class="st1" d="M611.8,720.4c0,0,3.2,31.6,5.2,42.6s11.3,29.6,11.3,29.6"/>
			<path class="st1" d="M407,694c0,0,3,19,25,38s24,22,38,26s18,7,29,4s24-20,24-20s9-16,21-18s15.6-3.2,33.3-3.6"/>
		</g>
	</g>
</svg>
