<?xml version="1.0" encoding="utf-8"?> 
<!-- Generator: Adobe Illustrator 24.0.2, SVG Export Plug-In . SVG Version: 6.00 Build 0)  --> 
<svg version="1.1" id="Capa_1" xmlns="http://www.w3.org/2000/svg" xmlns:xlink="http://www.w3.org/1999/xlink" x="0px" y="0px" 
	 viewBox="0 0 1080 1080" style="enable-background:new 0 0 1080 1080;" xml:space="preserve"> 
<style type="text/css"> 
	.st0{fill:#FFFFFF;} 
	<!-- .st1{fill:#EF7048;} 
	.st2{fill:#EF9981;} --> 
	.st3{fill:none;stroke:#FFFFFF;stroke-width:8;stroke-miterlimit:10;} 
</style> 
<g> 
	<g id="_DopShadow"> 
		<path class="st0" d="M442,790c1.7-14.9,4.6-47.1,8-59c2-7,4-17,8-23s10-18,17-18s21,2,31-1s11-6,13-10s1-14-1-22s-7-32-4-44 
			s2-18,16-29s18-17,28-12s16,2,17-10s-1-17,2-23s8-11,10-17s30-24,42-32s23-11,45-20s46-23,52-21s18,10,24,4s24-22,19-26s-6-9-1-17 
			s17-23,26-26s18,2,23-3s9-7,14-7s9-5,14-13c5.1-7.8,13-13.5,22-16c8-2,18-6,20-13s11-11,15-15s6-7,12-5s11-3,11-9s-8-11-14-14 
			s-12-12-13-16s-4-8,2-9s-3-10-8-12s-13-7-19-10s-17-15-24-17s-23-7-27-5s-10,0-17-3s-17-6-17-2s0,17-10,10s-17-19-22-18 
			s-23,15-31,16s-12,1-12-5s-3-13-7-14s-8-1-12,2s-15,13-19,13s-13,2-19-2s-16-9-19-9s-8,10-12,12s-15,11-25,14s-17,0-18,2 
			s-6,6-13,7s-18,10-23,12s-13,4-24,1s-36-1-38,2s-14,10-12,12s5,6,4,9s1,10,3,12s4,6,15-1s13-7,15-6s3,8,6,10s11,3,11,6s1,11-3,13 
			s-33,15-38,17s-19,12-23,12s-12,0-13-5s-7-20-11-21s-9-3-12-6s-5-5-12-5s-12,2-16-1s-23-4-34-1s-18,5-20,4c-3.2-1.5-5.5-4.5-6-8 
			c-1-5-6-11-9-13s-8-4-15-4s-14,2-15-1s-5-8-9-7s-14,6-15,9s-2,7,1,13s12,24,14,29s11,9,9,13s-5,11-11,16s-10,9-17,9s-22-2-27,0 
			s-8,6-5,10s5,6,5,13s3,17,5,25s3,10,1,15s-8,21-10,26s-1,9,1,14s4,9,1,13s-11,15-15,18s-14,14-18,18s-9,9-9,15s-2,20,0,27 
			s7,18,18,23s19,6,27,10s13,9,15,15s7,10,8,14s3,10,2,17s-5,18-8,27s-6,23-10,30s-10,17-14,23s-8,8-6,15s2,17,3,22s2,5,4,12 
			s3,11,8,16s13,14,18,22s8,18,13,24s11,11,12,18s6,20,16,31s16,18,26,27s13,13,19,14s10,6,16,9s16,3,18-9s3.3-26.6,10-32 
			c5-4,8-10,10-15c1.5-3.7,5-9,7-14c2.6-6.6,3-16,10-16s18-10,20-15S441,799,442,790z"/> 
	</g> 
	<g id="1_Baix_Segura" class="zone"> 
		<path class="st1" d="M439,780.7c1.2-11.4,2.7-25.7,4.4-36.9c-8.6-3.2-33.3-12.3-45.9-13.8c-4.4-0.5-8.9-0.7-13.3-0.6 
			c-8.4,0-15.7,0-25.3-5.9c-19.9-12.2-32-21-36.9-26.8c-1.7-2-4.4-4.5-7.3-7.2c-9.5-9-15.7-15.3-15.7-21.4c0-5.3,3.8-18.4,6.3-26.5 
			c-2.5,0.5-5.4,1-8.7,1.5c-12.8,2-20.9,2.7-24.8,3c-1.3,4.4-2.9,9.1-4.5,13.8c-0.5,1.5-1,3.1-1.5,4.5c-0.9,2.8-1.9,6.1-2.9,9.7 
			c-2.2,7.8-4.5,15.9-7.4,21c-3.9,6.8-10,17-14.1,23.2c-1.1,1.6-2.1,2.9-3,4c-2.6,3.3-3.4,4.3-2.5,7.6c1.3,4.7,1.8,10.2,2.3,15.1 
			c0.2,2.8,0.5,5.5,0.8,7.2c0.3,1.6,0.8,3.2,1.5,4.7c1,2.3,1.8,4.6,2.5,7l0.2,0.8c1.8,6.3,2.7,9.4,6.8,13.5 
			c5.4,5.4,13.5,14.5,18.6,22.7c2.2,3.7,4.2,7.5,5.9,11.4c2.2,4.7,4.3,9.1,6.8,12.1c1,1.3,2.2,2.5,3.3,3.7c4.3,4.7,8.7,9.6,9.6,16.3 
			c1,7.1,6.1,19.1,15,28.9c1.5,1.6,2.9,3.2,4.2,4.7c7.6,8.4,13.1,14.5,21.5,22c2.1,1.9,3.9,3.6,5.5,5c6,5.6,8.1,7.4,11.5,8 
			c4.6,0.8,8,3.3,11.4,5.7c1.8,1.4,3.7,2.6,5.8,3.7c2.2,1.1,5.7,1.9,8.4,0.5c2-1,3.3-3.3,3.9-6.6c0.3-1.7,0.5-3.4,0.8-5.1 
			c1.8-11.7,3.6-23.7,10.6-29.3c4.5-3.6,7.2-9.4,8.8-13.4c0.9-2.2,2-4.3,3.2-6.4c1.4-2.5,2.7-5,3.8-7.6c0.6-1.4,1-3.1,1.5-4.8 
			c1.6-5.8,3.9-13.7,12.2-13.7c4.9,0,14.7-8.6,16.3-12.5c0.8-1.9,0.3-10.7,0-16.5c-0.4-6.4-0.7-13.1-0.2-17.5 
			C438.3,787,438.6,784,439,780.7z"/> 
	</g> 
	<g id="1_Baix_Vinalopó" class="zone"> 
		<path class="st1" d="M446.1,729.9c0.4-1.4,0.8-2.9,1.2-4.5c1.8-6.7,3.7-14.2,7.3-19.6c0.6-1,1.4-2.1,2.1-3.3 
			c4.5-7.3,10.2-16.4,18.2-16.4c1.9,0,4.1,0.1,6.6,0.3c6.9,0.4,16.4,0.9,23.2-1.1c7.8-2.3,8.7-4.1,10.2-7.3l0.3-0.7 
			c1.1-2.3,1-10.2-1.3-19.2c-0.7-2.7-5.8-24-5-39.1c-7.5-0.6-23.1-2.2-31.8-6.2c-4.6-2.1-9.8-5.2-14.9-8.1 
			c-7.2-4.2-14.6-8.6-19.4-9.6l-1.5-0.3c-4.9-1.1-11.2-2.5-15.8-5.6c-4.9,4.7-15.3,14.6-21.4,19.2c-8.7,6.5-18.2,8.7-34.9,10.8 
			c-11,1.4-18.9,5.2-27.2,9.2c-3.1,1.5-6.4,3.1-9.8,4.5l-2.1,0.9c-5.2,2.3-10.6,4.3-16,5.8c-3.1,9.6-7.4,24.3-7.4,28.6 
			c0,3.1,8.6,11.2,13.2,15.6c3,2.8,5.9,5.5,7.8,7.8c4.4,5.1,16.1,13.6,35.1,25.2c7.7,4.7,13.3,4.7,21.1,4.7 
			c4.8-0.1,9.6,0.2,14.3,0.7c12.9,1.6,36.4,10,46.3,13.7C445.2,733.5,445.7,731.5,446.1,729.9z"/> 
	</g> 
	<g id="1_Vinalopó_Mitjà" class="zone"> 
		<path class="st1" d="M216.6,512.9c-1.9,2-3.6,3.8-4.8,5c-3.5,3.5-7.8,7.8-7.8,12.2c0,1.9-0.2,4.3-0.4,7.2 
			c-0.4,6.1-1,14.4,0.2,18.7c1.6,5.7,5.8,15.9,15.8,20.5c4.6,2.1,9.4,3.8,14.3,5.2c4.4,1.3,8.7,2.9,12.8,4.8 
			c8.9,4.5,14.7,10.3,17,17.3c1,2.5,2.4,4.9,4.1,7c1.7,2.4,3.4,4.6,4,7.3c0.1,0.5,0.3,1,0.4,1.5c1.1,4,2.7,10.1,1.7,17 
			c-0.1,0.4-0.1,0.8-0.2,1.2c4.3-0.3,11.4-1.1,21.6-2.7c17.4-2.7,21.6-4.5,31.9-8.8l2.1-0.9c3.2-1.3,6.2-2.8,9.3-4.3 
			c8.6-4.2,17.4-8.4,29.7-10c15.3-1.9,23.8-3.8,31.1-9.2c6-4.5,16.5-14.6,21.1-19c-0.7-2-1-4.1-0.7-6.2c1.1-10.8,16.2-57,25.3-77.2 
			c1.4-3,2.9-6.4,4.6-10c-3.7,1.1-7.5,1.7-11.4,1.7c-0.9,0-1.9,0-2.9-0.1c-15.4-1.1-26.5-8.8-37.1-25.9c-3.2-5.2-6.1-10.6-8.7-16.2 
			c-4.5,1.1-13.2,3.5-19.8,7.5c-2.8,1.7-7,4.1-11.9,6.9c-10.4,6-27.8,16-30.3,18.5c-1.7,1.7-22.9,20.7-31.2,22.1 
			c-1.9,0.3-3.8,0.4-5.8,0.4c-6.1,0-13.5-1.2-18.7-3.8c-7.3-3.7-11.9-11.8-13.1-17.8c-0.4-1.8-1.9-5-4.5-6c-2.4-1-5.3,0.1-7.7,1.5 
			c-0.4,1.1-1,2.2-1.7,3.1l-1,1.4c-5.2,7-11,14.6-14.8,17.4C226.8,502.1,220.9,508.3,216.6,512.9z"/> 
	</g> 
	<g id="1_Alt_Vinalopó" class="zone"> 
		<path class="st1" d="M241.8,369.6c0,0.1-0.1,0.4,0.4,1l0.7,0.9c2.7,3.6,5.1,6.7,5.1,14.5c0,5.2,2,12.9,3.7,19.6 
			c0.4,1.5,0.8,3,1.1,4.5c0.3,1,0.5,1.9,0.7,2.8c1.6,6.1,2.4,9.1,0.1,14.7c-1,2.5-3,7.8-5,12.9c-2,5.2-4,10.5-5,13.1 
			c-1.4,3.6-0.8,6.4,1,11l0.4,1.1c0.5,1.3,1.1,2.6,1.5,3.9c3.5-1.5,7.4-1.5,11-0.2c5.6,2.3,8.5,7.8,9.3,11.9 
			c0.8,4.2,4.2,9.9,8.9,12.2c5.3,2.6,14.4,3.5,19.5,2.6c4.2-0.7,21.9-15,26.8-19.9c3-3,15.2-10.1,32-19.8c4.8-2.8,9-5.2,11.8-6.9 
			c6.9-4.1,15.4-6.7,20.6-8c-4.8-11.4-8.3-23-9.5-32c-2-14.6-4.1-44-3-56.9c0.2-1.9,0.3-3.5,0.5-5c0.8-8.3,0.9-10.6-0.9-13.6 
			c-2.4-3.9-12.2-19.2-16.1-25.1c-9.1,2.4-12.6,3-15.2,1.7c-4.3-2.1-7.3-6.1-8.1-10.8c-0.7-3.7-4.9-8.9-7.3-10.5 
			c-1.9-1.3-6-3.3-12.8-3.3c-2,0-4,0.2-6,0.4c-5.2,0.5-11.1,1-12.8-4.1c-0.7-2.1-3.3-4.6-4.2-4.4c-3.5,0.9-10.9,4.9-12.3,6.6 
			c-0.8,2.6-1.4,5.3,0.9,9.7c5.2,10.4,12.3,24.7,14.1,29.3c0.5,1.3,2.3,3,3.9,4.4c3.1,2.9,7.4,6.8,4.9,11.8 
			c-0.2,0.4-0.4,0.8-0.6,1.3c-2.1,4.4-5.3,11-11.4,16c-0.6,0.5-1.1,0.9-1.6,1.4c-5.4,4.6-10.1,8.5-17.9,8.5c-2.3,0-5.3-0.2-8.4-0.4 
			c-3.3-0.2-7.6-0.5-11.1-0.5c-2-0.1-4,0.1-6,0.6C243.3,367.6,242,368.8,241.8,369.6z"/> 
	</g> 
	<g id="1_L'Alcoià" class="zone"> 
		<path class="st1" d="M445.1,337.8c-1-5-6-16.2-8.3-18c-2.9-0.8-9.4-2.8-13.6-7c-2.8-2.8-3.8-3.8-9.2-3.8c-2,0-3.8,0.2-5.6,0.4 
			c-4.4,0.4-8.8,0.9-12.8-2.1c-2.7-1.9-19.5-3.2-30-0.5c4.5,6.9,12.7,19.6,14.9,23.2c3.2,5.4,2.8,9.7,2,18.4c-0.1,1.5-0.3,3.1-0.4,5 
			c-0.9,11.2,0.9,39.3,3,55.1c1.9,14.3,10.7,36.8,20.4,52.4c9.3,14.8,18.2,21.2,30.9,22.1c6.8,0.6,13.6-1.2,19.3-5 
			c8.6-17.1,19-36.3,26.1-46.3c9.6-13.5,22.8-31.9,43.5-51.6c3.8-3.6,7-6.7,9.8-9.5c11.9-11.8,16.8-16.6,29-16.6 
			c9.9,0,18.8,3.9,26.7,7.3c0,0,0.1,0,0.2,0.1c-2.7-4.8-5.7-9.5-9-13.9c-7-9-17-15.5-23.8-15.5c-9.5,0-25.1-11-32-16.2 
			c-0.4,0.3-0.8,0.6-1.3,0.8c-3.9,2-32.9,15-38.3,17.1c-2.9,1.4-5.7,3-8.4,4.7c-8.6,5.2-13,7.6-16.1,7.6 
			C457.4,346,446.7,346,445.1,337.8z"/> 
	</g> 
	<g id="1_Alacantí" class="zone"> 
		<path class="st1" d="M578.2,529.5c2.1-3,4-5.8,5-8.8c1.9-5.7,14.8-15,39.5-31.4c1.5-1,2.9-1.9,4.1-2.7c7.6-5.1,14.7-8.2,24.2-11.9 
			c-5.8-3.5-13.7-8.5-18.6-12.8c-9.2-8-19.5-18.6-18.3-29.5c0.8-6.9-3-13-6.7-13.6l-1-0.2c-7.2-1.2-24.1-3.9-25.3-17.4 
			c-1-11.1-1.1-18.5,5.8-27.8l1.3-1.7c0.6-0.8,1.2-1.6,1.7-2.3c-0.8-0.3-1.5-0.7-2.3-1c-7.5-3.3-15.3-6.6-23.5-6.6 
			c-8.9,0-11.9,3-23.4,14.3c-2.8,2.8-6,5.9-9.9,9.6c-20.2,19.2-33.1,37.2-42.5,50.4c-10.2,14.2-27.2,47.6-35.6,66.3 
			c-9.1,20.2-23.8,65.7-24.7,74.8c-0.5,5,4.5,7,15.3,9.3l1.6,0.3c6,1.3,13.6,5.8,21.7,10.5c4.9,2.9,9.9,5.8,14.1,7.7 
			c7.8,3.5,23,5,29.7,5.5c0.3-1.5,0.6-2.8,0.9-4.2c1.9-8.8,3.4-15.8,16.2-25.9c2.3-1.8,4.4-3.5,6.3-5.1c9.3-7.6,15.4-12.7,26-7.4 
			c3.7,1.8,6.5,2.4,8.1,1.5s2.8-3.8,3.1-8.2c0.3-3.6,0.4-7.2,0.3-10.8c-0.1-5.1-0.2-9.1,2.1-13.7C574.8,534.5,576.4,532,578.2,529.5 
			z"/> 
	</g> 
	<g id="1_Comtat" class="zone"> 
		<path class="st1" d="M555.6,254.1c-2.6,1.8-5.3,3.3-8.1,4.6c-8.5,3.3-17.8,3.7-26.5,1.1c-9.5-2.6-30.1-1-34,0.9 
			c-1.8,2-3.8,3.7-6,5.2c-1.2,1-3,2.3-4.2,3.4c2,2.6,4.4,6.8,3,10.9c-0.4,1.5,0.9,6.7,2,7.9c0.2,0.2,0.4,0.4,0.6,0.7 
			c0.9,0.9,1,1.1,1.5,1.1c0.7,0,2.9-0.2,7.9-3.3c11.1-7.1,14.8-8.3,18.9-6.2c2.3,1.1,3.3,3.6,4.3,6.2c0.5,1.3,1.5,3.6,2.1,4.1 
			c1.2,0.6,2.4,1.1,3.7,1.5c4,1.4,9.1,3.1,9.1,7.9c0,0.4,0,0.9,0,1.4c0.2,2.4,0.1,4.8-0.2,7.2c9.9,7.7,22.5,15.4,28.2,15.4 
			c10.9,0,23,9.3,30.2,18.5c4.1,5.6,7.8,11.4,11.1,17.5c2-1.5,4.4-3.3,7.5-5.3c1.6-1,3.1-2,4.5-3c9.1-6,14.7-9.5,16.8-16.8 
			c3.6-11.9,8.1-23.2,16.7-25.7c1.7-0.5,3.4-0.9,4.9-1.3c-4.5-4.3-7.9-9.1-9.7-18.1c-2-10.1-2.3-18.2,2.3-27.6c0.6-1,1-2.2,1.2-3.4 
			c-1.1-0.4-2.2-0.7-3.4-0.9c-5.1-1-12.7-2.5-14.2-11.3c-0.7-4-1.6-14.3-2.2-21.3c-0.6,0.4-1.2,0.8-1.9,1.3 
			c-5.6,3.8-13.2,8.9-20.8,11.2c-4.8,1.4-9.9,1.9-14.9,1.5c-0.5,0-1.1-0.1-1.6-0.1c-2.6,3.3-8.4,6.8-15.1,7.7 
			C566,247.5,560.3,251.1,555.6,254.1z"/> 
	</g> 
	<g id="1_Marina_Baixa" class="zone"> 
		<path class="st1" d="M774,369.5c-4.4-2.5-9.1-4.8-13.7-7.1c-10.2-5-19.9-9.8-24.6-16c-3-4.3-5.7-8.8-8.2-13.4 
			c-3.8-6.6-8.9-15.7-11.8-17.7c-9.5-6.4-21.5-12-24.4-11.6c-1.5,0.7-4.6,4.1-6.8,6.6c-4.2,4.7-7.8,8.8-11.8,9.5 
			c-5.5,1.1-10.5-1.8-15.3-5.5c-2.1,0.4-6,1.2-10.4,2.5c-5.7,1.6-9.7,15.2-11.3,20.3c-3,10.1-10.2,14.8-20.1,21.2 
			c-1.4,0.9-2.9,1.9-4.5,2.9c-10.5,7-12,9-16.7,15.4l-1.3,1.7c-5.1,6.8-5.2,11.5-4.2,22.2c0.7,7.3,13.3,9.4,18.7,10.3l1,0.2 
			c8.4,1.4,14.5,11.7,13.3,22.4c-0.9,8.1,11.6,19,15.7,22.5c6.2,5.4,18.5,12.6,22.8,15.1c3.6-1.4,7.6-3,12-4.8 
			c7.6-3.1,15.4-6.8,22.9-10.4c17.9-8.5,26.7-12.5,31.9-10.7c1.8,0.6,3.5,1.4,5.2,2.2c4.8,2.2,12,5.5,14.7,2.8c0.8-0.8,1.9-1.8,3-3 
			c3.6-3.5,14.2-13.7,15.5-17.7c-6.3-5.5-6.7-12.8-1.1-21.6c3.9-6.2,16.1-22.8,27-27.3C787,377.4,780.8,373.3,774,369.5z"/> 
	</g> 
	<g id="1_Marina_Alta" class="zone"> 
		<path class="st2" d="M866,341.1c9.6-2.4,16-6.2,17.1-10.2c1.8-6.2,7.3-10.1,11.7-13.3c1.5-1,2.9-2.2,4.3-3.4 
			c0.4-0.4,0.8-0.8,1.2-1.2c3.4-3.5,7.2-7.4,14.9-4.8c1.2,0.5,2.5,0.3,3.5-0.5c1.4-1.1,2.3-2.9,2.2-4.7c0-1.1-0.8-5-11.8-10.4 
			c-7.1-3.6-13.7-13.6-15-18.6c-0.2-0.6-0.4-1.3-0.7-2c-0.8-2.4-1.9-5.4-0.2-8.3c0.8-1.4,2.1-2.4,3.6-2.9c-1.8-2.1-3.9-3.8-6.4-5 
			c-4-1.8-7.9-3.8-11.6-6c-2.6-1.5-5.4-3-7.7-4.1c-2.9-1.5-6.5-4.5-10.3-7.6c-4.3-3.6-9.8-8.2-13-9.1c-0.7-0.2-1.5-0.4-2.3-0.7 
			c-12.4-3.6-19.8-5.2-21.9-4.6c-5.8,2.8-13.2,0.1-20.3-2.9c-3.6-1.7-7.5-2.9-11.4-3.6c-0.1,4.2-0.9,10.7-5.5,13.1 
			c-3.1,1.6-6.7,0.9-10.8-1.9c-4.3-3.2-8.3-6.8-11.9-10.8c-2.3-2.4-5.8-6.1-7.2-6.5c-1.6,0.5-6.5,3.5-10,5.7 
			c-7.7,4.7-15.6,9.6-21.1,10.3c-6,0.8-10.6,1.1-13.7-1.7c-1.9-1.7-2.8-4-2.8-7.3c0-5.2-2.7-9.8-4-10.1c-3.7-0.9-6.2-0.5-8.6,1.3 
			c-0.8,0.6-2.1,1.6-3.5,2.8c-9.1,7.4-14,11-17.9,11c-0.7,0-1.7,0.1-2.9,0.2c-5,0.4-12.5,1.1-18.4-2.9c-5.9-3.9-13.5-7.5-16.2-8.2 
			c-1.2,1.3-2.3,2.6-3.3,4c-0.9,1.2-1.9,2.4-2.9,3.6c0.4,5.2,1.8,20.9,2.6,25.7c0.5,2.9,2.1,3.6,7.8,4.7c3.1,0.6,7.3,1.4,9.1,5.2 
			c1.8,3.6,0.1,7.8-1.3,10.5c-3.3,6.6-3.7,12.2-1.7,22.4c1.8,9,5.2,12.2,10.6,16.7c5.5,4.6,9.6,7.8,12.7,7.1c1.5-0.4,5.2-4.6,7.4-7 
			c3.6-4,6.7-7.5,9.9-8.8c7.8-3.1,27.8,9.8,31.7,12.4c4.2,2.8,8.4,9.9,14.3,20.4c2.3,4.3,4.9,8.5,7.7,12.6c3.5,4.7,12.3,9,21.7,13.6 
			c4.7,2.3,9.5,4.7,14.1,7.3c8.7,5,17.1,10.5,25.2,16.5c1,0,2,0.1,2.9,0.2c4.1,0.3,6.7,0.4,8.1-1c5.7-5.7,10.8-8.2,16.8-8.2 
			c3.2,0,7-5.3,10.6-11.1C847.3,350.2,856,343.8,866,341.1z"/> 
	</g> 
	<g id="_Strokes"> 
		<path class="st3" d="M442,790c1.7-14.9,4.6-47.1,8-59c2-7,4-17,8-23s10-18,17-18s21,2,31-1s11-6,13-10s1-14-1-22s-7-32-4-44 
			s2-18,16-29s18-17,28-12s16,2,17-10s-1-17,2-23s8-11,10-17s30-24,42-32s23-11,45-20s46-23,52-21s18,10,24,4s24-22,19-26s-6-9-1-17 
			s17-23,26-26s18,2,23-3s9-7,14-7s9-5,14-13c5.1-7.8,13-13.5,22-16c8-2,18-6,20-13s11-11,15-15s6-7,12-5s11-3,11-9s-8-11-14-14 
			s-12-12-13-16s-4-8,2-9s-3-10-8-12s-13-7-19-10s-17-15-24-17s-23-7-27-5s-10,0-17-3s-17-6-17-2s0,17-10,10s-17-19-22-18 
			s-23,15-31,16s-12,1-12-5s-3-13-7-14s-8-1-12,2s-15,13-19,13s-13,2-19-2s-16-9-19-9s-8,10-12,12s-15,11-25,14s-17,0-18,2 
			s-6,6-13,7s-18,10-23,12s-13,4-24,1s-36-1-38,2s-14,10-12,12s5,6,4,9s1,10,3,12s4,6,15-1s13-7,15-6s3,8,6,10s11,3,11,6s1,11-3,13 
			s-33,15-38,17s-19,12-23,12s-12,0-13-5s-7-20-11-21s-9-3-12-6s-5-5-12-5s-12,2-16-1s-23-4-34-1s-18,5-20,4c-3.2-1.5-5.5-4.5-6-8 
			c-1-5-6-11-9-13s-8-4-15-4s-14,2-15-1s-5-8-9-7s-14,6-15,9s-2,7,1,13s12,24,14,29s11,9,9,13s-5,11-11,16s-10,9-17,9s-22-2-27,0 
			s-8,6-5,10s5,6,5,13s3,17,5,25s3,10,1,15s-8,21-10,26s-1,9,1,14s4,9,1,13s-11,15-15,18s-14,14-18,18s-9,9-9,15s-2,20,0,27 
			s7,18,18,23s19,6,27,10s13,9,15,15s7,10,8,14s3,10,2,17s-5,18-8,27s-6,23-10,30s-10,17-14,23s-8,8-6,15s2,17,3,22s2,5,4,12 
			s3,11,8,16s13,14,18,22s8,18,13,24s11,11,12,18s6,20,16,31s16,18,26,27s13,13,19,14s10,6,16,9s16,3,18-9s3.3-26.6,10-32 
			c5-4,8-10,10-15c1.5-3.7,5-9,7-14c2.6-6.6,3-16,10-16s18-10,20-15S441,799,442,790z"/> 
		<path class="st3" d="M801.8,383c-8.2-6.2-16.8-11.8-25.8-17c-14-8-31-14-37-22s-15-28-21-32s-23-14-28-12s-13,15-18,16s-10-3-16-8 
			s-10-9-12-19s-2-17,2-25s0-9-5-10s-10-2-11-8s-2.8-27.7-2.8-27.7"/> 
		<path class="st3" d="M660.2,475.5c0,0-17.2-9.5-25.2-16.5s-18-17-17-26s-4-17-10-18s-22-3-23-14s-1-17,5-25s7-10,19-18 
			s20-12,23-22s7-21,14-23c4.1-1.2,8.4-2.1,12.6-2.9"/> 
		<path class="st3" d="M513.6,615.1c0,0-23.6-1.1-34.6-6.1s-26-16-35-18s-21-4-20-14s16-56,25-76s26-53,36-67s23-32,43-51 
			c20-19,23-25,36-25c10.2,0,19.4,4.5,28,8.2c1.5,0.6,3.3-0.1,3.9-1.6c0.3-0.8,0.3-1.8-0.1-2.5c-3.2-5.9-6.8-11.7-10.8-17.1 
			c-7-9-18-17-27-17s-26.4-12.7-32.7-17.9"/> 
		<path class="st3" d="M458.7,480.6c-6.5,4.8-14.6,7.1-22.7,6.4c-14-1-24-8-34-24s-19-39-21-54s-4-44-3-56s2-16-1-21 
			s-17.8-27.7-17.8-27.7"/> 
		<path class="st3" d="M392.2,444.3c0,0-14.2,2.7-24.2,8.7s-39,22-43,26s-23,20-29,21s-16,0-22-3s-10-10-11-15s-7-15-20-6"/> 
		<path class="st3" d="M425.7,583.5c0,0-15.7,15.5-23.7,21.5s-17,8-33,10s-26,9-38,14s-16,7-35,10s-27.3,3.1-27.3,3.1"/> 
		<path class="st3" d="M447.9,741.2c0,0-33.9-13.2-49.9-15.2s-24,2-37-6s-30-19-36-26s-22-19-22-26s8.2-31.9,8.2-31.9"/> 
	</g> 
	<g id="_Texto" class="text"> 
		<path class="st0" d="M349.4,781.9c0.5,0.6,0.7,1.4,0.7,2.2c0,1.1-0.5,2.2-1.4,2.8c-1.3,0.7-2.7,1.1-4.2,1h-7.2v-14h6.8 
			c1.4-0.1,2.8,0.3,3.9,1c0.9,0.6,1.4,1.6,1.4,2.7c0,1.3-0.7,2.5-1.9,3.1C348.2,780.9,348.9,781.3,349.4,781.9z M340.4,776.4v3.3 
			h3.2c0.6,0,1.3-0.1,1.8-0.4c0.4-0.3,0.6-0.7,0.6-1.2s-0.2-1-0.6-1.2c-0.6-0.3-1.2-0.4-1.8-0.4L340.4,776.4z M346.1,785.1 
			c0.4-0.3,0.7-0.8,0.6-1.3c0-1.2-0.9-1.7-2.6-1.7h-3.8v3.5h3.8C344.9,785.5,345.6,785.4,346.1,785.1L346.1,785.1z"/> 
		<path class="st0" d="M360.5,778.2c1,0.9,1.4,2.3,1.3,3.6v6.1h-2.9v-1.3c-0.7,1.1-2,1.7-3.3,1.5c-0.7,0-1.5-0.1-2.1-0.4 
			c-0.6-0.2-1-0.6-1.4-1.2c-0.3-0.5-0.5-1.1-0.5-1.7c0-0.9,0.4-1.8,1.1-2.4c1-0.7,2.3-1,3.5-0.9h2.5c0-0.6-0.2-1.2-0.6-1.6 
			c-0.5-0.4-1.2-0.6-1.9-0.6c-0.6,0-1.1,0.1-1.7,0.3c-0.5,0.2-1,0.4-1.4,0.7l-1.1-2.2c0.6-0.4,1.4-0.8,2.1-1 
			c0.8-0.2,1.7-0.3,2.5-0.3C358,776.9,359.4,777.3,360.5,778.2z M357.8,785.6c0.4-0.2,0.7-0.6,0.9-1.1v-1.1h-2.1 
			c-1.3,0-1.9,0.4-1.9,1.3c0,0.4,0.2,0.7,0.5,1c0.4,0.3,0.8,0.4,1.3,0.3C356.9,786,357.4,785.9,357.8,785.6L357.8,785.6z"/> 
		<path class="st0" d="M364.8,775.2c-0.7-0.6-0.7-1.7-0.1-2.4l0.1-0.1c0.4-0.3,0.9-0.5,1.4-0.5s1,0.1,1.4,0.5 
			c0.4,0.3,0.5,0.7,0.5,1.2s-0.2,1-0.5,1.3c-0.4,0.3-0.9,0.5-1.4,0.5C365.7,775.7,365.2,775.5,364.8,775.2z M364.6,777.2h3.1V788 
			h-3.1V777.2z"/> 
		<path class="st0" d="M377.5,787.9l-2.4-3.3l-2.4,3.3h-3.4l4.1-5.4l-4-5.3h3.5l2.3,3.1l2.3-3.1h3.3l-4,5.3l4.2,5.5L377.5,787.9 
			L377.5,787.9z"/> 
		<path class="st0" d="M324.4,811.7c-0.9-0.2-1.7-0.6-2.5-1.2l1.1-2.4c0.7,0.5,1.4,0.8,2.1,1.1c0.8,0.3,1.6,0.4,2.5,0.4 
			c0.7,0,1.4-0.1,2-0.4c0.4-0.2,0.7-0.6,0.7-1.1c0-0.3-0.1-0.6-0.4-0.8s-0.6-0.4-1-0.5s-1-0.3-1.6-0.4c-0.9-0.2-1.8-0.5-2.6-0.8 
			c-0.7-0.3-1.3-0.7-1.8-1.2c-0.5-0.6-0.8-1.4-0.7-2.2c0-0.8,0.2-1.6,0.7-2.2c0.5-0.7,1.2-1.3,2-1.6c1-0.4,2.1-0.6,3.3-0.6 
			c0.9,0,1.8,0.1,2.6,0.3c0.8,0.2,1.5,0.5,2.2,0.9l-1,2.5c-1.2-0.7-2.5-1.1-3.9-1.1c-0.7,0-1.4,0.1-2,0.4c-0.4,0.2-0.7,0.7-0.6,1.2 
			c0,0.5,0.3,0.9,0.8,1.1c0.7,0.3,1.5,0.5,2.3,0.7c0.9,0.2,1.8,0.5,2.6,0.8c0.7,0.2,1.3,0.7,1.8,1.2c0.5,0.6,0.8,1.4,0.7,2.2 
			c0,0.8-0.2,1.5-0.7,2.2s-1.2,1.3-2,1.6c-1,0.4-2.1,0.6-3.3,0.6C326.5,812.2,325.5,812,324.4,811.7z"/> 
		<path class="st0" d="M346,807.4h-8.1c0.1,0.6,0.5,1.2,1,1.6c0.6,0.4,1.3,0.6,2,0.6c0.5,0,1-0.1,1.5-0.3s0.9-0.4,1.2-0.8l1.7,1.8 
			c-1.1,1.2-2.8,1.9-4.4,1.7c-1.1,0-2.2-0.2-3.2-0.7c-0.9-0.4-1.6-1.1-2.2-2c-0.5-0.9-0.8-1.9-0.8-2.9s0.2-2,0.8-2.9 
			c0.5-0.8,1.2-1.5,2.1-2c1.8-0.9,4-0.9,5.8,0c0.8,0.4,1.5,1.1,2,2s0.8,1.9,0.7,3C346.1,806.6,346.1,806.9,346,807.4z M338.7,804 
			c-0.5,0.4-0.8,1-0.9,1.6h5.3c-0.1-0.6-0.4-1.2-0.9-1.6c-0.5-0.4-1.1-0.6-1.8-0.6C339.9,803.3,339.2,803.6,338.7,804L338.7,804z"/> 
		<path class="st0" d="M359.3,801.2v9c0.1,1.6-0.4,3.2-1.5,4.4c-1.3,1-2.9,1.6-4.5,1.4c-1,0-2-0.1-3-0.4c-0.8-0.2-1.6-0.6-2.3-1.1 
			l1.2-2.2c0.5,0.4,1.1,0.7,1.7,0.9c0.7,0.2,1.4,0.3,2.1,0.3c0.9,0.1,1.7-0.2,2.4-0.7c0.6-0.6,0.8-1.4,0.8-2.2v-0.5 
			c-0.9,0.9-2.1,1.4-3.4,1.3c-0.9,0-1.9-0.2-2.7-0.7c-0.8-0.4-1.5-1.1-1.9-1.8c-1-1.7-1-3.8,0-5.4c0.5-0.8,1.1-1.4,1.9-1.8 
			c0.8-0.4,1.8-0.7,2.7-0.7c1.4-0.1,2.7,0.5,3.6,1.5v-1.4L359.3,801.2z M355.4,808.1c1.1-1.1,1.1-2.8,0-3.8c-0.6-0.5-1.3-0.8-2-0.7 
			c-0.7,0-1.5,0.2-2,0.7c-1.1,1-1.1,2.7,0,3.8l0,0c0.6,0.5,1.3,0.8,2,0.7C354.1,808.9,354.9,808.6,355.4,808.1L355.4,808.1z"/> 
		<path class="st0" d="M373,801.2V812h-3v-1.3c-0.4,0.5-0.9,0.8-1.5,1.1c-0.6,0.2-1.2,0.4-1.9,0.4c-1.2,0.1-2.5-0.4-3.4-1.2 
			c-0.9-1-1.3-2.3-1.2-3.6v-6.1h3.1v5.6c0,1.7,0.7,2.6,2.2,2.6c0.7,0,1.3-0.2,1.8-0.7c0.5-0.6,0.7-1.4,0.7-2.2v-5.3L373,801.2z"/> 
		<path class="st0" d="M380.4,801.4c0.7-0.3,1.4-0.4,2.2-0.4v2.9c-0.3,0-0.6,0-0.7,0c-0.8,0-1.5,0.2-2.1,0.8 
			c-0.5,0.6-0.8,1.4-0.8,2.3v5.1h-3.1v-10.8h3v1.4C379.3,802.1,379.8,801.6,380.4,801.4z"/> 
		<path class="st0" d="M392.6,802.2c1,0.9,1.4,2.3,1.3,3.6v6.1H391v-1.3c-0.7,1.1-2,1.7-3.3,1.5c-0.7,0-1.5-0.1-2.1-0.4 
			c-0.6-0.2-1-0.6-1.4-1.2c-0.3-0.5-0.5-1.1-0.5-1.7c0-0.9,0.4-1.8,1.1-2.4c1-0.7,2.3-1,3.5-0.9h2.5c0-0.6-0.2-1.2-0.6-1.6 
			c-0.5-0.4-1.2-0.6-1.9-0.6c-0.6,0-1.1,0.1-1.7,0.3c-0.5,0.2-1,0.4-1.4,0.7l-1.1-2.2c0.6-0.4,1.4-0.8,2.1-1 
			c0.8-0.2,1.7-0.3,2.5-0.3C390.1,800.9,391.5,801.3,392.6,802.2z M389.9,809.6c0.4-0.2,0.7-0.6,0.9-1.1v-1.1h-2.1 
			c-1.3,0-1.9,0.4-1.9,1.3c0,0.4,0.2,0.7,0.5,1c0.4,0.3,0.8,0.4,1.3,0.3C389,810,389.5,809.9,389.9,809.6L389.9,809.6z"/> 
		<path class="st0" d="M391.4,649.9c0.5,0.6,0.7,1.4,0.7,2.2c0,1.1-0.5,2.2-1.4,2.8c-1.3,0.7-2.7,1.1-4.2,1h-7.2v-14h6.8 
			c1.4-0.1,2.8,0.3,3.9,1c0.9,0.6,1.4,1.6,1.4,2.7c0,1.3-0.7,2.5-1.9,3.1C390.2,648.9,390.9,649.3,391.4,649.9z M382.4,644.4v3.3 
			h3.2c0.6,0,1.3-0.1,1.8-0.4c0.4-0.3,0.6-0.7,0.6-1.2s-0.2-1-0.6-1.2c-0.6-0.3-1.2-0.4-1.8-0.4L382.4,644.4z M388.1,653.1 
			c0.4-0.3,0.7-0.8,0.6-1.3c0-1.2-0.9-1.7-2.6-1.7h-3.8v3.5h3.8C386.9,653.5,387.6,653.4,388.1,653.1L388.1,653.1z"/> 
		<path class="st0" d="M402.5,646.2c1,0.9,1.4,2.3,1.3,3.6v6.1h-2.9v-1.3c-0.7,1.1-2,1.7-3.3,1.5c-0.7,0-1.5-0.1-2.1-0.4 
			c-0.6-0.2-1-0.6-1.4-1.2c-0.3-0.5-0.5-1.1-0.5-1.7c0-0.9,0.4-1.8,1.1-2.4c1-0.7,2.3-1,3.5-0.9h2.5c0-0.6-0.2-1.2-0.6-1.6 
			c-0.5-0.4-1.2-0.6-1.9-0.6c-0.6,0-1.1,0.1-1.7,0.3c-0.5,0.2-1,0.4-1.4,0.7l-1.1-2.2c0.6-0.4,1.4-0.8,2.1-1 
			c0.8-0.2,1.7-0.3,2.5-0.3C400,644.9,401.4,645.3,402.5,646.2z M399.8,653.6c0.4-0.2,0.7-0.6,0.9-1.1v-1.1h-2.1 
			c-1.3,0-1.9,0.4-1.9,1.3c0,0.4,0.2,0.7,0.5,1c0.4,0.3,0.8,0.4,1.3,0.3C398.9,654,399.4,653.9,399.8,653.6L399.8,653.6z"/> 
		<path class="st0" d="M406.8,643.2c-0.7-0.6-0.7-1.7-0.1-2.4l0.1-0.1c0.4-0.3,0.9-0.5,1.4-0.5s1,0.1,1.4,0.5 
			c0.4,0.3,0.5,0.7,0.5,1.2s-0.2,1-0.5,1.3c-0.4,0.3-0.9,0.5-1.4,0.5C407.7,643.7,407.2,643.5,406.8,643.2z M406.6,645.2h3.1V656 
			h-3.1V645.2z"/> 
		<path class="st0" d="M419.5,655.9l-2.4-3.3l-2.4,3.3h-3.4l4.1-5.4l-4-5.3h3.5l2.3,3.1l2.3-3.1h3.3l-4,5.3l4.2,5.5L419.5,655.9 
			L419.5,655.9z"/> 
		<path class="st0" d="M368.9,665.9l-6.1,14h-3.2l-6-14h3.5l4.3,10l4.3-10H368.9z"/> 
		<path class="st0" d="M370.2,667.2c-0.7-0.6-0.7-1.7-0.1-2.4l0.1-0.1c0.4-0.3,0.9-0.5,1.4-0.5s1,0.1,1.4,0.5 
			c0.4,0.3,0.5,0.7,0.5,1.2s-0.2,1-0.5,1.3c-0.4,0.3-0.9,0.5-1.4,0.5S370.6,667.5,370.2,667.2z M370.1,669.2h3.1V680h-3.1V669.2z"/> 
		<path class="st0" d="M385.9,670.2c0.9,1,1.3,2.3,1.2,3.6v6.2H384v-5.7c0.1-0.7-0.1-1.4-0.6-1.9c-0.4-0.4-1-0.7-1.6-0.6 
			c-0.7,0-1.4,0.2-1.9,0.7c-0.5,0.6-0.8,1.4-0.7,2.2v5.3h-3.1v-10.8h3v1.3c0.4-0.5,1-0.8,1.5-1c0.6-0.3,1.3-0.4,2-0.4 
			C383.8,668.9,385,669.4,385.9,670.2z"/> 
		<path class="st0" d="M398.1,670.2c1,0.9,1.4,2.3,1.3,3.6v6.1h-2.9v-1.3c-0.7,1.1-2,1.7-3.3,1.5c-0.7,0-1.5-0.1-2.1-0.4 
			c-0.6-0.2-1-0.6-1.4-1.2c-0.3-0.5-0.5-1.1-0.5-1.7c0-0.9,0.4-1.8,1.1-2.4c1-0.7,2.3-1,3.5-0.9h2.5c0-0.6-0.2-1.2-0.6-1.6 
			c-0.5-0.4-1.2-0.6-1.9-0.6c-0.6,0-1.1,0.1-1.7,0.3c-0.5,0.2-1,0.4-1.4,0.7l-1.1-2.2c0.6-0.4,1.4-0.8,2.1-1 
			c0.8-0.2,1.7-0.3,2.5-0.3C395.7,668.9,397,669.3,398.1,670.2z M395.4,677.6c0.4-0.2,0.7-0.6,0.9-1.1v-1.1h-2.1 
			c-1.3,0-1.9,0.4-1.9,1.3c0,0.4,0.2,0.7,0.5,1c0.4,0.3,0.8,0.4,1.3,0.3C394.5,678,395,677.9,395.4,677.6L395.4,677.6z"/> 
		<path class="st0" d="M402.3,665.1h3.1v14.8h-3.1V665.1z"/> 
		<path class="st0" d="M410.4,679.4c-0.9-0.4-1.6-1.1-2.1-2c-1-1.8-1-3.9,0-5.7c0.5-0.8,1.2-1.5,2.1-2c1.9-0.9,4.2-0.9,6.1,0 
			c0.9,0.5,1.6,1.1,2.1,2c1,1.8,1,3.9,0,5.7c-0.5,0.8-1.2,1.5-2.1,2C414.5,680.3,412.3,680.3,410.4,679.4z M415.4,676.7 
			c1-1.3,1-3.1,0-4.3c-0.5-0.5-1.2-0.8-2-0.8c-0.7,0-1.5,0.3-2,0.8c-1,1.3-1,3.1,0,4.3c0.5,0.5,1.2,0.8,2,0.8 
			C414.1,677.5,414.9,677.3,415.4,676.7L415.4,676.7z"/> 
		<path class="st0" d="M430.5,669.7c0.8,0.5,1.5,1.1,1.9,1.9c0.9,1.8,0.9,4,0,5.8c-0.4,0.8-1.1,1.5-1.9,1.9 
			c-0.8,0.5-1.8,0.7-2.7,0.7c-1.2,0.1-2.4-0.4-3.2-1.3v5h-3.1v-14.6h3v1.2c0.8-1,2.1-1.5,3.4-1.4C428.7,669,429.6,669.2,430.5,669.7 
			z M429.2,676.7c1-1.3,1-3.1,0-4.3c-1.1-1.1-2.8-1.1-3.9,0c-1,1.3-1,3.1,0,4.3C426.3,677.8,428.1,677.8,429.2,676.7z"/> 
		<path class="st0" d="M437.3,679.4c-0.9-0.4-1.6-1.1-2.1-2c-1-1.8-1-3.9,0-5.7c0.5-0.8,1.2-1.5,2.1-2c1.9-0.9,4.2-0.9,6.1,0 
			c0.9,0.5,1.6,1.1,2.1,2c1,1.8,1,3.9,0,5.7c-0.5,0.8-1.2,1.5-2.1,2C441.4,680.3,439.2,680.3,437.3,679.4z M442.3,676.7 
			c1-1.3,1-3.1,0-4.3c-0.5-0.5-1.2-0.8-2-0.8c-0.7,0-1.5,0.3-2,0.8c-1,1.3-1,3.1,0,4.3c0.5,0.5,1.2,0.8,2,0.8 
			C441,677.5,441.8,677.3,442.3,676.7L442.3,676.7z M441.1,664.9h3.4l-3.6,2.9h-2.4L441.1,664.9z"/> 
		<path class="st0" d="M297.9,535.9l-6.1,14h-3.2l-6-14h3.5l4.3,10l4.3-10H297.9z"/> 
		<path class="st0" d="M299.2,537.2c-0.7-0.6-0.7-1.7-0.1-2.4l0.1-0.1c0.4-0.3,0.9-0.5,1.4-0.5s1,0.1,1.4,0.5 
			c0.4,0.3,0.5,0.7,0.5,1.2s-0.2,1-0.5,1.3c-0.4,0.3-0.9,0.5-1.4,0.5S299.6,537.5,299.2,537.2z M299.1,539.2h3.1V550h-3.1V539.2z"/> 
		<path class="st0" d="M314.9,540.2c0.9,1,1.3,2.3,1.2,3.6v6.2H313v-5.7c0.1-0.7-0.1-1.4-0.6-1.9c-0.4-0.4-1-0.7-1.6-0.6 
			c-0.7,0-1.4,0.2-1.9,0.7c-0.5,0.6-0.8,1.4-0.7,2.2v5.3h-3.1v-10.8h3v1.3c0.4-0.5,1-0.8,1.5-1c0.6-0.3,1.3-0.4,2-0.4 
			C312.8,538.9,314,539.4,314.9,540.2z"/> 
		<path class="st0" d="M327.1,540.2c1,0.9,1.4,2.3,1.3,3.6v6.1h-2.9v-1.3c-0.7,1.1-2,1.7-3.3,1.5c-0.7,0-1.5-0.1-2.1-0.4 
			c-0.6-0.2-1-0.6-1.4-1.2c-0.3-0.5-0.5-1.1-0.5-1.7c0-0.9,0.4-1.8,1.1-2.4c1-0.7,2.3-1,3.5-0.9h2.5c0-0.6-0.2-1.2-0.6-1.6 
			c-0.5-0.4-1.2-0.6-1.9-0.6c-0.6,0-1.1,0.1-1.7,0.3c-0.5,0.2-1,0.4-1.4,0.7l-1.1-2.2c0.6-0.4,1.4-0.8,2.1-1 
			c0.8-0.2,1.7-0.3,2.5-0.3C324.7,538.9,326,539.3,327.1,540.2z M324.4,547.6c0.4-0.2,0.7-0.6,0.9-1.1v-1.1h-2.1 
			c-1.3,0-1.9,0.4-1.9,1.3c0,0.4,0.2,0.7,0.5,1c0.4,0.3,0.8,0.4,1.3,0.3C323.5,548,324,547.9,324.4,547.6L324.4,547.6z"/> 
		<path class="st0" d="M331.3,535.1h3.1v14.8h-3.1V535.1z"/> 
		<path class="st0" d="M339.4,549.4c-0.9-0.4-1.6-1.1-2.1-2c-1-1.8-1-3.9,0-5.7c0.5-0.8,1.2-1.5,2.1-2c1.9-0.9,4.2-0.9,6.1,0 
			c0.9,0.5,1.6,1.1,2.1,2c1,1.8,1,3.9,0,5.7c-0.5,0.8-1.2,1.5-2.1,2C343.5,550.3,341.3,550.3,339.4,549.4z M344.4,546.7 
			c1-1.3,1-3.1,0-4.3c-0.5-0.5-1.2-0.8-2-0.8c-0.7,0-1.5,0.3-2,0.8c-1,1.3-1,3.1,0,4.3c0.5,0.5,1.2,0.8,2,0.8 
			C343.1,547.5,343.9,547.3,344.4,546.7L344.4,546.7z"/> 
		<path class="st0" d="M359.5,539.7c0.8,0.5,1.5,1.1,1.9,1.9c0.9,1.8,0.9,4,0,5.8c-0.4,0.8-1.1,1.5-1.9,1.9 
			c-0.8,0.5-1.8,0.7-2.7,0.7c-1.2,0.1-2.4-0.4-3.2-1.3v5h-3.1v-14.6h3v1.2c0.8-1,2.1-1.5,3.4-1.4C357.7,539,358.6,539.2,359.5,539.7 
			z M358.2,546.7c1-1.3,1-3.1,0-4.3c-1.1-1.1-2.8-1.1-3.9,0c-1,1.3-1,3.1,0,4.3C355.3,547.8,357.1,547.8,358.2,546.7z"/> 
		<path class="st0" d="M366.3,549.4c-0.9-0.4-1.6-1.1-2.1-2c-1-1.8-1-3.9,0-5.7c0.5-0.8,1.2-1.5,2.1-2c1.9-0.9,4.2-0.9,6.1,0 
			c0.9,0.5,1.6,1.1,2.1,2c1,1.8,1,3.9,0,5.7c-0.5,0.8-1.2,1.5-2.1,2C370.4,550.3,368.2,550.3,366.3,549.4z M371.3,546.7 
			c1-1.3,1-3.1,0-4.3c-0.5-0.5-1.2-0.8-2-0.8c-0.7,0-1.5,0.3-2,0.8c-1,1.3-1,3.1,0,4.3c0.5,0.5,1.2,0.8,2,0.8 
			C370,547.5,370.8,547.3,371.3,546.7L371.3,546.7z M370.1,534.9h3.4l-3.6,2.9h-2.4L370.1,534.9z"/> 
		<path class="st0" d="M317.6,573.9v-8.4l-4.1,6.9H312l-4.1-6.7v8.2h-3v-14h2.7l5.2,8.7l5.2-8.7h2.7v14H317.6z"/> 
		<path class="st0" d="M323.9,561.2c-0.7-0.6-0.7-1.7-0.1-2.4l0.1-0.1c0.4-0.3,0.9-0.5,1.4-0.5s1,0.1,1.4,0.5 
			c0.4,0.3,0.5,0.7,0.5,1.2s-0.2,1-0.5,1.3c-0.4,0.3-0.9,0.5-1.4,0.5S324.3,561.5,323.9,561.2z M323.7,563.2h3.1V574h-3.1V563.2z"/> 
		<path class="st0" d="M336.7,573.4c-0.3,0.2-0.7,0.4-1.1,0.5c-0.5,0.1-0.9,0.2-1.4,0.2c-1.1,0.1-2.1-0.3-3-1 
			c-0.7-0.8-1.1-1.8-1-2.9v-4.4h-1.7v-2.4h1.7v-2.6h3.1v2.6h2.7v2.4h-2.7v4.4c0,0.4,0.1,0.8,0.4,1c0.3,0.3,0.6,0.4,1,0.4 
			c0.5,0,0.9-0.1,1.3-0.4L336.7,573.4z"/> 
		<path class="st0" d="M335.1,577.4l0.8-2.3c0.4,0.3,0.9,0.4,1.3,0.4s0.7-0.1,0.9-0.4c0.3-0.3,0.4-0.8,0.3-1.2v-10.8h3.1v10.7 
			c0.1,1.1-0.3,2.2-1.1,3c-0.8,0.8-1.9,1.2-3,1.1C336.8,578,335.9,577.8,335.1,577.4z M338.7,561.2c-0.7-0.6-0.7-1.7-0.1-2.4 
			l0.1-0.1c0.4-0.3,0.9-0.5,1.4-0.5s1,0.1,1.4,0.5c0.4,0.3,0.5,0.7,0.5,1.2s-0.2,1-0.5,1.3C340.7,561.8,339.6,561.8,338.7,561.2 
			L338.7,561.2z"/> 
		<path class="st0" d="M352.8,564.2c1,0.9,1.4,2.3,1.3,3.6v6.1h-2.9v-1.3c-0.7,1.1-2,1.7-3.3,1.5c-0.7,0-1.5-0.1-2.1-0.4 
			c-0.6-0.2-1-0.6-1.4-1.2c-0.3-0.5-0.5-1.1-0.5-1.7c0-0.9,0.4-1.8,1.1-2.4c1-0.7,2.3-1,3.5-0.9h2.5c0-0.6-0.2-1.2-0.6-1.6 
			c-0.5-0.4-1.2-0.6-1.9-0.6c-0.6,0-1.1,0.1-1.7,0.3c-0.5,0.2-1,0.4-1.4,0.7l-1.1-2.2c0.6-0.4,1.4-0.8,2.1-1 
			c0.8-0.2,1.7-0.3,2.5-0.3C350.3,562.9,351.7,563.3,352.8,564.2z M350.1,571.6c0.4-0.2,0.7-0.6,0.9-1.1v-1.1h-2.1 
			c-1.3,0-1.9,0.4-1.9,1.3c0,0.4,0.2,0.7,0.5,1c0.4,0.3,0.8,0.4,1.3,0.3C349.2,572,349.7,571.9,350.1,571.6L350.1,571.6z 
			 M350.1,558.9h3.4l-3.6,2.9h-2.4L350.1,558.9z"/> 
		<path class="st0" d="M310.8,405.9h-6.5l-1.2,3h-3.3l6.2-14h3.2l6.3,14H312L310.8,405.9z M309.8,403.5l-2.2-5.4l-2.2,5.4H309.8z"/> 
		<path class="st0" d="M316.7,394.1h3.1v14.8h-3.1V394.1z"/> 
		<path class="st0" d="M330.4,408.4c-0.3,0.2-0.7,0.4-1.1,0.5c-0.5,0.1-0.9,0.2-1.4,0.2c-1.1,0.1-2.1-0.3-3-1 
			c-0.7-0.8-1.1-1.8-1-2.9v-4.4h-1.7v-2.4h1.7v-2.6h3.1v2.6h2.7v2.4H327v4.4c0,0.4,0.1,0.8,0.4,1c0.3,0.3,0.6,0.4,1,0.4 
			c0.5,0,0.9-0.1,1.3-0.4L330.4,408.4z"/> 
		<path class="st0" d="M283.9,418.9l-6.1,14h-3.2l-6-14h3.5l4.3,10l4.3-10H283.9z"/> 
		<path class="st0" d="M285.2,420.2c-0.7-0.6-0.7-1.7-0.1-2.4l0.1-0.1c0.4-0.3,0.9-0.5,1.4-0.5s1,0.1,1.4,0.5 
			c0.4,0.3,0.5,0.7,0.5,1.2s-0.2,1-0.5,1.3c-0.4,0.3-0.9,0.5-1.4,0.5S285.6,420.5,285.2,420.2z M285.1,422.2h3.1V433h-3.1V422.2z"/> 
		<path class="st0" d="M300.9,423.2c0.9,1,1.3,2.3,1.2,3.6v6.2H299v-5.7c0.1-0.7-0.1-1.4-0.6-1.9c-0.4-0.4-1-0.7-1.6-0.6 
			c-0.7,0-1.4,0.2-1.9,0.7c-0.5,0.6-0.8,1.4-0.7,2.2v5.3h-3.1v-10.8h3v1.3c0.4-0.5,1-0.8,1.5-1c0.6-0.3,1.3-0.4,2-0.4 
			C298.8,421.9,300,422.4,300.9,423.2z"/> 
		<path class="st0" d="M313.1,423.2c1,0.9,1.4,2.3,1.3,3.6v6.1h-2.9v-1.3c-0.7,1.1-2,1.7-3.3,1.5c-0.7,0-1.5-0.1-2.1-0.4 
			c-0.6-0.2-1-0.6-1.4-1.2c-0.3-0.5-0.5-1.1-0.5-1.7c0-0.9,0.4-1.8,1.1-2.4c1-0.7,2.3-1,3.5-0.9h2.5c0-0.6-0.2-1.2-0.6-1.6 
			c-0.5-0.4-1.2-0.6-1.9-0.6c-0.6,0-1.1,0.1-1.7,0.3c-0.5,0.2-1,0.4-1.4,0.7l-1.1-2.2c0.6-0.4,1.4-0.8,2.1-1 
			c0.8-0.2,1.7-0.3,2.5-0.3C310.7,421.9,312,422.3,313.1,423.2z M310.4,430.6c0.4-0.2,0.7-0.6,0.9-1.1v-1.1h-2.1 
			c-1.3,0-1.9,0.4-1.9,1.3c0,0.4,0.2,0.7,0.5,1c0.4,0.3,0.8,0.4,1.3,0.4C309.5,431,310,430.9,310.4,430.6L310.4,430.6z"/> 
		<path class="st0" d="M317.3,418.1h3.1v14.8h-3.1V418.1z"/> 
		<path class="st0" d="M325.4,432.4c-0.9-0.4-1.6-1.1-2.1-2c-1-1.8-1-3.9,0-5.7c0.5-0.8,1.2-1.5,2.1-2c1.9-0.9,4.2-0.9,6.1,0 
			c0.9,0.5,1.6,1.1,2.1,2c1,1.8,1,3.9,0,5.7c-0.5,0.8-1.2,1.5-2.1,2C329.5,433.3,327.3,433.3,325.4,432.4z M330.4,429.7 
			c1-1.3,1-3.1,0-4.3c-0.5-0.5-1.2-0.8-2-0.8c-0.7,0-1.5,0.3-2,0.8c-1,1.3-1,3.1,0,4.3c0.5,0.5,1.2,0.8,2,0.8 
			C329.1,430.5,329.9,430.3,330.4,429.7L330.4,429.7z"/> 
		<path class="st0" d="M345.5,422.7c0.8,0.5,1.5,1.1,1.9,1.9c0.9,1.8,0.9,4,0,5.8c-0.4,0.8-1.1,1.5-1.9,1.9 
			c-0.8,0.5-1.8,0.7-2.7,0.7c-1.2,0.1-2.4-0.4-3.2-1.3v5h-3.1v-14.6h3v1.2c0.8-1,2.1-1.5,3.4-1.4C343.7,422,344.6,422.2,345.5,422.7 
			z M344.2,429.7c1-1.3,1-3.1,0-4.3c-1.1-1.1-2.8-1.1-3.9,0c-1,1.3-1,3.1,0,4.3C341.3,430.8,343.1,430.8,344.2,429.7z"/> 
		<path class="st0" d="M352.3,432.4c-0.9-0.4-1.6-1.1-2.1-2c-1-1.8-1-3.9,0-5.7c0.5-0.8,1.2-1.5,2.1-2c1.9-0.9,4.2-0.9,6.1,0 
			c0.9,0.5,1.6,1.1,2.1,2c1,1.8,1,3.9,0,5.7c-0.5,0.8-1.2,1.5-2.1,2C356.4,433.3,354.2,433.3,352.3,432.4z M357.3,429.7 
			c1-1.3,1-3.1,0-4.3c-0.5-0.5-1.2-0.8-2-0.8c-0.7,0-1.5,0.3-2,0.8c-1,1.3-1,3.1,0,4.3c0.5,0.5,1.2,0.8,2,0.8 
			C356,430.5,356.8,430.3,357.3,429.7L357.3,429.7z M356.1,417.9h3.4l-3.6,2.9h-2.4L356.1,417.9z"/> 
		<path class="st0" d="M409.9,381.9h3.2v11.4h7v2.6h-10.3L409.9,381.9z"/> 
		<path class="st0" d="M423.4,381.5c0.4,0.4,0.6,0.9,0.5,1.4c0,0.3,0,0.5-0.1,0.8c-0.1,0.4-0.3,0.8-0.4,1.2l-1.2,2.9h-2l0.9-3.2 
			c-0.3-0.1-0.6-0.4-0.8-0.7c-0.2-0.3-0.3-0.7-0.3-1.1c0-0.5,0.2-1,0.5-1.4c0.4-0.4,0.9-0.5,1.4-0.5 
			C422.6,380.9,423,381.1,423.4,381.5z"/> 
		<path class="st0" d="M434.8,392.9h-6.5l-1.2,3h-3.3l6.2-14h3.2l6.3,14H436L434.8,392.9z M433.8,390.5l-2.2-5.4l-2.2,5.4H433.8z"/> 
		<path class="st0" d="M440.7,381.1h3.1v14.8h-3.1V381.1z"/> 
		<path class="st0" d="M448.8,395.4c-0.9-0.4-1.6-1.1-2.1-2c-1-1.8-1-4,0-5.7c0.5-0.8,1.3-1.5,2.1-2c1-0.5,2-0.7,3.1-0.7 
			c1,0,2.1,0.2,3,0.7c0.8,0.5,1.5,1.2,1.9,2l-2.4,1.3c-0.5-0.9-1.4-1.5-2.4-1.5c-0.8,0-1.5,0.3-2,0.8c-1.1,1.3-1.1,3.1,0,4.4 
			c0.5,0.5,1.3,0.8,2,0.8c1,0,2-0.6,2.4-1.5l2.4,1.3c-0.4,0.8-1,1.6-1.9,2c-0.9,0.5-1.9,0.7-3,0.7 
			C450.8,396.1,449.8,395.9,448.8,395.4z"/> 
		<path class="st0" d="M460.4,395.4c-0.9-0.4-1.6-1.1-2.1-2c-1-1.8-1-3.9,0-5.7c0.5-0.8,1.2-1.5,2.1-2s2-0.7,3-0.7 
			c1.1,0,2.1,0.2,3,0.7s1.6,1.1,2.1,2c1,1.8,1,3.9,0,5.7c-0.5,0.8-1.2,1.5-2.1,2s-2,0.7-3,0.7S461.4,395.9,460.4,395.4z 
			 M465.5,392.7c1-1.3,1-3.1,0-4.3c-0.5-0.5-1.2-0.8-2-0.8c-0.7,0-1.5,0.3-2,0.8c-1,1.3-1,3.1,0,4.3c0.5,0.5,1.2,0.8,2,0.8 
			C464.2,393.5,465,393.3,465.5,392.7L465.5,392.7z"/> 
		<path class="st0" d="M471.6,383.2c-0.7-0.6-0.7-1.7-0.1-2.4l0.1-0.1c0.4-0.3,0.9-0.5,1.4-0.5s1,0.1,1.4,0.5 
			c0.4,0.3,0.5,0.7,0.5,1.2s-0.2,1-0.5,1.3c-0.4,0.3-0.9,0.5-1.4,0.5S472,383.5,471.6,383.2z M471.5,385.2h3.1V396h-3.1V385.2z"/> 
		<path class="st0" d="M485.7,386.2c1,0.9,1.4,2.3,1.3,3.6v6.1h-2.9v-1.3c-0.7,1.1-2,1.7-3.3,1.5c-0.7,0-1.5-0.1-2.1-0.4 
			c-0.6-0.2-1-0.6-1.4-1.2c-0.3-0.5-0.5-1.1-0.5-1.7c0-0.9,0.4-1.8,1.1-2.4c1-0.7,2.3-1,3.5-0.9h2.5c0-0.6-0.2-1.2-0.6-1.6 
			c-0.5-0.4-1.2-0.6-1.9-0.6c-0.6,0-1.1,0.1-1.7,0.3c-0.5,0.2-1,0.4-1.4,0.7l-1.1-2.2c0.6-0.4,1.4-0.8,2.1-1 
			c0.8-0.2,1.7-0.3,2.5-0.3C483.2,384.9,484.6,385.3,485.7,386.2z M477.9,380.9h3.4l2.7,2.9h-2.4L477.9,380.9z M483,393.6 
			c0.4-0.2,0.7-0.6,0.9-1.1v-1.1h-2.1c-1.3,0-1.9,0.4-1.9,1.3c0,0.4,0.2,0.7,0.5,1c0.4,0.3,0.8,0.4,1.3,0.4 
			C482.1,394,482.6,393.9,483,393.6L483,393.6z"/> 
		<path class="st0" d="M489.9,477.9h3.2v11.4h7v2.6h-10.3L489.9,477.9z"/> 
		<path class="st0" d="M503.4,477.5c0.4,0.4,0.6,0.9,0.5,1.4c0,0.3,0,0.5-0.1,0.8c-0.1,0.4-0.3,0.8-0.4,1.2l-1.2,2.9h-2l0.9-3.2 
			c-0.3-0.1-0.6-0.4-0.8-0.7c-0.2-0.3-0.3-0.7-0.3-1.1c0-0.5,0.2-1,0.5-1.4c0.4-0.4,0.9-0.5,1.4-0.5 
			C502.5,476.9,503,477.1,503.4,477.5z"/> 
		<path class="st0" d="M514.8,488.9h-6.5l-1.2,3h-3.3l6.2-14h3.2l6.3,14H516L514.8,488.9z M513.8,486.5l-2.2-5.4l-2.2,5.4H513.8z"/> 
		<path class="st0" d="M520.7,477.1h3.1v14.8h-3.1V477.1z"/> 
		<path class="st0" d="M534.9,482.2c1,0.9,1.4,2.3,1.3,3.6v6.1h-2.9v-1.3c-0.7,1.1-2,1.7-3.3,1.5c-0.7,0-1.5-0.1-2.2-0.4 
			c-0.6-0.2-1-0.6-1.4-1.2c-0.3-0.5-0.5-1.1-0.5-1.7c0-0.9,0.4-1.8,1.1-2.4c1-0.7,2.3-1,3.5-0.9h2.5c0-0.6-0.2-1.2-0.6-1.6 
			c-0.5-0.4-1.2-0.6-1.9-0.6c-0.6,0-1.1,0.1-1.7,0.3c-0.5,0.2-1,0.4-1.4,0.7l-1.1-2.2c0.6-0.4,1.4-0.8,2.1-1 
			c0.8-0.2,1.7-0.3,2.5-0.3C532.4,480.9,533.8,481.3,534.9,482.2z M532.2,489.6c0.4-0.2,0.7-0.6,0.9-1.1v-1.1H531 
			c-1.3,0-1.9,0.4-1.9,1.3c0,0.4,0.2,0.7,0.5,1c0.4,0.3,0.8,0.4,1.3,0.4C531.3,490,531.8,489.9,532.2,489.6L532.2,489.6z"/> 
		<path class="st0" d="M541.3,491.4c-0.9-0.4-1.6-1.1-2.1-2c-1-1.8-1-4,0-5.7c0.5-0.8,1.3-1.5,2.1-2c1-0.5,2-0.7,3.1-0.7 
			c1,0,2.1,0.2,3,0.7c0.8,0.5,1.5,1.2,1.8,2l-2.4,1.3c-0.5-0.9-1.4-1.5-2.4-1.5c-0.8,0-1.5,0.3-2,0.8c-1.1,1.3-1.1,3.1,0,4.4 
			c0.5,0.5,1.3,0.8,2,0.8c1,0,2-0.6,2.4-1.5l2.4,1.3c-0.4,0.8-1,1.6-1.8,2c-0.9,0.5-1.9,0.7-3,0.7 
			C543.3,492.1,542.2,491.9,541.3,491.4z"/> 
		<path class="st0" d="M559.1,482.2c1,0.9,1.4,2.3,1.3,3.6v6.1h-2.9v-1.3c-0.7,1.1-2,1.7-3.3,1.5c-0.7,0-1.5-0.1-2.1-0.4 
			c-0.6-0.2-1-0.6-1.4-1.2c-0.3-0.5-0.5-1.1-0.5-1.7c0-0.9,0.4-1.8,1.1-2.4c1-0.7,2.3-1,3.5-0.9h2.5c0-0.6-0.2-1.2-0.6-1.6 
			c-0.5-0.4-1.2-0.6-1.9-0.6c-0.6,0-1.1,0.1-1.7,0.3c-0.5,0.2-1,0.4-1.4,0.7l-1.1-2.2c0.6-0.4,1.4-0.8,2.1-1 
			c0.8-0.2,1.7-0.3,2.5-0.3C556.7,480.9,558.1,481.3,559.1,482.2z M556.5,489.6c0.4-0.2,0.7-0.6,0.9-1.1v-1.1h-2.1 
			c-1.3,0-1.9,0.4-1.9,1.3c0,0.4,0.2,0.7,0.5,1c0.4,0.3,0.8,0.4,1.3,0.4C555.6,490,556.1,489.9,556.5,489.6L556.5,489.6z"/> 
		<path class="st0" d="M573.1,482.2c0.9,1,1.3,2.3,1.2,3.6v6.2h-3.1v-5.7c0.1-0.7-0.1-1.4-0.6-1.9c-0.4-0.4-1-0.7-1.6-0.6 
			c-0.7,0-1.4,0.2-1.9,0.7c-0.5,0.6-0.8,1.4-0.7,2.2v5.3h-3.1v-10.8h3v1.3c0.4-0.5,1-0.8,1.5-1c0.6-0.3,1.3-0.4,2-0.4 
			C571,480.9,572.2,481.4,573.1,482.2z"/> 
		<path class="st0" d="M584.1,491.4c-0.3,0.2-0.7,0.4-1.1,0.5c-0.5,0.1-0.9,0.2-1.4,0.2c-1.1,0.1-2.1-0.3-3-1 
			c-0.7-0.8-1.1-1.8-1-2.9v-4.4h-1.7v-2.4h1.7v-2.6h3.1v2.6h2.7v2.4h-2.7v4.4c0,0.4,0.1,0.8,0.3,1c0.3,0.3,0.6,0.4,1,0.4 
			c0.5,0,0.9-0.1,1.3-0.4L584.1,491.4z"/> 
		<path class="st0" d="M588.3,476.9h3.4l-3.6,2.9h-2.4L588.3,476.9z M585.8,481.2h3.1V492h-3.1V481.2z"/> 
		<path class="st0" d="M661.7,386.9v-8.4l-4.1,6.9h-1.5l-4.1-6.7v8.2h-3v-14h2.7l5.2,8.7l5.2-8.7h2.7v14H661.7z"/> 
		<path class="st0" d="M676,377.2c1,0.9,1.4,2.3,1.3,3.6v6.1h-2.9v-1.3c-0.7,1.1-2,1.7-3.3,1.5c-0.7,0-1.5-0.1-2.1-0.4 
			c-0.6-0.2-1-0.6-1.4-1.2c-0.3-0.5-0.5-1.1-0.5-1.7c0-0.9,0.4-1.8,1.1-2.4c1-0.7,2.3-1,3.5-0.9h2.5c0-0.6-0.2-1.2-0.6-1.6 
			c-0.5-0.4-1.2-0.6-1.9-0.6c-0.6,0-1.1,0.1-1.7,0.3c-0.5,0.2-1,0.4-1.4,0.7l-1.1-2.2c0.6-0.4,1.4-0.8,2.1-1 
			c0.8-0.2,1.7-0.3,2.5-0.3C673.5,375.9,674.9,376.3,676,377.2z M673.3,384.6c0.4-0.2,0.7-0.6,0.9-1.1v-1.1h-2.1 
			c-1.3,0-1.9,0.4-1.9,1.3c0,0.4,0.2,0.7,0.5,1c0.4,0.3,0.8,0.4,1.3,0.4C672.4,385,672.9,384.9,673.3,384.6L673.3,384.6z"/> 
		<path class="st0" d="M684.6,376.4c0.7-0.3,1.4-0.4,2.2-0.4v2.9c-0.3,0-0.6,0-0.7,0c-0.8,0-1.5,0.2-2.1,0.8 
			c-0.5,0.6-0.8,1.4-0.8,2.3v5.1h-3.1v-10.8h3v1.4C683.5,377.1,684,376.6,684.6,376.4z"/> 
		<path class="st0" d="M688.8,374.2c-0.7-0.6-0.7-1.7-0.1-2.4l0.1-0.1c0.4-0.3,0.9-0.5,1.4-0.5s1,0.1,1.4,0.5 
			c0.4,0.3,0.5,0.7,0.5,1.2s-0.2,1-0.5,1.3c-0.4,0.3-0.9,0.5-1.4,0.5S689.2,374.5,688.8,374.2z M688.7,376.2h3.1V387h-3.1V376.2z"/> 
		<path class="st0" d="M704.5,377.2c0.9,1,1.3,2.3,1.2,3.6v6.2h-3.1v-5.7c0.1-0.7-0.1-1.4-0.6-1.9c-0.4-0.4-1-0.7-1.6-0.6 
			c-0.7,0-1.4,0.2-1.9,0.7c-0.5,0.6-0.8,1.4-0.7,2.2v5.3h-3.1v-10.8h3v1.3c0.4-0.5,1-0.8,1.5-1c0.6-0.3,1.3-0.4,2-0.4 
			C702.4,375.9,703.6,376.4,704.5,377.2z"/> 
		<path class="st0" d="M716.7,377.2c1,0.9,1.4,2.3,1.3,3.6v6.1h-2.9v-1.3c-0.7,1.1-2,1.7-3.3,1.5c-0.7,0-1.5-0.1-2.1-0.4 
			c-0.6-0.2-1-0.6-1.4-1.2c-0.3-0.5-0.5-1.1-0.5-1.7c0-0.9,0.4-1.8,1.1-2.4c1-0.7,2.3-1,3.5-0.9h2.5c0-0.6-0.2-1.2-0.6-1.6 
			c-0.5-0.4-1.2-0.6-1.9-0.6c-0.6,0-1.1,0.1-1.7,0.3c-0.5,0.2-1,0.4-1.4,0.7l-1.1-2.2c0.6-0.4,1.4-0.8,2.1-1 
			c0.8-0.2,1.7-0.3,2.5-0.3C714.2,375.9,715.6,376.3,716.7,377.2z M714,384.6c0.4-0.2,0.7-0.6,0.9-1.1v-1.1h-2.1 
			c-1.3,0-1.9,0.4-1.9,1.3c0,0.4,0.2,0.7,0.5,1c0.4,0.3,0.8,0.4,1.3,0.4C713.1,385,713.6,384.9,714,384.6L714,384.6z"/> 
		<path class="st0" d="M668.3,404.9c0.5,0.6,0.7,1.4,0.7,2.2c0,1.1-0.5,2.2-1.4,2.8c-1.3,0.7-2.7,1.1-4.2,1h-7.2v-14h6.8 
			c1.4-0.1,2.8,0.3,3.9,1c0.9,0.6,1.4,1.6,1.4,2.7c0,1.3-0.7,2.5-1.9,3.1C667.2,403.9,667.8,404.3,668.3,404.9z M659.4,399.4v3.3 
			h3.2c0.6,0,1.3-0.1,1.8-0.4c0.4-0.3,0.6-0.7,0.6-1.2s-0.2-1-0.6-1.2c-0.6-0.3-1.2-0.4-1.8-0.4L659.4,399.4z M665.1,408.1 
			c0.4-0.3,0.7-0.8,0.7-1.3c0-1.2-0.9-1.7-2.6-1.7h-3.8v3.5h3.8C663.8,408.5,664.5,408.4,665.1,408.1L665.1,408.1z"/> 
		<path class="st0" d="M679.4,401.2c1,0.9,1.4,2.3,1.3,3.6v6.1h-2.9v-1.3c-0.7,1.1-2,1.7-3.3,1.5c-0.7,0-1.5-0.1-2.1-0.4 
			c-0.6-0.2-1-0.6-1.4-1.2c-0.3-0.5-0.5-1.1-0.5-1.7c0-0.9,0.4-1.8,1.1-2.4c1-0.7,2.3-1,3.5-0.9h2.5c0-0.6-0.2-1.2-0.6-1.6 
			c-0.5-0.4-1.2-0.6-1.9-0.6c-0.6,0-1.1,0.1-1.7,0.3c-0.5,0.2-1,0.4-1.4,0.7l-1.1-2.2c0.6-0.4,1.4-0.8,2.1-1 
			c0.8-0.2,1.7-0.3,2.5-0.3C677,399.9,678.3,400.3,679.4,401.2z M676.7,408.6c0.4-0.2,0.7-0.6,0.9-1.1v-1.1h-2.1 
			c-1.3,0-1.9,0.4-1.9,1.3c0,0.4,0.2,0.7,0.5,1c0.4,0.3,0.8,0.4,1.3,0.4C675.8,409,676.3,408.9,676.7,408.6L676.7,408.6z"/> 
		<path class="st0" d="M683.7,398.2c-0.7-0.6-0.7-1.7-0.1-2.4l0.1-0.1c0.4-0.3,0.9-0.5,1.4-0.5s1,0.1,1.4,0.5 
			c0.4,0.3,0.5,0.7,0.5,1.2s-0.2,1-0.5,1.3c-0.4,0.3-0.9,0.5-1.4,0.5C684.6,398.7,684.1,398.5,683.7,398.2z M683.6,400.2h3.1V411 
			h-3.1V400.2z"/> 
		<path class="st0" d="M696.4,410.9l-2.4-3.3l-2.4,3.3h-3.4l4.1-5.4l-4-5.3h3.5l2.3,3.1l2.3-3.1h3.3l-4,5.3l4.2,5.5h-3.5V410.9z"/> 
		<path class="st0" d="M709.5,401.2c1,0.9,1.4,2.3,1.3,3.6v6.1h-2.9v-1.3c-0.7,1.1-2,1.7-3.3,1.5c-0.7,0-1.5-0.1-2.1-0.4 
			c-0.6-0.2-1-0.6-1.4-1.2c-0.3-0.5-0.5-1.1-0.5-1.7c0-0.9,0.4-1.8,1.1-2.4c1-0.7,2.3-1,3.5-0.9h2.5c0-0.6-0.2-1.2-0.6-1.6 
			c-0.5-0.4-1.2-0.6-1.9-0.6c-0.6,0-1.1,0.1-1.7,0.3c-0.5,0.2-1,0.4-1.4,0.7l-1.1-2.2c0.6-0.4,1.4-0.8,2.1-1 
			c0.8-0.2,1.7-0.3,2.5-0.3C707,399.9,708.4,400.3,709.5,401.2z M706.8,408.6c0.4-0.2,0.7-0.6,0.9-1.1v-1.1h-2.1 
			c-1.3,0-1.9,0.4-1.9,1.3c0,0.4,0.2,0.7,0.5,1c0.4,0.3,0.8,0.4,1.3,0.4C705.9,409,706.4,408.9,706.8,408.6L706.8,408.6z"/> 
		<path class="st0" d="M769.7,288.9v-8.4l-4.1,6.9h-1.5l-4.1-6.7v8.2h-3v-14h2.7l5.2,8.7l5.2-8.7h2.7v14H769.7z"/> 
		<path class="st0" d="M784,279.2c1,0.9,1.4,2.3,1.3,3.6v6.1h-2.9v-1.3c-0.7,1.1-2,1.7-3.3,1.5c-0.7,0-1.5-0.1-2.1-0.4 
			c-0.6-0.2-1-0.6-1.4-1.2c-0.3-0.5-0.5-1.1-0.5-1.7c0-0.9,0.4-1.8,1.1-2.4c1-0.7,2.3-1,3.5-0.9h2.5c0-0.6-0.2-1.2-0.6-1.6 
			c-0.5-0.4-1.2-0.6-1.9-0.6c-0.6,0-1.1,0.1-1.7,0.3c-0.5,0.2-1,0.4-1.4,0.7l-1.1-2.2c0.6-0.4,1.4-0.8,2.1-1 
			c0.8-0.2,1.7-0.3,2.5-0.3C781.5,277.9,782.9,278.3,784,279.2z M781.3,286.6c0.4-0.2,0.7-0.6,0.9-1.1v-1.1h-2.1 
			c-1.3,0-1.9,0.4-1.9,1.3c0,0.4,0.2,0.7,0.5,1c0.4,0.3,0.8,0.4,1.3,0.4C780.4,287,780.9,286.9,781.3,286.6L781.3,286.6z"/> 
		<path class="st0" d="M792.6,278.4c0.7-0.3,1.4-0.4,2.2-0.4v2.9c-0.3,0-0.6,0-0.7,0c-0.8,0-1.5,0.2-2.1,0.8 
			c-0.5,0.6-0.8,1.4-0.8,2.3v5.1h-3.1v-10.8h3v1.4C791.5,279.1,792,278.6,792.6,278.4z"/> 
		<path class="st0" d="M796.8,276.2c-0.7-0.6-0.7-1.7-0.1-2.4l0.1-0.1c0.4-0.3,0.9-0.5,1.4-0.5s1,0.1,1.4,0.5 
			c0.4,0.3,0.5,0.7,0.5,1.2s-0.2,1-0.5,1.3c-0.4,0.3-0.9,0.5-1.4,0.5S797.2,276.5,796.8,276.2z M796.7,278.2h3.1V289h-3.1V278.2z"/> 
		<path class="st0" d="M812.5,279.2c0.9,1,1.3,2.3,1.2,3.6v6.2h-3.1v-5.7c0.1-0.7-0.1-1.4-0.6-1.9c-0.4-0.4-1-0.7-1.6-0.6 
			c-0.7,0-1.4,0.2-1.9,0.7c-0.5,0.6-0.8,1.4-0.7,2.2v5.3h-3.1v-10.8h3v1.3c0.4-0.5,1-0.8,1.5-1c0.6-0.3,1.3-0.4,2-0.4 
			C810.4,277.9,811.6,278.4,812.5,279.2z"/> 
		<path class="st0" d="M824.7,279.2c1,0.9,1.4,2.3,1.3,3.6v6.1h-2.9v-1.3c-0.7,1.1-2,1.7-3.3,1.5c-0.7,0-1.5-0.1-2.1-0.4 
			c-0.6-0.2-1-0.6-1.4-1.2c-0.3-0.5-0.5-1.1-0.5-1.7c0-0.9,0.4-1.8,1.1-2.4c1-0.7,2.3-1,3.5-0.9h2.5c0-0.6-0.2-1.2-0.6-1.6 
			c-0.5-0.4-1.2-0.6-1.9-0.6c-0.6,0-1.1,0.1-1.7,0.3c-0.5,0.2-1,0.4-1.4,0.7l-1.1-2.2c0.6-0.4,1.4-0.8,2.1-1 
			c0.8-0.2,1.7-0.3,2.5-0.3C822.2,277.9,823.6,278.3,824.7,279.2z M822,286.6c0.4-0.2,0.7-0.6,0.9-1.1v-1.1h-2.1 
			c-1.3,0-1.9,0.4-1.9,1.3c0,0.4,0.2,0.7,0.5,1c0.4,0.3,0.8,0.4,1.3,0.4C821.1,287,821.6,286.9,822,286.6L822,286.6z"/> 
		<path class="st0" d="M780.6,309.9h-6.5l-1.2,3h-3.3l6.2-14h3.2l6.3,14h-3.4L780.6,309.9z M779.6,307.5l-2.2-5.4l-2.2,5.4H779.6z" 
			/> 
		<path class="st0" d="M786.5,298.1h3.1v14.8h-3.1V298.1z"/> 
		<path class="st0" d="M800.3,312.4c-0.3,0.2-0.7,0.4-1.1,0.5c-0.5,0.1-0.9,0.2-1.4,0.2c-1.1,0.1-2.1-0.3-3-1 
			c-0.7-0.8-1.1-1.8-1-2.9v-4.4H792v-2.4h1.7v-2.6h3.1v2.6h2.7v2.4h-2.7v4.4c0,0.4,0.1,0.8,0.3,1c0.3,0.3,0.6,0.4,1,0.4 
			c0.5,0,0.9-0.1,1.3-0.4L800.3,312.4z"/> 
		<path class="st0" d="M810.2,303.2c1,0.9,1.4,2.3,1.3,3.6v6.1h-2.9v-1.3c-0.7,1.1-2,1.7-3.3,1.5c-0.7,0-1.5-0.1-2.1-0.4 
			c-0.6-0.2-1-0.6-1.4-1.2c-0.3-0.5-0.5-1.1-0.5-1.7c0-0.9,0.4-1.8,1.1-2.4c1-0.7,2.3-1,3.5-0.9h2.5c0-0.6-0.2-1.2-0.6-1.6 
			c-0.5-0.4-1.2-0.6-1.9-0.6c-0.6,0-1.1,0.1-1.7,0.3c-0.5,0.2-1,0.4-1.4,0.7l-1.1-2.2c0.6-0.4,1.4-0.8,2.1-1 
			c0.8-0.2,1.7-0.3,2.5-0.3C807.7,301.9,809.1,302.3,810.2,303.2z M807.5,310.6c0.4-0.2,0.7-0.6,0.9-1.1v-1.1h-2.1 
			c-1.3,0-1.9,0.4-1.9,1.3c0,0.4,0.2,0.7,0.5,1c0.4,0.3,0.8,0.4,1.3,0.4C806.6,311,807.1,310.9,807.5,310.6L807.5,310.6z"/> 
		<path class="st0" d="M547.3,297.7c-1.1-0.6-2.1-1.5-2.7-2.6c-1.3-2.3-1.3-5.1,0-7.5c0.7-1.1,1.6-2,2.7-2.6 
			c2.2-1.1,4.9-1.2,7.2-0.3c1,0.4,1.8,1,2.5,1.8l-2.1,1.9c-0.9-1.1-2.2-1.7-3.5-1.6c-0.8,0-1.6,0.2-2.3,0.6s-1.2,0.9-1.6,1.6 
			c-0.8,1.5-0.8,3.2,0,4.6c0.4,0.7,0.9,1.2,1.6,1.6c0.7,0.4,1.5,0.6,2.3,0.6c1.4,0,2.7-0.6,3.5-1.7l2.1,1.9 
			c-0.7,0.8-1.5,1.4-2.5,1.9c-1,0.4-2.2,0.7-3.3,0.6C549.8,298.7,548.5,298.4,547.3,297.7z"/> 
		<path class="st0" d="M560.6,297.9c-0.9-0.4-1.6-1.1-2.1-2c-1-1.8-1-3.9,0-5.7c0.5-0.8,1.2-1.5,2.1-2c1.9-0.9,4.2-0.9,6.1,0 
			c0.9,0.5,1.6,1.1,2.1,2c1,1.8,1,3.9,0,5.7c-0.5,0.8-1.2,1.5-2.1,2C564.7,298.8,562.5,298.8,560.6,297.9z M565.6,295.2 
			c1-1.3,1-3.1,0-4.3c-0.5-0.5-1.2-0.8-2-0.8c-0.7,0-1.5,0.3-2,0.8c-1,1.3-1,3.1,0,4.3c0.5,0.5,1.2,0.8,2,0.8 
			C564.4,296,565.1,295.7,565.6,295.2L565.6,295.2z"/> 
		<path class="st0" d="M588.6,288.7c0.9,1,1.3,2.3,1.2,3.6v6.2h-3.1v-5.7c0.1-0.7-0.1-1.4-0.5-1.9c-0.4-0.4-0.9-0.7-1.5-0.6 
			c-0.7,0-1.3,0.2-1.7,0.7c-0.5,0.6-0.7,1.4-0.6,2.1v5.4h-3.1v-5.7c0-1.7-0.7-2.5-2-2.5c-0.7,0-1.3,0.2-1.7,0.7 
			c-0.5,0.6-0.7,1.4-0.6,2.1v5.4h-3.1v-10.8h3v1.2c0.4-0.5,0.9-0.8,1.5-1s1.3-0.4,1.9-0.4c0.7,0,1.4,0.1,2.1,0.5 
			c0.6,0.3,1.1,0.7,1.5,1.3c0.4-0.6,1-1,1.7-1.3s1.4-0.5,2.2-0.5C586.6,287.4,587.7,287.9,588.6,288.7z"/> 
		<path class="st0" d="M599.5,297.9c-0.3,0.2-0.7,0.4-1.1,0.5c-0.5,0.1-0.9,0.2-1.4,0.2c-1.1,0.1-2.1-0.3-3-1 
			c-0.7-0.8-1.1-1.8-1-2.9v-4.4h-1.7v-2.4h1.7v-2.6h3.1v2.6h2.7v2.4h-2.7v4.4c0,0.4,0.1,0.8,0.3,1c0.3,0.3,0.6,0.4,1,0.4 
			c0.5,0,0.9-0.1,1.3-0.4L599.5,297.9z"/> 
		<path class="st0" d="M609.5,288.7c1,0.9,1.4,2.3,1.3,3.6v6.1h-2.9v-1.3c-0.7,1.1-2,1.7-3.3,1.5c-0.7,0-1.5-0.1-2.1-0.4 
			c-0.6-0.2-1-0.6-1.4-1.2c-0.3-0.5-0.5-1.1-0.5-1.7c0-0.9,0.4-1.8,1.1-2.4c1-0.7,2.3-1,3.5-0.9h2.5c0-0.6-0.2-1.2-0.6-1.6 
			c-0.5-0.4-1.2-0.6-1.9-0.6c-0.6,0-1.1,0.1-1.7,0.3c-0.5,0.2-1,0.4-1.4,0.7l-1.1-2.2c0.6-0.4,1.4-0.8,2.1-1 
			c0.8-0.2,1.7-0.3,2.5-0.3C607,287.4,608.4,287.8,609.5,288.7z M606.8,296.1c0.4-0.2,0.7-0.6,0.9-1.1v-1.1h-2.1 
			c-1.3,0-1.9,0.4-1.9,1.3c0,0.4,0.2,0.7,0.5,1c0.4,0.3,0.8,0.4,1.3,0.4C605.9,296.5,606.4,296.4,606.8,296.1L606.8,296.1z"/> 
		<path class="st0" d="M620.6,297.9c-0.3,0.2-0.7,0.4-1.1,0.5c-0.5,0.1-0.9,0.2-1.4,0.2c-1.1,0.1-2.1-0.3-3-1 
			c-0.7-0.8-1.1-1.8-1-2.9v-4.4h-1.7v-2.4h1.7v-2.6h3.1v2.6h2.7v2.4h-2.7v4.4c0,0.4,0.1,0.8,0.3,1c0.3,0.3,0.6,0.4,1,0.4 
			c0.5,0,0.9-0.1,1.3-0.4L620.6,297.9z"/> 
	</g> 
</g> 
</svg> 
