<?xml version="1.0" encoding="utf-8"?>
<!-- Generator: Adobe Illustrator 24.0.2, SVG Export Plug-In . SVG Version: 6.00 Build 0)  -->
<svg version="1.1" id="Capa_1" xmlns="http://www.w3.org/2000/svg" xmlns:xlink="http://www.w3.org/1999/xlink" x="0px" y="0px"
	 viewBox="0 0 1080 1080" style="enable-background:new 0 0 1080 1080;" xml:space="preserve">
<style type="text/css">
	.st1{fill:#FFFFFF;}
	.st2{fill:none;stroke:#FFFFFF;stroke-width:8;stroke-miterlimit:10;}
</style>
<g id="2_Crevillente" class="zone">
	<path class="st0" d="M346.8,623.2c-0.7-1.5-1.3-2.9-1.8-4.1c-3.9-9-6.9-17.2-9.4-24.4c-2.5-7.1-4.7-13.2-7-17.7
		c-5.6-10.9-1.4-31.6,1.2-35.7c1.4-2.5,2.8-15.9,0.7-20.6c-3.4-7.9-4-13.1-1.9-16.8c0.2-0.4,0.5-0.9,0.9-1.5c1.3-2.1,3.7-6,2.7-8
		l-0.7-1.6c-2.3-4.7-4.1-9.6-5.6-14.7c-1-4.4-1.7-8.9-2.1-13.4c-0.2-2.1-0.4-4.1-0.7-5.4c-0.3-2.7-0.4-5.4-0.4-8.1
		c0.1-6.6-0.3-13.2-1.1-19.7c-0.8-5.3-2.1-10.4-3.8-15.5c-1.8-5.9-3.6-12-4-18.2c-0.4-5.7,1.2-10.4,2.6-14.5
		c1.2-3.5,2.3-6.8,2.2-10.5c0-0.7,0-1.4,0-2.1c-0.1-5.7-0.1-12.1-12.4-24.5c-9.1,3.4-17.9,6.4-25.6,8.5
		c-32.4,8.8-49.5,16.2-76.3,33.2c-27.7,17.5-62.3,31.1-85.2,40.1l-2.2,0.9c-2.4,1-4.7,2-7.9,3.4c-5.9,2.6-14.9,6.6-33.8,14.2
		l-4.2,1.7c-22.5,9-38.7,15.5-39.8,21c0,0.1-0.5,3.1,7.8,14.2c5.3,7,12.1,14.7,17.1,20.3c1.2,1.3,2.2,2.5,3.2,3.6
		c7.4,8.4,11.8,30.3,15.1,46.4c1.2,5.9,2.2,11,3.1,13.6c1.9,5.8,16.4,24.1,26.9,37.5c5.7,7.2,11,13.9,14.2,18.4
		c5.2,7.4,11.4,8.9,17.9,10.6c4.1,1.1,8.3,2.1,12.2,4.7c6.7,4.4,13.5,13.2,20.7,22.5c3.2,4.2,6.6,8.5,10,12.5
		c8.3,9.7,21.5,42.2,34.6,75.8c1.5,3.8,2.6,6.8,3.4,8.6c1.3,3,1.2,6.5-0.2,9.4c-4.6,10.1-23.2,16.5-35.5,20.7l-1.4,0.5
		c-1.6,0.5-3.2,1.2-4.8,1.9c0.9,0.5,2.2,1.2,4.1,2c5.7,2.6,9.3,1.7,14.9,0.4c1.4-0.3,2.9-0.7,4.5-1c7.3-1.4,11.4-4.7,11.8-5.8
		c0.4-5.6,4.5-7.9,12.5-12.5l0.6-0.4c6.5-3.8,12.7-12.3,16.4-18.9c4.1-7.5,20.3-15.2,34.1-20c15.2-5.2,28.4-4.5,45.8,2.4
		c12.4,4.9,30.6,15.1,45.3,23.2c1.9,1,3.7,2,5.4,3c0-17.2,0-62.2-0.7-74.7C369.2,674.2,353.5,638.5,346.8,623.2z"/>
</g>
<g id="2_Elche" class="zone">
	<path class="st0" d="M696.2,812.9c-2.1-1.2-3.5-3.2-3.8-5.6c-1.1-6.1,0.1-12.6,3.1-16.5c1.3-1.6,2.5-5.9,2.2-7.6
		c-0.5-0.2-1-0.4-1.5-0.6c-4.1-1.7-10.4-4.2-12.7-10c-1-2.2-12-5.6-23.6-4.4c-11.9,1.2-20.8,1.8-26.7-1.8c-1.8-1.1-6.5-2.4-18.3-2.4
		c-9.4,0-15-5.4-16.9-16.2c-2-11.4,1.5-18.4,10.3-20.8c0.9-0.3,2.7-0.7,4.9-1.2c20-5,31.2-8.4,33.2-10.1c4-3.6,25.1-27,28.9-33.6
		c4.2-7.3,13.7-17.7,18.8-21.5c4.2-3.1,10.8-12.1,10.5-16.1l-0.1-0.6c-0.4-5.1-0.8-9,1.8-11.9c1.5-1.5,3.5-2.4,5.6-2.4
		c0.1,0,0.1,0,0.2,0c2.5,0,6.6,0.8,11.4,1.7c4.7,0.9,10.6,2.1,13,1.9c4.3-0.3,23.3-9,25.8-13c0.8-1.3,1.7-2.9,2.6-4.6
		c3.4-6.2,6.6-12.1,11.6-12.9c3.2-0.7,19.1-12.3,21.6-16.2c3.2-5,14.5-15.8,22.7-18c6.9-1.8,19.6-8.6,22-11.7c0.8-1,1.8-2.2,2.9-3.5
		c2.5-2.9,9.1-10.7,9.1-13.1c-0.1-2.1-2.4-6.6-3.9-9.6c-1.5-3-2.7-5.4-3.1-7.3c-0.1-0.3-0.2-0.8-0.3-1.5c-1.4-7-5.8-28.2-6.2-40
		c-0.1-3.8-0.1-8.5-0.1-13.5c0-10.7,0.1-25.4-1.5-29.6c-0.4-1.1-1.2-2.8-2-4.7c-5.3-11.8-13.2-29.6-3.3-35.7
		c5.4-3.3,10.5-2.3,14.3-1.5c3.4,0.7,4.5,0.8,5.3-0.1c2.9-2.9,6.7-14.8,5.7-22.2c-0.8-5.9,2.4-13.6,4-17.7c0.2-0.5,0.4-1,0.5-1.3
		c1.5-3.8,6.6-11.7,9.9-13.7c1.7-1,3.5-1.6,5.4-2c2.5-0.7,3-0.9,3.1-1.4c0.6-2.3-0.8-6.7-1.6-9.3c-0.4-1.3-0.7-2.3-0.9-3.1
		c-0.2-0.9-0.3-2-0.4-3.1c-0.1-1.6-0.4-3.2-0.8-4.7c-1.3-1.2-3.3-3.1-4.6-4.4c-6.2,0.4-12,0.1-16.9-2.2
		c-5.5-2.6-16.4-14.3-32.4-31.7c-8.3-9-16-17.4-21.1-22.1C790.5,245,780.2,235,771.4,220c-8.1-13.7-20.2-21.7-28.6-26.5
		c-8.6-4.9-20.3-3.3-24.9-2.4c-8.8,1.8-41.8,0.7-51.1,0.1c-2-0.1-3.9-0.3-5.7-0.5c-7.7-0.8-12.8-1.3-18.9,2.3
		c-5,3-14.3,5.7-24.9,8.8c-9.3,2.7-18.9,5.5-26.6,8.8c-17.6,7.4-51.7,16.2-67.4,18.9c-11.9,2.1-30.7,13.1-41.9,19.7
		c-3.5,2.1-6.3,3.7-8.3,4.7c-3.9,2-9.3,5.6-15.6,9.7c-6.2,4.1-13.3,8.8-20.5,13c-7.6,4.4-16.3,6.8-23.3,8.8
		c-4.1,1.1-9.7,2.7-10.9,3.8c-3.5,7.3-11.8,15-25.2,23.5c-11.4,7.2-37.8,20-63.2,30.1c12.2,13.2,12.2,21.4,12.3,27.5
		c0,0.6,0,1.3,0,1.9c0.2,5.2-1.2,9.4-2.6,13.4c-1.3,3.7-2.5,7.3-2.2,11.3c0.4,5.3,2,10.7,3.7,16.5c1.8,5.5,3.1,11.1,4,16.7
		c0.9,6.9,1.2,13.8,1.1,20.8c-0.1,2.2,0,4.5,0.2,6.7c0.3,1.6,0.5,3.6,0.7,6c0.3,4.1,0.9,8.1,1.8,12.1c1.4,4.6,3.1,9.2,5.2,13.5
		l0.7,1.6c2.6,5.9-1.2,12.1-3.2,15.5c-0.3,0.5-0.5,0.9-0.7,1.2c-0.2,0.3-0.9,2.3,2.3,9.8c3.1,7.3,1.4,23.7-1.3,28.1
		c-1.6,2.7-4.8,20-0.9,27.8c2.5,5,4.8,11.3,7.4,18.6c2.5,7.1,5.4,15.2,9.2,23.9c0.5,1.2,1.1,2.6,1.8,4.1
		c8.1,18.3,23.1,52.4,23.9,67.5c0.8,14.2,0.7,67.8,0.7,79.7c20.1,13.3,91.7,84.9,96.6,90.5c4.8,5.4,27.1,5.9,34.5,6.1
		c0.9,0,1.6,0,2.3,0.1c8.9,0.3,32.5-3.5,44-11.5c8.4-5.8,16.7-8.5,23.4-10.6c2.9-0.8,5.7-1.9,8.4-3.2c2.6-1.6,6.1-2.2,10.1-2.2
		c6.6,0,14.7,1.6,22.6,3.2l2.6,0.5c15,3,17.5,11.6,16.7,26.4c-0.8,15.1,1.6,18.3,7.6,20.3c8.9,3,19.2,2,24.5,1.1
		c4.3-0.7,7.4-6.1,7.8-9.7c0.6-5.6,7.2-30.3,11.8-39.9c2.3-4.8,7.6-14.6,13.2-24.5c-1.1,0.2-2.1,0.3-3.2,0.3
		C699.6,814.2,697.8,813.7,696.2,812.9z"/>
</g>
<g id="2_Santa_Pola" class="zone">
	<path class="st0" d="M903.3,574.2c-0.5-11.7,1.3-23.4,5.4-34.4c1.2-3.2,2.3-7.3,3.4-11.6c2.6-9.7,5.4-20.3,10.7-26.4
		c-1.8-2.9-4-5.7-5.2-6.3c-3.6-1.9-10.2-3.7-13.8-1.1c-5.2,3.8-10,7.9-12.2,10.6c-0.8,1-1.1,3.5-1.3,5.5c-0.3,3.2-0.7,6.5-3.4,8.4
		c-2.3,1.6-15.1,12.7-24,20.6c0,0.1,0,0.2,0,0.2c0.2,5-4.7,11.1-11,18.6c-1.1,1.3-2.1,2.4-2.7,3.2c-4.3,5.5-19.8,12.8-26.3,14.5
		c-5.6,1.5-15.5,10.7-18,14.6c-3.3,5.2-21.3,18.8-27,19.8c-1.5,0.7-4.3,6-5.8,8.8c-1,1.8-1.9,3.5-2.9,5c-4.3,6.8-25.9,16.3-32,16.7
		c-3.4,0.2-9-0.9-15-2c-3.2-0.7-6.5-1.2-9.7-1.6c-0.1,1.9,0,3.7,0.2,5.6l0.1,0.6c0.7,8.6-9.5,20.1-13.7,23.2
		c-3.8,2.9-12.7,12.4-16.6,19.1c-4.5,7.7-26.5,31.9-30.5,35.5c-3.5,3.2-16.1,6.8-36.6,11.9c-2.1,0.5-3.8,1-4.7,1.2
		c-2.5,0.7-6.3,1.7-4.5,11.7c1.5,8.8,5.3,9.5,9,9.5c7.1,0,17.2,0.4,22.5,3.6c3.7,2.2,12.4,1.6,21.7,0.6c10.9-1.1,28.5,1.1,31.8,9.4
		c1.1,2.6,5.2,4.3,8.3,5.5c0.9,0.4,1.7,0.7,2.5,1c1.9,0.9,3.3,2.7,3.8,4.8c1.2,4.7-1.3,11.7-3.6,14.6c-1.3,1.8-2.4,5.9-1.6,10.2
		c0,0,0,0.1,0,0.1c0.5,0.2,2.6,0.6,9.9-1.9c3.8-6.5,7.3-12.3,9.5-15.7c7.5-11.4,15.8-27.1,16.5-33.7c0.7-7.1,10.2-19.6,20.8-32.9
		c2-2.5,3.8-4.7,4.8-6.1c3.5-4.8,12.9-11.2,21.2-16.9c4.4-3,8.6-5.9,10.5-7.6c6.9-6.2,29-10.3,36.9-11.4c3.9-0.5,7.8-0.7,11.6-0.6
		c3.6,0.1,7.3-0.2,10.8-0.9c6.8-1.5,20.4-0.7,42.9,2.5c12.9,1.8,36,3.1,45.5,3.1c7.5,0,25,0,33.8-4c10-4.6,30.7-16.8,34.3-21.2
		c4.4-5.5,11.4-18.4,12.1-25.1c0.2-2.1,0.5-3.8,0.8-5.3c-16.6-6-87.7-31.7-99.8-36.4C909.8,587.1,903.8,583.2,903.3,574.2z"/>
</g>
<g id="2_Gran_Alacant" class="zone">
	<path class="st0" d="M1018,568.2c-2.2,0.4-4.5,0-6.5-1c-5.6-2.9-7.1-10.2-8.2-15.6c-0.3-1.2-0.5-2.3-0.7-3.1
		c-1.6-5.6-3.7-11-6.3-16.3c-4.3-8.4-17.1-17.2-21-19.7c-6.2-4.1-30.3-8.5-42.2-7.8c-6.6,0.4-10.4,14.9-13.2,25.5
		c-1.2,4.5-2.3,8.8-3.6,12.3c-3.7,9.9-5.4,20.5-4.9,31.2c0.2,3.1,0.3,5.5,13.9,10.9c11.6,4.6,81.1,29.7,98.8,36.1
		c0.5-2,1.1-4.4,1.7-7.7c1.9-10.2-0.1-23.7-3.2-29.5C1020.4,579.6,1019,573.9,1018,568.2z"/>
</g>
<g id="2_Arenales_del_Sol" class="zone">
	<path class="st0" d="M984.1,451.3c-1.8,3-3,7.8-3.8,11.6c-0.4,1.7-0.8,3.5-1.3,5.4c-0.9,3.3-1.6,6.7-2.2,10.2c-0.1,1.2-0.4,3-0.7,5
		c-0.6,3.9-1.3,8.8-1.5,11.9c-0.2,3.1-0.5,5.8-0.7,7.8c2,0.7,3.9,1.6,5.7,2.7c5.4,3.6,18.6,12.9,23.7,22.7
		c2.8,5.7,5.1,11.6,6.8,17.7c0.3,1.1,0.6,2.3,0.9,3.7c0.7,3.4,1.9,9,4.1,10.1c0.4,0.2,0.9,0.3,1.4,0.2c-0.4-2.3-0.8-4.5-1.2-6.4
		c-0.4-2-1.2-5.2-2-8.8c-2.8-12.2-6.7-28.8-7.1-36.6c-0.5-9.2-4-34.6-6.3-51.5l-0.4-2.6c-0.3-2-0.6-4.2-0.9-6.5
		C986.7,447.1,984.9,450,984.1,451.3z"/>
</g>
<g id="2_El_Altet_-_Balsares" class="zone">
	<path class="st0" d="M888,324c0.1,0.4,0.4,1.4,0.7,2.3c1.2,3.7,2.9,9.2,1.7,13.7c-1.3,5.2-5.9,6.4-8.9,7.1
		c-1.1,0.2-2.1,0.6-3.1,1.1c-1.3,0.9-5.5,6.6-6.7,9.8c-0.1,0.4-0.4,0.9-0.6,1.5c-1.2,2.9-4,9.8-3.5,13.6c1.2,9.1-2.8,23.6-7.9,28.9
		c-4,4.1-9,3.1-12.6,2.4c-3.6-0.7-5.9-1.1-8.4,0.5c-0.9,0.6-1.5,3.3,0,9c1.5,5.6,4.3,12,6.4,16.7c0.9,2.1,1.7,3.8,2.2,5.1
		c1.9,5.2,2.1,16.7,2,32.5c0,5,0,9.6,0.1,13.2c0.2,7.4,2.3,20.4,6,38.7c0.1,0.7,0.3,1.2,0.3,1.5c0.7,1.8,1.5,3.6,2.4,5.3
		c0.7,1.4,1.5,2.9,2.1,4.3c6.5-5.8,18.1-15.9,21.6-18.5c0.2-1,0.3-2,0.4-2.9c0.3-3,0.7-6.8,3-9.7c2.7-3.3,7.8-7.8,13.7-12.1
		c8.6-6.2,20.8-0.2,22.2,0.5c3.1,1.6,6.2,5.8,8.2,8.9c1-0.3,2-0.5,3.1-0.6c8.4-0.5,22.6,1.2,33.7,4c0.2-1.7,0.4-3.8,0.5-6
		c0.2-3.4,1-8.4,1.6-12.5c0.3-2,0.5-3.7,0.7-4.8c0.6-3.8,1.3-7.5,2.3-11.1c0.5-1.9,0.9-3.6,1.2-5.2c1-4.7,2.4-10.1,4.8-14
		c3.4-5.7,9.4-7.9,20.3-7.3c-1.2-9.4-2.5-19.7-3.5-28.1c-0.7-5.8-1.3-10.6-1.6-13.1c-0.5-3.7-2.1-4.8-5.8-7.2
		c-2.2-1.4-4.3-2.9-6.2-4.7c-4.9-4.5-8.1-16.4-11.6-29c-1.7-6.3-3.3-12.2-5-16.6c-4.9-12.8-16.6-28.8-23.2-35.4
		c-8.5-8.5-11-6-13.1-4.1c-6.5,6.2-17.8,7.7-33.2,9.1c-3.2,0.3-6.4,0.7-9.5,1.1l-0.3,0c2.3,2.4,2.7,6.1,3.1,9.5
		C887.8,322.6,887.9,323.5,888,324z"/>
</g>
<g id="_Texto" class="text">
	<path class="st1" d="M499,423.7v2h-8.1v-10.5h7.9v2h-5.5v2.3h4.9v1.9h-4.9v2.4L499,423.7z"/>
	<path class="st1" d="M500.8,414.5h2.3v11.1h-2.3V414.5z"/>
	<path class="st1" d="M506.9,425.2c-0.7-0.3-1.2-0.8-1.6-1.5c-1.2-1.9-0.6-4.4,1.3-5.6c0.1-0.1,0.2-0.1,0.3-0.2
		c0.7-0.4,1.5-0.5,2.3-0.5c0.8,0,1.5,0.2,2.2,0.5c0.6,0.3,1.1,0.9,1.4,1.5l-1.8,1c-0.3-0.7-1-1.1-1.8-1.1c-0.6,0-1.1,0.2-1.5,0.6
		c-0.8,0.9-0.8,2.3,0,3.3c0.4,0.4,0.9,0.6,1.5,0.6c0.8,0,1.5-0.4,1.8-1.1l1.8,1c-0.3,0.6-0.8,1.2-1.4,1.5c-0.7,0.4-1.5,0.6-2.2,0.5
		C508.4,425.8,507.6,425.6,506.9,425.2z"/>
	<path class="st1" d="M521.5,418.4c0.7,0.7,1,1.7,0.9,2.7v4.6H520v-4.3c0-0.5-0.1-1-0.4-1.4c-0.3-0.3-0.8-0.5-1.2-0.5
		c-0.5,0-1,0.2-1.4,0.5c-0.4,0.5-0.6,1-0.5,1.6v4h-2.3v-11.1h2.3v3.9c0.3-0.3,0.7-0.6,1.1-0.7c0.5-0.2,0.9-0.3,1.4-0.2
		C519.9,417.4,520.8,417.7,521.5,418.4z"/>
	<path class="st1" d="M532.4,422.3h-6.1c0.1,0.5,0.4,0.9,0.8,1.2c0.5,0.3,1,0.5,1.5,0.4c0.4,0,0.8-0.1,1.1-0.2
		c0.3-0.1,0.6-0.3,0.9-0.6l1.2,1.4c-0.9,0.9-2.1,1.4-3.3,1.3c-0.8,0-1.7-0.2-2.4-0.5c-0.7-0.3-1.2-0.8-1.6-1.5
		c-0.4-0.6-0.6-1.4-0.6-2.1c0-0.8,0.2-1.5,0.6-2.1c0.4-0.6,0.9-1.1,1.5-1.5c1.4-0.7,3-0.7,4.3,0c0.6,0.3,1.2,0.8,1.5,1.5
		c0.4,0.7,0.6,1.4,0.5,2.2C532.5,421.7,532.5,421.9,532.4,422.3z M527,419.7c-0.4,0.3-0.6,0.8-0.7,1.2h4c-0.1-0.5-0.3-0.9-0.7-1.2
		c-0.4-0.3-0.8-0.5-1.3-0.5C527.8,419.2,527.3,419.4,527,419.7L527,419.7z"/>
	<path class="st1" d="M541.7,413h2.1l-5,14.1h-2.1L541.7,413z"/>
	<path class="st1" d="M556.7,423.7v2h-8.1v-10.5h7.9v2H551v2.3h4.9v1.9H551v2.4L556.7,423.7z"/>
	<path class="st1" d="M558.5,414.5h2.3v11.1h-2.3V414.5z"/>
	<path class="st1" d="M568.1,425.7l-1.8-2.5l-1.8,2.5H562l3.1-4.1l-3-4h2.6l1.7,2.4l1.8-2.4h2.5l-3,3.9l3.1,4.1L568.1,425.7z"/>
	<circle id="Texto" class="st1" cx="532.6" cy="436.4" r="3.7"/>
	<path class="st1" d="M870.4,470.4c0.3,0.5,0.5,1.1,0.5,1.6c0,0.8-0.4,1.7-1.1,2.1c-0.9,0.6-2,0.8-3.1,0.7h-5.4v-10.5h5.1
		c1-0.1,2.1,0.2,2.9,0.7c0.7,0.4,1.1,1.2,1,2c0,1-0.5,1.9-1.4,2.3C869.6,469.6,870.1,469.9,870.4,470.4z M863.7,466.2v2.5h2.4
		c0.5,0,1-0.1,1.4-0.3c0.3-0.2,0.5-0.6,0.5-0.9c0-0.4-0.2-0.7-0.5-0.9c-0.4-0.2-0.9-0.3-1.4-0.3L863.7,466.2z M868,472.7
		c0.3-0.2,0.5-0.6,0.5-1c0-0.9-0.6-1.3-1.9-1.3h-2.8v2.6h2.8C867,473.1,867.5,473,868,472.7z"/>
	<path class="st1" d="M878.7,467.6c0.7,0.7,1.1,1.7,1,2.7v4.6h-2.2v-1c-0.5,0.8-1.5,1.2-2.5,1.1c-0.6,0-1.1-0.1-1.6-0.3
		c-0.4-0.2-0.8-0.5-1-0.9c-0.2-0.4-0.4-0.8-0.4-1.3c0-0.7,0.3-1.4,0.8-1.8c0.8-0.5,1.7-0.7,2.6-0.6h1.9c0-0.4-0.1-0.9-0.5-1.2
		c-0.4-0.3-0.9-0.5-1.4-0.4c-0.4,0-0.9,0.1-1.3,0.2c-0.4,0.1-0.7,0.3-1.1,0.5l-0.8-1.6c0.5-0.3,1-0.6,1.6-0.7
		c0.6-0.2,1.3-0.3,1.9-0.3C876.9,466.6,877.9,466.9,878.7,467.6z M876.7,473.1c0.3-0.2,0.5-0.5,0.7-0.8v-0.8h-1.6
		c-1,0-1.4,0.3-1.4,0.9c0,0.3,0.1,0.5,0.4,0.7c0.3,0.2,0.6,0.3,1,0.3C876,473.4,876.4,473.3,876.7,473.1z"/>
	<path class="st1" d="M881.9,463.7h2.3v11.1h-2.3V463.7z"/>
	<path class="st1" d="M887.1,474.8c-0.5-0.1-1.1-0.3-1.5-0.6l0.8-1.7c0.4,0.3,0.8,0.4,1.3,0.6c0.5,0.1,1,0.2,1.5,0.2
		c1,0,1.5-0.2,1.5-0.7c0-0.2-0.2-0.4-0.4-0.5c-0.4-0.1-0.8-0.2-1.2-0.3c-0.6-0.1-1.1-0.2-1.6-0.3c-0.4-0.1-0.8-0.4-1.1-0.7
		c-0.3-0.4-0.5-0.9-0.5-1.4c0-0.5,0.1-1,0.4-1.4c0.3-0.4,0.8-0.7,1.3-0.9c0.6-0.2,1.3-0.3,2-0.3c0.6,0,1.1,0.1,1.7,0.2
		c0.5,0.1,1,0.3,1.4,0.5l-0.8,1.7c-0.7-0.4-1.5-0.6-2.3-0.6c-0.4,0-0.8,0-1.1,0.2c-0.2,0.1-0.4,0.3-0.4,0.5c0,0.2,0.2,0.5,0.4,0.5
		c0.4,0.1,0.9,0.2,1.3,0.3c0.5,0.1,1.1,0.2,1.6,0.4c0.4,0.1,0.8,0.4,1.1,0.7c0.3,0.4,0.5,0.9,0.5,1.4c0,0.5-0.2,1-0.5,1.3
		c-0.3,0.4-0.8,0.7-1.3,0.9c-0.7,0.2-1.4,0.3-2,0.3C888.4,475,887.8,474.9,887.1,474.8z"/>
	<path class="st1" d="M900.5,467.6c0.7,0.7,1.1,1.7,1,2.7v4.6h-2.2v-1c-0.5,0.8-1.5,1.2-2.5,1.1c-0.6,0-1.1-0.1-1.6-0.3
		c-0.4-0.2-0.8-0.5-1-0.9c-0.2-0.4-0.4-0.8-0.4-1.3c0-0.7,0.3-1.4,0.8-1.8c0.8-0.5,1.7-0.7,2.6-0.6h1.9c0-0.4-0.1-0.9-0.5-1.2
		c-0.4-0.3-0.9-0.5-1.4-0.4c-0.4,0-0.9,0.1-1.3,0.2c-0.4,0.1-0.7,0.3-1.1,0.5l-0.8-1.6c0.5-0.3,1-0.6,1.6-0.7
		c0.6-0.2,1.3-0.3,1.9-0.3C898.6,466.6,899.7,466.9,900.5,467.6z M898.5,473.1c0.3-0.2,0.5-0.5,0.7-0.8v-0.8h-1.6
		c-1,0-1.4,0.3-1.4,0.9c0,0.3,0.1,0.5,0.4,0.7c0.3,0.2,0.6,0.3,1,0.3C897.8,473.4,898.2,473.3,898.5,473.1z"/>
	<path class="st1" d="M907,467c0.5-0.2,1.1-0.3,1.6-0.3v2.2c-0.3,0-0.4,0-0.5,0c-0.6,0-1.1,0.2-1.6,0.6c-0.4,0.5-0.6,1.1-0.6,1.7
		v3.8h-2.3v-8.1h2.2v1.1C906.1,467.5,906.5,467.2,907,467z"/>
	<path class="st1" d="M917.8,471.5h-6.1c0.1,0.5,0.4,0.9,0.8,1.2c0.5,0.3,1,0.5,1.5,0.4c0.4,0,0.8-0.1,1.1-0.2
		c0.3-0.1,0.6-0.3,0.9-0.6l1.2,1.4c-0.9,0.9-2.1,1.4-3.3,1.3c-0.8,0-1.7-0.2-2.4-0.5c-0.7-0.3-1.2-0.8-1.6-1.5
		c-0.4-0.6-0.6-1.4-0.6-2.1c0-0.8,0.2-1.5,0.6-2.1c0.4-0.6,0.9-1.1,1.5-1.5c1.4-0.7,3-0.7,4.3,0c0.6,0.3,1.2,0.8,1.5,1.5
		c0.4,0.7,0.6,1.4,0.5,2.2C917.8,470.9,917.8,471.1,917.8,471.5z M912.3,468.9c-0.4,0.3-0.6,0.8-0.7,1.2h4c-0.1-0.5-0.3-0.9-0.7-1.2
		c-0.4-0.3-0.8-0.5-1.3-0.5C913.2,468.4,912.7,468.6,912.3,468.9L912.3,468.9z"/>
	<path class="st1" d="M920.1,474.8c-0.5-0.1-1.1-0.3-1.5-0.6l0.8-1.7c0.4,0.3,0.8,0.4,1.3,0.6c0.5,0.1,1,0.2,1.5,0.2
		c1,0,1.5-0.2,1.5-0.7c0-0.2-0.2-0.4-0.4-0.5c-0.4-0.1-0.8-0.2-1.2-0.3c-0.6-0.1-1.1-0.2-1.6-0.3c-0.4-0.1-0.8-0.4-1.1-0.7
		c-0.3-0.4-0.5-0.9-0.5-1.4c0-0.5,0.1-1,0.4-1.4c0.3-0.4,0.8-0.7,1.3-0.9c0.6-0.2,1.3-0.3,2-0.3c0.6,0,1.1,0.1,1.7,0.2
		c0.5,0.1,1,0.3,1.4,0.5l-0.8,1.7c-0.7-0.4-1.5-0.6-2.3-0.6c-0.4,0-0.8,0-1.1,0.2c-0.2,0.1-0.4,0.3-0.4,0.5c0,0.2,0.2,0.5,0.4,0.5
		c0.4,0.1,0.9,0.2,1.3,0.3c0.5,0.1,1.1,0.2,1.6,0.4c0.4,0.1,0.8,0.4,1.1,0.7c0.3,0.4,0.5,0.9,0.5,1.4c0,0.5-0.2,1-0.5,1.3
		c-0.3,0.4-0.8,0.7-1.3,0.9c-0.7,0.2-1.4,0.3-2,0.3C921.4,475,920.8,474.9,920.1,474.8z"/>
	<path class="st1" d="M954.9,552.2h2.2v4.3c-0.6,0.4-1.3,0.8-2,1c-0.7,0.2-1.5,0.3-2.3,0.3c-1,0-2-0.2-2.9-0.7
		c-0.8-0.4-1.6-1.1-2-1.9c-1-1.7-1-3.9,0-5.6c0.5-0.8,1.2-1.5,2.1-1.9c0.9-0.5,1.9-0.7,3-0.7c0.9,0,1.7,0.1,2.5,0.5
		c0.7,0.3,1.4,0.8,1.9,1.3l-1.6,1.4c-0.7-0.8-1.7-1.2-2.7-1.2c-0.6,0-1.2,0.1-1.8,0.4c-0.5,0.3-0.9,0.7-1.2,1.2
		c-0.6,1.1-0.6,2.4,0,3.5c0.3,0.5,0.7,0.9,1.2,1.2c0.5,0.3,1.1,0.4,1.8,0.4c0.7,0,1.3-0.1,1.9-0.4L954.9,552.2z"/>
	<path class="st1" d="M962.5,549.7c0.5-0.2,1.1-0.3,1.6-0.3v2.2c-0.3,0-0.4,0-0.5,0c-0.6,0-1.1,0.2-1.6,0.6
		c-0.4,0.5-0.6,1.1-0.6,1.7v3.8h-2.3v-8.1h2.2v1.1C961.7,550.2,962.1,549.9,962.5,549.7z"/>
	<path class="st1" d="M971.7,550.3c0.7,0.7,1.1,1.7,1,2.7v4.6h-2.2v-1c-0.5,0.8-1.5,1.2-2.5,1.1c-0.6,0-1.1-0.1-1.6-0.3
		c-0.4-0.2-0.8-0.5-1-0.9c-0.2-0.4-0.4-0.8-0.4-1.3c0-0.7,0.3-1.4,0.8-1.8c0.8-0.5,1.7-0.7,2.6-0.6h1.9c0-0.4-0.1-0.9-0.5-1.2
		c-0.4-0.3-0.9-0.4-1.4-0.4c-0.4,0-0.9,0.1-1.3,0.2c-0.4,0.1-0.7,0.3-1.1,0.5l-0.8-1.6c0.5-0.3,1-0.6,1.6-0.7
		c0.6-0.2,1.3-0.3,1.9-0.3C969.8,549.4,970.8,549.7,971.7,550.3z M969.7,555.9c0.3-0.2,0.5-0.5,0.7-0.8v-0.8h-1.6
		c-1,0-1.4,0.3-1.4,0.9c0,0.3,0.1,0.5,0.4,0.7c0.3,0.2,0.6,0.3,1,0.3C969,556.2,969.3,556.1,969.7,555.9L969.7,555.9z"/>
	<path class="st1" d="M982.1,550.3c0.7,0.7,1,1.7,0.9,2.7v4.6h-2.3v-4.3c0-0.5-0.1-1-0.4-1.4c-0.3-0.3-0.8-0.5-1.2-0.5
		c-0.5,0-1,0.2-1.4,0.5c-0.4,0.5-0.6,1-0.5,1.6v4h-2.3v-8.1h2.2v0.9c0.3-0.3,0.7-0.6,1.2-0.8c0.5-0.2,1-0.3,1.5-0.3
		C980.6,549.4,981.4,549.7,982.1,550.3z"/>
	<path class="st1" d="M943.3,573.4h-4.9l-0.9,2.3H935l4.7-10.5h2.4l4.7,10.5h-2.6L943.3,573.4z M942.5,571.5l-1.7-4l-1.7,4H942.5z"
		/>
	<path class="st1" d="M947.7,564.5h2.3v11.1h-2.3V564.5z"/>
	<path class="st1" d="M958.3,568.3c0.7,0.7,1.1,1.7,1,2.7v4.6h-2.2v-1c-0.5,0.8-1.5,1.2-2.5,1.1c-0.6,0-1.1-0.1-1.6-0.3
		c-0.4-0.2-0.8-0.5-1-0.9c-0.2-0.4-0.4-0.8-0.4-1.3c0-0.7,0.3-1.4,0.8-1.8c0.8-0.5,1.7-0.7,2.6-0.6h1.9c0-0.4-0.1-0.9-0.5-1.2
		c-0.4-0.3-0.9-0.4-1.4-0.4c-0.4,0-0.9,0.1-1.3,0.2c-0.4,0.1-0.7,0.3-1.1,0.5l-0.8-1.6c0.5-0.3,1-0.6,1.6-0.7
		c0.6-0.2,1.3-0.3,1.9-0.3C956.5,567.4,957.5,567.7,958.3,568.3z M956.3,573.9c0.3-0.2,0.5-0.5,0.7-0.8v-0.8h-1.6
		c-1,0-1.4,0.3-1.4,0.9c0,0.3,0.1,0.5,0.4,0.7c0.3,0.2,0.6,0.3,1,0.3C955.6,574.2,956,574.1,956.3,573.9z"/>
	<path class="st1" d="M963.1,575.2c-0.7-0.3-1.2-0.8-1.6-1.5c-0.8-1.3-0.8-3,0-4.3c0.4-0.6,0.9-1.1,1.6-1.5c0.7-0.4,1.5-0.5,2.3-0.5
		c0.8,0,1.5,0.2,2.2,0.5c0.6,0.3,1.1,0.9,1.4,1.5l-1.8,1c-0.3-0.7-1-1.1-1.8-1.1c-0.6,0-1.1,0.2-1.5,0.6c-0.8,0.9-0.8,2.3,0,3.3
		c0.4,0.4,0.9,0.6,1.5,0.6c0.8,0,1.5-0.4,1.8-1.1l1.8,1c-0.3,0.6-0.8,1.2-1.4,1.5c-0.7,0.4-1.5,0.6-2.2,0.5
		C964.6,575.8,963.8,575.6,963.1,575.2z"/>
	<path class="st1" d="M976.5,568.3c0.7,0.7,1.1,1.7,1,2.7v4.6h-2.2v-1c-0.5,0.8-1.5,1.2-2.5,1.1c-0.6,0-1.1-0.1-1.6-0.3
		c-0.4-0.2-0.8-0.5-1-0.9c-0.2-0.4-0.4-0.8-0.4-1.3c0-0.7,0.3-1.4,0.8-1.8c0.8-0.5,1.7-0.7,2.6-0.6h1.9c0-0.4-0.1-0.9-0.5-1.2
		c-0.4-0.3-0.9-0.4-1.4-0.4c-0.4,0-0.9,0.1-1.3,0.2c-0.4,0.1-0.7,0.3-1.1,0.5l-0.8-1.6c0.5-0.3,1-0.6,1.6-0.7
		c0.6-0.2,1.3-0.3,1.9-0.3C974.7,567.4,975.7,567.7,976.5,568.3z M974.5,573.9c0.3-0.2,0.5-0.5,0.7-0.8v-0.8h-1.6
		c-1,0-1.4,0.3-1.4,0.9c0,0.3,0.1,0.5,0.4,0.7c0.3,0.2,0.6,0.3,1,0.3C973.9,574.2,974.2,574.1,974.5,573.9z"/>
	<path class="st1" d="M987,568.3c0.7,0.7,1,1.7,0.9,2.7v4.6h-2.3v-4.3c0-0.5-0.1-1-0.4-1.4c-0.3-0.3-0.8-0.5-1.2-0.5
		c-0.5,0-1,0.2-1.4,0.5c-0.4,0.5-0.6,1-0.5,1.6v4h-2.3v-8.1h2.2v0.9c0.3-0.3,0.7-0.6,1.2-0.8c0.5-0.2,1-0.3,1.5-0.3
		C985.5,567.4,986.3,567.7,987,568.3z"/>
	<path class="st1" d="M995.2,575.2c-0.3,0.2-0.5,0.3-0.8,0.4c-0.3,0.1-0.7,0.1-1.1,0.1c-0.8,0.1-1.6-0.2-2.2-0.7
		c-0.6-0.6-0.8-1.4-0.8-2.2v-3.3h-1.2v-1.8h1.2v-2h2.3v2h2v1.8h-2v3.3c0,0.3,0.1,0.6,0.3,0.8c0.2,0.2,0.5,0.3,0.7,0.3
		c0.3,0,0.7-0.1,0.9-0.3L995.2,575.2z"/>
	<circle id="Texto-2" class="st1" cx="876.7" cy="485.7" r="3.7"/>
	<path class="st1" d="M908.3,652.7c-0.7-0.2-1.3-0.5-1.9-0.9l0.8-1.8c0.5,0.3,1,0.6,1.6,0.8c0.6,0.2,1.2,0.3,1.9,0.3
		c0.5,0,1.1-0.1,1.5-0.3c0.3-0.2,0.5-0.5,0.5-0.8c0-0.2-0.1-0.5-0.3-0.6c-0.2-0.2-0.5-0.3-0.8-0.4c-0.3-0.1-0.7-0.2-1.2-0.3
		c-0.7-0.2-1.3-0.3-2-0.6c-0.5-0.2-1-0.5-1.3-0.9c-0.4-0.5-0.6-1.1-0.5-1.7c0-0.6,0.2-1.2,0.5-1.7c0.4-0.5,0.9-0.9,1.5-1.2
		c0.8-0.3,1.6-0.5,2.4-0.4c0.7,0,1.3,0.1,2,0.2c0.6,0.1,1.2,0.4,1.7,0.7L914,645c-0.9-0.5-1.9-0.8-2.9-0.8c-0.5,0-1,0.1-1.5,0.3
		c-0.3,0.2-0.5,0.5-0.5,0.9c0,0.4,0.2,0.7,0.6,0.8c0.6,0.2,1.1,0.4,1.7,0.5c0.7,0.2,1.3,0.3,2,0.6c0.5,0.2,1,0.5,1.3,0.9
		c0.4,0.5,0.6,1.1,0.5,1.7c0,0.6-0.2,1.2-0.5,1.6c-0.4,0.5-0.9,0.9-1.5,1.2c-0.8,0.3-1.6,0.5-2.4,0.4
		C909.9,653.1,909.1,653,908.3,652.7z"/>
	<path class="st1" d="M922.8,645.6c0.7,0.7,1.1,1.7,1,2.7v4.6h-2.2v-1c-0.5,0.8-1.5,1.2-2.5,1.1c-0.6,0-1.1-0.1-1.6-0.3
		c-0.4-0.2-0.8-0.5-1-0.9c-0.2-0.4-0.4-0.8-0.4-1.3c0-0.7,0.3-1.4,0.8-1.8c0.8-0.5,1.7-0.7,2.6-0.6h1.9c0-0.4-0.1-0.9-0.5-1.2
		c-0.4-0.3-0.9-0.4-1.4-0.4c-0.4,0-0.9,0.1-1.3,0.2c-0.4,0.1-0.7,0.3-1.1,0.5l-0.8-1.6c0.5-0.3,1-0.6,1.6-0.7
		c0.6-0.2,1.3-0.3,1.9-0.3C921,644.6,922,645,922.8,645.6z M920.8,651.2c0.3-0.2,0.5-0.5,0.7-0.8v-0.8h-1.6c-1,0-1.4,0.3-1.4,0.9
		c0,0.3,0.1,0.5,0.4,0.7c0.3,0.2,0.6,0.3,1,0.3C920.1,651.5,920.5,651.4,920.8,651.2z"/>
	<path class="st1" d="M933.2,645.6c0.7,0.7,1,1.7,0.9,2.7v4.6h-2.3v-4.3c0-0.5-0.1-1-0.4-1.4c-0.3-0.3-0.8-0.5-1.2-0.5
		c-0.5,0-1,0.2-1.4,0.5c-0.4,0.5-0.6,1-0.5,1.6v4h-2.3v-8.1h2.2v0.9c0.3-0.3,0.7-0.6,1.2-0.8c0.5-0.2,1-0.3,1.5-0.3
		C931.7,644.7,932.6,645,933.2,645.6z"/>
	<path class="st1" d="M941.5,652.5c-0.3,0.2-0.5,0.3-0.8,0.4c-0.3,0.1-0.7,0.1-1.1,0.1c-0.8,0.1-1.6-0.2-2.2-0.7
		c-0.6-0.6-0.8-1.4-0.8-2.2v-3.3h-1.2V645h1.2v-2h2.3v2h2v1.8h-2v3.3c0,0.3,0.1,0.6,0.3,0.8c0.2,0.2,0.5,0.3,0.7,0.3
		c0.3,0,0.7-0.1,0.9-0.3L941.5,652.5z"/>
	<path class="st1" d="M948.9,645.6c0.7,0.7,1.1,1.7,1,2.7v4.6h-2.2v-1c-0.5,0.8-1.5,1.2-2.5,1.1c-0.6,0-1.1-0.1-1.6-0.3
		c-0.4-0.2-0.8-0.5-1-0.9c-0.2-0.4-0.4-0.8-0.4-1.3c0-0.7,0.3-1.4,0.8-1.8c0.8-0.5,1.7-0.7,2.6-0.6h1.9c0-0.4-0.1-0.9-0.5-1.2
		c-0.4-0.3-0.9-0.4-1.4-0.4c-0.4,0-0.9,0.1-1.3,0.2c-0.4,0.1-0.7,0.3-1.1,0.5l-0.8-1.6c0.5-0.3,1-0.6,1.6-0.7
		c0.6-0.2,1.3-0.3,1.9-0.3C947.1,644.6,948.1,645,948.9,645.6z M946.9,651.2c0.3-0.2,0.5-0.5,0.7-0.8v-0.8H946c-1,0-1.4,0.3-1.4,0.9
		c0,0.3,0.1,0.5,0.4,0.7c0.3,0.2,0.6,0.3,1,0.3C946.3,651.5,946.6,651.4,946.9,651.2L946.9,651.2z"/>
	<path class="st1" d="M963.4,642.9c1.3,0.6,2.2,1.9,2.1,3.3c0,0.7-0.2,1.4-0.6,2c-0.4,0.6-0.9,1-1.6,1.3c-0.8,0.3-1.6,0.5-2.4,0.5
		h-2.1v2.9h-2.4v-10.5h4.5C961.8,642.4,962.7,642.5,963.4,642.9z M962.5,647.6c0.4-0.3,0.6-0.8,0.6-1.3c0-0.5-0.2-1-0.6-1.4
		c-0.5-0.3-1.1-0.5-1.7-0.5h-2v3.6h2C961.5,648.1,962.1,647.9,962.5,647.6L962.5,647.6z"/>
	<path class="st1" d="M968.7,652.5c-0.7-0.3-1.2-0.8-1.6-1.5c-0.8-1.3-0.8-3,0-4.3c0.4-0.6,0.9-1.1,1.6-1.5c1.4-0.7,3.1-0.7,4.6,0
		c0.7,0.3,1.2,0.8,1.6,1.5c0.8,1.3,0.8,3,0,4.3c-0.4,0.6-0.9,1.1-1.6,1.5C971.8,653.2,970.1,653.2,968.7,652.5z M972.4,650.5
		c0.8-0.9,0.8-2.3,0-3.3c-0.4-0.4-0.9-0.6-1.5-0.6c-0.6,0-1.1,0.2-1.5,0.6c-0.8,0.9-0.8,2.3,0,3.3c0.4,0.4,0.9,0.6,1.5,0.6
		C971.5,651.1,972.1,650.9,972.4,650.5z"/>
	<path class="st1" d="M976.9,641.8h2.3v11.1h-2.3V641.8z"/>
	<path class="st1" d="M987.6,645.6c0.7,0.7,1.1,1.7,1,2.7v4.6h-2.2v-1c-0.5,0.8-1.5,1.2-2.5,1.1c-0.6,0-1.1-0.1-1.6-0.3
		c-0.4-0.2-0.8-0.5-1-0.9c-0.2-0.4-0.4-0.8-0.4-1.3c0-0.7,0.3-1.4,0.8-1.8c0.8-0.5,1.7-0.7,2.6-0.6h1.9c0-0.4-0.1-0.9-0.5-1.2
		c-0.4-0.3-0.9-0.4-1.4-0.4c-0.4,0-0.9,0.1-1.3,0.2c-0.4,0.1-0.7,0.3-1.1,0.5l-0.8-1.6c0.5-0.3,1-0.6,1.6-0.7
		c0.6-0.2,1.3-0.3,1.9-0.3C985.8,644.6,986.8,645,987.6,645.6z M985.6,651.2c0.3-0.2,0.5-0.5,0.7-0.8v-0.8h-1.6
		c-1,0-1.4,0.3-1.4,0.9c0,0.3,0.1,0.5,0.4,0.7c0.3,0.2,0.6,0.3,1,0.3C984.9,651.5,985.3,651.4,985.6,651.2L985.6,651.2z"/>
	<circle id="Texto-3" class="st1" cx="943.4" cy="663.7" r="3.7"/>
	<path class="st1" d="M904.3,365v2h-8.1v-10.5h7.9v2h-5.5v2.3h4.9v1.9h-4.9v2.4L904.3,365z"/>
	<path class="st1" d="M906.1,355.8h2.3v11.1h-2.3V355.8z"/>
	<path class="st1" d="M921.9,364.7h-4.9l-0.9,2.3h-2.5l4.7-10.5h2.4l4.7,10.5h-2.5L921.9,364.7z M921.2,362.8l-1.7-4l-1.7,4H921.2z"
		/>
	<path class="st1" d="M926.4,355.8h2.3v11.1h-2.3V355.8z"/>
	<path class="st1" d="M936.7,366.5c-0.3,0.2-0.5,0.3-0.8,0.4c-0.3,0.1-0.7,0.1-1.1,0.1c-0.8,0.1-1.6-0.2-2.2-0.7
		c-0.6-0.6-0.8-1.4-0.8-2.2v-3.3h-1.2V359h1.2v-2h2.3v2h2v1.8h-2v3.3c0,0.3,0.1,0.6,0.3,0.8c0.2,0.2,0.5,0.3,0.7,0.3
		c0.3,0,0.7-0.1,0.9-0.3L936.7,366.5z"/>
	<path class="st1" d="M945.6,363.5h-6.1c0.1,0.5,0.4,0.9,0.8,1.2c0.5,0.3,1,0.5,1.5,0.4c0.4,0,0.8-0.1,1.1-0.2
		c0.3-0.1,0.6-0.3,0.9-0.6l1.2,1.4c-0.9,0.9-2.1,1.4-3.3,1.3c-0.8,0-1.7-0.2-2.4-0.5c-0.7-0.3-1.2-0.8-1.6-1.5
		c-0.4-0.6-0.6-1.4-0.6-2.1c0-0.8,0.2-1.5,0.6-2.1c0.4-0.6,0.9-1.1,1.5-1.5c1.4-0.7,3-0.7,4.3,0c0.6,0.3,1.2,0.8,1.5,1.5
		c0.4,0.7,0.6,1.4,0.5,2.2C945.6,362.9,945.6,363.1,945.6,363.5z M940.1,360.9c-0.4,0.3-0.6,0.8-0.7,1.2h4c-0.1-0.5-0.3-0.9-0.7-1.2
		c-0.4-0.3-0.8-0.5-1.3-0.5C941,360.5,940.5,360.6,940.1,360.9L940.1,360.9z"/>
	<path class="st1" d="M952.4,366.5c-0.3,0.2-0.5,0.3-0.8,0.4c-0.3,0.1-0.7,0.1-1.1,0.1c-0.8,0.1-1.6-0.2-2.2-0.7
		c-0.6-0.6-0.8-1.4-0.8-2.2v-3.3h-1.2V359h1.2v-2h2.3v2h2v1.8h-2v3.3c0,0.3,0.1,0.6,0.3,0.8c0.2,0.2,0.5,0.3,0.7,0.3
		c0.3,0,0.7-0.1,0.9-0.3L952.4,366.5z"/>
	<circle id="Texto-4" class="st1" cx="923.7" cy="377.7" r="3.7"/>
	<path class="st1" d="M172.2,503.6c-0.8-0.4-1.6-1.1-2-1.9c-1-1.7-1-3.9,0-5.6c0.5-0.8,1.2-1.5,2-1.9c1.7-0.8,3.6-0.9,5.4-0.2
		c0.7,0.3,1.4,0.8,1.9,1.4l-1.6,1.4c-0.6-0.8-1.6-1.2-2.6-1.2c-0.6,0-1.2,0.1-1.7,0.4c-0.5,0.3-0.9,0.7-1.2,1.2
		c-0.6,1.1-0.6,2.4,0,3.5c0.3,0.5,0.7,0.9,1.2,1.2c0.5,0.3,1.1,0.4,1.7,0.4c1,0,2-0.4,2.6-1.2l1.6,1.4c-0.5,0.6-1.1,1.1-1.9,1.4
		c-0.8,0.3-1.6,0.5-2.5,0.5C174.1,504.3,173.1,504,172.2,503.6z"/>
	<path class="st1" d="M184.3,496.2c0.5-0.2,1.1-0.3,1.6-0.3v2.2c-0.3,0-0.4,0-0.5,0c-0.6,0-1.1,0.2-1.6,0.6
		c-0.4,0.5-0.6,1.1-0.6,1.7v3.8h-2.3V496h2.2v1.1C183.5,496.7,183.9,496.4,184.3,496.2z"/>
	<path class="st1" d="M195.1,500.7H189c0.1,0.5,0.4,0.9,0.8,1.2c0.5,0.3,1,0.5,1.5,0.4c0.4,0,0.8-0.1,1.1-0.2
		c0.3-0.1,0.6-0.3,0.9-0.6l1.2,1.4c-0.9,0.9-2.1,1.4-3.3,1.3c-0.8,0-1.7-0.2-2.4-0.5c-0.7-0.3-1.2-0.8-1.6-1.5
		c-0.4-0.6-0.6-1.4-0.6-2.1c0-0.8,0.2-1.5,0.6-2.1c0.4-0.6,0.9-1.1,1.5-1.5c1.4-0.7,3-0.7,4.3,0c0.6,0.3,1.2,0.8,1.5,1.5
		c0.4,0.7,0.6,1.4,0.5,2.2C195.2,500.1,195.2,500.3,195.1,500.7z M189.7,498.1c-0.4,0.3-0.6,0.8-0.7,1.2h4c-0.1-0.5-0.3-0.9-0.7-1.2
		c-0.4-0.3-0.8-0.5-1.3-0.5C190.5,497.6,190,497.8,189.7,498.1L189.7,498.1z"/>
	<path class="st1" d="M204.6,496l-3.4,8.1h-2.4l-3.4-8.1h2.4l2.2,5.5l2.3-5.5H204.6z"/>
	<path class="st1" d="M205.7,494.5c-0.5-0.5-0.5-1.3-0.1-1.8c0,0,0,0,0.1-0.1c0.3-0.3,0.7-0.4,1.1-0.4c0.4,0,0.8,0.1,1.1,0.4
		c0.3,0.2,0.4,0.6,0.4,0.9c0,0.4-0.1,0.7-0.4,1c-0.3,0.3-0.7,0.4-1.1,0.4C206.3,494.9,206,494.8,205.7,494.5z M205.6,496h2.3v8.1
		h-2.3V496z"/>
	<path class="st1" d="M210.1,493h2.3v11.1h-2.3V493z"/>
	<path class="st1" d="M214.6,493h2.3v11.1h-2.3V493z"/>
	<path class="st1" d="M227,500.7h-6.1c0.1,0.5,0.4,0.9,0.8,1.2c0.5,0.3,1,0.5,1.5,0.4c0.4,0,0.8-0.1,1.1-0.2
		c0.3-0.1,0.6-0.3,0.9-0.6l1.2,1.4c-0.9,0.9-2.1,1.4-3.3,1.3c-0.8,0-1.7-0.2-2.4-0.5c-0.7-0.3-1.2-0.8-1.6-1.5
		c-0.4-0.6-0.6-1.4-0.6-2.1c0-0.8,0.2-1.5,0.6-2.1c0.4-0.6,0.9-1.1,1.5-1.5c1.4-0.7,3-0.7,4.3,0c0.6,0.3,1.2,0.8,1.5,1.5
		c0.4,0.7,0.6,1.4,0.5,2.2C227,500.1,227,500.3,227,500.7z M221.5,498.1c-0.4,0.3-0.6,0.8-0.7,1.2h4c-0.1-0.5-0.3-0.9-0.7-1.2
		c-0.4-0.3-0.8-0.5-1.3-0.5C222.3,497.6,221.9,497.8,221.5,498.1L221.5,498.1z"/>
	<path class="st1" d="M235.9,496.8c0.7,0.7,1,1.7,0.9,2.7v4.6h-2.3v-4.3c0-0.5-0.1-1-0.4-1.4c-0.3-0.3-0.8-0.5-1.2-0.5
		c-0.5,0-1,0.2-1.4,0.5c-0.4,0.5-0.6,1-0.5,1.6v4h-2.3V496h2.2v0.9c0.3-0.3,0.7-0.6,1.2-0.8c0.5-0.2,1-0.3,1.5-0.3
		C234.4,495.9,235.2,496.2,235.9,496.8z"/>
	<path class="st1" d="M244.1,503.7c-0.3,0.2-0.5,0.3-0.8,0.4c-0.3,0.1-0.7,0.1-1.1,0.1c-0.8,0.1-1.6-0.2-2.2-0.7
		c-0.6-0.6-0.8-1.4-0.8-2.2V498H238v-1.8h1.2v-2h2.3v2h2v1.8h-2v3.3c0,0.3,0.1,0.6,0.3,0.8c0.2,0.2,0.5,0.3,0.7,0.3
		c0.3,0,0.7-0.1,0.9-0.3L244.1,503.7z"/>
	<circle id="Texto-5" class="st1" cx="205.6" cy="514.9" r="3.7"/>
</g>
<g id="_Strokes">
	<path class="st2" d="M115.4,424.9c23.1-9.1,58.5-22.8,86.8-40.7s45.8-25.1,77.4-33.7s80.3-31.3,95.8-41.2s21.5-17.1,23.8-22
		s21.5-6,35.7-14.2s28.2-18.6,36.3-22.8s35-22,51.3-24.9c16.3-2.8,50-11.7,66.6-18.6s42.2-12.2,51-17.4s16.1-3.1,26.9-2.3
		s42.2,1.6,50,0s19.2-2.1,27.7,2.8s21.5,13.5,30,28s18.6,24.3,31.9,36.5c13.2,12.2,44,48.9,52.6,53.1s21.2,0.8,35-0.5
		s25.1-2.6,30.8-8s11.4-3.1,18.6,4.1s19.2,23.8,24.1,36.8s9.3,38.3,15.5,44s12.2,6.2,13.2,14.2s4.7,38.8,7,55.7s6.2,44.5,6.7,54.4
		s7.3,36.3,9.1,44.8s3.1,21.8,6.7,28.5s5.7,21.2,3.6,32.1s-3.6,12.4-4.4,20.5s-8.5,21.8-13,27.2s-26.7,18.1-35.7,22.3
		s-25.4,4.4-35.5,4.4s-33.4-1.3-46.1-3.1s-33.2-4.4-41.4-2.6s-13,0.3-22.8,1.6s-29.3,5.4-34.7,10.4s-26.2,17.1-31.1,23.8
		s-24.1,28.7-24.9,37s-10.6,25.6-17.1,35.5s-23.6,40.1-28,49.5s-10.9,33.7-11.4,38.6s-4.7,12.2-11.1,13.2s-17.1,1.8-26.4-1.3
		s-11.1-9.8-10.4-24.3s-1.8-19.9-13.5-22.3s-26.4-5.7-32.4-2.1s-18.9,4.9-31.6,13.7s-37.8,12.4-46.4,12.2s-33.2-0.3-39.6-7.5
		s-82.4-82.6-97.6-90.9s-40.7-23-56.2-29.3s-28-7.5-43-2.3s-28.7,12.4-31.9,18.1s-9.8,15.8-17.9,20.5s-10.9,6.2-11.1,9.8
		s-7,7.8-15,9.3s-13.2,4.1-21.8,0.3s-12.4-6.7,1-11.4s39.6-13.2,34.7-25.4s-26.7-71-37.3-83.4s-20.7-28.2-29.8-34.2
		s-21.5-2.8-31.1-16.3s-38.6-47.4-41.7-57s-8-47.9-17.4-58.5s-30.6-33.4-29-41.4s17.4-14,46.4-25.6S108.3,427.7,115.4,424.9z"/>
	<path class="st2" d="M374.7,769.4c0,0,0.2-66-0.7-81.7s-19-55.6-25.4-70.3c-7.8-17.8-11.7-32.8-16.6-42.3s-1-28.5,1-31.8
		s3.6-18.3,1-24.3s-3.6-10.6-2.1-13.3c1.6-2.8,5.9-8.5,3.8-13.1c-2.4-5.1-4.5-10.3-6.1-15.7c-1.6-5.9-1.9-14.4-2.7-18.5
		s0.4-14.2-1.4-27.6c-1.6-11.7-7-22.6-7.8-33.5c-0.7-9.5,5.2-15.7,4.8-24.9c-0.3-6.7,1.4-14.8-15.4-31.1"/>
	<path class="st2" d="M712.9,807.4c-8.7,3.2-15.6,4.4-16.6-0.8s0.2-10.5,2.3-13.4c2.2-2.9,4.8-11.7,1.3-13.4s-10.7-3.5-12.8-8.7
		s-16.6-8-27.7-6.9s-19.5,1.6-24.2-1.2s-15.1-3-20.4-3s-11-1.8-13-12.9s2.1-14.8,7.4-16.2s35.5-8.5,39.7-12.3s25.6-27.5,29.7-34.5
		s13.3-17,17.7-20.3s12.6-13.5,12.1-19.7s-1-10.4,3.5-10.5s19.5,4,24.8,3.6s25.6-9.5,28.9-14.8s7.3-15,11.4-15.6s21.4-13.5,24.3-18
		s13.6-14.5,20.4-16.3s20.9-8.9,24.2-13.1s13-14.3,12.9-19.2s-6.4-14.2-7.1-17.6s-6-28.2-6.4-40.9s0.8-37.6-1.8-44.4
		s-15.3-30.4-7-35.6c7.9-4.9,15.3,3,20.3-2.2c3.9-4,7.9-17.1,6.8-25.5c-0.7-5.6,3.3-14.3,4.3-17.1c1.4-3.6,6.1-10.4,8.3-11.8
		c3.5-2.2,9.1-1.3,10.2-5.8s-1.9-11.7-2.5-14.2s-0.4-8-2.3-9.8s-5.9-5.7-5.9-5.7"/>
	<path class="st2" d="M1026.7,625.9c0,0-89.5-32.3-103-37.6s-16.1-8.5-16.4-14.4c-0.5-11.2,1.3-22.3,5.2-32.8
		c4.9-13.2,7.6-39.6,20.3-40.4s37.6,3.8,44.7,8.4s18.1,13.1,22.3,21.2c2.7,5.4,4.9,11.1,6.6,17c1.7,6,2.5,20.9,14.1,15.9"/>
	<path class="st2" d="M969.6,505.9c0,0,0.7-4.7,1.1-10.8c0.3-4.8,1.8-13.6,2.2-17.1c0.5-4.6,2.5-11.1,3.5-15.9
		c1-4.7,2.3-9.5,4.3-12.8c2-3.3,5.9-6.7,21.5-4.9"/>
	<path class="st2" d="M927.9,502.6c0,0-4.7-8.7-8.5-10.6s-12.4-4.8-18-0.8s-10.5,8.4-13,11.4c-3,3.8-1.4,11.4-3.9,13.1
		c-3.6,2.5-26,22.4-26,22.4"/>
</g>
</svg>
