<?xml version="1.0" encoding="utf-8"?>
<!-- Generator: Adobe Illustrator 24.0.2, SVG Export Plug-In . SVG Version: 6.00 Build 0)  -->
<svg version="1.1" id="Capa_1" xmlns="http://www.w3.org/2000/svg" xmlns:xlink="http://www.w3.org/1999/xlink" x="0px" y="0px"
	 viewBox="0 0 1080 1080" style="enable-background:new 0 0 1080 1080;" xml:space="preserve">
<style type="text/css">
	.st1{fill:#FFFFFF;}
	.st2{fill:none;stroke:#FFFFFF;stroke-width:8;stroke-miterlimit:10;}
</style>
<g id="2_Área_de_Pilar_de_la_Horadada" class="zone">
	<path class="st0" d="M684.3,844.4c-11.3-6.7-24.1-14.3-33.6-17.5c-15.3-5.1-23-6.3-32.8-7.8c-7.7-1.2-16.5-2.5-30.8-6.1
		c-23.5-5.8-40.5-11.1-52.9-14.9c-15.3-4.7-24.6-7.6-31.3-7c-8.4,0.8-16.8,3.3-24.9,5.7c-4.5,1.3-9.1,2.7-13.8,3.8
		c24.8,29,50.2,54.4,73.5,77.7c9.1,9.1,17.7,17.7,25.9,26.1c10,10.3,20.4,12.5,31.4,14.8c12.8,2.7,26,5.4,37.4,21.2
		c8.1,11.3,24.7,19.4,38.6,18.9c5.1-0.2,12.1-1.7,15.8-7.8c0.3-1.3-0.4-5.9-0.9-9.3c-1.5-9.8-3.4-21.9,3.1-28.8
		c2.3-2.5,4.4-4.2,6-5.5c4-3.4,5.4-4.5,5.7-14.3c0.1-3.9,0.1-7.4,0-10.8c-0.2-8.4-0.3-16.3,2.5-27.7
		C697.9,852.4,691.3,848.5,684.3,844.4z"/>
</g>
<g id="2_Área_de_Orihuela" class="zone">
	<path class="st0" d="M698.1,673.5c-1.4,8.6-4.6,22.9-11.4,31.5c-4.4,5.6-10.7,7.6-17.7,7.6c-11.8,0-25.6-5.7-35.2-9.7
		c-2.9-1.2-5.3-2.2-7.2-2.9c-13.9-4.9-21.8-27.8-22-38.2c-0.1-8.6,2.2-14.7,4.3-20c2.4-6.3,4.5-11.8,2.9-20.9
		c-1.9-10.4-19.8-31.4-31.6-45.3c-3.8-4.5-7.2-8.4-9.6-11.5c-2.9-3.7-7.7-6.6-13.2-9.9c-10.5-6.4-23.6-14.3-33-32.7
		c-4.2-8.2-35.5-16.7-58.4-23c-23.3-6.4-37.9-10.5-43.7-15.6c-14.2-12.4-30-33.9-28-53.8c1.9-19.3-5.2-43-7.9-51
		c-1.2-1.1-2.4-2.5-3.5-4.4c-2.8-5.2-6.1-12-9.4-18.5c-2.7-5.5-5.3-10.7-7.4-14.7c-0.5-1-1.1-2-1.6-3.1c-4.1-8-8.4-16.3-16.5-17.6
		c-2.8-0.4-6.8-1.2-11.4-2c-13.6-2.5-34.3-6.2-43.9-6.2c-3.2,0-6.5-0.3-9.9-0.6c-10.6-0.9-21.5-1.8-29.6,5.5
		c-11.4,10.2-26.9,24.8-35.3,33.9c0.7,3.2,1.2,6,1.5,8.3c0.1,1.5,0.2,3.9,0.2,7.4c0,17.6,0.1,58.7,18.8,83.8
		c7.6,10.2,15,19.5,22.8,29.4c18.2,23,37,46.8,58.9,82.3c8.2,13.2,21.2,37.8,36.2,66.2c24.2,45.8,54.3,102.7,73.8,129.4
		c9.3,12.7,18.8,24.8,28.4,36.3c5.7-1.1,11.4-2.8,17.4-4.5c8.5-2.5,17.2-5.1,26.4-6c8.2-0.8,17.5,2.1,34.4,7.3
		c12.3,3.8,29.2,9,52.4,14.8c14,3.5,22.5,4.8,30.1,6c9.8,1.5,18.2,2.8,34.1,8.1c10.3,3.5,23.5,11.3,35.1,18.2
		c6.3,3.7,12.2,7.2,17.1,9.7c7.9-24.3,21.1-36.9,40.4-38.6c9.8-0.9,12.1-2.9,12.9-4.3c1.4-2.3,1.1-7,0.7-12.8
		c-0.1-1.4-0.2-2.8-0.3-4.4c-0.9-16.1,2.8-40.6,13.9-44.6c2.6-0.9,5.2-1.2,7.7-1.5c6-0.7,8.8-1,9.4-7.5c0.6-5.9,1.4-11.8,2.3-17.6
		c-21.5-20-65.4-34.4-86-39.3C703.3,675.8,700.4,674.8,698.1,673.5z"/>
</g>
<g id="2_San_Miguel_de_Salinas" class="zone">
	<path class="st0" d="M782.6,490.5c8.4-9.2,24-21.6,29.6-24.1c0.4-0.2,0.9-0.4,1.6-0.6c-0.4-16.6-2.7-31.3-5-45.5
		c-0.5-3.4-1.1-6.8-1.6-10.1c-0.2-1.4-0.4-2.9-0.7-4.5c-2-13-4.4-28.1-2.8-39.4c-14.3,8.9-37.1,22.1-50.5,24.3
		c-0.6,4.3-1.7,12.1-2.1,17.5c-0.5,7.5,0,10,3,14.7c3,4.8,6.8,12.1,4.6,20.7c-1.2,4.9-6.3,7.3-10.5,9.3c-1.1,0.5-2.6,1.3-3.6,1.9
		c0.4,0.7,0.8,1.5,1.3,2.3c2.9,5.2,5.6,10.2,2.9,13.9c-1,1.4-3,2.8-6.9,2.1c-5.9-1.1-9.8,0.1-11.4,1.5c-1.1,1-3.4,3-6.3,3
		c-0.6,0-1.2-0.1-1.8-0.3c-4-1.2-5.7-5.7-6.7-9.1c-1.7-5.8-5.7-11.4-9.6-16.8c-1.6-2.3-3.3-4.6-4.8-6.9c-0.9-1.4-1.8-2.9-2.8-4.5
		c-3.5-5.7-8.8-14.4-12.4-15.6c-2.2-0.8-5.9-1.8-10.1-3c-7-1.9-14.9-4.1-20.8-6.4c-4.2-1.6-8-3.5-11.3-5.1c-4.3-2.1-8.1-3.9-11.9-5
		c-6.6-1.8-12.8-2.2-21.2,1.7c-1.4,0.6-2.7,1.3-3.9,1.9c-7.8,3.8-14.6,7-26.1,7c-2.2,0-5,0.2-8.3,0.4c-14.8,1.1-37.1,2.8-43.6-13.4
		c-4.4-10.9-12-19.9-17.6-26.4c-2.6-3.1-4.9-5.8-6.4-8.2c-1.8-2.8-3.7-5.8-5-9.1c-6.8-4.6-18.6-10-24-6.9
		c-9.2,5.3-19.4,10.5-32,13.6c-4.5,1.1-9.7,3.5-14.7,5.8c-7.4,3.4-14.4,6.6-20.8,6.7c-2.7,0.1-5.3,0.8-7.7,1.4
		c-1.6,0.4-3.3,0.9-5.1,1.1c3.3,11,8.4,31.6,6.7,49.4c-1.8,18,15.1,38,25.3,47c4.7,4.1,22.9,9.1,40.5,13.9
		c34.8,9.5,57.9,16.5,63.4,27.1c8.4,16.3,19.9,23.3,30.1,29.5c5.9,3.6,11.6,7,15.3,11.8c2.3,3,5.6,6.8,9.4,11.3
		c13.8,16.2,31.1,36.5,33.3,49c2.1,11.3-0.7,18.4-3.3,25.2c-2,5.2-3.9,10-3.8,17c0.1,9.6,7.8,27.6,16.6,30.7c2.1,0.8,4.7,1.8,7.6,3
		c13.3,5.5,35.6,14.8,43.6,4.6c7.3-9.3,9.9-27.9,10.5-33.1c-0.4-0.7-0.8-1.4-1-2.2c-3.8-10,4.5-22.1,11.9-32.7
		c3.8-5.4,8.4-12.2,8.3-14.9c-3.3-45,28.6-55.2,38.4-57.3c6.2-1.3,17.4-13.6,20.1-20.6c0.6-1.5-1.6-6.3-2.9-9.2
		c-2.3-5-4.4-9.8-2.9-13.8C764.8,510.6,770.8,503.4,782.6,490.5z"/>
</g>
<g id="2_Torrevieja" class="zone">
	<path class="st0" d="M884.8,615.5c3.3-18.6,1.9-79.2,0.2-113.1c0-0.7-0.1-1.4-0.1-2.1c-26.2-0.9-31.8-12.2-35.9-20.5
		c-1.3-2.7-2.5-5-4.1-6.6c-3.5-3.6-24.2-1.8-29.5,0.6c-4.3,1.9-18.9,13.4-26.9,22.2c-9,9.8-16.5,18.3-18.3,23.1
		c-0.3,1.2,1.6,5.3,2.7,7.8c2.4,5.3,4.8,10.7,3.1,15.3c-3.3,8.7-16.3,23.6-26,25.6c-10.5,2.2-34.8,11.4-32.1,48.9
		c0.4,5.5-4,11.9-9.7,20c-5.9,8.6-13.3,19.2-11,25.3c1.1,3,4.9,5.3,11.1,6.8c20.2,4.8,62,18.6,85.7,37.9c0.9-4.7,1.8-9.4,2.9-14
		c3.7-16.6,25.6-27,44.8-31.2C861,657.4,881.8,632.3,884.8,615.5z"/>
</g>
<g id="2_Almoradí" class="zone">
	<path class="st0" d="M553.5,302.2c-6.5,7.3-26.9,17.2-35.8,20.2c-4.5,1.5-6.1,6.8-8,14.7c-0.7,2.9-1.4,6-2.5,8.6
		c-2.5,6.2,0.1,10.9,4.6,18c1.2,1.9,3.3,4.4,5.8,7.3c5.9,7,14,16.5,18.9,28.6c4.3,10.7,22.4,9.4,35.6,8.4c3.4-0.3,6.4-0.5,8.8-0.5
		c9.7,0,15.4-2.8,22.7-6.3c1.3-0.6,2.6-1.3,4-1.9c11.3-5.2,19.8-4,26.7-2.1c4.5,1.2,8.7,3.3,13.2,5.5c3.4,1.6,6.8,3.3,10.7,4.8
		c5.5,2.1,13.6,4.4,20.1,6.2c4.4,1.2,8.2,2.3,10.6,3.1c6.3,2.2,11.5,10.7,16.6,19c0.9,1.5,1.8,3,2.7,4.4c1.4,2.2,2.9,4.3,4.6,6.6
		c4.3,6,8.7,12.2,10.8,19.3c0.5,1.6,0.9,2.5,1.2,3.1c0.2-0.1,0.4-0.3,0.6-0.5c1.8-1.6,6.6-4.8,15.7-3.8c-0.6-1.3-1.5-2.9-2-3.9
		c-0.8-1.5-1.6-2.8-2.1-4c-2.7-6.1,4-9.3,7.9-11.2c2.1-1,5.9-2.9,6.2-4.1c1.1-4.4,0-8.8-3.6-14.5c-4.2-6.7-4.8-10.9-4.2-19.5
		c0.3-5.3,1.3-12.6,2-17.1c-10.3-2.1-20.4-10.7-29.4-18.4c-5.9-5.1-11.5-9.9-16-11.8c-3.7-1.6-8.1-3.1-12.8-4.7
		c-9.8-3.3-20.9-7-28.5-13.2c-4.4-3.6-4-8.2-3.7-10.9c0.2-2.4,0.2-2.4-0.7-2.9c-10.7-5.4-42.5-29.8-42.9-30
		c-2.2-1.7-4.7-3.4-7.2-5.2c-5.4-3.8-10.9-7.6-14.9-11.8C567.3,288.6,556.9,298.2,553.5,302.2z"/>
</g>
<g id="2_Guardamar_del_Segura" class="zone">
	<path class="st0" d="M847.4,355.9c-1.9-0.2-3.8-0.4-5.6-0.6c-2.4-0.2-4.6-0.5-6.6-0.8c-7.5-1-11.7-1.6-19.3,3.3
		c-0.1,0-0.1,0.1-0.2,0.1l0.3,0.4c-0.4,0.3-1.1,0.7-1.9,1.3c-5.5,7.7-1.9,30.7,0.3,44.9c0.2,1.6,0.5,3.1,0.7,4.5
		c0.5,3.3,1,6.7,1.6,10.1c2.2,14,4.5,28.5,5.1,45c9.8-1.6,23.7-2,29,3.5c2.5,2.6,4,5.7,5.5,8.7c3.7,7.5,7.6,15.3,28.5,16
		c-0.4-26.8,2.9-51.5,5.3-70.2c0.6-4.4,1.1-8.5,1.5-12.1c3.1-26.8,8-50.3,11.2-65.9c1.2-5.7,2.8-9.8,4.1-13c2.2-5.6,2.6-6.6-0.3-10
		c-2.5-2.9-7.7-1.8-14.8,0c-2.2,0.6-4.4,1.1-6.4,1.4c1.1,9.3-0.4,22.4-6.2,28.9C872.8,358.7,859.3,357.2,847.4,355.9z"/>
</g>
<g id="2_San_Fulgencio" class="zone">
	<path class="st0" d="M608.6,286.9c2.5,1.8,5.2,3.6,7.5,5.4c12.2,9.3,34.2,25.5,41.6,29.2c5.8,2.9,5.3,8.1,5,10.8
		c-0.3,2.6-0.2,3.1,0.8,3.9c6.5,5.3,16.4,8.6,26,11.8c4.9,1.6,9.4,3.1,13.5,4.9c5.6,2.4,11.6,7.6,18,13.1c9.3,8,19.8,17,28.8,17
		c12,0,44.3-19.6,59-29.3c0.9-1,1.8-1.8,3-2.5c10.1-6.4,16.8-5.5,24.7-4.4c1.9,0.3,4,0.5,6.2,0.7c1.8,0.2,3.8,0.4,5.8,0.6
		c8.9,1,21.2,2.3,24.8-1.8c4.5-5.1,5.3-17.5,3.9-24.8c-0.6-0.4-1.3-1-1.8-1.7c-3.7-4.9-2.7-9.8-1.8-13.8c1.1-5,1.9-8.6-5.2-14
		c-10-7.6-24.1-2.3-40.4,3.9c-14.9,5.7-31.9,12.1-48.8,9c-21.6-4-34.4-18.6-46.8-32.8c-4.7-5.3-9.5-10.9-14.8-15.9
		c-17.6-16.6-37.6-35.4-60-38.6c-14.7-2.1-19.9,1.7-26.5,6.4c-5.4,3.9-11.5,8.3-23,9.4c-6.4,0.6-10.7,0.9-13.9,0.4
		c-1.5,9.3-5.2,33.4-2.3,38.6C594.6,277.1,602,282.3,608.6,286.9z"/>
</g>
<g id="2_Área_de_Beniferri_-_Callosa" class="zone">
	<path class="st0" d="M248,310.6c10.7-9.5,23.9-8.4,35.6-7.5c3.3,0.3,6.4,0.5,9.3,0.5c10.3,0,30.5,3.7,45.3,6.3
		c4.6,0.8,8.5,1.5,11.3,2c12.1,1.9,17.8,13,22.3,21.9c0.5,1,1,2,1.5,3c2.2,4.1,4.7,9.3,7.5,14.9c3.2,6.5,6.5,13.2,9.2,18.2
		c0.9,1.6,1.6,2.5,2.7,2.7l0.2-0.1c0,0,0,0.1,0,0.1c1.2,0.1,2.9-0.2,5.6-1c2.8-0.8,6-1.6,9.7-1.7c4.8-0.1,11.3-3.1,17.6-6
		c5.3-2.5,10.9-5,16.1-6.3c11.6-2.8,21.2-7.8,29.9-12.7c7.9-4.5,19-0.3,26.3,3.6c0.2-1.9,0.6-3.8,1.5-5.9c0.8-2.1,1.5-4.7,2.1-7.4
		c1.9-7.8,4.2-17.4,13.2-20.4c9.2-3.1,27.4-12.3,32.4-17.9c3.8-4.3,14.7-14.5,36.8-22c-2.8-7.2-1.2-22,2.2-43.2
		c0.1-0.8,0.2-1.5,0.3-2.1c-1.5-2.4-1.9-5.6-2.4-8.9c-0.4-3.2-3.8-14.5-6.7-24.5c-3.3-11.2-6.4-21.7-7-25.9
		c-0.4-2.6-9.7-7.9-14.2-10.4c-6.1-3.4-11.4-6.4-13.5-9.8c-2.9-4.6-8.7-21-18.7-49.5c-7-19.8-14.8-42.3-21.9-60.4
		c-10.6-27.3-14.5-31.9-15.6-32.7c-3.7-1.5-10.1,5.4-15.3,10.9c-6.3,6.7-12.2,13-18.6,11.8c-27.9-5.3-37.9-2.4-46-0.1
		c-6.2,1.8-12,3.4-22.7,0.9c-14.5-3.4-26.8-2.1-35-1.2c-6.7,0.7-10.5,1.1-12.7-1.6c-0.7-0.8-1.7-2.6-0.9-5.2
		c12.2-41,7.2-58.3,4.6-59.8c-3,0.8-12.4,16.7-9.7,58.1c0.2,3.3-3.5,13.5-14.1,40.6c-1.6,4.1-3.1,7.9-4.3,11.2
		c-2.8,7.3-5,20.3-7.4,34.1c-2.7,15.9-5.5,32.4-9.9,44.6c-8,22.5-45,112.3-80.5,140.9c-8.6,6.9-2.6,32,1.4,48.7
		C224.8,331.9,237.9,319.6,248,310.6z"/>
</g>
<g id="_Texto" class="text">
	<circle id="Texto" class="st1" cx="599.2" cy="883.3" r="3.7"/>
	<g>
		<path class="st1" d="M572.3,843.2c1.3,0.6,2.2,1.9,2.1,3.3c0,0.7-0.2,1.4-0.6,2c-0.4,0.6-0.9,1-1.6,1.3c-0.8,0.3-1.6,0.5-2.4,0.5
			h-2.1v2.9h-2.4v-10.5h4.5C570.7,842.7,571.5,842.8,572.3,843.2z M571.4,847.8c0.4-0.3,0.6-0.8,0.6-1.3s-0.2-1-0.6-1.4
			c-0.5-0.3-1.1-0.5-1.7-0.5h-2v3.6h2C570.3,848.4,570.9,848.2,571.4,847.8z"/>
		<path class="st1" d="M576.1,843.6c-0.5-0.5-0.5-1.3-0.1-1.8c0,0,0,0,0.1-0.1c0.3-0.3,0.7-0.4,1-0.4c0.4,0,0.8,0.1,1,0.4
			c0.3,0.2,0.4,0.6,0.4,0.9c0,0.4-0.1,0.7-0.4,1C577.6,844.1,576.7,844.1,576.1,843.6L576.1,843.6z M576,845.1h2.3v8.1H576V845.1z"
			/>
		<path class="st1" d="M580.5,842.1h2.3v11.1h-2.3V842.1z"/>
		<path class="st1" d="M591.2,845.9c0.7,0.7,1.1,1.7,1,2.7v4.6H590v-1c-0.5,0.8-1.5,1.2-2.5,1.1c-0.6,0-1.1-0.1-1.6-0.3
			c-0.4-0.2-0.8-0.5-1-0.9s-0.4-0.8-0.4-1.3c0-0.7,0.3-1.4,0.8-1.8c0.8-0.5,1.7-0.7,2.6-0.6h1.9c0-0.4-0.1-0.9-0.5-1.2
			s-0.9-0.4-1.4-0.4c-0.4,0-0.9,0.1-1.3,0.2c-0.4,0.1-0.7,0.3-1.1,0.5l-0.8-1.6c0.5-0.3,1-0.6,1.6-0.7c0.6-0.2,1.3-0.3,1.9-0.3
			C589.3,844.9,590.4,845.2,591.2,845.9z M589.2,851.5c0.3-0.2,0.5-0.5,0.7-0.8v-0.8h-1.7c-1,0-1.4,0.3-1.4,0.9
			c0,0.3,0.1,0.5,0.4,0.7c0.3,0.2,0.6,0.3,1,0.3C588.5,851.7,588.8,851.6,589.2,851.5L589.2,851.5z"/>
		<path class="st1" d="M597.7,845.3c0.5-0.2,1.1-0.3,1.6-0.3v2.2c-0.3,0-0.4,0-0.5,0c-0.6,0-1.1,0.2-1.6,0.6
			c-0.4,0.5-0.6,1.1-0.6,1.7v3.8h-2.3v-8.1h2.2v1.1C596.8,845.8,597.2,845.5,597.7,845.3z"/>
		<path class="st1" d="M613.2,842.1v11.1H611v-0.9c-0.6,0.7-1.6,1.1-2.5,1c-0.7,0-1.4-0.2-2.1-0.5c-0.6-0.3-1.1-0.8-1.4-1.5
			c-0.7-1.4-0.7-3,0-4.4c0.3-0.6,0.8-1.1,1.4-1.5c0.6-0.3,1.3-0.5,2.1-0.5c0.9,0,1.8,0.3,2.4,1V842L613.2,842.1z M610.3,850.8
			c0.8-0.9,0.8-2.3,0-3.3c-0.4-0.4-0.9-0.6-1.5-0.6s-1.1,0.2-1.5,0.6c-0.8,0.9-0.8,2.3,0,3.3c0.4,0.4,0.9,0.6,1.5,0.6
			C609.4,851.4,610,851.2,610.3,850.8L610.3,850.8z"/>
		<path class="st1" d="M623.2,849.8h-6.1c0.1,0.5,0.4,0.9,0.8,1.2c0.5,0.3,1,0.5,1.5,0.4c0.4,0,0.8-0.1,1.1-0.2
			c0.3-0.1,0.6-0.3,0.9-0.6l1.2,1.4c-0.9,0.9-2.1,1.4-3.3,1.3c-0.8,0-1.7-0.2-2.4-0.5s-1.2-0.8-1.6-1.5c-0.4-0.6-0.6-1.4-0.6-2.1
			c0-0.8,0.2-1.5,0.6-2.1c0.4-0.6,0.9-1.1,1.5-1.5c1.4-0.7,3-0.7,4.3,0c0.6,0.3,1.2,0.8,1.5,1.5c0.4,0.7,0.6,1.4,0.5,2.2
			C623.3,849.2,623.3,849.4,623.2,849.8z M617.8,847.2c-0.4,0.3-0.6,0.8-0.7,1.2h4c-0.1-0.5-0.3-0.9-0.7-1.2s-0.8-0.5-1.3-0.5
			C618.6,846.8,618.1,846.9,617.8,847.2L617.8,847.2z"/>
		<path class="st1" d="M629.1,842.1h2.3v11.1h-2.3V842.1z"/>
		<path class="st1" d="M639.7,845.9c0.7,0.7,1.1,1.7,1,2.7v4.6h-2.2v-1c-0.5,0.8-1.5,1.2-2.5,1.1c-0.6,0-1.1-0.1-1.6-0.3
			c-0.4-0.2-0.8-0.5-1-0.9s-0.4-0.8-0.4-1.3c0-0.7,0.3-1.4,0.8-1.8c0.8-0.5,1.7-0.7,2.6-0.6h1.9c0-0.4-0.1-0.9-0.5-1.2
			s-0.9-0.4-1.4-0.4c-0.4,0-0.9,0.1-1.3,0.2c-0.4,0.1-0.7,0.3-1.1,0.5l-0.8-1.6c0.5-0.3,1-0.6,1.6-0.7c0.6-0.2,1.3-0.3,1.9-0.3
			C637.9,844.9,638.9,845.2,639.7,845.9z M637.7,851.5c0.3-0.2,0.5-0.5,0.7-0.8v-0.8h-1.6c-1,0-1.4,0.3-1.4,0.9
			c0,0.3,0.1,0.5,0.4,0.7c0.3,0.2,0.6,0.3,1,0.3C637.1,851.7,637.4,851.6,637.7,851.5L637.7,851.5z"/>
		<path class="st1" d="M575,860.7v10.5h-2.4v-4.3h-4.8v4.3h-2.4v-10.5h2.4v4.1h4.8v-4.1H575z"/>
		<path class="st1" d="M578.8,870.8c-0.7-0.3-1.2-0.8-1.6-1.5c-0.8-1.3-0.8-3,0-4.3c0.4-0.6,0.9-1.1,1.6-1.5c1.4-0.7,3.1-0.7,4.6,0
			c0.7,0.3,1.2,0.8,1.6,1.5c0.8,1.3,0.8,3,0,4.3c-0.4,0.6-0.9,1.1-1.6,1.5C582,871.5,580.3,871.5,578.8,870.8z M582.6,868.8
			c0.8-0.9,0.8-2.3,0-3.3c-0.4-0.4-0.9-0.6-1.5-0.6s-1.1,0.2-1.5,0.6c-0.8,0.9-0.8,2.3,0,3.3c0.4,0.4,0.9,0.6,1.5,0.6
			C581.7,869.4,582.2,869.2,582.6,868.8L582.6,868.8z"/>
		<path class="st1" d="M590.5,863.3c0.5-0.2,1.1-0.3,1.6-0.3v2.2c-0.3,0-0.4,0-0.5,0c-0.6,0-1.1,0.2-1.6,0.6
			c-0.4,0.5-0.6,1.1-0.6,1.7v3.8h-2.3v-8.1h2.2v1.1C589.6,863.8,590,863.5,590.5,863.3z"/>
		<path class="st1" d="M599.6,863.9c0.7,0.7,1.1,1.7,1,2.7v4.6h-2.2v-1c-0.5,0.8-1.5,1.2-2.5,1.1c-0.6,0-1.1-0.1-1.6-0.3
			c-0.4-0.2-0.8-0.5-1-0.9s-0.4-0.8-0.4-1.3c0-0.7,0.3-1.4,0.8-1.8c0.8-0.5,1.7-0.7,2.6-0.6h1.9c0-0.4-0.1-0.9-0.5-1.2
			s-0.9-0.4-1.4-0.4c-0.4,0-0.9,0.1-1.3,0.2c-0.4,0.1-0.7,0.3-1.1,0.5l-0.8-1.6c0.5-0.3,1-0.6,1.6-0.7c0.6-0.2,1.3-0.3,1.9-0.3
			C597.8,862.9,598.8,863.2,599.6,863.9z M597.6,869.5c0.3-0.2,0.5-0.5,0.7-0.8v-0.8h-1.6c-1,0-1.4,0.3-1.4,0.9
			c0,0.3,0.1,0.5,0.4,0.7c0.3,0.2,0.6,0.3,1,0.3C596.9,869.7,597.3,869.6,597.6,869.5L597.6,869.5z"/>
		<path class="st1" d="M611,860.1v11.1h-2.2v-0.9c-0.6,0.7-1.6,1.1-2.5,1c-0.7,0-1.4-0.2-2.1-0.5c-0.6-0.3-1.1-0.8-1.4-1.5
			c-0.7-1.4-0.7-3,0-4.4c0.3-0.6,0.8-1.1,1.4-1.5c0.6-0.3,1.3-0.5,2.1-0.5c0.9,0,1.8,0.3,2.4,1V860L611,860.1z M608.2,868.8
			c0.8-0.9,0.8-2.3,0-3.3c-0.4-0.4-0.9-0.6-1.5-0.6s-1.1,0.2-1.5,0.6c-0.8,0.9-0.8,2.3,0,3.3c0.4,0.4,0.9,0.6,1.5,0.6
			C607.2,869.4,607.8,869.2,608.2,868.8L608.2,868.8z"/>
		<path class="st1" d="M619.3,863.9c0.7,0.7,1.1,1.7,1,2.7v4.6h-2.1v-1c-0.5,0.8-1.5,1.2-2.5,1.1c-0.6,0-1.1-0.1-1.6-0.3
			c-0.4-0.2-0.8-0.5-1-0.9s-0.4-0.8-0.4-1.3c0-0.7,0.3-1.4,0.8-1.8c0.8-0.5,1.7-0.7,2.6-0.6h1.9c0-0.4-0.1-0.9-0.5-1.2
			s-0.9-0.4-1.4-0.4c-0.4,0-0.9,0.1-1.3,0.2c-0.4,0.1-0.7,0.3-1.1,0.5l-0.8-1.6c0.5-0.3,1-0.6,1.6-0.7c0.6-0.2,1.3-0.3,1.9-0.3
			C617.5,862.9,618.5,863.2,619.3,863.9z M617.3,869.5c0.3-0.2,0.5-0.5,0.7-0.8v-0.8h-1.6c-1,0-1.4,0.3-1.4,0.9
			c0,0.3,0.1,0.5,0.4,0.7c0.3,0.2,0.6,0.3,1,0.3C616.7,869.7,617,869.6,617.3,869.5L617.3,869.5z"/>
		<path class="st1" d="M630.8,860.1v11.1h-2.2v-0.9c-0.6,0.7-1.6,1.1-2.5,1c-0.7,0-1.4-0.2-2.1-0.5c-0.6-0.3-1.1-0.8-1.4-1.5
			c-0.7-1.4-0.7-3,0-4.4c0.3-0.6,0.8-1.1,1.4-1.5c0.6-0.3,1.3-0.5,2.1-0.5c0.9,0,1.8,0.3,2.4,1V860L630.8,860.1z M627.9,868.8
			c0.8-0.9,0.8-2.3,0-3.3c-0.4-0.4-0.9-0.6-1.5-0.6s-1.1,0.2-1.5,0.6c-0.8,0.9-0.8,2.3,0,3.3c0.4,0.4,0.9,0.6,1.5,0.6
			C627,869.4,627.5,869.2,627.9,868.8L627.9,868.8z"/>
		<path class="st1" d="M639.1,863.9c0.7,0.7,1.1,1.7,1,2.7v4.6h-2.2v-1c-0.5,0.8-1.5,1.2-2.5,1.1c-0.6,0-1.1-0.1-1.6-0.3
			c-0.4-0.2-0.8-0.5-1-0.9s-0.4-0.8-0.4-1.3c0-0.7,0.3-1.4,0.8-1.8c0.8-0.5,1.7-0.7,2.6-0.6h1.9c0-0.4-0.1-0.9-0.5-1.2
			s-0.9-0.4-1.4-0.4c-0.4,0-0.9,0.1-1.3,0.2c-0.4,0.1-0.7,0.3-1.1,0.5l-0.8-1.6c0.5-0.3,1-0.6,1.6-0.7c0.6-0.2,1.3-0.3,1.9-0.3
			C637.2,862.9,638.2,863.2,639.1,863.9z M637.1,869.5c0.3-0.2,0.5-0.5,0.7-0.8v-0.8h-1.6c-1,0-1.4,0.3-1.4,0.9
			c0,0.3,0.1,0.5,0.4,0.7c0.3,0.2,0.6,0.3,1,0.3C636.4,869.7,636.7,869.6,637.1,869.5L637.1,869.5z"/>
	</g>
	<circle id="Texto-2" class="st1" cx="705.3" cy="822.5" r="3.7"/>
	<circle id="Texto-3" class="st1" cx="741.2" cy="785.9" r="3.7"/>
	<circle id="Texto-4" class="st1" cx="800.4" cy="665.8" r="3.7"/>
	<g>
		<path class="st1" d="M640.8,788.3h4.8c1,0,2.1,0.2,3,0.7c0.8,0.4,1.5,1,2,1.8c1,1.7,1,3.8,0,5.5c-0.5,0.8-1.2,1.4-2,1.8
			c-0.9,0.4-2,0.7-3,0.7h-4.8V788.3z M645.4,796.8c0.9,0,1.8-0.3,2.5-0.9c1.3-1.3,1.3-3.4,0-4.8c-0.7-0.6-1.6-0.9-2.5-0.9h-2.2v6.5
			L645.4,796.8z"/>
		<path class="st1" d="M660.9,795.4h-6.1c0.1,0.5,0.4,0.9,0.8,1.2c0.5,0.3,1,0.5,1.5,0.4c0.4,0,0.8-0.1,1.1-0.2
			c0.3-0.1,0.6-0.3,0.9-0.6l1.2,1.4c-0.9,0.9-2.1,1.4-3.3,1.3c-0.8,0-1.7-0.2-2.4-0.5s-1.2-0.8-1.6-1.5c-0.4-0.6-0.6-1.4-0.6-2.1
			c0-0.8,0.2-1.5,0.6-2.1c0.4-0.6,0.9-1.1,1.5-1.5c1.4-0.7,3-0.7,4.3,0c0.6,0.3,1.2,0.8,1.5,1.5c0.4,0.7,0.6,1.4,0.5,2.2
			C660.9,794.8,660.9,795,660.9,795.4z M655.4,792.8c-0.4,0.3-0.6,0.8-0.7,1.2h4c-0.1-0.5-0.3-0.9-0.7-1.2s-0.8-0.5-1.3-0.5
			S655.8,792.5,655.4,792.8L655.4,792.8z"/>
		<path class="st1" d="M669.8,791.5c0.7,0.7,1,1.7,0.9,2.7v4.6h-2.3v-4.3c0-0.5-0.1-1-0.4-1.4c-0.3-0.3-0.8-0.5-1.2-0.5
			c-0.5,0-1,0.2-1.4,0.5c-0.4,0.5-0.6,1-0.5,1.6v4h-2.3v-11.1h2.3v3.9c0.3-0.3,0.7-0.6,1.1-0.7c0.5-0.2,0.9-0.3,1.4-0.2
			C668.3,790.5,669.1,790.9,669.8,791.5z"/>
		<path class="st1" d="M680.8,795.4h-6.1c0.1,0.5,0.4,0.9,0.8,1.2c0.5,0.3,1,0.5,1.5,0.4c0.4,0,0.8-0.1,1.1-0.2
			c0.3-0.1,0.6-0.3,0.9-0.6l1.2,1.4c-0.9,0.9-2.1,1.4-3.3,1.3c-0.8,0-1.7-0.2-2.4-0.5s-1.2-0.8-1.6-1.5c-0.4-0.6-0.6-1.4-0.6-2.1
			c0-0.8,0.2-1.5,0.6-2.1c0.4-0.6,0.9-1.1,1.5-1.5c1.4-0.7,3-0.7,4.3,0c0.6,0.3,1.2,0.8,1.5,1.5c0.4,0.7,0.6,1.4,0.5,2.2
			C680.8,794.8,680.8,795,680.8,795.4z M675.3,792.8c-0.4,0.3-0.6,0.8-0.7,1.2h4c-0.1-0.5-0.3-0.9-0.7-1.2s-0.8-0.5-1.3-0.5
			C676.2,792.3,675.7,792.5,675.3,792.8L675.3,792.8z"/>
		<path class="st1" d="M683.1,798.6c-0.5-0.1-1.1-0.3-1.5-0.6l0.8-1.7c0.4,0.2,0.8,0.4,1.3,0.6c0.5,0.1,1,0.2,1.5,0.2
			c1,0,1.5-0.2,1.5-0.7c0-0.2-0.2-0.4-0.4-0.5c-0.4-0.1-0.8-0.2-1.2-0.3c-0.6-0.1-1.1-0.2-1.6-0.3c-0.4-0.1-0.8-0.4-1.1-0.7
			c-0.3-0.4-0.5-0.9-0.5-1.4s0.1-1,0.4-1.4c0.3-0.4,0.8-0.7,1.3-0.9c0.6-0.2,1.3-0.3,2-0.3c0.6,0,1.1,0.1,1.7,0.2
			c0.5,0.1,1,0.3,1.4,0.5l-0.8,1.7c-0.7-0.4-1.5-0.6-2.3-0.6c-0.4,0-0.8,0-1.1,0.2c-0.2,0.1-0.4,0.3-0.4,0.5s0.2,0.5,0.4,0.5
			c0.4,0.1,0.9,0.2,1.3,0.3c0.5,0.1,1.1,0.2,1.6,0.4c0.4,0.1,0.8,0.4,1.1,0.7c0.3,0.4,0.5,0.9,0.5,1.4s-0.2,1-0.5,1.3
			c-0.3,0.4-0.8,0.7-1.3,0.9c-0.7,0.2-1.4,0.3-2,0.3C684.4,798.9,683.8,798.8,683.1,798.6z"/>
		<path class="st1" d="M696.5,791.5c0.7,0.7,1.1,1.7,1,2.7v4.6h-2.2v-1c-0.5,0.8-1.5,1.2-2.5,1.1c-0.6,0-1.1-0.1-1.6-0.3
			c-0.4-0.2-0.8-0.5-1-0.9s-0.4-0.8-0.4-1.3c0-0.7,0.3-1.4,0.8-1.8c0.8-0.5,1.7-0.7,2.6-0.6h1.9c0-0.4-0.1-0.9-0.5-1.2
			s-0.9-0.4-1.4-0.4c-0.4,0-0.9,0.1-1.3,0.2c-0.4,0.1-0.7,0.3-1.1,0.5l-0.8-1.6c0.5-0.3,1-0.6,1.6-0.7c0.6-0.2,1.3-0.3,1.9-0.3
			C694.6,790.5,695.7,790.8,696.5,791.5z M694.5,797c0.3-0.2,0.5-0.5,0.7-0.8v-0.8h-1.6c-1,0-1.4,0.3-1.4,0.9c0,0.3,0.1,0.5,0.4,0.7
			c0.3,0.2,0.6,0.3,1,0.3C693.8,797.3,694.2,797.2,694.5,797L694.5,797z"/>
		<path class="st1" d="M712.1,787.6v11.1h-2.2v-0.9c-0.6,0.7-1.6,1.1-2.5,1c-0.7,0-1.4-0.2-2.1-0.5c-0.6-0.3-1.1-0.8-1.4-1.5
			c-0.7-1.4-0.7-3,0-4.4c0.3-0.6,0.8-1.1,1.4-1.5c0.6-0.3,1.3-0.5,2.1-0.5c0.9,0,1.8,0.3,2.4,1v-3.9L712.1,787.6z M709.2,796.4
			c0.8-0.9,0.8-2.3,0-3.3c-0.8-0.8-2.1-0.8-3,0c-0.8,0.9-0.8,2.3,0,3.3C707,797.2,708.4,797.2,709.2,796.4z"/>
		<path class="st1" d="M722.1,795.4H716c0.1,0.5,0.4,0.9,0.8,1.2c0.5,0.3,1,0.5,1.5,0.4c0.4,0,0.8-0.1,1.1-0.2
			c0.3-0.1,0.6-0.3,0.9-0.6l1.2,1.4c-0.9,0.9-2.1,1.4-3.3,1.3c-0.8,0-1.7-0.2-2.4-0.5s-1.2-0.8-1.6-1.5c-0.4-0.6-0.6-1.4-0.6-2.1
			c0-0.8,0.2-1.5,0.6-2.1c0.4-0.6,0.9-1.1,1.5-1.5c1.4-0.7,3-0.7,4.3,0c0.6,0.3,1.2,0.8,1.5,1.5c0.4,0.7,0.6,1.4,0.5,2.2
			C722.1,794.8,722.1,795,722.1,795.4z M716.6,792.8c-0.4,0.3-0.6,0.8-0.7,1.2h4c-0.1-0.5-0.3-0.9-0.7-1.2s-0.8-0.5-1.3-0.5
			C717.5,792.3,717,792.5,716.6,792.8L716.6,792.8z"/>
		<path class="st1" d="M635.8,812.2c-0.8-0.4-1.6-1.1-2-1.9c-1-1.7-1-3.9,0-5.6c0.5-0.8,1.2-1.5,2-1.9c0.9-0.5,1.9-0.7,2.9-0.7
			c0.8,0,1.7,0.2,2.5,0.5c0.7,0.3,1.4,0.8,1.9,1.4l-1.6,1.4c-0.6-0.8-1.6-1.2-2.6-1.2c-0.6,0-1.2,0.1-1.7,0.4
			c-0.5,0.3-0.9,0.7-1.2,1.2c-0.6,1.1-0.6,2.4,0,3.5c0.3,0.5,0.7,0.9,1.2,1.2s1.1,0.4,1.7,0.4c1,0,2-0.4,2.6-1.2l1.6,1.4
			c-0.5,0.6-1.1,1.1-1.9,1.4c-0.8,0.3-1.6,0.5-2.5,0.5C637.7,813,636.7,812.7,635.8,812.2z"/>
		<path class="st1" d="M650.6,805.5c0.7,0.7,1.1,1.7,1,2.7v4.6h-2.2v-1c-0.5,0.8-1.5,1.2-2.5,1.1c-0.6,0-1.1-0.1-1.6-0.3
			c-0.4-0.2-0.8-0.5-1-0.9s-0.4-0.8-0.4-1.3c0-0.7,0.3-1.4,0.8-1.8c0.8-0.5,1.7-0.7,2.6-0.6h1.9c0-0.4-0.1-0.9-0.5-1.2
			s-0.9-0.4-1.4-0.4c-0.4,0-0.9,0.1-1.3,0.2c-0.4,0.1-0.7,0.3-1.1,0.5l-0.8-1.6c0.5-0.3,1-0.6,1.6-0.7c0.6-0.2,1.3-0.3,1.9-0.3
			C648.7,804.5,649.7,804.8,650.6,805.5z M648.6,811c0.3-0.2,0.5-0.5,0.7-0.8v-0.8h-1.6c-1,0-1.4,0.3-1.4,0.9c0,0.3,0.1,0.5,0.4,0.7
			c0.3,0.2,0.6,0.3,1,0.3C647.9,811.3,648.2,811.2,648.6,811z"/>
		<path class="st1" d="M666.4,805.5c0.6,0.7,1,1.7,0.9,2.7v4.6H665v-4.3c0-0.5-0.1-1-0.4-1.4c-0.3-0.3-0.7-0.5-1.1-0.5
			c-0.5,0-1,0.2-1.3,0.5c-0.4,0.4-0.5,1-0.5,1.6v4h-2.3v-4.3c0-1.3-0.5-1.9-1.5-1.9c-0.5,0-1,0.2-1.3,0.5c-0.4,0.4-0.5,1-0.5,1.6v4
			h-2.3v-8.1h2.2v0.9c0.3-0.3,0.7-0.6,1.1-0.8c0.5-0.2,0.9-0.3,1.4-0.3s1.1,0.1,1.5,0.3c0.5,0.2,0.8,0.6,1.1,1
			c0.3-0.4,0.8-0.8,1.3-1s1.1-0.4,1.7-0.3C664.9,804.5,665.8,804.8,666.4,805.5z"/>
		<path class="st1" d="M676.2,805.1c0.6,0.3,1.1,0.8,1.4,1.5c0.7,1.4,0.7,3,0,4.4c-0.3,0.6-0.8,1.1-1.4,1.5c-0.6,0.3-1.3,0.5-2,0.5
			c-0.9,0-1.8-0.3-2.4-1v3.8h-2.3v-11h2.2v0.9c0.6-0.7,1.6-1.1,2.5-1.1C674.9,804.6,675.6,804.7,676.2,805.1z M675.2,810.4
			c0.8-0.9,0.8-2.3,0-3.3c-0.8-0.8-2.1-0.8-3,0c-0.8,0.9-0.8,2.3,0,3.3C673.1,811.2,674.4,811.2,675.2,810.4z"/>
		<path class="st1" d="M681.3,812.3c-0.7-0.3-1.2-0.8-1.6-1.5c-0.8-1.3-0.8-3,0-4.3c0.4-0.6,0.9-1.1,1.6-1.5c1.4-0.7,3.1-0.7,4.6,0
			c0.7,0.3,1.2,0.8,1.6,1.5c0.8,1.3,0.8,3,0,4.3c-0.4,0.6-0.9,1.1-1.6,1.5C684.4,813.1,682.7,813.1,681.3,812.3z M685.1,810.4
			c0.8-0.9,0.8-2.3,0-3.3c-0.4-0.4-0.9-0.6-1.5-0.6s-1.1,0.2-1.5,0.6c-0.8,0.9-0.8,2.3,0,3.3c0.4,0.4,0.9,0.6,1.5,0.6
			C684.2,811,684.7,810.8,685.1,810.4L685.1,810.4z"/>
		<path class="st1" d="M695.6,805.5c0.7,0.7,1.1,1.7,1,2.7v4.6h-2.2v-1c-0.5,0.8-1.5,1.2-2.5,1.1c-0.6,0-1.1-0.1-1.6-0.3
			c-0.4-0.2-0.8-0.5-1-0.9s-0.4-0.8-0.4-1.3c0-0.7,0.3-1.4,0.8-1.8c0.8-0.5,1.7-0.7,2.6-0.6h1.9c0-0.4-0.1-0.9-0.5-1.2
			s-0.9-0.4-1.4-0.4c-0.4,0-0.9,0.1-1.3,0.2c-0.4,0.1-0.7,0.3-1.1,0.5l-0.8-1.6c0.5-0.3,1-0.6,1.6-0.7c0.6-0.2,1.3-0.3,1.9-0.3
			C693.7,804.5,694.8,804.8,695.6,805.5z M693.6,811c0.3-0.2,0.5-0.5,0.7-0.8v-0.8h-1.6c-1,0-1.4,0.3-1.4,0.9c0,0.3,0.1,0.5,0.4,0.7
			c0.3,0.2,0.6,0.3,1,0.3C692.9,811.3,693.3,811.2,693.6,811z"/>
		<path class="st1" d="M711.4,805.5c0.6,0.7,1,1.7,0.9,2.7v4.6H710v-4.3c0-0.5-0.1-1-0.4-1.4c-0.3-0.3-0.7-0.5-1.1-0.5
			c-0.5,0-1,0.2-1.3,0.5c-0.4,0.4-0.5,1-0.5,1.6v4h-2.3v-4.3c0-1.3-0.5-1.9-1.5-1.9c-0.5,0-1,0.2-1.3,0.5c-0.4,0.4-0.5,1-0.5,1.6v4
			h-2.3v-8.1h2.2v0.9c0.3-0.3,0.7-0.6,1.1-0.8c0.5-0.2,0.9-0.3,1.4-0.3s1.1,0.1,1.5,0.3c0.5,0.2,0.8,0.6,1.1,1
			c0.3-0.4,0.8-0.8,1.3-1s1.1-0.4,1.7-0.3C709.9,804.5,710.8,804.8,711.4,805.5z"/>
		<path class="st1" d="M716.1,812.3c-0.7-0.3-1.2-0.8-1.6-1.5c-0.8-1.3-0.8-3,0-4.3c0.4-0.6,0.9-1.1,1.6-1.5c1.4-0.7,3.1-0.7,4.6,0
			c0.7,0.3,1.2,0.8,1.6,1.5c0.8,1.3,0.8,3,0,4.3c-0.4,0.6-0.9,1.1-1.6,1.5C719.2,813.1,717.5,813.1,716.1,812.3z M719.8,810.4
			c0.8-0.9,0.8-2.3,0-3.3c-0.4-0.4-0.9-0.6-1.5-0.6s-1.1,0.2-1.5,0.6c-0.8,0.9-0.8,2.3,0,3.3c0.4,0.4,0.9,0.6,1.5,0.6
			C718.9,811,719.5,810.8,719.8,810.4L719.8,810.4z"/>
		<path class="st1" d="M727.7,804.9c0.5-0.2,1.1-0.3,1.6-0.3v2.2c-0.3,0-0.4,0-0.5,0c-0.6,0-1.1,0.2-1.6,0.6
			c-0.4,0.5-0.6,1.1-0.6,1.7v3.8h-2.3v-8.1h2.2v1.1C726.9,805.4,727.3,805.1,727.7,804.9z"/>
	</g>
	<g>
		<path class="st1" d="M747.2,649.4h-3.4v-2h9.2v2h-3.4v8.5h-2.4L747.2,649.4z"/>
		<path class="st1" d="M754.9,657.5c-0.7-0.3-1.2-0.8-1.6-1.5c-0.8-1.3-0.8-3,0-4.3c0.4-0.6,0.9-1.1,1.6-1.5c1.4-0.7,3.1-0.7,4.6,0
			c0.7,0.3,1.2,0.8,1.6,1.5c0.8,1.3,0.8,3,0,4.3c-0.4,0.6-0.9,1.1-1.6,1.5C758,658.2,756.3,658.2,754.9,657.5z M758.6,655.5
			c0.8-0.9,0.8-2.3,0-3.3c-0.4-0.4-0.9-0.6-1.5-0.6s-1.1,0.2-1.5,0.6c-0.8,0.9-0.8,2.3,0,3.3c0.4,0.4,0.9,0.6,1.5,0.6
			C757.7,656.1,758.3,655.9,758.6,655.5z"/>
		<path class="st1" d="M766.5,650c0.5-0.2,1.1-0.3,1.6-0.3v2.2c-0.3,0-0.4,0-0.5,0c-0.6,0-1.1,0.2-1.6,0.6c-0.4,0.5-0.6,1.1-0.6,1.7
			v3.8h-2.3v-8.1h2.2v1.1C765.7,650.5,766.1,650.2,766.5,650z"/>
		<path class="st1" d="M772.9,650c0.5-0.2,1.1-0.3,1.6-0.3v2.2c-0.3,0-0.4,0-0.5,0c-0.6,0-1.1,0.2-1.6,0.6c-0.4,0.5-0.6,1.1-0.6,1.7
			v3.8h-2.3v-8.1h2.2v1.1C772.1,650.5,772.5,650.2,772.9,650z"/>
		<path class="st1" d="M783.7,654.5h-6.1c0.1,0.5,0.4,0.9,0.8,1.2c0.5,0.3,1,0.5,1.5,0.4c0.4,0,0.8-0.1,1.1-0.2
			c0.3-0.1,0.6-0.3,0.9-0.6l1.2,1.4c-0.9,0.9-2.1,1.4-3.3,1.3c-0.8,0-1.7-0.2-2.4-0.5s-1.2-0.8-1.6-1.5c-0.4-0.6-0.6-1.4-0.6-2.1
			c0-0.8,0.2-1.5,0.6-2.1c0.4-0.6,0.9-1.1,1.5-1.5c1.4-0.7,3-0.7,4.3,0c0.6,0.3,1.2,0.8,1.5,1.5c0.4,0.7,0.6,1.4,0.5,2.2
			C783.8,653.9,783.8,654.1,783.7,654.5z M778.3,651.9c-0.4,0.3-0.6,0.8-0.7,1.2h4c-0.1-0.5-0.3-0.9-0.7-1.2s-0.8-0.5-1.3-0.5
			C779.1,651.5,778.6,651.6,778.3,651.9L778.3,651.9z"/>
		<path class="st1" d="M793.2,649.8l-3.4,8.1h-2.4l-3.4-8.1h2.4l2.2,5.5l2.3-5.5H793.2z"/>
		<path class="st1" d="M794.3,648.3c-0.5-0.5-0.5-1.3-0.1-1.8c0,0,0,0,0.1-0.1c0.3-0.3,0.7-0.4,1-0.4c0.4,0,0.8,0.1,1,0.4
			c0.3,0.2,0.4,0.6,0.4,0.9c0,0.4-0.1,0.7-0.4,1C795.8,648.8,794.9,648.8,794.3,648.3L794.3,648.3z M794.2,649.8h2.3v8.1h-2.3V649.8
			z"/>
		<path class="st1" d="M806.5,654.5h-6.1c0.1,0.5,0.4,0.9,0.8,1.2c0.5,0.3,1,0.5,1.5,0.4c0.4,0,0.8-0.1,1.1-0.2
			c0.3-0.1,0.6-0.3,0.9-0.6l1.2,1.4c-0.9,0.9-2.1,1.4-3.3,1.3c-0.8,0-1.7-0.2-2.4-0.5s-1.2-0.8-1.6-1.5c-0.4-0.6-0.6-1.4-0.6-2.1
			c0-0.8,0.2-1.5,0.6-2.1c0.4-0.6,0.9-1.1,1.5-1.5c1.4-0.7,3-0.7,4.3,0c0.6,0.3,1.2,0.8,1.5,1.5c0.4,0.7,0.6,1.4,0.5,2.2
			C806.6,653.9,806.6,654.1,806.5,654.5z M801.1,651.9c-0.4,0.3-0.6,0.8-0.7,1.2h4c-0.1-0.5-0.3-0.9-0.7-1.2s-0.8-0.5-1.3-0.5
			C801.9,651.5,801.4,651.6,801.1,651.9L801.1,651.9z"/>
		<path class="st1" d="M805.7,660.5l0.6-1.7c0.3,0.2,0.6,0.3,1,0.3c0.3,0,0.5-0.1,0.7-0.3c0.2-0.3,0.3-0.6,0.3-0.9v-8.1h2.3v8.1
			c0,0.8-0.2,1.6-0.8,2.2c-0.6,0.6-1.4,0.9-2.2,0.8C806.9,661,806.2,660.8,805.7,660.5z M808.4,648.3c-0.5-0.5-0.5-1.3-0.1-1.8
			c0,0,0,0,0.1-0.1c0.3-0.3,0.7-0.4,1-0.4c0.4,0,0.8,0.1,1,0.4c0.3,0.2,0.4,0.6,0.4,0.9c0,0.4-0.1,0.7-0.4,1
			C809.9,648.8,809,648.8,808.4,648.3L808.4,648.3z"/>
		<path class="st1" d="M818.9,650.6c0.7,0.7,1.1,1.7,1,2.7v4.6h-2.2v-1c-0.5,0.8-1.5,1.2-2.5,1.1c-0.6,0-1.1-0.1-1.6-0.3
			c-0.4-0.2-0.8-0.5-1-0.9s-0.4-0.8-0.4-1.3c0-0.7,0.3-1.4,0.8-1.8c0.8-0.5,1.7-0.7,2.6-0.6h1.9c0-0.4-0.1-0.9-0.5-1.2
			s-0.9-0.4-1.4-0.4c-0.4,0-0.9,0.1-1.3,0.2c-0.4,0.1-0.7,0.3-1.1,0.5l-0.8-1.6c0.5-0.3,1-0.6,1.6-0.7c0.6-0.2,1.3-0.3,1.9-0.3
			C817,649.6,818.1,650,818.9,650.6z M816.9,656.2c0.3-0.2,0.5-0.5,0.7-0.8v-0.8H816c-1,0-1.4,0.3-1.4,0.9c0,0.3,0.1,0.5,0.4,0.7
			c0.3,0.2,0.6,0.3,1,0.3C816.2,656.5,816.6,656.4,816.9,656.2L816.9,656.2z"/>
	</g>
	<circle id="Texto-5" class="st1" cx="866.4" cy="586.5" r="3.7"/>
	<g>
		<path class="st1" d="M818.6,568.2h2.4v8.5h5.3v2h-7.7V568.2z"/>
		<path class="st1" d="M833.7,571.4c0.7,0.7,1.1,1.7,1,2.7v4.6h-2.2v-1c-0.5,0.8-1.5,1.2-2.5,1.1c-0.6,0-1.1-0.1-1.6-0.3
			c-0.4-0.2-0.8-0.5-1-0.9s-0.4-0.8-0.4-1.3c0-0.7,0.3-1.4,0.8-1.8c0.8-0.5,1.7-0.7,2.6-0.6h1.9c0-0.4-0.1-0.9-0.5-1.2
			s-0.9-0.5-1.4-0.4c-0.4,0-0.9,0.1-1.3,0.2c-0.4,0.1-0.7,0.3-1.1,0.5l-0.8-1.6c0.5-0.3,1-0.6,1.6-0.7c0.6-0.2,1.3-0.3,1.9-0.3
			C831.8,570.4,832.9,570.7,833.7,571.4z M831.7,576.9c0.3-0.2,0.5-0.5,0.7-0.8v-0.8h-1.6c-1,0-1.4,0.3-1.4,0.9
			c0,0.3,0.1,0.5,0.4,0.7c0.3,0.2,0.6,0.3,1,0.3C831,577.2,831.4,577.1,831.7,576.9L831.7,576.9z"/>
		<path class="st1" d="M850.8,578.7v-6.3l-3.1,5.2h-1.1l-3.1-5.1v6.2h-2.3v-10.5h2l3.9,6.5l3.9-6.5h2v10.5L850.8,578.7z"/>
		<path class="st1" d="M861.5,571.4c0.7,0.7,1.1,1.7,1,2.7v4.6h-2.2v-1c-0.5,0.8-1.5,1.2-2.5,1.1c-0.6,0-1.1-0.1-1.6-0.3
			c-0.4-0.2-0.8-0.5-1-0.9s-0.4-0.8-0.4-1.3c0-0.7,0.3-1.4,0.8-1.8c0.8-0.5,1.7-0.7,2.6-0.6h1.9c0-0.4-0.1-0.9-0.5-1.2
			s-0.9-0.5-1.4-0.4c-0.4,0-0.9,0.1-1.3,0.2c-0.4,0.1-0.7,0.3-1.1,0.5l-0.8-1.6c0.5-0.3,1-0.6,1.6-0.7c0.6-0.2,1.3-0.3,1.9-0.3
			C859.7,570.4,860.7,570.7,861.5,571.4z M859.5,576.9c0.3-0.2,0.5-0.5,0.7-0.8v-0.8h-1.6c-1,0-1.4,0.3-1.4,0.9
			c0,0.3,0.1,0.5,0.4,0.7c0.3,0.2,0.6,0.3,1,0.3C858.8,577.2,859.2,577.1,859.5,576.9z"/>
		<path class="st1" d="M869.8,578.3c-0.3,0.2-0.5,0.3-0.8,0.4c-0.3,0.1-0.7,0.1-1.1,0.1c-0.8,0.1-1.6-0.2-2.2-0.7
			c-0.6-0.6-0.8-1.4-0.8-2.2v-3.3h-1.2v-1.8h1.2v-2h2.3v2h2v1.8h-2v3.3c0,0.3,0.1,0.6,0.3,0.8s0.5,0.3,0.7,0.3
			c0.3,0,0.7-0.1,0.9-0.3L869.8,578.3z"/>
		<path class="st1" d="M877.3,571.4c0.7,0.7,1.1,1.7,1,2.7v4.6h-2.2v-1c-0.5,0.8-1.5,1.2-2.5,1.1c-0.6,0-1.1-0.1-1.6-0.3
			c-0.4-0.2-0.8-0.5-1-0.9s-0.4-0.8-0.4-1.3c0-0.7,0.3-1.4,0.8-1.8c0.8-0.5,1.7-0.7,2.6-0.6h1.9c0-0.4-0.1-0.9-0.5-1.2
			s-0.9-0.4-1.4-0.4c-0.4,0-0.9,0.1-1.3,0.2c-0.4,0.1-0.7,0.3-1.1,0.5l-0.8-1.6c0.5-0.3,1-0.6,1.6-0.7c0.6-0.2,1.3-0.3,1.9-0.3
			C875.4,570.4,876.5,570.7,877.3,571.4z M875.3,576.9c0.3-0.2,0.5-0.5,0.7-0.8v-0.8h-1.6c-1,0-1.4,0.3-1.4,0.9
			c0,0.3,0.1,0.5,0.4,0.7c0.3,0.2,0.6,0.3,1,0.3C874.6,577.2,875,577.1,875.3,576.9z"/>
	</g>
	<circle id="Texto-6" class="st1" cx="672.1" cy="632.8" r="3.7"/>
	<g>
		<path class="st1" d="M620.3,602.5c-0.7-0.2-1.3-0.5-1.9-0.9l0.8-1.8c0.5,0.3,1,0.6,1.6,0.8s1.2,0.3,1.9,0.3c0.5,0,1.1-0.1,1.5-0.3
			c0.3-0.2,0.5-0.5,0.5-0.8c0-0.2-0.1-0.5-0.3-0.6c-0.2-0.2-0.5-0.3-0.8-0.4c-0.3-0.1-0.7-0.2-1.2-0.3c-0.7-0.2-1.3-0.3-2-0.6
			c-0.5-0.2-1-0.5-1.3-0.9c-0.4-0.5-0.6-1.1-0.5-1.7c0-0.6,0.2-1.2,0.5-1.7c0.4-0.5,0.9-0.9,1.5-1.2c0.8-0.3,1.6-0.5,2.4-0.4
			c0.7,0,1.3,0.1,2,0.2c0.6,0.1,1.2,0.4,1.7,0.7l-0.8,1.8c-0.9-0.5-1.9-0.8-2.9-0.8c-0.5,0-1,0.1-1.5,0.3c-0.3,0.2-0.5,0.5-0.5,0.9
			s0.2,0.7,0.6,0.8c0.6,0.2,1.1,0.4,1.7,0.5c0.7,0.2,1.3,0.3,2,0.6c0.5,0.2,1,0.5,1.3,0.9c0.4,0.5,0.6,1.1,0.5,1.7
			c0,0.6-0.2,1.2-0.5,1.6c-0.4,0.5-0.9,0.9-1.5,1.2c-0.8,0.3-1.6,0.5-2.4,0.4C621.8,602.9,620.9,602.7,620.3,602.5z"/>
		<path class="st1" d="M634.8,595.4c0.7,0.7,1.1,1.7,1,2.7v4.6h-2.2v-1c-0.5,0.8-1.5,1.2-2.5,1.1c-0.6,0-1.1-0.1-1.6-0.3
			c-0.4-0.2-0.8-0.5-1-0.9s-0.4-0.8-0.4-1.3c0-0.7,0.3-1.4,0.8-1.8c0.8-0.5,1.7-0.7,2.6-0.6h1.9c0-0.4-0.1-0.9-0.5-1.2
			s-0.9-0.4-1.4-0.4c-0.4,0-0.9,0.1-1.3,0.2c-0.4,0.1-0.7,0.3-1.1,0.5l-0.8-1.6c0.5-0.3,1-0.6,1.6-0.7c0.6-0.2,1.3-0.3,1.9-0.3
			C632.8,594.4,633.8,594.7,634.8,595.4z M632.8,600.9c0.3-0.2,0.5-0.5,0.7-0.8v-0.8h-1.6c-1,0-1.4,0.3-1.4,0.9
			c0,0.3,0.1,0.5,0.4,0.7c0.3,0.2,0.6,0.3,1,0.3C632,601.2,632.3,601,632.8,600.9L632.8,600.9z"/>
		<path class="st1" d="M645.1,595.4c0.7,0.7,1,1.7,0.9,2.7v4.6h-2.3v-4.3c0-0.5-0.1-1-0.4-1.4c-0.3-0.3-0.8-0.5-1.2-0.5
			c-0.5,0-1,0.2-1.4,0.5c-0.4,0.5-0.6,1-0.5,1.6v4h-2.3v-8.1h2.2v0.9c0.3-0.3,0.7-0.6,1.2-0.8s1-0.3,1.5-0.3
			C643.6,594.4,644.5,594.8,645.1,595.4z"/>
		<path class="st1" d="M662.1,602.7v-6.3l-3.1,5.2H658l-3.1-5.1v6.2h-2.3v-10.5h2l3.9,6.5l3.9-6.5h2v10.5L662.1,602.7z"/>
		<path class="st1" d="M666.8,593c-0.5-0.5-0.5-1.3-0.1-1.8c0,0,0,0,0.1-0.1c0.3-0.3,0.7-0.4,1-0.4c0.4,0,0.8,0.1,1,0.4
			c0.3,0.2,0.4,0.6,0.4,0.9c0,0.4-0.1,0.7-0.4,1C668.3,593.5,667.4,593.5,666.8,593L666.8,593z M666.8,594.5h2.3v8.1h-2.3V594.5z"/>
		<path class="st1" d="M679.6,594.5v6.7c0.1,1.2-0.3,2.4-1.2,3.3c-0.9,0.8-2.2,1.2-3.4,1.1c-0.7,0-1.5-0.1-2.2-0.3
			c-0.6-0.2-1.2-0.4-1.7-0.8l0.9-1.7c0.4,0.3,0.8,0.5,1.3,0.7s1,0.2,1.6,0.2c0.6,0.1,1.3-0.1,1.8-0.5c0.4-0.4,0.6-1,0.6-1.7v-0.3
			c-0.7,0.7-1.6,1.1-2.5,1c-0.7,0-1.4-0.2-2-0.5s-1.1-0.8-1.5-1.4c-0.7-1.3-0.7-2.8,0-4.1c0.4-0.6,0.9-1.1,1.5-1.4
			c0.6-0.3,1.3-0.5,2-0.5c1-0.1,2,0.4,2.7,1.2v-1H679.6z M676.8,599.8c0.8-0.8,0.8-2.1,0-2.9c-0.4-0.4-1-0.6-1.5-0.5
			c-0.6,0-1.1,0.2-1.5,0.5c-0.8,0.8-0.8,2,0,2.8l0,0c0.4,0.4,1,0.6,1.5,0.5C675.8,600.4,676.3,600.2,676.8,599.8z"/>
		<path class="st1" d="M689.9,594.5v8.1h-2.2v-1c-0.3,0.3-0.7,0.6-1.1,0.8c-0.4,0.2-0.9,0.3-1.4,0.3c-0.9,0-1.8-0.3-2.5-0.9
			c-0.7-0.7-1-1.7-0.9-2.7v-4.6h2.3v4.2c0,1.3,0.5,2,1.6,2c0.5,0,1-0.2,1.3-0.5c0.4-0.5,0.6-1,0.5-1.6v-4L689.9,594.5z"/>
		<path class="st1" d="M699.9,599.3h-6.1c0.1,0.5,0.4,0.9,0.8,1.2c0.5,0.3,1,0.5,1.5,0.4c0.4,0,0.8-0.1,1.1-0.2
			c0.3-0.1,0.6-0.3,0.9-0.6l1.2,1.4c-0.9,0.9-2.1,1.4-3.3,1.3c-0.8,0-1.7-0.2-2.4-0.5s-1.2-0.8-1.6-1.5c-0.4-0.6-0.6-1.4-0.6-2.1
			c0-0.8,0.2-1.5,0.6-2.1c0.4-0.6,0.9-1.1,1.5-1.5c1.4-0.7,3-0.7,4.3,0c0.6,0.3,1.2,0.8,1.5,1.5c0.4,0.7,0.6,1.4,0.5,2.2
			C699.9,598.7,699.9,598.9,699.9,599.3z M694.4,596.7c-0.4,0.3-0.6,0.8-0.7,1.2h4c-0.1-0.5-0.3-0.9-0.7-1.2s-0.8-0.5-1.3-0.5
			C695.3,596.2,694.8,596.4,694.4,596.7z"/>
		<path class="st1" d="M701.5,591.5h2.3v11.1h-2.3V591.5z"/>
		<path class="st1" d="M630.9,609.5v11.1h-2.2v-0.9c-0.6,0.7-1.6,1.1-2.5,1c-0.7,0-1.4-0.2-2.1-0.5c-0.6-0.3-1.1-0.8-1.4-1.5
			c-0.7-1.4-0.7-3,0-4.4c0.3-0.6,0.8-1.1,1.4-1.5c0.6-0.3,1.3-0.5,2.1-0.5c0.9,0,1.8,0.3,2.4,1v-3.9L630.9,609.5z M628.1,618.3
			c0.8-0.9,0.8-2.3,0-3.3c-0.8-0.8-2.1-0.8-3,0c-0.8,0.9-0.8,2.3,0,3.3C625.9,619,627.3,619,628.1,618.3z"/>
		<path class="st1" d="M641,617.3H635c0.1,0.5,0.4,0.9,0.8,1.2c0.5,0.3,1,0.5,1.5,0.4c0.4,0,0.8-0.1,1.1-0.2
			c0.3-0.1,0.6-0.3,0.9-0.6l1.2,1.4c-0.9,0.9-2.1,1.4-3.3,1.3c-0.8,0-1.7-0.2-2.4-0.5s-1.2-0.8-1.6-1.5c-0.4-0.6-0.6-1.4-0.6-2.1
			c0-0.8,0.2-1.5,0.6-2.1c0.4-0.6,0.9-1.1,1.5-1.5c1.4-0.7,3-0.7,4.3,0c0.6,0.3,1.2,0.8,1.5,1.5c0.4,0.7,0.6,1.4,0.5,2.2
			C641,616.7,641,616.9,641,617.3z M635.5,614.7c-0.4,0.3-0.6,0.8-0.7,1.2h4c-0.1-0.5-0.3-0.9-0.7-1.2s-0.8-0.5-1.3-0.5
			S635.9,614.4,635.5,614.7z"/>
		<path class="st1" d="M648,620.5c-0.7-0.2-1.3-0.5-1.9-0.9l0.8-1.8c0.5,0.3,1,0.6,1.6,0.8s1.2,0.3,1.9,0.3c0.5,0,1.1-0.1,1.5-0.3
			c0.3-0.2,0.5-0.5,0.5-0.8c0-0.2-0.1-0.5-0.3-0.6c-0.2-0.2-0.5-0.3-0.8-0.4c-0.3-0.1-0.7-0.2-1.2-0.3c-0.7-0.2-1.3-0.3-2-0.6
			c-0.5-0.2-1-0.5-1.3-0.9c-0.4-0.5-0.6-1.1-0.5-1.7c0-0.6,0.2-1.2,0.5-1.7c0.4-0.5,0.9-0.9,1.5-1.2c0.8-0.3,1.6-0.5,2.4-0.4
			c0.7,0,1.3,0.1,2,0.2c0.6,0.1,1.2,0.4,1.7,0.7l-0.8,1.8c-0.9-0.5-1.9-0.8-2.9-0.8c-0.5,0-1,0.1-1.5,0.3c-0.3,0.2-0.5,0.5-0.5,0.9
			s0.2,0.7,0.6,0.8c0.6,0.2,1.1,0.4,1.7,0.5c0.7,0.2,1.3,0.3,2,0.6c0.5,0.2,1,0.5,1.3,0.9c0.4,0.5,0.6,1.1,0.5,1.7
			c0,0.6-0.2,1.2-0.5,1.6c-0.4,0.5-0.9,0.9-1.5,1.2c-0.8,0.3-1.6,0.5-2.4,0.4C649.6,620.9,648.8,620.7,648,620.5z"/>
		<path class="st1" d="M662.5,613.4c0.7,0.7,1.1,1.7,1,2.7v4.6h-2.2v-1c-0.5,0.8-1.5,1.2-2.5,1.1c-0.6,0-1.1-0.1-1.6-0.3
			c-0.4-0.2-0.8-0.5-1-0.9s-0.4-0.8-0.4-1.3c0-0.7,0.3-1.4,0.8-1.8c0.8-0.5,1.7-0.7,2.6-0.6h1.9c0-0.4-0.1-0.9-0.5-1.2
			s-0.9-0.4-1.4-0.4c-0.4,0-0.9,0.1-1.3,0.2c-0.4,0.1-0.7,0.3-1.1,0.5l-0.8-1.6c0.5-0.3,1-0.6,1.6-0.7c0.6-0.2,1.3-0.3,1.9-0.3
			C660.8,612.4,661.8,612.7,662.5,613.4z M660.5,618.9c0.3-0.2,0.5-0.5,0.7-0.8v-0.8h-1.6c-1,0-1.4,0.3-1.4,0.9
			c0,0.3,0.1,0.5,0.4,0.7c0.3,0.2,0.6,0.3,1,0.3C659.8,619.2,660.3,619,660.5,618.9L660.5,618.9z"/>
		<path class="st1" d="M665.6,609.5h2.3v11.1h-2.3V609.5z"/>
		<path class="st1" d="M670.3,611c-0.5-0.5-0.5-1.3-0.1-1.8c0,0,0,0,0.1-0.1c0.3-0.3,0.7-0.4,1-0.4c0.4,0,0.8,0.1,1,0.4
			c0.3,0.2,0.4,0.6,0.4,0.9c0,0.4-0.1,0.7-0.4,1c-0.3,0.3-0.7,0.4-1,0.4C670.9,611.5,670.6,611.4,670.3,611z M670.3,612.5h2.3v8.1
			h-2.3V612.5z"/>
		<path class="st1" d="M682,613.4c0.7,0.7,1,1.7,0.9,2.7v4.6h-2.3v-4.3c0-0.5-0.1-1-0.4-1.4c-0.3-0.3-0.8-0.5-1.2-0.5
			c-0.5,0-1,0.2-1.4,0.5c-0.4,0.5-0.6,1-0.5,1.6v4h-2.3v-8.1h2.2v0.9c0.3-0.3,0.7-0.6,1.2-0.8s1-0.3,1.5-0.3
			C680.5,612.4,681.3,612.8,682,613.4z"/>
		<path class="st1" d="M691.3,613.4c0.7,0.7,1.1,1.7,1,2.7v4.6H690v-1c-0.5,0.8-1.5,1.2-2.5,1.1c-0.6,0-1.1-0.1-1.6-0.3
			c-0.4-0.2-0.8-0.5-1-0.9s-0.4-0.8-0.4-1.3c0-0.7,0.3-1.4,0.8-1.8c0.8-0.5,1.7-0.7,2.6-0.6h1.9c0-0.4-0.1-0.9-0.5-1.2
			s-0.9-0.4-1.4-0.4c-0.4,0-0.9,0.1-1.3,0.2c-0.4,0.1-0.7,0.3-1.1,0.5l-0.8-1.6c0.5-0.3,1-0.6,1.6-0.7c0.6-0.2,1.3-0.3,1.9-0.3
			C689.3,612.4,690.4,612.7,691.3,613.4z M689.3,618.9c0.3-0.2,0.5-0.5,0.7-0.8v-0.8h-1.6c-1,0-1.4,0.3-1.4,0.9
			c0,0.3,0.1,0.5,0.4,0.7c0.3,0.2,0.6,0.3,1,0.3C688.5,619.2,688.9,619,689.3,618.9L689.3,618.9z"/>
		<path class="st1" d="M695,620.5c-0.5-0.1-1.1-0.3-1.5-0.6l0.8-1.7c0.4,0.2,0.8,0.4,1.3,0.6c0.5,0.1,1,0.2,1.5,0.2
			c1,0,1.5-0.2,1.5-0.7c0-0.2-0.2-0.4-0.4-0.5c-0.4-0.1-0.8-0.2-1.2-0.3c-0.6-0.1-1.1-0.2-1.6-0.3c-0.4-0.1-0.8-0.4-1.1-0.7
			c-0.3-0.4-0.5-0.9-0.5-1.4s0.1-1,0.4-1.4c0.3-0.4,0.8-0.7,1.3-0.9c0.6-0.2,1.3-0.3,2-0.3c0.6,0,1.1,0.1,1.7,0.2
			c0.5,0.1,1,0.3,1.4,0.5l-0.8,1.7c-0.7-0.4-1.5-0.6-2.3-0.6c-0.4,0-0.8,0-1.1,0.2c-0.2,0.1-0.4,0.3-0.4,0.5s0.2,0.5,0.4,0.5
			c0.4,0.1,0.9,0.2,1.3,0.3c0.5,0.1,1.1,0.2,1.6,0.4c0.4,0.1,0.8,0.4,1.1,0.7c0.3,0.4,0.5,0.9,0.5,1.4s-0.2,1-0.5,1.3
			c-0.3,0.4-0.8,0.7-1.3,0.9c-0.7,0.2-1.4,0.3-2,0.3C696.3,620.8,695.8,620.7,695,620.5z"/>
	</g>
	<circle id="Texto-7" class="st1" cx="682.8" cy="560.6" r="3.7"/>
	<g>
		<path class="st1" d="M635.7,550v-6.3l-3.1,5.2h-1.1l-3.1-5.1v6.2h-2.3v-10.5h2l3.9,6.5l3.9-6.5h2V550H635.7z"/>
		<path class="st1" d="M641.8,549.6c-0.7-0.3-1.2-0.8-1.6-1.5c-0.8-1.3-0.8-3,0-4.3c0.4-0.6,0.9-1.1,1.6-1.5c1.4-0.7,3.1-0.7,4.6,0
			c0.7,0.3,1.2,0.8,1.6,1.5c0.8,1.3,0.8,3,0,4.3c-0.4,0.6-0.9,1.1-1.6,1.5C645,550.3,643.3,550.3,641.8,549.6z M645.6,547.6
			c0.8-0.9,0.8-2.3,0-3.3c-0.4-0.4-0.9-0.6-1.5-0.6s-1.1,0.2-1.5,0.6c-0.8,0.9-0.8,2.3,0,3.3c0.4,0.4,0.9,0.6,1.5,0.6
			S645.2,548,645.6,547.6L645.6,547.6z"/>
		<path class="st1" d="M657.4,542.7c0.7,0.7,1,1.7,0.9,2.7v4.6H656v-4.3c0-0.5-0.1-1-0.4-1.4c-0.3-0.3-0.8-0.5-1.2-0.5
			c-0.5,0-1,0.2-1.4,0.5c-0.4,0.5-0.6,1-0.5,1.6v4h-2.3v-8h2.2v0.9c0.3-0.3,0.7-0.6,1.2-0.8c0.5-0.2,1-0.3,1.5-0.3
			C655.9,541.7,656.8,542.1,657.4,542.7z"/>
		<path class="st1" d="M665.7,549.6c-0.3,0.2-0.5,0.3-0.8,0.4s-0.7,0.1-1.1,0.1c-0.8,0.1-1.6-0.2-2.2-0.7c-0.6-0.6-0.8-1.4-0.8-2.2
			v-3.3h-1.2v-1.8h1.2v-2h2.3v2h2v1.8h-2v3.3c0,0.3,0.1,0.6,0.3,0.8c0.2,0.2,0.5,0.3,0.7,0.3c0.3,0,0.7-0.1,0.9-0.3L665.7,549.6z"/>
		<path class="st1" d="M674.6,546.6h-6.1c0.1,0.5,0.4,0.9,0.8,1.2c0.5,0.3,1,0.5,1.5,0.4c0.4,0,0.8-0.1,1.1-0.2
			c0.3-0.1,0.6-0.3,0.9-0.6l1.2,1.4c-0.9,0.9-2.1,1.4-3.3,1.3c-0.8,0-1.7-0.2-2.4-0.5c-0.7-0.3-1.2-0.8-1.6-1.5
			c-0.4-0.6-0.6-1.4-0.6-2.1c0-0.8,0.2-1.5,0.6-2.1c0.4-0.6,0.9-1.1,1.5-1.5c1.4-0.7,3-0.7,4.3,0c0.6,0.3,1.2,0.8,1.5,1.5
			c0.4,0.7,0.6,1.4,0.5,2.2C674.7,546,674.6,546.2,674.6,546.6z M669.1,544c-0.4,0.3-0.6,0.8-0.7,1.2h4c-0.1-0.5-0.3-0.9-0.7-1.2
			c-0.4-0.3-0.8-0.5-1.3-0.5C670,543.5,669.5,543.7,669.1,544z"/>
		<path class="st1" d="M677,549.8c-0.5-0.1-1.1-0.3-1.5-0.6l0.8-1.7c0.4,0.2,0.8,0.4,1.3,0.6c0.5,0.1,1,0.2,1.5,0.2
			c1,0,1.5-0.2,1.5-0.7c0-0.2-0.2-0.4-0.4-0.5c-0.4-0.1-0.8-0.2-1.2-0.3c-0.6-0.1-1.1-0.2-1.6-0.3c-0.4-0.1-0.8-0.4-1.1-0.7
			c-0.3-0.4-0.5-0.9-0.5-1.4s0.1-1,0.4-1.4c0.3-0.4,0.8-0.7,1.3-0.9c0.6-0.2,1.3-0.3,2-0.3c0.6,0,1.1,0.1,1.7,0.2
			c0.5,0.1,1,0.3,1.4,0.5l-0.8,1.7c-0.7-0.4-1.5-0.6-2.3-0.6c-0.4,0-0.8,0-1.1,0.2c-0.2,0.1-0.4,0.3-0.4,0.5c0,0.2,0.2,0.5,0.4,0.5
			c0.4,0.1,0.9,0.2,1.3,0.3c0.5,0.1,1.1,0.2,1.6,0.4c0.4,0.1,0.8,0.4,1.1,0.7c0.3,0.4,0.5,0.9,0.5,1.4s-0.2,1-0.5,1.3
			c-0.3,0.4-0.8,0.7-1.3,0.9c-0.7,0.2-1.4,0.3-2,0.3C678.3,550.1,677.6,550,677,549.8z"/>
		<path class="st1" d="M684.3,540.4c-0.5-0.5-0.5-1.3-0.1-1.8c0,0,0,0,0.1-0.1c0.3-0.3,0.7-0.4,1-0.4c0.4,0,0.8,0.1,1,0.4
			c0.3,0.2,0.4,0.6,0.4,0.9c0,0.4-0.1,0.7-0.4,1C685.8,540.9,684.9,540.9,684.3,540.4L684.3,540.4z M684.2,541.9h2.3v8.1h-2.3V541.9
			z"/>
		<path class="st1" d="M696,542.7c0.7,0.7,1,1.7,0.9,2.7v4.6h-2.3v-4.3c0-0.5-0.1-1-0.4-1.4c-0.3-0.3-0.8-0.5-1.2-0.5
			c-0.5,0-1,0.2-1.4,0.5c-0.4,0.5-0.6,1-0.5,1.6v4h-2.3v-8h2.2v0.9c0.3-0.3,0.7-0.6,1.2-0.8c0.5-0.2,1-0.3,1.5-0.3
			C694.5,541.7,695.4,542.1,696,542.7z"/>
		<path class="st1" d="M700.7,549.6c-0.7-0.3-1.2-0.8-1.6-1.5c-0.8-1.3-0.8-3,0-4.3c0.4-0.6,0.9-1.1,1.6-1.5c1.4-0.7,3.1-0.7,4.6,0
			c0.7,0.3,1.2,0.8,1.6,1.5c0.8,1.3,0.8,3,0,4.3c-0.4,0.6-0.9,1.1-1.6,1.5C703.8,550.3,702.1,550.3,700.7,549.6z M704.5,547.6
			c0.8-0.9,0.8-2.3,0-3.3c-0.4-0.4-0.9-0.6-1.5-0.6s-1.1,0.2-1.5,0.6c-0.8,0.9-0.8,2.3,0,3.3c0.4,0.4,0.9,0.6,1.5,0.6
			C703.6,548.2,704.1,548,704.5,547.6L704.5,547.6z"/>
		<path class="st1" d="M709.7,549.8c-0.5-0.1-1.1-0.3-1.5-0.6l0.8-1.7c0.4,0.2,0.8,0.4,1.3,0.6c0.5,0.1,1,0.2,1.5,0.2
			c1,0,1.5-0.2,1.5-0.7c0-0.2-0.2-0.4-0.4-0.5c-0.4-0.1-0.8-0.2-1.2-0.3c-0.6-0.1-1.1-0.2-1.6-0.3c-0.4-0.1-0.8-0.4-1.1-0.7
			c-0.3-0.4-0.5-0.9-0.5-1.4s0.1-1,0.4-1.4c0.3-0.4,0.8-0.7,1.3-0.9c0.6-0.2,1.3-0.3,2-0.3c0.6,0,1.1,0.1,1.7,0.2
			c0.5,0.1,1,0.3,1.4,0.5l-0.8,1.7c-0.7-0.4-1.5-0.6-2.3-0.6c-0.4,0-0.8,0-1.1,0.2c-0.2,0.1-0.4,0.3-0.4,0.5c0,0.2,0.2,0.5,0.4,0.5
			c0.4,0.1,0.9,0.2,1.3,0.3c0.5,0.1,1.1,0.2,1.6,0.4c0.4,0.1,0.8,0.4,1.1,0.7c0.3,0.4,0.5,0.9,0.5,1.4s-0.2,1-0.5,1.3
			c-0.3,0.4-0.8,0.7-1.3,0.9c-0.7,0.2-1.4,0.3-2,0.3C711,550.1,710.4,550,709.7,549.8z"/>
	</g>
	<circle id="Texto-8" class="st1" cx="729" cy="529.5" r="3.7"/>
	<g>
		<path class="st1" d="M700.7,500.2c-0.8-0.4-1.6-1.1-2-1.9c-1-1.7-1-3.9,0-5.6c0.5-0.8,1.2-1.5,2-1.9c0.9-0.5,1.9-0.7,2.9-0.7
			c0.8,0,1.7,0.2,2.5,0.5c0.7,0.3,1.4,0.8,1.9,1.4l-1.6,1.4c-0.6-0.8-1.6-1.2-2.6-1.2c-0.6,0-1.2,0.1-1.7,0.4s-0.9,0.7-1.2,1.2
			c-0.6,1.1-0.6,2.4,0,3.5c0.3,0.5,0.7,0.9,1.2,1.2c0.5,0.3,1.1,0.4,1.7,0.4c1,0,2-0.4,2.6-1.2l1.6,1.4c-0.5,0.6-1.1,1.1-1.9,1.4
			c-0.8,0.3-1.6,0.5-2.5,0.5C702.6,500.9,701.6,500.7,700.7,500.2z"/>
		<path class="st1" d="M709.5,491.1c-0.5-0.5-0.5-1.3-0.1-1.8c0,0,0,0,0.1-0.1c0.3-0.3,0.7-0.4,1-0.4c0.4,0,0.8,0.1,1,0.4
			c0.3,0.2,0.4,0.6,0.4,0.9c0,0.4-0.1,0.7-0.4,1c-0.3,0.3-0.7,0.4-1,0.4C710.2,491.5,709.8,491.4,709.5,491.1z M709.4,492.6h2.3v8.1
			h-2.3V492.6z"/>
		<path class="st1" d="M722,492.6v8.1h-2.2v-1c-0.3,0.3-0.7,0.6-1.1,0.8c-0.4,0.2-0.9,0.3-1.4,0.3c-0.9,0-1.8-0.3-2.5-0.9
			c-0.7-0.7-1-1.7-0.9-2.7v-4.6h2.3v4.2c0,1.3,0.5,2,1.6,2c0.5,0,1-0.2,1.3-0.5c0.4-0.5,0.6-1,0.5-1.6v-4L722,492.6z"/>
		<path class="st1" d="M732.4,489.6v11.1h-2.2v-0.9c-0.6,0.7-1.6,1.1-2.5,1c-0.7,0-1.4-0.2-2.1-0.5c-0.6-0.3-1.1-0.8-1.4-1.5
			c-0.7-1.4-0.7-3,0-4.4c0.3-0.6,0.8-1.1,1.4-1.5c0.6-0.3,1.3-0.5,2.1-0.5c0.9,0,1.8,0.3,2.4,1v-3.9L732.4,489.6z M729.5,498.3
			c0.8-0.9,0.8-2.3,0-3.3c-0.8-0.8-2.1-0.8-3,0c-0.8,0.9-0.8,2.3,0,3.3C727.4,499.1,728.7,499.1,729.5,498.3z"/>
		<path class="st1" d="M740.7,493.4c0.7,0.7,1.1,1.7,1,2.7v4.6h-2.2v-1c-0.5,0.8-1.5,1.2-2.5,1.1c-0.6,0-1.1-0.1-1.6-0.3
			c-0.4-0.2-0.8-0.5-1-0.9s-0.4-0.8-0.4-1.3c0-0.7,0.3-1.4,0.8-1.8c0.8-0.5,1.7-0.7,2.6-0.6h1.9c0-0.4-0.1-0.9-0.5-1.2
			c-0.4-0.3-0.9-0.4-1.4-0.4c-0.4,0-0.9,0.1-1.3,0.2c-0.4,0.1-0.7,0.3-1.1,0.5l-0.8-1.6c0.5-0.3,1-0.6,1.6-0.7
			c0.6-0.2,1.3-0.3,1.9-0.3C738.9,492.4,739.9,492.8,740.7,493.4z M738.7,499c0.3-0.2,0.5-0.5,0.7-0.8v-0.8h-1.6
			c-1,0-1.4,0.3-1.4,0.9c0,0.3,0.1,0.5,0.4,0.7c0.3,0.2,0.6,0.3,1,0.3C738,499.3,738.4,499.2,738.7,499L738.7,499z"/>
		<path class="st1" d="M752.1,489.6v11.1h-2.2v-0.9c-0.6,0.7-1.6,1.1-2.5,1c-0.7,0-1.4-0.2-2.1-0.5c-0.6-0.3-1.1-0.8-1.4-1.5
			c-0.7-1.4-0.7-3,0-4.4c0.3-0.6,0.8-1.1,1.4-1.5c0.6-0.3,1.3-0.5,2.1-0.5c0.9,0,1.8,0.3,2.4,1v-3.9L752.1,489.6z M749.3,498.3
			c0.8-0.9,0.8-2.3,0-3.3c-0.8-0.8-2.1-0.8-3,0c-0.8,0.9-0.8,2.3,0,3.3C747.1,499.1,748.4,499.1,749.3,498.3z"/>
		<path class="st1" d="M703.2,519.8c-0.3,0.4-0.8,0.7-1.2,1c-0.5,0.2-1,0.3-1.6,0.3c-0.7,0-1.5-0.2-2.1-0.5
			c-0.8-0.5-1.5-1.1-2.2-1.8c-0.9-0.1-1.8-0.4-2.5-0.9s-1.3-1.1-1.7-1.9s-0.6-1.7-0.6-2.6c0-1,0.2-1.9,0.7-2.8
			c0.5-0.8,1.2-1.5,2.1-1.9c1.8-0.9,4-0.9,5.9,0c1.8,0.9,2.8,2.7,2.8,4.7c0,1.2-0.3,2.3-1,3.2c-0.7,0.9-1.6,1.6-2.7,1.9
			c0.2,0.2,0.5,0.4,0.7,0.6c0.2,0.1,0.5,0.2,0.8,0.2c0.7,0,1.3-0.3,1.7-0.8L703.2,519.8z M694,515.2c0.3,0.5,0.7,0.9,1.2,1.2
			c1,0.6,2.3,0.6,3.4,0c0.5-0.3,0.9-0.7,1.2-1.2c0.6-1.1,0.6-2.4,0-3.5c-0.3-0.5-0.7-0.9-1.2-1.2c-1-0.6-2.3-0.6-3.4,0
			c-0.5,0.3-0.9,0.7-1.2,1.2C693.5,512.8,693.5,514.1,694,515.2z"/>
		<path class="st1" d="M712.4,510.6v8.1h-2.2v-1c-0.3,0.3-0.7,0.6-1.1,0.8c-0.4,0.2-0.9,0.3-1.4,0.3c-0.9,0-1.8-0.3-2.5-0.9
			c-0.7-0.7-1-1.7-0.9-2.7v-4.6h2.3v4.2c0,1.3,0.5,2,1.6,2c0.5,0,1-0.2,1.4-0.5c0.4-0.5,0.6-1,0.5-1.6v-4L712.4,510.6z"/>
		<path class="st1" d="M722.5,515.3h-6.1c0.1,0.5,0.4,0.9,0.8,1.2c0.5,0.3,1,0.5,1.5,0.4c0.4,0,0.8-0.1,1.1-0.2
			c0.3-0.1,0.6-0.3,0.9-0.6l1.2,1.4c-0.9,0.9-2.1,1.4-3.3,1.3c-0.8,0-1.7-0.2-2.4-0.5c-0.7-0.3-1.2-0.8-1.6-1.5
			c-0.4-0.6-0.6-1.4-0.6-2.1c0-0.8,0.2-1.5,0.6-2.1c0.4-0.6,0.9-1.1,1.5-1.5c1.4-0.7,3-0.7,4.3,0c0.6,0.3,1.2,0.8,1.5,1.5
			c0.4,0.7,0.6,1.4,0.5,2.2C722.5,514.7,722.5,514.9,722.5,515.3z M717,512.7c-0.4,0.3-0.6,0.8-0.7,1.2h4c-0.1-0.5-0.3-0.9-0.7-1.2
			c-0.4-0.3-0.8-0.5-1.3-0.5C717.9,512.3,717.4,512.4,717,512.7L717,512.7z"/>
		<path class="st1" d="M724.8,518.6c-0.5-0.1-1.1-0.3-1.5-0.6l0.8-1.7c0.4,0.2,0.8,0.4,1.3,0.6c0.5,0.1,1,0.2,1.5,0.2
			c1,0,1.5-0.2,1.5-0.7c0-0.2-0.2-0.4-0.4-0.5c-0.4-0.1-0.8-0.2-1.2-0.3c-0.6-0.1-1.1-0.2-1.6-0.3c-0.4-0.1-0.8-0.4-1.1-0.7
			c-0.3-0.4-0.5-0.9-0.5-1.4s0.1-1,0.4-1.4c0.3-0.4,0.8-0.7,1.3-0.9c0.6-0.2,1.3-0.3,2-0.3c0.6,0,1.1,0.1,1.7,0.2
			c0.5,0.1,1,0.3,1.4,0.5l-0.8,1.7c-0.7-0.4-1.5-0.6-2.3-0.6c-0.4,0-0.8,0-1.1,0.2c-0.2,0.1-0.4,0.3-0.4,0.5s0.2,0.5,0.4,0.5
			c0.4,0.1,0.9,0.2,1.3,0.3c0.5,0.1,1.1,0.2,1.6,0.4c0.4,0.1,0.8,0.4,1.1,0.7c0.3,0.4,0.5,0.9,0.5,1.4s-0.2,1-0.5,1.3
			c-0.3,0.4-0.8,0.7-1.3,0.9c-0.7,0.2-1.4,0.3-2,0.3C726.1,518.8,725.5,518.7,724.8,518.6z"/>
		<path class="st1" d="M738.2,511.4c0.7,0.7,1.1,1.7,1,2.7v4.6H737v-1c-0.5,0.8-1.5,1.2-2.5,1.1c-0.6,0-1.1-0.1-1.6-0.3
			c-0.4-0.2-0.8-0.5-1-0.9s-0.4-0.8-0.4-1.3c0-0.7,0.3-1.4,0.8-1.8c0.8-0.5,1.7-0.7,2.6-0.6h1.9c0-0.4-0.1-0.9-0.5-1.2
			c-0.4-0.3-0.9-0.4-1.4-0.4c-0.4,0-0.9,0.1-1.3,0.2c-0.4,0.1-0.7,0.3-1.1,0.5l-0.8-1.6c0.5-0.3,1-0.6,1.6-0.7
			c0.6-0.2,1.3-0.3,1.9-0.3C736.3,510.4,737.4,510.8,738.2,511.4z M736.2,517c0.3-0.2,0.5-0.5,0.7-0.8v-0.8h-1.6
			c-1,0-1.4,0.3-1.4,0.9c0,0.3,0.1,0.5,0.4,0.7c0.3,0.2,0.6,0.3,1,0.3C735.5,517.3,735.9,517.2,736.2,517z"/>
		<path class="st1" d="M749.6,507.6v11.1h-2.2v-0.9c-0.6,0.7-1.6,1.1-2.5,1c-0.7,0-1.4-0.2-2.1-0.5c-0.6-0.3-1.1-0.8-1.4-1.5
			c-0.7-1.4-0.7-3,0-4.4c0.3-0.6,0.8-1.1,1.4-1.5c0.6-0.3,1.3-0.5,2.1-0.5c0.9,0,1.8,0.3,2.4,1v-3.9L749.6,507.6z M746.7,516.3
			c0.8-0.9,0.8-2.3,0-3.3c-0.8-0.8-2.1-0.8-3,0c-0.8,0.9-0.8,2.3,0,3.3C744.6,517.1,745.9,517.1,746.7,516.3z"/>
		<path class="st1" d="M757.9,511.4c0.7,0.7,1.1,1.7,1,2.7v4.6h-2.2v-1c-0.5,0.8-1.5,1.2-2.5,1.1c-0.6,0-1.1-0.1-1.6-0.3
			c-0.4-0.2-0.8-0.5-1-0.9s-0.4-0.8-0.4-1.3c0-0.7,0.3-1.4,0.8-1.8c0.8-0.5,1.7-0.7,2.6-0.6h1.9c0-0.4-0.1-0.9-0.5-1.2
			c-0.4-0.3-0.9-0.4-1.4-0.4c-0.4,0-0.9,0.1-1.3,0.2c-0.4,0.1-0.7,0.3-1.1,0.5l-0.8-1.6c0.5-0.3,1-0.6,1.6-0.7
			c0.6-0.2,1.3-0.3,1.9-0.3C756.1,510.4,757.1,510.8,757.9,511.4z M755.9,517c0.3-0.2,0.5-0.5,0.7-0.8v-0.8H755
			c-1,0-1.4,0.3-1.4,0.9c0,0.3,0.1,0.5,0.4,0.7c0.3,0.2,0.6,0.3,1,0.3C755.2,517.3,755.6,517.2,755.9,517z"/>
	</g>
	<circle id="Texto-9" class="st1" cx="780.8" cy="472.7" r="3.7"/>
	<g>
		<path class="st1" d="M760.4,462.9l-2-2.9h-2.2v2.9h-2.4v-10.5h4.5c0.8,0,1.7,0.1,2.4,0.5c1.3,0.6,2.2,1.9,2.1,3.3
			c0.1,1.5-0.8,2.8-2.2,3.3l2.4,3.4L760.4,462.9L760.4,462.9z M759.8,454.8c-0.5-0.3-1.1-0.5-1.7-0.5h-2v3.7h2
			c0.6,0,1.2-0.1,1.7-0.5C760.6,456.8,760.6,455.6,759.8,454.8L759.8,454.8L759.8,454.8z"/>
		<path class="st1" d="M766.1,462.5c-0.7-0.3-1.2-0.8-1.6-1.5c-0.8-1.3-0.8-3,0-4.3c0.4-0.6,0.9-1.1,1.6-1.5c1.4-0.7,3.1-0.7,4.6,0
			c0.7,0.3,1.2,0.8,1.6,1.5c0.8,1.3,0.8,3,0,4.3c-0.4,0.6-0.9,1.1-1.6,1.5C769.3,463.2,767.6,463.2,766.1,462.5z M769.9,460.5
			c0.8-0.9,0.8-2.3,0-3.3c-0.4-0.4-0.9-0.6-1.5-0.6s-1.1,0.2-1.5,0.6c-0.8,0.9-0.8,2.3,0,3.3c0.4,0.4,0.9,0.6,1.5,0.6
			S769.5,460.9,769.9,460.5L769.9,460.5z"/>
		<path class="st1" d="M771.9,465.4l0.6-1.7c0.3,0.2,0.6,0.3,1,0.3c0.3,0,0.5-0.1,0.7-0.3c0.2-0.3,0.3-0.6,0.3-0.9v-8.1h2.3v8.1
			c0,0.8-0.2,1.6-0.8,2.2c-0.6,0.6-1.4,0.9-2.2,0.8C773.2,465.9,772.5,465.8,771.9,465.4z M774.6,453.3c-0.5-0.5-0.5-1.3-0.1-1.8
			c0,0,0,0,0.1-0.1c0.3-0.3,0.7-0.4,1-0.4c0.4,0,0.8,0.1,1,0.4c0.3,0.2,0.4,0.6,0.4,0.9c0,0.4-0.1,0.7-0.4,1c-0.3,0.3-0.7,0.4-1,0.4
			S774.9,453.5,774.6,453.3L774.6,453.3z"/>
		<path class="st1" d="M785.2,455.6c0.7,0.7,1.1,1.7,1,2.7v4.6H784v-1c-0.5,0.8-1.5,1.2-2.5,1.1c-0.6,0-1.1-0.1-1.6-0.3
			c-0.4-0.2-0.8-0.5-1-0.9c-0.2-0.4-0.4-0.8-0.4-1.3c0-0.7,0.3-1.4,0.8-1.8c0.8-0.5,1.7-0.7,2.6-0.6h1.9c0-0.4-0.1-0.9-0.5-1.2
			s-0.9-0.4-1.4-0.4c-0.4,0-0.9,0.1-1.3,0.2c-0.4,0.1-0.7,0.3-1.1,0.5l-0.8-1.6c0.5-0.3,1-0.6,1.6-0.7c0.6-0.2,1.3-0.3,1.9-0.3
			C783.3,454.6,784.3,454.9,785.2,455.6z M783.2,461.1c0.3-0.2,0.5-0.5,0.7-0.8v-0.8h-1.6c-1,0-1.4,0.3-1.4,0.9
			c0,0.3,0.1,0.5,0.4,0.7c0.3,0.2,0.6,0.3,1,0.3C782.5,461.4,782.8,461.3,783.2,461.1z"/>
		<path class="st1" d="M788.3,451.7h2.3v11.1h-2.3V451.7z"/>
		<path class="st1" d="M800.6,459.5h-6.1c0.1,0.5,0.4,0.9,0.8,1.2c0.5,0.3,1,0.5,1.5,0.4c0.4,0,0.8-0.1,1.1-0.2
			c0.3-0.1,0.6-0.3,0.9-0.6l1.2,1.4c-0.9,0.9-2.1,1.4-3.3,1.3c-0.8,0-1.7-0.2-2.4-0.5s-1.2-0.8-1.6-1.5c-0.4-0.6-0.6-1.4-0.6-2.1
			c0-0.8,0.2-1.5,0.6-2.1c0.4-0.6,0.9-1.1,1.5-1.5c1.4-0.7,3-0.7,4.3,0c0.6,0.3,1.2,0.8,1.5,1.5c0.4,0.7,0.6,1.4,0.5,2.2
			C800.7,458.9,800.7,459.1,800.6,459.5z M795.2,456.9c-0.4,0.3-0.6,0.8-0.7,1.2h4c-0.1-0.5-0.3-0.9-0.7-1.2s-0.8-0.5-1.3-0.5
			S795.5,456.6,795.2,456.9z"/>
		<path class="st1" d="M803,462.7c-0.5-0.1-1.1-0.3-1.5-0.6l0.8-1.7c0.4,0.2,0.8,0.4,1.3,0.6c0.5,0.1,1,0.2,1.5,0.2
			c1,0,1.5-0.2,1.5-0.7c0-0.2-0.2-0.4-0.4-0.5c-0.4-0.1-0.8-0.2-1.2-0.3c-0.6-0.1-1.1-0.2-1.6-0.3c-0.4-0.1-0.8-0.4-1.1-0.7
			c-0.3-0.4-0.5-0.9-0.5-1.4s0.1-1,0.4-1.4c0.3-0.4,0.8-0.7,1.3-0.9c0.6-0.2,1.3-0.3,2-0.3c0.6,0,1.1,0.1,1.7,0.2
			c0.5,0.1,1,0.3,1.4,0.5l-0.8,1.7c-0.7-0.4-1.5-0.6-2.3-0.6c-0.4,0-0.8,0-1.1,0.2c-0.2,0.1-0.4,0.3-0.4,0.5s0.2,0.5,0.4,0.5
			c0.4,0.1,0.9,0.2,1.3,0.3c0.5,0.1,1.1,0.2,1.6,0.4c0.4,0.1,0.8,0.4,1.1,0.7c0.3,0.4,0.5,0.9,0.5,1.4s-0.2,1-0.5,1.3
			c-0.3,0.4-0.8,0.7-1.3,0.9c-0.7,0.2-1.4,0.3-2,0.3C804.3,463,803.6,462.9,803,462.7z"/>
	</g>
	<circle id="Texto-10" class="st1" cx="633.5" cy="464.4" r="3.7"/>
	<g>
		<path class="st1" d="M606.3,451.5h-4.9l-0.9,2.3H598l4.7-10.5h2.4l4.7,10.5h-2.5L606.3,451.5z M605.6,449.6l-1.7-4l-1.7,4H605.6z"
			/>
		<path class="st1" d="M610.7,442.6h2.3v11.1h-2.3V442.6z"/>
		<path class="st1" d="M623.6,445.7v6.7c0.1,1.2-0.3,2.4-1.2,3.3c-0.9,0.8-2.2,1.2-3.4,1.1c-0.7,0-1.5-0.1-2.2-0.3
			c-0.6-0.2-1.2-0.4-1.7-0.8l0.9-1.7c0.4,0.3,0.8,0.5,1.3,0.7s1,0.2,1.6,0.2c0.6,0.1,1.3-0.1,1.8-0.5c0.4-0.4,0.6-1,0.6-1.7v-0.3
			c-0.7,0.7-1.6,1.1-2.5,1c-0.7,0-1.4-0.2-2-0.5s-1.1-0.8-1.5-1.4c-0.7-1.3-0.7-2.8,0-4.1c0.4-0.6,0.9-1.1,1.5-1.4s1.3-0.5,2-0.5
			c1-0.1,2,0.4,2.7,1.2v-1L623.6,445.7z M620.7,450.9c0.8-0.8,0.8-2.1,0-2.9c-0.4-0.4-1-0.6-1.5-0.5c-0.6,0-1.1,0.2-1.5,0.5
			c-0.8,0.8-0.8,2,0,2.8l0,0c0.4,0.4,1,0.6,1.5,0.5C619.7,451.4,620.3,451.2,620.7,450.9z"/>
		<path class="st1" d="M627.3,453.3c-0.7-0.3-1.2-0.8-1.6-1.5c-0.8-1.3-0.8-3,0-4.3c0.4-0.6,0.9-1.1,1.6-1.5c1.4-0.7,3.1-0.7,4.6,0
			c0.7,0.3,1.2,0.8,1.6,1.5c0.8,1.3,0.8,3,0,4.3c-0.4,0.6-0.9,1.1-1.6,1.5C630.4,454,628.7,454,627.3,453.3z M631.1,451.3
			c0.8-0.9,0.8-2.3,0-3.3c-0.4-0.4-0.9-0.6-1.5-0.6s-1.1,0.2-1.5,0.6c-0.8,0.9-0.8,2.3,0,3.3c0.4,0.4,0.9,0.6,1.5,0.6
			C630.1,451.9,630.7,451.7,631.1,451.3L631.1,451.3z"/>
		<path class="st1" d="M638.9,445.8c0.5-0.2,1.1-0.3,1.6-0.3v2.2c-0.3,0-0.4,0-0.5,0c-0.6,0-1.1,0.2-1.6,0.6
			c-0.4,0.5-0.6,1.1-0.6,1.7v3.8h-2.2v-8.1h2.2v1.1C638.1,446.3,638.5,446,638.9,445.8z"/>
		<path class="st1" d="M644.6,445.8h2.1v1.8h-2v6.1h-2.3v-6.1h-1.2v-1.8h1.2v-0.4c0-0.8,0.3-1.6,0.8-2.2c0.6-0.6,1.5-0.9,2.3-0.8
			c0.3,0,0.7,0,1,0.1s0.5,0.2,0.8,0.3l-0.6,1.7c-0.3-0.2-0.6-0.3-0.9-0.3c-0.7,0-1.1,0.4-1.1,1.2L644.6,445.8z"/>
		<path class="st1" d="M653.8,446.4c0.7,0.7,1.1,1.7,1,2.7v4.6h-2.2v-1c-0.5,0.8-1.5,1.2-2.5,1.1c-0.6,0-1.1-0.1-1.6-0.3
			c-0.4-0.2-0.8-0.5-1-0.9s-0.4-0.8-0.4-1.3c0-0.7,0.3-1.4,0.8-1.8c0.8-0.5,1.7-0.7,2.6-0.6h1.9c0-0.4-0.1-0.9-0.5-1.2
			c-0.4-0.3-0.9-0.4-1.4-0.4c-0.4,0-0.9,0.1-1.3,0.2c-0.4,0.1-0.7,0.3-1.1,0.5l-0.8-1.6c0.5-0.3,1-0.6,1.6-0.7
			c0.6-0.2,1.3-0.3,1.9-0.3C652,445.5,653,445.8,653.8,446.4z M651.8,452c0.3-0.2,0.5-0.5,0.7-0.8v-0.8h-1.6c-1,0-1.4,0.3-1.4,0.9
			c0,0.3,0.1,0.5,0.4,0.7c0.3,0.2,0.6,0.3,1,0.3C651.1,452.3,651.5,452.2,651.8,452z"/>
	</g>
	<circle id="Texto-11" class="st1" cx="601.5" cy="345.3" r="3.7"/>
	<g>
		<path class="st1" d="M567,332.4h-4.9l-0.9,2.3h-2.5l4.7-10.5h2.4l4.7,10.5H568L567,332.4z M566.3,330.5l-1.7-4l-1.7,4H566.3z"/>
		<path class="st1" d="M571.4,323.5h2.3v11.1h-2.3V323.5z"/>
		<path class="st1" d="M588.6,327.3c0.6,0.7,1,1.7,0.9,2.7v4.6h-2.3v-4.3c0-0.5-0.1-1-0.4-1.4c-0.3-0.3-0.7-0.5-1.1-0.5
			c-0.5,0-1,0.2-1.3,0.5c-0.4,0.4-0.5,1-0.5,1.6v4h-2.3v-4.3c0-1.3-0.5-1.9-1.5-1.9c-0.5,0-1,0.2-1.3,0.5c-0.4,0.4-0.5,1-0.5,1.6v4
			h-2.3v-8.1h2.2v0.9c0.3-0.3,0.7-0.6,1.1-0.8c0.5-0.2,0.9-0.3,1.4-0.3s1.1,0.1,1.5,0.3c0.5,0.2,0.8,0.6,1.1,1
			c0.3-0.4,0.8-0.8,1.3-1s1.1-0.4,1.7-0.3C587.1,326.4,588,326.7,588.6,327.3z"/>
		<path class="st1" d="M593.3,334.2c-0.7-0.3-1.2-0.8-1.6-1.5c-0.8-1.3-0.8-3,0-4.3c0.4-0.6,0.9-1.1,1.6-1.5c1.4-0.7,3.1-0.7,4.6,0
			c0.7,0.3,1.2,0.8,1.6,1.5c0.8,1.3,0.8,3,0,4.3c-0.4,0.6-0.9,1.1-1.6,1.5C596.4,334.9,594.8,334.9,593.3,334.2z M597,332.2
			c0.8-0.9,0.8-2.3,0-3.3c-0.4-0.4-0.9-0.6-1.5-0.6s-1.1,0.2-1.5,0.6c-0.8,0.9-0.8,2.3,0,3.3c0.4,0.4,0.9,0.6,1.5,0.6
			C596.1,332.9,596.8,332.5,597,332.2L597,332.2z"/>
		<path class="st1" d="M604.9,326.8c0.5-0.2,1.1-0.3,1.6-0.3v2.2c-0.3,0-0.4,0-0.5,0c-0.6,0-1.1,0.2-1.6,0.6
			c-0.4,0.5-0.6,1.1-0.6,1.7v3.8h-2.3v-8.1h2.2v1.1C604.1,327.2,604.5,326.9,604.9,326.8z"/>
		<path class="st1" d="M614,327.3c0.7,0.7,1.1,1.7,1,2.7v4.6h-2.2v-1c-0.5,0.8-1.5,1.2-2.5,1.1c-0.6,0-1.1-0.1-1.6-0.3
			c-0.4-0.2-0.8-0.5-1-0.9c-0.2-0.4-0.4-0.8-0.4-1.3c0-0.7,0.3-1.4,0.8-1.8c0.8-0.5,1.7-0.7,2.6-0.6h1.9c0-0.4-0.1-0.9-0.5-1.2
			c-0.4-0.3-0.9-0.4-1.4-0.4c-0.4,0-0.9,0.1-1.3,0.2c-0.4,0.1-0.7,0.3-1.1,0.5l-0.8-1.6c0.5-0.3,1-0.6,1.6-0.7
			c0.6-0.2,1.3-0.3,1.9-0.3C612.3,326.4,613.3,326.7,614,327.3z M612,332.9c0.3-0.2,0.5-0.5,0.7-0.8v-0.8h-1.6c-1,0-1.4,0.3-1.4,0.9
			c0,0.3,0.1,0.5,0.4,0.7c0.3,0.2,0.6,0.3,1,0.3C611.4,333.2,611.8,333,612,332.9L612,332.9z"/>
		<path class="st1" d="M625.5,323.5v11.1h-2.2v-0.9c-0.6,0.7-1.6,1.1-2.5,1c-0.7,0-1.4-0.2-2.1-0.5c-0.6-0.3-1.1-0.8-1.4-1.5
			c-0.7-1.4-0.7-3,0-4.4c0.3-0.6,0.8-1.1,1.4-1.5c0.6-0.3,1.3-0.5,2.1-0.5c0.9,0,1.8,0.3,2.4,1v-3.9L625.5,323.5z M622.6,332.2
			c0.8-0.9,0.8-2.3,0-3.3c-0.8-0.8-2.1-0.8-3,0c-0.8,0.9-0.8,2.3,0,3.3C620.5,333,621.8,333,622.6,332.2z"/>
		<path class="st1" d="M629.5,323.4h2.5l-2.7,2.2h-1.8L629.5,323.4z M627.6,326.5h2.3v8.1h-2.3V326.5z"/>
	</g>
	<circle id="Texto-12" class="st1" cx="487.8" cy="444.3" r="3.7"/>
	<g>
		<path class="st1" d="M451.8,429.1c0.3,0.5,0.5,1.1,0.5,1.6c0,0.8-0.4,1.7-1.1,2.1c-0.9,0.6-2,0.8-3.1,0.7h-5.4V423h5.1
			c1-0.1,2.1,0.2,2.9,0.7c0.7,0.4,1,1.2,1,2c0,1-0.5,1.9-1.4,2.3C451,428.3,451.5,428.6,451.8,429.1z M445.1,424.9v2.5h2.4
			c0.5,0,1-0.1,1.4-0.3c0.3-0.2,0.5-0.6,0.5-0.9c0-0.4-0.2-0.7-0.5-0.9c-0.4-0.2-0.9-0.3-1.4-0.3h-2.4V424.9z M449.4,431.5
			c0.3-0.2,0.5-0.6,0.5-1c0-0.9-0.6-1.3-1.9-1.3h-2.8v2.6h2.8C448.5,431.8,449,431.7,449.4,431.5L449.4,431.5z"/>
		<path class="st1" d="M461.9,430.2h-6.1c0.1,0.5,0.4,0.9,0.8,1.2c0.5,0.3,1,0.5,1.5,0.4c0.4,0,0.8-0.1,1.1-0.2
			c0.3-0.1,0.6-0.3,0.9-0.6l1.2,1.4c-0.9,0.9-2.1,1.4-3.3,1.3c-0.8,0-1.7-0.2-2.4-0.5c-0.7-0.3-1.2-0.8-1.6-1.5
			c-0.4-0.6-0.6-1.4-0.6-2.1c0-0.8,0.2-1.5,0.6-2.1s0.9-1.1,1.5-1.5c1.4-0.7,3-0.7,4.3,0c0.6,0.3,1.2,0.8,1.5,1.5
			c0.4,0.7,0.6,1.4,0.5,2.2C461.9,429.6,461.9,429.8,461.9,430.2z M456.4,427.6c-0.4,0.3-0.6,0.8-0.7,1.2h4
			c-0.1-0.5-0.3-0.9-0.7-1.2c-0.4-0.3-0.8-0.5-1.3-0.5C457.3,427.2,456.8,427.3,456.4,427.6z"/>
		<path class="st1" d="M470.8,426.3c0.7,0.7,1,1.7,0.9,2.7v4.6h-2.3v-4.3c0-0.5-0.1-1-0.4-1.4c-0.3-0.3-0.8-0.5-1.2-0.5
			c-0.5,0-1,0.2-1.4,0.5c-0.4,0.5-0.6,1-0.5,1.6v4h-2.3v-8.1h2.2v0.9c0.3-0.3,0.7-0.6,1.2-0.8c0.5-0.2,1-0.3,1.5-0.3
			C469.3,425.4,470.2,425.7,470.8,426.3z"/>
		<path class="st1" d="M481.8,430.2h-6.1c0.1,0.5,0.4,0.9,0.8,1.2c0.5,0.3,1,0.5,1.5,0.4c0.4,0,0.8-0.1,1.1-0.2
			c0.3-0.1,0.6-0.3,0.9-0.6l1.2,1.4c-0.9,0.9-2.1,1.4-3.3,1.3c-0.8,0-1.7-0.2-2.4-0.5c-0.7-0.3-1.2-0.8-1.6-1.5
			c-0.4-0.6-0.6-1.4-0.6-2.1c0-0.8,0.2-1.5,0.6-2.1s0.9-1.1,1.5-1.5c1.4-0.7,3-0.7,4.3,0c0.6,0.3,1.2,0.8,1.5,1.5
			c0.4,0.7,0.6,1.4,0.5,2.2C481.8,429.6,481.8,429.8,481.8,430.2z M476.3,427.6c-0.4,0.3-0.6,0.8-0.7,1.2h4
			c-0.1-0.5-0.3-0.9-0.7-1.2c-0.4-0.3-0.8-0.5-1.3-0.5C477.2,427.2,476.7,427.3,476.3,427.6L476.3,427.6z"/>
		<path class="st1" d="M480.9,436.2l0.6-1.7c0.3,0.2,0.6,0.3,1,0.3c0.3,0,0.5-0.1,0.7-0.3c0.2-0.3,0.3-0.6,0.3-0.9v-8.1h2.3v8.1
			c0,0.8-0.2,1.6-0.8,2.2c-0.6,0.6-1.4,0.9-2.2,0.8C482.2,436.7,481.5,436.5,480.9,436.2z M483.6,424c-0.5-0.5-0.5-1.3-0.1-1.8
			c0,0,0,0,0.1-0.1c0.3-0.3,0.7-0.4,1-0.4c0.4,0,0.8,0.1,1,0.4c0.3,0.2,0.4,0.6,0.4,0.9c0,0.4-0.1,0.7-0.4,1
			C485.1,424.5,484.2,424.5,483.6,424L483.6,424z"/>
		<path class="st1" d="M496.1,425.5v8.1h-2.2v-1c-0.3,0.3-0.7,0.6-1.1,0.8c-0.4,0.2-0.9,0.3-1.4,0.3c-0.9,0-1.8-0.3-2.5-0.9
			c-0.7-0.7-1-1.7-0.9-2.7v-4.6h2.3v4.2c0,1.3,0.5,2,1.6,2c0.5,0,1-0.2,1.4-0.5c0.4-0.5,0.6-1,0.5-1.6v-4L496.1,425.5z M492.7,422.3
			h2.5l-2.7,2.2h-1.8L492.7,422.3z"/>
		<path class="st1" d="M505,431.8v1.8h-7.2v-1.4l4.1-4.9h-4v-1.8h7v1.4l-4.1,4.9H505z"/>
		<path class="st1" d="M512.6,426.3c0.7,0.7,1.1,1.7,1,2.7v4.6h-2.2v-1c-0.5,0.8-1.5,1.2-2.5,1.1c-0.6,0-1.1-0.1-1.6-0.3
			c-0.4-0.2-0.8-0.5-1-0.9s-0.4-0.8-0.4-1.3c0-0.7,0.3-1.4,0.8-1.8c0.8-0.5,1.7-0.7,2.6-0.6h1.9c0-0.4-0.1-0.9-0.5-1.2
			c-0.4-0.3-0.9-0.4-1.4-0.4c-0.4,0-0.9,0.1-1.3,0.2c-0.4,0.1-0.7,0.3-1.1,0.5l-0.8-1.6c0.5-0.3,1-0.6,1.6-0.7
			c0.6-0.2,1.3-0.3,1.9-0.3C510.8,425.3,511.8,425.7,512.6,426.3z M510.6,431.9c0.3-0.2,0.5-0.5,0.7-0.8v-0.8h-1.6
			c-1,0-1.4,0.3-1.4,0.9c0,0.3,0.1,0.5,0.4,0.7c0.3,0.2,0.6,0.3,1,0.3C509.9,432.2,510.3,432.1,510.6,431.9z"/>
		<path class="st1" d="M519.1,425.7c0.5-0.2,1.1-0.3,1.6-0.3v2.2c-0.3,0-0.4,0-0.5,0c-0.6,0-1.1,0.2-1.6,0.6
			c-0.4,0.5-0.6,1.1-0.6,1.7v3.8h-2.3v-8.1h2.2v1.1C518.2,426.2,518.6,425.9,519.1,425.7z"/>
	</g>
	<circle id="Texto-13" class="st1" cx="860.6" cy="403.9" r="3.7"/>
	<circle id="Texto-14" class="st1" cx="681.8" cy="287.6" r="3.7"/>
	<g>
		<path class="st1" d="M821.1,370.4h2.1v4c-0.6,0.4-1.2,0.7-1.9,0.9c-0.7,0.2-1.4,0.3-2.1,0.3c-0.9,0-1.9-0.2-2.7-0.7
			c-0.7-0.4-1.5-1-1.9-1.8c-0.9-1.6-0.9-3.6,0-5.2c0.5-0.7,1.1-1.4,2-1.8c0.8-0.5,1.8-0.7,2.8-0.7c0.8,0,1.6,0.1,2.3,0.5
			c0.7,0.3,1.3,0.7,1.8,1.3l-1.5,1.3c-0.7-0.7-1.6-1.1-2.5-1.1c-0.6,0-1.1,0.1-1.7,0.4c-0.5,0.3-0.8,0.7-1.1,1.1
			c-0.6,1-0.6,2.2,0,3.3c0.3,0.5,0.7,0.8,1.1,1.1s1,0.4,1.7,0.4s1.2-0.1,1.8-0.5L821.1,370.4z"/>
		<path class="st1" d="M832.7,367.8v7.6h-2.1v-0.9c-0.3,0.3-0.7,0.6-1,0.7s-0.8,0.3-1.3,0.3c-0.8,0-1.7-0.3-2.3-0.8
			c-0.7-0.7-0.9-1.6-0.8-2.5v-4.3h2.1v3.9c0,1.2,0.5,1.9,1.5,1.9c0.5,0,0.9-0.2,1.2-0.5c0.4-0.5,0.6-0.9,0.5-1.5v-3.7L832.7,367.8z"
			/>
		<path class="st1" d="M840.5,368.6c0.7,0.7,1,1.6,0.9,2.5v4.3h-2.1v-0.9c-0.5,0.7-1.4,1.1-2.3,1c-0.6,0-1-0.1-1.5-0.3
			c-0.4-0.2-0.7-0.5-0.9-0.8s-0.4-0.7-0.4-1.2c0-0.7,0.3-1.3,0.7-1.7c0.7-0.5,1.6-0.7,2.4-0.6h1.8c0-0.4-0.1-0.8-0.5-1.1
			c-0.4-0.3-0.8-0.4-1.3-0.4c-0.4,0-0.8,0.1-1.2,0.2c-0.4,0.1-0.7,0.3-1,0.5l-0.7-1.5c0.5-0.3,0.9-0.6,1.5-0.7
			c0.6-0.2,1.2-0.3,1.8-0.3C838.8,367.7,839.7,368,840.5,368.6z M838.6,373.8c0.3-0.2,0.5-0.5,0.7-0.7v-0.7h-1.5
			c-0.9,0-1.3,0.3-1.3,0.8c0,0.3,0.1,0.5,0.4,0.7c0.3,0.2,0.6,0.3,0.9,0.3C838.1,374.1,838.3,374,838.6,373.8L838.6,373.8z"/>
		<path class="st1" d="M846.6,368c0.5-0.2,1-0.3,1.5-0.3v2.1c-0.3,0-0.4,0-0.5,0c-0.6,0-1,0.2-1.5,0.6c-0.4,0.5-0.6,1-0.6,1.6v3.5
			h-2.1v-7.6h2.1v1C845.8,368.5,846.2,368.2,846.6,368z"/>
		<path class="st1" d="M857,365v10.4H855v-0.8c-0.6,0.7-1.5,1-2.3,0.9c-0.7,0-1.3-0.2-2-0.5c-0.6-0.3-1-0.7-1.3-1.4
			c-0.7-1.3-0.7-2.8,0-4.1c0.3-0.6,0.7-1,1.3-1.4c0.6-0.3,1.2-0.5,2-0.5c0.8,0,1.7,0.3,2.2,0.9v-3.6L857,365z M854.3,373.2
			c0.7-0.8,0.7-2.1,0-3.1c-0.4-0.4-0.8-0.6-1.4-0.6s-1,0.2-1.4,0.6c-0.7,0.8-0.7,2.1,0,3.1c0.4,0.4,0.8,0.6,1.4,0.6
			S854,373.5,854.3,373.2L854.3,373.2z"/>
		<path class="st1" d="M864.8,368.6c0.7,0.7,1,1.6,0.9,2.5v4.3h-2.1v-0.9c-0.5,0.7-1.4,1.1-2.3,1c-0.6,0-1-0.1-1.5-0.3
			c-0.4-0.2-0.7-0.5-0.9-0.8s-0.4-0.7-0.4-1.2c0-0.7,0.3-1.3,0.7-1.7c0.7-0.5,1.6-0.7,2.4-0.6h1.8c0-0.4-0.1-0.8-0.5-1.1
			c-0.4-0.3-0.8-0.4-1.3-0.4c-0.4,0-0.8,0.1-1.2,0.2c-0.4,0.1-0.7,0.3-1,0.5l-0.7-1.5c0.5-0.3,0.9-0.6,1.5-0.7
			c0.6-0.2,1.2-0.3,1.8-0.3C863.1,367.7,864,368,864.8,368.6z M862.9,373.8c0.3-0.2,0.5-0.5,0.7-0.7v-0.7h-1.5
			c-0.9,0-1.3,0.3-1.3,0.8c0,0.3,0.1,0.5,0.4,0.7c0.3,0.2,0.6,0.3,0.9,0.3C862.2,374.1,862.6,374,862.9,373.8L862.9,373.8z"/>
		<path class="st1" d="M879.6,368.6c0.6,0.7,0.9,1.6,0.8,2.5v4.3h-2.1v-4c0-0.5-0.1-0.9-0.4-1.3c-0.3-0.3-0.7-0.5-1-0.5
			c-0.5,0-0.9,0.2-1.2,0.5c-0.4,0.4-0.5,0.9-0.5,1.5v3.7h-2.1v-4c0-1.2-0.5-1.8-1.4-1.8c-0.5,0-0.9,0.2-1.2,0.5
			c-0.4,0.4-0.5,0.9-0.5,1.5v3.7h-2.1v-7.6h2.1v0.8c0.3-0.3,0.7-0.6,1-0.7c0.5-0.2,0.8-0.3,1.3-0.3s1,0.1,1.4,0.3
			c0.5,0.2,0.7,0.6,1,0.9c0.3-0.4,0.7-0.7,1.2-0.9c0.5-0.2,1-0.4,1.6-0.3C878.2,367.7,879,368,879.6,368.6z"/>
		<path class="st1" d="M888.1,368.6c0.7,0.7,1,1.6,0.9,2.5v4.3H887v-0.9c-0.5,0.7-1.4,1.1-2.3,1c-0.6,0-1-0.1-1.5-0.3
			c-0.4-0.2-0.7-0.5-0.9-0.8s-0.4-0.7-0.4-1.2c0-0.7,0.3-1.3,0.7-1.7c0.7-0.5,1.6-0.7,2.4-0.6h1.8c0-0.4-0.1-0.8-0.5-1.1
			c-0.4-0.3-0.8-0.4-1.3-0.4c-0.4,0-0.8,0.1-1.2,0.2c-0.4,0.1-0.7,0.3-1,0.5l-0.7-1.5c0.5-0.3,0.9-0.6,1.5-0.7
			c0.6-0.2,1.2-0.3,1.8-0.3C886.4,367.7,887.4,368,888.1,368.6z M886.3,373.8c0.3-0.2,0.5-0.5,0.7-0.7v-0.7h-1.5
			c-0.9,0-1.3,0.3-1.3,0.8c0,0.3,0.1,0.5,0.4,0.7c0.3,0.2,0.6,0.3,0.9,0.3C885.6,374.1,886,374,886.3,373.8L886.3,373.8z"/>
		<path class="st1" d="M894.2,368c0.5-0.2,1-0.3,1.5-0.3v2.1c-0.3,0-0.4,0-0.5,0c-0.6,0-1,0.2-1.5,0.6c-0.4,0.5-0.6,1-0.6,1.6v3.5
			H891v-7.6h2.1v1C893.4,368.5,893.7,368.2,894.2,368z"/>
		<path class="st1" d="M824.1,381.8v10.4h-2.1v-0.8c-0.6,0.7-1.5,1-2.3,0.9c-0.7,0-1.3-0.2-2-0.5c-0.6-0.3-1-0.7-1.3-1.4
			c-0.7-1.3-0.7-2.8,0-4.1c0.3-0.6,0.7-1,1.3-1.4c0.6-0.3,1.2-0.5,2-0.5c0.8,0,1.7,0.3,2.2,0.9v-3.6L824.1,381.8z M821.4,390
			c0.7-0.8,0.7-2.1,0-3.1c-0.4-0.4-0.8-0.6-1.4-0.6c-0.6,0-1,0.2-1.4,0.6c-0.7,0.8-0.7,2.1,0,3.1c0.4,0.4,0.8,0.6,1.4,0.6
			C820.6,390.5,821.1,390.3,821.4,390L821.4,390z"/>
		<path class="st1" d="M833.5,389h-5.7c0.1,0.5,0.4,0.8,0.7,1.1c0.5,0.3,0.9,0.5,1.4,0.4c0.4,0,0.7-0.1,1-0.2s0.6-0.3,0.8-0.6
			l1.1,1.3c-0.8,0.8-2,1.3-3.1,1.2c-0.7,0-1.6-0.2-2.2-0.5s-1.1-0.7-1.5-1.4c-0.4-0.6-0.6-1.3-0.6-2c0-0.7,0.2-1.4,0.6-2
			c0.4-0.6,0.8-1,1.4-1.4c1.3-0.7,2.8-0.7,4,0c0.6,0.3,1.1,0.7,1.4,1.4c0.4,0.7,0.6,1.3,0.5,2.1C833.6,388.5,833.5,388.8,833.5,389z
			 M828.3,386.6c-0.4,0.3-0.6,0.7-0.7,1.1h3.7c-0.1-0.5-0.3-0.8-0.7-1.1c-0.4-0.3-0.7-0.5-1.2-0.5
			C829.2,386.2,828.7,386.3,828.3,386.6L828.3,386.6z"/>
		<path class="st1" d="M835,381.8h2.1v10.4H835V381.8z"/>
		<path class="st1" d="M844.3,392.1c-0.7-0.2-1.2-0.5-1.8-0.8l0.7-1.7c0.5,0.3,0.9,0.6,1.5,0.7c0.6,0.2,1.1,0.3,1.8,0.3
			c0.5,0,1-0.1,1.4-0.3c0.3-0.2,0.5-0.5,0.5-0.7c0-0.2-0.1-0.5-0.3-0.6c-0.2-0.2-0.5-0.3-0.7-0.4s-0.7-0.2-1.1-0.3
			c-0.7-0.2-1.2-0.3-1.9-0.6c-0.5-0.2-0.9-0.5-1.2-0.8c-0.4-0.5-0.6-1-0.5-1.6c0-0.6,0.2-1.1,0.5-1.6c0.4-0.5,0.8-0.8,1.4-1.1
			c0.7-0.3,1.5-0.5,2.2-0.4c0.7,0,1.2,0.1,1.9,0.2c0.6,0.1,1.1,0.4,1.6,0.7l-0.7,1.7c-0.8-0.5-1.8-0.7-2.7-0.7
			c-0.5,0-0.9,0.1-1.4,0.3c-0.3,0.2-0.5,0.5-0.5,0.8s0.2,0.7,0.6,0.7c0.6,0.2,1,0.4,1.6,0.5c0.7,0.2,1.2,0.3,1.9,0.6
			c0.5,0.2,0.9,0.5,1.2,0.8c0.4,0.5,0.6,1,0.5,1.6c0,0.6-0.2,1.1-0.5,1.5c-0.4,0.5-0.8,0.8-1.4,1.1c-0.7,0.3-1.5,0.5-2.2,0.4
			C845.8,392.4,845.1,392.3,844.3,392.1z"/>
		<path class="st1" d="M859.4,389h-5.7c0.1,0.5,0.4,0.8,0.7,1.1c0.5,0.3,0.9,0.5,1.4,0.4c0.4,0,0.7-0.1,1-0.2s0.6-0.3,0.8-0.6
			l1.1,1.3c-0.8,0.8-2,1.3-3.1,1.2c-0.7,0-1.6-0.2-2.2-0.5s-1.1-0.7-1.5-1.4c-0.4-0.6-0.6-1.3-0.6-2c0-0.7,0.2-1.4,0.6-2
			c0.4-0.6,0.8-1,1.4-1.4c1.3-0.7,2.8-0.7,4,0c0.6,0.3,1.1,0.7,1.4,1.4c0.4,0.7,0.6,1.3,0.5,2.1C859.5,388.5,859.4,388.8,859.4,389z
			 M854.3,386.6c-0.4,0.3-0.6,0.7-0.7,1.1h3.7c-0.1-0.5-0.3-0.8-0.7-1.1c-0.4-0.3-0.7-0.5-1.2-0.5
			C855.2,386.2,854.7,386.3,854.3,386.6L854.3,386.6z"/>
		<path class="st1" d="M868.7,384.7v6.3c0.1,1.1-0.3,2.2-1.1,3.1c-0.8,0.7-2.1,1.1-3.2,1c-0.7,0-1.4-0.1-2.1-0.3
			c-0.6-0.2-1.1-0.4-1.6-0.7l0.8-1.6c0.4,0.3,0.7,0.5,1.2,0.7s0.9,0.2,1.5,0.2c0.6,0.1,1.2-0.1,1.7-0.5c0.4-0.4,0.6-0.9,0.6-1.6
			v-0.3c-0.7,0.7-1.5,1-2.3,0.9c-0.7,0-1.3-0.2-1.9-0.5s-1-0.7-1.4-1.3c-0.7-1.2-0.7-2.6,0-3.8c0.4-0.6,0.8-1,1.4-1.3
			c0.6-0.3,1.2-0.5,1.9-0.5c0.9-0.1,1.9,0.4,2.5,1.1v-0.9L868.7,384.7z M866,389.6c0.7-0.7,0.7-2,0-2.7c-0.4-0.4-0.9-0.6-1.4-0.5
			c-0.6,0-1,0.2-1.4,0.5c-0.7,0.7-0.7,1.9,0,2.6l0,0c0.4,0.4,0.9,0.6,1.4,0.5C865.1,390.1,865.6,389.9,866,389.6L866,389.6z"/>
		<path class="st1" d="M878.3,384.7v7.6h-2.1v-0.9c-0.3,0.3-0.7,0.6-1,0.7c-0.4,0.2-0.8,0.3-1.3,0.3c-0.8,0-1.7-0.3-2.3-0.8
			c-0.7-0.7-0.9-1.6-0.8-2.5v-4.3h2.1v3.9c0,1.2,0.5,1.9,1.5,1.9c0.5,0,0.9-0.2,1.2-0.5c0.4-0.5,0.6-0.9,0.5-1.5v-3.7L878.3,384.7z"
			/>
		<path class="st1" d="M883.5,384.8c0.5-0.2,1-0.3,1.5-0.3v2.1c-0.3,0-0.4,0-0.5,0c-0.6,0-1,0.2-1.5,0.6c-0.4,0.5-0.6,1-0.6,1.6v3.5
			h-2.1v-7.6h2.1v1C882.7,385.3,883.1,385,883.5,384.8z"/>
		<path class="st1" d="M892,385.4c0.7,0.7,1,1.6,0.9,2.5v4.3h-2.1v-0.9c-0.5,0.7-1.4,1.1-2.3,1c-0.6,0-1-0.1-1.5-0.3
			c-0.4-0.2-0.7-0.5-0.9-0.8c-0.2-0.4-0.4-0.7-0.4-1.2c0-0.7,0.3-1.3,0.7-1.7c0.7-0.5,1.6-0.7,2.4-0.6h1.8c0-0.4-0.1-0.8-0.5-1.1
			s-0.8-0.4-1.3-0.4c-0.4,0-0.8,0.1-1.2,0.2c-0.4,0.1-0.7,0.3-1,0.5l-0.7-1.5c0.5-0.3,0.9-0.6,1.5-0.7c0.6-0.2,1.2-0.3,1.8-0.3
			C890.4,384.6,891.3,384.8,892,385.4z M890.2,390.6c0.3-0.2,0.5-0.5,0.7-0.7v-0.7h-1.5c-0.9,0-1.3,0.3-1.3,0.8
			c0,0.3,0.1,0.5,0.4,0.7c0.3,0.2,0.6,0.3,0.9,0.3C889.5,390.9,889.9,390.8,890.2,390.6L890.2,390.6z"/>
	</g>
	<g>
		<path class="st1" d="M676.7,775c-0.8-0.4-1.6-1.1-2-1.9c-1-1.7-1-3.9,0-5.6c0.5-0.8,1.2-1.5,2-1.9c1.7-0.8,3.6-0.9,5.4-0.2
			c0.7,0.3,1.4,0.8,1.9,1.4l-1.6,1.4c-0.6-0.8-1.6-1.2-2.6-1.2c-0.6,0-1.2,0.1-1.7,0.4c-0.5,0.3-0.9,0.7-1.2,1.2
			c-0.6,1.1-0.6,2.4,0,3.5c0.3,0.5,0.7,0.9,1.2,1.2s1.1,0.4,1.7,0.4c1,0,2-0.4,2.6-1.2l1.6,1.4c-0.5,0.6-1.1,1.1-1.9,1.4
			c-0.8,0.3-1.6,0.5-2.5,0.5C678.6,775.8,677.6,775.5,676.7,775z"/>
		<path class="st1" d="M691.5,768.3c0.7,0.7,1.1,1.7,1,2.7v4.6h-2.2v-1c-0.5,0.8-1.5,1.2-2.5,1.1c-0.6,0-1.1-0.1-1.6-0.3
			c-0.4-0.2-0.8-0.5-1-0.9s-0.4-0.8-0.4-1.3c0-0.7,0.3-1.4,0.8-1.8c0.8-0.5,1.7-0.7,2.6-0.6h1.9c0-0.4-0.1-0.9-0.5-1.2
			s-0.9-0.4-1.4-0.4c-0.4,0-0.9,0.1-1.3,0.2c-0.4,0.1-0.7,0.3-1.1,0.5l-0.8-1.6c0.5-0.3,1-0.6,1.6-0.7c0.6-0.2,1.3-0.3,1.9-0.3
			C689.7,767.3,690.7,767.6,691.5,768.3z M689.5,773.8c0.3-0.2,0.5-0.5,0.7-0.8v-0.8h-1.6c-1,0-1.4,0.3-1.4,0.9
			c0,0.3,0.1,0.5,0.4,0.7c0.3,0.2,0.6,0.3,1,0.3C688.8,774.1,689.2,774,689.5,773.8z"/>
		<path class="st1" d="M701.5,767.9c0.6,0.3,1.1,0.8,1.4,1.5c0.7,1.4,0.7,3,0,4.4c-0.3,0.6-0.8,1.1-1.4,1.5c-0.6,0.3-1.3,0.5-2,0.5
			c-1,0.1-1.9-0.3-2.5-1v0.9h-2.2v-11.1h2.3v3.9c0.6-0.7,1.5-1,2.4-1C700.1,767.4,700.8,767.5,701.5,767.9z M700.5,773.2
			c0.8-0.9,0.8-2.3,0-3.3c-0.8-0.8-2.1-0.8-3,0c-0.8,0.9-0.8,2.3,0,3.3C698.3,774,699.7,774,700.5,773.2z"/>
		<path class="st1" d="M706.5,775.1c-0.7-0.3-1.2-0.8-1.6-1.5c-0.8-1.3-0.8-3,0-4.3c0.4-0.6,0.9-1.1,1.6-1.5c1.4-0.7,3.1-0.7,4.6,0
			c0.7,0.3,1.2,0.8,1.6,1.5c0.8,1.3,0.8,3,0,4.3c-0.4,0.6-0.9,1.1-1.6,1.5C709.7,775.9,708,775.9,706.5,775.1z M710.3,773.2
			c0.8-0.9,0.8-2.3,0-3.3c-0.4-0.4-0.9-0.6-1.5-0.6s-1.1,0.2-1.5,0.6c-0.8,0.9-0.8,2.3,0,3.3c0.4,0.4,0.9,0.6,1.5,0.6
			C709.4,773.8,709.9,773.6,710.3,773.2L710.3,773.2z"/>
		<path class="st1" d="M725.9,775.6l-2-2.9h-2.2v2.9h-2.4v-10.5h4.5c0.8,0,1.7,0.1,2.4,0.5c1.3,0.6,2.2,1.9,2.1,3.3
			c0.1,1.5-0.8,2.8-2.2,3.3l2.4,3.4H725.9z M725.3,767.5c-0.5-0.3-1.1-0.5-1.7-0.5h-2v3.7h2c0.6,0,1.2-0.1,1.7-0.5
			C726,769.5,726.1,768.3,725.3,767.5L725.3,767.5L725.3,767.5z"/>
		<path class="st1" d="M731.6,775.1c-0.7-0.3-1.2-0.8-1.6-1.5c-0.8-1.3-0.8-3,0-4.3c0.4-0.6,0.9-1.1,1.6-1.5c1.4-0.7,3.1-0.7,4.6,0
			c0.7,0.3,1.2,0.8,1.6,1.5c0.8,1.3,0.8,3,0,4.3c-0.4,0.6-0.9,1.1-1.6,1.5C734.8,775.9,733.1,775.9,731.6,775.1z M735.4,773.2
			c0.8-0.9,0.8-2.3,0-3.3c-0.4-0.4-0.9-0.6-1.5-0.6s-1.1,0.2-1.5,0.6c-0.8,0.9-0.8,2.3,0,3.3c0.4,0.4,0.9,0.6,1.5,0.6
			S735,773.6,735.4,773.2L735.4,773.2z"/>
		<path class="st1" d="M740,766c-0.5-0.5-0.5-1.3-0.1-1.8c0,0,0,0,0.1-0.1c0.3-0.3,0.7-0.4,1-0.4c0.4,0,0.8,0.1,1,0.4
			c0.3,0.2,0.4,0.6,0.4,0.9c0,0.4-0.1,0.7-0.4,1C741.5,766.5,740.6,766.5,740,766L740,766z M739.9,767.5h2.3v8.1h-2.3V767.5z"/>
		<path class="st1" d="M752.7,767.5v6.7c0.1,1.2-0.3,2.4-1.2,3.3c-0.9,0.8-2.2,1.2-3.4,1.1c-0.7,0-1.5-0.1-2.2-0.3
			c-0.6-0.2-1.2-0.4-1.7-0.8l0.9-1.7c0.4,0.3,0.8,0.5,1.3,0.7s1,0.2,1.6,0.2c0.6,0.1,1.3-0.1,1.8-0.5c0.4-0.4,0.6-1,0.6-1.7v-0.3
			c-0.7,0.7-1.6,1.1-2.5,1c-0.7,0-1.4-0.2-2-0.5s-1.1-0.8-1.5-1.4c-0.7-1.3-0.7-2.8,0-4.1c0.4-0.6,0.9-1.1,1.5-1.4
			c0.6-0.3,1.3-0.5,2-0.5c1-0.1,2,0.4,2.7,1.2v-1H752.7z M749.8,772.7c0.8-0.8,0.8-2.1,0-2.9c-0.4-0.4-1-0.6-1.5-0.5
			c-0.6,0-1.1,0.2-1.5,0.5c-0.8,0.8-0.8,2.1,0,2.8l0,0c0.4,0.4,1,0.6,1.5,0.5C748.9,773.3,749.4,773.1,749.8,772.7z"/>
	</g>
	<circle id="Texto-15" class="st1" cx="756.7" cy="746.5" r="3.7"/>
	<g>
		<path class="st1" d="M702,725.7h2.4v8.5h5.3v2H702V725.7z"/>
		<path class="st1" d="M717.1,728.9c0.7,0.7,1.1,1.7,1,2.7v4.6h-2.2v-1c-0.5,0.8-1.5,1.2-2.5,1.1c-0.6,0-1.1-0.1-1.6-0.3
			c-0.4-0.2-0.8-0.5-1-0.9s-0.4-0.8-0.4-1.3c0-0.7,0.3-1.4,0.8-1.8c0.8-0.5,1.7-0.7,2.6-0.6h1.9c0-0.4-0.1-0.9-0.5-1.2
			c-0.4-0.3-0.9-0.4-1.4-0.4c-0.4,0-0.9,0.1-1.3,0.2c-0.4,0.1-0.7,0.3-1.1,0.5l-0.8-1.6c0.5-0.3,1-0.6,1.6-0.7
			c0.6-0.2,1.3-0.3,1.9-0.3C715.2,728,716.3,728.3,717.1,728.9z M715.1,734.5c0.3-0.2,0.5-0.5,0.7-0.8v-0.8h-1.6
			c-1,0-1.4,0.3-1.4,0.9c0,0.3,0.1,0.5,0.4,0.7c0.3,0.2,0.6,0.3,1,0.3C714.4,734.8,714.8,734.7,715.1,734.5L715.1,734.5z"/>
		<path class="st1" d="M733.1,734.2v2h-9.2v-1.6l5.8-6.9h-5.6v-2h8.8v1.6l-5.7,6.9H733.1z"/>
		<path class="st1" d="M742.3,732.8h-6.1c0.1,0.5,0.4,0.9,0.8,1.2c0.5,0.3,1,0.5,1.5,0.4c0.4,0,0.8-0.1,1.1-0.2
			c0.3-0.1,0.6-0.3,0.9-0.6l1.2,1.4c-0.9,0.9-2.1,1.4-3.3,1.3c-0.8,0-1.7-0.2-2.4-0.5c-0.7-0.3-1.2-0.8-1.6-1.5
			c-0.4-0.6-0.6-1.4-0.6-2.1c0-0.8,0.2-1.5,0.6-2.1c0.4-0.6,0.9-1.1,1.5-1.5c1.4-0.7,3-0.7,4.3,0c0.6,0.3,1.2,0.8,1.5,1.5
			c0.4,0.7,0.6,1.4,0.5,2.2C742.3,732.3,742.3,732.5,742.3,732.8z M736.8,730.3c-0.4,0.3-0.6,0.8-0.7,1.2h4
			c-0.1-0.5-0.3-0.9-0.7-1.2c-0.4-0.3-0.8-0.5-1.3-0.5S737.2,729.9,736.8,730.3L736.8,730.3z"/>
		<path class="st1" d="M751.2,728.9c0.7,0.7,1,1.7,0.9,2.7v4.6h-2.3v-4.3c0-0.5-0.1-1-0.4-1.4c-0.3-0.3-0.8-0.5-1.2-0.5
			c-0.5,0-1,0.2-1.4,0.5c-0.4,0.5-0.6,1-0.5,1.6v4H744V728h2.2v0.9c0.3-0.3,0.7-0.6,1.2-0.8c0.5-0.2,1-0.3,1.5-0.3
			C749.7,728,750.5,728.3,751.2,728.9z"/>
		<path class="st1" d="M754.3,726.7c-0.5-0.5-0.5-1.3-0.1-1.8c0,0,0,0,0.1-0.1c0.3-0.3,0.7-0.4,1-0.4c0.4,0,0.8,0.1,1,0.4
			c0.3,0.2,0.4,0.6,0.4,0.9c0,0.4-0.1,0.7-0.4,1c-0.3,0.3-0.7,0.4-1,0.4C755,727,754.6,726.9,754.3,726.7z M754.2,728.2h2.3v8.1
			h-2.3V728.2z"/>
		<path class="st1" d="M764.9,728.9c0.7,0.7,1.1,1.7,1,2.7v4.6h-2.2v-1c-0.5,0.8-1.5,1.2-2.5,1.1c-0.6,0-1.1-0.1-1.6-0.3
			c-0.4-0.2-0.8-0.5-1-0.9s-0.4-0.8-0.4-1.3c0-0.7,0.3-1.4,0.8-1.8c0.8-0.5,1.7-0.7,2.6-0.6h1.9c0-0.4-0.1-0.9-0.5-1.2
			c-0.4-0.3-0.9-0.4-1.4-0.4c-0.4,0-0.9,0.1-1.3,0.2c-0.4,0.1-0.7,0.3-1.1,0.5l-0.8-1.6c0.5-0.3,1-0.6,1.6-0.7
			c0.6-0.2,1.3-0.3,1.9-0.3C763,728,764.1,728.3,764.9,728.9z M762.9,734.5c0.3-0.2,0.5-0.5,0.7-0.8v-0.8H762c-1,0-1.4,0.3-1.4,0.9
			c0,0.3,0.1,0.5,0.4,0.7c0.3,0.2,0.6,0.3,1,0.3C762.2,734.8,762.6,734.7,762.9,734.5L762.9,734.5z"/>
	</g>
	<circle id="Texto-16" class="st1" cx="321.3" cy="473.5" r="3.7"/>
	<g>
		<path class="st1" d="M289.6,461.6c-0.9-0.4-1.6-1.1-2.1-1.9c-1-1.7-1-3.8,0-5.6c0.5-0.8,1.2-1.5,2.1-1.9c1.8-0.9,4-0.9,5.9,0
			c2.6,1.4,3.6,4.6,2.2,7.2c-0.5,0.9-1.3,1.7-2.2,2.2C293.6,462.5,291.4,462.5,289.6,461.6L289.6,461.6z M294.2,459.8
			c0.5-0.3,0.9-0.7,1.2-1.2c0.6-1.1,0.6-2.4,0-3.5c-0.3-0.5-0.7-0.9-1.2-1.2c-1-0.6-2.3-0.6-3.4,0c-0.5,0.3-0.9,0.7-1.2,1.2
			c-0.6,1.1-0.6,2.4,0,3.5c0.3,0.5,0.7,0.9,1.2,1.2C291.9,460.3,293.2,460.3,294.2,459.8z"/>
		<path class="st1" d="M303.3,454.2c0.5-0.2,1.1-0.3,1.6-0.3v2.2c-0.3,0-0.4,0-0.5,0c-0.6,0-1.1,0.2-1.6,0.6
			c-0.4,0.5-0.6,1.1-0.6,1.7v3.8h-2.3v-8.1h2.2v1.1C302.5,454.7,302.9,454.4,303.3,454.2z"/>
		<path class="st1" d="M306.5,452.5c-0.5-0.5-0.5-1.3-0.1-1.8c0,0,0,0,0.1-0.1c0.3-0.3,0.7-0.4,1-0.4c0.4,0,0.8,0.1,1,0.4
			c0.3,0.2,0.4,0.6,0.4,0.9c0,0.4-0.1,0.7-0.4,1s-0.7,0.4-1,0.4C307.1,452.9,306.8,452.8,306.5,452.5z M306.4,454h2.3v8.1h-2.3V454z
			"/>
		<path class="st1" d="M318.2,454.8c0.7,0.7,1,1.7,0.9,2.7v4.6h-2.3v-4.3c0-0.5-0.1-1-0.4-1.4c-0.3-0.3-0.8-0.5-1.2-0.5
			c-0.5,0-1,0.2-1.4,0.5c-0.4,0.5-0.6,1-0.5,1.6v4H311v-11.1h2.3v3.9c0.3-0.3,0.7-0.6,1.1-0.7c0.5-0.2,0.9-0.3,1.4-0.2
			C316.7,453.8,317.5,454.2,318.2,454.8z"/>
		<path class="st1" d="M329.4,454v8.1h-2.2v-1c-0.3,0.3-0.7,0.6-1.1,0.8c-0.4,0.2-0.9,0.3-1.4,0.3c-0.9,0-1.8-0.3-2.5-0.9
			c-0.7-0.7-1-1.7-0.9-2.7V454h2.3v4.2c0,1.3,0.5,2,1.6,2c0.5,0,1-0.2,1.4-0.5c0.4-0.5,0.6-1,0.5-1.6v-4L329.4,454z"/>
		<path class="st1" d="M339.4,458.7h-6.1c0.1,0.5,0.4,0.9,0.8,1.2c0.5,0.3,1,0.5,1.5,0.4c0.4,0,0.8-0.1,1.1-0.2
			c0.3-0.1,0.6-0.3,0.9-0.6l1.2,1.4c-0.9,0.9-2.1,1.4-3.3,1.3c-0.8,0-1.7-0.2-2.4-0.5c-0.7-0.3-1.2-0.8-1.6-1.5
			c-0.4-0.6-0.6-1.4-0.6-2.1c0-0.8,0.2-1.5,0.6-2.1s0.9-1.1,1.5-1.5c1.4-0.7,3-0.7,4.3,0c0.6,0.3,1.2,0.8,1.5,1.5
			c0.4,0.7,0.6,1.4,0.5,2.2C339.4,458.1,339.4,458.3,339.4,458.7z M333.9,456.1c-0.4,0.3-0.6,0.8-0.7,1.2h4
			c-0.1-0.5-0.3-0.9-0.7-1.2c-0.4-0.3-0.8-0.5-1.3-0.5C334.8,455.6,334.3,455.8,333.9,456.1z"/>
		<path class="st1" d="M341,450.9h2.3V462H341V450.9z"/>
		<path class="st1" d="M351.7,454.8c0.7,0.7,1.1,1.7,1,2.7v4.6h-2.2v-1c-0.5,0.8-1.5,1.2-2.5,1.1c-0.6,0-1.1-0.1-1.6-0.3
			c-0.4-0.2-0.8-0.5-1-0.9s-0.4-0.8-0.4-1.3c0-0.7,0.3-1.4,0.8-1.8c0.8-0.5,1.7-0.7,2.6-0.6h1.9c0-0.4-0.1-0.9-0.5-1.2
			c-0.4-0.3-0.9-0.4-1.4-0.4c-0.4,0-0.9,0.1-1.3,0.2s-0.7,0.3-1.1,0.5l-0.8-1.6c0.5-0.3,1-0.6,1.6-0.7c0.6-0.2,1.3-0.3,1.9-0.3
			C349.8,453.8,350.8,454.1,351.7,454.8z M349.7,460.3c0.3-0.2,0.5-0.5,0.7-0.8v-0.8h-1.6c-1,0-1.4,0.3-1.4,0.9
			c0,0.3,0.1,0.5,0.4,0.7s0.6,0.3,1,0.3C349,460.6,349.3,460.5,349.7,460.3L349.7,460.3z"/>
	</g>
	<circle id="Texto-17" class="st1" cx="498.8" cy="312.2" r="3.7"/>
	<g>
		<path class="st1" d="M472.3,300.2c-0.8-0.4-1.6-1.1-2-1.9c-1-1.7-1-3.9,0-5.6c0.5-0.8,1.2-1.5,2-1.9c0.9-0.5,1.9-0.7,2.9-0.7
			c0.8,0,1.7,0.2,2.5,0.5c0.7,0.3,1.4,0.8,1.9,1.4l-1.6,1.4c-0.6-0.8-1.6-1.2-2.6-1.2c-0.6,0-1.2,0.1-1.7,0.4s-0.9,0.7-1.2,1.2
			c-0.6,1.1-0.6,2.4,0,3.5c0.3,0.5,0.7,0.9,1.2,1.2c0.5,0.3,1.1,0.4,1.7,0.4c1,0,2-0.4,2.6-1.2l1.6,1.4c-0.5,0.6-1.1,1.1-1.9,1.4
			s-1.6,0.5-2.5,0.5C474.2,300.9,473.2,300.7,472.3,300.2z"/>
		<path class="st1" d="M487.1,293.5c0.7,0.7,1.1,1.7,1,2.7v4.6h-2.2v-1c-0.5,0.8-1.5,1.2-2.5,1.1c-0.6,0-1.1-0.1-1.6-0.3
			c-0.4-0.2-0.8-0.5-1-0.9s-0.4-0.8-0.4-1.3c0-0.7,0.3-1.4,0.8-1.8c0.8-0.5,1.7-0.7,2.6-0.6h1.9c0-0.4-0.1-0.9-0.5-1.2
			c-0.4-0.3-0.9-0.4-1.4-0.4c-0.4,0-0.9,0.1-1.3,0.2s-0.7,0.3-1.1,0.5l-0.8-1.6c0.5-0.3,1-0.6,1.6-0.7c0.6-0.2,1.3-0.3,1.9-0.3
			C485.2,292.5,486.2,292.8,487.1,293.5z M485.1,299c0.3-0.2,0.5-0.5,0.7-0.8v-0.8h-1.6c-1,0-1.4,0.3-1.4,0.9c0,0.3,0.1,0.5,0.4,0.7
			s0.6,0.3,1,0.3C484.4,299.3,484.7,299.2,485.1,299z"/>
		<path class="st1" d="M490.2,289.6h2.3v11.1h-2.3V289.6z"/>
		<path class="st1" d="M494.7,289.6h2.3v11.1h-2.3V289.6z"/>
		<path class="st1" d="M500.8,300.3c-0.7-0.3-1.2-0.8-1.6-1.5c-0.8-1.3-0.8-3,0-4.3c0.4-0.6,0.9-1.1,1.6-1.5c1.4-0.7,3.1-0.7,4.6,0
			c0.7,0.3,1.2,0.8,1.6,1.5c0.8,1.3,0.8,3,0,4.3c-0.4,0.6-0.9,1.1-1.6,1.5C503.9,301.1,502.2,301.1,500.8,300.3z M504.5,298.3
			c0.8-0.9,0.8-2.3,0-3.3c-0.4-0.4-0.9-0.6-1.5-0.6s-1.1,0.2-1.5,0.6c-0.8,0.9-0.8,2.3,0,3.3c0.4,0.4,0.9,0.6,1.5,0.6
			C503.6,299,504.1,298.8,504.5,298.3L504.5,298.3z"/>
		<path class="st1" d="M509.8,300.6c-0.5-0.1-1.1-0.3-1.5-0.6l0.8-1.7c0.4,0.2,0.8,0.4,1.3,0.6c0.5,0.1,1,0.2,1.5,0.2
			c1,0,1.5-0.2,1.5-0.7c0-0.2-0.2-0.4-0.4-0.5c-0.4-0.1-0.8-0.2-1.2-0.3c-0.6-0.1-1.1-0.2-1.6-0.3c-0.4-0.1-0.8-0.4-1.1-0.7
			c-0.3-0.4-0.5-0.9-0.5-1.4s0.1-1,0.4-1.4s0.8-0.7,1.3-0.9c0.6-0.2,1.3-0.3,2-0.3c0.6,0,1.1,0.1,1.7,0.2c0.5,0.1,1,0.3,1.4,0.5
			l-0.8,1.7c-0.7-0.4-1.5-0.6-2.3-0.6c-0.4,0-0.8,0-1.1,0.2c-0.2,0.1-0.4,0.3-0.4,0.5s0.2,0.5,0.4,0.5c0.4,0.1,0.9,0.2,1.3,0.3
			c0.5,0.1,1.1,0.2,1.6,0.4c0.4,0.1,0.8,0.4,1.1,0.7c0.3,0.4,0.5,0.9,0.5,1.4s-0.2,1-0.5,1.3c-0.3,0.4-0.8,0.7-1.3,0.9
			c-0.7,0.2-1.4,0.3-2,0.3C511.1,300.9,510.4,300.8,509.8,300.6z"/>
		<path class="st1" d="M523.1,293.5c0.7,0.7,1.1,1.7,1,2.7v4.6h-2.2v-1c-0.5,0.8-1.5,1.2-2.5,1.1c-0.6,0-1.1-0.1-1.6-0.3
			c-0.4-0.2-0.8-0.5-1-0.9s-0.4-0.8-0.4-1.3c0-0.7,0.3-1.4,0.8-1.8c0.8-0.5,1.7-0.7,2.6-0.6h1.9c0-0.4-0.1-0.9-0.5-1.2
			c-0.4-0.3-0.9-0.4-1.4-0.4c-0.4,0-0.9,0.1-1.3,0.2c-0.4,0.1-0.7,0.3-1.1,0.5l-0.8-1.6c0.5-0.3,1-0.6,1.6-0.7
			c0.6-0.2,1.3-0.3,1.9-0.3C521.3,292.5,522.3,292.8,523.1,293.5z M521.1,299c0.3-0.2,0.5-0.5,0.7-0.8v-0.8h-1.6
			c-1,0-1.4,0.3-1.4,0.9c0,0.3,0.1,0.5,0.4,0.7s0.6,0.3,1,0.3C520.4,299.3,520.8,299.2,521.1,299z"/>
	</g>
	<circle id="Texto-18" class="st1" cx="476.9" cy="255.3" r="3.7"/>
	<g>
		<path class="st1" d="M466.4,243.4c-0.8-0.4-1.6-1.1-2-1.9c-1-1.7-1-3.9,0-5.6c0.5-0.8,1.2-1.5,2-1.9c0.9-0.5,1.9-0.7,2.9-0.7
			c0.8,0,1.7,0.2,2.5,0.5c0.7,0.3,1.4,0.8,1.9,1.4l-1.6,1.4c-0.6-0.8-1.6-1.2-2.6-1.2c-0.6,0-1.2,0.1-1.7,0.4
			c-0.5,0.3-0.9,0.7-1.2,1.2c-0.6,1.1-0.6,2.4,0,3.5c0.3,0.5,0.7,0.9,1.2,1.2s1.1,0.4,1.7,0.4c1,0,2-0.4,2.6-1.2l1.6,1.4
			c-0.5,0.6-1.1,1.1-1.9,1.4c-0.8,0.3-1.6,0.5-2.5,0.5C468.3,244.1,467.3,243.8,466.4,243.4z"/>
		<path class="st1" d="M476.3,243.4c-0.7-0.3-1.2-0.8-1.6-1.5c-0.8-1.3-0.8-3,0-4.3c0.4-0.6,0.9-1.1,1.6-1.5c1.4-0.7,3.1-0.7,4.6,0
			c0.7,0.3,1.2,0.8,1.6,1.5c0.8,1.3,0.8,3,0,4.3c-0.4,0.6-0.9,1.1-1.6,1.5C479.5,244.1,477.8,244.1,476.3,243.4z M480.1,241.4
			c0.8-0.9,0.8-2.3,0-3.3c-0.4-0.4-0.9-0.6-1.5-0.6s-1.1,0.2-1.5,0.6c-0.8,0.9-0.8,2.3,0,3.3c0.4,0.4,0.9,0.6,1.5,0.6
			S479.7,241.9,480.1,241.4L480.1,241.4z"/>
		<path class="st1" d="M489.5,243.9l-1.8-2.5l-1.8,2.5h-2.5l3.1-4.1l-3-4h2.6l1.7,2.4l1.8-2.4h2.5l-3,3.9l3.1,4.1L489.5,243.9z"/>
	</g>
	<circle id="Texto-19" class="st1" cx="390.4" cy="319.7" r="3.7"/>
	<g>
		<path class="st1" d="M369.7,308.3l-2-2.9h-2.2v2.9h-2.4v-10.5h4.5c0.8,0,1.7,0.1,2.4,0.5c1.3,0.6,2.2,1.9,2.1,3.3
			c0.1,1.5-0.8,2.8-2.2,3.3l2.4,3.4H369.7L369.7,308.3z M369.1,300.2c-0.5-0.3-1.1-0.5-1.7-0.5h-2v3.7h2c0.6,0,1.2-0.1,1.7-0.5
			C369.8,302.2,369.9,301,369.1,300.2C369.1,300.3,369.1,300.2,369.1,300.2L369.1,300.2z"/>
		<path class="st1" d="M381.7,304.9h-6.1c0.1,0.5,0.4,0.9,0.8,1.2c0.5,0.3,1,0.5,1.5,0.4c0.4,0,0.8-0.1,1.1-0.2
			c0.3-0.1,0.6-0.3,0.9-0.6l1.2,1.4c-0.9,0.9-2.1,1.4-3.3,1.3c-0.8,0-1.7-0.2-2.4-0.5c-0.7-0.3-1.2-0.8-1.6-1.5
			c-0.4-0.6-0.6-1.4-0.6-2.1c0-0.8,0.2-1.5,0.6-2.1c0.4-0.6,0.9-1.1,1.5-1.5c1.4-0.7,3-0.7,4.3,0c0.6,0.3,1.2,0.8,1.5,1.5
			c0.4,0.7,0.6,1.4,0.5,2.2C381.8,304.3,381.8,304.5,381.7,304.9z M376.3,302.3c-0.4,0.3-0.6,0.8-0.7,1.2h4
			c-0.1-0.5-0.3-0.9-0.7-1.2c-0.4-0.3-0.8-0.5-1.3-0.5S376.6,302,376.3,302.3z"/>
		<path class="st1" d="M391.6,297.2v11.1h-2.2v-0.9c-0.6,0.7-1.6,1.1-2.5,1c-0.7,0-1.4-0.2-2.1-0.5c-0.6-0.3-1.1-0.8-1.4-1.5
			c-0.7-1.4-0.7-3,0-4.4c0.3-0.6,0.8-1.1,1.4-1.5c0.6-0.3,1.3-0.5,2.1-0.5c0.9,0,1.8,0.3,2.4,1v-3.9L391.6,297.2z M388.7,305.9
			c0.8-0.9,0.8-2.3,0-3.3c-0.8-0.8-2.1-0.8-3,0c-0.8,0.9-0.8,2.3,0,3.3C386.6,306.7,387.9,306.7,388.7,305.9z"/>
		<path class="st1" d="M395.3,307.9c-0.7-0.3-1.2-0.8-1.6-1.5c-0.8-1.3-0.8-3,0-4.3c0.4-0.6,0.9-1.1,1.6-1.5c1.4-0.7,3.1-0.7,4.6,0
			c0.7,0.3,1.2,0.8,1.6,1.5c0.8,1.3,0.8,3,0,4.3c-0.4,0.6-0.9,1.1-1.6,1.5C398.4,308.5,396.7,308.5,395.3,307.9z M399,305.9
			c0.8-0.9,0.8-2.3,0-3.3c-0.4-0.4-0.9-0.6-1.5-0.6s-1.1,0.2-1.5,0.6c-0.8,0.9-0.8,2.3,0,3.3c0.4,0.4,0.9,0.6,1.5,0.6
			S398.7,306.3,399,305.9L399,305.9z"/>
		<path class="st1" d="M411.3,300.2l-3.4,8.1h-2.4l-3.4-8.1h2.4l2.2,5.5l2.3-5.5H411.3z"/>
		<path class="st1" d="M418.2,301c0.7,0.7,1.1,1.7,1,2.7v4.6H417v-1c-0.5,0.8-1.5,1.2-2.5,1.1c-0.6,0-1.1-0.1-1.6-0.3
			c-0.4-0.2-0.8-0.5-1-0.9c-0.2-0.4-0.4-0.8-0.4-1.3c0-0.7,0.3-1.4,0.8-1.8c0.8-0.5,1.7-0.7,2.6-0.6h1.9c0-0.4-0.1-0.9-0.5-1.2
			s-0.9-0.4-1.4-0.4c-0.4,0-0.9,0.1-1.3,0.2c-0.4,0.1-0.7,0.3-1.1,0.5l-0.8-1.6c0.5-0.3,1-0.6,1.6-0.7c0.6-0.2,1.3-0.3,1.9-0.3
			C416.3,300,417.4,300.3,418.2,301z M416.2,306.5c0.3-0.2,0.5-0.5,0.7-0.8v-0.8h-1.6c-1,0-1.4,0.3-1.4,0.9c0,0.3,0.1,0.5,0.4,0.7
			s0.6,0.3,1,0.3C415.5,306.8,415.8,306.7,416.2,306.5z M416.2,297h2.5l-2.7,2.2h-1.8L416.2,297z"/>
		<path class="st1" d="M428.6,301c0.7,0.7,1,1.7,0.9,2.7v4.6h-2.3V304c0-0.5-0.1-1-0.4-1.4c-0.3-0.3-0.8-0.5-1.2-0.5
			c-0.5,0-1,0.2-1.4,0.5c-0.4,0.5-0.6,1-0.5,1.6v4h-2.3v-8.1h2.2v0.9c0.3-0.3,0.7-0.6,1.2-0.8s1-0.3,1.5-0.3
			C427.1,300,428,300.4,428.6,301z"/>
	</g>
	<circle id="Texto-20" class="st1" cx="309.3" cy="283.3" r="3.7"/>
	<g>
		<path class="st1" d="M291,267.3c0.3,0.5,0.5,1.1,0.5,1.6c0,0.8-0.4,1.7-1.1,2.1c-0.9,0.6-2,0.8-3.1,0.7h-5.4v-10.5h5.1
			c1-0.1,2.1,0.2,2.9,0.7c0.7,0.4,1.1,1.2,1,2c0,1-0.5,1.9-1.4,2.3C290.1,266.5,290.6,266.9,291,267.3z M284.3,263.2v2.5h2.4
			c0.5,0,1-0.1,1.4-0.3c0.3-0.2,0.5-0.6,0.5-0.9c0-0.4-0.2-0.7-0.5-0.9c-0.4-0.2-0.9-0.3-1.4-0.3L284.3,263.2z M288.6,269.7
			c0.3-0.2,0.5-0.6,0.5-1c0-0.9-0.6-1.3-1.9-1.3h-2.8v2.6h2.8C287.6,270,288.1,269.9,288.6,269.7L288.6,269.7z"/>
		<path class="st1" d="M301.1,268.5H295c0.1,0.5,0.4,0.9,0.8,1.2c0.5,0.3,1,0.5,1.5,0.4c0.4,0,0.8-0.1,1.1-0.2
			c0.3-0.1,0.6-0.3,0.9-0.6l1.2,1.4c-0.9,0.9-2.1,1.4-3.3,1.3c-0.8,0-1.7-0.2-2.4-0.5c-0.7-0.3-1.2-0.8-1.6-1.5
			c-0.4-0.6-0.6-1.4-0.6-2.1c0-0.8,0.2-1.5,0.6-2.1c0.4-0.6,0.9-1.1,1.5-1.5c1.4-0.7,3-0.7,4.3,0c0.6,0.3,1.2,0.8,1.5,1.5
			c0.4,0.7,0.6,1.4,0.5,2.2C301.1,267.9,301.1,268.1,301.1,268.5z M295.6,265.9c-0.4,0.3-0.6,0.8-0.7,1.2h4
			c-0.1-0.5-0.3-0.9-0.7-1.2c-0.4-0.3-0.8-0.5-1.3-0.5S296,265.6,295.6,265.9z"/>
		<path class="st1" d="M310,264.5c0.7,0.7,1,1.7,0.9,2.7v4.6h-2.3v-4.3c0-0.5-0.1-1-0.4-1.4c-0.3-0.3-0.8-0.5-1.2-0.5
			c-0.5,0-1,0.2-1.4,0.5c-0.4,0.5-0.6,1-0.5,1.6v4h-2.3v-8.1h2.2v0.9c0.3-0.3,0.7-0.6,1.2-0.8c0.5-0.2,1-0.3,1.5-0.3
			C308.5,263.6,309.3,263.9,310,264.5z"/>
		<path class="st1" d="M313.1,262.3c-0.5-0.5-0.5-1.3-0.1-1.8c0,0,0,0,0.1-0.1c0.3-0.3,0.7-0.4,1-0.4c0.4,0,0.8,0.1,1,0.4
			c0.3,0.2,0.4,0.6,0.4,0.9c0,0.4-0.1,0.7-0.4,1c-0.3,0.3-0.7,0.4-1,0.4C313.8,262.7,313.4,262.5,313.1,262.3z M313,263.8h2.3v8.1
			H313V263.8z"/>
		<path class="st1" d="M320.1,263.9h2.1v1.8h-2v6.1h-2.3v-6.1h-1.2v-1.8h1.2v-0.4c0-0.8,0.3-1.6,0.8-2.2c0.6-0.6,1.5-0.9,2.3-0.8
			c0.3,0,0.7,0,1,0.1s0.5,0.2,0.8,0.3l-0.6,1.7c-0.3-0.2-0.6-0.3-0.9-0.3c-0.7,0-1.1,0.4-1.1,1.2L320.1,263.9z"/>
		<path class="st1" d="M331.1,268.5H325c0.1,0.5,0.4,0.9,0.8,1.2c0.5,0.3,1,0.5,1.5,0.4c0.4,0,0.8-0.1,1.1-0.2
			c0.3-0.1,0.6-0.3,0.9-0.6l1.2,1.4c-0.9,0.9-2.1,1.4-3.3,1.3c-0.8,0-1.7-0.2-2.4-0.5c-0.7-0.3-1.2-0.8-1.6-1.5
			c-0.4-0.6-0.6-1.4-0.6-2.1c0-0.8,0.2-1.5,0.6-2.1s0.9-1.1,1.5-1.5c1.4-0.7,3-0.7,4.3,0c0.6,0.3,1.2,0.8,1.5,1.5
			c0.4,0.7,0.6,1.4,0.5,2.2C331.1,267.9,331.1,268.1,331.1,268.5z M325.6,265.9c-0.4,0.3-0.6,0.8-0.7,1.2h4
			c-0.1-0.5-0.3-0.9-0.7-1.2c-0.4-0.3-0.8-0.5-1.3-0.5C326.5,265.4,326,265.6,325.6,265.9z"/>
		<path class="st1" d="M336.1,263.9c0.5-0.2,1.1-0.3,1.6-0.3v2.2c-0.3,0-0.4,0-0.5,0c-0.6,0-1.1,0.2-1.6,0.6
			c-0.4,0.5-0.6,1.1-0.6,1.7v3.8h-2.3v-8.1h2.2v1.1C335.2,264.4,335.6,264.1,336.1,263.9z"/>
		<path class="st1" d="M342.5,263.9c0.5-0.2,1.1-0.3,1.6-0.3v2.2c-0.3,0-0.4,0-0.5,0c-0.6,0-1.1,0.2-1.6,0.6
			c-0.4,0.5-0.6,1.1-0.6,1.7v3.8h-2.3v-8.1h2.2v1.1C341.6,264.4,342,264.1,342.5,263.9z"/>
		<path class="st1" d="M345.6,262.3c-0.5-0.5-0.5-1.3-0.1-1.8c0,0,0,0,0.1-0.1c0.3-0.3,0.7-0.4,1-0.4c0.4,0,0.8,0.1,1,0.4
			c0.3,0.2,0.4,0.6,0.4,0.9c0,0.4-0.1,0.7-0.4,1c-0.3,0.3-0.7,0.4-1,0.4C346.3,262.7,345.9,262.5,345.6,262.3z M345.5,263.8h2.3v8.1
			h-2.3V263.8z"/>
	</g>
	<circle id="Texto-21" class="st1" cx="533" cy="197.9" r="3.7"/>
	<g>
		<path class="st1" d="M483.6,186.4c-0.7-0.2-1.3-0.5-1.9-0.9l0.8-1.8c0.5,0.3,1,0.6,1.6,0.8s1.2,0.3,1.9,0.3c0.5,0,1.1-0.1,1.5-0.3
			c0.3-0.2,0.5-0.5,0.5-0.8c0-0.2-0.1-0.5-0.3-0.6c-0.2-0.2-0.5-0.3-0.8-0.4c-0.3-0.1-0.7-0.2-1.2-0.3c-0.7-0.2-1.3-0.3-2-0.6
			c-0.5-0.2-1-0.5-1.3-0.9c-0.4-0.5-0.6-1.1-0.5-1.7c0-0.6,0.2-1.2,0.5-1.7c0.4-0.5,0.9-0.9,1.5-1.2c0.8-0.3,1.6-0.5,2.4-0.4
			c0.7,0,1.3,0.1,2,0.2c0.6,0.1,1.2,0.4,1.7,0.7l-0.8,1.8c-0.9-0.5-1.9-0.8-2.9-0.8c-0.5,0-1,0.1-1.5,0.3c-0.3,0.2-0.5,0.5-0.5,0.9
			s0.2,0.7,0.6,0.8c0.6,0.2,1.1,0.4,1.7,0.5c0.7,0.2,1.3,0.3,2,0.6c0.5,0.2,1,0.5,1.3,0.9c0.4,0.5,0.6,1.1,0.5,1.7
			c0,0.6-0.2,1.2-0.5,1.6c-0.4,0.5-0.9,0.9-1.5,1.2c-0.8,0.3-1.6,0.5-2.4,0.4C485.2,186.7,484.4,186.6,483.6,186.4z"/>
		<path class="st1" d="M498.1,179.2c0.7,0.7,1.1,1.7,1,2.7v4.6h-2.2v-1c-0.5,0.8-1.5,1.2-2.5,1.1c-0.6,0-1.1-0.1-1.6-0.3
			c-0.4-0.2-0.8-0.5-1-0.9s-0.4-0.8-0.4-1.3c0-0.7,0.3-1.4,0.8-1.8c0.8-0.5,1.7-0.7,2.6-0.6h1.9c0-0.4-0.1-0.9-0.5-1.2
			s-0.9-0.4-1.4-0.4c-0.4,0-0.9,0.1-1.3,0.2c-0.4,0.1-0.7,0.3-1.1,0.5l-0.8-1.6c0.5-0.3,1-0.6,1.6-0.7c0.6-0.2,1.3-0.3,1.9-0.3
			C496.3,178.3,497.3,178.6,498.1,179.2z M496.1,184.8c0.3-0.2,0.5-0.5,0.7-0.8v-0.8h-1.6c-1,0-1.4,0.3-1.4,0.9
			c0,0.3,0.1,0.5,0.4,0.7s0.6,0.3,1,0.3C495.5,185.1,495.8,185,496.1,184.8z"/>
		<path class="st1" d="M508.6,179.2c0.7,0.7,1,1.7,0.9,2.7v4.6h-2.3v-4.3c0-0.5-0.1-1-0.4-1.4c-0.3-0.3-0.8-0.5-1.2-0.5
			c-0.5,0-1,0.2-1.4,0.5c-0.4,0.5-0.6,1-0.5,1.6v4h-2.3v-8.1h2.2v0.9c0.3-0.3,0.7-0.6,1.2-0.8s1-0.3,1.5-0.3
			C507.1,178.3,507.9,178.6,508.6,179.2z"/>
		<path class="st1" d="M516,176h2.4v10.5H516V176z"/>
		<path class="st1" d="M521.5,186.4c-0.5-0.1-1.1-0.3-1.5-0.6l0.8-1.7c0.4,0.2,0.8,0.4,1.3,0.6c0.5,0.1,1,0.2,1.5,0.2
			c1,0,1.5-0.2,1.5-0.7c0-0.2-0.2-0.4-0.4-0.5c-0.4-0.1-0.8-0.2-1.2-0.3c-0.6-0.1-1.1-0.2-1.6-0.3c-0.4-0.1-0.8-0.4-1.1-0.7
			c-0.3-0.4-0.5-0.9-0.5-1.4s0.1-1,0.4-1.4s0.8-0.7,1.3-0.9c0.6-0.2,1.3-0.3,2-0.3c0.6,0,1.1,0.1,1.7,0.2c0.5,0.1,1,0.3,1.4,0.5
			l-0.8,1.7c-0.7-0.4-1.5-0.6-2.3-0.6c-0.4,0-0.8,0-1.1,0.2c-0.2,0.1-0.4,0.3-0.4,0.5s0.2,0.5,0.4,0.5c0.4,0.1,0.9,0.2,1.3,0.3
			c0.5,0.1,1.1,0.2,1.6,0.4c0.4,0.1,0.8,0.4,1.1,0.7c0.3,0.4,0.5,0.9,0.5,1.4s-0.2,1-0.5,1.3c-0.3,0.4-0.8,0.7-1.3,0.9
			c-0.7,0.2-1.4,0.3-2,0.3C522.8,186.6,522.2,186.5,521.5,186.4z"/>
		<path class="st1" d="M528.9,176.9c-0.5-0.5-0.5-1.3-0.1-1.8c0,0,0,0,0.1-0.1c0.3-0.3,0.7-0.4,1-0.4c0.4,0,0.8,0.1,1,0.4
			c0.3,0.2,0.4,0.6,0.4,0.9c0,0.4-0.1,0.7-0.4,1s-0.7,0.4-1,0.4C529.5,177.3,529.2,177.2,528.9,176.9z M528.8,178.4h2.3v8.1h-2.3
			V178.4z"/>
		<path class="st1" d="M541.5,175.4v11.1h-2.2v-0.9c-0.6,0.7-1.6,1.1-2.5,1.1c-0.7,0-1.4-0.2-2.1-0.5c-0.6-0.3-1.1-0.8-1.4-1.5
			c-0.7-1.4-0.7-3,0-4.4c0.3-0.6,0.8-1.1,1.4-1.5c0.6-0.3,1.3-0.5,2.1-0.5c0.9,0,1.8,0.3,2.4,1v-3.9L541.5,175.4z M538.6,184.1
			c0.8-0.9,0.8-2.3,0-3.3c-0.8-0.8-2.1-0.8-3,0c-0.8,0.9-0.8,2.3,0,3.3C536.5,184.9,537.8,184.9,538.6,184.1z"/>
		<path class="st1" d="M547,178.6c0.5-0.2,1.1-0.3,1.6-0.3v2.2c-0.3,0-0.4,0-0.5,0c-0.6,0-1.1,0.2-1.6,0.6c-0.4,0.5-0.6,1.1-0.6,1.7
			v3.8h-2.3v-8.1h2.2v1.1C546.2,179.1,546.6,178.8,547,178.6z"/>
		<path class="st1" d="M551.5,186.1c-0.7-0.3-1.2-0.8-1.6-1.5c-0.8-1.3-0.8-3,0-4.3c0.4-0.6,0.9-1.1,1.6-1.5c1.4-0.7,3.1-0.7,4.6,0
			c0.7,0.3,1.2,0.8,1.6,1.5c0.8,1.3,0.8,3,0,4.3c-0.4,0.6-0.9,1.1-1.6,1.5C554.7,186.8,553,186.8,551.5,186.1z M555.3,184.1
			c0.8-0.9,0.8-2.3,0-3.3c-0.4-0.4-0.9-0.6-1.5-0.6c-0.6,0-1.1,0.2-1.5,0.6c-0.8,0.9-0.8,2.3,0,3.3c0.4,0.4,0.9,0.6,1.5,0.6
			C554.4,184.7,554.9,184.5,555.3,184.1L555.3,184.1z"/>
	</g>
	
		<ellipse id="Texto-22" transform="matrix(0.3162 -0.9487 0.9487 0.3162 57.6845 538.8364)" class="st1" cx="402.6" cy="229.4" rx="3.7" ry="3.7"/>
	<g>
		<path class="st1" d="M380.9,215.7H376l-0.9,2.3h-2.5l4.7-10.5h2.4l4.7,10.5h-2.6L380.9,215.7z M380.1,213.8l-1.7-4l-1.7,4H380.1z"
			/>
		<path class="st1" d="M385.3,206.8h2.3v11.1h-2.3V206.8z"/>
		<path class="st1" d="M396.7,210.3c0.6,0.3,1.1,0.8,1.4,1.5c0.7,1.4,0.7,3,0,4.4c-0.3,0.6-0.8,1.1-1.4,1.5c-0.6,0.3-1.3,0.5-2,0.5
			c-1,0.1-1.9-0.3-2.5-1.1v0.9H390v-11.1h2.3v3.9c0.6-0.7,1.5-1,2.4-1C395.3,209.7,396,209.9,396.7,210.3z M395.7,215.5
			c0.8-0.9,0.8-2.3,0-3.3c-0.8-0.8-2.1-0.8-3,0c-0.8,0.9-0.8,2.3,0,3.3C393.5,216.3,394.9,216.3,395.7,215.5z"/>
		<path class="st1" d="M406.2,210.6c0.7,0.7,1.1,1.7,1,2.7v4.6H405v-1c-0.5,0.8-1.5,1.2-2.5,1.1c-0.6,0-1.1-0.1-1.6-0.3
			c-0.4-0.2-0.8-0.5-1-0.9c-0.2-0.4-0.4-0.8-0.4-1.3c0-0.7,0.3-1.4,0.8-1.8c0.8-0.5,1.7-0.7,2.6-0.6h1.9c0-0.4-0.1-0.9-0.5-1.2
			s-0.9-0.4-1.4-0.4c-0.4,0-0.9,0.1-1.3,0.2c-0.4,0.1-0.7,0.3-1.1,0.5l-0.8-1.6c0.5-0.3,1-0.6,1.6-0.7c0.6-0.2,1.3-0.3,1.9-0.3
			C404.3,209.7,405.4,210,406.2,210.6z M404.2,216.2c0.3-0.2,0.5-0.5,0.7-0.8v-0.8h-1.6c-1,0-1.4,0.3-1.4,0.9c0,0.3,0.1,0.5,0.4,0.7
			s0.6,0.3,1,0.3C403.5,216.5,403.9,216.4,404.2,216.2z"/>
		<path class="st1" d="M414.5,217.6c-0.3,0.2-0.5,0.3-0.8,0.4c-0.3,0.1-0.7,0.1-1.1,0.1c-0.8,0.1-1.6-0.2-2.2-0.7
			c-0.6-0.6-0.8-1.4-0.8-2.2v-3.3h-1.2v-1.8h1.2v-2h2.3v2h2v1.8h-2v3.3c0,0.3,0.1,0.6,0.3,0.8c0.2,0.2,0.5,0.3,0.7,0.3
			c0.3,0,0.7-0.1,0.9-0.3L414.5,217.6z"/>
		<path class="st1" d="M423.4,214.6h-6.1c0.1,0.5,0.4,0.9,0.8,1.2c0.5,0.3,1,0.5,1.5,0.4c0.4,0,0.8-0.1,1.1-0.2
			c0.3-0.1,0.6-0.3,0.9-0.6l1.2,1.4c-0.9,0.9-2.1,1.4-3.3,1.3c-0.8,0-1.7-0.2-2.4-0.5c-0.7-0.3-1.2-0.8-1.6-1.5
			c-0.4-0.6-0.6-1.4-0.6-2.1c0-0.8,0.2-1.5,0.6-2.1s0.9-1.1,1.5-1.5c1.4-0.7,3-0.7,4.3,0c0.6,0.3,1.2,0.8,1.5,1.5
			c0.4,0.7,0.6,1.4,0.5,2.2C423.5,214,423.5,214.2,423.4,214.6z M418,212c-0.4,0.3-0.6,0.8-0.7,1.2h4c-0.1-0.5-0.3-0.9-0.7-1.2
			c-0.4-0.3-0.8-0.5-1.3-0.5C418.8,211.5,418.3,211.7,418,212z"/>
		<path class="st1" d="M428.4,210.1c0.5-0.2,1.1-0.3,1.6-0.3v2.2c-0.3,0-0.4,0-0.5,0c-0.6,0-1.1,0.2-1.6,0.6
			c-0.4,0.5-0.6,1.1-0.6,1.7v3.8H425V210h2.2v1.1C427.6,210.5,428,210.2,428.4,210.1z"/>
		<path class="st1" d="M437.5,210.6c0.7,0.7,1.1,1.7,1,2.7v4.6h-2.2v-1c-0.5,0.8-1.5,1.2-2.5,1.1c-0.6,0-1.1-0.1-1.6-0.3
			c-0.4-0.2-0.8-0.5-1-0.9s-0.4-0.8-0.4-1.3c0-0.7,0.3-1.4,0.8-1.8c0.8-0.5,1.7-0.7,2.6-0.6h1.9c0-0.4-0.1-0.9-0.5-1.2
			s-0.9-0.4-1.4-0.4c-0.4,0-0.9,0.1-1.3,0.2c-0.4,0.1-0.7,0.3-1.1,0.5l-0.8-1.6c0.5-0.3,1-0.6,1.6-0.7c0.6-0.2,1.3-0.3,1.9-0.3
			C435.7,209.7,436.7,210,437.5,210.6z M435.5,216.2c0.3-0.2,0.5-0.5,0.7-0.8v-0.8h-1.6c-1,0-1.4,0.3-1.4,0.9c0,0.3,0.1,0.5,0.4,0.7
			s0.6,0.3,1,0.3C434.9,216.5,435.2,216.4,435.5,216.2L435.5,216.2z"/>
	</g>
	<g>
		<path class="st1" d="M609.2,276.7c-0.7-0.2-1.3-0.5-1.9-0.9l0.8-1.8c0.5,0.3,1,0.6,1.6,0.8c0.6,0.2,1.2,0.3,1.9,0.3
			c0.5,0,1.1-0.1,1.5-0.3c0.3-0.2,0.5-0.5,0.5-0.8c0-0.2-0.1-0.5-0.3-0.6c-0.2-0.2-0.5-0.3-0.8-0.4s-0.7-0.2-1.2-0.3
			c-0.7-0.2-1.3-0.3-2-0.6c-0.5-0.2-1-0.5-1.3-0.9c-0.4-0.5-0.6-1.1-0.5-1.7c0-0.6,0.2-1.2,0.5-1.7c0.4-0.5,0.9-0.9,1.5-1.2
			c0.8-0.3,1.6-0.5,2.4-0.4c0.7,0,1.3,0.1,2,0.2c0.6,0.1,1.2,0.4,1.7,0.7l-0.8,1.8c-0.9-0.5-1.9-0.8-2.9-0.8c-0.5,0-1,0.1-1.5,0.3
			c-0.3,0.2-0.5,0.5-0.5,0.9s0.2,0.7,0.6,0.8c0.6,0.2,1.1,0.4,1.7,0.5c0.7,0.2,1.3,0.3,2,0.6c0.5,0.2,1,0.5,1.3,0.9
			c0.4,0.5,0.6,1.1,0.5,1.7c0,0.6-0.2,1.2-0.5,1.6c-0.4,0.5-0.9,0.9-1.5,1.2c-0.8,0.3-1.6,0.5-2.4,0.4
			C610.7,277,609.9,276.9,609.2,276.7z"/>
		<path class="st1" d="M623.7,269.5c0.7,0.7,1.1,1.7,1,2.7v4.6h-2.2v-1c-0.5,0.8-1.5,1.2-2.5,1.1c-0.6,0-1.1-0.1-1.6-0.3
			c-0.4-0.2-0.8-0.5-1-0.9s-0.4-0.8-0.4-1.3c0-0.7,0.3-1.4,0.8-1.8c0.8-0.5,1.7-0.7,2.6-0.6h1.9c0-0.4-0.1-0.9-0.5-1.2
			c-0.4-0.3-0.9-0.4-1.4-0.4c-0.4,0-0.9,0.1-1.3,0.2c-0.4,0.1-0.7,0.3-1.1,0.5l-0.8-1.6c0.5-0.3,1-0.6,1.6-0.7
			c0.6-0.2,1.3-0.3,1.9-0.3C621.8,268.5,622.8,268.9,623.7,269.5z M621.7,275.1c0.3-0.2,0.5-0.5,0.7-0.8v-0.8h-1.6
			c-1,0-1.4,0.3-1.4,0.9c0,0.3,0.1,0.5,0.4,0.7c0.3,0.2,0.6,0.3,1,0.3C621,275.4,621.3,275.3,621.7,275.1L621.7,275.1z"/>
		<path class="st1" d="M634.1,269.5c0.7,0.7,1,1.7,0.9,2.7v4.6h-2.3v-4.3c0-0.5-0.1-1-0.4-1.4c-0.3-0.3-0.8-0.5-1.2-0.5
			c-0.5,0-1,0.2-1.4,0.5c-0.4,0.5-0.6,1-0.5,1.6v4h-2.3v-8.1h2.2v0.9c0.3-0.3,0.7-0.6,1.2-0.8c0.5-0.2,1-0.3,1.5-0.3
			C632.6,268.6,633.4,268.9,634.1,269.5z"/>
		<path class="st1" d="M644,268.3v2.8h4.9v2H644v3.8h-2.4v-10.5h7.9v2L644,268.3z"/>
		<path class="st1" d="M658.9,268.7v8.1h-2.2v-1c-0.3,0.3-0.7,0.6-1.1,0.8c-0.4,0.2-0.9,0.3-1.4,0.3c-0.9,0-1.8-0.3-2.5-0.9
			c-0.7-0.7-1-1.7-0.9-2.7v-4.6h2.3v4.2c0,1.3,0.5,2,1.6,2c0.5,0,1-0.2,1.4-0.5c0.4-0.5,0.6-1,0.5-1.6v-4L658.9,268.7z"/>
		<path class="st1" d="M661.1,265.7h2.3v11.1h-2.3V265.7z"/>
		<path class="st1" d="M673.9,268.7v6.7c0.1,1.2-0.3,2.4-1.2,3.3c-0.9,0.8-2.2,1.2-3.4,1.1c-0.7,0-1.5-0.1-2.2-0.3
			c-0.6-0.2-1.2-0.4-1.7-0.8l0.9-1.7c0.4,0.3,0.8,0.5,1.3,0.7s1,0.2,1.6,0.2c0.6,0.1,1.3-0.1,1.8-0.5c0.4-0.4,0.6-1,0.6-1.7v-0.3
			c-0.7,0.7-1.6,1.1-2.5,1c-0.7,0-1.4-0.2-2-0.5s-1.1-0.8-1.5-1.4c-0.7-1.3-0.7-2.8,0-4.1c0.4-0.6,0.9-1.1,1.5-1.4s1.3-0.5,2-0.5
			c1-0.1,2,0.4,2.7,1.2v-1L673.9,268.7z M671,274c0.8-0.8,0.8-2.1,0-2.9c-0.4-0.4-1-0.6-1.5-0.5c-0.6,0-1.1,0.2-1.5,0.5
			c-0.8,0.8-0.8,2,0,2.8l0,0c0.4,0.4,1,0.6,1.5,0.5C670,274.5,670.6,274.3,671,274L671,274z"/>
		<path class="st1" d="M683.9,273.4h-6.1c0.1,0.5,0.4,0.9,0.8,1.2c0.5,0.3,1,0.5,1.5,0.4c0.4,0,0.8-0.1,1.1-0.2s0.6-0.3,0.9-0.6
			l1.2,1.4c-0.9,0.9-2.1,1.4-3.3,1.3c-0.8,0-1.7-0.2-2.4-0.5s-1.2-0.8-1.6-1.5c-0.4-0.6-0.6-1.4-0.6-2.1c0-0.8,0.2-1.5,0.6-2.1
			c0.4-0.6,0.9-1.1,1.5-1.5c1.4-0.7,3-0.7,4.3,0c0.6,0.3,1.2,0.8,1.5,1.5c0.4,0.7,0.6,1.4,0.5,2.2C684,272.8,684,273,683.9,273.4z
			 M678.5,270.8c-0.4,0.3-0.6,0.8-0.7,1.2h4c-0.1-0.5-0.3-0.9-0.7-1.2c-0.4-0.3-0.8-0.5-1.3-0.5
			C679.3,270.4,678.8,270.5,678.5,270.8z"/>
		<path class="st1" d="M692.9,269.5c0.7,0.7,1,1.7,0.9,2.7v4.6h-2.3v-4.3c0-0.5-0.1-1-0.4-1.4c-0.3-0.3-0.8-0.5-1.2-0.5
			c-0.5,0-1,0.2-1.4,0.5c-0.4,0.5-0.6,1-0.5,1.6v4h-2.3v-8.1h2.2v0.9c0.3-0.3,0.7-0.6,1.2-0.8c0.5-0.2,1-0.3,1.5-0.3
			C691.3,268.6,692.2,268.9,692.9,269.5z"/>
		<path class="st1" d="M697.6,276.4c-0.7-0.3-1.2-0.8-1.6-1.5c-0.8-1.3-0.8-3,0-4.3c0.4-0.6,0.9-1.1,1.6-1.5
			c0.7-0.4,1.5-0.5,2.3-0.5s1.5,0.2,2.2,0.5c0.6,0.3,1.1,0.9,1.4,1.5l-1.8,1c-0.3-0.7-1-1.1-1.8-1.1c-0.6,0-1.1,0.2-1.5,0.6
			c-0.8,0.9-0.8,2.3,0,3.3c0.4,0.4,0.9,0.6,1.5,0.6c0.8,0,1.5-0.4,1.8-1.1l1.8,1c-0.3,0.6-0.8,1.2-1.4,1.5c-0.7,0.4-1.5,0.6-2.2,0.5
			C699.1,276.9,698.3,276.8,697.6,276.4z"/>
		<path class="st1" d="M705,267.2c-0.5-0.5-0.5-1.3-0.1-1.8c0,0,0,0,0.1-0.1c0.3-0.3,0.7-0.4,1-0.4c0.4,0,0.8,0.1,1,0.4
			c0.3,0.2,0.4,0.6,0.4,0.9c0,0.4-0.1,0.7-0.4,1c-0.3,0.3-0.7,0.4-1,0.4C705.6,267.6,705.3,267.5,705,267.2z M704.9,268.7h2.3v8.1
			h-2.3V268.7z"/>
		<path class="st1" d="M710.9,276.4c-0.7-0.3-1.2-0.8-1.6-1.5c-0.8-1.3-0.8-3,0-4.3c0.4-0.6,0.9-1.1,1.6-1.5c1.4-0.7,3.1-0.7,4.6,0
			c0.7,0.3,1.2,0.8,1.6,1.5c0.8,1.3,0.8,3,0,4.3c-0.4,0.6-0.9,1.1-1.6,1.5C714.1,277.1,712.4,277.1,710.9,276.4z M714.7,274.4
			c0.8-0.9,0.8-2.3,0-3.3c-0.4-0.4-0.9-0.6-1.5-0.6s-1.1,0.2-1.5,0.6c-0.8,0.9-0.8,2.3,0,3.3c0.4,0.4,0.9,0.6,1.5,0.6
			S714.3,274.8,714.7,274.4z"/>
	</g>
</g>
<g id="_Strokes_1_">
	<path class="st2" d="M909.5,318.5c7,8.1,0.4,11-2.8,26.4c-3.5,17-8.1,39.6-11.1,65.5c-2.5,21.2-8.3,55.2-6.5,91.8s3,95.5-0.3,114
		s-25.6,44.8-45.9,49.2S804,680.2,801,693.6c-3.1,13.3-5.3,26.7-6.7,40.3c-1.2,13.4-12,9.6-19.7,12.4s-12.2,23.4-11.3,40.6
		c0.9,16.7,3.5,23.9-17,25.7s-30.9,17.3-36.9,35.9c-6.6,20.4-4,29.6-4.5,45.2s-4.4,13.5-12.8,22.4s1.3,32.5-1.6,37.3
		c-11.1,18.2-46.8,9.3-61.2-10.7c-19.9-27.6-45.4-11.9-68.4-35.6c-39-40.2-89.6-86.5-134-147.5c-31.4-43.2-88.6-161-110.2-195.9
		c-31.1-50.3-56-77.1-81.5-111.4c-23.1-31.1-18.9-85-19.7-93.2c-1.5-15.4-18-58.2-3.6-69.8c34.7-28,71.5-117.2,79.3-139.1
		c8-22.7,11.1-62.5,17.3-78.7c6.1-16,18.4-46.3,18.1-50.1C321-62.6,365-61.6,339.5,24c-1.9,6.3,18.5-3.5,45.8,2.9
		c23.3,5.5,19-10.2,68.5-0.9c9.4,1.8,23.5-27.5,34.9-22.3c11.4,5.2,50.2,132.1,57.8,144.1c3.8,6,27,13.9,28.2,21.8
		c1.2,7.9,12.8,43.4,13.7,50.5c1.3,9.8,2,11,19.3,9.3c23.8-2.3,21.5-19.8,50.4-15.8c22.9,3.2,42.3,21,62.2,39.6
		c19.6,18.5,31.6,42.5,59.6,47.7c33.9,6.3,68.8-29,90.9-12.2c15.3,11.7,1.3,20,7.8,28.5C883,323.2,901.7,309.5,909.5,318.5z"/>
	<path class="st2" d="M456.9,798c15.2-2.4,29.9-9.4,45.7-10.8c13.2-1.2,32,8.7,85.5,22c32.3,8,36.1,4.7,63.9,14
		c16.7,5.6,41.7,23.3,55.3,29.4"/>
	<path class="st2" d="M796.9,714.4c-22-21.8-69.7-37.1-89.4-41.8c-36.7-8.8,7.4-43,6.5-55.7c-2.5-33.9,16.4-49.2,35.2-53.1
		c8.1-1.7,20.1-15.4,23.1-23.1c2.2-5.9-7.7-17.9-5.8-23.1c1.9-5.2,8.3-12.6,19.1-24.4c8.1-8.9,23.3-20.9,28.2-23.1
		c5-2.2,28.4-5.5,34,0.3c8.2,8.5,4.9,26.2,41,26"/>
	<path class="st2" d="M817.8,469.1c-0.2-22.3-3.9-40.8-6.7-59.4s-8.4-48.2,2.7-55.2s16.8-4.1,28.4-3.1s28,4.1,33.9-2.6
		s6.6-22.4,4.4-30.3"/>
	<path class="st2" d="M813.8,355.1c0,0-47.2,31.9-64.1,31.9s-35.2-24.7-48.3-30.4c-11.9-5.2-30-8.7-40.4-17.3
		c-5.7-4.6,1.5-10.9-5.1-14.2c-8.5-4.3-33.1-22.6-42.2-29.6c-8.7-6.6-21-13.7-25.2-21.1s1-36.1,2.5-46.1"/>
	<path class="st2" d="M389.2,374c0,0,11.5,30.9,9.1,55.6c-2,19.6,15.2,40.4,26.7,50.4c12.7,11.1,94.3,22.9,102.9,39.8
		c14,27.2,36.7,30.3,45.8,42c10.5,13.4,39.2,43.6,42,58.5c3.4,18.5-7.4,24.2-7.1,41.6c0.2,10.1,8,30.5,19.3,34.4
		c12.4,4.4,43.9,21.4,55.7,6.3C692.9,690.7,695,666,695,666"/>
	<path class="st2" d="M749.7,387c0,0-2.1,12.9-2.6,20.9c-0.5,8,0,11.4,3.6,17.1c3.6,5.7,5.7,11.4,4.1,17.6s-16.6,7.8-14.4,12.7
		s9.7,15.3,2.2,13.9s-12.4,0.4-14.8,2.5c-2.3,2.1-5.7,4.6-8.3-4.4c-2.6-9-9.9-17-14.9-24.8s-11.3-19.7-17.2-21.8
		c-6-2.1-21.5-5.7-30.8-9.3c-9.3-3.6-16.3-8.2-23.6-10.2c-7.3-2-14.4-2.5-23.9,1.9c-9.5,4.4-16,8.5-28.4,8.5
		c-12.4,0-41.5,6.1-48.2-10.4c-6.7-16.5-19.9-28.4-24.3-35.2s-8.3-13.4-4.9-21.7c3.4-8.3,3.3-22.4,12.9-25.6
		c9.6-3.2,28.5-12.8,34.1-19c5.5-6.2,18-15.9,39.9-22.4"/>
	<path class="st2" d="M503.2,356.2c0,0-19.2-13.6-29.3-7.8c-10.1,5.8-19.5,10.4-30.9,13.2c-11.4,2.7-24.8,12.2-34.6,12.4
		c-9.8,0.2-16.8,7.3-21.9-2.1c-5.1-9.4-12-24.3-16.7-33.2s-9.6-21-21-22.8s-42.7-8.2-55.9-8.3c-13.2,0-30-4.9-42.2,5.9
		s-28.9,26.6-37,35.7"/>
</g>
</svg>
