<?xml version="1.0" encoding="utf-8"?>
<svg version="1.1" id="Capa_1" xmlns="http://www.w3.org/2000/svg" xmlns:xlink="http://www.w3.org/1999/xlink" x="0px" y="0px"
	 viewBox="0 0 1080 1080" style="enable-background:new 0 0 1080 1080;" xml:space="preserve">
<style type="text/css">
	.st1{fill:none;stroke:#FFFFFF;stroke-width:8;stroke-miterlimit:10;}
	.st2{enable-background:new    ;}
	.st3{fill:#FFFFFF;}
</style>
<g id="2_El_Campello" class="zone">
	<path class="st0" d="M782.2,578.4c12.6-6.3,42.6-20.2,61.8-38.4c19-18,44.3-34.6,49-37c2.7-2.3,12-25.1,7.4-36.6
		c-1.8-11.8-13.6-22.6-17.5-25c-2.4-1.4-18.3-4.4-31.5-6.5l-0.4-0.1c-0.8-0.2-5.2-1.5-16.2-8.5c-0.7-0.4-1.3-0.9-1.9-1.4l-65.2,62.9
		c-0.5,0.5-5.3,5-14.3,6.1c-10.8,1.4-12.2-5-13.1-8.8c-0.1-0.4-0.2-0.8-0.3-1.2c-0.6-2.1,3.1-2.6,3.5-4.7c0.2-1.2-1.5-6.6-1.5-7.8
		c0-3.3-3.1-4.1-4.4-5.2c-0.3-0.3-0.7-0.4-1.1-0.2c-0.8,0.1-1.7,0.3-2.7,0.4c-5.8,0.8-16-0.8-22,6.7c-7.4,9.2-9.2,20.4-10.1,25.7
		l-0.2,1.3c-1,6.3-6.4,15.6-16.2,22.2c-8.5,5.7-46,33.9-48.5,35.9c-0.6,0.5-1.2,6.6-4.3,9.1c4.8-0.1,9.5-0.8,14.2-1.9
		c7.3-2,11-0.6,15.7,2.9c2.5,1.9,5.4,2.4,5.4,6.3c0.3,7.7,3.2,15.2,4.9,22.7c1.1,4.3,2.1,23.5,0.1,35.2c6.3,5.8,30.8,27.1,49,27.8
		c0-0.2,0-0.4,0-0.6c0-1,0-2.2,0-3.4c0-11.7,6.9-31.5,20-46.6C756.5,592.6,769.9,584.6,782.2,578.4z"/>
</g>
<g id="2_San_Juan" class="zone">
	<path class="st0" d="M671.6,641.7l-0.1,1c-1.5,11.8-4.9,22.4-9.8,29.9c-1.3,2-1.3,7.3-3.1,10c-8,12.6-14.4,22.5-19.4,25.8
		c-0.9,0.6-2,1.4-3.3,2.3c-6.7,4.7-14.9,8.4-21.1,11.3c-2.3,8.1,0,27.4,3.4,39.6c1.5,8.3,5.6,21.6,8,26.5c-2.6,0.8,5.3,4.5,5.6,4.6
		c6,5.8,15.4,8.2,16.6,16.4c0.3,2.2,8.5,7.7,23.9,10.8c5.2,1,14.9,2.1,18.5,2.4c0.5,0,8.5-8.3,9-8.2c-1.5-1.5,2-12.1,2-14.2
		c0-2.2-2.7-8.5-2.9-11.9c-0.3-3.9-0.3-16-0.3-19.3c0-3.8-5.4-45.1-1-60.3c1.7-6.3-0.3-12,0.7-18.4c1.6-9.2,2.6-14.5,4.7-17.3
		c2.1-2.9,4.9-5.2,8.2-6.6C695.6,661.1,679.8,648.8,671.6,641.7z"/>
</g>
<g id="2_Mutxamell" class="zone">
	<path class="st0" d="M611,577.6c-4.1,1.4-5.5,1.7-9.2,1.7c-3.3,0-6.8,0.8-11.1-1.9c-8.1-5.1-15.6-12.6-16-13l-2.8-1.6
		c-0.5-0.4-3.8-2.3-9.8-0.9c-8.5,1.9-21.7,5.6-23.2,6.1c-2,0.8-11.4,0.8-27.6-1.9c-16.9-2.8-29.6-8.8-33.8-10.7
		c-4.8,0.4-25.4,0.7-34.1,1.6c-5.5,0.5-8.7,1.5-10.7,4.9c-1.1,1.8-1.1,4.4-2.4,6.1c-3.3,4.4-0.8,7.2,0.3,9.3
		c0.4,0.8-1.1,2.7-0.8,3.5c0.5,1.6,1.3,9.5,4.7,16.8c2.5,5.4,8.1,11.1,9.7,14.8c3.4,7.6,17.5,20.8,29.4,23.5
		c8.5,4.6,20.7,11.6,26.4,15.9c1,0.7,4.6,0.5,4.9,0.6c3.3,1.8,28.3,25.2,35.2,33.2c3.4,3.8,6.7,10,12.6,14.8c6,4.9,12.7,9.3,15.9,13
		c2.8,3.3,11.2,4.2,15.5,4.5h21c6.4,0,19.9-9.4,26.3-13.9c1.4-1,2.5-1.8,3.5-2.4c3.9-2.6,13.3-9.6,18.5-17.9
		c1.8-2.8,8.4-11.4,9.8-13.5c3.9-5.9,3.6-17.6,4.9-28c0.5-3.8,2.1-8.6,2.6-11.5c2-10.8-3.4-29.9-4.2-33.1c-1.8-8.2,0.2-13.8,0-22.2
		c0-0.7-4.6-3.4-5.1-3.8c-0.6-0.5-6.6-3.6-15.8-1.1c-9.7,2.7-20,4.6-24.4,4.4c-1.9,1.1-4.3,0.3-6.3,1
		C614.1,576.3,611,577.6,611,577.6z"/>
</g>
<g id="2_Busot_-_Aigues_-_Jijona" class="zone">
	<path class="st0" d="M431.9,518.3c4.3,1.6,7.3,5,11.2,6.1c8,2.3,17.5,12.3,22,16.7c3.3,3.3,13.3,7.1,15,8.4
		c2.9,1.3,16.8,10.8,33.3,13.6c13.9,2.3,15.8,1.5,18.8,2.3l6.2-1.3l12.6-4c0.6-0.2,2.4-0.5,11.8-2.6c10-2.2,12.2,0.7,13.4,1.8
		c1.1,0.9,8.6,7.9,15.8,12.4c5.8,3.6,11.6,3.2,18.9,0.7c0.6-0.2,4.4-1.8,5.1-2c6.7-2.2,13.9-11.3,17.3-14.4l0.2-0.2
		c1.7-1.4,42.2-33.2,51.3-39.2c6.9-4.6,10.7-9.2,11.6-14.9l4.2-9.7c1.1-6.8,1.2-8.3,9.6-18.9c8-10,13-8.7,19.4-9.6
		c0.9-0.1,5.6-1.5,6.3-1.7c2.7-0.5,2.2,0.4,4.3,2.2c3.8,3.2,4.3,5.3,4.3,10c0,1.6-0.7,3.5-1,5.1c-0.2,1.1,1.3,2.6,1.6,3.7
		c0.1,0.5-0.7,2.2-0.6,2.6c0.1,0.9,4,2.4,4.3,3.2c0,0,4.8,0.9,7.6,0.5c6.3-0.8,8.3-4.2,8.5-4.3l68.1-65.6c-1.5-4-3.6-5.5-3.1-8.4
		c0.3-1.2-1.5-5-1.5-6.3c-0.2-1-0.8-6-1.1-8.1c-0.9-5.8-0.1-26,0.1-31.8c0-11.3,1.4-22.6-4.1-29.5c-5.1-6.3-11.7-8.8-14-9.2
		c-3.6-0.6-11-1.2-15.5-0.7c-2.4,0.3-7.7-0.8-8.8-0.8c-3.7,0-12.4-3.5-13.9-8.5l-2.1-6c0.4-6.8,3.7-16,8.8-21.4
		c6.2-5.6,18.4-11.3,25.6-17.1c5.6-4.5,10.1-11.1,11.8-12.7c3.6-3.6,8.6-19.4,7.2-24.5c-2.4-8.6-10.9-21.9-13.7-22.4
		c-2.4-0.5-3.3-3.8-5.4-5.1c-2.7-1.5-7,2.1-11.3,3.1c-8.1,1.8-16.8,2.2-24.9-7.3c-2-2.5-3.7-5.2-4.9-8.1c-1.8-4-2.8-6.2-8.1-7.6
		c-6.1-1.7-29.7-19.9-36.1-29.8c-0.3-4.2-2.6-7.3-3.1-10.5c-1-7,1-13.1,3.2-23.4c1.9-9.1-9.8-18.4-14.7-21.1l-3.5-2.8
		c-0.1-0.1-11.3-4.1-32.3-1.3c-21.8,2.8-64.5,21.5-64.9,21.7l-0.3,0.1c-0.8,0.3-76.7,27.1-95,37.9c-1.3,1.2-10.5,7-11.7,8.2
		c-14.8,13.8-19.4,20.9-25.6,50.1c-6.6,31.3-11.7,65.8-14,92.7c0,2.6,2.2,21.8,4.9,33.4c3.6,15.6,3.9,25.3,0.8,33.3
		c-1.6,3.8-3.5,7.4-5.8,10.8c-3.2,5.2-6.5,10.6-7,15.2c-0.9,8.3,0.9,31.2,2,42.2c0,0.3,2.6,33.1-3,39.1c-0.8,1.2-3.1,6.8-4.8,11.2
		C438.9,504.5,435.4,513,431.9,518.3z"/>
</g>
<g id="2_San_Vicente_del_Raspeig" class="zone">
	<path class="st0" d="M373.7,538.7c3.3,9.7,7.7,21,10.1,23.5c0.9,0.9,1.8,1.7,2.8,2.4c4.8,3.8,11.3,8.9,10.3,24.7
		c-0.3,4.5-0.7,8.7-1,12.7c-1,10.7-1.8,19.1,0.8,25.6c0.8,1.9,1.7,4.1,2.7,6.6c4.5,10.7,10.7,25.3,11.5,35.6
		c0.1,1.7,0.3,3.4,0.5,4.9c0.6,5.9,1.1,11.1,0.2,17.3l-0.6,2c0,0.2,2.5,17.5,22.9,35.1c2.9,2.5,5,6.3,7.3,8.3
		c14.8,12.9,17.6,14.5,28.9,17.7c3,0.9,6.2,1.6,8.4,2.3c8.2,2.6,11.7,3.9,19.3,1.9c7.8-2.1,19.4-10.4,22.9-14.9
		c1.3-2.3,10.2-20.1,23.2-22.3c2.1-0.4,3.5-2.6,5.3-2.9c5.7-1.1,11.4-1.9,17.2-2.2c-2.9-3.1-8.1-7.4-13.1-11.6
		c-6.1-5.1-12.4-12.5-16.2-16.8c-6.6-7.5-30-27.8-33-29.7c-1.2-0.7-5.2-0.7-6.3-1.6c-5.3-3.9-17.3-11.9-24.6-16.6
		c-11.4-6.9-26.4-18.7-32.6-26.6c-1.6-3.6-5.3-7.6-7.8-13c-4.8-10.4-4.5-14.5-5.1-16.4c-0.2-0.4-1-5.5-1.2-5.9
		c-1-3.8-1.3-8.1-0.5-14.2c1.1-1.5,2.2-3.1,3.2-4.7c3.1-5,5-7,13.6-7.9c5.9-0.6,17-1.5,25.1-2.2c-2.1-1.7-4.1-3.5-5.6-5
		c-3.4-3.4-14.8-15.9-20.8-17.6c-5.6-1.6-11.6-3.7-15.4-5.2c-8.7,4.4-29.7,13.9-40.3,15.9C381.7,538.6,377.7,538.8,373.7,538.7z"/>
</g>
<g id="2_Barriadas_de_Alicante" class="zone">
	<path class="st0" d="M248.8,830.4c5.7,2.9,25.5,13.2,39.9,26.6c3.8,3.6,11.3,10,20.2,17.4c4.5-4.4,15.9-15.3,21.3-18
		c6.8-3.4,17.6-10.9,20.2-16.2c2.2-4.5,1.7-8.2-0.2-13.9c-1.1-3.2,0.2-5.2-0.4-5.8c-1.4-1.5-2-3.2-4.1-8.5
		c-4.3-10.8-11.6-23-13.7-25.1c-4.3-4.3,0-9.6,0-17.8c2.9-6.8,7.9-11.7,14.9-14.4c2-0.8,4.7-1,6.1-1.7c3.5-1.8,15.1-5.7,23.3-11.2
		c5-3.3,8.8-7.3,10.8-10.3c5.1-3.2,6.3-10.3,9.8-19.8c1-2.7,2.1-5.8,3.5-9.1c4.8-11.9,4.1-18,3.2-27.1c-0.2-1.6-0.3-3.3-0.5-5.1
		c-0.8-9.1-6.6-23-10.9-33.1c-1-2.4-2-4.7-2.8-6.7c-3.3-8.3-2.4-18-1.3-29.3c0.4-3.9,0.8-8,1-12.4c0.7-11.6-3-14.5-7.3-17.9
		c-1.2-0.9-2.4-2-3.5-3c-4.6-4.7-10.6-22-13.1-29.7c-7.1-0.7-14.2-2.3-20.8-5c7.5,12.8,14.6,25.2,15.6,28.7c0.3,1.1,0.7,2.1,1.1,3.3
		c2,5.8,2.2,11.2-3.6,21.9c-5.2,9.6-10.7,9.7-15.2,12.4c-1.1,0.7-1,7.2-1.7,7.7c-3.2,2.4-9.5,6-12.1,13s-2.6,17.7,0,24.6
		c1,2.7,6,5.3,8.1,7c2.8,2.2,4.6,3.5,4.6,9.2c0.1,1.7,4.2,3.4,4.5,5.1c0.9,5.8,2,12.9-2.9,23.5c-4.4,9.5-6.7,11.3-11.7,13.5
		c-2,0.9-3.9,1.9-5.8,3.1c-6.8,4.5-23,13.3-34.7,15.7c-10.1,2-36.2,5.9-37.2,6c-5.4,0.5-19.6,2-25.5,3.4c1.2,4.5,1.6,9.2,1.2,13.9
		c-0.4,5.3-1.4,10.6-3.2,15.7c-1.4,4.6-2.3,7.4-1,11.9c0.8,2.5,1.8,5,3,7.3c2.4,4.9,4.9,9.9,4.1,21.1
		C231.1,814.4,244.1,828.1,248.8,830.4z"/>
</g>
<g id="2_Agost" class="zone">
	<path class="st0" d="M229.3,578.2l-0.4,0.7l-0.7,0.4c-4.7,3-9.9,5.2-15.2,6.6c-8,2-30.2,6.8-31.1,7l-0.6,0.1
		c-3.1,0.2-12.9,1.9-16,6.3c-6.7,9.3-10.9,18.8-10.3,23.1c0.3,2,0.4,4.6,0.6,7.6c0.3,7,0.9,18.8,4.3,22.1l25,25
		c1,1,26.3,25.4,32.5,34.6c0.6,0.9,1.2,1.7,1.7,2.6c2.2,3,4.2,8.8,5.9,12.1c7.3-1.9,26-3.5,28.2-3.7c0.5,2.8,25.5-1.4,35.2-3.3
		c7.1-1.4,20.5-6.8,33.8-15.7c2.2-1.5,6.6-4.1,9-5.2c3.1-1.4,4-6.5,7.6-14.2c3.9-8.4,4.9-12.3,4.1-17.4c-0.4-2.1-5.8-3.9-5.8-6
		c0-1.6-0.6-6.5-3.2-8.5c-2.4-1.9-3.7-5.9-5.5-10.7c-3.1-8.3-4.6-8.7-1-18.1c3-7.9,4.1-16.8,9.1-20.6c1-0.7,4.7-3.9,5.9-4.7
		c4.2-2.6,7.5-5.5,11.8-13.2c4.2-7.6,1.9-13.2,0-18.6c-0.4-1.2,0.4-5.2,0-6.5c-1.3-4.6-22-32.3-34.4-52.3
		c-6.2-9.3-11.1-18.1-12.1-19.9l-9.2-17.4c-0.3-0.4-1.9-2.2-6.9-1.6c-3.7,0.4-5.3,2.8-7.2,5.5c-1.5,2.2-3.2,4.7-6.2,5.4
		c-4.3,1.1-11.8,1.1-12.9,1.1c-0.3,0.4-1.1,2-1.1,6c0.1,3.8,0.4,7.5,0.9,11.2c0.9,8.4,1.9,17.2-1.3,23.6c-1.3,2.9-2.3,5.9-3.2,8.9
		c-2.8,8.8-6.2,19.8-14.5,28.1C239.8,564.8,234.2,571.3,229.3,578.2z"/>
</g>
<g id="2_Alicante" class="zone">
	<path class="st0" d="M601.4,801.9c1.8-1.9,10.6-10.3,20.9-12.7c-3-6.5-7.8-17.7-9.2-25.5c-1.5-8.5-2.7-31.6-3.7-40.9
		c-1.1,0.2-3.8-0.8-4.9-0.8l-17.8-0.1c-2.6-0.1-6.4-1.9-8.8-2.8c-13.6,0.3-19.9,5.5-27.6,6.9c-1.8,0.3-3.8,0.7-6,1.1
		c-8.3,1.4-15.2,8.4-17.5,12.4l-1.9,3.8c-1.4,1.8-13.2,18.2-25.1,21.5c-3,0.9-6,0.9-9.1,0.9c-4.8,0-8.1-1-13.7-2.7
		c-2.2-0.7-5.9-2.1-8.7-2.9c-13-3.7-16.1-5.1-31.3-18.3c-2.3-2-2.6-6-5.5-8.5c-12.1-10.4-20.2-22.4-23.5-30.6c-1.3,3.2-4,8-5,10.8
		c-3.9,10.7-10.3,18.6-13.5,22.9c-2.9,1.8-7.1,5.9-12,9.2c-8.8,5.9-17.7,10.1-21.7,12.1c-1.7,0.9-5.4,1.6-7.6,2.5
		c-5.3,2-12.9,5.5-14.5,9.2s-3.4,10.5-1.3,12.6c3.7,3.7,9.2,16.5,13.1,26.4c1.8,4.4,7.5,7.4,8.2,8.2c1.3,1.4,2.3,2.7,3.8,7.2
		c2,6,3.6,12.4-0.2,20.1c-4.3,8.6-18.6,17.2-23.8,19.8c-3.5,1.7-12.5,10-18.7,16c21.4,17.8,44.8,41.8,46.9,43.4
		c14.7,10,58.5,34.9,71,38.1c7.9,2,30.9,6,39.8-0.5c2.1-1.5,3.1-3.7,3.3-6.7c1-20.1,9.7-56.2,10.1-57.7v-0.1
		c1.7-6.2,12.4-24.2,15.9-27s10.7-1,13.3,1c0.6,0.5,1.2,0.9,1.9,1.2c0.9-0.6,2.2-3.1,2.9-5.3l0.2-0.4c0.2-0.4,4.2-9.4,14.7-9.4
		c1,0.1,1.9-0.2,2.6-0.8c1.4-1.4,1.4-5,1.4-6.6v-0.5c0-6.9,13.1-13.5,13.2-13.6C554.9,833.1,583.7,813.9,601.4,801.9z"/>
</g>
<g id="_Strokes">
	<path class="st1" d="M815.8,327.8c-7-4.5-15.6-2.7-24.9-2.6c-7.3,0.1-17.6-3.2-20.1-11c-4.5-14.1,8.4-25.5,13.6-28.6
		c9.6-5.8,22.8-13.3,34.4-29.3c3.6-5,5-11,4.1-23.3c-0.8-10.6-7-20.7-14.2-25.3c-3.9-2.5-8.8-3.7-17.8-1.7s-14.7,0.7-21-6
		c-4.7-5-7.2-12.4-15-17c-9.8-5.8-30-12.9-35-26c-3.6-9.3-3.4-18.9-1-33c2.9-16.7-17-25-17-25s-12-8-35-5c-22.6,2.9-66,22-66,22
		s-79.6,32.9-96,43c-15.5,9.5-25.2,23.7-35,57c-9.7,33.1-15,73.2-16,92c-1.4,25.6,14.7,36,9.7,58.7c-3.6,16-11.8,19.9-14.5,33.5
		c-4.5,22.8,1.9,45.7,2.7,65.4c0.4,10.2-3.8,36.2-26.9,54.4c-14.6,11.5-31.1,13.1-40,14c-11.1,1.1-31.4,3.3-48.4-8.3
		c-14-9.5-24.2-24.9-29.1-37.7c-5.5-14.4-6.5-24.1-18.1-22.3c-9.3,1.4-5.4,10.5-21.9,15.3c-11.3,3.3-2,23-2.7,37.7
		c-1.4,28.6-23.6,51.6-45.2,61.6c-16.1,7.5-26.4,5.7-38.6,8.7s-29.1,13.5-30,34s22.3,48.5,31,57s19.8,19.2,32,34
		c3.3,4,7.5,9.6,9.8,17.8c1.1,3.7,1.6,8,1.2,13.2c-1,15-7,19-4,29s8,12,7,27s13,30,19,33s25,13,39,26s61.5,51.1,76,63s53,36,69,40
		c13.7,3.4,39,9,46.7-1.9c1.7-2.4,2-4.8,2.3-7.1c2.4-19.6,4.4-32.6,6-41.3c1.2-6.6,1.5-9.9,2.5-13.4c2.3-8.5,2.8-24,14.3-29.5
		c5.1-2.5,12.5,1.4,16.9,0c4.6-1.5,5.9-10.5,13.9-11.4c5.8-0.6,5.8-7.9,9.7-13.1c3.2-4.2,28-19.7,32.8-22.7
		c4.8-2.9,20.1-12.7,27.5-18.2c7.2-5.4,14.2-13.5,27.3-11.4c6.9,1.1,13.3,7.1,15,14c2.2,8.8,14.6,11.1,25.9,14.2
		c11.9,3.3,22.5,1.7,25.7-2.9c8.9-12.7,1.6-25.4-0.3-53c-1.1-15.9-1.6-39-1.1-53.7c0.3-8.8,1.5-25.4,9.9-36.6c3-4,7-7,14-6s6-3,6-13
		s6-29,19-44s25-23,39-30s41-24,60-42s41.3-28.7,49-37c8.2-8.9,12.2-19.2,10-35c-2.3-16.8-12.8-26.8-23.8-29.6
		c-26.7-6.9-34.9-6.7-45.1-19.1c-5.5-6.7-8.3-22.4-7.1-45.9C828.5,344.9,827.2,335.2,815.8,327.8z"/>
	<path class="st1" d="M833.1,419.4c0,0-42.9,41.8-53.9,53s-23.2,23.4-31.8,18.2c-6.4-3.9-3.7-11.3-3.3-16.6c0.2-3-0.3-6.4-2.6-8.7
		c-1.9-1.9-4.4-2.3-5.7-2.4c-9.5-1.2-18.5,4.8-23.7,10.1c-13.6,13.6-11.9,34.8-23.1,45.4c-8.6,8.2-31,17.8-52.9,40.6
		c-2.1,2.2-8.1,8.7-18.1,13.3c-6,2.8-11,5.1-17.2,4.7c-14.9-1.1-17.6-17.4-32.8-18.5c-5.5-0.4-10.8,1.3-17.2,3.5
		c-7.3,2.4-11.3,5.1-19.1,5.5c-2.2,0.1-4.2-0.1-8.2-0.4c-9.2-0.8-16.1-2.5-17.5-2.8c-5.5-1.3-13.2-3.2-21.5-7.6
		c-8.7-4.7-14.8-10.3-19.2-14.5c-3.9-3.7-10-10-20-15l0,0c-6.8-3.4-13.5-5.7-20-7"/>
	<path class="st1" d="M334,523.8c0,0,20,32.2,22,39.2s7.3,13.8,0,24c-5.4,7.6-14,14-18,17s-9.8,7.8-11.5,16.2
		c-2.1,10.6-2.4,18.4,1.5,23.9c5,7,9.5,10.3,13,16.9c3.8,7.3,4,14-2,27s-13.9,17-22.9,22.1c-9.4,5.3-22,8.3-32,10.3S253,724,253,724
		s-22,2-28,4"/>
	<path class="st1" d="M368,534c0,0,8,26,13,31s13,7,12,24s-4,30,0,40s13,29,14,41s3,19-3,34s-9.3,23.4-16,30c-6,6-24.1,19-34,22
		c-6.4,1.9-19,6-22,13s-1.8,11.2,0,15c2.8,5.9,7.3,14.3,10.9,19.8c4.2,6.5,8.4,13,11.1,21.2c2,6,3,11,0,17c-3.5,7-16,15-22,18
		s-22,19-22,19"/>
	<path class="st1" d="M614,574c10.2-1.5,19.1-2.6,31.2-5.2c11.2-2.3,18.3,1.3,20.8,5.2c4,6.2,3.3,19.7,4,26.9
		c0.7,6.9,0.9,20.1,0.5,31.3c-0.3,8.4-5.9,28.6-10.6,40.9c-5.2,13.9-15.3,24.9-20.6,29.7c-7.3,6.6-19.1,15-32.2,17.7
		c-22.7,4.6-31.3-2.4-37.1-5.4c-9.6-4.9-10.6-8.3-30-27c-16.6-16-24.8-24-37-32c-13.2-8.8-14.2-6.6-30-17c-12.7-8.3-21.5-14.2-30-25
		c-11.8-14.8-14.3-27.8-15-33c-0.8-6-2-15.3,3.5-20.8c3.2-3.2,7.3-3.7,11.5-4.2c9-1.1,20.8-2.2,35-3"/>
	<path class="st1" d="M668.7,633.6c0,0,32.3,31.4,55.3,30.4"/>
	<path class="st1" d="M611.8,720.4c-1.5,14.2,1.1,30.8,4,42.6c4.2,16.9,12.5,29.7,12.5,29.7"/>
	<path class="st1" d="M407,694c0,0,5.6,16.3,25,38c10,11.3,24.1,21.7,38,26c8.3,2.5,19.5,7.5,31.1,3.3c10.7-3.9,17.7-10.8,21.9-19.3
		c4.9-9.7,12.3-15.8,24.1-18.5c13.6-3.1,24.8-5.5,28.5-5.5"/>
</g>
<g id="_texto" class="text">
	<g class="st2">
		<path class="st3" d="M630.1,202.6h-3.4v-2h9.1v2h-3.4v8.5h-2.4V202.6z"/>
	</g>
	<g class="st2">
		<path class="st3" d="M637.7,210.7c-0.7-0.4-1.2-0.8-1.6-1.5s-0.6-1.3-0.6-2.1c0-0.8,0.2-1.5,0.6-2.1s0.9-1.1,1.6-1.5
			c0.7-0.4,1.4-0.5,2.3-0.5c0.8,0,1.6,0.2,2.3,0.5c0.7,0.4,1.2,0.8,1.6,1.5s0.6,1.3,0.6,2.1c0,0.8-0.2,1.5-0.6,2.1s-0.9,1.1-1.6,1.5
			c-0.7,0.4-1.4,0.5-2.3,0.5C639.2,211.2,638.4,211,637.7,210.7z M641.5,208.7c0.4-0.4,0.6-0.9,0.6-1.6c0-0.7-0.2-1.2-0.6-1.6
			c-0.4-0.4-0.9-0.6-1.5-0.6c-0.6,0-1.1,0.2-1.5,0.6c-0.4,0.4-0.6,0.9-0.6,1.6c0,0.7,0.2,1.2,0.6,1.6c0.4,0.4,0.9,0.6,1.5,0.6
			C640.6,209.3,641.1,209.1,641.5,208.7z"/>
	</g>
	<g class="st2">
		<path class="st3" d="M649.4,203.2c0.5-0.2,1-0.3,1.6-0.3v2.2c-0.3,0-0.4,0-0.5,0c-0.7,0-1.2,0.2-1.6,0.6c-0.4,0.4-0.6,0.9-0.6,1.7
			v3.8H646V203h2.2v1.1C648.5,203.7,648.9,203.4,649.4,203.2z"/>
	</g>
	<g class="st2">
		<path class="st3" d="M655.8,203.2c0.5-0.2,1-0.3,1.6-0.3v2.2c-0.3,0-0.4,0-0.5,0c-0.7,0-1.2,0.2-1.6,0.6c-0.4,0.4-0.6,0.9-0.6,1.7
			v3.8h-2.3V203h2.2v1.1C654.9,203.7,655.3,203.4,655.8,203.2z"/>
	</g>
	<g class="st2">
		<path class="st3" d="M666.6,207.7h-6.1c0.1,0.5,0.4,0.9,0.8,1.2c0.4,0.3,0.9,0.4,1.5,0.4c0.4,0,0.8-0.1,1.1-0.2
			c0.3-0.1,0.6-0.3,0.9-0.6l1.2,1.4c-0.8,0.9-1.9,1.3-3.3,1.3c-0.9,0-1.7-0.2-2.4-0.5c-0.7-0.4-1.2-0.8-1.6-1.5s-0.6-1.3-0.6-2.1
			c0-0.8,0.2-1.5,0.6-2.1c0.4-0.6,0.9-1.1,1.5-1.5c0.7-0.4,1.4-0.5,2.2-0.5c0.8,0,1.5,0.2,2.1,0.5s1.1,0.8,1.5,1.5
			c0.4,0.6,0.5,1.4,0.5,2.2C666.6,207.1,666.6,207.3,666.6,207.7z M661.1,205.1c-0.4,0.3-0.6,0.7-0.7,1.2h4
			c-0.1-0.5-0.3-0.9-0.7-1.2c-0.4-0.3-0.8-0.5-1.3-0.5C661.9,204.7,661.5,204.8,661.1,205.1z"/>
		<path class="st3" d="M680.9,203.8c0.6,0.6,0.9,1.5,0.9,2.7v4.6h-2.3v-4.3c0-0.6-0.1-1.1-0.4-1.4c-0.3-0.3-0.6-0.5-1.1-0.5
			c-0.5,0-1,0.2-1.3,0.5c-0.3,0.4-0.5,0.9-0.5,1.6v4h-2.3v-4.3c0-1.3-0.5-1.9-1.5-1.9c-0.5,0-1,0.2-1.3,0.5
			c-0.3,0.4-0.5,0.9-0.5,1.6v4h-2.3V203h2.2v0.9c0.3-0.3,0.7-0.6,1.1-0.8c0.4-0.2,0.9-0.3,1.4-0.3c0.6,0,1.1,0.1,1.5,0.3
			s0.8,0.6,1.1,1c0.3-0.4,0.7-0.7,1.3-1c0.5-0.2,1.1-0.3,1.7-0.3C679.6,202.9,680.4,203.2,680.9,203.8z"/>
		<path class="st3" d="M690.1,203.8c0.7,0.6,1,1.5,1,2.7v4.6h-2.2v-1c-0.4,0.8-1.3,1.1-2.5,1.1c-0.6,0-1.2-0.1-1.6-0.3
			s-0.8-0.5-1-0.9c-0.2-0.4-0.4-0.8-0.4-1.3c0-0.8,0.3-1.3,0.8-1.8c0.6-0.4,1.4-0.6,2.6-0.6h1.9c0-0.5-0.2-0.9-0.5-1.2
			c-0.3-0.3-0.8-0.4-1.4-0.4c-0.4,0-0.9,0.1-1.3,0.2c-0.4,0.1-0.8,0.3-1.1,0.5l-0.8-1.6c0.4-0.3,1-0.5,1.6-0.7s1.2-0.3,1.9-0.3
			C688.4,202.9,689.4,203.2,690.1,203.8z M688.1,209.4c0.3-0.2,0.5-0.5,0.7-0.8v-0.8h-1.6c-1,0-1.4,0.3-1.4,0.9
			c0,0.3,0.1,0.5,0.4,0.7c0.2,0.2,0.6,0.3,1,0.3C687.4,209.6,687.8,209.6,688.1,209.4z"/>
		<path class="st3" d="M700.5,203.8c0.6,0.6,0.9,1.5,0.9,2.7v4.6h-2.3v-4.3c0-0.6-0.1-1.1-0.4-1.4c-0.3-0.3-0.7-0.5-1.2-0.5
			c-0.6,0-1.1,0.2-1.4,0.5c-0.4,0.4-0.5,0.9-0.5,1.6v4h-2.3V203h2.2v0.9c0.3-0.3,0.7-0.6,1.2-0.8c0.5-0.2,1-0.3,1.5-0.3
			C699.1,202.9,699.9,203.2,700.5,203.8z"/>
		<path class="st3" d="M710.2,209.3v1.8H703v-1.4l4.1-4.9h-4V203h7v1.4l-4.1,4.9H710.2z"/>
		<path class="st3" d="M717.8,203.8c0.7,0.6,1,1.5,1,2.7v4.6h-2.2v-1c-0.4,0.8-1.3,1.1-2.5,1.1c-0.6,0-1.2-0.1-1.6-0.3
			s-0.8-0.5-1-0.9c-0.2-0.4-0.4-0.8-0.4-1.3c0-0.8,0.3-1.3,0.8-1.8c0.6-0.4,1.4-0.6,2.6-0.6h1.9c0-0.5-0.2-0.9-0.5-1.2
			c-0.3-0.3-0.8-0.4-1.4-0.4c-0.4,0-0.9,0.1-1.3,0.2c-0.4,0.1-0.8,0.3-1.1,0.5l-0.8-1.6c0.4-0.3,1-0.5,1.6-0.7s1.2-0.3,1.9-0.3
			C716.2,202.9,717.2,203.2,717.8,203.8z M715.8,209.4c0.3-0.2,0.5-0.5,0.7-0.8v-0.8h-1.6c-1,0-1.4,0.3-1.4,0.9
			c0,0.3,0.1,0.5,0.4,0.7c0.2,0.2,0.6,0.3,1,0.3C715.2,209.6,715.5,209.6,715.8,209.4z"/>
		<path class="st3" d="M728.3,203.8c0.6,0.6,0.9,1.5,0.9,2.7v4.6h-2.3v-4.3c0-0.6-0.1-1.1-0.4-1.4c-0.3-0.3-0.7-0.5-1.2-0.5
			c-0.6,0-1.1,0.2-1.4,0.5c-0.4,0.4-0.5,0.9-0.5,1.6v4H721V203h2.2v0.9c0.3-0.3,0.7-0.6,1.2-0.8c0.5-0.2,1-0.3,1.5-0.3
			C726.9,202.9,727.7,203.2,728.3,203.8z"/>
		<path class="st3" d="M737.5,203.8c0.7,0.6,1,1.5,1,2.7v4.6h-2.2v-1c-0.4,0.8-1.3,1.1-2.5,1.1c-0.6,0-1.2-0.1-1.6-0.3
			s-0.8-0.5-1-0.9c-0.2-0.4-0.4-0.8-0.4-1.3c0-0.8,0.3-1.3,0.8-1.8c0.6-0.4,1.4-0.6,2.6-0.6h1.9c0-0.5-0.2-0.9-0.5-1.2
			c-0.3-0.3-0.8-0.4-1.4-0.4c-0.4,0-0.9,0.1-1.3,0.2c-0.4,0.1-0.8,0.3-1.1,0.5l-0.8-1.6c0.4-0.3,1-0.5,1.6-0.7s1.2-0.3,1.9-0.3
			C735.8,202.9,736.8,203.2,737.5,203.8z M735.5,209.4c0.3-0.2,0.5-0.5,0.7-0.8v-0.8h-1.6c-1,0-1.4,0.3-1.4,0.9
			c0,0.3,0.1,0.5,0.4,0.7c0.2,0.2,0.6,0.3,1,0.3C734.8,209.6,735.2,209.6,735.5,209.4z"/>
		<path class="st3" d="M741.3,211c-0.6-0.2-1.2-0.4-1.5-0.6l0.8-1.7c0.4,0.2,0.8,0.4,1.3,0.6c0.5,0.1,1,0.2,1.5,0.2
			c1,0,1.5-0.2,1.5-0.7c0-0.2-0.1-0.4-0.4-0.5c-0.3-0.1-0.7-0.2-1.2-0.3c-0.7-0.1-1.2-0.2-1.6-0.3c-0.4-0.1-0.8-0.4-1.1-0.7
			s-0.5-0.8-0.5-1.4c0-0.5,0.1-1,0.4-1.4c0.3-0.4,0.7-0.7,1.3-0.9c0.6-0.2,1.2-0.3,2-0.3c0.6,0,1.1,0.1,1.7,0.2
			c0.6,0.1,1,0.3,1.4,0.5l-0.8,1.7c-0.7-0.4-1.5-0.6-2.3-0.6c-0.5,0-0.9,0.1-1.1,0.2s-0.4,0.3-0.4,0.5c0,0.3,0.1,0.4,0.4,0.5
			c0.3,0.1,0.7,0.2,1.3,0.3c0.7,0.1,1.2,0.2,1.6,0.4s0.8,0.4,1.1,0.7c0.3,0.3,0.5,0.8,0.5,1.4c0,0.5-0.2,0.9-0.5,1.3
			c-0.3,0.4-0.7,0.7-1.3,0.9s-1.3,0.3-2,0.3C742.6,211.2,742,211.1,741.3,211z"/>
	</g>
	<g class="st2">
		<path class="st3" d="M516.3,363.4c-0.6-0.3-1.1-0.6-1.5-1.1l1.3-1.6c0.6,0.8,1.2,1.2,2,1.2c1,0,1.5-0.6,1.5-1.7v-5H516v-2h6.1v6.8
			c0,1.3-0.3,2.3-1,2.9c-0.6,0.6-1.6,1-2.8,1C517.6,363.8,516.9,363.7,516.3,363.4z"/>
		<path class="st3" d="M524.4,354c-0.3-0.3-0.4-0.6-0.4-0.9s0.1-0.7,0.4-0.9c0.3-0.3,0.6-0.4,1-0.4s0.8,0.1,1,0.4
			c0.3,0.2,0.4,0.5,0.4,0.9c0,0.4-0.1,0.7-0.4,1c-0.3,0.3-0.6,0.4-1,0.4S524.7,354.3,524.4,354z M524.3,355.5h2.3v8.1h-2.3V355.5z"
			/>
		<path class="st3" d="M526.3,366.2l0.6-1.7c0.3,0.2,0.6,0.3,1,0.3c0.3,0,0.5-0.1,0.7-0.3c0.2-0.2,0.3-0.5,0.3-0.9v-8.1h2.3v8.1
			c0,0.9-0.3,1.7-0.8,2.2c-0.5,0.5-1.3,0.8-2.2,0.8C527.4,366.6,526.8,366.5,526.3,366.2z M529,354c-0.3-0.3-0.4-0.6-0.4-0.9
			s0.1-0.7,0.4-0.9c0.3-0.3,0.6-0.4,1-0.4s0.8,0.1,1,0.4c0.3,0.2,0.4,0.5,0.4,0.9c0,0.4-0.1,0.7-0.4,1c-0.3,0.3-0.6,0.4-1,0.4
			S529.3,354.3,529,354z"/>
		<path class="st3" d="M535,363.2c-0.7-0.4-1.2-0.8-1.6-1.5s-0.6-1.3-0.6-2.1c0-0.8,0.2-1.5,0.6-2.1s0.9-1.1,1.6-1.5
			c0.7-0.4,1.4-0.5,2.3-0.5c0.8,0,1.6,0.2,2.3,0.5c0.7,0.4,1.2,0.8,1.6,1.5s0.6,1.3,0.6,2.1c0,0.8-0.2,1.5-0.6,2.1s-0.9,1.1-1.6,1.5
			c-0.7,0.4-1.4,0.5-2.3,0.5C536.4,363.7,535.6,363.5,535,363.2z M538.7,361.2c0.4-0.4,0.6-0.9,0.6-1.6c0-0.7-0.2-1.2-0.6-1.6
			c-0.4-0.4-0.9-0.6-1.5-0.6c-0.6,0-1.1,0.2-1.5,0.6c-0.4,0.4-0.6,0.9-0.6,1.6c0,0.7,0.2,1.2,0.6,1.6c0.4,0.4,0.9,0.6,1.5,0.6
			C537.9,361.8,538.3,361.6,538.7,361.2z"/>
		<path class="st3" d="M550.6,356.3c0.6,0.6,0.9,1.5,0.9,2.7v4.6h-2.3v-4.3c0-0.6-0.1-1.1-0.4-1.4c-0.3-0.3-0.7-0.5-1.2-0.5
			c-0.6,0-1.1,0.2-1.4,0.5c-0.3,0.4-0.5,0.9-0.5,1.6v4h-2.3v-8.1h2.2v0.9c0.3-0.3,0.7-0.6,1.2-0.8c0.5-0.2,1-0.3,1.5-0.3
			C549.1,355.4,550,355.7,550.6,356.3z"/>
		<path class="st3" d="M559.7,356.3c0.7,0.6,1,1.5,1,2.7v4.6h-2.2v-1c-0.4,0.8-1.3,1.1-2.5,1.1c-0.6,0-1.2-0.1-1.6-0.3
			s-0.8-0.5-1-0.9c-0.2-0.4-0.4-0.8-0.4-1.3c0-0.8,0.3-1.3,0.8-1.8c0.6-0.4,1.4-0.6,2.6-0.6h1.9c0-0.5-0.2-0.9-0.5-1.2
			c-0.3-0.3-0.8-0.4-1.4-0.4c-0.4,0-0.9,0.1-1.3,0.2c-0.4,0.1-0.8,0.3-1.1,0.5l-0.8-1.6c0.4-0.3,1-0.5,1.6-0.7s1.2-0.3,1.9-0.3
			C558.1,355.4,559.1,355.7,559.7,356.3z M557.7,361.9c0.3-0.2,0.5-0.5,0.7-0.8v-0.8h-1.6c-1,0-1.4,0.3-1.4,0.9
			c0,0.3,0.1,0.5,0.4,0.7c0.2,0.2,0.6,0.3,1,0.3C557.1,362.2,557.4,362.1,557.7,361.9z"/>
		<path class="st3" d="M570.5,351h2.1l-5,14.1h-2.1L570.5,351z"/>
	</g>
	<g class="st2">
		<path class="st3" d="M584,363.6l-2.5-3.6l-2.5,3.6h-2.8l3.9-5.3l-3.7-5.2h2.8l2.4,3.4l2.4-3.4h2.6l-3.7,5.1l3.9,5.4H584z"/>
	</g>
	<g class="st2">
		<path class="st3" d="M587.9,354c-0.3-0.3-0.4-0.6-0.4-0.9s0.1-0.7,0.4-0.9c0.3-0.3,0.6-0.4,1-0.4s0.8,0.1,1,0.4
			c0.3,0.2,0.4,0.5,0.4,0.9c0,0.4-0.1,0.7-0.4,1c-0.3,0.3-0.6,0.4-1,0.4S588.2,354.3,587.9,354z M587.8,355.5h2.3v8.1h-2.3V355.5z"
			/>
	</g>
	<g class="st2">
		<path class="st3" d="M597.4,363.6l-1.8-2.5l-1.8,2.5h-2.5l3.1-4.1l-3-4h2.6l1.7,2.4l1.8-2.4h2.5l-3,3.9l3.1,4.1H597.4z"/>
	</g>
	<g class="st2">
		<path class="st3" d="M602.5,363.2c-0.7-0.4-1.2-0.8-1.6-1.5s-0.6-1.3-0.6-2.1c0-0.8,0.2-1.5,0.6-2.1s0.9-1.1,1.6-1.5
			c0.7-0.4,1.4-0.5,2.3-0.5c0.9,0,1.6,0.2,2.3,0.5c0.7,0.4,1.2,0.8,1.6,1.5s0.6,1.3,0.6,2.1c0,0.8-0.2,1.5-0.6,2.1s-0.9,1.1-1.6,1.5
			c-0.7,0.4-1.4,0.5-2.3,0.5C604,363.7,603.2,363.5,602.5,363.2z M606.3,361.2c0.4-0.4,0.6-0.9,0.6-1.6c0-0.7-0.2-1.2-0.6-1.6
			c-0.4-0.4-0.9-0.6-1.5-0.6c-0.6,0-1.1,0.2-1.5,0.6c-0.4,0.4-0.6,0.9-0.6,1.6c0,0.7,0.2,1.2,0.6,1.6c0.4,0.4,0.9,0.6,1.5,0.6
			C605.4,361.8,605.9,361.6,606.3,361.2z"/>
		<path class="st3" d="M618.1,356.3c0.6,0.6,0.9,1.5,0.9,2.7v4.6h-2.3v-4.3c0-0.6-0.1-1.1-0.4-1.4c-0.3-0.3-0.7-0.5-1.2-0.5
			c-0.6,0-1.1,0.2-1.4,0.5c-0.4,0.4-0.5,0.9-0.5,1.6v4h-2.3v-8.1h2.2v0.9c0.3-0.3,0.7-0.6,1.2-0.8c0.5-0.2,1-0.3,1.5-0.3
			C616.7,355.4,617.5,355.7,618.1,356.3z"/>
		<path class="st3" d="M627.3,356.3c0.7,0.6,1,1.5,1,2.7v4.6h-2.2v-1c-0.4,0.8-1.3,1.1-2.5,1.1c-0.6,0-1.2-0.1-1.6-0.3
			s-0.8-0.5-1-0.9c-0.2-0.4-0.4-0.8-0.4-1.3c0-0.8,0.3-1.3,0.8-1.8c0.6-0.4,1.4-0.6,2.6-0.6h1.9c0-0.5-0.2-0.9-0.5-1.2
			c-0.3-0.3-0.8-0.4-1.4-0.4c-0.4,0-0.9,0.1-1.3,0.2c-0.4,0.1-0.8,0.3-1.1,0.5l-0.8-1.6c0.4-0.3,1-0.5,1.6-0.7s1.2-0.3,1.9-0.3
			C625.7,355.4,626.6,355.7,627.3,356.3z M625.3,361.9c0.3-0.2,0.5-0.5,0.7-0.8v-0.8h-1.6c-1,0-1.4,0.3-1.4,0.9
			c0,0.3,0.1,0.5,0.4,0.7c0.2,0.2,0.6,0.3,1,0.3C624.6,362.2,625,362.1,625.3,361.9z"/>
	</g>
	<g class="st2">
		<path class="st3" d="M737.2,429.1h-4.9l-0.9,2.3h-2.5l4.7-10.5h2.4l4.7,10.5h-2.5L737.2,429.1z M736.4,427.3l-1.7-4l-1.7,4H736.4z
			"/>
		<path class="st3" d="M741.7,421.8c-0.3-0.3-0.4-0.6-0.4-0.9s0.1-0.7,0.4-0.9c0.3-0.3,0.6-0.4,1-0.4s0.8,0.1,1,0.4
			c0.3,0.2,0.4,0.5,0.4,0.9c0,0.4-0.1,0.7-0.4,1c-0.3,0.3-0.6,0.4-1,0.4S742,422.1,741.7,421.8z M741.6,423.3h2.3v8.1h-2.3V423.3z"
			/>
		<path class="st3" d="M754.4,423.3v6.7c0,1.5-0.4,2.6-1.2,3.3c-0.8,0.7-1.9,1.1-3.4,1.1c-0.8,0-1.5-0.1-2.2-0.3
			c-0.7-0.2-1.3-0.5-1.7-0.8l0.9-1.7c0.3,0.3,0.8,0.5,1.3,0.7c0.5,0.2,1,0.2,1.6,0.2c0.8,0,1.4-0.2,1.8-0.5s0.6-0.9,0.6-1.7V430
			c-0.6,0.7-1.5,1-2.5,1c-0.7,0-1.4-0.2-2-0.5c-0.6-0.3-1.1-0.8-1.5-1.4c-0.4-0.6-0.5-1.3-0.5-2c0-0.8,0.2-1.5,0.5-2
			c0.4-0.6,0.8-1,1.5-1.4s1.3-0.5,2-0.5c1.2,0,2.1,0.4,2.7,1.2v-1H754.4z M751.5,428.5c0.4-0.4,0.6-0.8,0.6-1.4s-0.2-1.1-0.6-1.4
			c-0.4-0.4-0.9-0.5-1.5-0.5s-1.1,0.2-1.5,0.5c-0.4,0.4-0.6,0.8-0.6,1.4s0.2,1.1,0.6,1.4c0.4,0.4,0.9,0.5,1.5,0.5
			S751.1,428.9,751.5,428.5z"/>
		<path class="st3" d="M764.7,423.3v8.1h-2.2v-1c-0.3,0.4-0.7,0.6-1.1,0.8c-0.4,0.2-0.9,0.3-1.4,0.3c-1.1,0-1.9-0.3-2.5-0.9
			s-0.9-1.5-0.9-2.7v-4.6h2.3v4.2c0,1.3,0.5,2,1.6,2c0.6,0,1-0.2,1.3-0.5s0.5-0.9,0.5-1.6v-4H764.7z M758.4,421.9
			c-0.2-0.2-0.3-0.4-0.3-0.7s0.1-0.5,0.3-0.7c0.2-0.2,0.5-0.3,0.8-0.3s0.5,0.1,0.7,0.3c0.2,0.2,0.3,0.4,0.3,0.7s-0.1,0.5-0.3,0.7
			c-0.2,0.2-0.4,0.3-0.7,0.3S758.6,422.1,758.4,421.9z M761.4,421.9c-0.2-0.2-0.3-0.4-0.3-0.7s0.1-0.5,0.3-0.7
			c0.2-0.2,0.4-0.3,0.7-0.3s0.5,0.1,0.8,0.3c0.2,0.2,0.3,0.4,0.3,0.7s-0.1,0.5-0.3,0.7s-0.5,0.3-0.8,0.3S761.6,422.1,761.4,421.9z"
			/>
		<path class="st3" d="M774.7,428h-6.1c0.1,0.5,0.4,0.9,0.8,1.2c0.4,0.3,0.9,0.4,1.5,0.4c0.4,0,0.8-0.1,1.1-0.2
			c0.3-0.1,0.6-0.3,0.9-0.6l1.2,1.4c-0.8,0.9-1.9,1.3-3.3,1.3c-0.9,0-1.7-0.2-2.4-0.5c-0.7-0.4-1.2-0.8-1.6-1.5s-0.6-1.3-0.6-2.1
			c0-0.8,0.2-1.5,0.6-2.1c0.4-0.6,0.9-1.1,1.5-1.5c0.7-0.4,1.4-0.5,2.2-0.5c0.8,0,1.5,0.2,2.1,0.5s1.1,0.8,1.5,1.5
			c0.4,0.6,0.5,1.4,0.5,2.2C774.8,427.4,774.8,427.6,774.7,428z M769.3,425.4c-0.4,0.3-0.6,0.7-0.7,1.2h4c-0.1-0.5-0.3-0.9-0.7-1.2
			c-0.4-0.3-0.8-0.5-1.3-0.5C770.1,425,769.6,425.1,769.3,425.4z"/>
		<path class="st3" d="M777.1,431.3c-0.6-0.2-1.2-0.4-1.5-0.6l0.8-1.7c0.4,0.2,0.8,0.4,1.3,0.6c0.5,0.1,1,0.2,1.5,0.2
			c1,0,1.5-0.2,1.5-0.7c0-0.2-0.1-0.4-0.4-0.5c-0.3-0.1-0.7-0.2-1.2-0.3c-0.7-0.1-1.2-0.2-1.6-0.3c-0.4-0.1-0.8-0.4-1.1-0.7
			c-0.3-0.3-0.5-0.8-0.5-1.4c0-0.5,0.1-1,0.4-1.4c0.3-0.4,0.7-0.7,1.3-0.9c0.6-0.2,1.2-0.3,2-0.3c0.6,0,1.1,0.1,1.7,0.2
			c0.6,0.1,1,0.3,1.4,0.5l-0.8,1.7c-0.7-0.4-1.5-0.6-2.3-0.6c-0.5,0-0.9,0.1-1.1,0.2s-0.4,0.3-0.4,0.5c0,0.3,0.1,0.4,0.4,0.5
			c0.3,0.1,0.7,0.2,1.3,0.3c0.7,0.1,1.2,0.2,1.6,0.4s0.8,0.4,1.1,0.7s0.5,0.8,0.5,1.4c0,0.5-0.1,0.9-0.5,1.3
			c-0.3,0.4-0.7,0.7-1.3,0.9c-0.6,0.2-1.3,0.3-2,0.3C778.4,431.5,777.7,431.4,777.1,431.3z"/>
	</g>
	<g class="st2">
		<path class="st3" d="M614,501c0.3,0.4,0.5,1,0.5,1.6c0,0.9-0.4,1.6-1.1,2.1s-1.8,0.7-3.1,0.7h-5.4V495h5.1c1.3,0,2.3,0.2,2.9,0.7
			c0.7,0.5,1,1.2,1,2c0,0.5-0.1,1-0.4,1.4c-0.2,0.4-0.6,0.7-1,0.9C613.2,500.3,613.7,500.6,614,501z M607.3,496.9v2.5h2.4
			c0.6,0,1.1-0.1,1.4-0.3c0.3-0.2,0.5-0.5,0.5-0.9c0-0.4-0.2-0.7-0.5-0.9c-0.3-0.2-0.8-0.3-1.4-0.3H607.3z M611.6,503.4
			c0.3-0.2,0.5-0.5,0.5-1c0-0.9-0.6-1.3-1.9-1.3h-2.8v2.6h2.8C610.8,503.7,611.3,503.6,611.6,503.4z"/>
		<path class="st3" d="M624.3,497.5v8.1h-2.2v-1c-0.3,0.4-0.7,0.6-1.1,0.8c-0.4,0.2-0.9,0.3-1.4,0.3c-1.1,0-1.9-0.3-2.5-0.9
			s-0.9-1.5-0.9-2.7v-4.6h2.3v4.2c0,1.3,0.5,2,1.6,2c0.6,0,1-0.2,1.3-0.5s0.5-0.9,0.5-1.6v-4H624.3z"/>
		<path class="st3" d="M627.3,505.4c-0.6-0.2-1.2-0.4-1.5-0.6l0.8-1.7c0.4,0.2,0.8,0.4,1.3,0.6c0.5,0.1,1,0.2,1.5,0.2
			c1,0,1.5-0.2,1.5-0.7c0-0.2-0.1-0.4-0.4-0.5c-0.3-0.1-0.7-0.2-1.2-0.3c-0.7-0.1-1.2-0.2-1.6-0.3c-0.4-0.1-0.8-0.4-1.1-0.7
			c-0.3-0.3-0.5-0.8-0.5-1.4c0-0.5,0.1-1,0.4-1.4c0.3-0.4,0.7-0.7,1.3-0.9c0.6-0.2,1.2-0.3,2-0.3c0.6,0,1.1,0.1,1.7,0.2
			c0.6,0.1,1,0.3,1.4,0.5l-0.8,1.7c-0.7-0.4-1.5-0.6-2.3-0.6c-0.5,0-0.9,0.1-1.1,0.2s-0.4,0.3-0.4,0.5c0,0.3,0.1,0.4,0.4,0.5
			c0.3,0.1,0.7,0.2,1.3,0.3c0.7,0.1,1.2,0.2,1.6,0.4s0.8,0.4,1.1,0.7s0.5,0.8,0.5,1.4c0,0.5-0.1,0.9-0.5,1.3
			c-0.3,0.4-0.7,0.7-1.3,0.9c-0.6,0.2-1.3,0.3-2,0.3C628.6,505.7,627.9,505.6,627.3,505.4z"/>
		<path class="st3" d="M636,505.1c-0.7-0.4-1.2-0.8-1.6-1.5s-0.6-1.3-0.6-2.1c0-0.8,0.2-1.5,0.6-2.1s0.9-1.1,1.6-1.5
			c0.7-0.4,1.4-0.5,2.3-0.5c0.8,0,1.6,0.2,2.3,0.5c0.7,0.4,1.2,0.8,1.6,1.5s0.6,1.3,0.6,2.1c0,0.8-0.2,1.5-0.6,2.1s-0.9,1.1-1.6,1.5
			c-0.7,0.4-1.4,0.5-2.3,0.5C637.5,505.7,636.7,505.5,636,505.1z M639.8,503.1c0.4-0.4,0.6-0.9,0.6-1.6c0-0.7-0.2-1.2-0.6-1.6
			c-0.4-0.4-0.9-0.6-1.5-0.6c-0.6,0-1.1,0.2-1.5,0.6c-0.4,0.4-0.6,0.9-0.6,1.6c0,0.7,0.2,1.2,0.6,1.6c0.4,0.4,0.9,0.6,1.5,0.6
			C638.9,503.7,639.4,503.5,639.8,503.1z"/>
		<path class="st3" d="M649.5,505.2c-0.2,0.2-0.5,0.3-0.8,0.4s-0.7,0.1-1.1,0.1c-1,0-1.7-0.2-2.2-0.7c-0.5-0.5-0.8-1.2-0.8-2.2v-3.3
			h-1.2v-1.8h1.2v-2h2.3v2h2v1.8h-2v3.3c0,0.3,0.1,0.6,0.3,0.8c0.2,0.2,0.4,0.3,0.7,0.3c0.4,0,0.7-0.1,0.9-0.3L649.5,505.2z"/>
	</g>
	<g class="st2">
		<path class="st3" d="M560.6,650.5l0-6.3l-3.1,5.2h-1.1l-3.1-5.1v6.2H551V640h2l3.9,6.5l3.9-6.5h2l0,10.5H560.6z"/>
		<path class="st3" d="M573.3,642.5v8.1h-2.2v-1c-0.3,0.4-0.7,0.6-1.1,0.8c-0.4,0.2-0.9,0.3-1.4,0.3c-1.1,0-1.9-0.3-2.5-0.9
			s-0.9-1.5-0.9-2.7v-4.6h2.3v4.2c0,1.3,0.5,2,1.6,2c0.6,0,1-0.2,1.3-0.5s0.5-0.9,0.5-1.6v-4H573.3z"/>
		<path class="st3" d="M580.7,650.2c-0.2,0.2-0.5,0.3-0.8,0.4s-0.7,0.1-1.1,0.1c-1,0-1.7-0.2-2.2-0.7c-0.5-0.5-0.8-1.2-0.8-2.2v-3.3
			h-1.2v-1.8h1.2v-2h2.3v2h2v1.8h-2v3.3c0,0.3,0.1,0.6,0.3,0.8c0.2,0.2,0.4,0.3,0.7,0.3c0.4,0,0.7-0.1,0.9-0.3L580.7,650.2z"/>
	</g>
	<g class="st2">
		<path class="st3" d="M587.1,650.5l-1.8-2.5l-1.8,2.5H581l3.1-4.1l-3-4h2.6l1.7,2.4l1.8-2.4h2.5l-3,3.9l3.1,4.1H587.1z"/>
	</g>
	<g class="st2">
		<path class="st3" d="M596.9,643.2c0.7,0.6,1,1.5,1,2.7v4.6h-2.2v-1c-0.4,0.8-1.3,1.1-2.5,1.1c-0.6,0-1.2-0.1-1.6-0.3
			s-0.8-0.5-1-0.9c-0.2-0.4-0.4-0.8-0.4-1.3c0-0.8,0.3-1.3,0.8-1.8c0.6-0.4,1.4-0.6,2.6-0.6h1.9c0-0.5-0.2-0.9-0.5-1.2
			c-0.3-0.3-0.8-0.4-1.4-0.4c-0.4,0-0.9,0.1-1.3,0.2c-0.4,0.1-0.8,0.3-1.1,0.5l-0.8-1.6c0.4-0.3,1-0.5,1.6-0.7s1.2-0.3,1.9-0.3
			C595.3,642.3,596.2,642.6,596.9,643.2z M594.9,648.8c0.3-0.2,0.5-0.5,0.7-0.8v-0.8H594c-1,0-1.4,0.3-1.4,0.9
			c0,0.3,0.1,0.5,0.4,0.7c0.2,0.2,0.6,0.3,1,0.3C594.2,649.1,594.6,649,594.9,648.8z"/>
	</g>
	<g class="st2">
		<path class="st3" d="M612.8,643.2c0.6,0.6,0.9,1.5,0.9,2.7v4.6h-2.3v-4.3c0-0.6-0.1-1.1-0.4-1.4c-0.3-0.3-0.6-0.5-1.1-0.5
			c-0.6,0-1,0.2-1.3,0.5c-0.3,0.4-0.5,0.9-0.5,1.6v4h-2.3v-4.3c0-1.3-0.5-1.9-1.5-1.9c-0.5,0-1,0.2-1.3,0.5
			c-0.3,0.4-0.5,0.9-0.5,1.6v4H600v-8.1h2.2v0.9c0.3-0.3,0.7-0.6,1.1-0.8c0.4-0.2,0.9-0.3,1.4-0.3c0.6,0,1.1,0.1,1.5,0.3
			s0.8,0.6,1.1,1c0.3-0.4,0.7-0.7,1.3-1c0.5-0.2,1.1-0.3,1.7-0.3C611.4,642.3,612.2,642.6,612.8,643.2z"/>
	</g>
	<g class="st2">
		<path class="st3" d="M623.7,647.2h-6.1c0.1,0.5,0.4,0.9,0.8,1.2c0.4,0.3,0.9,0.4,1.5,0.4c0.4,0,0.8-0.1,1.1-0.2
			c0.3-0.1,0.6-0.3,0.9-0.6l1.2,1.4c-0.8,0.9-1.9,1.3-3.3,1.3c-0.9,0-1.7-0.2-2.4-0.5c-0.7-0.4-1.2-0.8-1.6-1.5s-0.6-1.3-0.6-2.1
			c0-0.8,0.2-1.5,0.6-2.1c0.4-0.6,0.9-1.1,1.5-1.5c0.7-0.4,1.4-0.5,2.2-0.5c0.8,0,1.5,0.2,2.1,0.5s1.1,0.8,1.5,1.5
			c0.4,0.6,0.5,1.4,0.5,2.2C623.8,646.6,623.7,646.8,623.7,647.2z M618.2,644.6c-0.4,0.3-0.6,0.7-0.7,1.2h4
			c-0.1-0.5-0.3-0.9-0.7-1.2c-0.4-0.3-0.8-0.5-1.3-0.5C619,644.1,618.6,644.3,618.2,644.6z"/>
		<path class="st3" d="M625.3,639.4h2.3v11.1h-2.3V639.4z"/>
	</g>
	<g class="st2">
		<path class="st3" d="M433.9,693.4c-0.8-0.2-1.4-0.5-1.9-0.9l0.8-1.8c0.4,0.3,1,0.6,1.6,0.8c0.6,0.2,1.2,0.3,1.9,0.3
			c0.7,0,1.2-0.1,1.5-0.3c0.3-0.2,0.5-0.5,0.5-0.8c0-0.3-0.1-0.5-0.3-0.6c-0.2-0.2-0.4-0.3-0.8-0.4c-0.3-0.1-0.7-0.2-1.2-0.3
			c-0.8-0.2-1.5-0.4-2-0.6c-0.5-0.2-0.9-0.5-1.3-0.9c-0.4-0.4-0.5-1-0.5-1.7c0-0.6,0.2-1.2,0.5-1.7c0.3-0.5,0.8-0.9,1.5-1.2
			c0.7-0.3,1.5-0.4,2.4-0.4c0.7,0,1.3,0.1,2,0.2c0.6,0.2,1.2,0.4,1.7,0.7l-0.8,1.8c-1-0.5-1.9-0.8-2.9-0.8c-0.7,0-1.2,0.1-1.5,0.3
			c-0.3,0.2-0.5,0.5-0.5,0.9c0,0.4,0.2,0.6,0.6,0.8c0.4,0.2,0.9,0.3,1.7,0.5c0.8,0.2,1.5,0.4,2,0.6c0.5,0.2,0.9,0.5,1.3,0.9
			c0.4,0.4,0.5,1,0.5,1.7c0,0.6-0.2,1.1-0.5,1.6c-0.3,0.5-0.8,0.9-1.5,1.2c-0.7,0.3-1.5,0.4-2.4,0.4
			C435.5,693.8,434.7,693.7,433.9,693.4z"/>
		<path class="st3" d="M448.4,686.3c0.7,0.6,1,1.5,1,2.7v4.6h-2.2v-1c-0.4,0.8-1.3,1.1-2.5,1.1c-0.6,0-1.2-0.1-1.6-0.3
			c-0.5-0.2-0.8-0.5-1-0.9c-0.2-0.4-0.4-0.8-0.4-1.3c0-0.8,0.3-1.3,0.8-1.8s1.4-0.6,2.6-0.6h1.9c0-0.5-0.2-0.9-0.5-1.2
			c-0.3-0.3-0.8-0.4-1.4-0.4c-0.4,0-0.9,0.1-1.3,0.2c-0.4,0.1-0.8,0.3-1.1,0.5l-0.8-1.6c0.4-0.3,1-0.6,1.6-0.7s1.2-0.3,1.9-0.3
			C446.8,685.4,447.8,685.7,448.4,686.3z M446.4,691.9c0.3-0.2,0.5-0.5,0.7-0.8v-0.8h-1.6c-1,0-1.4,0.3-1.4,0.9
			c0,0.3,0.1,0.5,0.4,0.7c0.2,0.2,0.6,0.3,1,0.3C445.8,692.1,446.1,692,446.4,691.9z"/>
		<path class="st3" d="M458.9,686.3c0.6,0.6,0.9,1.5,0.9,2.7v4.6h-2.3v-4.3c0-0.6-0.1-1.1-0.4-1.4s-0.7-0.5-1.2-0.5
			c-0.6,0-1.1,0.2-1.4,0.5s-0.5,0.9-0.5,1.6v4h-2.3v-8.1h2.2v0.9c0.3-0.3,0.7-0.6,1.2-0.8c0.5-0.2,1-0.3,1.5-0.3
			C457.5,685.4,458.3,685.7,458.9,686.3z"/>
	</g>
	<g class="st2">
		<path class="st3" d="M476.4,683.1l-4.5,10.5h-2.4l-4.5-10.5h2.6l3.2,7.5l3.2-7.5H476.4z"/>
	</g>
	<g class="st2">
		<path class="st3" d="M477.4,684c-0.3-0.3-0.4-0.6-0.4-0.9c0-0.4,0.1-0.7,0.4-0.9s0.6-0.4,1-0.4c0.4,0,0.8,0.1,1,0.4
			s0.4,0.5,0.4,0.9c0,0.4-0.1,0.7-0.4,1c-0.3,0.3-0.6,0.4-1,0.4C478,684.4,477.7,684.3,477.4,684z M477.3,685.5h2.3v8.1h-2.3V685.5z
			"/>
	</g>
	<g class="st2">
		<path class="st3" d="M483.4,693.2c-0.7-0.4-1.2-0.8-1.6-1.5c-0.4-0.6-0.6-1.3-0.6-2.1s0.2-1.5,0.6-2.1c0.4-0.6,0.9-1.1,1.6-1.5
			c0.7-0.4,1.5-0.5,2.3-0.5c0.9,0,1.6,0.2,2.2,0.5c0.6,0.4,1.1,0.9,1.4,1.5l-1.8,1c-0.4-0.7-1-1.1-1.8-1.1c-0.6,0-1.1,0.2-1.5,0.6
			c-0.4,0.4-0.6,0.9-0.6,1.6s0.2,1.2,0.6,1.6c0.4,0.4,0.9,0.6,1.5,0.6c0.8,0,1.4-0.4,1.8-1.1l1.8,1c-0.3,0.6-0.8,1.1-1.4,1.5
			c-0.6,0.4-1.4,0.5-2.2,0.5C484.8,693.7,484.1,693.5,483.4,693.2z"/>
	</g>
	<g class="st2">
		<path class="st3" d="M498.4,690.2h-6.1c0.1,0.5,0.4,0.9,0.8,1.2c0.4,0.3,0.9,0.4,1.5,0.4c0.4,0,0.8-0.1,1.1-0.2
			c0.3-0.1,0.6-0.3,0.9-0.6l1.2,1.3c-0.8,0.9-1.9,1.3-3.3,1.3c-0.9,0-1.7-0.2-2.4-0.5c-0.7-0.4-1.2-0.8-1.6-1.5
			c-0.4-0.6-0.6-1.3-0.6-2.1c0-0.8,0.2-1.5,0.6-2.1c0.4-0.6,0.9-1.1,1.5-1.5s1.4-0.5,2.2-0.5c0.8,0,1.5,0.2,2.1,0.5
			c0.6,0.3,1.1,0.8,1.5,1.5c0.4,0.6,0.5,1.4,0.5,2.2C498.5,689.6,498.4,689.8,498.4,690.2z M492.9,687.6c-0.4,0.3-0.6,0.7-0.7,1.2h4
			c-0.1-0.5-0.3-0.9-0.7-1.2c-0.4-0.3-0.8-0.5-1.3-0.5C493.7,687.2,493.3,687.3,492.9,687.6z"/>
		<path class="st3" d="M507.3,686.3c0.6,0.6,0.9,1.5,0.9,2.7v4.6h-2.3v-4.3c0-0.6-0.1-1.1-0.4-1.4s-0.7-0.5-1.2-0.5
			c-0.6,0-1.1,0.2-1.4,0.5s-0.5,0.9-0.5,1.6v4H500v-8.1h2.2v0.9c0.3-0.3,0.7-0.6,1.2-0.8c0.5-0.2,1-0.3,1.5-0.3
			C505.9,685.4,506.7,685.7,507.3,686.3z"/>
	</g>
	<g class="st2">
		<path class="st3" d="M515.6,693.2c-0.2,0.2-0.5,0.3-0.8,0.4c-0.3,0.1-0.7,0.1-1.1,0.1c-1,0-1.7-0.2-2.2-0.7
			c-0.5-0.5-0.8-1.2-0.8-2.2v-3.3h-1.2v-1.8h1.2v-2h2.3v2h2v1.8h-2v3.3c0,0.3,0.1,0.6,0.3,0.8c0.2,0.2,0.4,0.3,0.7,0.3
			c0.4,0,0.7-0.1,0.9-0.3L515.6,693.2z"/>
	</g>
	<g class="st2">
		<path class="st3" d="M524.5,690.2h-6.1c0.1,0.5,0.4,0.9,0.8,1.2c0.4,0.3,0.9,0.4,1.5,0.4c0.4,0,0.8-0.1,1.1-0.2
			c0.3-0.1,0.6-0.3,0.9-0.6l1.2,1.3c-0.8,0.9-1.9,1.3-3.3,1.3c-0.9,0-1.7-0.2-2.4-0.5c-0.7-0.4-1.2-0.8-1.6-1.5
			c-0.4-0.6-0.6-1.3-0.6-2.1c0-0.8,0.2-1.5,0.6-2.1c0.4-0.6,0.9-1.1,1.5-1.5s1.4-0.5,2.2-0.5c0.8,0,1.5,0.2,2.1,0.5
			c0.6,0.3,1.1,0.8,1.5,1.5c0.4,0.6,0.5,1.4,0.5,2.2C524.6,689.6,524.5,689.8,524.5,690.2z M519,687.6c-0.4,0.3-0.6,0.7-0.7,1.2h4
			c-0.1-0.5-0.3-0.9-0.7-1.2c-0.4-0.3-0.8-0.5-1.3-0.5C519.8,687.2,519.4,687.3,519,687.6z"/>
	</g>
	<g class="st2">
		<path class="st3" d="M441,700.5v11.1h-2.2v-0.9c-0.6,0.7-1.4,1-2.5,1c-0.8,0-1.4-0.2-2.1-0.5c-0.6-0.3-1.1-0.8-1.4-1.5
			c-0.4-0.6-0.5-1.4-0.5-2.2s0.2-1.6,0.5-2.2c0.3-0.6,0.8-1.1,1.4-1.5c0.6-0.3,1.3-0.5,2.1-0.5c1,0,1.8,0.3,2.4,1v-3.9H441z
			 M438.1,709.2c0.4-0.4,0.6-0.9,0.6-1.6s-0.2-1.2-0.6-1.6c-0.4-0.4-0.9-0.6-1.5-0.6c-0.6,0-1.1,0.2-1.5,0.6
			c-0.4,0.4-0.6,0.9-0.6,1.6s0.2,1.2,0.6,1.6c0.4,0.4,0.9,0.6,1.5,0.6C437.2,709.8,437.7,709.6,438.1,709.2z"/>
		<path class="st3" d="M451,708.2h-6.1c0.1,0.5,0.4,0.9,0.8,1.2c0.4,0.3,0.9,0.4,1.5,0.4c0.4,0,0.8-0.1,1.1-0.2
			c0.3-0.1,0.6-0.3,0.9-0.6l1.2,1.3c-0.8,0.9-1.9,1.3-3.3,1.3c-0.9,0-1.7-0.2-2.4-0.5c-0.7-0.4-1.2-0.8-1.6-1.5
			c-0.4-0.6-0.6-1.3-0.6-2.1c0-0.8,0.2-1.5,0.6-2.1c0.4-0.6,0.9-1.1,1.5-1.5s1.4-0.5,2.2-0.5c0.8,0,1.5,0.2,2.1,0.5
			c0.6,0.3,1.1,0.8,1.5,1.5c0.4,0.6,0.5,1.4,0.5,2.2C451,707.6,451,707.8,451,708.2z M445.5,705.6c-0.4,0.3-0.6,0.7-0.7,1.2h4
			c-0.1-0.5-0.3-0.9-0.7-1.2c-0.4-0.3-0.8-0.5-1.3-0.5C446.3,705.2,445.9,705.3,445.5,705.6z"/>
		<path class="st3" d="M452.6,700.5h2.3v11.1h-2.3V700.5z"/>
	</g>
	<g class="st2">
		<path class="st3" d="M468.2,711.6l-2-2.9H466h-2.1v2.9h-2.4v-10.5h4.5c0.9,0,1.7,0.2,2.4,0.5s1.2,0.8,1.6,1.3s0.6,1.2,0.6,2
			c0,0.8-0.2,1.5-0.6,2c-0.4,0.6-0.9,1-1.6,1.3l2.4,3.4H468.2z M467.6,703.5c-0.4-0.3-0.9-0.5-1.7-0.5h-2v3.7h2
			c0.7,0,1.3-0.2,1.7-0.5s0.6-0.8,0.6-1.4C468.1,704.3,468,703.9,467.6,703.5z"/>
	</g>
	<g class="st2">
		<path class="st3" d="M478.4,704.3c0.7,0.6,1,1.5,1,2.7v4.6h-2.2v-1c-0.4,0.8-1.3,1.1-2.5,1.1c-0.6,0-1.2-0.1-1.6-0.3
			c-0.5-0.2-0.8-0.5-1-0.9c-0.2-0.4-0.4-0.8-0.4-1.3c0-0.8,0.3-1.3,0.8-1.8s1.4-0.6,2.6-0.6h1.9c0-0.5-0.2-0.9-0.5-1.2
			c-0.3-0.3-0.8-0.4-1.4-0.4c-0.4,0-0.9,0.1-1.3,0.2c-0.4,0.1-0.8,0.3-1.1,0.5l-0.8-1.6c0.4-0.3,1-0.6,1.6-0.7s1.2-0.3,1.9-0.3
			C476.8,703.4,477.8,703.7,478.4,704.3z M476.4,709.9c0.3-0.2,0.5-0.5,0.7-0.8v-0.8h-1.6c-1,0-1.4,0.3-1.4,0.9
			c0,0.3,0.1,0.5,0.4,0.7c0.2,0.2,0.6,0.3,1,0.3C475.8,710.1,476.1,710,476.4,709.9z"/>
		<path class="st3" d="M482.3,711.5c-0.6-0.2-1.2-0.4-1.5-0.6l0.8-1.7c0.4,0.2,0.8,0.4,1.3,0.6c0.5,0.1,1,0.2,1.5,0.2
			c1,0,1.5-0.2,1.5-0.7c0-0.2-0.1-0.4-0.4-0.5s-0.7-0.2-1.2-0.3c-0.7-0.1-1.2-0.2-1.6-0.3c-0.4-0.1-0.8-0.4-1.1-0.7
			c-0.3-0.3-0.5-0.8-0.5-1.4c0-0.5,0.1-1,0.4-1.4s0.7-0.7,1.3-0.9c0.6-0.2,1.2-0.3,2-0.3c0.6,0,1.1,0.1,1.7,0.2
			c0.6,0.1,1,0.3,1.4,0.5l-0.8,1.7c-0.7-0.4-1.5-0.6-2.3-0.6c-0.5,0-0.9,0.1-1.1,0.2c-0.3,0.1-0.4,0.3-0.4,0.5
			c0,0.3,0.1,0.4,0.4,0.5c0.3,0.1,0.7,0.2,1.3,0.3c0.7,0.1,1.2,0.2,1.6,0.4s0.8,0.4,1.1,0.7c0.3,0.3,0.5,0.8,0.5,1.4
			c0,0.5-0.1,0.9-0.5,1.3c-0.3,0.4-0.7,0.7-1.3,0.9c-0.6,0.2-1.3,0.3-2,0.3C483.6,711.7,482.9,711.6,482.3,711.5z"/>
		<path class="st3" d="M496.3,703.9c0.6,0.3,1.1,0.8,1.4,1.5c0.3,0.6,0.5,1.4,0.5,2.2s-0.2,1.6-0.5,2.2c-0.4,0.6-0.8,1.1-1.4,1.5
			c-0.6,0.3-1.3,0.5-2,0.5c-1,0-1.8-0.3-2.4-1v3.8h-2.3v-11h2.2v0.9c0.6-0.7,1.4-1.1,2.5-1.1C495,703.4,495.7,703.6,496.3,703.9z
			 M495.3,709.2c0.4-0.4,0.6-0.9,0.6-1.6s-0.2-1.2-0.6-1.6c-0.4-0.4-0.9-0.6-1.5-0.6c-0.6,0-1.1,0.2-1.5,0.6
			c-0.4,0.4-0.6,0.9-0.6,1.6s0.2,1.2,0.6,1.6c0.4,0.4,0.9,0.6,1.5,0.6C494.5,709.8,495,709.6,495.3,709.2z"/>
		<path class="st3" d="M507.7,708.2h-6.1c0.1,0.5,0.4,0.9,0.8,1.2c0.4,0.3,0.9,0.4,1.5,0.4c0.4,0,0.8-0.1,1.1-0.2
			c0.3-0.1,0.6-0.3,0.9-0.6l1.2,1.3c-0.8,0.9-1.9,1.3-3.3,1.3c-0.9,0-1.7-0.2-2.4-0.5c-0.7-0.4-1.2-0.8-1.6-1.5
			c-0.4-0.6-0.6-1.3-0.6-2.1c0-0.8,0.2-1.5,0.6-2.1c0.4-0.6,0.9-1.1,1.5-1.5s1.4-0.5,2.2-0.5c0.8,0,1.5,0.2,2.1,0.5
			c0.6,0.3,1.1,0.8,1.5,1.5c0.4,0.6,0.5,1.4,0.5,2.2C507.8,707.6,507.7,707.8,507.7,708.2z M502.2,705.6c-0.4,0.3-0.6,0.7-0.7,1.2h4
			c-0.1-0.5-0.3-0.9-0.7-1.2c-0.4-0.3-0.8-0.5-1.3-0.5C503,705.2,502.6,705.3,502.2,705.6z"/>
		<path class="st3" d="M509.4,702c-0.3-0.3-0.4-0.6-0.4-0.9c0-0.4,0.1-0.7,0.4-0.9s0.6-0.4,1-0.4c0.4,0,0.8,0.1,1,0.4
			s0.4,0.5,0.4,0.9c0,0.4-0.1,0.7-0.4,1c-0.3,0.3-0.6,0.4-1,0.4C510.1,702.4,509.7,702.3,509.4,702z M509.3,703.5h2.3v8.1h-2.3
			V703.5z"/>
		<path class="st3" d="M522.2,703.5v6.7c0,1.5-0.4,2.6-1.2,3.3c-0.8,0.7-1.9,1.1-3.4,1.1c-0.8,0-1.5-0.1-2.2-0.3
			c-0.7-0.2-1.3-0.5-1.7-0.8l0.9-1.7c0.3,0.3,0.8,0.5,1.3,0.7c0.5,0.2,1,0.2,1.6,0.2c0.8,0,1.4-0.2,1.8-0.5c0.4-0.4,0.6-0.9,0.6-1.7
			v-0.3c-0.6,0.7-1.5,1-2.5,1c-0.7,0-1.4-0.2-2-0.5c-0.6-0.3-1.1-0.8-1.5-1.4s-0.5-1.3-0.5-2c0-0.8,0.2-1.4,0.5-2s0.8-1,1.5-1.4
			c0.6-0.3,1.3-0.5,2-0.5c1.2,0,2.1,0.4,2.7,1.2v-1H522.2z M519.3,708.7c0.4-0.4,0.6-0.8,0.6-1.4s-0.2-1.1-0.6-1.4s-0.9-0.5-1.5-0.5
			s-1.1,0.2-1.5,0.5c-0.4,0.4-0.6,0.8-0.6,1.4s0.2,1.1,0.6,1.4c0.4,0.4,0.9,0.5,1.5,0.5S518.9,709.1,519.3,708.7z"/>
	</g>
	<g class="st2">
		<path class="st3" d="M622.1,753.8c-0.8-0.2-1.4-0.5-1.9-0.9l0.8-1.8c0.4,0.3,1,0.6,1.6,0.8c0.6,0.2,1.2,0.3,1.9,0.3
			c0.7,0,1.2-0.1,1.5-0.3c0.3-0.2,0.5-0.5,0.5-0.8c0-0.3-0.1-0.5-0.3-0.6s-0.4-0.3-0.8-0.4c-0.3-0.1-0.7-0.2-1.2-0.3
			c-0.8-0.2-1.5-0.4-2-0.6c-0.5-0.2-0.9-0.5-1.3-0.9c-0.4-0.4-0.5-1-0.5-1.7c0-0.6,0.2-1.2,0.5-1.7s0.8-0.9,1.5-1.2
			c0.7-0.3,1.5-0.4,2.4-0.4c0.7,0,1.3,0.1,2,0.2c0.6,0.2,1.2,0.4,1.7,0.7l-0.8,1.8c-1-0.5-1.9-0.8-2.9-0.8c-0.7,0-1.2,0.1-1.5,0.3
			c-0.3,0.2-0.5,0.5-0.5,0.9c0,0.4,0.2,0.6,0.6,0.8s0.9,0.3,1.7,0.5c0.8,0.2,1.5,0.4,2,0.6c0.5,0.2,0.9,0.5,1.3,0.9s0.5,1,0.5,1.7
			c0,0.6-0.2,1.1-0.5,1.6s-0.8,0.9-1.5,1.2s-1.5,0.4-2.4,0.4C623.7,754.2,622.9,754,622.1,753.8z"/>
		<path class="st3" d="M636.6,746.7c0.7,0.6,1,1.5,1,2.7v4.6h-2.2v-1c-0.4,0.8-1.3,1.1-2.5,1.1c-0.6,0-1.2-0.1-1.6-0.3
			s-0.8-0.5-1-0.9c-0.2-0.4-0.4-0.8-0.4-1.3c0-0.8,0.3-1.3,0.8-1.8c0.6-0.4,1.4-0.6,2.6-0.6h1.9c0-0.5-0.2-0.9-0.5-1.2
			c-0.3-0.3-0.8-0.4-1.4-0.4c-0.4,0-0.9,0.1-1.3,0.2c-0.4,0.1-0.8,0.3-1.1,0.5l-0.8-1.6c0.4-0.3,1-0.5,1.6-0.7s1.2-0.3,1.9-0.3
			C635,745.8,635.9,746.1,636.6,746.7z M634.6,752.2c0.3-0.2,0.5-0.5,0.7-0.8v-0.8h-1.6c-1,0-1.4,0.3-1.4,0.9c0,0.3,0.1,0.5,0.4,0.7
			c0.2,0.2,0.6,0.3,1,0.3C634,752.5,634.3,752.4,634.6,752.2z"/>
		<path class="st3" d="M647.1,746.7c0.6,0.6,0.9,1.5,0.9,2.7v4.6h-2.3v-4.3c0-0.6-0.1-1.1-0.4-1.4c-0.3-0.3-0.7-0.5-1.2-0.5
			c-0.6,0-1.1,0.2-1.4,0.5s-0.5,0.9-0.5,1.6v4h-2.3v-8.1h2.2v0.9c0.3-0.3,0.7-0.6,1.2-0.8c0.5-0.2,1-0.3,1.5-0.3
			C645.6,745.8,646.4,746.1,647.1,746.7z"/>
		<path class="st3" d="M654.5,753.8c-0.6-0.3-1.1-0.6-1.5-1.1l1.3-1.6c0.6,0.8,1.2,1.2,2,1.2c1,0,1.5-0.6,1.5-1.7v-5h-3.7v-2h6.1
			v6.8c0,1.3-0.3,2.3-1,2.9c-0.6,0.6-1.6,1-2.8,1C655.7,754.2,655.1,754,654.5,753.8z"/>
		<path class="st3" d="M670.6,745.9v8.1h-2.2v-1c-0.3,0.4-0.7,0.6-1.1,0.8c-0.4,0.2-0.9,0.3-1.4,0.3c-1.1,0-1.9-0.3-2.5-0.9
			c-0.6-0.6-0.9-1.5-0.9-2.7v-4.6h2.3v4.2c0,1.3,0.5,2,1.6,2c0.6,0,1-0.2,1.3-0.5s0.5-0.9,0.5-1.6v-4H670.6z"/>
		<path class="st3" d="M678.9,746.7c0.7,0.6,1,1.5,1,2.7v4.6h-2.2v-1c-0.4,0.8-1.3,1.1-2.5,1.1c-0.6,0-1.2-0.1-1.6-0.3
			s-0.8-0.5-1-0.9c-0.2-0.4-0.4-0.8-0.4-1.3c0-0.8,0.3-1.3,0.8-1.8c0.6-0.4,1.4-0.6,2.6-0.6h1.9c0-0.5-0.2-0.9-0.5-1.2
			c-0.3-0.3-0.8-0.4-1.4-0.4c-0.4,0-0.9,0.1-1.3,0.2c-0.4,0.1-0.8,0.3-1.1,0.5l-0.8-1.6c0.4-0.3,1-0.5,1.6-0.7s1.2-0.3,1.9-0.3
			C677.3,745.8,678.2,746.1,678.9,746.7z M676.9,752.2c0.3-0.2,0.5-0.5,0.7-0.8v-0.8H676c-1,0-1.4,0.3-1.4,0.9
			c0,0.3,0.1,0.5,0.4,0.7c0.2,0.2,0.6,0.3,1,0.3C676.2,752.5,676.6,752.4,676.9,752.2z"/>
		<path class="st3" d="M689.3,746.7c0.6,0.6,0.9,1.5,0.9,2.7v4.6h-2.3v-4.3c0-0.6-0.1-1.1-0.4-1.4c-0.3-0.3-0.7-0.5-1.2-0.5
			c-0.6,0-1.1,0.2-1.4,0.5s-0.5,0.9-0.5,1.6v4H682v-8.1h2.2v0.9c0.3-0.3,0.7-0.6,1.2-0.8c0.5-0.2,1-0.3,1.5-0.3
			C687.9,745.8,688.7,746.1,689.3,746.7z"/>
	</g>
	<g class="st2">
		<path class="st3" d="M692.9,560v2h-8.1v-10.5h7.9v2h-5.5v2.3h4.9v1.9h-4.9v2.4H692.9z"/>
		<path class="st3" d="M694.6,550.8h2.3v11.1h-2.3V550.8z"/>
	</g>
	<g class="st2">
		<path class="st3" d="M705.7,561.4c-0.9-0.5-1.5-1.1-2-1.9c-0.5-0.8-0.7-1.8-0.7-2.8s0.2-2,0.7-2.8c0.5-0.8,1.2-1.5,2-1.9
			s1.8-0.7,2.9-0.7c0.9,0,1.7,0.2,2.5,0.5c0.7,0.3,1.4,0.8,1.9,1.4l-1.6,1.4c-0.7-0.8-1.6-1.2-2.6-1.2c-0.6,0-1.2,0.1-1.7,0.4
			c-0.5,0.3-0.9,0.7-1.2,1.2c-0.3,0.5-0.4,1.1-0.4,1.7s0.1,1.2,0.4,1.7c0.3,0.5,0.7,0.9,1.2,1.2c0.5,0.3,1.1,0.4,1.7,0.4
			c1.1,0,1.9-0.4,2.6-1.2l1.6,1.4c-0.5,0.6-1.1,1.1-1.9,1.4c-0.7,0.3-1.6,0.5-2.5,0.5C707.5,562.1,706.6,561.9,705.7,561.4z"/>
	</g>
	<g class="st2">
		<path class="st3" d="M720.5,554.6c0.7,0.6,1,1.5,1,2.7v4.6h-2.2v-1c-0.4,0.8-1.3,1.1-2.5,1.1c-0.6,0-1.2-0.1-1.6-0.3
			s-0.8-0.5-1-0.9c-0.2-0.4-0.4-0.8-0.4-1.3c0-0.8,0.3-1.3,0.8-1.8c0.6-0.4,1.4-0.6,2.6-0.6h1.9c0-0.5-0.2-0.9-0.5-1.2
			c-0.3-0.3-0.8-0.4-1.4-0.4c-0.4,0-0.9,0.1-1.3,0.2c-0.4,0.1-0.8,0.3-1.1,0.5l-0.8-1.6c0.4-0.3,1-0.5,1.6-0.7s1.2-0.3,1.9-0.3
			C718.8,553.7,719.8,554,720.5,554.6z M718.5,560.2c0.3-0.2,0.5-0.5,0.7-0.8v-0.8h-1.6c-1,0-1.4,0.3-1.4,0.9c0,0.3,0.1,0.5,0.4,0.7
			c0.2,0.2,0.6,0.3,1,0.3C717.8,560.5,718.2,560.4,718.5,560.2z"/>
		<path class="st3" d="M736.3,554.6c0.6,0.6,0.9,1.5,0.9,2.7v4.6h-2.3v-4.3c0-0.6-0.1-1.1-0.4-1.4c-0.3-0.3-0.6-0.5-1.1-0.5
			c-0.5,0-1,0.2-1.3,0.5c-0.3,0.4-0.5,0.9-0.5,1.6v4h-2.3v-4.3c0-1.3-0.5-1.9-1.5-1.9c-0.5,0-1,0.2-1.3,0.5
			c-0.3,0.4-0.5,0.9-0.5,1.6v4h-2.3v-8.1h2.2v0.9c0.3-0.3,0.7-0.6,1.1-0.8c0.4-0.2,0.9-0.3,1.4-0.3c0.6,0,1.1,0.1,1.5,0.3
			s0.8,0.6,1.1,1c0.3-0.4,0.7-0.7,1.3-1c0.5-0.2,1.1-0.3,1.7-0.3C734.9,553.7,735.7,554,736.3,554.6z"/>
		<path class="st3" d="M746.1,554.3c0.6,0.3,1.1,0.8,1.4,1.5c0.3,0.6,0.5,1.4,0.5,2.2s-0.2,1.6-0.5,2.2c-0.4,0.6-0.8,1.1-1.4,1.5
			c-0.6,0.3-1.3,0.5-2,0.5c-1,0-1.8-0.3-2.4-1v3.8h-2.3v-11h2.2v0.9c0.6-0.7,1.4-1.1,2.5-1.1C744.8,553.7,745.5,553.9,746.1,554.3z
			 M745.2,559.5c0.4-0.4,0.6-0.9,0.6-1.6c0-0.7-0.2-1.2-0.6-1.6c-0.4-0.4-0.9-0.6-1.5-0.6s-1.1,0.2-1.5,0.6
			c-0.4,0.4-0.6,0.9-0.6,1.6c0,0.7,0.2,1.2,0.6,1.6c0.4,0.4,0.9,0.6,1.5,0.6S744.8,559.9,745.2,559.5z"/>
		<path class="st3" d="M757.5,558.6h-6.1c0.1,0.5,0.4,0.9,0.8,1.2c0.4,0.3,0.9,0.4,1.5,0.4c0.4,0,0.8-0.1,1.1-0.2s0.6-0.3,0.9-0.6
			l1.2,1.4c-0.8,0.9-1.9,1.3-3.3,1.3c-0.9,0-1.7-0.2-2.4-0.5c-0.7-0.4-1.2-0.8-1.6-1.5s-0.6-1.3-0.6-2.1c0-0.8,0.2-1.5,0.6-2.1
			c0.4-0.6,0.9-1.1,1.5-1.5c0.7-0.4,1.4-0.5,2.2-0.5c0.8,0,1.5,0.2,2.1,0.5c0.6,0.3,1.1,0.8,1.5,1.5c0.4,0.6,0.5,1.4,0.5,2.2
			C757.6,558,757.6,558.2,757.5,558.6z M752.1,556c-0.4,0.3-0.6,0.7-0.7,1.2h4c-0.1-0.5-0.3-0.9-0.7-1.2c-0.4-0.3-0.8-0.5-1.3-0.5
			C752.9,555.5,752.4,555.7,752.1,556z"/>
		<path class="st3" d="M759.1,550.8h2.3v11.1h-2.3V550.8z"/>
		<path class="st3" d="M763.7,550.8h2.3v11.1h-2.3V550.8z"/>
		<path class="st3" d="M769.7,561.5c-0.7-0.4-1.2-0.8-1.6-1.5s-0.6-1.3-0.6-2.1c0-0.8,0.2-1.5,0.6-2.1s0.9-1.1,1.6-1.5
			c0.7-0.4,1.4-0.5,2.3-0.5c0.9,0,1.6,0.2,2.3,0.5c0.7,0.4,1.2,0.8,1.6,1.5s0.6,1.3,0.6,2.1c0,0.8-0.2,1.5-0.6,2.1s-0.9,1.1-1.6,1.5
			c-0.7,0.4-1.4,0.5-2.3,0.5C771.2,562.1,770.4,561.9,769.7,561.5z M773.5,559.5c0.4-0.4,0.6-0.9,0.6-1.6c0-0.7-0.2-1.2-0.6-1.6
			c-0.4-0.4-0.9-0.6-1.5-0.6c-0.6,0-1.1,0.2-1.5,0.6c-0.4,0.4-0.6,0.9-0.6,1.6c0,0.7,0.2,1.2,0.6,1.6c0.4,0.4,0.9,0.6,1.5,0.6
			C772.6,560.1,773.1,559.9,773.5,559.5z"/>
	</g>
	<g class="st2">
		<path class="st3" d="M404.8,827.8h-4.9l-0.9,2.3h-2.5l4.7-10.5h2.4l4.7,10.5h-2.6L404.8,827.8z M404,825.9l-1.7-4l-1.7,4H404z"/>
		<path class="st3" d="M409.2,818.9h2.3V830h-2.3V818.9z"/>
		<path class="st3" d="M413.8,820.4c-0.3-0.3-0.4-0.6-0.4-0.9s0.1-0.7,0.4-0.9s0.6-0.4,1-0.4c0.4,0,0.8,0.1,1,0.4
			c0.3,0.2,0.4,0.5,0.4,0.9c0,0.4-0.1,0.7-0.4,1s-0.6,0.4-1,0.4C414.4,820.8,414.1,820.7,413.8,820.4z M413.7,821.9h2.3v8.1h-2.3
			V821.9z"/>
		<path class="st3" d="M419.8,829.6c-0.7-0.4-1.2-0.8-1.6-1.5c-0.4-0.6-0.6-1.3-0.6-2.1c0-0.8,0.2-1.5,0.6-2.1
			c0.4-0.6,0.9-1.1,1.6-1.5c0.7-0.4,1.5-0.5,2.3-0.5c0.9,0,1.6,0.2,2.2,0.5c0.6,0.4,1.1,0.9,1.4,1.5l-1.8,1c-0.4-0.7-1-1.1-1.8-1.1
			c-0.6,0-1.1,0.2-1.5,0.6c-0.4,0.4-0.6,0.9-0.6,1.6c0,0.7,0.2,1.2,0.6,1.6c0.4,0.4,0.9,0.6,1.5,0.6c0.8,0,1.4-0.4,1.8-1.1l1.8,1
			c-0.3,0.6-0.8,1.1-1.4,1.5c-0.6,0.4-1.4,0.5-2.2,0.5C421.2,830.1,420.5,829.9,419.8,829.6z"/>
		<path class="st3" d="M433.2,822.7c0.7,0.6,1,1.5,1,2.7v4.6H432v-1c-0.4,0.8-1.3,1.1-2.5,1.1c-0.6,0-1.2-0.1-1.6-0.3
			s-0.8-0.5-1-0.9c-0.2-0.4-0.4-0.8-0.4-1.3c0-0.8,0.3-1.3,0.8-1.8s1.4-0.6,2.6-0.6h1.9c0-0.5-0.2-0.9-0.5-1.2
			c-0.3-0.3-0.8-0.4-1.4-0.4c-0.4,0-0.9,0.1-1.3,0.2c-0.4,0.1-0.8,0.3-1.1,0.5l-0.8-1.6c0.4-0.3,1-0.5,1.6-0.7s1.2-0.3,1.9-0.3
			C431.6,821.8,432.5,822.1,433.2,822.7z M431.2,828.3c0.3-0.2,0.5-0.5,0.7-0.8v-0.8h-1.6c-1,0-1.4,0.3-1.4,0.9
			c0,0.3,0.1,0.5,0.4,0.7c0.2,0.2,0.6,0.3,1,0.3C430.5,828.5,430.9,828.5,431.2,828.3z"/>
		<path class="st3" d="M443.6,822.7c0.6,0.6,0.9,1.5,0.9,2.7v4.6h-2.3v-4.3c0-0.6-0.1-1.1-0.4-1.4c-0.3-0.3-0.7-0.5-1.2-0.5
			c-0.6,0-1.1,0.2-1.4,0.5s-0.5,0.9-0.5,1.6v4h-2.3v-8.1h2.2v0.9c0.3-0.3,0.7-0.6,1.2-0.8c0.5-0.2,1-0.3,1.5-0.3
			C442.2,821.8,443,822.1,443.6,822.7z"/>
	</g>
	<g class="st2">
		<path class="st3" d="M451.9,829.6c-0.2,0.2-0.5,0.3-0.8,0.4s-0.7,0.1-1.1,0.1c-1,0-1.7-0.2-2.2-0.7c-0.5-0.5-0.8-1.2-0.8-2.2v-3.3
			h-1.2v-1.8h1.2v-2h2.3v2h2v1.8h-2v3.3c0,0.3,0.1,0.6,0.3,0.8c0.2,0.2,0.4,0.3,0.7,0.3c0.4,0,0.7-0.1,0.9-0.3L451.9,829.6z"/>
	</g>
	<g class="st2">
		<path class="st3" d="M460.8,826.6h-6.1c0.1,0.5,0.4,0.9,0.8,1.2c0.4,0.3,0.9,0.4,1.5,0.4c0.4,0,0.8-0.1,1.1-0.2
			c0.3-0.1,0.6-0.3,0.9-0.6l1.2,1.4c-0.8,0.9-1.9,1.3-3.3,1.3c-0.9,0-1.7-0.2-2.4-0.5c-0.7-0.4-1.2-0.8-1.6-1.5s-0.6-1.3-0.6-2.1
			c0-0.8,0.2-1.5,0.6-2.1c0.4-0.6,0.9-1.1,1.5-1.5c0.7-0.4,1.4-0.5,2.2-0.5c0.8,0,1.5,0.2,2.1,0.5c0.6,0.3,1.1,0.8,1.5,1.5
			c0.4,0.6,0.5,1.4,0.5,2.2C460.9,826,460.8,826.2,460.8,826.6z M455.3,824c-0.4,0.3-0.6,0.7-0.7,1.2h4c-0.1-0.5-0.3-0.9-0.7-1.2
			c-0.4-0.3-0.8-0.5-1.3-0.5C456.1,823.6,455.7,823.7,455.3,824z"/>
		<path class="st3" d="M470,817.4h2.1l-5,14.1h-2.1L470,817.4z"/>
		<path class="st3" d="M483.9,827.8H479l-0.9,2.3h-2.5l4.7-10.5h2.4l4.7,10.5h-2.6L483.9,827.8z M483.1,825.9l-1.7-4l-1.7,4H483.1z"
			/>
		<path class="st3" d="M488.3,818.9h2.3V830h-2.3V818.9z"/>
	</g>
	<g class="st2">
		<path class="st3" d="M498.9,822.7c0.7,0.6,1,1.5,1,2.7v4.6h-2.2v-1c-0.4,0.8-1.3,1.1-2.5,1.1c-0.6,0-1.2-0.1-1.6-0.3
			s-0.8-0.5-1-0.9c-0.2-0.4-0.4-0.8-0.4-1.3c0-0.8,0.3-1.3,0.8-1.8s1.4-0.6,2.6-0.6h1.9c0-0.5-0.2-0.9-0.5-1.2
			c-0.3-0.3-0.8-0.4-1.4-0.4c-0.4,0-0.9,0.1-1.3,0.2c-0.4,0.1-0.8,0.3-1.1,0.5l-0.8-1.6c0.4-0.3,1-0.5,1.6-0.7s1.2-0.3,1.9-0.3
			C497.3,821.8,498.3,822.1,498.9,822.7z M496.9,828.3c0.3-0.2,0.5-0.5,0.7-0.8v-0.8H496c-1,0-1.4,0.3-1.4,0.9
			c0,0.3,0.1,0.5,0.4,0.7c0.2,0.2,0.6,0.3,1,0.3C496.3,828.5,496.6,828.5,496.9,828.3z"/>
	</g>
	<g class="st2">
		<path class="st3" d="M503.7,829.6c-0.7-0.4-1.2-0.8-1.6-1.5c-0.4-0.6-0.6-1.3-0.6-2.1c0-0.8,0.2-1.5,0.6-2.1
			c0.4-0.6,0.9-1.1,1.6-1.5c0.7-0.4,1.5-0.5,2.3-0.5c0.9,0,1.6,0.2,2.2,0.5c0.6,0.4,1.1,0.9,1.4,1.5l-1.8,1c-0.4-0.7-1-1.1-1.8-1.1
			c-0.6,0-1.1,0.2-1.5,0.6c-0.4,0.4-0.6,0.9-0.6,1.6c0,0.7,0.2,1.2,0.6,1.6c0.4,0.4,0.9,0.6,1.5,0.6c0.8,0,1.4-0.4,1.8-1.1l1.8,1
			c-0.3,0.6-0.8,1.1-1.4,1.5c-0.6,0.4-1.4,0.5-2.2,0.5C505.2,830.1,504.4,829.9,503.7,829.6z"/>
		<path class="st3" d="M517.1,822.7c0.7,0.6,1,1.5,1,2.7v4.6h-2.2v-1c-0.4,0.8-1.3,1.1-2.5,1.1c-0.6,0-1.2-0.1-1.6-0.3
			s-0.8-0.5-1-0.9c-0.2-0.4-0.4-0.8-0.4-1.3c0-0.8,0.3-1.3,0.8-1.8s1.4-0.6,2.6-0.6h1.9c0-0.5-0.2-0.9-0.5-1.2
			c-0.3-0.3-0.8-0.4-1.4-0.4c-0.4,0-0.9,0.1-1.3,0.2c-0.4,0.1-0.8,0.3-1.1,0.5l-0.8-1.6c0.4-0.3,1-0.5,1.6-0.7s1.2-0.3,1.9-0.3
			C515.5,821.8,516.5,822.1,517.1,822.7z M515.1,828.3c0.3-0.2,0.5-0.5,0.7-0.8v-0.8h-1.6c-1,0-1.4,0.3-1.4,0.9
			c0,0.3,0.1,0.5,0.4,0.7c0.2,0.2,0.6,0.3,1,0.3C514.5,828.5,514.8,828.5,515.1,828.3z"/>
		<path class="st3" d="M527.6,822.7c0.6,0.6,0.9,1.5,0.9,2.7v4.6h-2.3v-4.3c0-0.6-0.1-1.1-0.4-1.4c-0.3-0.3-0.7-0.5-1.2-0.5
			c-0.6,0-1.1,0.2-1.4,0.5s-0.5,0.9-0.5,1.6v4h-2.3v-8.1h2.2v0.9c0.3-0.3,0.7-0.6,1.2-0.8c0.5-0.2,1-0.3,1.5-0.3
			C526.2,821.8,527,822.1,527.6,822.7z"/>
		<path class="st3" d="M535.8,829.6c-0.2,0.2-0.5,0.3-0.8,0.4s-0.7,0.1-1.1,0.1c-1,0-1.7-0.2-2.2-0.7c-0.5-0.5-0.8-1.2-0.8-2.2v-3.3
			h-1.2v-1.8h1.2v-2h2.3v2h2v1.8h-2v3.3c0,0.3,0.1,0.6,0.3,0.8c0.2,0.2,0.4,0.3,0.7,0.3c0.4,0,0.7-0.1,0.9-0.3L535.8,829.6z"/>
	</g>
	<g class="st2">
		<path class="st3" d="M254.4,820.6v2h-8.1v-10.5h7.9v2h-5.5v2.3h4.9v1.9h-4.9v2.4H254.4z"/>
		<path class="st3" d="M256.2,811.5h2.3v11.1h-2.3V811.5z"/>
		<path class="st3" d="M271.8,822.6l-2-2.9h-0.1h-2.1v2.9h-2.4v-10.5h4.5c0.9,0,1.7,0.2,2.4,0.5c0.7,0.3,1.2,0.8,1.6,1.3
			s0.6,1.2,0.6,2c0,0.8-0.2,1.5-0.6,2c-0.4,0.6-0.9,1-1.6,1.3l2.4,3.4H271.8z M271.2,814.5c-0.4-0.3-0.9-0.5-1.7-0.5h-2v3.7h2
			c0.7,0,1.3-0.2,1.7-0.5s0.6-0.8,0.6-1.4C271.7,815.3,271.6,814.9,271.2,814.5z"/>
		<path class="st3" d="M283.8,819.2h-6.1c0.1,0.5,0.4,0.9,0.8,1.2c0.4,0.3,0.9,0.4,1.5,0.4c0.4,0,0.8-0.1,1.1-0.2
			c0.3-0.1,0.6-0.3,0.9-0.6l1.2,1.4c-0.8,0.9-1.9,1.3-3.3,1.3c-0.9,0-1.7-0.2-2.4-0.5c-0.7-0.4-1.2-0.8-1.6-1.5s-0.6-1.3-0.6-2.1
			c0-0.8,0.2-1.5,0.6-2.1c0.4-0.6,0.9-1.1,1.5-1.5c0.7-0.4,1.4-0.5,2.2-0.5c0.8,0,1.5,0.2,2.1,0.5c0.6,0.3,1.1,0.8,1.5,1.5
			c0.4,0.6,0.5,1.4,0.5,2.2C283.9,818.6,283.9,818.8,283.8,819.2z M278.3,816.6c-0.4,0.3-0.6,0.7-0.7,1.2h4
			c-0.1-0.5-0.3-0.9-0.7-1.2c-0.4-0.3-0.8-0.5-1.3-0.5C279.2,816.2,278.7,816.3,278.3,816.6z"/>
		<path class="st3" d="M292.2,814.9c0.6,0.3,1.1,0.8,1.4,1.5c0.3,0.6,0.5,1.4,0.5,2.2s-0.2,1.6-0.5,2.2c-0.4,0.6-0.8,1.1-1.4,1.5
			c-0.6,0.3-1.3,0.5-2,0.5c-1.1,0-2-0.3-2.5-1v0.9h-2.2v-11.1h2.3v3.9c0.6-0.7,1.4-1,2.4-1C290.9,814.4,291.6,814.6,292.2,814.9z
			 M291.3,820.2c0.4-0.4,0.6-0.9,0.6-1.6c0-0.7-0.2-1.2-0.6-1.6c-0.4-0.4-0.9-0.6-1.5-0.6c-0.6,0-1.1,0.2-1.5,0.6
			c-0.4,0.4-0.6,0.9-0.6,1.6c0,0.7,0.2,1.2,0.6,1.6c0.4,0.4,0.9,0.6,1.5,0.6C290.4,820.8,290.9,820.6,291.3,820.2z"/>
		<path class="st3" d="M297.3,822.2c-0.7-0.4-1.2-0.8-1.6-1.5s-0.6-1.3-0.6-2.1c0-0.8,0.2-1.5,0.6-2.1s0.9-1.1,1.6-1.5
			c0.7-0.4,1.4-0.5,2.3-0.5s1.6,0.2,2.3,0.5c0.7,0.4,1.2,0.8,1.6,1.5s0.6,1.3,0.6,2.1c0,0.8-0.2,1.5-0.6,2.1s-0.9,1.1-1.6,1.5
			c-0.7,0.4-1.4,0.5-2.3,0.5S298,822.5,297.3,822.2z M301.1,820.2c0.4-0.4,0.6-0.9,0.6-1.6c0-0.7-0.2-1.2-0.6-1.6
			c-0.4-0.4-0.9-0.6-1.5-0.6s-1.1,0.2-1.5,0.6c-0.4,0.4-0.6,0.9-0.6,1.6c0,0.7,0.2,1.2,0.6,1.6c0.4,0.4,0.9,0.6,1.5,0.6
			S300.7,820.6,301.1,820.2z"/>
		<path class="st3" d="M305.6,811.5h2.3v11.1h-2.3V811.5z"/>
		<path class="st3" d="M310.1,811.5h2.3v11.1h-2.3V811.5z"/>
		<path class="st3" d="M322.5,819.2h-6.1c0.1,0.5,0.4,0.9,0.8,1.2c0.4,0.3,0.9,0.4,1.5,0.4c0.4,0,0.8-0.1,1.1-0.2
			c0.3-0.1,0.6-0.3,0.9-0.6l1.2,1.4c-0.8,0.9-1.9,1.3-3.3,1.3c-0.9,0-1.7-0.2-2.4-0.5c-0.7-0.4-1.2-0.8-1.6-1.5s-0.6-1.3-0.6-2.1
			c0-0.8,0.2-1.5,0.6-2.1c0.4-0.6,0.9-1.1,1.5-1.5c0.7-0.4,1.4-0.5,2.2-0.5c0.8,0,1.5,0.2,2.1,0.5c0.6,0.3,1.1,0.8,1.5,1.5
			c0.4,0.6,0.5,1.4,0.5,2.2C322.5,818.6,322.5,818.8,322.5,819.2z M317,816.6c-0.4,0.3-0.6,0.7-0.7,1.2h4c-0.1-0.5-0.3-0.9-0.7-1.2
			c-0.4-0.3-0.8-0.5-1.3-0.5C317.8,816.2,317.4,816.3,317,816.6z"/>
		<path class="st3" d="M332.3,811.5v11.1h-2.2v-0.9c-0.6,0.7-1.4,1-2.5,1c-0.8,0-1.4-0.2-2.1-0.5c-0.6-0.3-1.1-0.8-1.4-1.5
			c-0.4-0.6-0.5-1.4-0.5-2.2s0.2-1.6,0.5-2.2c0.3-0.6,0.8-1.1,1.4-1.5c0.6-0.3,1.3-0.5,2.1-0.5c1,0,1.8,0.3,2.4,1v-3.9H332.3z
			 M329.4,820.2c0.4-0.4,0.6-0.9,0.6-1.6c0-0.7-0.2-1.2-0.6-1.6c-0.4-0.4-0.9-0.6-1.5-0.6c-0.6,0-1.1,0.2-1.5,0.6
			c-0.4,0.4-0.6,0.9-0.6,1.6c0,0.7,0.2,1.2,0.6,1.6c0.4,0.4,0.9,0.6,1.5,0.6C328.6,820.8,329,820.6,329.4,820.2z"/>
		<path class="st3" d="M336,822.2c-0.7-0.4-1.2-0.8-1.6-1.5s-0.6-1.3-0.6-2.1c0-0.8,0.2-1.5,0.6-2.1s0.9-1.1,1.6-1.5
			c0.7-0.4,1.4-0.5,2.3-0.5s1.6,0.2,2.3,0.5c0.7,0.4,1.2,0.8,1.6,1.5s0.6,1.3,0.6,2.1c0,0.8-0.2,1.5-0.6,2.1s-0.9,1.1-1.6,1.5
			c-0.7,0.4-1.4,0.5-2.3,0.5S336.7,822.5,336,822.2z M339.8,820.2c0.4-0.4,0.6-0.9,0.6-1.6c0-0.7-0.2-1.2-0.6-1.6
			c-0.4-0.4-0.9-0.6-1.5-0.6s-1.1,0.2-1.5,0.6c-0.4,0.4-0.6,0.9-0.6,1.6c0,0.7,0.2,1.2,0.6,1.6c0.4,0.4,0.9,0.6,1.5,0.6
			S339.4,820.6,339.8,820.2z"/>
	</g>
	<g class="st2">
		<path class="st3" d="M235.9,758.1h2.4v8.5h5.3v2h-7.7V758.1z"/>
	</g>
	<g class="st2">
		<path class="st3" d="M251,761.3c0.7,0.6,1,1.5,1,2.7v4.6h-2.2v-1c-0.4,0.8-1.3,1.1-2.5,1.1c-0.6,0-1.2-0.1-1.6-0.3
			c-0.5-0.2-0.8-0.5-1-0.9c-0.2-0.4-0.4-0.8-0.4-1.3c0-0.8,0.3-1.3,0.8-1.8s1.4-0.6,2.6-0.6h1.9c0-0.5-0.2-0.9-0.5-1.2
			c-0.3-0.3-0.8-0.4-1.4-0.4c-0.4,0-0.9,0.1-1.3,0.2c-0.4,0.1-0.8,0.3-1.1,0.5l-0.8-1.6c0.4-0.3,1-0.6,1.6-0.7s1.2-0.3,1.9-0.3
			C249.4,760.4,250.3,760.7,251,761.3z M249,766.9c0.3-0.2,0.5-0.5,0.7-0.8v-0.8h-1.6c-1,0-1.4,0.3-1.4,0.9c0,0.3,0.1,0.5,0.4,0.7
			c0.2,0.2,0.6,0.3,1,0.3C248.4,767.1,248.7,767,249,766.9z"/>
		<path class="st3" d="M265.5,766.3h-4.9l-0.9,2.3h-2.5l4.7-10.5h2.4l4.7,10.5h-2.6L265.5,766.3z M264.7,764.5l-1.7-4l-1.7,4H264.7z
			"/>
		<path class="st3" d="M269.9,757.5h2.3v11.1h-2.3V757.5z"/>
	</g>
	<g class="st2">
		<path class="st3" d="M276,768.2c-0.7-0.4-1.2-0.8-1.6-1.5c-0.4-0.6-0.6-1.3-0.6-2.1s0.2-1.5,0.6-2.1c0.4-0.6,0.9-1.1,1.6-1.5
			c0.7-0.4,1.5-0.5,2.3-0.5c0.9,0,1.6,0.2,2.2,0.5c0.6,0.4,1.1,0.9,1.4,1.5l-1.8,1c-0.4-0.7-1-1.1-1.8-1.1c-0.6,0-1.1,0.2-1.5,0.6
			c-0.4,0.4-0.6,0.9-0.6,1.6s0.2,1.2,0.6,1.6c0.4,0.4,0.9,0.6,1.5,0.6c0.8,0,1.4-0.4,1.8-1.1l1.8,1c-0.3,0.6-0.8,1.1-1.4,1.5
			c-0.6,0.4-1.4,0.5-2.2,0.5C277.4,768.7,276.7,768.5,276,768.2z"/>
	</g>
	<g class="st2">
		<path class="st3" d="M284.7,768.2c-0.7-0.4-1.2-0.8-1.6-1.5c-0.4-0.6-0.6-1.3-0.6-2.1s0.2-1.5,0.6-2.1c0.4-0.6,0.9-1.1,1.6-1.5
			c0.7-0.4,1.4-0.5,2.3-0.5s1.6,0.2,2.3,0.5c0.7,0.4,1.2,0.8,1.6,1.5c0.4,0.6,0.6,1.3,0.6,2.1s-0.2,1.5-0.6,2.1
			c-0.4,0.6-0.9,1.1-1.6,1.5c-0.7,0.4-1.4,0.5-2.3,0.5S285.4,768.5,284.7,768.2z M288.5,766.2c0.4-0.4,0.6-0.9,0.6-1.6
			s-0.2-1.2-0.6-1.6c-0.4-0.4-0.9-0.6-1.5-0.6s-1.1,0.2-1.5,0.6c-0.4,0.4-0.6,0.9-0.6,1.6s0.2,1.2,0.6,1.6s0.9,0.6,1.5,0.6
			S288.1,766.6,288.5,766.2z"/>
	</g>
	<g class="st2">
		<path class="st3" d="M296.3,760.7c0.5-0.2,1-0.3,1.6-0.3v2.2c-0.3,0-0.4,0-0.5,0c-0.7,0-1.2,0.2-1.6,0.6c-0.4,0.4-0.6,0.9-0.6,1.7
			v3.8H293v-8.1h2.2v1.1C295.5,761.2,295.9,760.9,296.3,760.7z"/>
	</g>
	<g class="st2">
		<path class="st3" d="M305.5,761.3c0.7,0.6,1,1.5,1,2.7v4.6h-2.2v-1c-0.4,0.8-1.3,1.1-2.5,1.1c-0.6,0-1.2-0.1-1.6-0.3
			c-0.5-0.2-0.8-0.5-1-0.9c-0.2-0.4-0.4-0.8-0.4-1.3c0-0.8,0.3-1.3,0.8-1.8s1.4-0.6,2.6-0.6h1.9c0-0.5-0.2-0.9-0.5-1.2
			c-0.3-0.3-0.8-0.4-1.4-0.4c-0.4,0-0.9,0.1-1.3,0.2c-0.4,0.1-0.8,0.3-1.1,0.5l-0.8-1.6c0.4-0.3,1-0.6,1.6-0.7s1.2-0.3,1.9-0.3
			C303.8,760.4,304.8,760.7,305.5,761.3z M303.5,766.9c0.3-0.2,0.5-0.5,0.7-0.8v-0.8h-1.6c-1,0-1.4,0.3-1.4,0.9
			c0,0.3,0.1,0.5,0.4,0.7c0.2,0.2,0.6,0.3,1,0.3C302.8,767.1,303.2,767,303.5,766.9z"/>
	</g>
	<g class="st2">
		<path class="st3" d="M316.4,760.5l-3.6,8.6c-0.4,0.9-0.8,1.6-1.4,2c-0.5,0.4-1.2,0.6-2,0.6c-0.4,0-0.8-0.1-1.2-0.2
			c-0.4-0.1-0.7-0.3-1-0.5l0.9-1.7c0.2,0.2,0.4,0.3,0.6,0.4c0.2,0.1,0.5,0.1,0.7,0.1c0.3,0,0.6-0.1,0.8-0.2c0.2-0.2,0.4-0.4,0.5-0.8
			l0-0.1l-3.5-8.1h2.4l2.3,5.5l2.3-5.5H316.4z"/>
	</g>
	<g class="st2">
		<path class="st3" d="M323.3,761.3c0.7,0.6,1,1.5,1,2.7v4.6h-2.2v-1c-0.4,0.8-1.3,1.1-2.5,1.1c-0.6,0-1.2-0.1-1.6-0.3
			c-0.5-0.2-0.8-0.5-1-0.9c-0.2-0.4-0.4-0.8-0.4-1.3c0-0.8,0.3-1.3,0.8-1.8s1.4-0.6,2.6-0.6h1.9c0-0.5-0.2-0.9-0.5-1.2
			c-0.3-0.3-0.8-0.4-1.4-0.4c-0.4,0-0.9,0.1-1.3,0.2c-0.4,0.1-0.8,0.3-1.1,0.5l-0.8-1.6c0.4-0.3,1-0.6,1.6-0.7s1.2-0.3,1.9-0.3
			C321.6,760.4,322.6,760.7,323.3,761.3z M321.3,766.9c0.3-0.2,0.5-0.5,0.7-0.8v-0.8h-1.6c-1,0-1.4,0.3-1.4,0.9
			c0,0.3,0.1,0.5,0.4,0.7c0.2,0.2,0.6,0.3,1,0.3C320.6,767.1,321,767,321.3,766.9z"/>
	</g>
	<g class="st2">
		<path class="st3" d="M296,724.1h2.4v8.5h5.3v2H296V724.1z"/>
	</g>
	<g class="st2">
		<path class="st3" d="M311.1,727.3c0.7,0.6,1,1.5,1,2.7v4.6h-2.2v-1c-0.4,0.8-1.3,1.1-2.5,1.1c-0.6,0-1.2-0.1-1.6-0.3
			s-0.8-0.5-1-0.9c-0.2-0.4-0.4-0.8-0.4-1.3c0-0.8,0.3-1.3,0.8-1.8s1.4-0.6,2.6-0.6h1.9c0-0.5-0.2-0.9-0.5-1.2
			c-0.3-0.3-0.8-0.4-1.4-0.4c-0.4,0-0.9,0.1-1.3,0.2c-0.4,0.1-0.8,0.3-1.1,0.5l-0.8-1.6c0.4-0.3,1-0.5,1.6-0.7s1.2-0.3,1.9-0.3
			C309.4,726.4,310.4,726.7,311.1,727.3z M309.1,732.9c0.3-0.2,0.5-0.5,0.7-0.8v-0.8h-1.6c-1,0-1.4,0.3-1.4,0.9
			c0,0.3,0.1,0.5,0.4,0.7c0.2,0.2,0.6,0.3,1,0.3C308.4,733.1,308.8,733,309.1,732.9z"/>
	</g>
	<g class="st2">
		<path class="st3" d="M320.7,734.1c-0.9-0.5-1.5-1.1-2-1.9c-0.5-0.8-0.7-1.8-0.7-2.8s0.2-2,0.7-2.8c0.5-0.8,1.2-1.5,2-1.9
			c0.9-0.5,1.8-0.7,2.9-0.7c0.9,0,1.7,0.2,2.5,0.5c0.7,0.3,1.4,0.8,1.9,1.4l-1.6,1.4c-0.7-0.8-1.6-1.2-2.6-1.2
			c-0.6,0-1.2,0.1-1.7,0.4c-0.5,0.3-0.9,0.7-1.2,1.2c-0.3,0.5-0.4,1.1-0.4,1.7s0.1,1.2,0.4,1.7c0.3,0.5,0.7,0.9,1.2,1.2
			c0.5,0.3,1.1,0.4,1.7,0.4c1.1,0,1.9-0.4,2.6-1.2l1.6,1.4c-0.5,0.6-1.1,1.1-1.9,1.4c-0.7,0.3-1.6,0.5-2.5,0.5
			C322.6,734.8,321.6,734.5,320.7,734.1z"/>
	</g>
	<g class="st2">
		<path class="st3" d="M335.5,727.3c0.7,0.6,1,1.5,1,2.7v4.6h-2.2v-1c-0.4,0.8-1.3,1.1-2.5,1.1c-0.6,0-1.2-0.1-1.6-0.3
			s-0.8-0.5-1-0.9c-0.2-0.4-0.4-0.8-0.4-1.3c0-0.8,0.3-1.3,0.8-1.8s1.4-0.6,2.6-0.6h1.9c0-0.5-0.2-0.9-0.5-1.2
			c-0.3-0.3-0.8-0.4-1.4-0.4c-0.4,0-0.9,0.1-1.3,0.2c-0.4,0.1-0.8,0.3-1.1,0.5l-0.8-1.6c0.4-0.3,1-0.5,1.6-0.7s1.2-0.3,1.9-0.3
			C333.9,726.4,334.8,726.7,335.5,727.3z M333.5,732.9c0.3-0.2,0.5-0.5,0.7-0.8v-0.8h-1.6c-1,0-1.4,0.3-1.4,0.9
			c0,0.3,0.1,0.5,0.4,0.7c0.2,0.2,0.6,0.3,1,0.3C332.8,733.1,333.2,733,333.5,732.9z"/>
		<path class="st3" d="M346,727.3c0.6,0.6,0.9,1.5,0.9,2.7v4.6h-2.3v-4.3c0-0.6-0.1-1.1-0.4-1.4c-0.3-0.3-0.7-0.5-1.2-0.5
			c-0.6,0-1.1,0.2-1.4,0.5s-0.5,0.9-0.5,1.6v4h-2.3v-8.1h2.2v0.9c0.3-0.3,0.7-0.6,1.2-0.8c0.5-0.2,1-0.3,1.5-0.3
			C344.5,726.4,345.3,726.7,346,727.3z M343.2,725.4c-0.2-0.1-0.4-0.2-0.7-0.4c-0.2-0.1-0.3-0.2-0.4-0.3c-0.1-0.1-0.2-0.1-0.3-0.1
			c-0.2,0-0.4,0.1-0.5,0.2c-0.1,0.1-0.2,0.4-0.2,0.6h-1.2c0-0.7,0.2-1.2,0.5-1.6c0.3-0.4,0.7-0.6,1.3-0.6c0.3,0,0.5,0.1,0.7,0.2
			c0.2,0.1,0.4,0.3,0.7,0.4c0.2,0.1,0.3,0.2,0.4,0.3c0.1,0.1,0.2,0.1,0.3,0.1c0.2,0,0.4-0.1,0.5-0.2c0.1-0.1,0.2-0.3,0.2-0.6h1.2
			c0,0.7-0.2,1.2-0.5,1.6c-0.3,0.4-0.7,0.6-1.3,0.6C343.6,725.5,343.4,725.5,343.2,725.4z"/>
	</g>
	<g class="st2">
		<path class="st3" d="M355.1,727.3c0.7,0.6,1,1.5,1,2.7v4.6h-2.2v-1c-0.4,0.8-1.3,1.1-2.5,1.1c-0.6,0-1.2-0.1-1.6-0.3
			s-0.8-0.5-1-0.9c-0.2-0.4-0.4-0.8-0.4-1.3c0-0.8,0.3-1.3,0.8-1.8s1.4-0.6,2.6-0.6h1.9c0-0.5-0.2-0.9-0.5-1.2
			c-0.3-0.3-0.8-0.4-1.4-0.4c-0.4,0-0.9,0.1-1.3,0.2c-0.4,0.1-0.8,0.3-1.1,0.5l-0.8-1.6c0.4-0.3,1-0.5,1.6-0.7s1.2-0.3,1.9-0.3
			C353.5,726.4,354.5,726.7,355.1,727.3z M353.1,732.9c0.3-0.2,0.5-0.5,0.7-0.8v-0.8h-1.6c-1,0-1.4,0.3-1.4,0.9
			c0,0.3,0.1,0.5,0.4,0.7c0.2,0.2,0.6,0.3,1,0.3C352.5,733.1,352.8,733,353.1,732.9z"/>
	</g>
	<g class="st2">
		<path class="st3" d="M366.6,723.5v11.1h-2.2v-0.9c-0.6,0.7-1.4,1-2.5,1c-0.8,0-1.4-0.2-2.1-0.5c-0.6-0.3-1.1-0.8-1.4-1.5
			c-0.4-0.6-0.5-1.4-0.5-2.2s0.2-1.6,0.5-2.2c0.3-0.6,0.8-1.1,1.4-1.5c0.6-0.3,1.3-0.5,2.1-0.5c1,0,1.8,0.3,2.4,1v-3.9H366.6z
			 M363.7,732.2c0.4-0.4,0.6-0.9,0.6-1.6c0-0.7-0.2-1.2-0.6-1.6c-0.4-0.4-0.9-0.6-1.5-0.6c-0.6,0-1.1,0.2-1.5,0.6
			c-0.4,0.4-0.6,0.9-0.6,1.6c0,0.7,0.2,1.2,0.6,1.6c0.4,0.4,0.9,0.6,1.5,0.6C362.8,732.8,363.3,732.6,363.7,732.2z"/>
		<path class="st3" d="M374.8,727.3c0.7,0.6,1,1.5,1,2.7v4.6h-2.2v-1c-0.4,0.8-1.3,1.1-2.5,1.1c-0.6,0-1.2-0.1-1.6-0.3
			s-0.8-0.5-1-0.9c-0.2-0.4-0.4-0.8-0.4-1.3c0-0.8,0.3-1.3,0.8-1.8s1.4-0.6,2.6-0.6h1.9c0-0.5-0.2-0.9-0.5-1.2
			c-0.3-0.3-0.8-0.4-1.4-0.4c-0.4,0-0.9,0.1-1.3,0.2c-0.4,0.1-0.8,0.3-1.1,0.5l-0.8-1.6c0.4-0.3,1-0.5,1.6-0.7s1.2-0.3,1.9-0.3
			C373.2,726.4,374.2,726.7,374.8,727.3z M372.9,732.9c0.3-0.2,0.5-0.5,0.7-0.8v-0.8h-1.6c-1,0-1.4,0.3-1.4,0.9
			c0,0.3,0.1,0.5,0.4,0.7c0.2,0.2,0.6,0.3,1,0.3C372.2,733.1,372.5,733,372.9,732.9z"/>
	</g>
	<g class="st2">
		<path class="st3" d="M239.8,638.3h-4.9l-0.9,2.3h-2.5l4.7-10.5h2.4l4.7,10.5h-2.6L239.8,638.3z M239,636.5l-1.7-4l-1.7,4H239z"/>
	</g>
	<g class="st2">
		<path class="st3" d="M252.5,632.5v6.7c0,1.5-0.4,2.6-1.2,3.3c-0.8,0.7-1.9,1.1-3.4,1.1c-0.8,0-1.5-0.1-2.2-0.3
			c-0.7-0.2-1.3-0.5-1.7-0.8l0.9-1.7c0.3,0.3,0.8,0.5,1.3,0.7c0.5,0.2,1,0.2,1.6,0.2c0.8,0,1.4-0.2,1.8-0.5c0.4-0.4,0.6-0.9,0.6-1.7
			v-0.3c-0.6,0.7-1.5,1-2.5,1c-0.7,0-1.4-0.2-2-0.5c-0.6-0.3-1.1-0.8-1.5-1.4s-0.5-1.3-0.5-2c0-0.8,0.2-1.4,0.5-2s0.8-1,1.5-1.4
			c0.6-0.3,1.3-0.5,2-0.5c1.2,0,2.1,0.4,2.7,1.2v-1H252.5z M249.6,637.7c0.4-0.4,0.6-0.8,0.6-1.4s-0.2-1.1-0.6-1.4s-0.9-0.5-1.5-0.5
			s-1.1,0.2-1.5,0.5c-0.4,0.4-0.6,0.8-0.6,1.4s0.2,1.1,0.6,1.4c0.4,0.4,0.9,0.5,1.5,0.5S249.2,638.1,249.6,637.7z"/>
		<path class="st3" d="M256.2,640.2c-0.7-0.4-1.2-0.8-1.6-1.5c-0.4-0.6-0.6-1.3-0.6-2.1s0.2-1.5,0.6-2.1c0.4-0.6,0.9-1.1,1.6-1.5
			c0.7-0.4,1.4-0.5,2.3-0.5s1.6,0.2,2.3,0.5c0.7,0.4,1.2,0.8,1.6,1.5c0.4,0.6,0.6,1.3,0.6,2.1s-0.2,1.5-0.6,2.1
			c-0.4,0.6-0.9,1.1-1.6,1.5c-0.7,0.4-1.4,0.5-2.3,0.5S256.9,640.5,256.2,640.2z M260,638.2c0.4-0.4,0.6-0.9,0.6-1.6
			s-0.2-1.2-0.6-1.6c-0.4-0.4-0.9-0.6-1.5-0.6s-1.1,0.2-1.5,0.6c-0.4,0.4-0.6,0.9-0.6,1.6s0.2,1.2,0.6,1.6s0.9,0.6,1.5,0.6
			S259.6,638.6,260,638.2z"/>
		<path class="st3" d="M265.2,640.5c-0.6-0.2-1.2-0.4-1.5-0.6l0.8-1.7c0.4,0.2,0.8,0.4,1.3,0.6c0.5,0.1,1,0.2,1.5,0.2
			c1,0,1.5-0.2,1.5-0.7c0-0.2-0.1-0.4-0.4-0.5s-0.7-0.2-1.2-0.3c-0.7-0.1-1.2-0.2-1.6-0.3c-0.4-0.1-0.8-0.4-1.1-0.7
			c-0.3-0.3-0.5-0.8-0.5-1.4c0-0.5,0.1-1,0.4-1.4s0.7-0.7,1.3-0.9c0.6-0.2,1.2-0.3,2-0.3c0.6,0,1.1,0.1,1.7,0.2
			c0.6,0.1,1,0.3,1.4,0.5l-0.8,1.7c-0.7-0.4-1.5-0.6-2.3-0.6c-0.5,0-0.9,0.1-1.1,0.2c-0.3,0.1-0.4,0.3-0.4,0.5
			c0,0.3,0.1,0.4,0.4,0.5c0.3,0.1,0.7,0.2,1.3,0.3c0.7,0.1,1.2,0.2,1.6,0.4s0.8,0.4,1.1,0.7c0.3,0.3,0.5,0.8,0.5,1.4
			c0,0.5-0.1,0.9-0.5,1.3c-0.3,0.4-0.7,0.7-1.3,0.9c-0.6,0.2-1.3,0.3-2,0.3C266.5,640.7,265.9,640.6,265.2,640.5z"/>
		<path class="st3" d="M277.6,640.2c-0.2,0.2-0.5,0.3-0.8,0.4c-0.3,0.1-0.7,0.1-1.1,0.1c-1,0-1.7-0.2-2.2-0.7
			c-0.5-0.5-0.8-1.2-0.8-2.2v-3.3h-1.2v-1.8h1.2v-2h2.3v2h2v1.8h-2v3.3c0,0.3,0.1,0.6,0.3,0.8c0.2,0.2,0.4,0.3,0.7,0.3
			c0.4,0,0.7-0.1,0.9-0.3L277.6,640.2z"/>
	</g>
	<g id="Texto_14_">
		<circle class="st3" cx="758" cy="440.5" r="3.7"/>
	</g>
	<g id="Texto_1_">
		<circle class="st3" cx="630.4" cy="514.5" r="3.7"/>
	</g>
	<g id="Texto2_">
		<circle class="st3" cx="566.4" cy="374.7" r="3.7"/>
	</g>
	<g id="Texto_3_">
		<circle class="st3" cx="700.9" cy="221.7" r="3.7"/>
	</g>
	<g id="Texto_4_">
		<circle class="st3" cx="602.3" cy="660.3" r="3.7"/>
	</g>
	<g id="Texto_5_">
		<circle class="st3" cx="662.5" cy="762.9" r="3.7"/>
	</g>
	<g id="Texto_6_">
		<circle class="st3" cx="504.8" cy="842.7" r="3.7"/>
	</g>
	<g id="Texto_7_">
		<circle class="st3" cx="310" cy="833.7" r="3.7"/>
	</g>
	<g id="Texto_8_">
		<circle class="st3" cx="282.1" cy="778.3" r="3.7"/>
	</g>
	<g id="Texto_9_">
		<circle class="st3" cx="337.7" cy="741" r="3.7"/>
	</g>
	<g id="Texto_10_">
		<circle class="st3" cx="480.7" cy="722" r="3.7"/>
	</g>
</g>
</svg>
