<svg xmlns="http://www.w3.org/2000/svg" viewBox="0 0 1080 1080">
    <defs>
        <style>.cls-2{fill:none;stroke:#fff;stroke-miterlimit:10;stroke-width:8px;}.cls-3{font-size:15px;}.cls-13,.cls-18,.cls-21,.cls-3{fill:#fff;}.cls-13,.cls-18,.cls-3{font-family:Montserrat-Bold, Montserrat;font-weight:700;}.cls-4{letter-spacing:-0.055em;}.cls-5{letter-spacing:-0.004em;}.cls-6{letter-spacing:-0.009em;}.cls-7{letter-spacing:-0.01em;}.cls-8{letter-spacing:-0.017em;}.cls-9{letter-spacing:0.006em;}.cls-10{letter-spacing:-0.005em;}.cls-11{letter-spacing:-0.007em;}.cls-12{letter-spacing:-0.017em;}.cls-13{font-size:12px;}.cls-14{letter-spacing:-0.004em;}.cls-15{letter-spacing:-0.007em;}.cls-16{letter-spacing:-0.01em;}.cls-17{letter-spacing:-0.018em;}.cls-18{font-size:9.3587px;}.cls-19{letter-spacing:-0.007em;}.cls-20{letter-spacing:-0.005em;}</style>
    </defs>
    <g id="2_El_Campello" data-name="2_El_Campello" class="zone">
        <path class="cls-1" d="M782.2109,578.4224c12.6221-6.3111,39.8106-23.1109,59.0381-41.3262,19.0479-18.0449,45.1416-35.1782,49.8223-37.6025,2.6738-2.2666,9.7422-19.399,7.9756-30.8853C897.23,456.8,886.8408,443.77,882.9424,441.43c-2.4131-1.3892-18.2549-4.4439-31.5469-6.4761l-.3652-.0737c-.7735-.1929-5.1865-1.5117-16.1778-8.5059a20.49,20.49,0,0,1-1.8779-1.35L767.7764,487.88c-.4815.4751-5.2549,4.9614-14.28,6.0893-10.8037,1.3516-12.2363-5.0078-13.0977-8.8071-.0879-.3882-.1777-.7866-.2793-1.1919a14.481,14.481,0,0,1-.3691-6.3432A24.6878,24.6878,0,0,0,740,474c0-3.2915-1.0068-6.7227-2.292-7.8115a1.0892,1.0892,0,0,0-1.0508-.2432c-.8193.1367-1.71.2564-2.6572.3828-5.7559.7681-12.9189,1.7241-18.877,9.1709-7.37,9.2124-12.2959,17.87-13.1777,23.1587l-.2041,1.2632c-1.0039,6.3018-2.6846,16.8491-12.5224,23.4072-8.5342,5.69-48.1348,36.7657-50.628,38.7227-.5639.5157-2.791,2.5257-5.8454,4.9742a68.8609,68.8609,0,0,0,14.2019-1.8839c7.292-1.9883,14.6748-3.3389,19.31.2007C668.7412,567.2383,670,570.1514,670,574a126.1945,126.1945,0,0,0,2.8809,23.03c1.0825,4.33,2.1384,23.4648.1428,35.166,6.2851,5.7607,30.8066,27.1451,49.0115,27.8042-.0027-.207-.0052-.4142-.0079-.6182C722.0146,658.34,722,657.2139,722,656c0-11.7124,6.8623-31.4868,19.9775-46.62C756.5488,592.5669,769.9258,584.5649,782.2109,578.4224Z"/>
    </g>
    <g id="2_San_Juan" data-name="2_San_Juan" class="zone">
        <path class="cls-1" d="M671.6392,641.6855l-.1265.9869c-1.5078,11.7627-3.2168,25.0947-8.1846,32.5464-1.3437,2.0151-2.9834,4.6064-4.72,7.35-7.9619,12.5791-14.4453,22.4634-19.39,25.7593-.8809.5874-2.003,1.3731-3.3057,2.2837-6.7307,4.707-13.6118,9.3348-19.8215,12.2683.8356,8.0376,3.2463,30.62,4.8439,39.4046,1.5142,8.3278,7.66,21.6919,10.0235,26.6354.3135.0559.6269.11.94.1824,14.9942,3.46,16.8858,9.1089,18.0606,17.3321C650.2812,808.6816,662.3428,813,678,813c4.2783,0,8.3105.3545,11.8682.668.458.04.9326.082,1.4121.1225A7.8687,7.8687,0,0,1,689,808c0-2.248-.2217-5.4575-.4561-8.855C688.2764,795.2759,688,791.2744,688,788c0-3.7686,1.8008-63.8628,6.1543-79.0991a184.3848,184.3848,0,0,0,3.9619-18.9907c1.5752-9.1665,2.5693-14.49,4.6836-17.31a19.1527,19.1527,0,0,1,8.2224-6.6163C695.6489,661.1319,679.85,648.7752,671.6392,641.6855Z"/>
    </g>
    <g id="2_Mutxamell" data-name="2_Mutxamell" class="zone">
        <path class="cls-1" d="M613.293,578.46c-4.09,1.3872-7.584,2.5727-11.2813,2.5727-3.3467,0-6.8594-.97-11.1318-3.6406-8.1035-5.065-17.9629-12.936-18.3789-13.2686l-.3067-.2631c-.4775-.3707-3.32-2.292-9.3261-.9556-8.4815,1.8848-21.9405,6.3364-23.4571,6.8413-1.9843.792-7.8593,1.9009-24.0683-.8008-16.8643-2.81-33.84-10.0148-38.0449-11.8758-4.775.3847-25.1907,2.04-33.9,2.9105-5.4668.5469-5.5888.7456-7.6191,4.0654A63.4429,63.4429,0,0,1,432.2,569.4c-3.332,4.4419-2.5928,5.8481-1.4746,7.9766a15.7669,15.7669,0,0,1,1.0693,2.3584c.5283,1.5864,4.7344,10.6552,8.1143,17.9423,2.5234,5.4419,5.1328,11.0689,6.7461,14.6983,3.3994,7.6494,15.4092,19.9956,27.2441,22.727,11.0469,2.5494,22.8926,11.3829,28.586,15.6285.9746.727,2.0791,1.55,2.3974,1.7412,3.252,1.8149,31.169,24.9414,38.1279,32.894,3.36,3.84,9.417,8.8657,15.2745,13.7261,5.9609,4.9458,11.5908,9.6172,14.7519,13.3047A15.9139,15.9139,0,0,0,584.0342,718H605c6.39,0,19.8564-9.418,26.3281-13.9438,1.36-.9517,2.5332-1.771,3.4531-2.3843,3.9239-2.6157,11.8331-15.1123,17.0674-23.3814,1.7627-2.7846,3.4268-5.4155,4.8233-7.5093,3.9277-5.8916,5.5791-18.7744,6.9052-29.1259.4893-3.8169.9512-7.4219,1.4874-10.3706,1.9648-10.8081.8447-29.1563.0546-32.3145A131.7708,131.7708,0,0,1,662,574c0-.6885-.0781-1.9028-.5986-2.3008-.64-.4883-3.127-1.3545-12.3487,1.16-9.73,2.6534-23.4406,2.3751-27.87,2.2008a34.6386,34.6386,0,0,1-5.9183,2.7352Q614.2379,578.1369,613.293,578.46Z"/>
    </g>
    <g id="2_Busot_|_Aigues_|_Jijona" data-name="2_Busot_/_Aigues_/_Jijona" class="zone">
        <path class="cls-1" d="M431.8708,518.3049c4.3326,1.5962,10.3013,3.7271,14.2278,4.8489,7.9971,2.2847,17.2725,11.56,21.73,16.0176,3.334,3.3335,10.5391,9.0327,12.2559,10.38,2.8594,1.2744,20.0976,8.7568,36.5732,11.5024,13.8907,2.3159,18.7032,1.5161,19.669,1.2866l.3681-.2612.0342.1279c.6094-.2046,15.0459-5.0327,24.4033-7.1123,9.9678-2.2143,15.2481,1.771,16.4707,2.8638,1.0733.8535,10.2383,8.1,17.5176,12.6489,5.7774,3.6113,8.2529,2.7705,15.6026.2759q.9652-.3274,2.0127-.6787c6.7138-2.2378,17.1113-10.9688,20.5517-14.1446l.2412-.206c1.7207-1.3511,42.2266-33.1655,51.2529-39.1826,6.9258-4.6172,8.1592-12.3579,9.06-18.01l.2139-1.3193c1.1279-6.772,6.3926-16.3042,14.8223-26.8413,7.9628-9.9536,17.6523-11.2466,24.0644-12.1026.8565-.1142,1.6611-.2207,2.4014-.3442a9.0311,9.0311,0,0,1,7.5361,2.03C746.6543,463.2827,748,469.37,748,474a32.3532,32.3532,0,0,1-.3184,4.6675,6.73,6.73,0,0,0,.1993,3.3623c.1152.4634.22.9194.32,1.3642a9.66,9.66,0,0,0,.7773,2.545c.001,0,.7266.4423,3.5254.0918,6.3457-.793,9.584-3.7828,9.7188-3.91L828.1941,418.52c-1.4529-4.0138-.8479-8.0623-.4148-10.9564a14.8823,14.8823,0,0,0,.2988-3.7788c-.207-1.0347-.4785-2.6919-.8213-4.79-.9423-5.7578-3.8076-23.28-6.38-26.4956C815.8115,366.168,812,347.8125,812,339c0-9.1113-3.4043-9.6787-5.6572-10.0547-3.6231-.602-10.5078.1289-15.0625.6133-2.4092.2563-4.1494.4414-5.28.4414-3.65,0-17.5674-2.292-18.9688-13.5039l-.1914-1.4736c-1.0117-7.6787-2.3964-18.1949,9.47-28.9825,6.1533-5.5942,15.1543-12.788,22.3867-18.5688,5.5732-4.4536,10.8359-8.6607,12.4756-10.3,3.5576-3.5576,9.4219-18.0327,7.9824-23.0723-2.4473-8.5659-8.9609-19.6782-11.8115-20.1538a20.6058,20.6058,0,0,1-6.7315-2.5747c-2.6933-1.4541-4.4726-2.4145-8.7431-1.4658-8.1348,1.8076-16.7823,2.1753-24.9053-7.3018a31.8276,31.8276,0,0,1-4.8662-8.1294c-1.8135-3.9712-2.8125-6.1591-8.1494-7.6147-6.1006-1.6641-36.6035-10.91-37.9375-29.5737-.3008-4.2159-.78-7.5215-1.2432-10.7178-1.0166-7.01-1.8936-13.0645.3223-23.4053,1.9394-9.0532-10.1856-17.9829-15.0215-20.66l-.2862-.1743c-.0888-.0566-11.2626-7.102-32.2636-4.3618-21.793,2.8423-64.4805,21.5078-64.9092,21.6963l-.3145.1226c-.7822.267-78.373,26.9-94.5527,42.1274-1.3262,1.249-2.6162,2.4487-3.8711,3.6162-14.8193,13.7827-23.7637,22.1025-29.957,51.3013-6.6377,31.2925-15.1992,86.8232-15.9121,91.4668.0156,2.6426.2187,22.2011,2.8965,33.8037,3.6084,15.6377,3.8545,25.2866.8476,33.3037a67.87,67.87,0,0,1-5.7939,10.8491c-3.1787,5.2139-6.4668,10.606-6.9756,15.1885-.9209,8.2856.9082,31.2012,2.0049,42.16.0322.3256,2.5654,33.0693-3.0459,39.1167-.8467,1.19-3.0586,6.7514-4.84,11.23C438.908,504.4753,435.3679,513.0026,431.8708,518.3049Z"/>
    </g>
    <g id="2_San_Vicente_del_Raspeig" data-name="2_San_Vicente_del_Raspeig" class="zone">
        <path class="cls-1" d="M373.7178,538.6979c3.2646,9.7244,7.6675,21.03,10.11,23.4735a33.0477,33.0477,0,0,0,2.8369,2.4121c4.75,3.7529,11.2549,8.8926,10.3282,24.6514-.2666,4.5249-.6631,8.68-1.0469,12.6972-1.0195,10.6724-1.8242,19.1016.7676,25.5825.7519,1.879,1.7119,4.149,2.7275,6.5523C403.95,644.728,410.125,659.33,410.9863,669.668c.1436,1.728.31,3.351.4678,4.9087.6011,5.9121,1.1189,11.0634.1521,17.3479L411,694c.0186.1929,3.2393,17.376,23.6143,34.9727,2.9228,2.5239,5.4931,4.7661,7.7851,6.7661,14.7549,12.8711,17.4141,15.19,28.6992,18.415,2.9952.8555,5.5274,1.6621,7.7627,2.374,8.1573,2.5972,11.5332,3.6724,19.086,1.6133,7.8154-2.1313,18.1689-13.7871,21.7207-18.37,1.3476-2.3057,10.7109-17.5562,23.6748-19.7168,2.1406-.3564,4.0107-.689,5.74-.9966a136.3651,136.3651,0,0,1,17.1777-2.2355c-2.9084-3.1289-8.072-7.4147-13.0839-11.5731-6.0987-5.061-12.4063-10.2939-16.1875-14.6152-6.5694-7.5083-32.9161-29.2173-35.8985-31.1177a31.8887,31.8887,0,0,1-3.3887-2.3721c-5.2548-3.9194-16.1914-12.0747-25.6015-14.2465-13.7539-3.1739-28.041-16.6646-32.7559-27.273-1.5869-3.5708-4.1826-9.1684-6.6933-14.5815-4.8379-10.4312-7.82-16.9-8.4463-18.7779a10.2544,10.2544,0,0,0-.5615-1.1679c-1.4707-2.8-4.2081-8.0108,2.1562-16.4971a55.4813,55.4813,0,0,0,3.1543-4.729c3.0674-5.0142,5.0381-6.99,13.6475-7.8511,5.87-.5871,16.98-1.5246,25.13-2.1969-2.0556-1.7362-4.103-3.5378-5.56-4.9945-3.3555-3.355-12.2676-12.2671-18.27-13.9824-5.64-1.6116-14.83-5.0273-18.6263-6.4618-8.6877,4.3892-29.0244,11.6354-39.5593,13.5511A62.9007,62.9007,0,0,1,373.7178,538.6979Z"/>
    </g>
    <g id="2_Barriadas_de_Alicante" data-name="2_Barriadas_de_Alicante" class="zone">
        <path class="cls-1" d="M248.7891,830.4224c5.7109,2.8554,25.47,13.2168,39.9326,26.6464,3.8237,3.5506,11.3442,9.9538,20.2178,17.3552,4.5305-4.44,15.9091-15.32,21.2714-18.0016,6.7666-3.3833,17.5557-10.8995,20.211-16.2115,2.248-4.4951,1.69-8.2236-.2168-13.9458-1.0567-3.1709-1.4932-3.64-2.0977-4.2895-1.3691-1.4727-2.6767-3.1279-4.8213-8.49-4.3115-10.7793-11.95-24.4932-14.1142-26.6568-4.2569-4.2568-4.542-10.7851-.8487-19.4043,2.8975-6.7612,11.5762-10.104,18.55-12.7895,2.045-.7876,3.9766-1.5318,5.3379-2.2124,3.54-1.77,12.8057-7.9761,20.9805-13.4512,4.9658-3.3267,9.6572-6.4683,12.6885-8.3633,5.1172-3.1977,7.4355-9.4814,10.9463-18.9927,1.0058-2.7275,2.1474-5.8183,3.46-9.1006,4.7578-11.8955,4.1416-17.9555,3.209-27.1284-.1631-1.604-.333-3.2749-.4814-5.0542-.7549-9.0644-6.6416-22.9848-10.94-33.1494-1.0312-2.44-2.0068-4.7451-2.7871-6.6972-3.3125-8.2813-2.3818-18.0284-1.3037-29.314.377-3.9463.7666-8.0269,1.0244-12.4063.6827-11.5966-3.0175-14.52-7.3007-17.9047a39.267,39.267,0,0,1-3.5342-3.0318c-4.65-4.65-10.5843-21.9845-13.0615-29.69a76.637,76.637,0,0,1-20.8392-4.9747c7.5335,12.7777,14.5686,25.2151,15.5745,28.7368.3057,1.0693.668,2.1289,1.0508,3.251,1.9853,5.8154,4.457,13.0532-1.3848,23.7636-5.2383,9.6031-11.9492,13.7578-16.39,16.5074-1.084.6709-2.02,1.25-2.7217,1.7773-3.1524,2.3638-6.0225,9.1851-8.6553,16.2041-2.6133,6.9683-.583,14.3032,2,21.1914,1.0264,2.7358,2.8516,4.1694,4.9649,5.83C341.5117,652.6274,345,655.3672,345,661a34.719,34.719,0,0,0,.5469,5.14c.8818,5.76,1.98,12.9292-2.9151,23.5362-4.3974,9.5273-6.6894,11.2754-11.6582,13.5234a36.19,36.19,0,0,0-5.7548,3.1284c-6.77,4.5132-23.7745,15.2622-35.4346,17.5943-10.12,2.0239-35.4063,3.9834-36.4776,4.0659-5.3952.4909-19.5568,1.9791-25.5141,3.3871a42.3785,42.3785,0,0,1,1.1987,13.8907,62.3689,62.3689,0,0,1-3.18,15.7046c-1.4453,4.6279-2.3174,7.4219-.98,11.88a44.1384,44.1384,0,0,0,3.0293,7.2939c2.3984,4.8716,4.8779,9.9087,4.1308,21.1216C231.1123,814.4468,244.1279,828.0918,248.7891,830.4224Z"/>
    </g>
    <g id="2_Agost" data-name="2_Agost" class="zone">
        <path class="cls-1" d="M229.3271,578.2207l-.4433.6631-.665.4443A53.6558,53.6558,0,0,1,212.97,585.88c-7.9677,1.9922-30.1787,6.8237-31.12,7.0283l-.5644.081c-3.1475.2339-12.8623,1.9-16.03,6.335-6.6709,9.34-10.9043,18.8428-10.2949,23.11.2793,1.956.4072,4.5659.5566,7.5883.3447,7.0162.9219,18.7588,4.3115,22.1485l25,25c1.0186.9785,26.3291,25.3535,32.5,34.61.584.8765,1.169,1.7334,1.7461,2.5811a82.347,82.347,0,0,1,5.8465,9.4943c7.3037-1.9447,25.5471-3.6427,27.717-3.84.3135-.0244,25.93-2.0093,35.5781-3.939,7.1172-1.4233,19.291-7.5566,32.5654-16.4057a44.203,44.203,0,0,1,6.8946-3.7608c3.0888-1.3974,4.13-1.8681,7.6924-9.5874,3.8867-8.4218,3.0654-13.7851,2.27-18.9721A41.8427,41.8427,0,0,1,337,661c0-1.5728-.6543-2.2583-3.2324-4.2837-2.4053-1.89-5.7-4.478-7.5127-9.312-3.13-8.3467-5.5391-17.3716-2-26.8086,2.9795-7.9458,6.31-16.019,11.3447-19.7959.9883-.7412,2.1172-1.4394,3.3115-2.1787,4.166-2.58,9.3526-5.79,13.5772-13.5366,4.1582-7.6226,2.6924-11.9141.8379-17.3477-.3994-1.167-.8116-2.3735-1.1719-3.6377-1.31-4.5815-20.1929-36.2242-32.5081-56.29-6.164-9.2638-11.1389-18.0692-12.1384-19.8579l-9.1894-17.3565c-.294-.4189-1.85-2.18-6.877-1.6191-3.71.4121-5.3379,2.76-7.2226,5.478-1.52,2.1914-3.2413,4.6753-6.2491,5.4268-4.27,1.0678-11.8125,1.1181-12.914,1.12-.3008.4419-1.0557,1.9551-1.0557,6a107.1233,107.1233,0,0,0,.8643,11.2251c.9384,8.4434,1.9082,17.1738-1.2862,23.564a66.987,66.987,0,0,0-3.2031,8.9013c-2.7773,8.8325-6.2334,19.8252-14.5469,28.1382A145.0945,145.0945,0,0,0,229.3271,578.2207Z"/>
    </g>
    <g id="2_Alicante" data-name="2_Alicante" class="zone">
        <path class="cls-1" d="M601.4082,801.9214c1.8359-1.88,10.5552-10.3281,20.8525-12.6913-2.9858-6.4876-7.7722-17.6656-9.1992-25.5148-1.55-8.5258-3.75-28.74-4.73-38.0817a16.8093,16.8093,0,0,1-3.3349.3664h-21a22.4176,22.4176,0,0,1-7.4424-1.6005c-13.585.32-18.3384,1.16-26.0742,2.5346-1.7559.312-3.6534.6494-5.8262,1.0117-8.251,1.375-15.916,12.03-18.1729,16.0195l-.3066.4644c-1.415,1.85-14.167,18.168-26.125,21.4292a34.2842,34.2842,0,0,1-9.126,1.3628c-4.8486,0-8.9668-1.3115-14.4931-3.0713-2.1817-.6943-4.6534-1.4819-7.5323-2.3042-13.0019-3.7149-16.6035-6.8565-31.7607-20.0791-2.2842-1.9922-4.8438-4.2256-7.7549-6.74C417.321,724.61,410.9966,713.688,407.6936,705.53c-1.2646,3.1645-2.3332,6.058-3.3655,8.8553-3.9336,10.6587-6.7754,18.36-14.2109,23.0073-2.9248,1.8276-7.5645,4.9355-12.4766,8.2256-8.7812,5.8818-17.8613,11.9634-21.8545,13.96-1.706.8531-3.8115,1.6636-6.04,2.5225-5.2773,2.0322-12.5039,4.8154-14.0723,8.4756-1.5664,3.6543-2.9853,8.46-.8486,10.5957,3.6592,3.6587,11.9307,19.4565,15.8857,29.3432,1.7657,4.4136,2.5557,5.2637,3.253,6.0137,1.3007,1.3989,2.3369,2.7354,3.8281,7.2066,1.9853,5.9565,3.6045,12.4116-.2168,20.0542-4.3184,8.6347-18.6367,17.2124-23.7891,19.7885-3.4843,1.7423-12.4707,9.9519-18.6643,15.9869,21.4322,17.7534,47.1951,38.5538,49.2581,40.2187,14.6924,9.9722,55.0683,36.2065,67.5869,39.3364,7.8984,1.9746,31.9336,7.9825,40.7734,1.4278,2.0723-1.5357,3.1084-3.68,3.2618-6.7471,1.0078-20.1465,9.7373-56.22,10.1084-57.7456l.0273-.106c1.6953-6.2226,8.03-26.6264,18.3633-27.9179,5.9951-.7491,8.1777.0068,10.8135,1.9853a8.3584,8.3584,0,0,0,1.9414,1.1763c.8632-.6426,2.2382-3.1392,2.9121-5.35l.1523-.418c.1651-.3847,4.16-9.4243,14.6768-9.4243a3.303,3.303,0,0,0,2.623-.8086c1.4248-1.4365,1.3945-4.9541,1.38-6.6445L538.9971,848c0-6.8926,13.0791-13.5117,13.2109-13.5776C554.9346,833.0591,583.6748,813.87,601.4082,801.9214Z"/>
    </g>
    <g id="_Strokes">
        <path class="cls-2" d="M601,116s-79,27-96,43-28,24-35,57-16,92-16,92,0,22,3,35,4,23,1,31-12,18-13,27,1,33,2,43,1,33-2,36-13,36-20,40-29,12-40,14-33,0-44-7-30-41-30-41l-9-17s-2-5-11-4-10,10-14,11-12,1-12,1-5-1-5,10,4,25,0,33-6,25-17,36a147.1753,147.1753,0,0,0-17,20,49.7713,49.7713,0,0,1-14,6c-8,2-31,7-31,7s-14,1-19,8-12,19-11,26,0,26,6,32l25,25s26,25,32,34,12,16,11,31-7,19-4,29,8,12,7,27,13,30,19,33,25,13,39,26,76,63,76,63,53,36,69,40,48,11,49-9,10-57,10-57,6.522-23.94,15-25c8-1,6.3576,1.143,11,3,5,2,8-8,8-8a12.2741,12.2741,0,0,1,11-7c8.544,0,8-9,8-12s7-8,11-10,50-33,50-33,14-15,27-12,14,7,15,14,20,10,32,10,23,3,22-1-7-3-7-8-1-14-1-20,2-64,6-78,5-31,8-35,7-7,14-6,6-3,6-13,6-29,19-44,25-23,39-30,41-24,60-42,45-35,49-37,12-22,10-35-13-27-18-30c-4.3724-2.6234-33-7-33-7s-4-1-15-8c-9.6192-6.1213-4-15-5-20s-4-28-8-33-8-22-8-31-3-13-9-14-18,1-21,1-14-2-15-10-3-17,8-27,31-25,35-29,11-20,9-27-9-22-15-23-8-6-17-4-15,1-21-6-4-14-15-17-34-12-35-26-4-19-1-33-17-25-17-25-12-8-35-5C644.388,96.9494,601,116,601,116Z"/>
        <path class="cls-2" d="M833.0879,419.3584,765,485s-4.0618,4.0077-12,5c-8,1-7.9153-2.6614-9-7-1-4,0-4,0-9s-2-13-8-12-16,1-24,11-13,19-14,25-2,16-11,22-51,39-51,39-13,12-22,15-13,5-21,0-18-13-18-13-4-4-13-2c-9.2609,2.058-24,7-24,7s-4,2-22-1c-18.7155-3.1193-38-12-38-12s-9-7-13-11-13-13-20-15-20-7-20-7"/>
        <path class="cls-2" d="M322,504s32,52,34,59,6,13,0,24-14,14-18,17-7,10-10,18-1,16,2,24,11,8,11,15,4,14-2,27-7,9-16,15-24,15-34,17-36,4-36,4-22,2-28,4"/>
        <path class="cls-2" d="M368,534s8,26,13,31,13,7,12,24-4,30,0,40,13,29,14,41,3,19-3,34-8,25-16,30-28,19-34,22-19,6-22,13-3,12,0,15,11,18,15,28,4.28,4.8391,7,13c2,6,3,11,0,17-3.4928,6.9857-16,15-22,18s-22,19-22,19"/>
        <path class="cls-2" d="M620,571s17,1,28-2,18-3,18,5a129.4363,129.4363,0,0,0,3,24c1,4,2,23,0,34s-3,32-9,41-17,28-23,32-23,17-32,17H584a19.9694,19.9694,0,0,1-14-7c-6-7-23-19-30-27s-35-31-37-32-17-14-30-17-26-16-30-25-14-30-15-33-5-6,1-14,4-10,14-11,35-3,35-3"/>
        <path class="cls-2" d="M668.72,633.6484S701,665,724,664"/>
        <path class="cls-2" d="M611.8137,720.38S615,752,617,763s11.3147,29.6308,11.3147,29.6308"/>
        <path class="cls-2" d="M407,694s3,19,25,38,24,22,38,26,18,7,29,4,24-20,24-20,9-16,21-18,15.559-3.2393,33.2795-3.62"/>
    </g>
    <g id="_texto" class="text">
        <text class="cls-3" transform="translate(668.6519 218.5913)">
            <tspan class="cls-4">T</tspan>
            <tspan x="8.4448" y="0">o</tspan>
            <tspan class="cls-5" x="18.27" y="0">r</tspan>
            <tspan class="cls-6" x="24.6753" y="0">r</tspan>
            <tspan x="31.0054" y="0">emanzanas</tspan>
        </text>
        <text class="cls-3" transform="translate(510.6519 377.5913)">Jijona / <tspan class="cls-7" x="61.0488" y="0">X</tspan>
            <tspan x="71.6089" y="0">i</tspan>
            <tspan class="cls-8" x="76.124" y="0">x</tspan>
            <tspan x="84.7935" y="0">ona</tspan>
        </text>
        <text class="cls-3" transform="translate(745.6519 438.5913)">Aigües</text>
        <text class="cls-3" transform="translate(603.6519 511.5913)">Busot</text>
        <text class="cls-3" transform="translate(547.6519 663.5913)">Mut<tspan class="cls-7" x="31.1548" y="0">x</tspan>
            <tspan x="39.9297" y="0">a</tspan>
            <tspan class="cls-9" x="49.1846" y="0">m</tspan>
            <tspan x="65.0093" y="0">el</tspan>
        </text>
        <text class="cls-3" transform="translate(431.6519 693.5913)">San <tspan class="cls-10" x="33.4346" y="0">V</tspan>
            <tspan x="44.5493" y="0">i</tspan>
            <tspan class="cls-11" x="49.0645" y="0">c</tspan>
            <tspan x="57.8242" y="0">en</tspan>
            <tspan class="cls-12" x="77.6543" y="0">t</tspan>
            <tspan x="83.9243" y="0">e</tspan>
            <tspan x="0" y="18">del </tspan>
            <tspan class="cls-10" x="28.6045" y="18">R</tspan>
            <tspan x="39.5542" y="18">aspeig</tspan>
        </text>
        <text class="cls-13" transform="translate(629.6519 752.5913)">San Juan</text>
        <text class="cls-3" transform="translate(702.6519 556.5913)">El <tspan class="cls-14" x="18.8247" y="0">C</tspan>
            <tspan x="29.7593" y="0">ampello</tspan>
        </text>
        <text class="cls-3" transform="translate(393.6519 851.5913)">Alican<tspan class="cls-12" x="49.0044" y="0">t</tspan>
            <tspan x="55.2744" y="0">e / Al</tspan>
            <tspan class="cls-9" x="95.1138" y="0">a</tspan>
            <tspan x="104.4585" y="0">cant</tspan>
        </text>
        <text class="cls-3" transform="translate(243.6519 822.5913)">El Rebolledo</text>
        <text class="cls-3" transform="translate(234.6519 768.5913)">
            <tspan class="cls-9">L</tspan>
            <tspan x="9.1499" y="0">a Al</tspan>
            <tspan class="cls-11" x="38.6543" y="0">c</tspan>
            <tspan x="47.4141" y="0">o</tspan>
            <tspan class="cls-15" x="57.2393" y="0">r</tspan>
            <tspan class="cls-16" x="63.5996" y="0">a</tspan>
            <tspan class="cls-17" x="72.7041" y="0">y</tspan>
            <tspan x="81.4043" y="0">a</tspan>
        </text>
        <text class="cls-3" transform="translate(300.6519 734.5913)">
            <tspan class="cls-9">L</tspan>
            <tspan x="9.1499" y="0">a </tspan>
            <tspan class="cls-5" x="22.6494" y="0">C</tspan>
            <tspan x="33.5845" y="0">añ</tspan>
            <tspan class="cls-9" x="53.2041" y="0">a</tspan>
            <tspan x="62.5488" y="0">da</tspan>
        </text>
        <text class="cls-18" transform="translate(337.6523 640.4316)">El Mo<tspan class="cls-19" x="26.8125" y="0">r</tspan>
            <tspan x="30.7803" y="0">alet</tspan>
        </text>
        <text class="cls-3" transform="translate(231.6519 640.5913)">
            <tspan class="cls-20">A</tspan>
            <tspan x="11.415" y="0">gost</tspan>
        </text>
        <circle class="cls-21" cx="254.5" cy="653.5" r="4.5"/>
        <circle class="cls-21" cx="280.5" cy="777.5" r="4.5"/>
        <circle class="cls-21" cx="300.5" cy="834.5" r="4.5"/>
        <circle class="cls-21" cx="513.5" cy="859.5" r="4.5"/>
        <circle class="cls-21" cx="663.5" cy="763.5" r="4.5"/>
        <circle class="cls-21" cx="375.5" cy="650.5" r="4.5"/>
        <circle class="cls-21" cx="622.5" cy="678.5" r="4.5"/>
        <circle class="cls-21" cx="659.5" cy="516.5" r="4.5"/>
        <circle class="cls-21" cx="566.5" cy="350.5" r="4.5"/>
        <circle class="cls-21" cx="724.5" cy="196.5" r="4.5"/>
        <circle class="cls-21" cx="780.5" cy="448.5" r="4.5"/>
        <circle class="cls-21" cx="691.5" cy="556.5" r="4.5"/>
        <circle class="cls-21" cx="443.5" cy="723.5" r="4.5"/>
        <circle class="cls-21" cx="358.5" cy="713.5" r="4.5"/>
    </g>
</svg>