<svg id="Capa_2" data-name="Capa 2" xmlns="http://www.w3.org/2000/svg" viewBox="0 0 1080 1080">
    <defs>
        <style>.cls-2{fill:#fff;}</style>
    </defs>
    <g class="zone" id="3_Playa_de_San_Juan_-_El_Cabo" data-name=" 3_Playa_de_San_Juan_-_El_Cabo">
        <path d="M1001.2,659.3c-2.1-1.7-4.2-3.3-6.2-5a43.1919,43.1919,0,0,1-15.6-30.4c-3.8-52.6-.9-105.9,1.9-157.5.4-8,.8-16.1,1.3-24.1v-.4c.9-5.9.8-9.4-2.4-12.3l-.1-.1c-5.9-5.9-11.7-12.3-17.1-18.4-13.7-15-26.6-29.3-43.5-39.4a5.2389,5.2389,0,0,1-1.1-1c-3.9-5.4-5.2-11.8-6.5-17.9a82.7748,82.7748,0,0,0-2.5-9.8,17.7375,17.7375,0,0,1-1.1-4.4c0-.2-.1-.3-.1-.5l-4.9,4.5c-4.8,4.4-9.8,9-14.7,13.4-9.1,9.8-20.3,16.5-31.3,22.8-4.6,2.7-9.3,5.5-13.7,8.6a4.2088,4.2088,0,0,1-3.3.5c-10.7-3.3-21.2-9-31.4-14.6-9.6-5.2-19.4-10.5-29.1-13.7-15.8,3.9-31.6,8-45.3,11.8,1.7,22.3.8,41.1-2.6,58.7a4.1673,4.1673,0,0,1-.8,1.8c-5,6.1-11.5,11.3-17.6,16.3-3.5,2.8-6.9,5.5-10,8.4l-.3.3c-2.5,1.9-3.1,5.3-4,9.3a34.2959,34.2959,0,0,1-1.8,7l.9,2.6c2.9,5.1,5.2,12.2,9.1,24.4.7,2.1,1.4,4.2,2.1,6.6v.1l.2.2a3.0451,3.0451,0,0,1,.9,1.3,126.1954,126.1954,0,0,1,5.8,14.8c2.5,7.4,4.9,14.5,9.4,20.1.8.8,1.9,1.6,2.7,2.3,9.5,7.8,19.2,15.9,14.6,32.1,3.7,6.6,8.6,12.9,13.2,19.2,2.4,3.2,5,6.6,7.3,9.9,7.5,2.7,16.1,4.3,24.3,5.8,2.1.4,4.1.8,6.1,1.1a16.1754,16.1754,0,0,1,12.8,14.9c.1,1.6.2,3.2.2,4.7.1,2.3.2,4.6.3,5.4v.7c-.1,1.5.8,3.7,1.9,5.6a24.8042,24.8042,0,0,1,2.4,7.1,2.3644,2.3644,0,0,0,1.8,1.8c4.2.8,6.3,1.5,7.3,3.1,1.4,1.7,4,2.4,7.1,3.2a31.49,31.49,0,0,1,6.5,2.3,33.4677,33.4677,0,0,0,10,.4c5.8-.5,10.1-.4,19.4,7.9,6.1,2.4,12.8,3.2,19.9,4.1a109.9145,109.9145,0,0,1,12.8,2c3.3.3,8.1.9,14.2,1.8,18,2.4,45.2,5.8,69,6.8,30.9,1.1,40.1-2.9,43-5.5C1016.7,671.5,1008.8,665.2,1001.2,659.3Z"/>
    </g>
    <g class="zone" id="3_Virgen_del_Remedio_-_Juan_XXIII" data-name="3_Virgen_del_Remedio_-_Juan_XXIII">
        <path d="M357,488.8c2.6,10.6,5.5,21.4,8.4,31.8,2.5,9.5,5.3,19.2,7.7,29,7.1-.8,14.3-1.5,21.4-2.3,26.8-2.9,54.6-5.8,82.1-7.3,5.5-.6,7,1.8,7.4,5.7v.3c.1,1.6.1,3.5.2,5.7.1,3.3.2,8.3.5,13.5,10.6-1.3,21.4-2.4,32-3.3,7.4-.7,15-1.4,22.5-2.3,1.1-1.1.8-4.6.3-8.8a40.4967,40.4967,0,0,1-.5-7l-.1-.8a9.1836,9.1836,0,0,0-.5-2.8,11.496,11.496,0,0,1,.6-11.6,2.6957,2.6957,0,0,1,.7-.8,3.5719,3.5719,0,0,1,4.3-1.1c6.5,2.4,13.4,2.1,20.8,1.8a97.5078,97.5078,0,0,1,10.8-.1c10.2-.8,20.3.3,30.1,1.4,2.3.3,4.5.5,6.8.8,4.4-.4,9.6,1.8,14.2,3.7,1.9.8,3.8,1.5,5.5,2.1,4-7.8,7.7-16,11.5-23.8,4.9-10.3,10.1-21.1,15.1-31.6,1.6-4.4,4-9.5,8.8-10,5.4-.6,8.9,5.3,12.3,10.8.8,1.4,1.6,2.6,2.4,3.9l.2.4c3,5.7,9.3,9.6,15.5,13.4L690.6,479a8.65,8.65,0,0,0-.7-1c-2.9-4.2-7.1-6.8-16.3-12.4-3.5-2.2-7.8-4.8-12.9-8.1-5.5-2-11.8-1.7-18.5-1.4-5.5.3-11.2.6-16.7-.5-2.8-.5-5.7-.8-8.7-1.1-12.3-1.6-24.9-3.1-36.4-11.4a40.9359,40.9359,0,0,1-12.6-1.9A140.91,140.91,0,0,1,535,427.4c-32.1-19.6-48.1-29.3-62.9-28.1a42.6811,42.6811,0,0,0-9.3,1.9,59.4645,59.4645,0,0,1-17.8,2.6h0a67.98,67.98,0,0,1-13.5-1.4,57.5277,57.5277,0,0,0-13.1-1.1c-5.9.1-16,.4-26.3,5.6-1.3.6-1.6.8-11,8.3l-6.4,5c-14.1,11.3-17.7,14-23.7,16.9a66.0264,66.0264,0,0,1-11.9,4.5c9.3,13.4,11.8,23.7,15.1,37.6C355.3,482.3,356,485.4,357,488.8Z"/>
    </g>
    <g class="zone" id="3_Plà_del_Bon_Repòs_-_La_Goleta_-__San_Antón" data-name="3_Plà_del_Bon_Repòs_-_La_Goleta_- _San_Antón">
        <path d="M546.4,630.5a4.3327,4.3327,0,0,1-.8-3.7c.5-1.8.3-2.3-1.4-3.2-5.2-2.9-17.9-9.4-30.6-15.6-12.2,23.8-16.6,31.8-18.4,34.8.8.5,2.1.9,2.7,1.3a18.8987,18.8987,0,0,1,2.5,1.1,3.9232,3.9232,0,0,1,1.4,5.4,4.4142,4.4142,0,0,1-2.4,1.8,7.0344,7.0344,0,0,1-1.9,1.3h0a3.76,3.76,0,0,1-2.5,2.8c-8.2,2.7-14.3,9-19.6,20.2-.1.1-.1.3-.2.4a12.5271,12.5271,0,0,1-8.2,5.8c-2.5.8-4.3,1.3-5.9,8.7a4.016,4.016,0,0,1-3,2.9,10.1226,10.1226,0,0,1-3,.2c0,4.2.1,8.4.2,12.5.1,2.7.1,5.5.2,8.3,2.4-1.7,3.7-3.9,5-8.1,1.3-3.7,4-5.5,6.2-7.1,1.8-1.1,2.8-2,3.2-3.1,6.6-19.4,31-15.1,68.1-8.9a4.0073,4.0073,0,0,1,3.2,4.5c0,.2-.1.3-.1.5a49.005,49.005,0,0,0-2.6,15.2,30.313,30.313,0,0,0,3.1.2,57.1083,57.1083,0,0,1,8.2.9c4.8-2,9.6-4.1,14.2-6.2,4.3-2,8.7-4,13.1-5.7a58.9833,58.9833,0,0,0,4-6.9c4.8-9,12.1-22.7,24.1-30.3-4-.9-7.5-1.7-11-2.4C576.1,654.9,565.2,652.7,546.4,630.5Z"/>
    </g>
    <g class="zone" id="3_Centro" data-name=" 3_Centro">
        <path d="M530.7,712.4a50.6947,50.6947,0,0,1,1.7-16.9c-34.2-5.7-51-7.6-55.1,4.4v.1c-1.3,3.5-4,5.4-6.2,7-1.8,1.1-2.8,2-3.2,3-2.9,8.9-6.5,12.4-15,15.3a5.0666,5.0666,0,0,1-1.3.2,4.0064,4.0064,0,0,1-2.3-.8,3.9387,3.9387,0,0,1-1.7-3.1c0-4.8-.1-9.6-.2-14.1-.1-5-.2-10.1-.2-15.3-.6-1.9-2-3.9-3.1-4.2a1.1354,1.1354,0,0,0-.8.3,18.4668,18.4668,0,0,1-5,3c-2.6,1.3-3.9,2-4.2,3.2-1.5,5.8-7.1,5.2-9.3,5a12.75,12.75,0,0,0-2-.1,3.553,3.553,0,0,1-1,.2,17.5322,17.5322,0,0,1-5.1-.8,12.3664,12.3664,0,0,1-.2,1.8c0,.2-.1.3-.1.5-2.4,8.1-8.7,7.4-11.4,7.1h-.4c-.5,2.7-1.7,7-7,8a2.7712,2.7712,0,0,1-.9.1l4,7.7a3.9548,3.9548,0,0,1-.7,4.5,24.3307,24.3307,0,0,1-7.3,4.6c-3.7,1.7-5.1,2.4-5.3,4.4v.3c-4.9,24.1.7,48.7,6.1,72.4,2.4,10.8,5,22,6.6,33.3a20.9206,20.9206,0,0,1,7.9,3.2,6.163,6.163,0,0,1,2.5,4.7c.2,1.7.5,3.3.8,5.1a27.4044,27.4044,0,0,0,.5,2.8,4.0618,4.0618,0,0,0,3.1,2.3,1.4218,1.4218,0,0,0,1.6-.6,2.647,2.647,0,0,1,.5-.6c3.9-4,7.8-7.9,11.8-11.8l5.3-5.3-.6.3c-.8.5-2,1-3.3,1.8a6.8327,6.8327,0,0,1-8.2-1.3l-2-2a7.1851,7.1851,0,0,1,0-10,8.5179,8.5179,0,0,1,2.5-1.7l5.3-2c3-1.1,6.2-2.3,9.2-3.4.1-.1.2-.1.4-.1,3.8-1,6.7.6,8.9,2.5a6.9971,6.9971,0,0,1,4.3-8.1l4.3-1.7c2.4-.8,5-1.9,7.4-2.9l-.3-.6a13.6869,13.6869,0,0,0-1.6-3.2,3.959,3.959,0,0,1,.9-5.5,3.25,3.25,0,0,1,1.7-.7c1.3-.6,2.6-1,4-1.5l1.1-.4a7.5916,7.5916,0,0,1,6.7,1.1l.8.7,1.5,1,4.6-4.6a7.1849,7.1849,0,0,1,10,0,6.8874,6.8874,0,0,1,2.1,4.9c.3,17.2-1.6,21.4-3.7,23.5-15.6,15.8-29.3,29.4-45.6,45a5.5529,5.5529,0,0,0-1.7,3.4l-.1,1.1a1.0179,1.0179,0,0,0,.9,1.1,1.33,1.33,0,0,0,.8-.3c17.8-16.3,35.2-32.2,51.1-49.7,8-10,4.2-45.1,2.4-62-.3-2.3-.5-4.3-.7-6.2a6.8061,6.8061,0,0,1,2.7-6.3c9.7-7.4,30.5-27.4,41.9-39.1H541a58.7273,58.7273,0,0,1-7.2-.8C532,715.8,530.7,714.3,530.7,712.4Z"/>
    </g>
    <g class="zone" id="3_Parque_Avenidas_-_Vistahermosa" data-name=" 3_Parque_Avenidas_-_Vistahermosa">
        <path d="M734.9,576.4c4.1-12.2-1.9-17.1-11.7-25.2-.9-.8-2.1-1.8-3.1-2.6-.2-.2-.4-.3-.5-.5-5.4-6.8-8.2-14.9-10.8-22.7-1.5-4.4-3.1-8.8-5-13a62.3266,62.3266,0,0,0-8.8-5.6c-7-4.1-14.8-8.8-19.1-16.5-.8-1.3-1.7-2.6-2.4-4-1.3-2.1-3.4-5.6-4.9-6.9a21.55,21.55,0,0,0-2.4,4.8.7581.7581,0,0,1-.2.4c-5.2,10.5-10.2,21.3-15.2,31.7-3.8,7.9-7.6,16.1-11.6,24.1a5.9264,5.9264,0,0,1-2.7,3.5c-3.3,1.9-7.4.1-12.7-2.1-3.7-1.5-8.2-3.4-10.6-3h-.9c-2.4-.3-4.8-.5-7.2-.8-9.9-1.1-19.3-2.3-28.8-1.4h-.5c-3.4-.2-6.9,0-10.4.1-6.6.3-13.4.6-20-1a3.7425,3.7425,0,0,0,.5,1.8,15.93,15.93,0,0,1,1.1,5.6,2.7686,2.7686,0,0,0,.1.9v.8a25.0283,25.0283,0,0,0,.4,5.5c.8,5.7,1.8,13.7-5,17a3.2553,3.2553,0,0,1-1.4.4c-7.8.8-15.9,1.6-23.6,2.4-10.5.9-21.3,2-32,3.3.8,6.7,2.3,12.4,4.7,14.3,2.9,1.5,7.9,4,13.7,6.9l9.9,4.9.1.1.1.1c13.7,6.9,28.4,14.2,34.1,17.5,4.1,2.3,5.9,5.6,5.5,10,16.4,18.9,25,20.7,42,24.2,6.4,1.3,13.6,2.7,22.6,5.4l.2.1c3.5,1.3,7.9-.8,12.6-3.1a45.7516,45.7516,0,0,1,8.9-3.5c7.3-2.4,13.8-6.6,20.7-10.8a128.4584,128.4584,0,0,1,17.8-9.9c8.1-3.3,14.3-10,21-16.9,6.2-6.7,12.6-13.4,20.9-17.4a4.1926,4.1926,0,0,1,1.6-.4c2.8-.1,5.6-.1,8.6-.2,4.7-.1,9.5-.1,14.2-.5a131.6437,131.6437,0,0,1-9.1-14.2A4.1694,4.1694,0,0,1,734.9,576.4Z"/>
    </g>
    <g class="zone" id="3_Campoamor_-_Carolinas_-_Altozano" data-name="3_Campoamor_-_Carolinas_-_Altozano">
        <path class="cls-1" d="M476.2,547.8c-23.1,1.1-46.5,3.5-69.5,5.9l15.9,26a4.1611,4.1611,0,0,1-1.1,5.3c-7.9,5.2-16.2,9.8-24,14.3-4,2.3-8.2,4.7-12.3,7.1a46.3506,46.3506,0,0,1-8.7,4.9l-1.4.7c.8,1.8,1.5,3.2,2,4.4.3.7.6,1.5.9,2.2l.2-.1a65.3791,65.3791,0,0,1,6.6-2.8,2.92,2.92,0,0,1,.9-.2l4.2-.4c16.7-1.4,19.4-1.6,23.8,8.6a96.8775,96.8775,0,0,0,7.6,14.2,3.9268,3.9268,0,0,1-1.1,5.3h-.1a2.8832,2.8832,0,0,1-1.9.6l-.5.4.1.6a44.0761,44.0761,0,0,1,.8,7.2c4.7,7.6,4.8,10.2,4.4,13.5a12.6941,12.6941,0,0,0,.5,5.1,7.5669,7.5669,0,0,1-1,8.7c-1.8,2.1-2.5,4.7-3.5,7.8-.4,1.1-.7,2.4-1.1,3.7a7.9089,7.9089,0,0,0,3.4,1,15.4787,15.4787,0,0,1,4.3,0c.3,0,.7.1.9.1,1.5-4.3,5.3-6.2,8.1-7.5a12.6671,12.6671,0,0,0,3.3-2l.1-.1a8.6347,8.6347,0,0,1,8.3-1.7,13.6433,13.6433,0,0,1,6.9,6.5h.8c2.5-8.4,6.5-10.2,10.6-11.6,1.8-.5,2.7-.8,3.8-2.4,3.8-7.8,10.1-18.4,22-23.3h0c.1-.2.1-.5.2-.7a8.4266,8.4266,0,0,1-3.9-4.4,5.4841,5.4841,0,0,1,.9-4.8l.1-.2c.8-.9,4.2-7,18.8-35.3l-6.4-3.2c-5.9-3-11.3-5.5-14.1-7.1l-.1-.1c-.1-.1-.3-.1-.4-.2l-.2-.1h-.1c-7.8-5.7-8.8-23.1-9.3-41.7Z"/>
    </g>
    <g class="zone" id="3_San_Blas_-_Pau" data-name="3_San_Blas_-_Pau">
        <path d="M416.3,673.4a17.1416,17.1416,0,0,1-.9-8.7c.2-1.6.3-2.7-4-9.4a4.383,4.383,0,0,1-.6-2.3,31.41,31.41,0,0,0-.7-6.8c-.2-1-.4-2.2-.5-3.2a4.1137,4.1137,0,0,1,1.8-3.9l1-.7a74.8955,74.8955,0,0,1-5.8-11.7c-1.6-3.4-1.9-4.1-2.5-4.3-1.8-.6-6.2-.2-13.4.4l-3.7.4c-1.8.7-3.5,1.5-5.3,2.4-2.3,1-4.2,2.1-6.6,1.1-2.5-.8-3.4-3-5.3-7.1a32.5713,32.5713,0,0,0-1.6-3.4,13.149,13.149,0,0,0-2.2,2.5c-1.5,2.9-3.2,5.6-4.9,8.4a103.9308,103.9308,0,0,0-6.5,11.8c0,.1,0,.1-.1.2-2.8,5.8-9.3,9.3-14.9,7.9a2.9947,2.9947,0,0,1-1-.4c-9-5.3-8.4-10.6-7.9-16,.2-2,.3-4,.3-5.9v-.5a3.3526,3.3526,0,0,0-.6-2.4c-2.4-3.5-4.6-7.1-6.9-10.7-2.8-4.6-5.7-9.3-8.9-13.7-20.4,11.4-39.5,33.8-56.5,53.8-7.1,8.4-13.9,16.4-20.5,23.3a107.1572,107.1572,0,0,0-5.5,18.4c-.7,2.9-1.4,5.9-2.3,8.9a204.05,204.05,0,0,0,20.1,4c5.1.8,10.3,1.8,15.4,2.8a1.4213,1.4213,0,0,1,.6.2c10.3,4,20.5,8.7,30.6,13.2,6.9,3.1,14,6.5,21.1,9.4,11.4,3.7,23.2,6.7,34.6,9.7,8.6,2.3,17.2,4.5,25.9,7.1a79.3209,79.3209,0,0,1,1.7-11.9c.8-6.3,6.1-8.7,9.8-10.3a22.8949,22.8949,0,0,0,2.7-1.4l-6.7-12.9a4.0925,4.0925,0,0,1,1.1-5l.3-.2a21.8384,21.8384,0,0,1,4.9-2.9,4.2011,4.2011,0,0,1,3.9.5,19.1978,19.1978,0,0,1,1.5,1.4c1.4-5.8,6.9-5.2,8.7-5,2.4.3,2.5.3,2.9-1.3a8.083,8.083,0,0,0,.1-1.6,16.8755,16.8755,0,0,1,1-5.6,7.195,7.195,0,0,1,.3-2.9c0-.1.1-.2.1-.3.5-1.3.9-2.5,1.3-3.9.9-3.4,2.2-7.3,5.1-10.5A9.2919,9.2919,0,0,1,416.3,673.4Z"/>
    </g>
    <g class="zone" id="3_Los_Ángeles_-_Tómbola_-_San_Nicolás" data-name="3_Los_Ángeles_-_Tómbola_-_San_Nicolás">
        <path d="M219.3,755.4a25.42,25.42,0,0,0-4.7.7,21.0569,21.0569,0,0,1-7.5.7,3.9252,3.9252,0,0,1-3.2-3.5c-.1-.7-.1-1.6-.2-2.5-1.3-13-3.7-37.2,8.8-38.8h.6c2.4.1,3.5-1.3,5.8-4.9.8-1.3,1.7-2.4,2.5-3.5v-.2c1.3-4,2.3-8.1,3.2-12.2,1.7-6.9,3.3-13.9,6.3-20.3a1.9967,1.9967,0,0,1,.8-1c6.7-6.9,13.4-14.9,20.7-23.4,18.3-21.4,38.9-45.8,61.9-57.2a3.9838,3.9838,0,0,1,4.9,1.1c4,5.5,7.7,11.3,11.3,16.9,2.2,3.5,4.4,7.1,6.8,10.5a11.1086,11.1086,0,0,1,1.9,6.9,42.1957,42.1957,0,0,1-.3,7.1c-.4,4.3-.6,5.5,3.5,8,2,.2,4.4-1.5,5.5-3.8a86.0556,86.0556,0,0,1,7-12.6c1.7-2.7,3.2-5.4,4.7-8l.1-.1c3.2-5.5,8.8-8.2,13.7-10.5a36.1462,36.1462,0,0,0,7.4-4.2,2.19,2.19,0,0,1,.5-.3c4.2-2.4,8.6-4.9,12.7-7.2,6.8-3.9,13.6-7.7,20.3-11.9l-15.8-25.9-2.8.3L373.4,558c-4.9.6-6.7-2.4-7.3-4.9-2.4-10-5.3-20-7.9-29.8-2.8-10.4-5.7-21.2-8.4-32-.8-3.4-1.7-6.7-2.4-9.7-3.5-14.5-5.8-24.2-16.2-37.8h-1.5a20.4791,20.4791,0,0,0-3.5.1c-16.2,3.7-32.2,1.1-47.8-1.3-2.8-.4-5.6-.8-8.6-1.3a3.7122,3.7122,0,0,0-4.2,3.1,3.3647,3.3647,0,0,0,.4,2.2c1.8,3.3,3.7,6.7,5.5,10,3.5,6.4,7.1,12.9,10.4,19.4a11.8649,11.8649,0,0,1-4.9,15.9h0a5.3594,5.3594,0,0,1-1.1.5c-6.3,2.4-12.5,5-18.6,7.4-3.4,1.4-7,2.8-10.3,4.2a5.2883,5.2883,0,0,0-3.4,5.9l11.3,71.4v.4c1.7,27.3-24.6,72-42.1,101.6-3.9,6.5-7.1,12-9.4,16.3l-.4.8c-2.8,6.9-5.8,6.8-14.1,5.5a6.3488,6.3488,0,0,1-4.8-2,4.8313,4.8313,0,0,1-1-4.2,12.7458,12.7458,0,0,0-1.4-.4,22.5273,22.5273,0,0,1-5.3-1.9c-.8-.3-1.8-.7-2.6-1a6.5147,6.5147,0,0,0-6.2.4l-25.3,16.6a3.6961,3.6961,0,0,0-1.5,3.7,14.3272,14.3272,0,0,0,3.3,5.9c4.2,5.4,6.8,10.2-2.2,21-.4.9.1,2.5.5,4.3a21.2027,21.2027,0,0,1,.7,7.1c-.8,5.7-8.7,7-39.7,5.9l-2.6-.1a4.0578,4.0578,0,0,1-3.9-4v-.5a35.26,35.26,0,0,1,2-9.1c.5-1.5.9-3,1.3-4.5a17.3828,17.3828,0,0,0-1.3-1.5,92.1571,92.1571,0,0,1-6.2-7.8,13.6371,13.6371,0,0,0-1.7.4,19.6673,19.6673,0,0,1-3.5.6c-.8.3-1.3.8-2.4,2.4-1.9,2.6-4.6,6.6-12.3,6.6h0c-1.4.2-2.7.3-4,.4a17.3733,17.3733,0,0,0-3.9.5c-8.1,20.2-8,26.2-7.8,47.6,3.4,1.5,7.1,2.7,10.7,4,1.6.5,3.1,1,4.7,1.6a2.3666,2.3666,0,0,0,2-.2,1.709,1.709,0,0,0,1-1.4c3.2-12.2,17.8-13.7,29.5-14.9,2.4-.3,4.8-.5,6.9-.8h.1c16.9-2.1,33.7-4,50.7-6.1a6.4578,6.4578,0,0,1,4.7,1c2.9,2.4,3.1,6.8,3.2,11.5a23.1628,23.1628,0,0,0,.4,4.6,4.9508,4.9508,0,0,1,.4,1.3,4.6592,4.6592,0,0,1-1.4,4c-1.7,1.7-4.1,1.9-6.8,1.8.8.9,2.4,1.4,5,2.1,1.4.4,2.9.8,4.7,1.4a5.9546,5.9546,0,0,1,4.8,6.8h0a.6016.6016,0,0,1-.1.4,5.5311,5.5311,0,0,0,1.4,2.1,11.7054,11.7054,0,0,0,1.1-.5l.3-.1a4.0491,4.0491,0,0,1,5.5.7,4.49,4.49,0,0,1,.8,2.7,8.9983,8.9983,0,0,1,0,4c.8.3,1.7.7,2.4.9,1,.5,2.1.9,3.1,1.3a48.227,48.227,0,0,1,9.3-1.1c3.5-.2,10.8-.8,12.3-2.2,0-.1.1-.3.1-.4C223.8,793.4,227.4,779.8,219.3,755.4Z"/>
    </g>
    <g class="zone" id="3_Villafranqueza_-_Santa_Faz_-_Monegre" data-name="3_Villafranqueza_-_Santa_Faz_-_Monegre">
        <path class="cls-1" d="M761.7,355.9c-11.6,2.9-22.8,5.9-32.9,8.7a3.8236,3.8236,0,0,0-2.8,4.1c1.9,22.6,1.3,41.3-2.1,58.8-4.5,5.2-10.2,9.9-15.9,14.4-3.4,2.8-7,5.6-10.2,8.7-4.8,3.8-5.8,9.2-6.7,14-.2.9-.3,1.8-.5,2.6a116.98,116.98,0,0,0-12.5-8.2c-3.5-2.2-7.9-4.9-13.1-8.2-.2-.1-.5-.3-.7-.4-7.1-2.7-14.7-2.4-22-2-5.3.3-10.2.5-14.9-.3h-.1c-3-.4-5.9-.8-8.9-1.3-8.9-1.1-17.4-2.2-25.2-5.6h0c-1.6-.6-2.9-1.5-4.5-2.2h0a15.38,15.38,0,0,0-1.9-.8,45.9266,45.9266,0,0,0-7-2.7,33.0078,33.0078,0,0,1-9.3-1.6A139.3238,139.3238,0,0,1,539.6,421c-33.5-20.4-50.3-30.7-67.6-29.2a46.3235,46.3235,0,0,0-10.6,2.1,51.7166,51.7166,0,0,1-15.6,2.3h-.2a54.6865,54.6865,0,0,1-12.1-1.3,65.0459,65.0459,0,0,0-14.6-1.3c-5.4.1-15.1.3-25.5,4.6-6.2-22.8-11-76.5,10-104.4l.3-.4c2.6-4.7,20-18.9,35.5-31.3,25.6-20.8,42.8-35.2,46.9-43.2,2.3-2.8,5.4-8.3,9.7-16,10.2-17.7,29.1-50.6,41.1-51.2,22.9,2.7,59,45.7,74.5,64.2,4.4,5.2,6.7,7.9,8.1,9.3,25.8,33.9,53,60.5,85.6,83.8l.1-.1c18.2,14.3,34,29.4,34.1,29.5A154.6062,154.6062,0,0,0,761.7,355.9Z"/>
    </g>
    <g class="zone" id="3_Benalúa_-_La_Florida_-_Babel_-__San_Gabriel" data-name="3_Benalúa_-_La_Florida_-_Babel_- _San_Gabriel">
        <path d="M377.6,756.1c-9.1-2.6-18.4-5.1-27.4-7.4-11.7-3-23.6-6.2-35.3-9.8l-.4-.1c-7.2-3-14.5-6.4-21.4-9.6-9.7-4.4-19.7-9.1-29.7-12.9-4.8-1-9.8-1.9-14.7-2.7a202.3917,202.3917,0,0,1-21.9-4.5c-.5.7-.9,1.4-1.5,2.2-2.4,3.7-5.5,8.4-12.1,8.6-.7.3-2.4,2.5-2.7,10.2a132.824,132.824,0,0,0,.8,18.9c.6-.1,1.1-.2,1.7-.3,4.2-.8,12-2.4,13.7,4.4,8.4,25.6,5.2,41.2-5.2,66.6-1.9,6.5-11.1,7.1-19.3,7.6-1.6.1-3.2.2-4.6.4,3.7,12.6,13,42.5,17.8,57.7l.9,3.1a19.9176,19.9176,0,0,1,.5,9.7c-.8,4.3-1.6,7.5-2.4,10.5a1.36,1.36,0,0,0,.8,1.6c4.5,1.7,9.6,3.8,14.9,5.7,10.6,4.2,22.5,8.8,31.3,11.8,10.1-23.7,25.8-44.6,41-64a8.0739,8.0739,0,0,1,3.3-2.4c12.3-4.1,24.4-1.4,36.2,1.3l5,1.1a3.58,3.58,0,0,1,1.1.4c.9.4,1.7.2,4.3-1.5.7-.4,1.4-.8,2.2-1.3a7.1078,7.1078,0,0,1,8.4,1.1c4.9,5,9.7,10.2,14.3,15.1,3.1,3.4,6.5,7,9.7,10.3l.2.2c1.4-.3,4.4-3.7,5.8-5.2.6-.7,1.3-1.4,1.9-2.1-1.9-2-3.8-4-5.5-5.7-6.7-7.1-13.5-14.4-21.2-19.5a7.1808,7.1808,0,0,1-2.1-9.8,6.3531,6.3531,0,0,1,4.7-3,92.1567,92.1567,0,0,1,21-.8c-1.6-10.1-4-20.3-6.2-30.3C381.7,793.5,377.4,775,377.6,756.1Z"/>
    </g>
    <path id="_Strokes" class="cls-2" d="M546.9,544.6a33.13,33.13,0,0,0,.4,5.5c.7,5.7,1.8,13.7-5,17.1a4.674,4.674,0,0,1-1.4.4c-7.8.8-15.9,1.6-23.6,2.3-10.5.9-21.4,2-31.9,3.3.8,6.6,2.3,12.4,4.7,14.3,2.9,1.5,7.9,4,13.8,6.9,3.1,1.6,6.5,3.2,9.9,4.9a282.6307,282.6307,0,0,0,.2.2c13.7,6.8,28.4,14.2,34.1,17.5,4.2,2.3,6.1,5.7,5.5,10,16.3,18.9,25,20.7,42,24.1a227.7377,227.7377,0,0,1,22.5,5.4c.1,0,.1,0,.2.1,3.5,1.3,7.9-.9,12.6-3.1a39.1279,39.1279,0,0,1,9-3.5c7.3-2.5,13.8-6.6,20.7-10.8a122.9768,122.9768,0,0,1,17.7-9.9c8.1-3.3,14.3-9.9,20.9-16.9,6.3-6.6,12.6-13.5,20.9-17.4a4.1926,4.1926,0,0,1,1.6-.4c2.8-.1,5.7-.1,8.6-.2,4.7-.1,9.5-.1,14.2-.5a117.9,117.9,0,0,1-9.1-14.2,3.5233,3.5233,0,0,1-.2-3c4.1-12.2-1.9-17.1-11.7-25.2-1-.8-2.1-1.7-3.1-2.6-.2-.2-.4-.3-.5-.5-5.4-6.8-8.2-14.9-10.8-22.7a134.49,134.49,0,0,0-5-13,67.4809,67.4809,0,0,0-8.9-5.7c-6.9-4.1-14.8-8.8-19-16.6-.8-1.3-1.7-2.6-2.5-4-1.3-2.1-3.4-5.7-4.8-6.9a17.6748,17.6748,0,0,0-2.3,4.8.7574.7574,0,0,1-.2.4c-5.1,10.5-10.3,21.3-15.2,31.7-3.8,7.9-7.6,16.1-11.6,24.1a5.9264,5.9264,0,0,1-2.7,3.5c-3.3,1.9-7.5.1-12.7-2.1-3.7-1.5-8.2-3.3-10.6-3a2.7187,2.7187,0,0,1-.9,0c-2.4-.2-4.8-.5-7.2-.8-9.9-1.1-19.3-2.2-28.8-1.4h-.5c-3.4-.1-6.9,0-10.4.1-6.6.3-13.4.5-20-1a3.7426,3.7426,0,0,0,.5,1.8,15.5065,15.5065,0,0,1,1.1,5.6,2.7712,2.7712,0,0,0,.1.9C546.9,544,546.9,544.3,546.9,544.6ZM158.5,790.2c.9,0,2,.1,3.1.2a14.9308,14.9308,0,0,1,1.7.2c-.1-1.1-.1-2.3-.2-3.7a40.2792,40.2792,0,0,0-.3-4.9c-16.5,2-33,4-49.4,5.9-2.2.3-4.7.6-7.2.8-9.8.9-20.9,2.1-22.7,9.1a10.1209,10.1209,0,0,1-13.2,6.9c-1.5-.5-3-1-4.6-1.6a110.6339,110.6339,0,0,1-13.9-5.3,3.6966,3.6966,0,0,1-2.2-3.4V792c-.2-22.2-.3-28.9,8.7-51.3a2.1774,2.1774,0,0,1,.5-.8c2.5-3.4,6.8-3.7,10-3.8a13.5691,13.5691,0,0,0,2.9-.3,3.4052,3.4052,0,0,1,1-.1c3.9.1,4.7-1,6.3-3.2,1.4-2,3.2-4.6,7.3-5.5a3.4019,3.4019,0,0,1,1-.1,11.7967,11.7967,0,0,0,2-.4c2.4-.5,7.2-1.8,10,2.8,1.8,2.5,3.7,4.9,5.6,7.2.8.9,1.7,2,2.5,2.9a3.6609,3.6609,0,0,1,.8,3,38.3084,38.3084,0,0,1-1.9,7.4c-.3,1.1-.7,2.2-.9,3.2,7.9.2,24.9.6,29.9-.8a23.8063,23.8063,0,0,0-.5-2.6c-.7-2.9-1.6-6.6.4-10.2a2.09,2.09,0,0,1,.4-.6c5.8-6.9,5-8,2.3-11.5a20.7187,20.7187,0,0,1-4.8-9,11.28,11.28,0,0,1,4.7-12.1l25.3-16.6a14.14,14.14,0,0,1,13.8-.9,18.0284,18.0284,0,0,0,2.1.8c.2.1.4.1.5.2a27.0314,27.0314,0,0,0,4,1.4c2.4.6,4.8,1.4,6.5,3.4a3.6675,3.6675,0,0,1,.8,1.9,5.2829,5.2829,0,0,1,.1,1.3c1.4.2,2.6.3,4,.4a11.64,11.64,0,0,0,.6-1.5,10.3748,10.3748,0,0,0,.4-1c0-.1.1-.2.1-.3,2.3-4.3,5.6-10,9.6-16.7,15.9-26.9,42.5-72,41.1-97l-11.3-71.2a13.3855,13.3855,0,0,1,8.2-14.5c3.4-1.4,6.9-2.8,10.3-4.2,6.2-2.5,12.4-5,18.7-7.5a3.9469,3.9469,0,0,0,2.2-5.1.7578.7578,0,0,0-.2-.4c-3.3-6.4-6.9-12.8-10.3-19.2-1.9-3.3-3.7-6.7-5.5-10a11.4961,11.4961,0,0,1,4.6-15.5,11.64,11.64,0,0,1,7.1-1.3c2.8.4,5.7.8,8.6,1.3,15.5,2.4,30.3,4.6,45,1.4h.1a22.8827,22.8827,0,0,1,5.2-.2h2.7a62.2345,62.2345,0,0,0,15.6-5.2c5-2.4,7.9-4.7,22.2-16l6.4-5c5.3-4.3,7.9-6.3,9.5-7.4-6.1-21.3-13.4-80.2,10.7-112.6,3.4-5.7,16.4-16.5,37.1-33.3,18.7-15.1,41.8-33.9,45.1-40.9l.2-.4.3-.4c1.9-2.2,5.3-8.2,9.3-15.2,16.6-28.9,32.8-55,48-55.1h.4c26.1,2.7,62.5,46.1,79.9,66.9,3.5,4.2,6.6,7.8,7.6,8.8l.3.2.2.3c23.7,31.2,48.6,56.1,78,77.9a8.687,8.687,0,0,1,2.6,1.6c20,15.3,38.4,32.9,38.6,33.1A138.9408,138.9408,0,0,0,771.8,353c2.1-.5,4.1-1,6.2-1.5a3.7614,3.7614,0,0,1,2.1.1c10.8,3.3,21.4,9.1,31.6,14.6,9.3,5,18.8,10.2,28.3,13.4,4.2-2.7,8.3-5.2,12.5-7.7,11-6.5,21.3-12.6,29.6-21.6l.3-.3c5-4.4,9.9-9,14.7-13.4q3.75-3.45,7.5-6.9l.2-.2a5.1117,5.1117,0,0,1,5.5-1c3.3,1.3,4.1,5.1,4.7,8.4a11.3566,11.3566,0,0,0,.6,2.5c.1.1.1.3.2.4a62.5881,62.5881,0,0,1,2.9,11.1c1.1,5.3,2.3,10.4,4.8,14.4,17.6,10.7,31.3,25.9,44.6,40.5,5.4,6.1,11.1,12.2,16.9,18,6.2,5.7,5.7,12.5,4.8,19-.4,7.9-.8,16-1.3,23.9-2.7,51.3-5.5,104.4-1.9,156.6a35.1876,35.1876,0,0,0,12.8,24.8c2,1.7,4.1,3.2,6.1,4.9,8.9,7,18,14.2,24,24.4a3.7093,3.7093,0,0,1,.2,3.4c-3.4,8.6-17.9,11.9-40.7,11.9-20.7,0-48.2-2.8-80.5-7-6.2-.8-11-1.5-14.2-1.8a.6018.6018,0,0,1-.4-.1c-4-.8-8-1.4-12.3-1.9-7.5-.9-15.3-1.9-22.5-4.9a4.1293,4.1293,0,0,1-1.1-.7c-7.6-7-9.6-6.8-14-6.4a38.5346,38.5346,0,0,1-12.7-.6,2.9946,2.9946,0,0,1-1-.4A23.8846,23.8846,0,0,0,825,667c-3.7-1-7.8-2.2-10.7-5.5-.5-.2-1.6-.4-3.2-.8a9.7654,9.7654,0,0,1-7.8-8.4,13.4813,13.4813,0,0,0-1.8-4.7,20.1436,20.1436,0,0,1-2.6-9c-.1-1-.2-2.8-.3-5.6-.1-1.5-.1-3-.2-4.6a8.0074,8.0074,0,0,0-6.5-7.6c-2-.4-4-.8-5.9-1.1-9-1.8-18.4-3.5-26.7-6.7a3.8716,3.8716,0,0,1-1.9-1.5c-2.4-3.5-5.2-7.1-7.8-10.6l-.1-.1c-6.5.7-13,.8-19.5.9-2.6,0-5.1.1-7.5.1-6.6,3.4-12.1,9.2-17.8,15.3-6.9,7.3-14,14.8-23.6,18.8a124.3461,124.3461,0,0,0-16.7,9.3c-7,4.4-14.2,8.9-22.4,11.7-.1,0-.2.1-.3.1a40.49,40.49,0,0,0-7.5,3c-4.3,2-8.9,4.3-13.8,4.3a15.5333,15.5333,0,0,1-3.7-.4c-14.8,3.9-23.8,20.7-29.2,30.7-3.2,6.2-5,9.3-7.7,10.3-4.4,1.8-8.8,3.8-13,5.7-4.9,2.2-9.9,4.5-14.9,6.5-8.8,9.3-34.6,34.8-47.1,44.5.2,1.7.4,3.5.6,5.6,2.9,26.8,5.2,56.4-4.1,67.9,0,.1-.1.1-.1.2-16.3,17.7-33.7,33.9-51.7,50.3a8.935,8.935,0,0,1-14.9-7.4l.1-1.1a12.7341,12.7341,0,0,1,4.1-8.4c16.2-15.4,29.8-29,45.4-44.8.3-.4,1.6-3.3,1.5-16.2l-3.8,3.8a6.9935,6.9935,0,0,1-9.1.7,20.28,20.28,0,0,1-2.3-1.8l-.4-.4-.9.3a.3491.3491,0,0,0-.2.1c0,.1.1.2.1.3a11.2143,11.2143,0,0,0,.5,1.3,7.0712,7.0712,0,0,1-3.7,9.3h0a89.5881,89.5881,0,0,1-8.6,3.3,32.3524,32.3524,0,0,0-3.3,1.3l.2.4c1.3,2.3,3.5,6.5.1,10a7.1052,7.1052,0,0,1-9.7.2c-.6-.6-1.4-1.3-1.9-1.9-1-1-2.6-2.7-3.3-2.7h0c-3,1.1-6.1,2.3-9,3.4-1.4.5-2.7,1-4.1,1.6l.6.6a21.7658,21.7658,0,0,0,2.7-1.5c4.3-2.3,6.9-3.8,10.5.3a4.35,4.35,0,0,1,.6.7,7.0347,7.0347,0,0,1-.1,9.8c-2.2,2.2-4.4,4.4-6.6,6.5-3.8,3.8-7.7,7.6-11.4,11.5a9.4232,9.4232,0,0,1-8.8,3.8,12.0513,12.0513,0,0,1-9.6-7.4,2.9029,2.9029,0,0,1-.3-1.4c-.1-.9-.3-1.9-.4-2.8-.3-1.7-.5-3.3-.7-5-4.1-2.6-17.9-3.7-28.5-2.3,7.8,5.4,14.5,12.6,21,19.5,2,2.1,4,4.2,5.9,6.3a7.1577,7.1577,0,0,1-.1,9.9c-.6.7-1.5,1.5-2.2,2.4-3.3,3.7-7.1,7.7-11.7,7.8a7.5212,7.5212,0,0,1-5.8-2.6c-3.2-3.4-6.6-7-9.7-10.4-4.4-4.8-9-9.8-13.7-14.5-.4.2-.8.5-1.3.7-2.7,1.8-6.5,4.1-11.4,2.1-1.7-.3-3.3-.7-5-1.1-11.1-2.5-21.5-4.9-31.7-1.6-15.5,19.9-31.6,41.3-41.1,65.4,0,.1,0,.1-.1.2,0,.1-.1.2-.1.3-.1.1-.1.2-.2.3a.3491.3491,0,0,1-.1.2c-.1.1-.1.2-.2.2l-.2.2c-.1.1-.2.1-.2.2-.1,0-.1.1-.2.2s-.2.1-.3.2c-.1,0-.1.1-.2.1s-.2.1-.3.1-.1.1-.2.1-.2.1-.4.1h-.7a1.2683,1.2683,0,0,1-.6-.1h-.2a.3674.3674,0,0,1-.3-.1c-9.3-2.9-23.1-8.3-35.3-13-5.4-2.1-10.4-4.1-14.9-5.7a9.0853,9.0853,0,0,1-5.6-10.7c.7-2.9,1.4-5.9,2.3-10.2a11.3882,11.3882,0,0,0-.3-5.8l-1-3.1c-5-16.1-15.1-48.1-18.4-59.8a23.8769,23.8769,0,0,1-3.7-1.5,24.8837,24.8837,0,0,0-2.9-1.1c-.2-.1-.5-.1-.7-.3a5.8526,5.8526,0,0,1-3.4-5.4,9.5137,9.5137,0,0,1-5.6-2.9,10.5338,10.5338,0,0,1-3.3-7.2c-1.3-.4-2.5-.7-3.7-1-5.5-1.5-11.4-2.9-12-13.7v-.8c0-.1.1-.2.1-.4,0-.1.1-.2.1-.3s.1-.2.2-.3l.2-.3c.1-.1.1-.2.2-.3s.1-.2.2-.3.2-.2.3-.2c.1-.1.2-.2.3-.2.1-.1.2-.1.3-.2s.2-.1.3-.2c.1,0,.2-.1.3-.1s.2-.1.3-.1c.2,0,.4-.1.6-.1h.1c.4-.4.4-.4.5-.4Zm863.6-110.8c-5.2-7.9-13.1-14.1-20.8-20.1-2.1-1.6-4.2-3.3-6.2-5a43.2015,43.2015,0,0,1-15.6-30.4c-3.8-52.7-.9-106,1.9-157.5.4-8,.8-16.1,1.3-24.1v-.4c.9-5.9.8-9.4-2.4-12.3l-.1-.1c-5.9-5.9-11.7-12.2-17.2-18.4-13.7-15.1-26.6-29.3-43.6-39.4a3.8368,3.8368,0,0,1-1.1-1.1c-3.8-5.3-5.1-11.7-6.5-17.8a67.425,67.425,0,0,0-2.6-9.8,23.6023,23.6023,0,0,1-1.1-4.4,4.3311,4.3311,0,0,1-.1-.5c-1.7,1.5-3.2,3-4.9,4.5-4.8,4.4-9.7,9-14.7,13.4-9.1,9.7-20.3,16.5-31.3,22.8-4.6,2.7-9.3,5.5-13.8,8.4a4.2088,4.2088,0,0,1-3.3.5c-10.7-3.3-21.3-9.1-31.4-14.5-9.5-5.2-19.4-10.5-29.2-13.7-15.8,3.8-31.6,8-45.3,11.7,1.7,22.3.8,41.1-2.7,58.7a4.1671,4.1671,0,0,1-.8,1.8c-5,6.1-11.4,11.3-17.6,16.3-3.5,2.8-6.9,5.5-9.9,8.4-.1.1-.2.2-.3.2-2.5,1.9-3.1,5.3-3.9,9.3a34.2959,34.2959,0,0,1-1.8,7l.9,2.7c2.9,5.1,5.2,12.2,9.1,24.4.6,2,1.4,4.2,2.1,6.5v.1c.1,0,.1.1.2.1a3.4483,3.4483,0,0,1,1,1.3,110.7921,110.7921,0,0,1,5.8,14.8c2.5,7.4,4.9,14.5,9.4,20.1.9.8,1.9,1.6,2.8,2.3,9.5,7.8,19.2,15.9,14.6,32,3.7,6.6,8.6,12.9,13.2,19.2,2.4,3.2,4.9,6.6,7.3,9.8,7.5,2.7,16.1,4.4,24.3,5.9,2,.4,4.1.8,6.1,1.1a16.0664,16.0664,0,0,1,12.8,14.9c.1,1.6.1,3.2.2,4.7.1,2.3.2,4.6.3,5.3v.6c-.1,1.5.9,3.7,1.9,5.6a25.2463,25.2463,0,0,1,2.4,7,2.2345,2.2345,0,0,0,1.8,1.8c4.2.9,6.3,1.6,7.3,3.1,1.4,1.7,4.1,2.4,7.1,3.2a38.273,38.273,0,0,1,6.5,2.2,37.13,37.13,0,0,0,10,.4c5.9-.5,10-.4,19.4,7.9,6.1,2.4,12.8,3.2,19.9,4.1a113.34,113.34,0,0,1,12.8,2c3.3.3,8.1.9,14.2,1.8,18,2.3,45.3,5.8,69,6.8,30.6,1.4,39.8-2.7,42.6-5.2ZM728.8,364.5c10-2.7,21.3-5.7,32.9-8.7a152.2655,152.2655,0,0,1-22.4-17.6c-.2-.1-16-15.3-34.1-29.5l-.1.1c-32.7-23.3-59.9-49.9-85.6-83.8a121.2027,121.2027,0,0,1-8.1-9.3c-15.4-18.4-51.5-61.4-74.5-64.2-12.1.5-31,33.5-41.1,51.2-4.3,7.5-7.5,13-9.7,16-4.2,8-21.4,22.4-46.9,43.2-15.3,12.5-32.8,26.6-35.5,31.3l-.3.4c-21,27.9-16.2,81.6-10,104.4,10.3-4.2,20-4.4,25.5-4.6a65.0459,65.0459,0,0,1,14.6,1.3,61.4,61.4,0,0,0,12.1,1.3h.2a48.3582,48.3582,0,0,0,15.6-2.3,55.2652,55.2652,0,0,1,10.6-2.1c17.2-1.5,34.1,8.8,67.6,29.2a137.3725,137.3725,0,0,0,30.9,12.9,37.0118,37.0118,0,0,0,9.3,1.6,42.2309,42.2309,0,0,1,7,2.7c.6.3,1.3.5,1.9.8h0c1.6.7,2.9,1.6,4.5,2.2h0c7.8,3.4,16.4,4.5,25.2,5.6,2.9.3,5.8.7,8.9,1.3h.1c4.7.8,9.7.6,14.9.3,7.3-.4,14.9-.7,22,2a2.5085,2.5085,0,0,1,.7.4c5.2,3.3,9.6,6.1,13.1,8.2,4.3,2.5,8.4,5.3,12.5,8.2.2-.8.3-1.7.5-2.6.9-4.8,1.9-10.2,6.7-14,3.2-3,6.8-5.8,10.2-8.7,5.6-4.6,11.4-9.3,15.9-14.4,3.3-17.5,4.1-36.2,2.1-58.8A3.6835,3.6835,0,0,1,728.8,364.5ZM698.3,499.4l-7.4-20.5a6.0765,6.0765,0,0,0-.7-1c-2.9-4.2-7.1-6.8-16.2-12.4-3.4-2.2-7.8-4.8-12.9-8.1-5.5-2-11.8-1.7-18.5-1.4-5.5.3-11.2.5-16.7-.5-2.9-.4-5.7-.8-8.6-1.1-12.3-1.6-24.9-3.1-36.4-11.4a40.9361,40.9361,0,0,1-12.6-1.9,141.6369,141.6369,0,0,1-32.9-13.8c-32-19.5-48.2-29.3-62.8-28.1a42.6811,42.6811,0,0,0-9.3,1.9,59.2815,59.2815,0,0,1-17.7,2.6h-.2a61.2874,61.2874,0,0,1-13.5-1.4,51.9672,51.9672,0,0,0-13-1.1c-5.9.1-16,.4-26.3,5.6-1.3.6-1.6.8-11,8.3l-6.4,5c-14.1,11.3-17.7,14-23.7,16.9a74.5031,74.5031,0,0,1-11.9,4.5c9.3,13.4,11.8,23.7,15.1,37.6q1.05,4.5,2.4,9.6c2.6,10.6,5.5,21.5,8.4,31.8,2.6,9.5,5.2,19.2,7.7,28.9,7.2-.7,14.3-1.6,21.4-2.3,26.8-2.9,54.6-5.9,82-7.3,5.6-.6,7,1.8,7.5,5.8v.3c.1,1.6.1,3.5.2,5.7.1,3.3.2,8.3.5,13.5,10.6-1.4,21.5-2.3,31.9-3.3,7.4-.7,15-1.4,22.5-2.2,1.3-1.3.9-4.6.3-8.8a32.92,32.92,0,0,1-.4-7v-.7a13.5051,13.5051,0,0,0-.4-2.8,11.4958,11.4958,0,0,1,.6-11.6q.3-.45.6-.9a3.6779,3.6779,0,0,1,4.4-1.1c6.5,2.3,13.4,2.1,20.8,1.8,3.5-.1,7.2-.3,10.8-.1,10.2-.8,20.3.3,30,1.5,2.2.3,4.5.5,6.7.7,4.4-.4,9.6,1.7,14.2,3.7a53.6654,53.6654,0,0,0,5.6,2.1c3.9-7.9,7.7-16,11.4-23.7,4.9-10.3,10-21.1,15.2-31.6,1.6-4.5,4.1-9.5,8.8-10,5.4-.5,9,5.2,12.3,10.8.8,1.4,1.6,2.6,2.4,3.8.1.1.1.2.2.3,3.1,5.9,9.4,9.7,15.6,13.4ZM605,661c-4-.9-7.6-1.7-11-2.4-17.9-3.7-28.8-5.8-47.7-28.2a4.0586,4.0586,0,0,1-.7-3.7c.5-1.8.3-2.3-1.4-3.2-5.2-2.9-17.9-9.4-30.5-15.6-12.2,23.8-16.6,31.8-18.4,34.8.9.5,2.1.9,2.7,1.3a27.2084,27.2084,0,0,1,2.5,1.1,3.9174,3.9174,0,0,1,1.4,5.3,4.5608,4.5608,0,0,1-2.3,1.8,7.0328,7.0328,0,0,1-1.9,1.3h0a3.7083,3.7083,0,0,1-2.6,2.8c-8.2,2.7-14.3,9-19.6,20.2-.1.1-.1.2-.2.4a12.5275,12.5275,0,0,1-8.2,5.8c-2.6.7-4.3,1.3-5.9,8.7a3.8713,3.8713,0,0,1-3,2.9,15.1374,15.1374,0,0,1-3,.2c0,4.3.1,8.4.2,12.5.1,2.7.1,5.5.2,8.3,2.4-1.6,3.7-3.9,5-8.1,1.3-3.7,4-5.5,6.2-7,1.8-1.1,2.8-2,3.2-3.1,6.5-19.3,31-15.2,68-8.9a4.0527,4.0527,0,0,1,3.2,4.6c0,.2-.1.3-.1.5a49.0019,49.0019,0,0,0-2.6,15.2,28.5072,28.5072,0,0,0,3.1.2,45.9129,45.9129,0,0,1,8.2,1c4.8-2,9.6-4.1,14.2-6.3,4.3-1.9,8.7-4,13.1-5.7a67.1464,67.1464,0,0,0,4-6.8C585.7,682.2,593.2,668.5,605,661Zm-63.1,55.9a2.7686,2.7686,0,0,1-.9-.1,45.2729,45.2729,0,0,1-7.3-.8,3.8234,3.8234,0,0,1-3-3.5,53.4419,53.4419,0,0,1,1.7-16.9c-34.2-5.7-51-7.6-55,4.4v.1c-1.3,3.5-4.1,5.4-6.3,6.9-1.8,1.1-2.8,2-3.1,3-2.9,8.9-6.4,12.5-15,15.3a5.0664,5.0664,0,0,1-1.3.2,3.69,3.69,0,0,1-2.3-.7,3.9387,3.9387,0,0,1-1.7-3.1c0-4.8-.1-9.5-.2-14.1-.1-5-.2-10.1-.2-15.3-.5-1.9-2-3.8-3.1-4.2-.1,0-.3-.1-.8.3a18.4668,18.4668,0,0,1-5,3c-2.6,1.3-3.9,2-4.2,3.2-1.5,5.8-7.1,5.2-9.3,5a12.102,12.102,0,0,0-1.9-.1,3.553,3.553,0,0,1-1,.2,14.259,14.259,0,0,1-5-.9,14.0516,14.0516,0,0,1-.2,1.8c0,.2-.1.3-.1.5-2.4,8-8.7,7.4-11.4,7.1h-.4c-.4,2.8-1.7,7-7,8a3.4052,3.4052,0,0,1-1,.1l4,7.7a4.1336,4.1336,0,0,1-.6,4.5,23.1512,23.1512,0,0,1-7.3,4.6c-3.7,1.7-5,2.5-5.3,4.4v.3c-4.9,24.1.6,48.7,6.2,72.4,2.5,10.8,5,22,6.6,33.2a22.6875,22.6875,0,0,1,7.9,3.2,6.5925,6.5925,0,0,1,2.6,4.7c.2,1.7.5,3.3.7,5.1.1.9.3,1.9.4,2.8a4.4421,4.4421,0,0,0,3.1,2.2,1.4218,1.4218,0,0,0,1.6-.6,2.1813,2.1813,0,0,1,.4-.5c3.9-4,7.8-7.9,11.7-11.8,1.8-1.8,3.5-3.5,5.3-5.2l-.6.3c-.9.5-2,1-3.2,1.8a6.8328,6.8328,0,0,1-8.2-1.3l-2-1.9a7.0917,7.0917,0,0,1,0-10,6.6867,6.6867,0,0,1,2.5-1.6c1.8-.6,3.4-1.4,5.2-2,3-1.1,6.2-2.3,9.2-3.4.1,0,.2-.1.3-.1,3.8-1,6.7.6,9,2.5a7.1185,7.1185,0,0,1,4.4-8.2,38.3465,38.3465,0,0,0,4.3-1.7c2.5-.9,5-1.9,7.4-2.9a1.4213,1.4213,0,0,1-.2-.6,11.3873,11.3873,0,0,0-1.6-3.1,3.84,3.84,0,0,1,.9-5.4,4.2812,4.2812,0,0,1,1.7-.6,38.9327,38.9327,0,0,1,4.1-1.6,3.5823,3.5823,0,0,0,1.1-.4,7.591,7.591,0,0,1,6.7,1.1l.8.6c.5.4.9.7,1.5,1.1l4.6-4.6a7.0625,7.0625,0,0,1,9.9,0,6.8871,6.8871,0,0,1,2.1,4.9c.2,17.2-1.6,21.5-3.7,23.5-15.6,15.8-29.3,29.4-45.6,45a5.5532,5.5532,0,0,0-1.7,3.4l-.1,1.1a.95.95,0,0,0,.6,1,1.2577,1.2577,0,0,0,1.3-.2c17.8-16.3,35.2-32.3,51.1-49.8,8-10,4.2-45.1,2.3-62-.2-2.3-.5-4.3-.6-6.2a7.2826,7.2826,0,0,1,2.7-6.3c9.3-7.1,30-27,41.5-38.8Zm-35-112.4c-2.2-1-4.4-2.2-6.5-3.2-6.1-3-11.2-5.5-14.1-7.1a.0979.0979,0,0,1-.1-.1c-.1-.1-.2-.1-.3-.2-.1,0-.1-.1-.2-.1h0c-7.8-5.7-8.9-23.1-9.3-41.7,0-1.6-.1-2.9-.1-4.2-23.2,1.3-46.5,3.5-69.5,6.1l15.9,26.1a3.8868,3.8868,0,0,1-1.3,5.3c-7.9,5.2-16.2,9.8-24,14.3-4.1,2.3-8.2,4.7-12.4,7.1a36.0713,36.0713,0,0,1-8.8,4.9c-.5.2-.9.4-1.5.6.8,1.8,1.5,3.2,2,4.5.3.7.6,1.6.9,2.2l.2-.1a65.3791,65.3791,0,0,1,6.6-2.8,2.9585,2.9585,0,0,1,1-.2c1.6-.1,2.9-.2,4.3-.3,16.8-1.4,19.4-1.6,23.8,8.4a92.0374,92.0374,0,0,0,7.6,14.2,4.0508,4.0508,0,0,1-1.1,5.4,3.2917,3.2917,0,0,1-1.9.6l-.5.3.1.5a44.0761,44.0761,0,0,1,.8,7.2c4.7,7.6,4.8,10.2,4.5,13.5a12.0458,12.0458,0,0,0,.5,5,7.3932,7.3932,0,0,1-1,8.6c-1.8,2.1-2.6,4.7-3.5,7.8-.3,1.1-.7,2.4-1.1,3.5a7.9089,7.9089,0,0,0,3.4,1,15.4833,15.4833,0,0,1,4.3,0c.3,0,.6.1,1,.1,1.5-4.4,5.3-6.2,8.1-7.6a12.6671,12.6671,0,0,0,3.3-2l.1-.1a8.6856,8.6856,0,0,1,8.3-1.7,13.6433,13.6433,0,0,1,6.9,6.5h.8c2.6-8.4,6.5-10.3,10.6-11.5,1.8-.5,2.7-.8,3.7-2.3,3.8-7.8,10-18.5,22-23.4h0a1.4213,1.4213,0,0,1,.2-.6,7.86,7.86,0,0,1-3.8-4.4,5.8226,5.8226,0,0,1,.9-4.8l.1-.1c1-.8,4.5-6.8,19.1-35.2Zm-90.1,69.7c-.1-.2-.2-.5-.3-.7a17.1416,17.1416,0,0,1-.9-8.7c.2-1.6.3-2.7-4-9.4a4.6453,4.6453,0,0,1-.6-2.3,30.7805,30.7805,0,0,0-.7-6.8c-.2-1-.4-2.2-.5-3.2a3.8808,3.8808,0,0,1,1.7-3.8l1-.7a105.3633,105.3633,0,0,1-5.9-11.6c-1.6-3.4-1.9-4.1-2.6-4.3-1.8-.5-6.2-.2-13.5.4-1.1.1-2.4.2-3.8.3-1.8.7-3.5,1.5-5.3,2.3-2.3,1.1-4.2,2.1-6.6,1.3-2.5-.9-3.4-3-5.2-7.2-.4-.9-.9-2.1-1.6-3.4a9.98,9.98,0,0,0-2.1,2.5c-1.6,2.9-3.2,5.7-4.9,8.4a102.5735,102.5735,0,0,0-6.5,11.7.0979.0979,0,0,1-.1.1c-2.9,5.9-9.3,9.3-14.9,7.9a2.9946,2.9946,0,0,1-1-.4c-9-5.3-8.4-10.6-7.9-15.9a41.0153,41.0153,0,0,0,.2-6.1v-.4a3.4777,3.4777,0,0,0-.6-2.4c-2.3-3.4-4.6-7.2-6.9-10.7-2.8-4.6-5.7-9.3-8.9-13.7-20.4,11.4-39.5,33.8-56.5,53.7-7.1,8.3-13.9,16.3-20.5,23.3-2.5,5.6-4,11.9-5.5,18.4-.7,2.9-1.5,5.9-2.3,9,6.7,1.7,13.4,3,20.1,4.1,5.1.8,10.3,1.8,15.4,2.8a.7638.7638,0,0,1,.5.2c10.3,4,20.5,8.7,30.5,13.2,6.9,3.1,14,6.4,21,9.4,11.4,3.5,23.3,6.7,34.6,9.7,8.4,2.2,17.2,4.5,25.8,7a79.324,79.324,0,0,1,1.7-11.9c.9-6.3,6.1-8.7,9.8-10.3a13.827,13.827,0,0,0,2.7-1.4L385,711.8a3.8091,3.8091,0,0,1,1.3-5l.3-.2a21.8347,21.8347,0,0,1,4.9-2.9,4.4811,4.4811,0,0,1,3.9.4,9.6017,9.6017,0,0,1,1.5,1.4c1.4-5.8,6.9-5.2,8.8-5,2.4.3,2.5.3,2.9-1.3,0-.5.1-1,.1-1.6a14.6722,14.6722,0,0,1,1-5.6,9.467,9.467,0,0,1,.2-2.9c0-.1.1-.2.1-.3.4-1.1.8-2.4,1.3-3.8,1.5-3.6,2.6-7.4,5.5-10.8ZM414,580.7l-15.8-26c-.9.1-1.9.2-2.8.3-7.4.8-14.8,1.6-22.3,2.4-4.9.6-6.7-2.4-7.3-4.9-2.5-9.9-5.2-20-7.9-29.8-2.8-10.4-5.8-21.3-8.4-32-.9-3.4-1.7-6.7-2.4-9.7-3.4-14.5-5.8-24.2-16.1-37.8h-1.5a20.4791,20.4791,0,0,0-3.5.1c-16.2,3.7-32.2,1.1-47.8-1.3-2.8-.4-5.6-.8-8.4-1.3a3.3011,3.3011,0,0,0-3.4,1.6,3.6515,3.6515,0,0,0-.2,3.9c1.8,3.3,3.7,6.7,5.4,10,3.4,6.4,7.1,12.9,10.4,19.4a11.9015,11.9015,0,0,1-5,15.9,5.3618,5.3618,0,0,1-1.1.5c-6.2,2.4-12.5,5-18.6,7.5-3.4,1.5-6.9,2.8-10.4,4.2a5.2883,5.2883,0,0,0-3.4,5.9l11.3,71.5v.3c1.7,27.3-24.6,72-42.1,101.6-3.8,6.5-7.1,12.1-9.4,16.2l-.3.8c-2.9,6.8-5.8,6.8-14.1,5.5a6.01,6.01,0,0,1-4.8-2,4.8313,4.8313,0,0,1-1-4.2c-.4-.1-.9-.3-1.4-.4a22.5277,22.5277,0,0,1-5.3-1.9,20.0063,20.0063,0,0,1-2.6-1,6.515,6.515,0,0,0-6.2.4L142.2,713a3.4306,3.4306,0,0,0-1.5,3.7,14.3272,14.3272,0,0,0,3.3,5.9c4.3,5.3,6.8,10.3-2.2,21-.3.9.1,2.6.4,4.3a17.03,17.03,0,0,1,.6,7.1c-.9,5.7-8.7,6.9-39.7,5.9l-2.6-.1a3.9285,3.9285,0,0,1-3.8-4.1h0v-.1a35.26,35.26,0,0,1,2-9.1c.5-1.6.9-3,1.3-4.5-.4-.5-.8-.9-1.3-1.5a92.173,92.173,0,0,1-6.2-7.8c-.4.1-1.1.2-1.7.3a21.3591,21.3591,0,0,1-3.5.6c-.8.3-1.3.8-2.3,2.3-1.9,2.6-4.6,6.5-12.3,6.5h0c-1.4.2-2.6.3-4,.4a17.2227,17.2227,0,0,0-3.9.4c-8,20.2-8,26.2-7.8,47.6,3.4,1.5,7,2.7,10.7,4,1.6.5,3.1,1,4.7,1.6a2.77,2.77,0,0,0,2-.1,2.5864,2.5864,0,0,0,1.1-1.4c3.2-12.3,17.8-13.8,29.5-14.9,2.5-.2,4.8-.5,6.9-.8h.1c16.9-2,33.8-4.1,50.7-6.2a6.0715,6.0715,0,0,1,4.7,1.1c2.9,2.3,3.1,6.8,3.2,11.4a23.1625,23.1625,0,0,0,.4,4.6,2.7684,2.7684,0,0,1,.3,1.3,4.646,4.646,0,0,1-1.5,4.1c-1.7,1.7-4.1,1.9-6.8,1.8.8.9,2.3,1.4,5,2.1a29.6622,29.6622,0,0,1,4.7,1.4,6.0556,6.0556,0,0,1,4.8,6.9.7559.7559,0,0,1-.1.4,3.7,3.7,0,0,0,1.5,2,11.7311,11.7311,0,0,0,1.1-.5c.1,0,.2-.1.3-.1a3.9529,3.9529,0,0,1,5.5.7,4.3,4.3,0,0,1,.8,2.7,8.9983,8.9983,0,0,1,0,4c.8.3,1.7.7,2.4,1,1,.5,2.1.9,3.1,1.3a57.6084,57.6084,0,0,1,9.3-1.1c3.5-.2,10.8-.7,12.3-2.1,0-.1.1-.3.1-.4,9.6-23.2,13.1-36.7,5.1-61.2a25.42,25.42,0,0,0-4.7.7c-2.7.5-5.2,1-7.5.6a3.7231,3.7231,0,0,1-3.1-3.5c-.1-.6-.1-1.6-.2-2.5-1.3-13-3.5-37.2,8.8-38.8h.6c2.4.1,3.5-1.3,5.8-4.9a22.15,22.15,0,0,1,2.5-3.5v-.2c1.3-4,2.3-8.1,3.2-12.2,1.7-6.8,3.3-13.9,6.3-20.3a3.5915,3.5915,0,0,1,.7-1c6.6-6.9,13.5-14.9,20.7-23.4,18.3-21.5,38.9-45.8,61.9-57.3a4.1168,4.1168,0,0,1,4.9,1.1c4.1,5.4,7.7,11.3,11.2,16.9,2.2,3.5,4.5,7.1,6.8,10.5a11.1089,11.1089,0,0,1,1.9,6.9,40.5844,40.5844,0,0,1-.3,7c-.4,4.3-.5,5.5,3.5,8,1.9.1,4.4-1.5,5.5-3.8a88.7388,88.7388,0,0,1,6.9-12.5c1.7-2.8,3.2-5.3,4.7-8a.0979.0979,0,0,1,.1-.1c3.2-5.5,8.8-8.2,13.7-10.5a36.1456,36.1456,0,0,0,7.4-4.2c.1-.1.3-.2.4-.3,4.3-2.5,8.6-4.9,12.7-7.3,7.1-3.9,14-7.8,20.7-12.1ZM393.3,882.9c.6-.7,1.3-1.4,1.9-2.1-1.9-1.9-3.7-3.9-5.5-5.8-6.6-7.1-13.5-14.4-21.2-19.4a7.0843,7.0843,0,0,1-2-9.8,6.6475,6.6475,0,0,1,4.7-3,85.9435,85.9435,0,0,1,20.9-.7c-1.6-10.1-3.9-20.3-6.2-30.3-4.2-18.2-8.3-36.8-8.2-55.6-9.1-2.7-18.4-5.1-27.4-7.5-11.6-3-23.6-6.2-35.3-9.8-.1,0-.2-.1-.3-.1-7.2-3-14.4-6.4-21.4-9.6-9.7-4.5-19.7-9.1-29.7-12.9-4.8-1-9.8-1.9-14.7-2.7a180.9207,180.9207,0,0,1-21.9-4.5c-.5.6-.9,1.4-1.5,2.2-2.3,3.5-5.5,8.4-12.2,8.4-.7.3-2.3,2.6-2.7,10.3a149.2935,149.2935,0,0,0,.7,18.9c.6-.1,1.1-.2,1.7-.3,4.3-.8,12-2.5,13.7,4.5,8.4,25.6,5.2,41.2-5.2,66.4-1.9,6.4-11.1,7-19.3,7.6-1.6.1-3.2.2-4.6.3,3.7,12.6,13,42.5,17.7,57.7l1,3.1a21.2022,21.2022,0,0,1,.5,9.7c-.8,4.3-1.6,7.5-2.3,10.5a1.5452,1.5452,0,0,0,.8,1.6c4.5,1.7,9.6,3.7,15,5.8,10.6,4.2,22.5,8.8,31.3,11.8,10-23.7,25.7-44.6,41-64a7.076,7.076,0,0,1,3.3-2.3c12.4-4.2,24.5-1.4,36.2,1.4,1.7.4,3.3.7,5,1.1a3.5823,3.5823,0,0,1,1.1.4c.9.4,1.7.2,4.3-1.5.6-.4,1.4-.8,2.1-1.3a6.8224,6.8224,0,0,1,8.4,1.3c4.9,4.9,9.7,10.1,14.3,15.1,3.1,3.4,6.5,7,9.7,10.4l.2.2c1.6-.6,4.6-3.9,6.1-5.5Z"/>
    <g id="_texto" class="text">
        <path class="cls-2" d="M342.2,489.6l-9.9,2.7-.5-1.9,4.7-6.6-6.1,1.6-.6-2.3,9.9-2.7.5,1.9-4.7,6.6,6.1-1.6Z"/>
        <path class="cls-2" d="M333.6,495.8a3.5206,3.5206,0,0,1,1-1.9,4.0612,4.0612,0,0,1,4.1-1,3.67,3.67,0,0,1,1.8,1.1,4.2127,4.2127,0,0,1,1,2,5.9505,5.9505,0,0,1,.1,2.3,3.5206,3.5206,0,0,1-1,1.9,4.0612,4.0612,0,0,1-4.1,1,3.67,3.67,0,0,1-1.8-1.1,5.0877,5.0877,0,0,1-1.1-4.3Zm2.8,3.1a2.48,2.48,0,0,0,3-.8,2.125,2.125,0,0,0,.2-1.6,2.7973,2.7973,0,0,0-.9-1.3,2.48,2.48,0,0,0-3,.8,2.125,2.125,0,0,0-.2,1.6A1.7614,1.7614,0,0,0,336.4,498.9Z"/>
        <path class="cls-2" d="M344.8,508.8l-8.4-1.1-.6-2.3,6.8-5.2.6,2.3-4.6,3.5,5.7.8Z"/>
        <path class="cls-2" d="M342.6,518.4l-1.6-5.7a2.0564,2.0564,0,0,0-.9,2.6,4.1792,4.1792,0,0,0,.4,1,2.6957,2.6957,0,0,0,.8.7l-.9,1.6a4.2708,4.2708,0,0,1-2.1-2.8,4.8873,4.8873,0,0,1-.1-2.4,4.1955,4.1955,0,0,1,.9-1.9,3.2029,3.2029,0,0,1,1.9-1,4.1083,4.1083,0,0,1,2.2,0,3.5351,3.5351,0,0,1,1.8,1,4.3988,4.3988,0,0,1,1.1,4.1,2.9444,2.9444,0,0,1-1,1.8,3.8106,3.8106,0,0,1-2,1C343.2,518.3,343,518.3,342.6,518.4Zm1.1-5.9a1.6544,1.6544,0,0,0-1.4-.3l1,3.8a1.5912,1.5912,0,0,0,.9-.9,2.1973,2.1973,0,0,0,.1-1.4,1.1405,1.1405,0,0,0-.6-1.2Z"/>
        <path class="cls-2" d="M350.4,517.8l.6,2.2-10.5,2.8-.6-2.2Z"/>
        <path class="cls-2" d="M353.5,529.9,343,532.7l-.5-2.1.8-.2a3.04,3.04,0,0,1-1.7-2.1,3.7452,3.7452,0,0,1,0-2.1,4.6035,4.6035,0,0,1,1-1.8,4.5185,4.5185,0,0,1,4.2-1.1,4.6035,4.6035,0,0,1,1.8,1,4,4,0,0,1,1,1.8,2.7725,2.7725,0,0,1-.3,2.5l3.7-1Zm-8.9-.5a2.48,2.48,0,0,0,3-.8,2.2085,2.2085,0,0,0-.7-2.8,2.48,2.48,0,0,0-3,.8A2.0127,2.0127,0,0,0,344.6,529.4Z"/>
        <path class="cls-2" d="M352.1,538.7a3.92,3.92,0,0,1-2.3,1.7l-4.4,1.1-.5-2.1.9-.2a2.49,2.49,0,0,1-1.7-2.1,4.193,4.193,0,0,1-.1-1.6,4.2829,4.2829,0,0,1,.5-1.3,1.9753,1.9753,0,0,1,1.1-.6,2.1417,2.1417,0,0,1,1.9.3,5.2928,5.2928,0,0,1,1.3,2.3l.5,1.8a1.4452,1.4452,0,0,0,1-.7,1.9327,1.9327,0,0,0,0-1.5,3.696,3.696,0,0,0-.5-1.1,3.0435,3.0435,0,0,0-.8-.8l1.4-1.3a3.5874,3.5874,0,0,1,1,1.4,7.51,7.51,0,0,1,.7,1.8A3.6539,3.6539,0,0,1,352.1,538.7Zm-5.8-.4a1.4893,1.4893,0,0,0,.9.4l.7-.2-.4-1.6c-.2-.9-.6-1.3-1.3-1.1-.3.1-.5.2-.6.5a1.3878,1.3878,0,0,0,0,.9,2.9791,2.9791,0,0,0,.7,1.1Z"/>
        <path class="cls-2" d="M365.7,768.2a4.5322,4.5322,0,0,1,1.1-1.9,4.1813,4.1813,0,0,1,4.3-.8,3.3809,3.3809,0,0,1,1.8,1.3,5.8038,5.8038,0,0,1,1,2.1,4.9311,4.9311,0,0,1-.1,2.4,4.1664,4.1664,0,0,1-5.2,2.8,3.5241,3.5241,0,0,1-2-1.4,5.1718,5.1718,0,0,1-.9-4.5Zm2.1,3.2a2.286,2.286,0,0,0,1,.7,2.7082,2.7082,0,0,0,2.6-.5,2.2854,2.2854,0,0,0,.7-1,2.7566,2.7566,0,0,0-.5-2.6,2.2871,2.2871,0,0,0-1-.7,2.7087,2.7087,0,0,0-2.6.5,2.286,2.286,0,0,0-.7,1A2.6582,2.6582,0,0,0,367.8,771.4Z"/>
        <path class="cls-2" d="M367.1,776.8a6.882,6.882,0,0,1,.2-1.3l1.4.3a3.553,3.553,0,0,0-.2,1,3.75,3.75,0,0,0,.1,1.1c.1.7.4,1,.8,1,.2,0,.3-.2.3-.4v-2.2a1.6132,1.6132,0,0,1,.3-.9,1.7005,1.7005,0,0,1,1-.6,2.08,2.08,0,0,1,1.1.1,2.3609,2.3609,0,0,1,.9.8,3.33,3.33,0,0,1,.5,1.5,5.7214,5.7214,0,0,1,.1,1.4,4.2528,4.2528,0,0,1-.2,1.1l-1.4-.3a4.0838,4.0838,0,0,0,.1-1.9,1.9093,1.9093,0,0,0-.3-.8.7638.7638,0,0,0-.5-.2c-.2,0-.3.2-.3.4v2.3a1.6129,1.6129,0,0,1-.3.9,1.1932,1.1932,0,0,1-.9.5,1.6449,1.6449,0,0,1-1-.1,2.3616,2.3616,0,0,1-.9-.8,3.3308,3.3308,0,0,1-.5-1.5A2.2324,2.2324,0,0,1,367.1,776.8Z"/>
        <path class="cls-2" d="M368.7,783.3a3.16,3.16,0,0,1,2.4-2.2,3.0889,3.0889,0,0,1,3.1,1.1,3.25,3.25,0,0,1,.7,1.7,3.5262,3.5262,0,0,1-.1,1.8,3.804,3.804,0,0,1-.9,1.3l-1-1.3a1.3773,1.3773,0,0,0,.5-1.6,1.4454,1.4454,0,0,0-.7-1,2.1478,2.1478,0,0,0-2.5.5,1.9068,1.9068,0,0,0-.2,1.3,1.7853,1.7853,0,0,0,1.1,1.3l-.5,1.6a2.85,2.85,0,0,1-1.4-.8,2.9283,2.9283,0,0,1-.7-1.6C368.6,784.6,368.6,784,368.7,783.3Z"/>
        <path class="cls-2" d="M376.1,792.5a2.6539,2.6539,0,0,1-1.9,1.1l-3.5.7-.3-1.7.7-.1a2.3075,2.3075,0,0,1-1.3-1.7,2.845,2.845,0,0,1,0-1.3,2.046,2.046,0,0,1,.5-.9,1.2677,1.2677,0,0,1,.9-.4,1.7476,1.7476,0,0,1,1.5.4,3.0956,3.0956,0,0,1,.9,1.9l.3,1.5a1.02,1.02,0,0,0,.8-.5,1.3759,1.3759,0,0,0,.1-1.1l-.3-.9a1.3444,1.3444,0,0,0-.6-.7l1.1-.9a7.0061,7.0061,0,0,1,.8,1,5.7825,5.7825,0,0,1,.5,1.4A3.4113,3.4113,0,0,1,376.1,792.5Zm-4.6-.6a1.6118,1.6118,0,0,0,.7.4l.6-.1-.2-1.3q-.15-1.05-.9-.9a.6644.6644,0,0,0-.5.4.8542.8542,0,0,0,0,.7,1.1354,1.1354,0,0,0,.3.8Z"/>
        <path class="cls-2" d="M377.5,797.4a3.9217,3.9217,0,0,1,.5,1.3l-1.7.3c0-.2,0-.3-.1-.4a2.3838,2.3838,0,0,0-.6-1.1,2.1993,2.1993,0,0,0-1.4-.2l-2.9.6-.3-1.8,6.2-1.3.3,1.7-.8.2A1.7788,1.7788,0,0,1,377.5,797.4Z"/>
        <path class="cls-2" d="M375.3,810.2l-1.5.3-1.3-6.2,8-1.7,1.3,6.1-1.5.3-.8-4.2-1.8.3.7,3.8-1.5.3-.7-3.8-1.9.3Z"/>
        <path class="cls-2" d="M374.4,812.4a6.882,6.882,0,0,1,.2-1.3l1.4.3a3.553,3.553,0,0,0-.2,1,3.75,3.75,0,0,0,.1,1.1c.1.7.4,1,.8,1,.2,0,.3-.2.3-.4v-2.2a1.6135,1.6135,0,0,1,.3-.9,1.7,1.7,0,0,1,1-.6,2.08,2.08,0,0,1,1.1.1,2.3618,2.3618,0,0,1,.9.8,3.332,3.332,0,0,1,.5,1.5,5.7223,5.7223,0,0,1,.1,1.4,4.2513,4.2513,0,0,1-.2,1.1l-1.4-.3a4.0837,4.0837,0,0,0,.1-1.9,1.9093,1.9093,0,0,0-.3-.8.7644.7644,0,0,0-.5-.2c-.2,0-.3.2-.3.4v2.3a1.6135,1.6135,0,0,1-.3.9,1.1935,1.1935,0,0,1-.9.5,1.6457,1.6457,0,0,1-1-.1,2.3609,2.3609,0,0,1-.9-.8,3.33,3.33,0,0,1-.5-1.5A1.8174,1.8174,0,0,1,374.4,812.4Z"/>
        <path class="cls-2" d="M382.3,821.9a9.9928,9.9928,0,0,1-.8,1.4,3.5635,3.5635,0,0,1-3.3.6,5.013,5.013,0,0,1-1.4-.8,3.4794,3.4794,0,0,1-.7-1.5,2.3256,2.3256,0,0,1,.4-2l-2.9.6-.3-1.8,8.3-1.7.3,1.7-.7.1a2.4525,2.4525,0,0,1,1.1,1.8A2.9007,2.9007,0,0,1,382.3,821.9Zm-4.1.1a2.1478,2.1478,0,0,0,2.5-.5,1.7214,1.7214,0,0,0-.4-2.3,2.1478,2.1478,0,0,0-2.5.5A1.5378,1.5378,0,0,0,378.2,822Z"/>
        <path class="cls-2" d="M385.5,824.1l.3,1.8-8.4,1.8-.3-1.8Z"/>
        <path class="cls-2" d="M384.2,832.8a2.6539,2.6539,0,0,1-1.9,1.1l-3.5.7-.3-1.7.7-.1a2.3071,2.3071,0,0,1-1.3-1.7,2.8423,2.8423,0,0,1,0-1.3,2.044,2.044,0,0,1,.5-.9,1.2676,1.2676,0,0,1,.9-.4,1.7477,1.7477,0,0,1,1.5.4,3.0953,3.0953,0,0,1,.9,1.9l.3,1.5a1.02,1.02,0,0,0,.8-.5,1.3759,1.3759,0,0,0,.1-1.1l-.3-.9a1.3444,1.3444,0,0,0-.6-.7l1.1-.9a7.0005,7.0005,0,0,1,.8,1,5.7825,5.7825,0,0,1,.5,1.4A3.4579,3.4579,0,0,1,384.2,832.8Zm-4.6-.7a1.6118,1.6118,0,0,0,.7.4l.6-.1-.2-1.3q-.15-1.05-.9-.9a.6644.6644,0,0,0-.5.4.8542.8542,0,0,0,0,.7,1.9093,1.9093,0,0,0,.3.8Zm6.7-4.3.4,1.9-1.4,1.9-.3-1.4Z"/>
        <path class="cls-2" d="M262.7,588.5a3.4206,3.4206,0,0,1,2-.1,3.7993,3.7993,0,0,1,2.7,2.9,4.5666,4.5666,0,0,1-.2,2,5.54,5.54,0,0,1-1.5,2l-1.6,1.5,1.9,2.1-1.8,1.7-7-7.5,3.2-3A6.0154,6.0154,0,0,1,262.7,588.5Zm2.5,3.9a1.553,1.553,0,0,0-.5-1.4,1.6781,1.6781,0,0,0-1.4-.6,2.6278,2.6278,0,0,0-1.5.7l-1.5,1.4,2.4,2.6,1.5-1.4a1.4085,1.4085,0,0,0,1-1.3Z"/>
        <path class="cls-2" d="M264.8,585.1l1.7-1.6,7.4,7.9-1.7,1.6Z"/>
        <path class="cls-2" d="M274.9,580.7a3.2773,3.2773,0,0,1,2.5,1.3l3,3.3-1.6,1.5-.6-.7a2.4731,2.4731,0,0,1-1,2.4,3.2235,3.2235,0,0,1-1.4.8,3.083,3.083,0,0,1-1.4.1,2.3838,2.3838,0,0,1-1.1-.6,1.8466,1.8466,0,0,1-.5-1.9,3.6778,3.6778,0,0,1,1.5-2.2l1.4-1.3a1.6058,1.6058,0,0,0-1.1-.5,2.2329,2.2329,0,0,0-1.3.6,5.4919,5.4919,0,0,0-.7.9,3.5826,3.5826,0,0,0-.4,1.1l-1.7-.6a6.3928,6.3928,0,0,1,.6-1.6,14.3092,14.3092,0,0,1,1.1-1.5A12.75,12.75,0,0,1,274.9,580.7Zm2.3,5.4a1.1833,1.1833,0,0,0-.1-1l-.5-.6-1.1,1c-.7.6-.8,1.1-.4,1.7a.9078.9078,0,0,0,.7.3,2.01,2.01,0,0,0,.8-.4A2.0749,2.0749,0,0,0,277.2,586.1Z"/>
        <path class="cls-2" d="M285.6,578.2l1.1,1.3-5.1,4.8-.9-1-.3-6.3-2.9,2.7-1.1-1.3,5-4.6.9,1,.3,6.3Z"/>
        <path class="cls-2" d="M287.4,569.2a3.2773,3.2773,0,0,1,2.5,1.3l3,3.3-1.6,1.5-.6-.7a2.4731,2.4731,0,0,1-1,2.4,3.2235,3.2235,0,0,1-1.4.8,3.083,3.083,0,0,1-1.4.1,2.3838,2.3838,0,0,1-1.1-.6,1.8466,1.8466,0,0,1-.5-1.9,3.6778,3.6778,0,0,1,1.5-2.2l1.4-1.3a1.6058,1.6058,0,0,0-1.1-.5,2.2329,2.2329,0,0,0-1.3.6,5.4919,5.4919,0,0,0-.7.9,3.5826,3.5826,0,0,0-.4,1.1l-1.7-.6a6.3928,6.3928,0,0,1,.6-1.6,8.2768,8.2768,0,0,1,1.1-1.5A5.9431,5.9431,0,0,1,287.4,569.2Zm2.3,5.3a1.1833,1.1833,0,0,0-.1-1l-.5-.6-1.1,1c-.7.6-.8,1.1-.4,1.7a.9078.9078,0,0,0,.7.3,2.01,2.01,0,0,0,.8-.4A2.0749,2.0749,0,0,0,289.7,574.5Z"/>
        <path class="cls-2" d="M264.9,623.6a5.2449,5.2449,0,0,1-1.8.2l-.1-2.1a2.5388,2.5388,0,0,0,2.2-.5c.7-.6.6-1.4-.1-2.2l-3.3-3.5-2.6,2.5-1.3-1.4,4.4-4.1,4.5,4.9a4.0766,4.0766,0,0,1,1.3,2.7,3.7575,3.7575,0,0,1-1.4,2.6A15.106,15.106,0,0,1,264.9,623.6Z"/>
        <path class="cls-2" d="M271.7,617.2a3.7455,3.7455,0,0,1-2.1,0,3.8909,3.8909,0,0,1-2.8-3,4.8925,4.8925,0,0,1,.1-2.1,4.9678,4.9678,0,0,1,1.3-1.9,4.901,4.901,0,0,1,2-1.1,3.7455,3.7455,0,0,1,2.1,0,3.891,3.891,0,0,1,2.8,3,4.8925,4.8925,0,0,1-.1,2.1,6.4734,6.4734,0,0,1-3.3,3Zm1.3-4a2.4579,2.4579,0,0,0-2.2-2.3,2.9757,2.9757,0,0,0-1.5.5,1.7548,1.7548,0,0,0-.6,1.5,2.4579,2.4579,0,0,0,2.2,2.3,2.9757,2.9757,0,0,0,1.5-.5A3.1675,3.1675,0,0,0,273,613.2Z"/>
        <path class="cls-2" d="M278.2,611.3a3.33,3.33,0,0,1-1.5.5l-.5-1.8a10.26,10.26,0,0,0,1.4-.4,9.1294,9.1294,0,0,0,1.3-.8c.7-.6.9-1.1.6-1.6a.4711.4711,0,0,0-.6-.1,8.8087,8.8087,0,0,0-1,.6,6.3758,6.3758,0,0,1-1.4.8,1.9068,1.9068,0,0,1-1.3.2,2.3891,2.3891,0,0,1-1.3-.7,2.618,2.618,0,0,1-.6-1.3,4.9729,4.9729,0,0,1,.3-1.6,4.8362,4.8362,0,0,1,1.3-1.6,5.0155,5.0155,0,0,1,1.4-1,4.5607,4.5607,0,0,1,1.4-.5l.5,1.7a4.7464,4.7464,0,0,0-2.1,1.1,1.4565,1.4565,0,0,0-.6.9.5232.5232,0,0,0,.7.7c.4-.2.7-.4,1.1-.6a6.38,6.38,0,0,1,1.4-.8,1.9068,1.9068,0,0,1,1.3-.2,2.3887,2.3887,0,0,1,1.3.7,1.9011,1.9011,0,0,1,.5,1.3,4.9729,4.9729,0,0,1-.3,1.6,4.8355,4.8355,0,0,1-1.3,1.6A9.6053,9.6053,0,0,1,278.2,611.3Z"/>
        <path class="cls-2" d="M279.1,595.7l1.8-1.7-.5,3.3-1.4,1.3Zm7.8,3.2-4.4,4.1a1.6544,1.6544,0,0,0,1.4.3,2.6663,2.6663,0,0,0,1.4-.7,1.5551,1.5551,0,0,0,.6-.8,2.9585,2.9585,0,0,0,.2-1l1.8.1a3.4729,3.4729,0,0,1-1.6,3.1,10.7025,10.7025,0,0,1-2.1,1.3,4.1083,4.1083,0,0,1-2.2,0,4.532,4.532,0,0,1-1.9-1.1,3.8612,3.8612,0,0,1-1-1.9,4.892,4.892,0,0,1,.1-2.1,4.5008,4.5008,0,0,1,3.1-2.9,3.7455,3.7455,0,0,1,2.1,0,3.4552,3.4552,0,0,1,1.9,1.3c.3-.1.4.1.6.3Zm-5.6,1.9a2.5427,2.5427,0,0,0,.3,1.4l2.8-2.6a1.844,1.844,0,0,0-1.3-.4,2.1062,2.1062,0,0,0-1.3.5,1.8728,1.8728,0,0,0-.5,1.1Z"/>
        <path class="cls-2" d="M298.3,592.8l-3.4-.7-.1.1-1.6,1.5,2,2.1-1.8,1.7-7-7.5,3.2-3a7.4315,7.4315,0,0,1,2.1-1.3,3.42,3.42,0,0,1,2-.1,4.6035,4.6035,0,0,1,1.8,1,3.3058,3.3058,0,0,1,.6,3.9l4,.8Zm-5.9-5.3a2.6278,2.6278,0,0,0-1.5.7l-1.5,1.4,2.4,2.6,1.5-1.4a2.4429,2.4429,0,0,0,.8-1.5c.2-.8-.5-1.7-1.7-1.8Z"/>
        <path class="cls-2" d="M294.9,583.1a1.2605,1.2605,0,0,1-1.3-1.3v-.1a1.05,1.05,0,0,1,.5-.9,1.2839,1.2839,0,0,1,1-.4,1.2212,1.2212,0,0,1,.9.4,1.008,1.008,0,0,1,.3.9,1.2634,1.2634,0,0,1-1.4,1.4Zm1,1.2,1.7-1.6,5.4,5.7-1.7,1.6Z"/>
        <path class="cls-2" d="M305.4,585.8a3.7455,3.7455,0,0,1-2.1,0,4.1,4.1,0,0,1-2.8-4.9c0-.1.1-.2.1-.3a4.2936,4.2936,0,0,1,1.4-1.9,4.9,4.9,0,0,1,2-1.1,2.7992,2.7992,0,0,1,2,.2l-.6,1.9a2.0437,2.0437,0,0,0-2.1.4,2.1319,2.1319,0,0,0-.7,1.5,2.3082,2.3082,0,0,0,2.2,2.3,2.4017,2.4017,0,0,0,1.5-.6,1.8725,1.8725,0,0,0,.5-2l2-.5a3.4083,3.4083,0,0,1,0,2,3.4551,3.4551,0,0,1-1.3,1.9A21.18,21.18,0,0,1,305.4,585.8Z"/>
        <path class="cls-2" d="M311.6,579.9a3.7455,3.7455,0,0,1-2.1,0,3.8909,3.8909,0,0,1-2.8-3,4.8925,4.8925,0,0,1,.1-2.1,4.7877,4.7877,0,0,1,3.2-3,3.7455,3.7455,0,0,1,2.1,0,3.891,3.891,0,0,1,2.8,3,4.8924,4.8924,0,0,1-.1,2.1,4.5932,4.5932,0,0,1-3.2,3Zm1.4-3.8a2.4579,2.4579,0,0,0-2.2-2.3,2.9757,2.9757,0,0,0-1.5.5c-.5.3-.6.8-.6,1.5a2.4579,2.4579,0,0,0,2.2,2.3,2.9757,2.9757,0,0,0,1.5-.5,2.4017,2.4017,0,0,0,.6-1.5Z"/>
        <path class="cls-2" d="M267.9,650.4l1.6-1.8,6.4,5.4,3.3-3.9,1.5,1.3-4.9,5.7Z"/>
        <path class="cls-2" d="M274.3,644.4a1.2456,1.2456,0,0,1-1.4-1v-.1a1.2839,1.2839,0,0,1,.4-1,1.05,1.05,0,0,1,.9-.5,1.1021,1.1021,0,0,1,.9.3.9749.9749,0,0,1,.4.9c.1.5-.4,1.2-1.2,1.4Zm1,1,1.5-1.8,5.9,5.1-1.5,1.8Z"/>
        <path class="cls-2" d="M282.8,637.2a3.4206,3.4206,0,0,1,2-.1,4.3335,4.3335,0,0,1,3.2,2.8,4.5667,4.5667,0,0,1,.2,2,3.379,3.379,0,0,1-.9,1.9,3.2317,3.2317,0,0,1-2.4,1.3l.7.6-1.5,1.7-8.2-7.1,1.5-1.8,2.9,2.5a2.9525,2.9525,0,0,1,.8-2.4A4.3964,4.3964,0,0,1,282.8,637.2Zm3.4,4.1a2.6526,2.6526,0,0,0-2.4-2.1,2.0359,2.0359,0,0,0-1.9,2.2,2.6526,2.6526,0,0,0,2.4,2.1A2.0962,2.0962,0,0,0,286.2,641.3Z"/>
        <path class="cls-2" d="M293.3,631.5l-3.9,4.5a2.1993,2.1993,0,0,0,1.4.2,2.5771,2.5771,0,0,0,1.3-.8,4.0534,4.0534,0,0,0,.5-.9,1.7287,1.7287,0,0,0,.1-1l1.8-.1a4.2966,4.2966,0,0,1-1.1,3.3,5.2651,5.2651,0,0,1-2,1.5,3.8609,3.8609,0,0,1-2.1.3,4.0243,4.0243,0,0,1-2-.9,6.425,6.425,0,0,1-1.3-1.8,3.717,3.717,0,0,1-.1-2.1,4.4092,4.4092,0,0,1,2.7-3.2,4.8688,4.8688,0,0,1,2.1-.2,3.8106,3.8106,0,0,1,2,1C292.8,631.1,293,631.2,293.3,631.5Zm-5.4,2.4a2.1062,2.1062,0,0,0,.5,1.3l2.5-2.9a2.9041,2.9041,0,0,0-1.4-.3,1.9013,1.9013,0,0,0-1.1.7,1.3459,1.3459,0,0,0-.5,1.2Z"/>
        <path class="cls-2" d="M293.1,625a5.4827,5.4827,0,0,1,.8-1.5l1.6,1.4c-.2.2-.3.3-.3.4a2.1116,2.1116,0,0,0-.6,1.6,2.3707,2.3707,0,0,0,.9,1.5l2.8,2.4-1.5,1.8-5.9-5.1,1.5-1.7.8.6A1.4219,1.4219,0,0,1,293.1,625Z"/>
        <path class="cls-2" d="M717.5,475a3.7316,3.7316,0,0,1-1.8.1V473a2.491,2.491,0,0,0,2.2-.4,1.4115,1.4115,0,0,0,0-2.2l-3.2-3.7-2.7,2.4-1.3-1.5,4.5-4,4.4,5a4.0491,4.0491,0,0,1,1.1,2.7,3.3434,3.3434,0,0,1-1.5,2.5A3.5735,3.5735,0,0,1,717.5,475Z"/>
        <path class="cls-2" d="M724.3,458.8l5.2,5.9-1.7,1.5-.6-.7a3.9257,3.9257,0,0,1-.3,1.4,4.44,4.44,0,0,1-.8,1.1,3.5831,3.5831,0,0,1-2.4.9,3.1643,3.1643,0,0,1-2.4-1.5l-2.9-3.3,1.8-1.5,2.7,3.1a1.7155,1.7155,0,0,0,2.5.4,1.4856,1.4856,0,0,0,.6-1.3,2.4523,2.4523,0,0,0-.6-1.6l-2.6-2.9Z"/>
        <path class="cls-2" d="M731.9,453.3a3.5445,3.5445,0,0,1,2.4,1.4l2.9,3.4-1.8,1.5-2.7-3.1a1.9551,1.9551,0,0,0-1.3-.8,2.4211,2.4211,0,0,0-1.3.4,2.0967,2.0967,0,0,0-.7,1.4,2.4519,2.4519,0,0,0,.6,1.6l2.6,2.9-1.8,1.5-5.2-5.9,1.7-1.5.6.7a3.9257,3.9257,0,0,1,.3-1.4,2.4447,2.4447,0,0,1,.9-1.1A4.7966,4.7966,0,0,1,731.9,453.3Z"/>
        <path class="cls-2" d="M739.7,455.4a3.717,3.717,0,0,1-2.1-.1,4.0074,4.0074,0,0,1-2.6-5c0-.1.1-.2.1-.3a4.2931,4.2931,0,0,1,1.4-1.9,4.724,4.724,0,0,1,2-1,3.4575,3.4575,0,0,1,2,.2l-.7,1.9a2.0117,2.0117,0,0,0-2.1.3,1.8057,1.8057,0,0,0-.7,1.5,2.388,2.388,0,0,0,2.1,2.4,2.1038,2.1038,0,0,0,1.5-.5,1.9185,1.9185,0,0,0,.6-2l2-.4a2.77,2.77,0,0,1-.1,2,4.9678,4.9678,0,0,1-1.3,1.9A8.1081,8.1081,0,0,1,739.7,455.4Z"/>
        <path class="cls-2" d="M745.2,441.7a3.3953,3.3953,0,0,1,2.5,1.4l2.9,3.4-1.7,1.4-.6-.7a2.5437,2.5437,0,0,1-1.1,2.4,4.6784,4.6784,0,0,1-1.4.8,3.295,3.295,0,0,1-1.4,0,1.8338,1.8338,0,0,1-1-.7,2.3951,2.3951,0,0,1-.5-1.9,4.818,4.818,0,0,1,1.6-2.2l1.4-1.1a1.433,1.433,0,0,0-1.1-.5,1.76,1.76,0,0,0-1.3.6,6.4755,6.4755,0,0,0-.8.9,4.1854,4.1854,0,0,0-.4,1l-1.7-.6a7.0951,7.0951,0,0,1,.7-1.6,3.484,3.484,0,0,1,1.3-1.4A3.367,3.367,0,0,1,745.2,441.7Zm2.1,5.4a1.7042,1.7042,0,0,0,0-1l-.5-.6-1.1,1c-.7.6-.8,1.1-.4,1.7a.9078.9078,0,0,0,.7.3,1.2345,1.2345,0,0,0,.8-.4A4.6711,4.6711,0,0,0,747.3,447.1Z"/>
        <path class="cls-2" d="M749.6,437.1a4.1247,4.1247,0,0,1,1-1.3l1.4,1.6a1.38,1.38,0,0,0-.4.3,2.1946,2.1946,0,0,0-.8,1.5,2.4519,2.4519,0,0,0,.6,1.6l2.4,2.8L752,445l-5.2-5.9,1.7-1.5.7.8A6.4682,6.4682,0,0,1,749.6,437.1Z"/>
        <path class="cls-2" d="M760.6,433.5l-4.5,4a2.116,2.116,0,0,0,1.4.4,4.7144,4.7144,0,0,0,1.5-.6,2.6957,2.6957,0,0,0,.7-.8,1.6894,1.6894,0,0,0,.3-1l1.8.2a3.56,3.56,0,0,1-1.7,3.1,6.0584,6.0584,0,0,1-2.1,1.1,3.33,3.33,0,0,1-2.2-.1,2.9367,2.9367,0,0,1-1.8-1.3,3.6718,3.6718,0,0,1-.9-2,3.7132,3.7132,0,0,1,.2-2.1,4,4,0,0,1,1.3-1.8,4.9814,4.9814,0,0,1,1.9-1,3.7623,3.7623,0,0,1,2.1.1,3.3819,3.3819,0,0,1,1.8,1.3C760.2,433,760.3,433.1,760.6,433.5Zm-5.8,1.6a1.9,1.9,0,0,0,.3,1.4L758,434a1.901,1.901,0,0,0-1.3-.5,2.1062,2.1062,0,0,0-1.3.5,2.2684,2.2684,0,0,0-.6,1.1Z"/>
        <path class="cls-2" d="M767.5,431.4a2.01,2.01,0,0,1-.4.8,2.3364,2.3364,0,0,1-.7.7,2.7874,2.7874,0,0,1-4.1-.2l-2.1-2.4-.9.8-1.1-1.4.9-.8-1.3-1.5,1.8-1.5,1.3,1.5,1.5-1.3,1.1,1.4-1.5,1.3,2.1,2.4a1.0122,1.0122,0,0,0,.7.4.9078.9078,0,0,0,.7-.3,2.1774,2.1774,0,0,0,.5-.8Z"/>
        <path class="cls-2" d="M808.4,503h-4.8l-.9,2.2h-2.4l4.6-10.2h2.4l4.6,10.2h-2.5Zm-.8-1.7-1.7-4-1.7,4Z"/>
        <path class="cls-2" d="M812.7,494.4H815v10.8h-2.3Z"/>
        <path class="cls-2" d="M817.2,495.9a1.3673,1.3673,0,0,1-.1-1.8l.1-.1a1.7767,1.7767,0,0,1,1-.4,1.6894,1.6894,0,0,1,1,.3,1.2345,1.2345,0,0,1,.4.8,1.0855,1.0855,0,0,1-.4.9,1.7767,1.7767,0,0,1-1,.4A.6682.6682,0,0,1,817.2,495.9Zm-.1,1.5h2.3v7.9h-2.3Z"/>
        <path class="cls-2" d="M823.1,504.9a4.0576,4.0576,0,0,1-1.6-5.7,4.6291,4.6291,0,0,1,1.6-1.5,5.932,5.932,0,0,1,2.3-.5,5.8519,5.8519,0,0,1,2.2.5,3.4163,3.4163,0,0,1,1.4,1.5l-1.8.9a1.8121,1.8121,0,0,0-1.8-1,2.4017,2.4017,0,0,0-1.5.6,2.4333,2.4333,0,0,0,0,3.2,2.0352,2.0352,0,0,0,1.5.6,2.1,2.1,0,0,0,1.8-1l1.8.9a3.3458,3.3458,0,0,1-1.4,1.5,4.4193,4.4193,0,0,1-2.2.5A5.5554,5.5554,0,0,1,823.1,504.9Z"/>
        <path class="cls-2" d="M836.2,498.1a3.2249,3.2249,0,0,1,.9,2.6v4.5H835v-.9a2.3611,2.3611,0,0,1-2.4,1.1,4.9729,4.9729,0,0,1-1.6-.3,3.9153,3.9153,0,0,1-1-.8,2.7674,2.7674,0,0,1-.3-1.3,2.3416,2.3416,0,0,1,.8-1.8,3.8866,3.8866,0,0,1,2.6-.6h1.8a1.5035,1.5035,0,0,0-.4-1.1,2.1159,2.1159,0,0,0-1.4-.4,6.882,6.882,0,0,0-1.3.2,3.1281,3.1281,0,0,0-1,.5l-.8-1.6a7.7406,7.7406,0,0,1,1.6-.7,6.1509,6.1509,0,0,1,1.9-.2A3.9072,3.9072,0,0,1,836.2,498.1Zm-2,5.5a1.242,1.242,0,0,0,.6-.8V502h-1.6c-.9,0-1.4.3-1.4.9a.9078.9078,0,0,0,.3.7,1.02,1.02,0,0,0,.9.2,1.4636,1.4636,0,0,0,1.2-.2Z"/>
        <path class="cls-2" d="M846.4,498.1a4.1086,4.1086,0,0,1,.9,2.6v4.5H845V501a2.2953,2.2953,0,0,0-.4-1.4,1.19,1.19,0,0,0-1.1-.4,2.39,2.39,0,0,0-1.4.5,2.2026,2.2026,0,0,0-.5,1.6v3.9h-2.3v-7.9h2.2v.9a2.5887,2.5887,0,0,1,1.1-.7,3.6535,3.6535,0,0,1,1.5-.3A3.1679,3.1679,0,0,1,846.4,498.1Z"/>
        <path class="cls-2" d="M854.5,504.9a2.01,2.01,0,0,1-.8.4,4.1054,4.1054,0,0,1-3.2-.6,2.7011,2.7011,0,0,1-.7-2.1v-3.2h-1.3v-1.8h1.3v-1.9h2.3v1.9h2v1.8h-2v3.2a1.4453,1.4453,0,0,0,.2.7.9078.9078,0,0,0,.7.3,1.6129,1.6129,0,0,0,.9-.3Z"/>
        <path class="cls-2" d="M863.2,502h-5.9a2.1017,2.1017,0,0,0,.7,1.1,2.41,2.41,0,0,0,1.5.4,2.9585,2.9585,0,0,0,1-.2,2.3613,2.3613,0,0,0,.9-.6l1.3,1.4a4.0193,4.0193,0,0,1-3.2,1.3,6.4363,6.4363,0,0,1-2.4-.5,3.3182,3.3182,0,0,1-1.6-1.5,3.8449,3.8449,0,0,1-.5-2.1,4.9894,4.9894,0,0,1,.5-2.1,3.6055,3.6055,0,0,1,1.5-1.5,4.6643,4.6643,0,0,1,4.3,0,3.6055,3.6055,0,0,1,1.5,1.5,3.9825,3.9825,0,0,1,.5,2.2C863.2,501.4,863.2,501.6,863.2,502Zm-5.3-2.6a1.7818,1.7818,0,0,0-.6,1.3h3.9a1.9753,1.9753,0,0,0-.6-1.1,1.844,1.844,0,0,0-1.3-.4,1.5809,1.5809,0,0,0-1.4.2Z"/>
        <path class="cls-2" d="M876,500h2.2v4.2a7.2181,7.2181,0,0,1-2,.9,8.3292,8.3292,0,0,1-2.2.3,5.918,5.918,0,0,1-2.9-.7,4.0948,4.0948,0,0,1-2-1.9,5.7366,5.7366,0,0,1,0-5.4,4.5917,4.5917,0,0,1,2-1.9,7.2728,7.2728,0,0,1,2.9-.7,6.3747,6.3747,0,0,1,2.4.4,4.2936,4.2936,0,0,1,1.9,1.4l-1.6,1.5a3.81,3.81,0,0,0-2.6-1.1,3.6614,3.6614,0,0,0-1.8.4,2.3454,2.3454,0,0,0-1.1,1.1,4.0408,4.0408,0,0,0,0,3.4,2.8923,2.8923,0,0,0,1.1,1.1,3.4245,3.4245,0,0,0,1.8.4,4.3334,4.3334,0,0,0,1.9-.4Z"/>
        <path class="cls-2" d="M881.8,504.9a4.0576,4.0576,0,0,1-1.6-5.7,4.6291,4.6291,0,0,1,1.6-1.5,5.0827,5.0827,0,0,1,4.5,0,4.0576,4.0576,0,0,1,1.6,5.7,4.6308,4.6308,0,0,1-1.6,1.5A5.8442,5.8442,0,0,1,881.8,504.9Zm3.6-2a2.7006,2.7006,0,0,0,0-3.2,2.0352,2.0352,0,0,0-1.5-.6,2.4017,2.4017,0,0,0-1.5.6,2.7006,2.7006,0,0,0,0,3.2,2.0352,2.0352,0,0,0,1.5.6,1.7165,1.7165,0,0,0,1.5-.6Z"/>
        <path class="cls-2" d="M889.8,494.4h2.3v10.8h-2.3Z"/>
        <path class="cls-2" d="M896.8,497.5h2v1.8h-2v5.9h-2.3v-5.9h-1.3v-1.8h1.3v-.3a3.0077,3.0077,0,0,1,.8-2.2,3.7751,3.7751,0,0,1,2.3-.8,2.7686,2.7686,0,0,1,.9.1,4.8752,4.8752,0,0,1,.7.3l-.6,1.7a1.6127,1.6127,0,0,0-.9-.3c-.7,0-1,.4-1,1.1Z"/>
        <path class="cls-2" d="M429.5,784.2a4.8355,4.8355,0,0,1,1.6,1.3,4.072,4.072,0,0,1,0,4,3.4353,3.4353,0,0,1-1.6,1.3,6.3747,6.3747,0,0,1-2.4.4H425V794h-2.4V783.8h4.5A3.9675,3.9675,0,0,1,429.5,784.2Zm-.8,4.5a1.392,1.392,0,0,0,.5-1.4,2.3893,2.3893,0,0,0-.5-1.4,2.4141,2.4141,0,0,0-1.7-.4h-2V789h2a1.4048,1.4048,0,0,0,1.7-.3Z"/>
        <path class="cls-2" d="M441.3,786.1V794h-2.2v-.9a3.9153,3.9153,0,0,1-1,.8,3.194,3.194,0,0,1-1.4.3,3.84,3.84,0,0,1-2.5-.9,4.1085,4.1085,0,0,1-.9-2.6v-4.5h2.3v4.2c0,1.3.5,1.9,1.6,1.9a2.6539,2.6539,0,0,0,1.4-.5,2.7667,2.7667,0,0,0,.5-1.6v-3.9h2.3l-.1-.2Z"/>
        <path class="cls-2" d="M451.1,790.7h-5.9a2.1017,2.1017,0,0,0,.7,1.1,2.41,2.41,0,0,0,1.5.4,2.9585,2.9585,0,0,0,1-.2,2.3613,2.3613,0,0,0,.9-.6l1.3,1.4a4.0187,4.0187,0,0,1-3.2,1.3,6.4363,6.4363,0,0,1-2.4-.5,3.3182,3.3182,0,0,1-1.6-1.5,3.8446,3.8446,0,0,1-.5-2.1,4.9894,4.9894,0,0,1,.5-2.1,3.6066,3.6066,0,0,1,1.5-1.5,5.0908,5.0908,0,0,1,2.2-.5,4.99,4.99,0,0,1,2.1.5,3.6066,3.6066,0,0,1,1.5,1.5,3.9827,3.9827,0,0,1,.5,2.2C451.1,790.1,451.1,790.3,451.1,790.7Zm-5.4-2.5a1.7818,1.7818,0,0,0-.6,1.3H449a1.9753,1.9753,0,0,0-.6-1.1,1.844,1.844,0,0,0-1.3-.4A1.1849,1.1849,0,0,0,445.7,788.2Z"/>
        <path class="cls-2" d="M455.9,786.4a4.1456,4.1456,0,0,1,1.6-.3v2.1H457a3.32,3.32,0,0,0-1.6.5,1.9541,1.9541,0,0,0-.5,1.7v3.8h-2.3v-7.9h2.2v1A1.6216,1.6216,0,0,1,455.9,786.4Z"/>
        <path class="cls-2" d="M464.2,793.7a2.01,2.01,0,0,1-.8.4,4.1054,4.1054,0,0,1-3.2-.6,2.7011,2.7011,0,0,1-.7-2.1v-3.2h-1.3v-1.8h1.3v-1.9h2.3v1.9h2v1.8h-2v3.2a1.4453,1.4453,0,0,0,.2.7.9078.9078,0,0,0,.7.3,1.6129,1.6129,0,0,0,.9-.3Z"/>
        <path class="cls-2" d="M466.8,793.7a4.0576,4.0576,0,0,1-1.6-5.7,4.6291,4.6291,0,0,1,1.6-1.5,5.0827,5.0827,0,0,1,4.5,0,4.0576,4.0576,0,0,1,1.6,5.7,4.6291,4.6291,0,0,1-1.6,1.5A5.85,5.85,0,0,1,466.8,793.7Zm3.7-2a2.7006,2.7006,0,0,0,0-3.2,2.0352,2.0352,0,0,0-1.5-.6,2.4017,2.4017,0,0,0-1.5.6,2.7006,2.7006,0,0,0,0,3.2,2.0352,2.0352,0,0,0,1.5.6,2.2049,2.2049,0,0,0,1.5-.6Z"/>
        <path class="cls-2" d="M242.1,837.2a4.8355,4.8355,0,0,1,1.6,1.3,4.072,4.072,0,0,1,0,4,3.4353,3.4353,0,0,1-1.6,1.3,6.3747,6.3747,0,0,1-2.4.4h-2.1V847h-2.4V836.8h4.5A3.2732,3.2732,0,0,1,242.1,837.2Zm-.9,4.5a1.392,1.392,0,0,0,.5-1.4,2.3893,2.3893,0,0,0-.5-1.4,2.4141,2.4141,0,0,0-1.7-.4h-2V842h2A1.4723,1.4723,0,0,0,241.2,841.7Z"/>
        <path class="cls-2" d="M251.6,839.9a3.2249,3.2249,0,0,1,.9,2.6V847h-2.2v-1a2.3611,2.3611,0,0,1-2.4,1.1,4.9729,4.9729,0,0,1-1.6-.3,3.9153,3.9153,0,0,1-1-.8,2.7681,2.7681,0,0,1-.3-1.3,2.3417,2.3417,0,0,1,.8-1.8,3.8866,3.8866,0,0,1,2.6-.6h1.8a1.5036,1.5036,0,0,0-.4-1.1,2.1161,2.1161,0,0,0-1.4-.4,6.8748,6.8748,0,0,0-1.3.2,3.124,3.124,0,0,0-1,.5l-.8-1.6a7.7406,7.7406,0,0,1,1.6-.7,6.1538,6.1538,0,0,1,1.9-.2A3.4234,3.4234,0,0,1,251.6,839.9Zm-1.8,5.4a1.242,1.242,0,0,0,.6-.8v-.8h-1.6c-.9,0-1.5.3-1.5.9a.9078.9078,0,0,0,.3.7,1.02,1.02,0,0,0,.9.2A2.746,2.746,0,0,0,249.8,845.3Z"/>
        <path class="cls-2" d="M258,839.2a4.1456,4.1456,0,0,1,1.6-.3V841h-.5a3.32,3.32,0,0,0-1.6.5,1.9541,1.9541,0,0,0-.5,1.7V847h-2.3v-8h2.2v1A10.4747,10.4747,0,0,1,258,839.2Z"/>
        <path class="cls-2" d="M268.9,839v10.7h-2.3V846a3.021,3.021,0,0,1-2.4.9,4.5519,4.5519,0,0,1-2-.5,4.2858,4.2858,0,0,1-1.5-1.5,4.6649,4.6649,0,0,1,0-4.3,4.2866,4.2866,0,0,1,1.5-1.5,4.9188,4.9188,0,0,1,2-.5,2.99,2.99,0,0,1,2.5,1v-.9h2.2v.3Zm-2.8,5.7a2.7006,2.7006,0,0,0,0-3.2,2.0521,2.0521,0,0,0-2.9,0,2.7006,2.7006,0,0,0,0,3.2A2.2649,2.2649,0,0,0,266.1,844.7Z"/>
        <path class="cls-2" d="M279,839v7.9h-2.2V846a3.9153,3.9153,0,0,1-1,.8,3.194,3.194,0,0,1-1.4.3,3.84,3.84,0,0,1-2.5-.9,4.109,4.109,0,0,1-.9-2.6v-4.5h2.3v4.2c0,1.3.5,1.9,1.6,1.9a2.6539,2.6539,0,0,0,1.4-.5,2.7667,2.7667,0,0,0,.5-1.6v-3.9h2.3V839Z"/>
        <path class="cls-2" d="M288.8,843.6h-5.9a2.1017,2.1017,0,0,0,.7,1.1,2.4107,2.4107,0,0,0,1.5.4,2.9585,2.9585,0,0,0,1-.2,2.3613,2.3613,0,0,0,.9-.6l1.3,1.4a4.0193,4.0193,0,0,1-3.2,1.3,6.4363,6.4363,0,0,1-2.4-.5,3.3182,3.3182,0,0,1-1.6-1.5,3.8449,3.8449,0,0,1-.5-2.1,4.99,4.99,0,0,1,.5-2.1,3.6078,3.6078,0,0,1,1.5-1.5,5.0923,5.0923,0,0,1,2.2-.5,4.9913,4.9913,0,0,1,2.1.5,3.6066,3.6066,0,0,1,1.5,1.5,3.9831,3.9831,0,0,1,.5,2.2A1.7593,1.7593,0,0,1,288.8,843.6Zm-5.4-2.5a1.7818,1.7818,0,0,0-.6,1.3h3.9a1.9747,1.9747,0,0,0-.6-1.1,1.844,1.844,0,0,0-1.3-.4A1.4047,1.4047,0,0,0,283.4,841.1Z"/>
        <path class="cls-2" d="M235.6,854.8a4.8355,4.8355,0,0,1,1.6,1.3,4.072,4.072,0,0,1,0,4,3.4353,3.4353,0,0,1-1.6,1.3,6.3747,6.3747,0,0,1-2.4.4h-2.1v2.8h-2.4V854.4h4.5A5.0734,5.0734,0,0,1,235.6,854.8Zm-.9,4.6a1.392,1.392,0,0,0,.5-1.4,2.3893,2.3893,0,0,0-.5-1.4,2.4136,2.4136,0,0,0-1.7-.4h-2v3.5h2a1.9793,1.9793,0,0,0,1.7-.3Z"/>
        <path class="cls-2" d="M245.1,857.4a3.2249,3.2249,0,0,1,.9,2.6v4.5h-2.2v-.9a2.3611,2.3611,0,0,1-2.4,1.1,4.9729,4.9729,0,0,1-1.6-.3,3.9153,3.9153,0,0,1-1-.8,2.7681,2.7681,0,0,1-.3-1.3,2.3417,2.3417,0,0,1,.8-1.8,3.8866,3.8866,0,0,1,2.6-.6h1.8a1.5039,1.5039,0,0,0-.4-1.1,2.1166,2.1166,0,0,0-1.4-.4,6.882,6.882,0,0,0-1.3.2,3.1281,3.1281,0,0,0-1,.5l-.8-1.6a7.7462,7.7462,0,0,1,1.6-.7,6.1538,6.1538,0,0,1,1.9-.2A3.5841,3.5841,0,0,1,245.1,857.4Zm-1.9,5.5a1.242,1.242,0,0,0,.6-.8v-.8h-1.6c-.9,0-1.5.3-1.5.9a.9078.9078,0,0,0,.3.7,1.02,1.02,0,0,0,.9.2,3.92,3.92,0,0,0,1.3-.2Z"/>
        <path class="cls-2" d="M248.2,853.6h2.3v10.8h-2.3Z"/>
        <path class="cls-2" d="M265.1,857.4a3.5253,3.5253,0,0,1,.8,2.6v4.5h-2.3v-4.2a2.2959,2.2959,0,0,0-.4-1.4.9987.9987,0,0,0-1.1-.4,2.1068,2.1068,0,0,0-1.3.5,2.1551,2.1551,0,0,0-.4,1.6v4h-2.3v-4.2c0-1.3-.5-1.9-1.5-1.9a2.1062,2.1062,0,0,0-1.3.5,2.1549,2.1549,0,0,0-.4,1.6v4h-2.3v-7.9h2.2v.9a2.2871,2.2871,0,0,1,1-.7,3.194,3.194,0,0,1,1.4-.3,4.0124,4.0124,0,0,1,1.5.3,2.1891,2.1891,0,0,1,1,.9,2.54,2.54,0,0,1,1.3-.9,4.3362,4.3362,0,0,1,4.1.5Z"/>
        <path class="cls-2" d="M275.7,861.2h-5.9a2.1017,2.1017,0,0,0,.7,1.1,2.41,2.41,0,0,0,1.5.4,2.9585,2.9585,0,0,0,1-.2,2.3613,2.3613,0,0,0,.9-.6l1.3,1.4a4.0187,4.0187,0,0,1-3.2,1.3,6.4363,6.4363,0,0,1-2.4-.5,3.3182,3.3182,0,0,1-1.6-1.5,3.8446,3.8446,0,0,1-.5-2.1,4.9894,4.9894,0,0,1,.5-2.1,3.6066,3.6066,0,0,1,1.5-1.5,5.0908,5.0908,0,0,1,2.2-.5,4.99,4.99,0,0,1,2.1.5,3.6066,3.6066,0,0,1,1.5,1.5,3.9827,3.9827,0,0,1,.5,2.2A3.5323,3.5323,0,0,0,275.7,861.2Zm-5.3-2.5a1.7818,1.7818,0,0,0-.6,1.3h3.9a1.9753,1.9753,0,0,0-.6-1.1,1.844,1.844,0,0,0-1.3-.4A1.1564,1.1564,0,0,0,270.4,858.7Z"/>
        <path class="cls-2" d="M280.6,856.9a4.1456,4.1456,0,0,1,1.6-.3v2.1h-.5a3.32,3.32,0,0,0-1.6.5,1.9541,1.9541,0,0,0-.5,1.7v3.8h-2.3v-7.9h2.2v1A2.3263,2.3263,0,0,1,280.6,856.9Z"/>
        <path class="cls-2" d="M289.5,857.4a3.2249,3.2249,0,0,1,.9,2.6v4.5h-2.2v-.9a2.3611,2.3611,0,0,1-2.4,1.1,4.9729,4.9729,0,0,1-1.6-.3,3.9153,3.9153,0,0,1-1-.8,2.7681,2.7681,0,0,1-.3-1.3,2.3417,2.3417,0,0,1,.8-1.8,3.8866,3.8866,0,0,1,2.6-.6h1.8a1.5039,1.5039,0,0,0-.4-1.1,2.1166,2.1166,0,0,0-1.4-.4,6.882,6.882,0,0,0-1.3.2,3.1281,3.1281,0,0,0-1,.5l-.8-1.6a7.7462,7.7462,0,0,1,1.6-.7,6.1538,6.1538,0,0,1,1.9-.2A3.4778,3.4778,0,0,1,289.5,857.4Zm-1.9,5.5a1.242,1.242,0,0,0,.6-.8v-.8h-1.6c-.9,0-1.5.3-1.5.9a.9078.9078,0,0,0,.3.7,1.02,1.02,0,0,0,.9.2A3.92,3.92,0,0,0,287.6,862.9Z"/>
        <path class="cls-2" d="M292.6,853.6h2.3v10.8h-2.3Z"/>
        <path class="cls-2" d="M404,541.2a5.1806,5.1806,0,0,1-1.6-3.3l-.5-5.7,2.4-.2.5,5.6c.2,1.9,1,2.7,2.5,2.5a2.2893,2.2893,0,0,0,1.7-.8,3.0832,3.0832,0,0,0,.4-2.1l-.5-5.6,2.3-.2.5,5.7a4.7672,4.7672,0,0,1-4.6,5.1,5.988,5.988,0,0,1-3.1-1Z"/>
        <path class="cls-2" d="M420.8,533.5a3.4081,3.4081,0,0,1,1.1,2.5l.4,4.5-2.3.2-.4-4.2a2.6539,2.6539,0,0,0-.5-1.4,1.4421,1.4421,0,0,0-1.3-.3,2.5127,2.5127,0,0,0-1.4.6,3.0643,3.0643,0,0,0-.4,1.7l.3,3.9-2.3.2-.7-7.8,2.2-.2.1.9a2.54,2.54,0,0,1,1-.8,3.3128,3.3128,0,0,1,1.5-.4A3.7714,3.7714,0,0,1,420.8,533.5Z"/>
        <path class="cls-2" d="M423.6,531a1.3772,1.3772,0,0,1-.2-1.8l.1-.1a1.0858,1.0858,0,0,1,.9-.4,1.6446,1.6446,0,0,1,1,.2,1.3741,1.3741,0,0,1,.5.8,1.396,1.396,0,0,1-.3.9,1.0859,1.0859,0,0,1-.9.4C424.4,531.3,424,531.2,423.6,531Zm.1,1.5,2.3-.2.7,7.8-2.3.2Z"/>
        <path class="cls-2" d="M430.3,539.4a4.31,4.31,0,0,1-1.7-1.3,3.9278,3.9278,0,0,1,.7-5.5c.1-.1.2-.1.3-.2a5.6781,5.6781,0,0,1,2.2-.7,4.0856,4.0856,0,0,1,2.2.3,3.3458,3.3458,0,0,1,1.5,1.4l-1.7,1.1a1.9828,1.9828,0,0,0-1.9-.9,2.1665,2.1665,0,0,0-1.2,3.9,2.04,2.04,0,0,0,1.6.4,1.8976,1.8976,0,0,0,1.7-1.3l1.9.8a2.56,2.56,0,0,1-1.3,1.6,5.2243,5.2243,0,0,1-2.1.7A5.8323,5.8323,0,0,1,430.3,539.4Z"/>
        <path class="cls-2" d="M444.7,535.2l-5.9.5a1.5888,1.5888,0,0,0,.8,1,3.8079,3.8079,0,0,0,1.6.3,1.6894,1.6894,0,0,0,1-.3,5.5469,5.5469,0,0,0,.8-.6l1.4,1.3a4.1348,4.1348,0,0,1-3.1,1.6,4.84,4.84,0,0,1-2.4-.3,3.1472,3.1472,0,0,1-1.7-1.3,3.7707,3.7707,0,0,1-.7-2.1,3.7331,3.7331,0,0,1,.3-2.1,4.1572,4.1572,0,0,1,1.4-1.6,5.2238,5.2238,0,0,1,2.1-.7,3.7336,3.7336,0,0,1,2.1.3,3.4353,3.4353,0,0,1,1.6,1.3,5.2239,5.2239,0,0,1,.7,2.1Zm-5.5-2a1.901,1.901,0,0,0-.5,1.3l3.9-.3a2.589,2.589,0,0,0-.7-1.1,1.6544,1.6544,0,0,0-1.4-.3A1.19,1.19,0,0,0,439.2,533.2Z"/>
        <path class="cls-2" d="M448.4,530.4l2-.2.2,1.8-2,.2.5,5.9-2.3.2-.5-5.9-1.3.1-.2-1.8,1.3-.1v-.3a2.8632,2.8632,0,0,1,.6-2.2,3.468,3.468,0,0,1,2.2-1h.9a2.3535,2.3535,0,0,1,.8.2l-.4,1.7a1.4855,1.4855,0,0,0-.9-.2c-.7.1-1,.5-.9,1.3v.3Z"/>
        <path class="cls-2" d="M495.3,677.6a3.56,3.56,0,0,1-1.3-1.4l1.6-1.4a2.56,2.56,0,0,0,1.7,1.5c.9.1,1.6-.3,1.7-1.5l.7-4.8-3.5-.5.3-1.9,5.9.9-1,6.6a3.7917,3.7917,0,0,1-1.4,2.7,4.1224,4.1224,0,0,1-2.9.5A5.1215,5.1215,0,0,1,495.3,677.6Z"/>
        <path class="cls-2" d="M510,672.9a2.9514,2.9514,0,0,1,.5,2.7l-.7,4.5-2.1-.3.1-.9a2.6126,2.6126,0,0,1-2.5.7,4.4216,4.4216,0,0,1-1.5-.5,1.5885,1.5885,0,0,1-.8-1,2.7448,2.7448,0,0,1-.2-1.3,2.4747,2.4747,0,0,1,1-1.6,4.6388,4.6388,0,0,1,2.6-.2l1.8.3a1.6677,1.6677,0,0,0-.3-1.3,2.618,2.618,0,0,0-1.3-.6,2.845,2.845,0,0,0-1.3,0,4.8745,4.8745,0,0,0-1.1.4l-.5-1.7a4.2556,4.2556,0,0,1,1.7-.4,6.0542,6.0542,0,0,1,1.9,0A2.9241,2.9241,0,0,1,510,672.9Zm-2.7,5.1a1.208,1.208,0,0,0,.7-.7l.1-.8-1.6-.2c-.9-.1-1.5.1-1.6.7a.8437.8437,0,0,0,.2.7,1.2675,1.2675,0,0,0,.9.4,4.8878,4.8878,0,0,0,1.3-.1Z"/>
        <path class="cls-2" d="M513.1,672.5l2.3.3-1.3,7.8-2.3-.3Zm.4-1.3a1.3772,1.3772,0,0,1,.2-1.8l.1-.1a1.232,1.232,0,0,1,1-.2,1.05,1.05,0,0,1,.9.5.9593.9593,0,0,1,.2.9,1.02,1.02,0,0,1-.5.8,1.2317,1.2317,0,0,1-1,.2c-.3.1-.6-.1-.9-.3Z"/>
        <path class="cls-2" d="M529.7,675.9a3.6446,3.6446,0,0,1,.4,2.7l-.7,4.5-2.3-.3.6-4.1a1.9983,1.9983,0,0,0-.2-1.5,1.3261,1.3261,0,0,0-1-.6,1.8174,1.8174,0,0,0-1.4.3,2.6278,2.6278,0,0,0-.7,1.5l-.6,4-2.3-.3.6-4.1c.2-1.3-.2-1.9-1.1-2.1a1.9,1.9,0,0,0-1.4.3,2.6284,2.6284,0,0,0-.7,1.5l-.6,4-2.3-.3,1.3-7.8,2.2.3-.1.9a2.3838,2.3838,0,0,1,1.1-.6,3.7507,3.7507,0,0,1,1.5,0,8.8,8.8,0,0,1,1.5.5,2.4447,2.4447,0,0,1,.9,1.1,3.0884,3.0884,0,0,1,1.4-.7,4.7331,4.7331,0,0,1,1.7-.1A2.097,2.097,0,0,1,529.7,675.9Z"/>
        <path class="cls-2" d="M539.7,681.3l-5.9-.9a1.76,1.76,0,0,0,.6,1.3,1.8867,1.8867,0,0,0,1.5.6,2.0538,2.0538,0,0,0,1.1,0,3.5507,3.5507,0,0,0,.9-.4l1,1.5a4.0562,4.0562,0,0,1-3.4.7,6.3107,6.3107,0,0,1-2.3-.8,4.7448,4.7448,0,0,1-1.4-1.7,4.1575,4.1575,0,0,1-.2-2.2,4.447,4.447,0,0,1,.8-2,5.8612,5.8612,0,0,1,1.7-1.3,4.7611,4.7611,0,0,1,4.2.6,3.8572,3.8572,0,0,1,1.3,1.7,4.2428,4.2428,0,0,1,.2,2.2A1.95,1.95,0,0,1,539.7,681.3Zm-4.9-3.2a1.5888,1.5888,0,0,0-.8,1l3.9.6a2.1992,2.1992,0,0,0-.4-1.3,1.4857,1.4857,0,0,0-1.3-.6,1.8174,1.8174,0,0,0-1.4.3Z"/>
        <path class="cls-2" d="M546.6,675.4l2.4.4-1.6,10.1-2.4-.4Z"/>
        <path class="cls-2" d="M551.3,676.1l2.4.4-1.6,10.1-2.4-.4Z"/>
        <path class="cls-2" d="M547.2,497.2h-4.7l-.9,2.2h-2.4l4.6-10.2h2.4l4.6,10.2h-2.5Zm-.8-1.8-1.7-4-1.7,4Z"/>
        <path class="cls-2" d="M562.4,499.4l-2-2.8h-2.2v2.8h-2.4V489.2h4.5a6.3747,6.3747,0,0,1,2.4.4,3.2,3.2,0,0,1,2.1,3.2,3.1625,3.1625,0,0,1-2.1,3.2l2.3,3.3-2.6.1Zm-.6-7.8a2.4136,2.4136,0,0,0-1.7-.4h-2v3.5h2a2.7935,2.7935,0,0,0,1.7-.5,1.8711,1.8711,0,0,0,0-2.6Z"/>
        <path class="cls-2" d="M572.4,492.3a3.2249,3.2249,0,0,1,.9,2.6v4.5h-2.2v-.9a2.3611,2.3611,0,0,1-2.4,1.1,4.9729,4.9729,0,0,1-1.6-.3,3.9153,3.9153,0,0,1-1-.8,2.7681,2.7681,0,0,1-.3-1.3,2.3414,2.3414,0,0,1,.8-1.8,3.8866,3.8866,0,0,1,2.6-.6H571a1.5042,1.5042,0,0,0-.4-1.1,2.1166,2.1166,0,0,0-1.4-.4,6.8817,6.8817,0,0,0-1.3.2,3.125,3.125,0,0,0-1,.5l-.8-1.6a7.7462,7.7462,0,0,1,1.6-.7,6.1532,6.1532,0,0,1,1.9-.2A4.164,4.164,0,0,1,572.4,492.3Zm-2,5.4a1.242,1.242,0,0,0,.6-.8V496h-1.6c-.9,0-1.4.3-1.4.9a.9078.9078,0,0,0,.3.7,1.02,1.02,0,0,0,.9.2,1.1935,1.1935,0,0,0,1.2-.1Z"/>
        <path class="cls-2" d="M587.8,492.3a3.5253,3.5253,0,0,1,.8,2.6v4.5h-2.3v-4.2a2.2959,2.2959,0,0,0-.4-1.4,1.19,1.19,0,0,0-1.1-.4,2.1062,2.1062,0,0,0-1.3.5,2.7667,2.7667,0,0,0-.5,1.6v4h-2.3v-4.2c0-1.3-.5-1.9-1.5-1.9a2.1062,2.1062,0,0,0-1.3.5,2.7667,2.7667,0,0,0-.5,1.6v4h-2.3v-7.9h2.2v.9a2.286,2.286,0,0,1,1-.7,3.1948,3.1948,0,0,1,1.4-.3,4.0126,4.0126,0,0,1,1.5.3,2.1889,2.1889,0,0,1,1,.9,2.54,2.54,0,0,1,1.3-.9,4.31,4.31,0,0,1,1.7-.3A3.049,3.049,0,0,1,587.8,492.3Z"/>
        <path class="cls-2" d="M592.4,499a4.0576,4.0576,0,0,1-1.6-5.7,4.6308,4.6308,0,0,1,1.6-1.5,5.0827,5.0827,0,0,1,4.5,0,4.0576,4.0576,0,0,1,1.6,5.7,4.6291,4.6291,0,0,1-1.6,1.5A5.0827,5.0827,0,0,1,592.4,499Zm3.7-1.9a2.7006,2.7006,0,0,0,0-3.2,2.0352,2.0352,0,0,0-1.5-.6,2.4017,2.4017,0,0,0-1.5.6,2.7006,2.7006,0,0,0,0,3.2,2.0352,2.0352,0,0,0,1.5.6,2.9586,2.9586,0,0,0,1.5-.6Z"/>
        <path class="cls-2" d="M601.3,499.3a4.7144,4.7144,0,0,1-1.5-.6l.7-1.7a5.0234,5.0234,0,0,0,1.3.5,6.8037,6.8037,0,0,0,1.5.2c.9,0,1.5-.2,1.5-.7a.6644.6644,0,0,0-.4-.5,5.0673,5.0673,0,0,0-1.3-.2c-.5-.1-1-.2-1.6-.3a1.7868,1.7868,0,0,1-1.4-2,2.5,2.5,0,0,1,.4-1.4,2.54,2.54,0,0,1,1.3-.9,6.4477,6.4477,0,0,1,2-.3,11.1354,11.1354,0,0,1,1.7.2,7.8378,7.8378,0,0,1,1.4.5l-.7,1.7a4.6453,4.6453,0,0,0-2.3-.6,2.1532,2.1532,0,0,0-1.1.2.9989.9989,0,0,0-.4.5.6644.6644,0,0,0,.4.5c.4.1.8.2,1.3.3s1,.2,1.6.3a2.0749,2.0749,0,0,1,1,.6,1.6875,1.6875,0,0,1,.4,1.4,2.4989,2.4989,0,0,1-.4,1.4,2.54,2.54,0,0,1-1.3.9,6.9292,6.9292,0,0,1-2,.3C602.5,499.5,601.9,499.4,601.3,499.3Z"/>
        <path class="cls-2" d="M427.8,356.8,423.3,367h-2.4l-4.4-10.2h2.6l3.1,7.3,3.1-7.3Z"/>
        <path class="cls-2" d="M428.9,357.7a1.3673,1.3673,0,0,1-.1-1.8l.1-.1a1.7767,1.7767,0,0,1,1-.4,1.6894,1.6894,0,0,1,1,.3,1.2345,1.2345,0,0,1,.4.8,1.0858,1.0858,0,0,1-.4.9,1.7767,1.7767,0,0,1-1,.4A.7417.7417,0,0,1,428.9,357.7Zm-.2,1.5H431v7.9h-2.3Z"/>
        <path class="cls-2" d="M433.1,356.2h2.3V367h-2.3Z"/>
        <path class="cls-2" d="M437.5,356.2h2.3V367h-2.3Z"/>
        <path class="cls-2" d="M447.9,359.9a3.2249,3.2249,0,0,1,.9,2.6V367h-2.2v-.9a2.3611,2.3611,0,0,1-2.4,1.1,4.9729,4.9729,0,0,1-1.6-.3,3.9153,3.9153,0,0,1-1-.8,2.7681,2.7681,0,0,1-.3-1.3,2.3415,2.3415,0,0,1,.8-1.8,3.886,3.886,0,0,1,2.6-.6h1.8a1.5042,1.5042,0,0,0-.4-1.1,2.1166,2.1166,0,0,0-1.4-.4,6.882,6.882,0,0,0-1.3.2,3.1281,3.1281,0,0,0-1,.5l-.8-1.6a7.7462,7.7462,0,0,1,1.6-.7,6.1538,6.1538,0,0,1,1.9-.2A3.8811,3.8811,0,0,1,447.9,359.9Zm-1.9,5.4a1.242,1.242,0,0,0,.6-.8v-.8H445c-.9,0-1.5.3-1.5.9a.9078.9078,0,0,0,.3.7,1.02,1.02,0,0,0,.9.2,1.1556,1.1556,0,0,0,1.3-.2Z"/>
        <path class="cls-2" d="M453.5,359.4h2v1.8h-2v5.9h-2.3v-5.9h-1.3v-1.8h1.3v-.3a3.0077,3.0077,0,0,1,.8-2.2,3.7751,3.7751,0,0,1,2.3-.8,2.7686,2.7686,0,0,1,.9.1,4.8752,4.8752,0,0,1,.7.3l-.6,1.7a1.6129,1.6129,0,0,0-.9-.3c-.7,0-1,.4-1,1.1Z"/>
        <path class="cls-2" d="M461.1,359.4a4.1456,4.1456,0,0,1,1.6-.3v2.1h-.5a3.32,3.32,0,0,0-1.6.5,1.9541,1.9541,0,0,0-.5,1.7v3.8h-2.3v-7.9H460v1A1.8612,1.8612,0,0,1,461.1,359.4Z"/>
        <path class="cls-2" d="M470.1,359.9a3.2249,3.2249,0,0,1,.9,2.6V367h-2.2v-.9a2.3611,2.3611,0,0,1-2.4,1.1,4.9729,4.9729,0,0,1-1.6-.3,3.9153,3.9153,0,0,1-1-.8,2.7681,2.7681,0,0,1-.3-1.3,2.3415,2.3415,0,0,1,.8-1.8,3.886,3.886,0,0,1,2.6-.6h1.8a1.5042,1.5042,0,0,0-.4-1.1,2.1166,2.1166,0,0,0-1.4-.4,6.882,6.882,0,0,0-1.3.2,3.1281,3.1281,0,0,0-1,.5l-.8-1.6a7.7462,7.7462,0,0,1,1.6-.7,6.1538,6.1538,0,0,1,1.9-.2A4.164,4.164,0,0,1,470.1,359.9Zm-2,5.4a1.242,1.242,0,0,0,.6-.8v-.8h-1.6c-.9,0-1.5.3-1.5.9a.9078.9078,0,0,0,.3.7,1.02,1.02,0,0,0,.9.2c.7.2,1,.1,1.3-.2Z"/>
        <path class="cls-2" d="M480.3,359.9a4.1086,4.1086,0,0,1,.9,2.6V367h-2.3v-4.2a2.2959,2.2959,0,0,0-.4-1.4,1.19,1.19,0,0,0-1.1-.4,2.3893,2.3893,0,0,0-1.4.5,2.2026,2.2026,0,0,0-.5,1.6V367h-2.3v-7.9h2.2v.9a2.589,2.589,0,0,1,1.1-.7,3.6532,3.6532,0,0,1,1.5-.3A3.3373,3.3373,0,0,1,480.3,359.9Z"/>
        <path class="cls-2" d="M491.3,359.2v10.7H489v-3.7a3.021,3.021,0,0,1-2.4.9,4.5519,4.5519,0,0,1-2-.5,4.2858,4.2858,0,0,1-1.5-1.5,4.6649,4.6649,0,0,1,0-4.3,4.2858,4.2858,0,0,1,1.5-1.5,4.9188,4.9188,0,0,1,2-.5,2.9893,2.9893,0,0,1,2.5,1v-.9Zm-2.8,5.5a2.7006,2.7006,0,0,0,0-3.2,2.0521,2.0521,0,0,0-2.9,0,2.7006,2.7006,0,0,0,0,3.2A1.8949,1.8949,0,0,0,488.5,364.7Z"/>
        <path class="cls-2" d="M501.5,359.2v7.9h-2.2v-.9a3.9153,3.9153,0,0,1-1,.8,3.194,3.194,0,0,1-1.4.3,3.84,3.84,0,0,1-2.5-.9,4.1086,4.1086,0,0,1-.9-2.6v-4.5h2.3v4.2c0,1.3.5,1.9,1.6,1.9a2.6539,2.6539,0,0,0,1.4-.5,2.7667,2.7667,0,0,0,.5-1.6v-3.9Z"/>
        <path class="cls-2" d="M511.3,363.8h-5.9a2.1017,2.1017,0,0,0,.7,1.1,2.41,2.41,0,0,0,1.5.4,2.9585,2.9585,0,0,0,1-.2,2.3613,2.3613,0,0,0,.9-.6l1.3,1.4a4.0193,4.0193,0,0,1-3.2,1.3,6.4383,6.4383,0,0,1-2.4-.5,3.3182,3.3182,0,0,1-1.6-1.5,3.8453,3.8453,0,0,1-.5-2.1,4.99,4.99,0,0,1,.5-2.1,3.6066,3.6066,0,0,1,1.5-1.5,4.6649,4.6649,0,0,1,4.3,0,3.6066,3.6066,0,0,1,1.5,1.5,3.9829,3.9829,0,0,1,.5,2.2C511.3,363.2,511.3,363.4,511.3,363.8Zm-5.5-2.5a1.7818,1.7818,0,0,0-.6,1.3h3.9a1.9753,1.9753,0,0,0-.6-1.1,1.844,1.844,0,0,0-1.3-.4c-.5-.3-.9-.1-1.4.2Z"/>
        <path class="cls-2" d="M519.2,365.3v1.8h-7v-1.5l4.1-4.8h-4V359h6.8v1.4l-4.1,4.8Z"/>
        <path class="cls-2" d="M526.7,359.9a3.2249,3.2249,0,0,1,.9,2.6V367h-2.2v-.9a2.3611,2.3611,0,0,1-2.4,1.1,4.9729,4.9729,0,0,1-1.6-.3,3.9153,3.9153,0,0,1-1-.8,2.7681,2.7681,0,0,1-.3-1.3,2.3415,2.3415,0,0,1,.8-1.8,3.886,3.886,0,0,1,2.6-.6h1.8a1.5042,1.5042,0,0,0-.4-1.1,2.1168,2.1168,0,0,0-1.4-.4,6.8811,6.8811,0,0,0-1.3.2,3.126,3.126,0,0,0-1,.5l-.8-1.6a7.7477,7.7477,0,0,1,1.6-.7,6.1541,6.1541,0,0,1,1.9-.2A4.0192,4.0192,0,0,1,526.7,359.9Zm-2,5.4a1.242,1.242,0,0,0,.6-.8v-.8h-1.6c-.9,0-1.5.3-1.5.9a.9078.9078,0,0,0,.3.7,1.02,1.02,0,0,0,.9.2C524.1,365.7,524.4,365.6,524.7,365.3Z"/>
        <path class="cls-2" d="M646.6,352a7.7141,7.7141,0,0,1-1.9-.8l.8-1.8a4.5944,4.5944,0,0,0,1.6.7,6.1542,6.1542,0,0,0,1.8.3,4.0126,4.0126,0,0,0,1.5-.3.8907.8907,0,0,0,.5-.8.8645.8645,0,0,0-.3-.6,1.6127,1.6127,0,0,0-.7-.4,8.5616,8.5616,0,0,0-1.3-.3,13.3216,13.3216,0,0,1-1.9-.5,3.8067,3.8067,0,0,1-1.3-.9,2.3111,2.3111,0,0,1-.5-1.7,3.3712,3.3712,0,0,1,.5-1.7,2.4925,2.4925,0,0,1,1.5-1.1,6.3747,6.3747,0,0,1,2.4-.4,12.2429,12.2429,0,0,1,1.9.2,11.5,11.5,0,0,1,1.7.6l-.7,1.8a5.6566,5.6566,0,0,0-2.8-.8,4.0144,4.0144,0,0,0-1.5.3.89.89,0,0,0,0,1.6,8.4449,8.4449,0,0,0,1.7.5,13.3216,13.3216,0,0,1,1.9.5,5.67,5.67,0,0,1,1.3.8,2.3111,2.3111,0,0,1,.5,1.7,3.32,3.32,0,0,1-.5,1.6,2.8273,2.8273,0,0,1-1.5,1.1,6.3747,6.3747,0,0,1-2.4.4A2.6479,2.6479,0,0,1,646.6,352Z"/>
        <path class="cls-2" d="M660.7,345.1a3.2249,3.2249,0,0,1,.9,2.6v4.5h-2.2v-.9a2.3611,2.3611,0,0,1-2.4,1.1,4.9729,4.9729,0,0,1-1.6-.3,3.9153,3.9153,0,0,1-1-.8,2.7674,2.7674,0,0,1-.3-1.3,2.3416,2.3416,0,0,1,.8-1.8,3.8866,3.8866,0,0,1,2.6-.6h1.8a1.5039,1.5039,0,0,0-.4-1.1,2.1163,2.1163,0,0,0-1.4-.4,6.8811,6.8811,0,0,0-1.3.2,3.126,3.126,0,0,0-1,.5l-.8-1.6a7.7421,7.7421,0,0,1,1.6-.7,6.1512,6.1512,0,0,1,1.9-.2A3.2434,3.2434,0,0,1,660.7,345.1Zm-1.9,5.4a1.242,1.242,0,0,0,.6-.8v-.8h-1.6c-.9,0-1.4.3-1.4.9a.9075.9075,0,0,0,.3.7,1.02,1.02,0,0,0,.9.2,4.2976,4.2976,0,0,0,1.2-.2Z"/>
        <path class="cls-2" d="M671,345.1a4.1086,4.1086,0,0,1,.9,2.6v4.5h-2.3V348a2.2953,2.2953,0,0,0-.4-1.4,1.19,1.19,0,0,0-1.1-.4,2.3893,2.3893,0,0,0-1.4.5,2.2026,2.2026,0,0,0-.5,1.6v3.9h-2.3v-7.9h2.2v.9a2.589,2.589,0,0,1,1.1-.7,3.6532,3.6532,0,0,1,1.5-.3A3.9578,3.9578,0,0,1,671,345.1Z"/>
        <path class="cls-2" d="M679,351.8a2.01,2.01,0,0,1-.8.4,4.1054,4.1054,0,0,1-3.2-.6,2.7011,2.7011,0,0,1-.7-2.1v-3.2H673v-1.8h1.3v-1.9h2.3v1.9h2v1.8h-2v3.2a1.4453,1.4453,0,0,0,.2.7.9078.9078,0,0,0,.7.3,1.6129,1.6129,0,0,0,.9-.3Z"/>
        <path class="cls-2" d="M686.3,345.1a3.2249,3.2249,0,0,1,.9,2.6v4.5H685v-.9a2.3611,2.3611,0,0,1-2.4,1.1,4.9729,4.9729,0,0,1-1.6-.3,3.9153,3.9153,0,0,1-1-.8,2.7674,2.7674,0,0,1-.3-1.3,2.3416,2.3416,0,0,1,.8-1.8,3.8866,3.8866,0,0,1,2.6-.6h1.8a1.5035,1.5035,0,0,0-.4-1.1,2.1159,2.1159,0,0,0-1.4-.4,6.882,6.882,0,0,0-1.3.2,3.1281,3.1281,0,0,0-1,.5l-.8-1.6a7.7406,7.7406,0,0,1,1.6-.7,6.1509,6.1509,0,0,1,1.9-.2A3.3291,3.3291,0,0,1,686.3,345.1Zm-2,5.4a1.242,1.242,0,0,0,.6-.8v-.8h-1.6c-.9,0-1.4.3-1.4.9a.9075.9075,0,0,0,.3.7,1.02,1.02,0,0,0,.9.2,3.2647,3.2647,0,0,0,1.2-.2Z"/>
        <path class="cls-2" d="M696,343.9v2.7h4.8v1.9H696v3.8h-2.4V342h7.7v1.9Z"/>
        <path class="cls-2" d="M708.6,345.1a3.2249,3.2249,0,0,1,.9,2.6v4.5h-2.2v-.9a2.3611,2.3611,0,0,1-2.4,1.1,4.9729,4.9729,0,0,1-1.6-.3,3.9153,3.9153,0,0,1-1-.8,2.7674,2.7674,0,0,1-.3-1.3,2.3416,2.3416,0,0,1,.8-1.8,3.8866,3.8866,0,0,1,2.6-.6h1.8a1.5035,1.5035,0,0,0-.4-1.1,2.116,2.116,0,0,0-1.4-.4,6.882,6.882,0,0,0-1.3.2,3.1281,3.1281,0,0,0-1,.5l-.8-1.6a7.7406,7.7406,0,0,1,1.6-.7,6.1509,6.1509,0,0,1,1.9-.2A3.16,3.16,0,0,1,708.6,345.1Zm-2,5.4a1.242,1.242,0,0,0,.6-.8v-.8h-1.6c-.9,0-1.4.3-1.4.9a.9077.9077,0,0,0,.3.7,1.02,1.02,0,0,0,.9.2,3.2647,3.2647,0,0,0,1.2-.2Z"/>
        <path class="cls-2" d="M718.2,350.4v1.8h-7.1v-1.4l4.1-4.8h-4v-1.8H718v1.4l-4.1,4.8Z"/>
        <path class="cls-2" d="M542.6,516.5a4.0948,4.0948,0,0,1-2-1.9,5.7366,5.7366,0,0,1,0-5.4,4.5917,4.5917,0,0,1,2-1.9,6.3029,6.3029,0,0,1,5.2-.2,3.5609,3.5609,0,0,1,1.8,1.4L548,510a3.65,3.65,0,0,0-2.6-1.3,3.5333,3.5333,0,0,0-1.7.4,1.9728,1.9728,0,0,0-1.1,1.1,4.0391,4.0391,0,0,0,0,3.4,2.3454,2.3454,0,0,0,1.1,1.1,3.2878,3.2878,0,0,0,1.7.4,3.047,3.047,0,0,0,2.6-1.3l1.6,1.5a6.2278,6.2278,0,0,1-1.8,1.4,6.4363,6.4363,0,0,1-2.4.5A6.097,6.097,0,0,1,542.6,516.5Z"/>
        <path class="cls-2" d="M557,509.8a3.2249,3.2249,0,0,1,.9,2.6v4.5h-2.2V516a2.3611,2.3611,0,0,1-2.4,1.1,4.9729,4.9729,0,0,1-1.6-.3,3.9153,3.9153,0,0,1-1-.8,2.7681,2.7681,0,0,1-.3-1.3,2.3417,2.3417,0,0,1,.8-1.8,3.8866,3.8866,0,0,1,2.6-.6h1.8a1.5042,1.5042,0,0,0-.4-1.1,2.1169,2.1169,0,0,0-1.4-.4,6.8828,6.8828,0,0,0-1.3.2,3.126,3.126,0,0,0-1,.5l-.8-1.6a7.7477,7.7477,0,0,1,1.6-.7,6.1541,6.1541,0,0,1,1.9-.2A4.164,4.164,0,0,1,557,509.8Zm-2,5.5a1.242,1.242,0,0,0,.6-.8v-.8H554c-.9,0-1.4.3-1.4.9a.9078.9078,0,0,0,.3.7,1.02,1.02,0,0,0,.9.2,2.1663,2.1663,0,0,0,1.2-.2Z"/>
        <path class="cls-2" d="M563.3,509.3a4.1456,4.1456,0,0,1,1.6-.3v2.1h-.5a3.32,3.32,0,0,0-1.6.5,1.9541,1.9541,0,0,0-.5,1.7v3.8H560v-7.9h2.2v1A2.3263,2.3263,0,0,1,563.3,509.3Z"/>
        <path class="cls-2" d="M569.6,509.3a4.1456,4.1456,0,0,1,1.6-.3v2.1h-.5a3.32,3.32,0,0,0-1.6.5,1.9541,1.9541,0,0,0-.5,1.7v3.8h-2.3v-7.9h2.2v1A1.9431,1.9431,0,0,1,569.6,509.3Z"/>
        <path class="cls-2" d="M578.5,509.8a3.2249,3.2249,0,0,1,.9,2.6v4.5h-2.2V516a2.3611,2.3611,0,0,1-2.4,1.1,4.9729,4.9729,0,0,1-1.6-.3,3.9153,3.9153,0,0,1-1-.8,2.7681,2.7681,0,0,1-.3-1.3,2.3417,2.3417,0,0,1,.8-1.8,3.8866,3.8866,0,0,1,2.6-.6h1.8a1.5042,1.5042,0,0,0-.4-1.1,2.1169,2.1169,0,0,0-1.4-.4,6.8828,6.8828,0,0,0-1.3.2,3.126,3.126,0,0,0-1,.5l-.8-1.6a7.7477,7.7477,0,0,1,1.6-.7,6.1541,6.1541,0,0,1,1.9-.2A4.0192,4.0192,0,0,1,578.5,509.8Zm-1.9,5.5a1.242,1.242,0,0,0,.6-.8v-.8h-1.6c-.9,0-1.4.3-1.4.9a.9077.9077,0,0,0,.3.7,1.02,1.02,0,0,0,.9.2,2.3458,2.3458,0,0,0,1.2-.2Z"/>
        <path class="cls-2" d="M586.7,516.6a2.01,2.01,0,0,1-.8.4,4.1054,4.1054,0,0,1-3.2-.6,2.7012,2.7012,0,0,1-.7-2.1v-3.2h-1.3v-1.8H582v-1.9h2.3v1.9h2v1.8h-2v3.2a1.4453,1.4453,0,0,0,.2.7.9078.9078,0,0,0,.7.3,1.6129,1.6129,0,0,0,.9-.3Z"/>
        <path class="cls-2" d="M594,509.8a3.2249,3.2249,0,0,1,.9,2.6v4.5h-2.2V516a2.3611,2.3611,0,0,1-2.4,1.1,4.9729,4.9729,0,0,1-1.6-.3,3.9153,3.9153,0,0,1-1-.8,2.7681,2.7681,0,0,1-.3-1.3,2.3417,2.3417,0,0,1,.8-1.8,3.8866,3.8866,0,0,1,2.6-.6h1.8a1.5042,1.5042,0,0,0-.4-1.1,2.1169,2.1169,0,0,0-1.4-.4,6.8828,6.8828,0,0,0-1.3.2,3.126,3.126,0,0,0-1,.5l-.8-1.6a7.7477,7.7477,0,0,1,1.6-.7,6.1541,6.1541,0,0,1,1.9-.2A4.164,4.164,0,0,1,594,509.8Zm-2,5.5a1.242,1.242,0,0,0,.6-.8v-.8H591c-.9,0-1.4.3-1.4.9a.9078.9078,0,0,0,.3.7,1.02,1.02,0,0,0,.9.2,2.1663,2.1663,0,0,0,1.2-.2Z"/>
        <path class="cls-2" d="M597,506.1h2.3v10.8H597Z"/>
        <path class="cls-2" d="M607.4,509.8a3.2249,3.2249,0,0,1,.9,2.6v4.5h-2.2V516a2.3611,2.3611,0,0,1-2.4,1.1,4.9729,4.9729,0,0,1-1.6-.3,3.9153,3.9153,0,0,1-1-.8,2.7681,2.7681,0,0,1-.3-1.3,2.3417,2.3417,0,0,1,.8-1.8,3.8866,3.8866,0,0,1,2.6-.6H606a1.5042,1.5042,0,0,0-.4-1.1,2.1166,2.1166,0,0,0-1.4-.4,6.8817,6.8817,0,0,0-1.3.2,3.125,3.125,0,0,0-1,.5l-.8-1.6a7.7462,7.7462,0,0,1,1.6-.7,6.1532,6.1532,0,0,1,1.9-.2A4.0192,4.0192,0,0,1,607.4,509.8Zm-5.7-3.8h2.5l2,2.1h-1.8Zm3.8,9.3a1.242,1.242,0,0,0,.6-.8v-.8h-1.6c-.9,0-1.4.3-1.4.9a.9078.9078,0,0,0,.3.7,1.02,1.02,0,0,0,.9.2,2.538,2.538,0,0,0,1.2-.2Z"/>
        <path class="cls-2" d="M468.7,658.7a4.6959,4.6959,0,0,1-2.6.8,5.4087,5.4087,0,0,1-4.8-2.6,5.09,5.09,0,0,1-.7-2.6,6.4374,6.4374,0,0,1,.7-2.8,5.8057,5.8057,0,0,1,1.6-1.9,3.9809,3.9809,0,0,1,2.1-.9l.5,2a3.5537,3.5537,0,0,0-2.3,1.7,3.2878,3.2878,0,0,0-.4,1.7,4.7093,4.7093,0,0,0,.4,1.6,3.8751,3.8751,0,0,0,3,1.7,4.707,4.707,0,0,0,1.6-.4,2.3657,2.3657,0,0,0,1.1-1.3,3.4131,3.4131,0,0,0,.2-2.8l2-.6a4.4545,4.4545,0,0,1,.3,2.3,6.6532,6.6532,0,0,1-.7,2.4A21.2358,21.2358,0,0,1,468.7,658.7Z"/>
        <path class="cls-2" d="M469.9,642.8a3.4592,3.4592,0,0,1,2.8.4l4,2.2-1,1.9-.8-.5a2.6741,2.6741,0,0,1-.2,2.6,4.1247,4.1247,0,0,1-1,1.3,2.5412,2.5412,0,0,1-1.3.5,3.4524,3.4524,0,0,1-1.3-.3,1.9339,1.9339,0,0,1-1.1-1.6,4.2329,4.2329,0,0,1,.6-2.5l.8-1.6a1.4683,1.4683,0,0,0-1.3-.1,1.9494,1.9494,0,0,0-1,1,4.8745,4.8745,0,0,0-.4,1.1,2.0538,2.0538,0,0,0,0,1.1h-1.8a5.013,5.013,0,0,1,.1-1.7,18.9569,18.9569,0,0,1,.6-1.8A5.5928,5.5928,0,0,1,469.9,642.8Zm3.8,4.3a1.0858,1.0858,0,0,0-.4-.9l-.7-.4-.7,1.4c-.4.8-.4,1.4.1,1.7a.8549.8549,0,0,0,.7,0,1.3448,1.3448,0,0,0,.6-.7,1.6661,1.6661,0,0,0,.4-1.1Z"/>
        <path class="cls-2" d="M477.8,642.8a3.4475,3.4475,0,0,1-1.3,1l-1-1.5a3.9153,3.9153,0,0,0,1-.8,10.6274,10.6274,0,0,0,.9-1.1c.4-.8.5-1.4.1-1.7a.4711.4711,0,0,0-.6.1c-.3.3-.5.6-.8.9a14.6986,14.6986,0,0,0-1,1.3,2.3838,2.3838,0,0,1-1.1.6,2.6218,2.6218,0,0,1-1.5-.2,2.1889,2.1889,0,0,1-.9-1,2.8508,2.8508,0,0,1-.2-1.6,6.971,6.971,0,0,1,.6-1.9c.3-.5.6-.9.9-1.4a2.3263,2.3263,0,0,1,1.1-.9l1,1.5a4.3633,4.3633,0,0,0-1.6,1.7,1.93,1.93,0,0,0-.3,1,.55.55,0,0,0,.3.5c.2.1.5.1.6-.1a6.4646,6.4646,0,0,0,.8-.9,14.6986,14.6986,0,0,0,1-1.3,2.3836,2.3836,0,0,1,1.1-.6,2.2994,2.2994,0,0,1,1.4.2,2.1889,2.1889,0,0,1,.9,1,4.1449,4.1449,0,0,1,.2,1.6,4.3836,4.3836,0,0,1-.7,1.9A2.794,2.794,0,0,1,477.8,642.8Z"/>
        <path class="cls-2" d="M483.4,632.1a2.7686,2.7686,0,0,1-.1.9,3.5521,3.5521,0,0,1-.4.9,2.9822,2.9822,0,0,1-1.7,1.6,2.8167,2.8167,0,0,1-2.2-.3l-2.8-1.6-.6,1-1.6-.8.6-1-1.7-.9,1-2,1.7.9.9-1.8,1.6.8-.9,1.8,2.8,1.6a1.0625,1.0625,0,0,0,.8.1,1.47,1.47,0,0,0,.6-.5,1.4861,1.4861,0,0,0,.2-.9Z"/>
        <path class="cls-2" d="M485,623l-2.8,5.2a2.2938,2.2938,0,0,0,1.4-.1,1.8174,1.8174,0,0,0,1-1.1,1.93,1.93,0,0,0,.3-1,3.4016,3.4016,0,0,0-.1-1l1.8-.4a4.0764,4.0764,0,0,1-.4,3.4,5.8064,5.8064,0,0,1-1.6,1.9,4.7927,4.7927,0,0,1-2,.7,3.8449,3.8449,0,0,1-2.1-.5,4.4983,4.4983,0,0,1-1.6-1.5,3.7191,3.7191,0,0,1-.5-2,4.5663,4.5663,0,0,1,2-3.8,3.6057,3.6057,0,0,1,2-.6,5.8519,5.8519,0,0,1,2.2.5C484.5,622.7,484.7,622.8,485,623Zm-4.8,3.4a1.9013,1.9013,0,0,0,.7,1.1l1.9-3.4a1.7041,1.7041,0,0,0-1.4,0,2.1889,2.1889,0,0,0-1,.9,2.2994,2.2994,0,0,0-.2,1.4Z"/>
        <path class="cls-2" d="M479,618l1-2,9.6,5.2-1,2Z"/>
        <path class="cls-2" d="M481.2,614.1l1-2,9.6,5.2-1,2Z"/>
        <path class="cls-2" d="M513.7,593.6l-.5-3.4H513l-1.9-.9-1.3,2.6-2.1-1,4.6-9.2,4,2a4.54,4.54,0,0,1,1.9,1.5,3.4606,3.4606,0,0,1,.4,3.9,3.3811,3.3811,0,0,1-3.3,2l.6,4Zm3-7.4a2.3651,2.3651,0,0,0-1.3-1.1l-1.8-.8-1.6,3.2,1.8.8a2.3907,2.3907,0,0,0,1.7.3,1.9028,1.9028,0,0,0,1.2-2.4Z"/>
        <path class="cls-2" d="M533.2,591.1l-4.9,9.7-2-.9.4-.8a3.2114,3.2114,0,0,1-2.7-.2,4.1575,4.1575,0,0,1-1.6-1.4,3.2922,3.2922,0,0,1-.6-1.9,5.0766,5.0766,0,0,1,1.9-3.9,3.2924,3.2924,0,0,1,1.9-.6,4.4771,4.4771,0,0,1,2,.4,2.7158,2.7158,0,0,1,1.7,1.9L531,590Zm-6.4,6.3a2.7592,2.7592,0,0,0,1.5-2.8,2.093,2.093,0,0,0-2.6-1.3,2.7592,2.7592,0,0,0-1.5,2.8,2.05,2.05,0,0,0,2.6,1.3Z"/>
        <path class="cls-2" d="M538.5,602.2l-5.3-2.7a1.8066,1.8066,0,0,0,.2,1.4,2.66,2.66,0,0,0,1.1,1,1.93,1.93,0,0,0,1,.3,3.4019,3.4019,0,0,0,1-.1l.5,1.8a4.0527,4.0527,0,0,1-3.4-.3,4.1088,4.1088,0,0,1-1.9-1.6,3.7209,3.7209,0,0,1-.7-2,3.7774,3.7774,0,0,1,.4-2.1,4.0392,4.0392,0,0,1,1.5-1.7,3.6047,3.6047,0,0,1,2-.6,4.7792,4.7792,0,0,1,3.9,1.9,4.3469,4.3469,0,0,1,.7,2,4.4193,4.4193,0,0,1-.5,2.2C538.8,601.7,538.7,601.9,538.5,602.2Zm-3.7-4.7a2.0969,2.0969,0,0,0-1.1.8l3.4,1.8a3.295,3.295,0,0,0,0-1.4,1.962,1.962,0,0,0-.9-.9,1.6547,1.6547,0,0,0-1.4-.3Z"/>
        <path class="cls-2" d="M543.3,608.1a5.34,5.34,0,0,1-1.3-1.6l1.6-1.3a12.1327,12.1327,0,0,0,1,1.4,3.0722,3.0722,0,0,0,1.5,1,2.41,2.41,0,0,0,1.5.4,1.02,1.02,0,0,0,.8-.5.6381.6381,0,0,0,0-.6,1.47,1.47,0,0,0-.5-.6,8.1686,8.1686,0,0,0-.9-.8,9.6017,9.6017,0,0,1-1.5-1.4,3.09,3.09,0,0,1-.7-1.4,2.96,2.96,0,0,1,1.3-3,2.6888,2.6888,0,0,1,1.8-.4,6.1523,6.1523,0,0,1,2.3.7,8.6255,8.6255,0,0,1,1.6,1,5.2517,5.2517,0,0,1,1.1,1.4l-1.5,1.3a5.32,5.32,0,0,0-2.2-2,2.41,2.41,0,0,0-1.5-.4,1.02,1.02,0,0,0-.8.5.7447.7447,0,0,0,.1.9l1.3,1.3a9.5969,9.5969,0,0,1,1.5,1.4,3.0884,3.0884,0,0,1,.7,1.4,2.96,2.96,0,0,1-1.3,3,3.5754,3.5754,0,0,1-1.9.4,6.1522,6.1522,0,0,1-2.3-.7C544.5,609.1,543.9,608.6,543.3,608.1Z"/>
        <path class="cls-2" d="M559,608.2a3.43,3.43,0,0,1-.3,2.8l-2,4.1-1.9-.9.4-.8a2.6672,2.6672,0,0,1-2.6-.1,3.8053,3.8053,0,0,1-1.3-.9,1.7279,1.7279,0,0,1-.5-1.3,3.1763,3.1763,0,0,1,.2-1.3,1.9336,1.9336,0,0,1,1.6-1.1,4.0224,4.0224,0,0,1,2.6.6l1.7.8a1.9013,1.9013,0,0,0,.1-1.3,1.7566,1.7566,0,0,0-1-.9,4.88,4.88,0,0,0-1.1-.4,2.0552,2.0552,0,0,0-1.1,0v-1.8a3.34,3.34,0,0,1,1.7.1,5.4619,5.4619,0,0,1,1.8.6A2.7615,2.7615,0,0,1,559,608.2Zm-4.1,3.9a1.4893,1.4893,0,0,0,.9-.4l.3-.7-1.4-.7c-.8-.4-1.4-.3-1.7.2a.8544.8544,0,0,0,0,.7,1.3442,1.3442,0,0,0,.7.6A1.9419,1.9419,0,0,0,554.9,612.1Z"/>
        <path class="cls-2" d="M563.5,606.2l2.1,1-4.9,9.7-2.1-1Z"/>
        <path class="cls-2" d="M571.1,614.1a3.43,3.43,0,0,1-.3,2.8l-2,4.1-1.9-.9.4-.8a2.6669,2.6669,0,0,1-2.6-.1,3.8056,3.8056,0,0,1-1.3-.9,1.7275,1.7275,0,0,1-.5-1.3,3.1773,3.1773,0,0,1,.2-1.3,1.9339,1.9339,0,0,1,1.6-1.1,4.0226,4.0226,0,0,1,2.6.6l1.7.8a1.901,1.901,0,0,0,.1-1.3,1.7568,1.7568,0,0,0-1-.9,4.8745,4.8745,0,0,0-1.1-.4,2.0542,2.0542,0,0,0-1.1,0v-1.8a3.3389,3.3389,0,0,1,1.7.1,5.4617,5.4617,0,0,1,1.8.6A4.2548,4.2548,0,0,1,571.1,614.1Zm-4.1,4.1a1.4893,1.4893,0,0,0,.9-.4l.3-.7-1.4-.7c-.8-.4-1.4-.3-1.7.2a.8542.8542,0,0,0,0,.7,1.3444,1.3444,0,0,0,.7.6A3.0129,3.0129,0,0,0,567,618.2Z"/>
        <path class="cls-2" d="M577.3,623.2l-.8,1.6-6.3-3.1.6-1.3,5.7-2.5-3.5-1.8.8-1.6,6.1,3-.6,1.3-5.7,2.5Z"/>
        <path class="cls-2" d="M586.4,621.7a3.43,3.43,0,0,1-.3,2.8l-2,4.1-1.9-.9.4-.8a2.667,2.667,0,0,1-2.6-.1,3.8043,3.8043,0,0,1-1.3-.9,1.7275,1.7275,0,0,1-.5-1.3,3.1778,3.1778,0,0,1,.2-1.3,1.9339,1.9339,0,0,1,1.6-1.1,4.0223,4.0223,0,0,1,2.6.6l1.7.8a1.9,1.9,0,0,0,.1-1.3,1.7566,1.7566,0,0,0-1-.9,4.88,4.88,0,0,0-1.1-.4,2.0548,2.0548,0,0,0-1.1,0v-1.8a3.34,3.34,0,0,1,1.7.1,5.4617,5.4617,0,0,1,1.8.6A3.7355,3.7355,0,0,1,586.4,621.7Zm-4.2,4.1a1.4893,1.4893,0,0,0,.9-.4l.3-.7L582,624c-.8-.4-1.4-.3-1.7.2a.8542.8542,0,0,0,0,.7,1.3437,1.3437,0,0,0,.7.6A3.4556,3.4556,0,0,0,582.2,625.8Z"/>
        <path class="cls-2" d="M592.3,624a5.3491,5.3491,0,0,1,1.6.4l-.9,1.9-.4-.2a2.3912,2.3912,0,0,0-1.7-.2,2.3533,2.3533,0,0,0-1.3,1.3l-1.7,3.3-2.1-1,3.5-7.1,2,.9-.4.9A6.7479,6.7479,0,0,1,592.3,624Z"/>
    </g>
</svg>