<?xml version="1.0" encoding="utf-8"?>
<!-- Generator: Adobe Illustrator 24.0.2, SVG Export Plug-In . SVG Version: 6.00 Build 0)  -->
<svg version="1.1" id="Capa_2_1_" xmlns="http://www.w3.org/2000/svg" xmlns:xlink="http://www.w3.org/1999/xlink" x="0px" y="0px"
	 viewBox="0 0 1080 1080" style="enable-background:new 0 0 1080 1080;" xml:space="preserve">
<style type="text/css">
	.st1{fill:#FFFFFF;}
	.st2{fill:none;stroke:#FFFFFF;stroke-width:8;stroke-miterlimit:10;}
</style>
<g class="zone" id="3_Playa_de_San_Juan_-_El_Cabo" data-name=" 3_Playa_de_San_Juan_-_El_Cabo">
	<path id="_3_x5F_Playa_x5F_de_x5F_San_x5F_Juan_x5F_-_x5F_El_x5F_Cabo_1_" class="st0" d="M689.7,459.5c7,5.9,10.4,13.4,10.7,23.6
		c0.1,4,2,6.5,3,7.5c1.7,0.4,3.5,1,5.4,2.1c2.4,1.4,9.3,4,15,6c7.5,2.7,11.8,4.4,13.7,5.7c5.8,4,10.5,26.1,10.5,26.3
		c0.3,1.5,0.2,3,0.2,4.1c0,1,0,2.1,0.2,2.4c0.1,0.2,1,1.1,5.3,2l2.3,0.5c9.6,1.9,15.9,3.1,20.7,2.4c5.1-0.8,7.6,2.9,9,5
		c1.6,2.3,2.4,3.5,5.6,3.4c10.5-0.4,21.5,0.6,30.4,2.7c1.4,0.3,2.7,0.7,4,1c5.4,1.3,10.5,2.6,12.7,1.7c0.7-0.3,1.4-0.7,2-1
		c2.6-1.4,6-3.3,11.4,0.6c5.9,4.3,8.8,2.7,9.7,2.2c4.4-2.5,11.8-1.9,18.2-1.3c2,0.2,3.8,0.3,5.1,0.3c0.8,0,1.9,0,3.2,0.1
		c1.7,0.1,5.2,0.2,7.9,0.1c-1.5-1.6-3.1-3.3-4.8-5.1c-5.2-5.6-11.2-12-17.9-18.4c-5.9-5.5-6-17.4-6.1-33.8c0-3.6,0-7.4-0.1-11.2
		c-0.7-29.8,0.3-73.4,1.4-84.9c0.3-3,0.7-6,1.2-8.9c1.1-7.3,2.3-14.9-0.6-17.4c-2.7-2.4-7.9-7.9-14-14.3
		c-7.6-8.1-17.1-18.1-21.3-21.4c-1.5-1.2-2.9-2.2-4.1-3c-5.4-3.8-8.6-6.4-10.4-16.7l-0.2-1.3c-0.5-2.6-1-5.8-1.6-7.5
		c-0.5,0.4-1.3,1-2.4,2c-1.7,1.5-3.2,3-4.7,4.3c-6,5.6-10.3,9.6-15,12.6c-1,0.6-2.4,1.7-4,3c-8.3,6.4-19.8,15.1-28.3,11.2
		c-2.4-1.1-5.6-3.1-9.3-5.5c-8.2-5.2-22-13.8-28.2-12c-2.5,0.8-4.8,0.5-7-0.3c-1.9,0.6-3.9,1.2-5.9,1.7c-7.4,2.1-15.8,4.5-18.2,8.5
		c-1.2,2-0.6,9.8-0.2,15.4c0.3,3.7,0.6,7.6,0.6,11.1c0,10.8-4.2,14.2-9.9,19c-0.7,0.6-1.5,1.3-2.4,2c-1.1,1-2.3,1.9-3.5,2.9
		c-4.2,3.5-11.1,9.3-11.8,11.4c-0.3,1.7,0.6,8,7.1,28C678.3,441.2,683.2,454,689.7,459.5z"/>
</g>
<g class="zone" id="3_Virgen_del_Remedio_-_Juan_XXIII" data-name="3_Virgen_del_Remedio_-_Juan_XXIII">
	<path id="_x33__x5F_Virgen_x5F_del_x5F_Remedio_x5F_-_x5F_Juan_x5F_XXIII" class="st0" d="M461.7,357.2c-5.8-0.9-13.9,4.9-19.9,9.2
		c-1,0.7-1.9,1.3-2.7,1.9c-0.9,0.6-2.1,1.5-3.5,2.5c-9.1,6.6-17.8,12.7-24.8,15c2.6,3.5,5.3,7.7,6.4,11.4c2,7,7.8,28.6,9.4,36.2
		c0.9,4.5,2.8,11,4.3,16.2c0.9,3.2,1.7,5.9,2.1,7.6c0.1,0.6,0.2,1.1,0.4,1.7c0.7,3.5,0.8,4.2,6,3.4c9.8-1.5,49.1-6.4,57-6.9
		c7.1-0.5,16.8-1.1,17.5,6.5c0.1,0.6,0.1,1.4,0.2,2.4c0.1,1.7,0.3,6.7,1.2,8.5l0.2,0c5.4-0.4,21.9-1.5,27.4-2.8
		c1.6-0.4,3.1-0.5,4.4-0.7c1.2-0.1,2.9-0.3,3.3-0.6c0,0,0.3-0.6,0.2-2.5c-0.1-1.3-0.2-2.6-0.3-3.9c-0.5-6-1-11.2,2-14.4
		c1-1.1,2.7-2.3,5.6-2.3c1.6,0,4.3-0.1,7.5-0.2c7.7-0.2,17.3-0.5,21.3,0c4,0.5,12.8,2.6,19.8,4.2c2.7,0.6,5,1.2,6.6,1.5
		c3.4,0.8,4.6,1,7.5-6.2c3.3-8.1,8.6-17.7,11.7-23.4c0.5-0.8,0.9-1.6,1.2-2.3c0.6-1,1.1-2.3,1.7-3.6c1.9-4.4,3.9-8.9,8.2-9.6
		c1.6-0.3,4.1,0,6.6,2.8c1.1,1.2,2.1,2.5,3.2,3.9c2.6,3.3,5.5,7,10.6,10.4c-1.1-3.6-2-6.7-2.8-9.4c-7.2-6.7-18.3-16.1-22-17.2
		c-4.7-1.5-23.3-1.4-33.3-1.4c-1.6,0-3,0-4.3,0c-10.2,0-14-2.8-17.4-5.2c-0.8-0.6-1.5-1.1-2.3-1.6c-2.7-1.6-5.3-2.3-10.6-3.5
		c-2.4-0.6-5.4-1.3-9.1-2.3c-7.5-2-10.1-4.2-12.8-6.6c-1.8-1.6-3.7-3.2-7.9-5.4c-2.7-1.3-5-2.6-7.1-3.6c-6.6-3.5-11.4-6-20.3-8.8
		c-7.1-2.3-12.1-1.1-17.4,0.2c-2.8,0.7-5.7,1.4-8.9,1.6c-7.5,0.4-15.4-1.8-18.7-2.8C466.7,357.8,463.9,357.6,461.7,357.2z"/>
</g>
<g class="zone" id="3_Plà_del_Bon_Repòs_-_La_Goleta_-_San_Antón" data-name="3_Plà_del_Bon_Repòs_-_La_Goleta_- _San_Antón">
	<path id="_x33__x5F_Plà_x5F_del_x5F_Bon_x5F_Repòs_x5F_-_x5F_La_x5F_Goleta_x5F_-__x5F_San_x5F_Antón_1_" class="st0" d="
		M569.7,534.6c-0.1-0.1-10.1-10.2-12.1-14.2l-0.1-0.2c-1.2-2.4-2.5-5-5.2-6.2l-1.8-0.8c-3.6-1.6-10.1-4.7-16.1-7.3
		c-2.9,5.3-8.7,15.8-11.6,20.1c-1,1.6-1.2,2.5-1.1,2.8c0.1,0.3,0.6,0.8,1.8,1.4c2.9,1.4,3.1,3.7,3.1,4.7c-0.1,3.4-3.4,4.7-6.8,6
		c-1.1,0.4-2.2,0.9-3,1.3c-2.1,1.1-3.3,2.8-5.4,6.4c-0.4,0.6-0.8,1.3-1.2,2c-2.8,4.5-6,8.1-10.1,11.2c-0.7,0.6-1.4,1.2-2.1,1.8
		c-1.6,1.5-3.4,3.1-5.9,3.7c-0.1,1.6,0.1,4.3,0.2,6.3c0.1,2,0.3,4,0.3,6c0.2-0.1,0.5-0.3,0.7-0.4c2.4-1.4,9.6-10.8,14.7-18.8
		c3.3-5.1,9.3-4.3,16.2-3.4c2,0.3,4.2,0.5,6.5,0.8c5.9,0.5,8.1-1,10.9-2.9c1.2-0.8,2.4-1.6,3.9-2.3c3-1.4,5-0.4,6,0.2
		c3.1,2.2,2.8,6.2,2.3,12.4c-0.1,1.8-0.3,3.7-0.4,5.7c-0.1,2.8,0,5,0.3,6.7c1.3-0.6,4-2,6.1-3.1c7.9-4.2,12.9-6.7,16.2-6.6
		c1.1-0.1,4-3.5,5.2-6.8c1.3-3.8,10.8-12.5,17.1-17.3c-3.6-1-7.4-1.8-10-2.1C582.8,541.1,573.1,538,569.7,534.6z"/>
</g>
<g class="zone" id="3_Centro" data-name=" 3_Centro">
	<path id="_3_x5F_Centro_1_" class="st0" d="M545.2,570.7c0.1-2.1,0.2-4.2,0.4-6c0.1-0.9,0.2-2,0.2-3c-3.2,2.2-7.3,4.9-16,4.2
		c-2.5-0.2-4.9-0.5-6.9-0.8c-3.5-0.5-7.8-1-8.4-0.1c-2,3-12,18.2-17.4,21.3c-0.6,0.4-1.3,0.8-1.9,1.2c-1.5,1-3.4,2.3-5.3,2.3
		c-0.8,0-1.5-0.2-2.3-0.6c-3.2-1.7-3.2-5.9-3.2-8.2c0-2.1-0.2-4.4-0.3-6.6c-0.3-4.1-0.5-7.4,0.1-9.8c-0.1,0-0.2-0.1-0.3-0.1
		c-1.6-0.1-4.1,2.1-5.8,3.7l-0.7,0.6c-4,3.6-8.4,2.9-11,2.4c-0.3-0.1-0.6-0.1-0.9-0.1c-0.3,0.3-0.7,0.9-1,1.3
		c-1.2,1.6-2.9,3.8-5.6,4c-0.5,0.2-1.5,0.8-2.2,1.2c-1.9,1.1-4,2.4-6.4,3.2c0.4,0.7,0.8,1.3,1.1,1.9c0.7,1.2,1.4,2.4,2,3.6
		c2.2,4.8-2,8.2-4.9,10.4c-1.9,1.5-4.1,3.2-4.7,5c-1.5,4.3-1.2,11.5-1,17.8c0.1,1.5,0.1,3,0.1,4.4c0.1,5,2.3,14.2,4.5,23.2
		c0.9,3.8,1.9,7.7,2.7,11.3c1.9,8.9,2.9,16.5,3.3,19.9c0.2,0.1,0.3,0.2,0.5,0.3c5.3,3.4,8.8,5.3,12,2.8c3.3-2.4,4.3-6.9,5.2-10.8
		c0.9-4.1,1.9-8.3,5.9-9.5c1.1-0.3,2-0.5,2.8-0.7c1.8-0.4,2.7-0.6,5.5-3c-1.7-0.3-3.5-1.2-5.6-2.9c-3-2.5-4.6-6.5-4.7-11.2
		c-0.1-5.7,2.2-11.6,5.6-14.7c3.6-3.2,10.1-6.9,15.3-10c1.8-1,3.3-1.9,4.4-2.6c3.2-2,7.5-1,10.5,0.5c3.6,1.9,5.7,4.7,5.8,7.7
		c0.3,6.5,0.4,12.6-2.1,16.7c-0.1,0.1-0.2,0.3-0.3,0.5c1.6,0,3.1,0.7,4.1,2.1c3.1,4.6-1.8,17.2-3.9,20.4c-3.2,4.8-28,30-37.4,38.5
		c-1.6,1.5-2.8,2.9-3.7,4.1c1.3-0.9,2.8-2.1,4.8-3.9c14.7-13.1,42.2-37.5,43.8-50c1.4-10.7,0.7-15.3,0.2-18.6
		c-0.2-1.3-1-3.7-1.7-5.9c-0.8-2.5-1.6-5.1-2.1-7.4c-1.1-5.5,1-14.3,6.5-18.9c1.2-1,2.7-2.3,4.2-3.7c5.3-4.7,9-7.9,11.5-9.2
		c0.6-0.4,2.2-2.3,3.2-3.5c0.8-0.9,1.5-1.8,2.3-2.5C545.7,580.3,545,576.4,545.2,570.7z"/>
</g>
<g class="zone" id="3_Parque_Avenidas_-_Vistahermosa" data-name=" 3_Parque_Avenidas_-_Vistahermosa">
	<path id="_3_x5F_Parque_x5F_Avenidas_x5F_-_x5F_Vistahermosa_1_" class="st0" d="M647.1,417.6c-0.8-1-1.6-2-2.3-2.9
		c-0.7,1.1-1.5,2.9-2,4.1c-0.6,1.4-1.3,2.9-2,4.2c-0.4,0.7-0.8,1.4-1.3,2.3c-3.1,5.6-8.2,14.9-11.3,22.5c-4,10-8.4,12.9-16.6,11
		c-1.6-0.3-4-0.9-6.7-1.5c-6.5-1.5-15.4-3.6-19-4.1c-3.4-0.4-13.5-0.2-20.1,0c-3.1,0.1-5.7,0.2-7.5,0.2c-0.4,1.5-0.1,5.4,0.2,8.1
		c0.1,1.3,0.2,2.7,0.3,4.1c0.6,10.4-6.4,11.1-10.6,11.6c-1.2,0.1-2.4,0.3-3.6,0.5c-6.1,1.4-22.2,2.5-28.5,2.9
		c-0.1,2.4-0.1,4.7,0.2,5.8c0.4,1.5,4.8,5.8,11.6,8.3c6.6,2.4,20,8.6,25.8,11.2l1.8,0.8c5.3,2.4,7.6,6.9,9.1,9.9l0.1,0.2
		c0.9,1.7,7,8.4,10.6,12.1c1.3,1.3,8.7,4.3,13.7,4.9c5.3,0.7,13.9,2.9,19.1,4.9c0.1,0,0.3-0.1,0.4-0.1c4-1.4,11.3-4.1,12.9-5.5
		c1.8-1.6,5-2.9,11-5.3c6-2.4,13.5-5.4,17.5-8.5c3.3-2.5,6.8-6.5,10-10c4.7-5.2,7.7-8.5,10.8-9.6c1.1-0.4,3.3-1.9,5.2-3.1
		c4.9-3.3,10.4-7,15.5-6.6c0.8,0.1,1.5,0.1,2.3,0.1c-0.7-1.9-1.3-4.1-1.4-6.7c-0.3-7.9-2.7-13.4-7.9-17.8c-7-6-11.9-16.9-16.9-31.5
		C656,429,650.9,422.4,647.1,417.6z"/>
</g>
<g class="zone" id="3_Campoamor_-_Carolinas_-_Altozano" data-name="3_Campoamor_-_Carolinas_-_Altozano">
	<path id="_x33__x5F_Campoamor_x5F_-_x5F_Carolinas_x5F_-_x5F_Altozano_1_" class="st0" d="M506,464.6c0-0.5,0-0.9-0.1-1.3
		c-1.9-0.5-7.2-0.2-9.1,0c-4.7,0.3-22.3,2.4-37.2,4.3c1.8,2.5,3.7,5.2,4.9,6.8c1.2,1.7,3.9,6.2,2.9,11.2c-0.6,2.9-2.3,5.2-4.9,6.8
		c-1.3,0.8-3.4,2-5.9,3.5c-6,3.4-14.7,8.4-20.6,12.4c0.8,1.3,1.7,2.9,2.6,4.6c0.9-0.3,2.4-1,3.4-1.6c2.6-1.3,5.6-2.8,8.7-2.9
		c0.8,0,1.6-0.1,2.2-0.1c5.1-0.3,7.2,0.5,9.8,5.7c0.5,0.9,1,1.9,1.5,2.8c2.3,4.3,5,9.1,3.9,13.6c-0.9,3.6-0.9,7.1,0.1,12
		c0.3,1.6,0.7,2.9,1.2,4.1c1.1,3.2,2.3,6.8,0,12c-0.7,1.6-1.2,3.1-1.6,4.5c0,0,0,0,0.1,0c2.3,0.4,3.3,0.4,4.3-0.5l0.6-0.6
		c2.7-2.4,6.7-6.2,11.9-5.7c2.2,0.2,4.3,1.1,6.2,2.8c0.4-0.3,0.9-0.8,1.6-1.4c0.7-0.7,1.5-1.4,2.5-2.2c3.3-2.6,5.9-5.5,8.2-9.2
		c0.4-0.7,0.8-1.3,1.2-1.9c2.4-3.9,4.4-7.2,8.7-9.4c0.8-0.4,1.6-0.7,2.4-1.1c-0.7-0.9-1.3-2-1.6-3.1c-0.8-2.9,0-6,2.2-9.3
		c2.5-3.8,7.8-13.4,10.8-18.8c-0.6-0.2-1.1-0.4-1.6-0.6c-7.2-2.6-15.3-8.2-16.7-13.8c-0.8-3.2-0.5-8.8-0.2-11.6
		C506.6,473.7,506.2,469.3,506,464.6z"/>
</g>
<g class="zone" id="3_San_Blas_-_Pau" data-name="3_San_Blas_-_Pau">
	<path id="_x33__x5F_San_x5F_Blas_x5F_-_x5F_Pau_1_" class="st0" d="M446.9,573.2c1.6-0.1,3.9-1.5,5.8-2.6c1.8-1.1,3.3-2,4.8-2.3
		c0.2-0.3,0.5-0.7,0.8-1c0.2-0.3,0.5-0.6,0.7-0.9c0.3-2.1,1.1-6.6,3.1-11c1-2.4,0.7-3.4-0.3-6.2c-0.5-1.4-1.1-3.1-1.5-5.2
		c-1.2-6-1.1-10.6,0-15.4c0.4-1.5-1.8-5.4-3.1-7.8c-0.6-1-1.2-2.1-1.7-3.1c-0.4-0.7-0.6-1.2-0.8-1.4c-0.4,0-0.9,0-1.4,0.1
		c-0.7,0-1.5,0.1-2.4,0.1c-1.3,0-3.4,1.1-5.3,2.1c-3.2,1.6-6.5,3.3-9.9,2.2c-1.2-0.4-2.9-1.4-4.1-3.7c-0.6-1.3-1.3-2.5-1.9-3.6
		c-2.9,3.1-4.4,6.2-6.4,10.5c-0.4,0.9-0.8,1.7-1.3,2.7c-2,4.1-4.5,6.5-7.6,7.1c-4.5,0.9-8.1-2.2-9.7-3.6c-3.1-2.7-3.1-7.5-3.2-11.8
		c0-1.2,0-3.1-0.2-3.6c-0.5-1.3-3.8-6.1-9.8-14.2l-0.4-0.5c-0.3-0.5-0.6-0.6-0.6-0.6c-0.4-0.1-1.6,0.1-5.4,3
		c-3.3,2.4-22.5,22.3-32.8,32.9c-4.5,4.6-8,8.2-9.6,9.9c-5.3,5.3-6.9,8.8-8.4,14.6c-0.9,3.6-2.5,7.7-3.7,10.7
		c3.6,0.7,6.7,1.3,10.6,1.9l4.2,0.7c9.8,1.7,18.7,5,26.2,8c3,1.2,6.8,3.3,10.7,5.6c5.1,2.9,10.8,6.1,14.5,7.1
		c5.6,1.5,28.1,7.4,38.1,10.1c0.2-1.8,0.6-3.4,1.1-4.9c1.4-4,4.6-6.6,7.3-8.7c0.6-0.5,1.5-1.2,2.1-1.7c-0.3-0.6-0.7-1.3-1.1-1.9
		c-2.1-3.5-4.2-7.1-2.5-10.4C442.6,575.2,443.9,573.5,446.9,573.2z"/>
</g>
<g class="zone" id="3_Los_Ángeles_-_Tómbola_-_San_Nicolás" data-name="3_Los_Ángeles_-_Tómbola_-_San_Nicolás">
	<path id="_x33__x5F_Los_x5F_Ángeles_x5F_-_x5F_Tómbola_x5F_-_x5F_San_x5F_Nicolás_1_" class="st0" d="M279.8,660.9
		c0.6-0.5,1.2-1,1.9-1.5c-0.5-0.2-1.1-0.4-1.7-0.6c-10.7-3.6-19.7-6.6-22.3-8c-0.5-0.3-1-0.5-1.6-0.8c-2.8-1.3-7-3.3-8.5-9.4
		c-1-4.3-5.2-10.3-7.2-12.3c-0.2-0.2-1.1-0.8-1.7-1.1c-2.7-1.6-8.9-5.2-6-13c2.5-6.5,3.1-9.2,0.7-12.8c-1-1.6-2.7-3.4-4.5-5.4
		c-4.4-5-9-10.1-8.7-15.6c0.3-5.4,4-11,7.3-16c1.8-2.7,3.6-5.4,4.2-7.2c0.9-2.7,1.2-5.8,1.5-8.9c0.3-2.8,0.5-5.7,1.2-8.3
		c0.8-2.9,2.7-5.7,4.6-8.4c1.6-2.4,3.9-5.6,3.7-7.2c-1.3-10.7,3.5-14.2,7.8-15.3c4-1,11.2-1.1,14.5,10.4c1.4,4.7,5.9,12.7,10.3,18.2
		c4,5.1,14.3,15.2,19.3,18.6c9.1,6.2,17.7,10.2,25.4,12c1,0.2,1.9,0.4,2.7,0.6c1.2-2.9,3-7.3,3.9-11c1.8-6.8,4-11.7,10.5-18.2
		c1.6-1.6,5.1-5.2,9.5-9.8c15.8-16.3,30.3-31.2,33.7-33.8c3.3-2.5,7.2-5.1,11.3-4.5c2.3,0.3,4.3,1.6,5.9,3.7l0.4,0.5
		c6,8.1,9.8,13.6,10.8,16.2c0.6,1.7,0.7,3.8,0.7,6.3c0,1.8,0.1,5,0.6,6c2.1,1.8,2.7,1.7,2.7,1.7c0.2,0,1-0.6,2-2.7
		c0.4-0.9,0.8-1.8,1.2-2.6c3.1-6.6,5.5-11.8,13.5-17.6c6.1-4.4,16.3-10.2,23-14.1c2.4-1.4,4.5-2.6,5.8-3.3c0.9-0.6,1.1-1.1,1.2-1.6
		c0.3-1.3-0.4-3.3-1.6-4.9c-1.8-2.6-5.4-7.6-7.4-10.3c-4.3,0.6-7.8,1.1-10.1,1.4c-12.8,2-14.3-5.9-15.1-9.7
		c-0.1-0.5-0.2-0.9-0.3-1.4c-0.4-1.5-1.1-4.2-2-7.2c-1.5-5.3-3.4-11.9-4.4-16.7c-1.6-7.4-7.2-28.7-9.2-35.6c-1.5-5-8.3-13-10.9-15.7
		c-1-1-2.4-2.5-4.3-4.4c-12.5-12.9-45.7-47.3-51.6-52.8c-1-1-2-1.9-2.8-2.7c-1.5-1.4-3.2-3.2-4-3.4c-0.2,0.1-1,0.5-2.6,2.1
		c-1.8,1.9-4.6,4.5-7.8,7.5c-7.6,7.1-19,17.9-21.1,23c-1.3,3.1-5.3,14.3-10,27.3c-9.2,25.6-16.5,45.4-18.4,49.4
		c-1.1,2.3-2.9,5.7-4.8,9.3c-3.3,6.2-8.2,15.7-8.9,18.2l-0.1,0.3c-1.2,4.3-2.7,9.7-9.6,17.5c-7.3,8.3-18.2,25.1-18.2,34.7
		c0,9.7-2,15.4-4.1,21.5c-0.6,1.7-1.2,3.5-1.8,5.4c-0.6,2.1-1.4,4.8-2.2,8c-3,11.3-6.8,25.4-11.9,31.9c-4.4,5.5-5.6,12.2-7,19.9
		c-0.3,1.7-0.6,3.5-1,5.3c-0.5,2.2-0.8,4.4-1.2,6.5c-1.3,7.5-2.6,14.6-6.3,21c-0.7,1.2-1.4,2.3-2.1,3.4c-1,1.6-2.5,3.9-2.7,4.9
		c0.3,0.2,0.9,0.7,2.6,1.2c2.9,0.9,8,2.4,13.8,4.1c13.4,3.9,30,8.7,35.8,11.6c4.4,2.2,9.3,4.1,13.6,5.7c3.2,1.2,5.9,2.3,7.8,3.2
		l0.1,0.1c1.7,0.9,3.7,1.8,5.2,3.3C275.3,664.8,278,662.5,279.8,660.9z"/>
</g>
<g class="zone" id="3_Villafranqueza_-_Santa_Faz_-_Monegre" data-name="3_Villafranqueza_-_Santa_Faz_-_Monegre">
	<path id="_x33__x5F_Villafranqueza_x5F_-_x5F_Santa_x5F_Faz_x5F_-_x5F_Monegre_1_" class="st0" d="M644.3,263.5
		c-5.3-7.8-16.6-17.3-20.5-20.3c-4.9-3.8-13-13.5-16.1-19.2c-2.4-4.6-10.1-12-12.4-12.8c-1.8-0.3-7.3,0.4-13.6,4.7
		c-6.4,4.5-49.3,33.2-60.4,39.4c-11.3,6.3-38.5,27.7-41,31.7c-4.1,8.8-12.3,32.4-10,38.5c3.6,9.6,4.4,17.3,4.6,21.1
		c0,1,0.1,2.3-0.1,3.7c3.4,0.9,8.3,1.8,12.7,1.6c2.5-0.1,4.9-0.7,7.5-1.3c5.8-1.4,12.4-3,21.6,0c9.6,3,14.9,5.8,21.6,9.3
		c2.1,1.1,4.4,2.3,6.9,3.6c5.1,2.6,7.6,4.7,9.6,6.5c2.3,2,3.8,3.4,9.6,4.9c3.6,0.9,6.4,1.6,8.9,2.2c5.7,1.4,9.2,2.2,12.9,4.5
		c1.1,0.7,2,1.3,2.8,1.9c3,2.1,5.1,3.7,12.7,3.7c1.3,0,2.8,0,4.3,0c15.7,0,30.3,0.1,35.7,1.7c4.1,1.3,11.4,7,17.2,12
		c0-0.9,0.1-1.6,0.2-2.2c0.9-4.4,6.1-8.9,14.5-15.9c1.2-1,2.3-1.9,3.4-2.9c0.9-0.7,1.7-1.4,2.4-2c5.3-4.3,7-5.8,7-12.8
		c0-3.2-0.3-6.9-0.5-10.5c-0.6-8.5-1.2-15.9,1.3-20c3.9-6.6,13-9.4,22-11.9c-0.6-0.5-1.2-0.9-1.8-1.3c-2.2-1.5-9.4-7.9-20.8-18.2
		c-8-7.1-18.9-16.9-20.6-18l2.1-3.4l0,0l-2.1,3.4C661.7,282.1,648.9,270.2,644.3,263.5z"/>
</g>
<g class="zone" id="3_Benalúa_-_La_Florida_-_Babel_-_San_Gabriel" data-name="3_Benalúa_-_La_Florida_-_Babel_- _San_Gabriel">
	<path id="_x33__x5F_Benalúa_x5F_-_x5F_La_x5F_Florida_x5F_-_x5F_Babel_x5F_-__x5F_San_x5F_Gabriel_1_" class="st0" d="
		M439.8,648.8c-2.4-9.7-4.6-19-4.7-24.9c0-1.4-0.1-2.8-0.1-4.3c-0.1-2.5-0.2-5.1-0.2-7.6c-9-2.4-33.8-9-39.7-10.5
		c-4.7-1.2-10.7-4.6-16.4-7.8c-3.7-2.1-7.3-4.1-9.7-5.1c-7.1-2.8-15.5-6-24.6-7.6l-4.2-0.7c-7.3-1.3-12.1-2.1-21.7-4.3
		c-8.7-2-18.1-6.4-28.1-13.2c-5.8-3.9-16.6-14.6-21.1-20.3c-4.4-5.5-9.8-14.5-11.7-20.9c-1.6-5.7-3.5-5.2-4.8-4.8
		c-0.8,0.2-2.5,0.6-1.8,6.6c0.5,4.6-2.3,8.7-5.1,12.7c-1.5,2.1-3,4.4-3.5,6c-0.5,2-0.8,4.4-1,7c-0.3,3.5-0.6,7.1-1.8,10.7
		c-0.9,2.8-3,5.8-5.1,9.1c-2.6,3.9-5.8,8.8-6,12c-0.1,2.3,4,6.9,6.7,9.9c2,2.2,3.8,4.3,5.2,6.4c4.8,7.4,2.4,13.8,0.1,20
		c-0.5,1.3-0.6,1.5,2.6,3.3c1.2,0.7,2.5,1.5,3.5,2.6c2.3,2.5,7.6,9.7,9.1,16c0.5,2.2,1.6,2.8,4.1,4c0.7,0.3,1.4,0.6,2.1,1
		c2.1,1.1,14.8,5.4,20.9,7.4c2.3,0.8,4.2,1.4,5.4,1.8c2.8,1,4.4,2.5,4.7,4.7c0.5,3.3-2.2,5.2-4.8,7.1c-0.9,0.7-1.9,1.4-2.8,2.1
		c-3.2,2.8-8.8,7.5-10.7,9.2c-0.6,1.2-1.4,2.4-2.4,3.7c-5.1,6.3-30.1,36.6-36.1,43.9c-5.2,6.3-8.2,11.4-11.7,17.3l-0.9,1.5
		c-0.7,1.2-1.4,2.3-2.1,3.3c-3.1,4.9-3.7,6-1.3,9.4c6.1,8.4,15.1,17.4,21.5,18.6c1.6,0.3,3.1,0.6,4.5,0.9c6,1.3,10.3,2.2,13.7,0.8
		c6.5-2.6,8.3-2.2,13.2,0.9l0.6,0.4c7.8,4.9,12.1,9.4,13.2,13.7c0.2,0.8,0.4,1.8,0.7,3c1,4.6,2.7,12.2,5.4,17
		c3.2,5.5,9.4,9.7,12.5,8.5c1.7-0.7,3.3-1.9,4.9-3.3c2.9-2.4,6.6-5.3,11.7-4.5c5.6,0.9,6.3,0.8,7.2-3.3c1.1-5,8.4-26.5,17-52
		c3.2-9.4,5.9-17.4,6.7-20.1c0.3-1,0.6-1.9,0.9-2.8c2.2-7.3,4.2-13.7,10.1-17.2c3.6-2.2,7.4-2.2,10.1-2.2c1.4,0,3.1,0,3.6-0.4
		c0.4-0.4,0.9-2.5,1.2-3.7c0.8-3.6,1.9-8.5,6.5-10.8c3.9-2,7.4-2.3,10.2-1.1c2.2,1,3.9,2.9,4.7,5.4c0,0.1,4,13.9,2.3,19.6
		c-0.3,1.1-0.5,3.2-0.3,5.5c1.2-8.4,4.4-17.9,8.4-21.6c5.3-4.8,13.4-3.6,17.5-1.7c5.2,2.4,8.6,10.3,8.8,16.2c0.2,3.7,0.6,7.9,1,11.5
		c0.3,2.5,0.5,4.8,0.7,6.8c0.2,3.3,0.3,7.1,0.4,10.8c0,1.7,0.1,3.4,0.1,5c0,0,0,0,0-0.1c0.4-2.7,0.6-10.6,0.8-18.2
		c0.2-8.1,0.4-15.7,0.9-19.5c0.1-1,0.2-2,0.3-2.9c0.7-6.4,1.2-11.1,3.6-14.1c-0.4-2.1-3.1-7.1-5.9-9.9c-3.2-3.2-3.7-8.1-1.3-12
		c1.7-2.7,4.5-4.2,7.5-4.2c-0.5-3.8-1.4-9-2.6-14.7C441.7,656.4,440.7,652.6,439.8,648.8z"/>
</g>
	<g id="_x5F_Texto" class="text">
		<g>
			<g>
				<path class="st1" d="M406.4,417.6l-9.5,2.6l-0.5-1.8l4.5-6.3l-5.8,1.5l-0.6-2.2l9.5-2.6l0.5,1.8l-4.5,6.3l5.8-1.5L406.4,417.6z"
					/>
			</g>
			<g>
				<path class="st1" d="M398.2,423.6c0.1-0.7,0.5-1.3,1-1.8c1-1,2.5-1.4,3.9-1c0.7,0.2,1.3,0.6,1.7,1.1c0.5,0.6,0.9,1.2,1,1.9
					c0.2,0.7,0.2,1.5,0.1,2.2s-0.5,1.3-1,1.8c-1,1-2.5,1.4-3.9,1c-0.7-0.2-1.3-0.6-1.7-1.1C398.3,426.6,397.9,425,398.2,423.6
					L398.2,423.6z M400.9,426.5c1,0.5,2.3,0.1,2.9-0.8c0.3-0.4,0.3-1,0.2-1.5c-0.1-0.5-0.5-0.9-0.9-1.2c-1-0.5-2.3-0.1-2.9,0.8
					c-0.3,0.4-0.3,1-0.2,1.5C400.1,425.8,400.4,426.2,400.9,426.5z"/>
				<path class="st1" d="M408.9,436l-8.1-1.1l-0.6-2.2l6.5-5l0.6,2.2l-4.4,3.4l5.5,0.8L408.9,436z"/>
			</g>
			<g>
				<path class="st1" d="M406.8,445.2l-1.5-5.5c-0.4,0.2-0.7,0.6-0.9,1c-0.2,0.5-0.2,1,0,1.5c0.1,0.3,0.2,0.7,0.4,1
					c0.2,0.3,0.5,0.5,0.8,0.7l-0.9,1.5c-1-0.6-1.8-1.5-2-2.7c-0.2-0.8-0.3-1.5-0.1-2.3c0.1-0.7,0.5-1.3,0.9-1.8
					c0.5-0.5,1.1-0.9,1.8-1c0.7-0.2,1.4-0.2,2.1,0s1.3,0.5,1.7,1c1,1.1,1.4,2.5,1.1,3.9c-0.1,0.7-0.5,1.3-1,1.7
					c-0.5,0.5-1.2,0.9-1.9,1C407.4,445.1,407.2,445.1,406.8,445.2z M407.9,439.6c-0.4-0.3-0.8-0.4-1.3-0.3l1,3.6
					c0.4-0.2,0.8-0.5,0.9-0.9c0.2-0.4,0.2-0.9,0.1-1.3C408.5,440.2,408.2,439.8,407.9,439.6L407.9,439.6z"/>
				<path class="st1" d="M414.3,444.7l0.6,2.1l-10.1,2.7l-0.6-2.1L414.3,444.7z"/>
				<path class="st1" d="M417.3,456.3l-10.1,2.7l-0.5-2l0.8-0.2c-0.8-0.4-1.4-1.1-1.6-2c-0.2-0.6-0.2-1.3,0-2c0.2-0.6,0.5-1.2,1-1.7
					c1.1-1,2.5-1.4,4-1.1c0.6,0.2,1.2,0.5,1.7,1s0.8,1.1,1,1.7c0.3,0.8,0.2,1.7-0.3,2.4l3.5-1L417.3,456.3z M408.7,455.8
					c1,0.5,2.3,0.1,2.9-0.8c0.5-0.9,0.2-2.1-0.7-2.7c-1-0.5-2.3-0.1-2.9,0.8C407.5,454,407.8,455.2,408.7,455.8z"/>
				<path class="st1" d="M415.9,464.7c-0.5,0.8-1.3,1.4-2.2,1.6l-4.2,1.1l-0.5-2l0.9-0.2c-0.9-0.3-1.5-1.1-1.6-2
					c-0.1-0.5-0.2-1-0.1-1.5c0.1-0.4,0.2-0.8,0.5-1.2c0.3-0.3,0.6-0.5,1.1-0.6c0.6-0.2,1.3-0.1,1.8,0.3c0.6,0.6,1.1,1.4,1.2,2.2
					l0.5,1.7c0.4-0.1,0.8-0.3,1-0.7c0.2-0.4,0.2-0.9,0-1.4c-0.1-0.4-0.3-0.8-0.5-1.1c-0.2-0.3-0.5-0.6-0.8-0.8l1.3-1.2
					c0.4,0.4,0.8,0.8,1,1.3c0.3,0.5,0.5,1.1,0.7,1.7C416.3,462.8,416.3,463.8,415.9,464.7z M410.4,464.3c0.2,0.2,0.6,0.4,0.9,0.4
					l0.7-0.2l-0.4-1.5c-0.2-0.9-0.6-1.2-1.2-1.1c-0.3,0.1-0.5,0.2-0.6,0.5s-0.1,0.6,0,0.9C409.9,463.7,410.1,464,410.4,464.3
					L410.4,464.3z"/>
			</g>
		</g>
		<g>
			<g>
				<path class="st1" d="M413.5,614.6c0.2-0.7,0.6-1.3,1.1-1.8c1.1-1,2.7-1.3,4.1-0.8c0.7,0.2,1.3,0.7,1.7,1.2c0.5,0.6,0.8,1.3,1,2
					s0.1,1.5-0.1,2.3c-0.6,2.1-2.8,3.3-5,2.7c-0.8-0.2-1.4-0.7-1.9-1.3C413.4,617.7,413.1,616.1,413.5,614.6L413.5,614.6z
					 M415.5,617.7c0.3,0.3,0.6,0.6,1,0.7c0.9,0.3,1.8,0.1,2.5-0.5c0.3-0.3,0.6-0.6,0.7-1c0.3-0.8,0.1-1.8-0.5-2.5
					c-0.3-0.3-0.6-0.6-1-0.7c-0.9-0.3-1.8-0.1-2.5,0.5c-0.3,0.3-0.6,0.6-0.7,1C414.7,616.1,414.9,617,415.5,617.7z"/>
				<path class="st1" d="M414.8,622.8c0-0.4,0.1-0.8,0.2-1.2l1.3,0.3c-0.1,0.3-0.2,0.7-0.2,1c0,0.4,0,0.8,0.1,1.1
					c0.1,0.7,0.4,1,0.8,1c0.2,0,0.3-0.2,0.3-0.4c0-0.3,0-0.6,0-0.9c0-0.4,0-0.8,0-1.2c0-0.3,0.1-0.6,0.3-0.9c0.2-0.3,0.6-0.5,1-0.6
					s0.7,0,1.1,0.1c0.4,0.2,0.7,0.5,0.9,0.8c0.3,0.4,0.4,0.9,0.5,1.4c0.1,0.4,0.1,0.8,0.1,1.3c0,0.4-0.1,0.7-0.2,1.1l-1.3-0.3
					c0.2-0.6,0.2-1.2,0.1-1.8c0-0.3-0.2-0.6-0.3-0.8c-0.1-0.1-0.3-0.2-0.5-0.2s-0.3,0.2-0.3,0.4c0,0.3,0,0.7,0,1c0,0.4,0,0.8,0,1.2
					c0,0.3-0.1,0.6-0.3,0.9c-0.2,0.3-0.6,0.5-0.9,0.5c-0.4,0.1-0.7,0-1-0.1c-0.4-0.2-0.7-0.5-0.9-0.8c-0.3-0.4-0.4-0.9-0.5-1.4
					C414.8,623.8,414.8,623.3,414.8,622.8z"/>
				<path class="st1" d="M416.3,629.1c0.3-1.1,1.2-1.9,2.3-2.1c1.1-0.3,2.3,0.2,3,1.1c0.4,0.5,0.6,1,0.7,1.6s0.1,1.2-0.1,1.7
					s-0.5,0.9-0.9,1.2l-1-1.2c0.5-0.4,0.7-0.9,0.5-1.5c-0.1-0.4-0.3-0.8-0.7-1c-0.8-0.4-1.8-0.2-2.4,0.5c-0.2,0.4-0.3,0.8-0.2,1.2
					c0.1,0.6,0.5,1,1.1,1.2l-0.5,1.5c-0.5-0.1-1-0.4-1.3-0.8c-0.4-0.4-0.6-1-0.7-1.5C416.2,630.3,416.2,629.7,416.3,629.1z"/>
				<path class="st1" d="M423.4,637.9c-0.4,0.6-1.1,1-1.8,1.1l-3.4,0.7l-0.3-1.6l0.7-0.1c-0.7-0.3-1.1-0.9-1.2-1.6
					c-0.1-0.4-0.1-0.8,0-1.2c0.1-0.3,0.2-0.6,0.5-0.9c0.2-0.2,0.5-0.4,0.9-0.4c0.5-0.1,1,0,1.4,0.4c0.5,0.5,0.8,1.1,0.9,1.8l0.3,1.4
					c0.3,0,0.6-0.2,0.8-0.5c0.2-0.3,0.2-0.7,0.1-1.1c-0.1-0.3-0.2-0.6-0.3-0.9c-0.1-0.3-0.3-0.5-0.6-0.7l1.1-0.9
					c0.3,0.3,0.6,0.7,0.8,1c0.2,0.4,0.4,0.9,0.5,1.3C423.8,636.4,423.7,637.2,423.4,637.9z M419,637.3c0.2,0.2,0.4,0.3,0.7,0.4
					l0.6-0.1l-0.2-1.2c-0.1-0.7-0.4-1-0.9-0.9c-0.2,0-0.4,0.2-0.5,0.4s-0.1,0.5,0,0.7C418.7,636.8,418.8,637.1,419,637.3L419,637.3z
					"/>
				<path class="st1" d="M424.8,642.6c0.2,0.4,0.4,0.7,0.5,1.2l-1.6,0.3c0-0.2,0-0.3-0.1-0.4c-0.1-0.4-0.3-0.8-0.6-1.1
					c-0.4-0.2-0.9-0.3-1.3-0.2l-2.8,0.6l-0.3-1.7l5.9-1.2l0.3,1.6l-0.8,0.2C424.3,642,424.6,642.3,424.8,642.6z"/>
			</g>
			<g>
				<path class="st1" d="M422.7,654.9l-1.4,0.3l-1.2-5.9l7.7-1.6l1.2,5.8l-1.4,0.3l-0.8-4l-1.7,0.3l0.7,3.6l-1.4,0.3l-0.7-3.6
					l-1.8,0.3L422.7,654.9z"/>
			</g>
			<g>
				<path class="st1" d="M421.8,657c0-0.4,0.1-0.8,0.2-1.2l1.3,0.3c-0.1,0.3-0.2,0.7-0.2,1c0,0.4,0,0.8,0.1,1.1c0.1,0.7,0.4,1,0.8,1
					c0.2,0,0.3-0.2,0.3-0.4c0-0.3,0-0.6,0-0.9c0-0.4,0-0.8,0-1.2c0-0.3,0.1-0.6,0.3-0.9c0.2-0.3,0.6-0.5,1-0.6s0.7,0,1.1,0.1
					c0.4,0.2,0.7,0.5,0.9,0.8c0.3,0.4,0.4,0.9,0.5,1.4c0.1,0.4,0.1,0.8,0.1,1.3c0,0.4-0.1,0.7-0.2,1.1l-1.3-0.3
					c0.2-0.6,0.2-1.2,0.1-1.8c0-0.3-0.2-0.6-0.3-0.8c-0.1-0.1-0.3-0.2-0.5-0.2s-0.3,0.2-0.3,0.4c0,0.3,0,0.7,0,1c0,0.4,0,0.8,0,1.2
					c0,0.3-0.1,0.6-0.3,0.9c-0.2,0.3-0.6,0.5-0.9,0.5c-0.4,0.1-0.7,0-1-0.1c-0.4-0.2-0.7-0.5-0.9-0.8c-0.3-0.4-0.4-0.9-0.5-1.4
					C421.8,657.9,421.7,657.4,421.8,657z"/>
				<path class="st1" d="M429.4,666.1c-0.2,0.5-0.5,0.9-0.8,1.3c-0.9,0.7-2.1,1-3.2,0.6c-0.5-0.2-0.9-0.4-1.3-0.8
					c-0.3-0.4-0.6-0.9-0.7-1.4c-0.2-0.7,0-1.4,0.4-1.9l-2.8,0.6l-0.3-1.7l8-1.6l0.3,1.6l-0.7,0.1c0.6,0.4,1,1,1.1,1.7
					C429.6,665,429.5,665.6,429.4,666.1z M425.4,666.2c0.8,0.4,1.8,0.2,2.4-0.5c0.5-0.7,0.3-1.7-0.4-2.2c-0.8-0.4-1.8-0.2-2.4,0.5
					C424.5,664.7,424.7,665.7,425.4,666.2z"/>
				<path class="st1" d="M432.4,668.2l0.3,1.7l-8.1,1.7l-0.3-1.7L432.4,668.2z"/>
				<path class="st1" d="M431.2,676.5c-0.4,0.6-1.1,1-1.8,1.1l-3.4,0.7l-0.3-1.6l0.7-0.1c-0.7-0.3-1.1-0.9-1.2-1.6
					c-0.1-0.4-0.1-0.8,0-1.2c0.1-0.3,0.2-0.6,0.5-0.9c0.2-0.2,0.5-0.4,0.9-0.4c0.5-0.1,1,0,1.4,0.4c0.5,0.5,0.8,1.1,0.9,1.8l0.3,1.4
					c0.3,0,0.6-0.2,0.8-0.5c0.2-0.3,0.2-0.7,0.1-1.1c-0.1-0.3-0.2-0.6-0.3-0.9c-0.1-0.3-0.3-0.5-0.6-0.7l1.1-0.9
					c0.3,0.3,0.6,0.7,0.8,1c0.2,0.4,0.4,0.9,0.5,1.3C431.6,675,431.5,675.8,431.2,676.5z M426.8,675.9c0.2,0.2,0.4,0.3,0.7,0.4
					l0.6-0.1l-0.2-1.2c-0.1-0.7-0.4-1-0.9-0.9c-0.2,0-0.4,0.2-0.5,0.4s-0.1,0.5,0,0.7C426.5,675.4,426.7,675.7,426.8,675.9
					L426.8,675.9z M433.2,671.7l0.4,1.8l-1.3,1.8L432,674L433.2,671.7z"/>
			</g>
		</g>
		<g>
			<g>
				<path class="st1" d="M322,499.1c0.6-0.2,1.3-0.3,1.9-0.1c1.3,0.4,2.3,1.4,2.6,2.8c0.1,0.6,0,1.3-0.2,1.9
					c-0.3,0.7-0.8,1.3-1.4,1.9l-1.5,1.4l1.8,2l-1.7,1.6l-6.7-7.2l3.1-2.9C320.6,499.8,321.3,499.4,322,499.1z M324.4,502.9
					c0.1-0.5-0.1-1-0.5-1.3c-0.3-0.4-0.8-0.6-1.3-0.6c-0.6,0.1-1.1,0.3-1.4,0.7l-1.4,1.3l2.3,2.5l1.4-1.3
					C324,503.9,324.3,503.5,324.4,502.9L324.4,502.9z"/>
				<path class="st1" d="M324,495.9l1.6-1.5l7.1,7.6l-1.6,1.5L324,495.9z"/>
				<path class="st1" d="M333.7,491.7c0.9,0,1.8,0.5,2.4,1.2l2.9,3.2l-1.5,1.4l-0.6-0.7c0.1,0.9-0.2,1.8-1,2.3
					c-0.4,0.4-0.8,0.6-1.3,0.8c-0.4,0.1-0.8,0.2-1.3,0.1c-0.4-0.1-0.8-0.3-1.1-0.6c-0.5-0.5-0.7-1.1-0.5-1.8
					c0.2-0.8,0.7-1.6,1.4-2.1l1.3-1.2c-0.3-0.3-0.7-0.5-1.1-0.5c-0.5,0-0.9,0.3-1.2,0.6c-0.3,0.3-0.5,0.6-0.7,0.9
					c-0.2,0.3-0.3,0.7-0.4,1.1l-1.6-0.6c0.1-0.5,0.3-1,0.6-1.5c0.3-0.5,0.7-1,1.1-1.4C331.9,492.3,332.8,491.8,333.7,491.7z
					 M335.9,496.8c0.1-0.3,0.1-0.7-0.1-1l-0.5-0.6l-1.1,1c-0.7,0.6-0.8,1.1-0.4,1.6c0.2,0.2,0.4,0.3,0.7,0.3
					c0.3-0.1,0.6-0.2,0.8-0.4C335.6,497.5,335.8,497.2,335.9,496.8z"/>
				<path class="st1" d="M344,489.3l1.1,1.2l-4.9,4.6l-0.9-1l-0.3-6l-2.8,2.6l-1.1-1.2l4.8-4.4l0.9,1l0.3,6L344,489.3z"/>
				<path class="st1" d="M345.7,480.6c0.9,0,1.8,0.5,2.4,1.2l2.9,3.2l-1.5,1.4l-0.6-0.7c0.1,0.9-0.2,1.8-1,2.3
					c-0.4,0.4-0.8,0.6-1.3,0.8c-0.4,0.1-0.8,0.2-1.3,0.1c-0.4-0.1-0.8-0.3-1.1-0.6c-0.5-0.5-0.7-1.1-0.5-1.8
					c0.2-0.8,0.7-1.6,1.4-2.1l1.3-1.2c-0.3-0.3-0.7-0.5-1.1-0.5c-0.5,0-0.9,0.3-1.2,0.6c-0.3,0.3-0.5,0.6-0.7,0.9s-0.3,0.7-0.4,1.1
					l-1.6-0.6c0.1-0.5,0.3-1,0.6-1.5c0.3-0.5,0.7-1,1.1-1.4C343.8,481.2,344.7,480.7,345.7,480.6z M347.9,485.7
					c0.1-0.3,0.1-0.7-0.1-1l-0.5-0.6l-1.1,1c-0.7,0.6-0.8,1.1-0.4,1.6c0.2,0.2,0.4,0.3,0.7,0.3c0.3-0.1,0.6-0.2,0.8-0.4
					C347.6,486.4,347.8,486.1,347.9,485.7z"/>
			</g>
			<g>
				<g>
					<path class="st1" d="M324.1,532.8c-0.6,0.2-1.1,0.2-1.7,0.2l-0.1-2c0.7,0.2,1.5,0,2.1-0.5c0.7-0.6,0.6-1.3-0.1-2.1l-3.2-3.4
						l-2.5,2.4l-1.2-1.3l4.2-3.9l4.3,4.7c0.7,0.7,1.2,1.6,1.2,2.6c-0.1,1-0.6,1.9-1.3,2.5C325.3,532.2,324.7,532.6,324.1,532.8z"/>
					<path class="st1" d="M330.6,526.6c-0.7,0.2-1.4,0.2-2,0c-1.4-0.4-2.4-1.5-2.7-2.9c-0.1-0.7-0.1-1.4,0.1-2
						c0.3-0.7,0.7-1.3,1.2-1.8s1.2-0.9,1.9-1.1c0.7-0.2,1.4-0.2,2,0c1.4,0.4,2.4,1.5,2.7,2.9c0.1,0.7,0.1,1.4-0.1,2
						C333.2,525,332,526.1,330.6,526.6L330.6,526.6z M331.9,522.8c-0.1-1.1-0.9-2.1-2.1-2.2c-0.5,0-1,0.2-1.4,0.5s-0.6,0.8-0.6,1.4
						c0.1,1.1,0.9,2.1,2.1,2.2c0.5,0,1-0.2,1.4-0.5C331.6,523.8,331.9,523.3,331.9,522.8z"/>
					<path class="st1" d="M336.9,521c-0.4,0.3-0.9,0.4-1.4,0.5l-0.5-1.7c0.4-0.1,0.9-0.2,1.3-0.4c0.4-0.2,0.8-0.5,1.2-0.8
						c0.7-0.6,0.9-1.1,0.6-1.5c-0.2-0.2-0.4-0.2-0.6-0.1c-0.4,0.2-0.7,0.4-1,0.6c-0.4,0.3-0.9,0.6-1.3,0.8s-0.8,0.3-1.2,0.2
						c-0.5-0.1-0.9-0.3-1.2-0.7c-0.3-0.3-0.5-0.8-0.6-1.2c0-0.5,0.1-1,0.3-1.5c0.3-0.6,0.7-1.1,1.2-1.5c0.4-0.4,0.8-0.7,1.3-1
						c0.4-0.2,0.8-0.4,1.3-0.5l0.5,1.6c-0.7,0.2-1.4,0.5-2,1.1c-0.3,0.2-0.5,0.5-0.6,0.9c-0.1,0.2-0.1,0.4,0.1,0.6
						c0.2,0.2,0.4,0.2,0.6,0.1c0.4-0.2,0.7-0.4,1.1-0.6c0.4-0.3,0.9-0.6,1.3-0.8c0.4-0.2,0.8-0.3,1.2-0.2c0.5,0.1,0.9,0.3,1.2,0.7
						c0.3,0.3,0.5,0.8,0.5,1.2c0,0.5-0.1,1-0.3,1.5c-0.3,0.6-0.7,1.1-1.2,1.5C338,520.3,337.5,520.7,336.9,521z"/>
					<path class="st1" d="M337.7,506l1.7-1.6l-0.5,3.2l-1.3,1.2L337.7,506z M345.2,509.1L341,513c0.4,0.3,0.8,0.4,1.3,0.3
						c0.5-0.1,1-0.3,1.3-0.7c0.3-0.2,0.5-0.5,0.6-0.8s0.2-0.6,0.2-1l1.7,0.1c0,1.2-0.5,2.3-1.5,3c-0.6,0.5-1.2,0.9-2,1.2
						c-0.7,0.2-1.4,0.2-2.1,0s-1.3-0.6-1.8-1.1s-0.8-1.1-1-1.8c-0.1-0.7-0.1-1.4,0.1-2c0.5-1.4,1.6-2.4,3-2.8c0.6-0.2,1.3-0.2,2,0
						s1.3,0.6,1.8,1.2C344.9,508.7,345,508.9,345.2,509.1L345.2,509.1z M339.8,510.9c-0.1,0.4,0.1,0.9,0.3,1.3l2.7-2.5
						c-0.3-0.3-0.8-0.4-1.2-0.4c-0.5,0-0.9,0.2-1.2,0.5C340.1,510,339.9,510.4,339.8,510.9L339.8,510.9z"/>
					<path class="st1" d="M356.1,503.3l-3.3-0.7l-0.1,0.1l-1.5,1.4l1.9,2l-1.7,1.6l-6.7-7.2l3.1-2.9c0.6-0.5,1.2-1,2-1.2
						c0.6-0.2,1.3-0.3,1.9-0.1c0.6,0.2,1.2,0.5,1.7,1c1,1,1.2,2.4,0.6,3.7l3.8,0.8L356.1,503.3z M350.5,498.2
						c-0.6,0.1-1.1,0.3-1.4,0.7l-1.4,1.3l2.3,2.5l1.4-1.3c0.4-0.4,0.7-0.8,0.8-1.4C352.3,499.1,351.6,498.3,350.5,498.2
						C350.6,498.2,350.5,498.2,350.5,498.2L350.5,498.2z"/>
					<path class="st1" d="M352.9,494c-0.7,0-1.2-0.5-1.2-1.2v-0.1c0-0.4,0.2-0.7,0.5-0.9c0.3-0.3,0.6-0.4,1-0.4
						c0.3,0,0.6,0.1,0.9,0.4c0.2,0.2,0.4,0.6,0.3,0.9C354.3,493.4,353.7,494,352.9,494L352.9,494z M353.8,495.1l1.6-1.5l5.2,5.5
						l-1.6,1.5L353.8,495.1z"/>
				</g>
				<g>
					<path class="st1" d="M362.9,496.5c-0.7,0.2-1.4,0.2-2,0c-2-0.6-3.2-2.7-2.7-4.7c0-0.1,0.1-0.2,0.1-0.3c0.3-0.7,0.7-1.3,1.3-1.8
						c0.5-0.5,1.2-0.9,1.9-1.1c0.6-0.2,1.3-0.1,1.9,0.2l-0.6,1.8c-0.7-0.3-1.4-0.1-2,0.4c-0.4,0.3-0.6,0.8-0.7,1.4
						c0.1,1.2,0.9,2.1,2.1,2.2c0.5,0,1-0.2,1.4-0.6c0.5-0.5,0.8-1.2,0.5-1.9l1.9-0.5c0.2,0.6,0.2,1.3,0,1.9
						c-0.2,0.7-0.6,1.3-1.2,1.8C364.3,495.9,363.6,496.3,362.9,496.5z"/>
				</g>
				<g>
					<path class="st1" d="M368.9,490.9c-0.7,0.2-1.4,0.2-2,0c-1.4-0.4-2.4-1.5-2.7-2.9c-0.1-0.7-0.1-1.4,0.1-2
						c0.5-1.4,1.7-2.5,3.1-2.9c0.7-0.2,1.4-0.2,2,0c1.4,0.4,2.4,1.5,2.7,2.9c0.1,0.7,0.1,1.4-0.1,2
						C371.5,489.4,370.3,490.5,368.9,490.9L368.9,490.9z M370.2,487.2c-0.1-1.1-0.9-2.1-2.1-2.2c-0.5,0-1,0.2-1.4,0.5
						s-0.6,0.8-0.6,1.4c0.1,1.1,0.9,2.1,2.1,2.2c0.5,0,1-0.2,1.4-0.5C370,488.2,370.2,487.7,370.2,487.2L370.2,487.2z"/>
				</g>
			</g>
		</g>
		<g>
			<path class="st1" d="M259.1,604.3l1.4,1.8l-6.2,5.1l3.1,3.8l-1.4,1.2l-4.6-5.6L259.1,604.3z"/>
			<path class="st1" d="M263.7,611.3c0-0.7,0.6-1.1,1.2-1.1l0.1,0c0.4,0.1,0.7,0.2,0.9,0.6c0.3,0.3,0.4,0.6,0.3,1
				c-0.1,0.3-0.1,0.6-0.5,0.8c-0.3,0.3-0.6,0.3-1,0.2C264.3,612.7,263.8,612.1,263.7,611.3L263.7,611.3z M262.5,612.1l1.4,1.7
				l-5.9,4.7l-1.4-1.7L262.5,612.1z"/>
			<path class="st1" d="M269,620.6c0.1,0.6,0.1,1.3-0.2,1.9c-0.5,1.3-1.7,2.3-3.2,2.6c-0.6,0.1-1.3,0.1-1.9-0.1
				c-0.7-0.2-1.2-0.6-1.6-1.2c-0.6-0.6-0.9-1.6-0.8-2.5l-0.7,0.6l-1.3-1.7l8.1-6.5l1.4,1.7l-2.9,2.3c0.9,0.1,1.6,0.5,2.1,1.2
				C268.5,619.3,268.8,620,269,620.6z M264.6,623.1c1.1,0,2.2-0.8,2.4-1.9c0.1-1.1-0.6-2-1.7-2.2c-1.1,0-2.2,0.8-2.4,1.9
				S263.5,623,264.6,623.1z"/>
			<path class="st1" d="M272.5,631.4L269,627c-0.3,0.4-0.5,0.8-0.4,1.2c0,0.5,0.2,1,0.6,1.3c0.3,0.3,0.5,0.5,0.8,0.7
				c0.3,0.2,0.7,0.3,1,0.3l-0.2,1.7c-1.2-0.1-2.2-0.7-2.9-1.7c-0.5-0.6-0.9-1.3-1-2.1c-0.2-0.6-0.1-1.4,0.1-2
				c0.2-0.7,0.6-1.2,1.2-1.7c0.6-0.4,1.1-0.7,1.9-0.9c0.6-0.1,1.3-0.1,2,0.3c1.3,0.5,2.3,1.7,2.6,3.1c0.1,0.6,0.1,1.3-0.2,2
				c-0.2,0.7-0.7,1.3-1.3,1.7C273,631.1,272.8,631.3,272.5,631.4z M271.2,626c-0.5-0.1-0.9,0-1.3,0.3l2.3,2.9
				c0.3-0.4,0.4-0.7,0.5-1.2c0-0.4-0.1-0.8-0.5-1.2C272,626.3,271.7,626.1,271.2,626L271.2,626z"/>
			<path class="st1" d="M278.7,632.5c0.5,0.3,0.9,0.6,1.2,1l-1.6,1.2c-0.2-0.2-0.2-0.3-0.3-0.4c-0.3-0.5-0.8-0.8-1.4-0.9
				c-0.6,0-1.2,0.2-1.5,0.6l-2.8,2.2l-1.4-1.7l5.9-4.7l1.3,1.7l-0.7,0.7C277.9,632.1,278.4,632.2,278.7,632.5z"/>
		</g>
		<g>
			<g>
				<path class="st1" d="M686.1,403.6c-0.6,0.2-1.2,0.2-1.7,0.1v-2c0.7,0.2,1.5,0.1,2.1-0.4c0.7-0.6,0.7-1.3,0-2.1l-3.1-3.5
					l-2.6,2.3l-1.2-1.4l4.3-3.8l4.2,4.8c0.7,0.7,1.1,1.7,1.1,2.6c-0.1,1-0.6,1.8-1.4,2.4C687.2,403.1,686.7,403.4,686.1,403.6z"/>
				<path class="st1" d="M692.6,388.1l5,5.7l-1.6,1.4l-0.6-0.7c0,0.4-0.1,0.9-0.3,1.3s-0.5,0.8-0.8,1.1c-0.6,0.6-1.5,0.9-2.3,0.9
					c-0.9-0.1-1.8-0.6-2.3-1.4l-2.8-3.2l1.7-1.4l2.6,3c0.8,0.9,1.6,1,2.4,0.4c0.4-0.3,0.6-0.7,0.6-1.2c0-0.6-0.2-1.1-0.6-1.5
					l-2.5-2.8L692.6,388.1z"/>
			</g>
			<g>
				<path class="st1" d="M699.9,382.8c0.9,0.1,1.7,0.6,2.3,1.3l2.8,3.3l-1.7,1.4l-2.6-3c-0.3-0.4-0.7-0.7-1.2-0.8
					c-0.4,0-0.8,0.1-1.2,0.4s-0.6,0.8-0.7,1.3c0,0.6,0.2,1.1,0.6,1.5l2.5,2.8l-1.7,1.4l-5-5.7l1.6-1.4l0.6,0.7
					c0-0.4,0.1-0.9,0.3-1.3s0.5-0.8,0.9-1.1C698.2,383.1,699,382.8,699.9,382.8z"/>
			</g>
			<g>
				<path class="st1" d="M707.4,384.8c-0.7,0.2-1.4,0.1-2-0.1c-2-0.6-3.1-2.8-2.5-4.8c0-0.1,0.1-0.2,0.1-0.3
					c0.3-0.7,0.7-1.3,1.3-1.8c0.5-0.5,1.2-0.8,1.9-1c0.6-0.1,1.3-0.1,1.9,0.2l-0.7,1.8c-0.7-0.3-1.4-0.2-2,0.3
					c-0.4,0.3-0.7,0.8-0.7,1.4c0,1.2,0.9,2.1,2,2.3c0.5,0,1.1-0.1,1.4-0.5c0.6-0.5,0.8-1.2,0.6-1.9l1.9-0.4c0.2,0.6,0.2,1.3-0.1,1.9
					c-0.3,0.7-0.7,1.3-1.2,1.8C708.8,384.3,708.1,384.6,707.4,384.8z"/>
				<path class="st1" d="M712.7,371.7c0.9,0.1,1.8,0.5,2.4,1.3l2.8,3.3l-1.6,1.3l-0.6-0.7c0.1,0.9-0.3,1.8-1.1,2.3
					c-0.4,0.3-0.8,0.6-1.3,0.8c-0.4,0.1-0.9,0.1-1.3,0c-0.4-0.1-0.8-0.4-1-0.7c-0.4-0.5-0.6-1.1-0.5-1.8c0.3-0.8,0.8-1.5,1.5-2.1
					l1.3-1.1c-0.3-0.3-0.6-0.5-1.1-0.5s-0.9,0.2-1.2,0.6c-0.3,0.3-0.6,0.6-0.8,0.9s-0.3,0.7-0.4,1l-1.6-0.6c0.1-0.5,0.4-1,0.7-1.5
					s0.7-1,1.2-1.3C710.8,372.1,711.7,371.7,712.7,371.7z M714.7,376.9c0.1-0.3,0.1-0.7,0-1l-0.5-0.6l-1.1,1
					c-0.7,0.6-0.8,1.1-0.4,1.6c0.2,0.2,0.4,0.3,0.7,0.3s0.6-0.2,0.8-0.4C714.4,377.5,714.6,377.2,714.7,376.9z"/>
			</g>
			<g>
				<path class="st1" d="M716.9,367.3c0.2-0.5,0.6-0.9,1-1.2l1.3,1.5c-0.2,0.1-0.3,0.2-0.4,0.3c-0.4,0.3-0.7,0.8-0.8,1.4
					c0,0.6,0.2,1.1,0.6,1.5l2.3,2.7l-1.7,1.4l-5-5.7l1.6-1.4l0.7,0.8C716.6,368.2,716.7,367.7,716.9,367.3z"/>
			</g>
			<g>
				<path class="st1" d="M727.4,363.8l-4.3,3.8c0.4,0.3,0.8,0.4,1.3,0.4c0.5-0.1,1-0.3,1.4-0.6c0.3-0.2,0.5-0.5,0.7-0.8
					s0.3-0.6,0.3-1l1.7,0.2c0,1.2-0.6,2.3-1.6,3c-0.6,0.5-1.3,0.9-2,1.1s-1.4,0.2-2.1-0.1c-0.7-0.2-1.3-0.6-1.7-1.2
					c-0.5-0.5-0.8-1.2-0.9-1.9c-0.1-0.7-0.1-1.4,0.2-2c0.3-0.7,0.7-1.3,1.2-1.7c0.5-0.5,1.2-0.8,1.8-1c0.7-0.2,1.3-0.1,2,0.1
					s1.3,0.7,1.7,1.2C727,363.4,727.1,363.5,727.4,363.8z M721.9,365.4c-0.1,0.4,0,0.9,0.3,1.3l2.8-2.4c-0.3-0.3-0.8-0.5-1.2-0.5
					c-0.5,0-0.9,0.2-1.2,0.5C722.2,364.5,722,364.9,721.9,365.4L721.9,365.4z"/>
				<path class="st1" d="M734,361.8c-0.1,0.3-0.2,0.6-0.4,0.8c-0.2,0.3-0.4,0.5-0.7,0.7c-0.5,0.5-1.3,0.8-2,0.8
					c-0.7-0.1-1.4-0.4-1.9-1l-2-2.3l-0.9,0.8l-1.1-1.3l0.9-0.8l-1.2-1.4l1.7-1.4l1.2,1.4l1.4-1.2l1.1,1.3l-1.4,1.2l2,2.3
					c0.2,0.2,0.4,0.4,0.7,0.4s0.5-0.1,0.7-0.3c0.2-0.2,0.4-0.5,0.5-0.8L734,361.8z"/>
			</g>
		</g>
		<g>
			<g>
				<path class="st1" d="M741.7,447.1h-4.6l-0.9,2.1h-2.3l4.4-9.8h2.3l4.4,9.8h-2.4L741.7,447.1z M741,445.4l-1.6-3.8l-1.6,3.8H741z
					"/>
				<path class="st1" d="M745.9,438.8h2.2v10.4h-2.2V438.8z"/>
				<path class="st1" d="M750.2,440.3c-0.5-0.4-0.5-1.2-0.1-1.7c0,0,0,0,0.1-0.1c0.3-0.2,0.6-0.4,1-0.4s0.7,0.1,1,0.3
					c0.2,0.2,0.4,0.5,0.4,0.8s-0.1,0.7-0.4,0.9c-0.3,0.2-0.6,0.4-1,0.4C750.8,440.6,750.5,440.5,750.2,440.3z M750.1,441.7h2.2v7.6
					h-2.2V441.7z"/>
				<path class="st1" d="M755.8,448.9c-0.6-0.3-1.1-0.8-1.5-1.4c-0.7-1.2-0.7-2.8,0-4c0.4-0.6,0.9-1.1,1.5-1.4
					c0.7-0.3,1.4-0.5,2.2-0.5c0.7,0,1.4,0.2,2.1,0.5c0.6,0.3,1,0.8,1.3,1.4l-1.7,0.9c-0.3-0.6-1-1.1-1.7-1c-0.5,0-1,0.2-1.4,0.6
					c-0.8,0.9-0.8,2.2,0,3.1c0.4,0.4,0.9,0.6,1.4,0.6c0.7,0,1.4-0.4,1.7-1l1.7,0.9c-0.3,0.6-0.7,1.1-1.3,1.4s-1.4,0.5-2.1,0.5
					C757.2,449.4,756.5,449.2,755.8,448.9z"/>
				<path class="st1" d="M768.4,442.4c0.7,0.7,1,1.6,0.9,2.5v4.3h-2.1v-0.9c-0.5,0.8-1.4,1.2-2.3,1.1c-0.5,0-1-0.1-1.5-0.3
					c-0.4-0.2-0.7-0.5-1-0.8c-0.2-0.4-0.3-0.8-0.3-1.2c0-0.7,0.3-1.3,0.8-1.7c0.7-0.5,1.6-0.7,2.5-0.6h1.7c0-0.4-0.1-0.8-0.4-1.1
					c-0.4-0.3-0.8-0.4-1.3-0.4c-0.4,0-0.8,0.1-1.2,0.2s-0.7,0.3-1,0.5l-0.8-1.5c0.5-0.3,1-0.5,1.5-0.7c0.6-0.2,1.2-0.2,1.8-0.2
					C766.7,441.5,767.6,441.8,768.4,442.4z M766.5,447.6c0.3-0.2,0.5-0.4,0.6-0.8V446h-1.5c-0.9,0-1.3,0.3-1.3,0.9
					c0,0.3,0.1,0.5,0.3,0.7c0.3,0.2,0.6,0.3,0.9,0.2C765.9,447.9,766.2,447.8,766.5,447.6L766.5,447.6z"/>
				<path class="st1" d="M778.2,442.4c0.6,0.7,0.9,1.6,0.9,2.5v4.3h-2.2v-4c0-0.5-0.1-1-0.4-1.3c-0.3-0.3-0.7-0.5-1.1-0.4
					c-0.5,0-1,0.2-1.3,0.5c-0.4,0.4-0.5,1-0.5,1.5v3.7h-2.2v-7.6h2.1v0.9c0.3-0.3,0.7-0.6,1.1-0.7c0.5-0.2,0.9-0.3,1.4-0.3
					C776.8,441.5,777.6,441.8,778.2,442.4z"/>
			</g>
			<g>
				<path class="st1" d="M785.9,448.9c-0.2,0.2-0.5,0.3-0.8,0.4s-0.7,0.1-1,0.1c-0.8,0-1.5-0.2-2.1-0.7c-0.5-0.5-0.8-1.3-0.7-2v-3.1
					h-1.2v-1.7h1.2v-1.8h2.2v1.8h1.9v1.7h-1.9v3.1c0,0.3,0.1,0.5,0.2,0.7c0.2,0.2,0.4,0.3,0.7,0.3s0.6-0.1,0.9-0.3L785.9,448.9z"/>
			</g>
			<g>
				<path class="st1" d="M794.3,446.1h-5.7c0.1,0.5,0.4,0.8,0.7,1.1c0.4,0.3,0.9,0.4,1.4,0.4c0.4,0,0.7-0.1,1-0.2s0.6-0.3,0.9-0.6
					l1.2,1.3c-0.8,0.9-2,1.3-3.1,1.2c-0.8,0-1.6-0.2-2.3-0.5c-0.6-0.3-1.2-0.8-1.5-1.4c-0.4-0.6-0.5-1.3-0.5-2s0.2-1.4,0.5-2
					s0.8-1.1,1.4-1.4c1.3-0.7,2.8-0.7,4.1,0c0.6,0.3,1.1,0.8,1.4,1.4c0.4,0.6,0.5,1.3,0.5,2.1C794.3,445.5,794.3,445.7,794.3,446.1z
					 M789.2,443.6c-0.3,0.3-0.6,0.7-0.6,1.2h3.7c-0.1-0.4-0.3-0.9-0.6-1.1c-0.3-0.3-0.8-0.4-1.2-0.4
					C790,443.2,789.5,443.4,789.2,443.6L789.2,443.6z"/>
				<path class="st1" d="M806.6,444.2h2.1v4c-0.6,0.4-1.2,0.7-1.9,0.9c-0.7,0.2-1.4,0.3-2.1,0.3c-1,0-1.9-0.2-2.8-0.7
					c-0.8-0.4-1.5-1-1.9-1.8c-0.9-1.6-0.9-3.6,0-5.2c0.5-0.8,1.1-1.4,1.9-1.8c0.9-0.4,1.8-0.7,2.8-0.7c0.8,0,1.6,0.1,2.3,0.4
					s1.3,0.7,1.8,1.3l-1.5,1.4c-0.7-0.7-1.6-1.1-2.5-1.1c-0.6,0-1.2,0.1-1.7,0.4s-0.9,0.6-1.1,1.1c-0.5,1-0.5,2.3,0,3.3
					c0.3,0.5,0.7,0.9,1.1,1.1c0.5,0.3,1.1,0.4,1.7,0.4c0.6,0,1.2-0.1,1.8-0.4L806.6,444.2z"/>
				<path class="st1" d="M812.1,448.9c-0.6-0.3-1.1-0.8-1.5-1.4c-0.7-1.2-0.7-2.8,0-4c0.4-0.6,0.9-1.1,1.5-1.4
					c1.3-0.7,2.9-0.7,4.3,0c0.6,0.3,1.1,0.8,1.5,1.4c0.7,1.2,0.7,2.8,0,4c-0.4,0.6-0.9,1.1-1.5,1.4
					C815,449.5,813.4,449.5,812.1,448.9z M815.6,447c0.7-0.9,0.7-2.2,0-3.1c-0.4-0.4-0.9-0.6-1.4-0.6s-1,0.2-1.4,0.6
					c-0.7,0.9-0.7,2.2,0,3.1c0.4,0.4,0.9,0.6,1.4,0.6C814.7,447.6,815.2,447.4,815.6,447L815.6,447z"/>
				<path class="st1" d="M819.8,438.8h2.2v10.4h-2.2V438.8z"/>
				<path class="st1" d="M826.5,441.8h1.9v1.7h-1.9v5.7h-2.2v-5.7h-1.2v-1.7h1.2v-0.3c0-0.8,0.2-1.5,0.8-2.1
					c0.6-0.5,1.4-0.8,2.2-0.8c0.3,0,0.6,0,0.9,0.1c0.3,0.1,0.5,0.2,0.7,0.3l-0.6,1.6c-0.3-0.2-0.6-0.3-0.9-0.3c-0.7,0-1,0.4-1,1.1
					L826.5,441.8z"/>
			</g>
		</g>
		<g>
			<g>
				<path class="st1" d="M465.7,599.2c0.6,0.3,1.1,0.7,1.5,1.2c0.7,1.2,0.7,2.6,0,3.8c-0.4,0.6-0.9,1-1.5,1.2
					c-0.7,0.3-1.5,0.4-2.3,0.4h-2v2.7h-2.3v-9.8h4.3C464.2,598.8,465,598.9,465.7,599.2z M464.9,603.6c0.4-0.3,0.6-0.8,0.5-1.3
					c0-0.5-0.2-1-0.5-1.3c-0.5-0.3-1-0.5-1.6-0.4h-1.9v3.4h1.9C463.9,604.1,464.4,604,464.9,603.6L464.9,603.6z"/>
				<path class="st1" d="M477,601.1v7.6h-2.1v-0.9c-0.3,0.3-0.6,0.6-1,0.8c-0.4,0.2-0.9,0.3-1.3,0.3c-0.9,0-1.7-0.3-2.4-0.9
					c-0.6-0.7-0.9-1.6-0.9-2.5v-4.3h2.2v4c0,1.2,0.5,1.8,1.5,1.8c0.5,0,0.9-0.2,1.3-0.5c0.3-0.4,0.5-1,0.5-1.5v-3.7h2.2L477,601.1
					L477,601.1z"/>
				<path class="st1" d="M486.4,605.5h-5.7c0.1,0.5,0.4,0.8,0.7,1.1c0.4,0.3,0.9,0.4,1.4,0.4c0.4,0,0.7-0.1,1-0.2s0.6-0.3,0.9-0.6
					l1.2,1.3c-0.8,0.9-2,1.3-3.1,1.2c-0.8,0-1.6-0.2-2.3-0.5c-0.6-0.3-1.2-0.8-1.5-1.4c-0.4-0.6-0.5-1.3-0.5-2c0-0.7,0.2-1.4,0.5-2
					s0.8-1.1,1.4-1.4s1.3-0.5,2.1-0.5c0.7,0,1.4,0.2,2,0.5c0.6,0.3,1.1,0.8,1.4,1.4c0.4,0.6,0.5,1.3,0.5,2.1
					C486.4,604.9,486.4,605.1,486.4,605.5z M481.2,603.1c-0.3,0.3-0.6,0.7-0.6,1.2h3.7c-0.1-0.4-0.3-0.9-0.6-1.1
					c-0.3-0.3-0.8-0.4-1.2-0.4C482,602.6,481.6,602.8,481.2,603.1z"/>
			</g>
			<g>
				<path class="st1" d="M491,601.3c0.5-0.2,1-0.3,1.5-0.3v2c-0.2,0-0.4,0-0.5,0c-0.5,0-1.1,0.2-1.5,0.5c-0.4,0.4-0.6,1-0.5,1.6v3.6
					h-2.2v-7.6h2.1v1C490.2,601.7,490.6,601.4,491,601.3z"/>
			</g>
			<g>
				<path class="st1" d="M499,608.3c-0.2,0.2-0.5,0.3-0.8,0.4c-0.3,0.1-0.7,0.1-1,0.1c-0.8,0-1.5-0.2-2.1-0.7
					c-0.5-0.5-0.8-1.3-0.7-2V603h-1.2v-1.7h1.2v-1.8h2.2v1.8h1.9v1.7h-1.9v3.1c0,0.3,0.1,0.5,0.2,0.7c0.2,0.2,0.4,0.3,0.7,0.3
					c0.3,0,0.6-0.1,0.9-0.3L499,608.3z"/>
			</g>
			<g>
				<path class="st1" d="M501.5,608.3c-0.6-0.3-1.1-0.8-1.5-1.4c-0.7-1.2-0.7-2.8,0-4c0.4-0.6,0.9-1.1,1.5-1.4
					c1.3-0.7,2.9-0.7,4.3,0c0.6,0.3,1.1,0.8,1.5,1.4c0.7,1.2,0.7,2.8,0,4c-0.4,0.6-0.9,1.1-1.5,1.4
					C504.4,608.9,502.8,608.9,501.5,608.3z M505,606.4c0.7-0.9,0.7-2.2,0-3.1c-0.4-0.4-0.9-0.6-1.4-0.6s-1,0.2-1.4,0.6
					c-0.7,0.9-0.7,2.2,0,3.1c0.4,0.4,0.9,0.6,1.4,0.6S504.6,606.8,505,606.4L505,606.4z"/>
			</g>
		</g>
		<g>
			<g>
				<g>
					<path class="st1" d="M283,716.3c0.6,0.3,1.1,0.7,1.5,1.2c0.7,1.2,0.7,2.6,0,3.8c-0.4,0.6-0.9,1-1.5,1.2
						c-0.7,0.3-1.5,0.4-2.3,0.4h-2v2.7h-2.3v-9.8h4.3C281.5,715.8,282.3,716,283,716.3z M282.1,720.7c0.4-0.3,0.6-0.8,0.5-1.3
						c0-0.5-0.2-1-0.5-1.3c-0.5-0.3-1-0.5-1.6-0.4h-1.9v3.4h1.9C281.1,721.2,281.7,721,282.1,720.7z"/>
				</g>
				<g>
					<path class="st1" d="M292.1,718.9c0.7,0.7,1,1.6,0.9,2.5v4.3h-2.1v-0.9c-0.5,0.8-1.4,1.2-2.3,1.1c-0.5,0-1-0.1-1.5-0.3
						c-0.4-0.2-0.7-0.5-1-0.8c-0.2-0.4-0.3-0.8-0.3-1.2c0-0.7,0.3-1.3,0.8-1.7c0.7-0.5,1.6-0.7,2.5-0.6h1.7c0-0.4-0.1-0.8-0.4-1.1
						c-0.4-0.3-0.8-0.4-1.3-0.4c-0.4,0-0.8,0.1-1.2,0.2c-0.4,0.1-0.7,0.3-1,0.5l-0.8-1.5c0.5-0.3,1-0.5,1.5-0.7
						c0.6-0.2,1.2-0.2,1.8-0.2C290.4,718,291.4,718.3,292.1,718.9z M290.3,724.1c0.3-0.2,0.5-0.4,0.6-0.8v-0.8h-1.5
						c-0.9,0-1.4,0.3-1.4,0.9c0,0.3,0.1,0.5,0.3,0.7c0.3,0.2,0.6,0.3,0.9,0.2C289.6,724.3,290,724.3,290.3,724.1z"/>
				</g>
				<g>
					<path class="st1" d="M298.2,718.3c0.5-0.2,1-0.3,1.5-0.3v2c-0.2,0-0.4,0-0.5,0c-0.5,0-1.1,0.2-1.5,0.5c-0.4,0.4-0.6,1-0.5,1.6
						v3.6H295v-7.6h2.1v1C297.4,718.8,297.8,718.5,298.2,718.3z"/>
				</g>
				<g>
					<path class="st1" d="M308.7,718.1v10.3h-2.2v-3.5c-0.6,0.6-1.4,1-2.3,0.9c-0.7,0-1.3-0.2-1.9-0.5s-1-0.8-1.4-1.4
						c-0.7-1.3-0.7-2.8,0-4.1c0.3-0.6,0.8-1,1.4-1.4c0.6-0.3,1.3-0.5,1.9-0.5c0.9-0.1,1.8,0.3,2.4,1V718h2.1V718.1z M306,723.5
						c0.7-0.9,0.7-2.2,0-3.1c-0.8-0.8-2-0.8-2.8,0c-0.7,0.9-0.7,2.2,0,3.1C304,724.2,305.2,724.2,306,723.5z"/>
					<path class="st1" d="M318.3,718.1v7.6h-2.1v-0.9c-0.3,0.3-0.6,0.6-1,0.8s-0.9,0.3-1.3,0.3c-0.9,0-1.7-0.3-2.4-0.9
						c-0.6-0.7-0.9-1.6-0.9-2.5v-4.3h2.2v4c0,1.2,0.5,1.8,1.5,1.8c0.5,0,0.9-0.2,1.3-0.5c0.3-0.4,0.5-1,0.5-1.5v-3.7h2.2V718.1z"/>
					<path class="st1" d="M327.7,722.5H322c0.1,0.5,0.4,0.8,0.7,1.1c0.4,0.3,0.9,0.4,1.4,0.4c0.4,0,0.7-0.1,1-0.2
						c0.3-0.1,0.6-0.3,0.9-0.6l1.2,1.3c-0.8,0.9-2,1.3-3.1,1.2c-0.8,0-1.6-0.2-2.3-0.5c-0.6-0.3-1.2-0.8-1.5-1.4
						c-0.4-0.6-0.5-1.3-0.5-2s0.2-1.4,0.5-2c0.3-0.6,0.8-1.1,1.4-1.4c0.6-0.3,1.3-0.5,2.1-0.5c0.7,0,1.4,0.2,2,0.5s1.1,0.8,1.4,1.4
						c0.4,0.6,0.5,1.3,0.5,2.1C327.8,722,327.8,722.2,327.7,722.5z M322.6,720.1c-0.3,0.3-0.6,0.7-0.6,1.2h3.7
						c-0.1-0.4-0.3-0.9-0.6-1.1c-0.3-0.3-0.8-0.4-1.2-0.4C323.4,719.7,322.9,719.8,322.6,720.1z"/>
				</g>
			</g>
			<g>
				<g>
					<path class="st1" d="M276.7,733.2c0.6,0.3,1.1,0.7,1.5,1.2c0.7,1.2,0.7,2.6,0,3.8c-0.4,0.6-0.9,1-1.5,1.2
						c-0.7,0.3-1.5,0.4-2.3,0.4h-2v2.7h-2.3v-9.8h4.3C275.2,732.7,276,732.9,276.7,733.2z M275.9,737.6c0.4-0.3,0.6-0.8,0.5-1.3
						c0-0.5-0.2-1-0.5-1.3c-0.5-0.3-1-0.5-1.6-0.4h-1.9v3.4h1.9C274.9,738.1,275.4,737.9,275.9,737.6L275.9,737.6z"/>
				</g>
				<g>
					<path class="st1" d="M285.8,735.7c0.7,0.7,1,1.6,0.9,2.5v4.3h-2.1v-0.9c-0.5,0.8-1.4,1.2-2.3,1.1c-0.5,0-1-0.1-1.5-0.3
						c-0.4-0.2-0.7-0.5-1-0.8c-0.2-0.4-0.3-0.8-0.3-1.2c0-0.7,0.3-1.3,0.8-1.7c0.7-0.5,1.6-0.7,2.5-0.6h1.7c0-0.4-0.1-0.8-0.4-1.1
						c-0.4-0.3-0.8-0.4-1.3-0.4c-0.4,0-0.8,0.1-1.2,0.2c-0.4,0.1-0.7,0.3-1,0.5l-0.8-1.5c0.5-0.3,1-0.5,1.5-0.7
						c0.6-0.2,1.2-0.2,1.8-0.2C284.1,734.8,285.1,735.1,285.8,735.7z M284,741c0.3-0.2,0.5-0.4,0.6-0.8v-0.8h-1.5
						c-0.9,0-1.4,0.3-1.4,0.9c0,0.3,0.1,0.5,0.3,0.7c0.3,0.2,0.6,0.3,0.9,0.2C283.3,741.2,283.7,741.1,284,741L284,741z"/>
					<path class="st1" d="M288.8,732.1h2.2v10.4h-2.2V732.1z"/>
				</g>
				<g>
					<path class="st1" d="M305,735.7c0.6,0.7,0.9,1.6,0.8,2.5v4.3h-2.2v-4c0-0.5-0.1-1-0.4-1.3c-0.3-0.3-0.7-0.5-1.1-0.4
						c-0.5,0-0.9,0.2-1.2,0.5c-0.3,0.4-0.5,1-0.4,1.5v3.8h-2.2v-4c0-1.2-0.5-1.8-1.4-1.8c-0.5,0-0.9,0.2-1.2,0.5
						c-0.3,0.4-0.5,1-0.4,1.5v3.8h-2.2V735h2.1v0.9c0.3-0.3,0.6-0.6,1-0.7c0.4-0.2,0.9-0.3,1.3-0.3c0.5,0,1,0.1,1.4,0.3
						s0.8,0.5,1,0.9c0.3-0.4,0.7-0.7,1.2-0.9s1-0.3,1.6-0.3C303.5,734.9,304.3,735.2,305,735.7z"/>
				</g>
				<g>
					<path class="st1" d="M315.2,739.4h-5.7c0.1,0.5,0.4,0.8,0.7,1.1c0.4,0.3,0.9,0.4,1.4,0.4c0.4,0,0.7-0.1,1-0.2
						c0.3-0.1,0.6-0.3,0.9-0.6l1.2,1.3c-0.8,0.9-2,1.3-3.1,1.2c-0.8,0-1.6-0.2-2.3-0.5c-0.6-0.3-1.2-0.8-1.5-1.4
						c-0.4-0.6-0.5-1.3-0.5-2s0.2-1.4,0.5-2c0.3-0.6,0.8-1.1,1.4-1.4c0.6-0.3,1.3-0.5,2.1-0.5c0.7,0,1.4,0.2,2,0.5s1.1,0.8,1.4,1.4
						c0.4,0.6,0.5,1.3,0.5,2.1C315.3,738.9,315.2,739.1,315.2,739.4z M310.1,737c-0.3,0.3-0.6,0.7-0.6,1.2h3.7
						c-0.1-0.4-0.3-0.9-0.6-1.1c-0.3-0.3-0.8-0.4-1.2-0.4C310.9,736.5,310.4,736.7,310.1,737z"/>
				</g>
				<g>
					<path class="st1" d="M319.9,735.2c0.5-0.2,1-0.3,1.5-0.3v2c-0.2,0-0.4,0-0.5,0c-0.5,0-1.1,0.2-1.5,0.5c-0.4,0.4-0.6,1-0.5,1.6
						v3.6h-2.2V735h2.1v1C319.1,735.6,319.5,735.4,319.9,735.2z"/>
				</g>
				<g>
					<path class="st1" d="M328.4,735.7c0.7,0.7,1,1.6,0.9,2.5v4.3h-2.1v-0.9c-0.5,0.8-1.4,1.2-2.3,1.1c-0.5,0-1-0.1-1.5-0.3
						c-0.4-0.2-0.7-0.5-1-0.8c-0.2-0.4-0.3-0.8-0.3-1.2c0-0.7,0.3-1.3,0.8-1.7c0.7-0.5,1.6-0.7,2.5-0.6h1.7c0-0.4-0.1-0.8-0.4-1.1
						c-0.4-0.3-0.8-0.4-1.3-0.4c-0.4,0-0.8,0.1-1.2,0.2c-0.4,0.1-0.7,0.3-1,0.5l-0.8-1.5c0.5-0.3,1-0.5,1.5-0.7
						c0.6-0.2,1.2-0.2,1.8-0.2C326.7,734.8,327.7,735.1,328.4,735.7z M326.6,741c0.3-0.2,0.5-0.4,0.6-0.8v-0.8h-1.5
						c-0.9,0-1.4,0.3-1.4,0.9c0,0.3,0.1,0.5,0.3,0.7c0.3,0.2,0.6,0.3,0.9,0.2C325.9,741.2,326.3,741.1,326.6,741z"/>
					<path class="st1" d="M331.4,732.1h2.2v10.4h-2.2V732.1z"/>
				</g>
			</g>
		</g>
		<g>
			<g>
				<path class="st1" d="M450.3,451.7c-0.9-0.8-1.4-2-1.5-3.2l-0.5-5.5l2.3-0.2l0.5,5.4c0.2,1.8,1,2.6,2.4,2.4
					c0.6,0,1.2-0.3,1.6-0.8c0.4-0.6,0.5-1.3,0.4-2l-0.5-5.4l2.2-0.2l0.5,5.5c0.2,2.6-1.8,4.8-4.4,4.9
					C452.2,452.6,451.2,452.3,450.3,451.7L450.3,451.7z"/>
				<path class="st1" d="M466.4,444.3c0.7,0.6,1.1,1.5,1.1,2.4l0.4,4.3l-2.2,0.2l-0.4-4c0-0.5-0.2-0.9-0.5-1.3
					c-0.3-0.3-0.8-0.4-1.2-0.3c-0.5,0-1,0.3-1.3,0.6c-0.3,0.5-0.4,1-0.4,1.6l0.3,3.7l-2.2,0.2l-0.7-7.5l2.1-0.2l0.1,0.9
					c0.3-0.4,0.6-0.6,1-0.8c0.4-0.2,0.9-0.4,1.4-0.4C464.9,443.6,465.7,443.8,466.4,444.3z"/>
				<path class="st1" d="M469.1,441.9c-0.5-0.4-0.6-1.2-0.2-1.7c0,0,0,0,0.1-0.1c0.2-0.3,0.6-0.4,0.9-0.4c0.4,0,0.7,0,1,0.2
					s0.4,0.5,0.5,0.8c0,0.3-0.1,0.7-0.3,0.9c-0.2,0.3-0.6,0.4-0.9,0.4C469.8,442.2,469.4,442.1,469.1,441.9z M469.2,443.3l2.2-0.2
					l0.7,7.5l-2.2,0.2L469.2,443.3z"/>
			</g>
			<g>
				<path class="st1" d="M475.5,450c-0.6-0.3-1.2-0.7-1.6-1.2c-1.3-1.7-0.9-4.1,0.7-5.3c0.1-0.1,0.2-0.1,0.3-0.2
					c0.6-0.4,1.4-0.6,2.1-0.7s1.5,0,2.1,0.3s1.1,0.7,1.4,1.3l-1.6,1.1c-0.4-0.6-1.1-1-1.8-0.9c-0.5,0-1,0.3-1.4,0.7
					c-0.7,0.9-0.5,2.2,0.3,3.1c0.4,0.3,0.9,0.5,1.5,0.4c0.7,0,1.3-0.5,1.6-1.2l1.8,0.8c-0.2,0.6-0.6,1.2-1.2,1.5
					c-0.6,0.4-1.3,0.6-2,0.7C477,450.3,476.2,450.2,475.5,450z"/>
			</g>
			<g>
				<path class="st1" d="M489.3,445.9l-5.7,0.5c0.1,0.4,0.4,0.8,0.8,1s1,0.3,1.5,0.3c0.4,0,0.7-0.1,1-0.3c0.3-0.2,0.6-0.4,0.8-0.6
					l1.3,1.2c-0.7,0.9-1.8,1.5-3,1.5c-0.8,0.1-1.6,0-2.3-0.3c-0.7-0.2-1.2-0.7-1.6-1.2c-0.4-0.6-0.7-1.2-0.7-2c-0.1-0.7,0-1.4,0.3-2
					s0.7-1.1,1.3-1.5c0.6-0.4,1.3-0.6,2-0.7s1.4,0,2,0.3s1.2,0.7,1.5,1.2c0.4,0.6,0.6,1.3,0.7,2
					C489.3,445.4,489.3,445.5,489.3,445.9z M484,444c-0.3,0.3-0.5,0.8-0.5,1.2l3.7-0.3c-0.1-0.4-0.4-0.8-0.7-1.1
					c-0.4-0.3-0.8-0.4-1.3-0.3C484.7,443.5,484.3,443.6,484,444z"/>
				<path class="st1" d="M492.8,441.3l1.9-0.2l0.2,1.7L493,443l0.5,5.7l-2.2,0.2l-0.5-5.7l-1.2,0.1l-0.2-1.7l1.2-0.1v-0.3
					c-0.1-0.8,0.1-1.5,0.6-2.1s1.3-0.9,2.1-1c0.3,0,0.6,0,0.9,0s0.5,0.1,0.8,0.2l-0.4,1.6c-0.3-0.2-0.6-0.2-0.9-0.2
					c-0.7,0.1-1,0.5-0.9,1.2V441.3z"/>
			</g>
		</g>
		<g>
			<g>
				<path class="st1" d="M527.3,545c-0.5-0.3-0.9-0.7-1.2-1.3l1.5-1.3c0.3,0.7,0.9,1.2,1.6,1.4c0.9,0.1,1.5-0.3,1.6-1.4l0.7-4.6
					l-3.4-0.5l0.3-1.8l5.7,0.9l-1,6.3c-0.1,1-0.5,1.9-1.3,2.6c-0.8,0.5-1.8,0.7-2.8,0.5C528.5,545.6,527.9,545.4,527.3,545z"/>
				<path class="st1" d="M541.4,540.5c0.6,0.8,0.8,1.7,0.5,2.6l-0.7,4.3l-2-0.3l0.1-0.9c-0.6,0.7-1.6,0.9-2.4,0.7
					c-0.5-0.1-1-0.2-1.4-0.5c-0.4-0.2-0.7-0.6-0.8-1c-0.2-0.4-0.2-0.8-0.2-1.2c0.1-0.6,0.5-1.2,1-1.5c0.8-0.3,1.7-0.4,2.5-0.2
					l1.7,0.3c0.1-0.4,0-0.8-0.3-1.2c-0.3-0.3-0.8-0.5-1.2-0.6s-0.8-0.1-1.2,0s-0.7,0.2-1.1,0.4l-0.5-1.6c0.5-0.2,1-0.4,1.6-0.4
					c0.6-0.1,1.2-0.1,1.8,0C539.9,539.3,540.8,539.8,541.4,540.5z M538.8,545.4c0.3-0.1,0.6-0.4,0.7-0.7l0.1-0.8l-1.5-0.2
					c-0.9-0.1-1.4,0.1-1.5,0.7c0,0.3,0,0.5,0.2,0.7s0.5,0.4,0.9,0.4C538.1,545.5,538.4,545.5,538.8,545.4L538.8,545.4z"/>
				<path class="st1" d="M544.4,540.2l2.2,0.3l-1.2,7.5l-2.2-0.3L544.4,540.2z M544.7,538.9c-0.4-0.5-0.3-1.3,0.2-1.7
					c0,0,0,0,0.1-0.1c0.3-0.2,0.7-0.3,1-0.2c0.4,0,0.7,0.2,0.9,0.5c0.2,0.2,0.3,0.6,0.2,0.9c0,0.3-0.2,0.6-0.5,0.8s-0.7,0.3-1,0.2
					C545.3,539.3,545,539.1,544.7,538.9L544.7,538.9z"/>
			</g>
			<g>
				<path class="st1" d="M560.3,543.4c0.5,0.8,0.6,1.7,0.4,2.6l-0.7,4.3l-2.2-0.3l0.6-3.9c0.1-0.5,0.1-1-0.2-1.4
					c-0.2-0.3-0.6-0.6-1-0.6c-0.5-0.1-0.9,0-1.3,0.3c-0.4,0.4-0.6,0.9-0.7,1.4l-0.6,3.8l-2.2-0.3l0.6-3.9c0.2-1.2-0.2-1.8-1.1-2
					c-0.4-0.1-0.9,0-1.3,0.3c-0.4,0.4-0.6,0.9-0.7,1.4l-0.6,3.8l-2.2-0.3l1.2-7.5l2.1,0.3l-0.1,0.9c0.3-0.3,0.7-0.5,1.1-0.6
					c0.4-0.1,0.9-0.1,1.4,0s1,0.3,1.4,0.5c0.4,0.3,0.7,0.6,0.9,1.1c0.4-0.3,0.8-0.6,1.3-0.7c0.5-0.1,1.1-0.2,1.6-0.1
					C559,542.3,559.8,542.8,560.3,543.4z"/>
			</g>
			<g>
				<path class="st1" d="M569.9,548.6l-5.7-0.9c0,0.5,0.2,0.9,0.6,1.2c0.4,0.3,0.8,0.6,1.4,0.6c0.4,0.1,0.7,0.1,1.1,0
					c0.3-0.1,0.6-0.2,0.9-0.4l1,1.4c-0.9,0.7-2.1,1-3.3,0.7c-0.8-0.1-1.5-0.4-2.2-0.8c-0.6-0.4-1-1-1.3-1.6
					c-0.3-0.7-0.3-1.4-0.2-2.1c0.1-0.7,0.4-1.4,0.8-1.9c0.4-0.5,1-0.9,1.6-1.2c1.4-0.5,2.9-0.2,4,0.6c0.5,0.4,1,0.9,1.2,1.6
					c0.2,0.7,0.3,1.4,0.2,2.1C570,548.1,570,548.3,569.9,548.6z M565.2,545.5c-0.4,0.2-0.7,0.6-0.8,1l3.7,0.6c0-0.4-0.1-0.9-0.4-1.2
					s-0.7-0.6-1.2-0.6C566,545.1,565.6,545.2,565.2,545.5L565.2,545.5z"/>
				<path class="st1" d="M576.5,542.9l2.3,0.4l-1.5,9.7l-2.3-0.4L576.5,542.9z"/>
				<path class="st1" d="M581,543.6l2.3,0.4l-1.5,9.7l-2.3-0.4L581,543.6z"/>
			</g>
		</g>
		<g>
			<g>
				<path class="st1" d="M495,330l-4.3,9.8h-2.3l-4.2-9.8h2.5l3,7l3-7H495z"/>
			</g>
			<g>
				<path class="st1" d="M496,330.9c-0.5-0.4-0.5-1.2-0.1-1.7c0,0,0,0,0.1-0.1c0.3-0.2,0.6-0.4,1-0.4s0.7,0.1,1,0.3
					c0.2,0.2,0.4,0.5,0.4,0.8c0,0.3-0.1,0.7-0.4,0.9c-0.3,0.2-0.6,0.4-1,0.4C496.6,331.3,496.2,331.1,496,330.9z M495.8,332.3h2.2
					v7.6h-2.2V332.3z"/>
				<path class="st1" d="M500.1,329.4h2.2v10.4h-2.2V329.4z"/>
				<path class="st1" d="M504.3,329.4h2.2v10.4h-2.2V329.4z"/>
				<path class="st1" d="M514.3,333c0.7,0.7,1,1.6,0.9,2.5v4.3h-2.1v-0.9c-0.5,0.8-1.4,1.2-2.3,1.1c-0.5,0-1-0.1-1.5-0.3
					c-0.4-0.2-0.7-0.5-1-0.8c-0.2-0.4-0.3-0.8-0.3-1.2c0-0.7,0.3-1.3,0.8-1.7c0.7-0.5,1.6-0.7,2.5-0.6h1.7c0-0.4-0.1-0.8-0.4-1.1
					c-0.4-0.3-0.8-0.4-1.3-0.4c-0.4,0-0.8,0.1-1.2,0.2c-0.4,0.1-0.7,0.3-1,0.5l-0.8-1.5c0.5-0.3,1-0.5,1.5-0.7
					c0.6-0.2,1.2-0.2,1.8-0.2C512.6,332.1,513.5,332.4,514.3,333z M512.4,338.2c0.3-0.2,0.5-0.4,0.6-0.8v-0.8h-1.5
					c-0.9,0-1.4,0.3-1.4,0.9c0,0.3,0.1,0.5,0.3,0.7c0.3,0.2,0.6,0.3,0.9,0.2C511.8,338.5,512.1,338.4,512.4,338.2L512.4,338.2z"/>
			</g>
			<g>
				<path class="st1" d="M519.6,332.5h1.9v1.7h-1.9v5.7h-2.2v-5.7h-1.2v-1.7h1.2v-0.3c0-0.8,0.2-1.5,0.8-2.1
					c0.6-0.5,1.4-0.8,2.2-0.8c0.3,0,0.6,0,0.9,0.1s0.5,0.2,0.7,0.3l-0.6,1.6c-0.3-0.2-0.6-0.3-0.9-0.3c-0.7,0-1,0.4-1,1.1
					L519.6,332.5z"/>
			</g>
			<g>
				<path class="st1" d="M526.9,332.5c0.5-0.2,1-0.3,1.5-0.3v2c-0.2,0-0.4,0-0.5,0c-0.5,0-1.1,0.2-1.5,0.5c-0.4,0.4-0.6,1-0.5,1.6
					v3.6h-2.2v-7.6h2.1v1C526.1,332.9,526.5,332.6,526.9,332.5z"/>
			</g>
			<g>
				<path class="st1" d="M535.5,333c0.7,0.7,1,1.6,0.9,2.5v4.3h-2.1v-0.9c-0.5,0.8-1.4,1.2-2.3,1.1c-0.5,0-1-0.1-1.5-0.3
					c-0.4-0.2-0.7-0.5-1-0.8c-0.2-0.4-0.3-0.8-0.3-1.2c0-0.7,0.3-1.3,0.8-1.7c0.7-0.5,1.6-0.7,2.5-0.6h1.7c0-0.4-0.1-0.8-0.4-1.1
					c-0.4-0.3-0.8-0.4-1.3-0.4c-0.4,0-0.8,0.1-1.2,0.2c-0.4,0.1-0.7,0.3-1,0.5l-0.8-1.5c0.5-0.3,1-0.5,1.5-0.7
					c0.6-0.2,1.2-0.2,1.8-0.2C533.8,332.1,534.7,332.4,535.5,333z M533.6,338.2c0.3-0.2,0.5-0.4,0.6-0.8v-0.8h-1.5
					c-0.9,0-1.4,0.3-1.4,0.9c0,0.3,0.1,0.5,0.3,0.7c0.3,0.2,0.6,0.3,0.9,0.2C533,338.5,533.3,338.4,533.6,338.2L533.6,338.2z"/>
			</g>
			<g>
				<path class="st1" d="M545.3,333c0.6,0.7,0.9,1.6,0.9,2.5v4.3H544v-4c0-0.5-0.1-1-0.4-1.3c-0.3-0.3-0.7-0.5-1.1-0.4
					c-0.5,0-1,0.2-1.3,0.5c-0.4,0.4-0.5,1-0.5,1.5v3.7h-2.2v-7.6h2.1v0.9c0.3-0.3,0.7-0.6,1.1-0.7c0.5-0.2,0.9-0.3,1.4-0.3
					C543.9,332.1,544.7,332.4,545.3,333z"/>
			</g>
			<g>
				<path class="st1" d="M555.9,332.3v10.3h-2.2v-3.5c-0.6,0.6-1.4,1-2.3,0.9c-0.7,0-1.3-0.2-1.9-0.5c-0.6-0.3-1-0.8-1.4-1.4
					c-0.7-1.3-0.7-2.8,0-4.1c0.3-0.6,0.8-1,1.4-1.4c0.6-0.3,1.3-0.5,1.9-0.5c0.9-0.1,1.8,0.3,2.4,1v-0.9L555.9,332.3z M553.2,337.6
					c0.7-0.9,0.7-2.2,0-3.1c-0.8-0.8-2-0.8-2.8,0c-0.7,0.9-0.7,2.2,0,3.1C551.2,338.4,552.4,338.4,553.2,337.6z"/>
				<path class="st1" d="M565.6,332.3v7.6h-2.1V339c-0.3,0.3-0.6,0.6-1,0.8c-0.4,0.2-0.9,0.3-1.3,0.3c-0.9,0-1.7-0.3-2.4-0.9
					c-0.6-0.7-0.9-1.6-0.9-2.5v-4.3h2.2v4c0,1.2,0.5,1.8,1.5,1.8c0.5,0,0.9-0.2,1.3-0.5c0.3-0.4,0.5-1,0.5-1.5v-3.7L565.6,332.3z"/>
			</g>
			<g>
				<path class="st1" d="M575,336.7h-5.7c0.1,0.5,0.4,0.8,0.7,1.1c0.4,0.3,0.9,0.4,1.4,0.4c0.4,0,0.7-0.1,1-0.2s0.6-0.3,0.9-0.6
					l1.2,1.3c-0.8,0.9-2,1.3-3.1,1.2c-0.8,0-1.6-0.2-2.3-0.5c-0.6-0.3-1.2-0.8-1.5-1.4c-0.4-0.6-0.5-1.3-0.5-2c0-0.7,0.2-1.4,0.5-2
					s0.8-1.1,1.4-1.4c1.3-0.7,2.8-0.7,4.1,0c0.6,0.3,1.1,0.8,1.4,1.4c0.4,0.6,0.5,1.3,0.5,2.1C575,336.1,575,336.3,575,336.7z
					 M569.8,334.3c-0.3,0.3-0.6,0.7-0.6,1.2h3.7c-0.1-0.4-0.3-0.9-0.6-1.1c-0.3-0.3-0.8-0.4-1.2-0.4
					C570.6,333.8,570.2,334,569.8,334.3L569.8,334.3z"/>
			</g>
			<g>
				<path class="st1" d="M582.6,338.2v1.7h-6.7v-1.4l3.9-4.6H576v-1.7h6.5v1.3l-3.9,4.6L582.6,338.2z"/>
				<path class="st1" d="M589.8,333c0.7,0.7,1,1.6,0.9,2.5v4.3h-2.1v-0.9c-0.5,0.8-1.4,1.2-2.3,1.1c-0.5,0-1-0.1-1.5-0.3
					c-0.4-0.2-0.7-0.5-1-0.8c-0.2-0.4-0.3-0.8-0.3-1.2c0-0.7,0.3-1.3,0.8-1.7c0.7-0.5,1.6-0.7,2.5-0.6h1.7c0-0.4-0.1-0.8-0.4-1.1
					c-0.4-0.3-0.8-0.4-1.3-0.4c-0.4,0-0.8,0.1-1.2,0.2c-0.4,0.1-0.7,0.3-1,0.5l-0.8-1.5c0.5-0.3,1-0.5,1.5-0.7
					c0.6-0.2,1.2-0.2,1.8-0.2C588.1,332.1,589,332.4,589.8,333z M587.9,338.2c0.3-0.2,0.5-0.4,0.6-0.8v-0.8H587
					c-0.9,0-1.4,0.3-1.4,0.9c0,0.3,0.1,0.5,0.3,0.7c0.3,0.2,0.6,0.3,0.9,0.2C587.3,338.5,587.6,338.4,587.9,338.2z"/>
			</g>
		</g>
		<g>
			<g>
				<path class="st1" d="M618.7,322c-0.6-0.2-1.2-0.4-1.8-0.8l0.8-1.7c0.5,0.3,1,0.6,1.5,0.7c0.6,0.2,1.2,0.3,1.7,0.3s1-0.1,1.4-0.3
					c0.3-0.2,0.5-0.4,0.5-0.8c0-0.2-0.1-0.4-0.3-0.6s-0.4-0.3-0.7-0.4c-0.3-0.1-0.7-0.2-1.2-0.3c-0.6-0.1-1.2-0.3-1.8-0.5
					c-0.5-0.2-0.9-0.5-1.2-0.9c-0.4-0.4-0.5-1-0.5-1.6s0.2-1.1,0.5-1.6s0.8-0.9,1.4-1.1c0.7-0.3,1.5-0.4,2.3-0.4
					c0.6,0,1.2,0.1,1.8,0.2s1.1,0.4,1.6,0.6l-0.7,1.7c-0.8-0.5-1.8-0.8-2.7-0.8c-0.5,0-1,0.1-1.4,0.3c-0.3,0.2-0.5,0.5-0.5,0.8
					c0,0.3,0.2,0.6,0.5,0.8c0.5,0.2,1.1,0.4,1.6,0.5c0.6,0.1,1.2,0.3,1.8,0.5c0.5,0.2,0.9,0.5,1.2,0.8c0.4,0.4,0.5,1,0.5,1.6
					c0,0.5-0.2,1.1-0.5,1.5c-0.4,0.5-0.8,0.9-1.4,1.1c-0.7,0.3-1.5,0.4-2.3,0.4C620.2,322.4,619.4,322.3,618.7,322z"/>
				<path class="st1" d="M632.3,315.4c0.7,0.7,1,1.6,0.9,2.5v4.3h-2.1v-0.9c-0.5,0.8-1.4,1.2-2.3,1.1c-0.5,0-1-0.1-1.5-0.3
					c-0.4-0.2-0.7-0.5-1-0.8c-0.2-0.4-0.3-0.8-0.3-1.2c0-0.7,0.3-1.3,0.8-1.7c0.7-0.5,1.6-0.7,2.5-0.6h1.7c0-0.4-0.1-0.8-0.4-1.1
					c-0.4-0.3-0.8-0.4-1.3-0.4c-0.4,0-0.8,0.1-1.2,0.2c-0.4,0.1-0.7,0.3-1,0.5l-0.8-1.5c0.5-0.3,1-0.5,1.5-0.7
					c0.6-0.2,1.2-0.2,1.8-0.2C630.5,314.4,631.5,314.7,632.3,315.4z M630.4,320.6c0.3-0.2,0.5-0.4,0.6-0.8V319h-1.5
					c-0.9,0-1.3,0.3-1.3,0.9c0,0.3,0.1,0.5,0.3,0.7c0.3,0.2,0.6,0.3,0.9,0.2C629.7,320.8,630.1,320.7,630.4,320.6L630.4,320.6z"/>
				<path class="st1" d="M642.1,315.4c0.6,0.7,0.9,1.6,0.9,2.5v4.3h-2.2v-4c0-0.5-0.1-1-0.4-1.3c-0.3-0.3-0.7-0.5-1.1-0.4
					c-0.5,0-1,0.2-1.3,0.5c-0.4,0.4-0.5,1-0.5,1.5v3.7h-2.2v-7.6h2.1v0.9c0.3-0.3,0.7-0.6,1.1-0.7c0.5-0.2,0.9-0.3,1.4-0.3
					C640.6,314.5,641.4,314.8,642.1,315.4z"/>
				<path class="st1" d="M649.8,321.8c-0.2,0.2-0.5,0.3-0.8,0.4c-0.3,0.1-0.7,0.1-1,0.1c-0.8,0-1.5-0.2-2.1-0.7
					c-0.5-0.5-0.8-1.3-0.7-2v-3.1H644v-1.7h1.2V313h2.2v1.8h1.9v1.7h-1.9v3.1c0,0.3,0.1,0.5,0.2,0.7c0.2,0.2,0.4,0.3,0.7,0.3
					s0.6-0.1,0.9-0.3L649.8,321.8z"/>
				<path class="st1" d="M656.8,315.4c0.7,0.7,1,1.6,0.9,2.5v4.3h-2.1v-0.9c-0.5,0.8-1.4,1.2-2.3,1.1c-0.5,0-1-0.1-1.5-0.3
					c-0.4-0.2-0.7-0.5-1-0.8c-0.2-0.4-0.3-0.8-0.3-1.2c0-0.7,0.3-1.3,0.8-1.7c0.7-0.5,1.6-0.7,2.5-0.6h1.7c0-0.4-0.1-0.8-0.4-1.1
					c-0.4-0.3-0.8-0.4-1.3-0.4c-0.4,0-0.8,0.1-1.2,0.2c-0.4,0.1-0.7,0.3-1,0.5l-0.8-1.5c0.5-0.3,1-0.5,1.5-0.7
					c0.6-0.2,1.2-0.2,1.8-0.2C655,314.4,656,314.7,656.8,315.4z M654.9,320.6c0.3-0.2,0.5-0.4,0.6-0.8V319H654
					c-0.9,0-1.3,0.3-1.3,0.9c0,0.3,0.1,0.5,0.3,0.7c0.3,0.2,0.6,0.3,0.9,0.2C654.3,320.8,654.6,320.7,654.9,320.6L654.9,320.6z"/>
			</g>
			<g>
				<path class="st1" d="M666.1,314.2v2.6h4.6v1.8h-4.6v3.6h-2.3v-9.8h7.4v1.8H666.1L666.1,314.2z"/>
			</g>
			<g>
				<path class="st1" d="M678.2,315.4c0.7,0.7,1,1.6,0.9,2.5v4.3H677v-0.9c-0.5,0.8-1.4,1.2-2.3,1.1c-0.5,0-1-0.1-1.5-0.3
					c-0.4-0.2-0.7-0.5-1-0.8c-0.2-0.4-0.3-0.8-0.3-1.2c0-0.7,0.3-1.3,0.8-1.7c0.7-0.5,1.6-0.7,2.5-0.6h1.7c0-0.4-0.1-0.8-0.4-1.1
					c-0.4-0.3-0.8-0.4-1.3-0.4c-0.4,0-0.8,0.1-1.2,0.2c-0.4,0.1-0.7,0.3-1,0.5l-0.8-1.5c0.5-0.3,1-0.5,1.5-0.7
					c0.6-0.2,1.2-0.2,1.8-0.2C676.5,314.4,677.4,314.7,678.2,315.4z M676.3,320.6c0.3-0.2,0.5-0.4,0.6-0.8V319h-1.5
					c-0.9,0-1.3,0.3-1.3,0.9c0,0.3,0.1,0.5,0.3,0.7c0.3,0.2,0.6,0.3,0.9,0.2C675.7,320.8,676,320.7,676.3,320.6L676.3,320.6z"/>
				<path class="st1" d="M687.4,320.5v1.7h-6.8v-1.3l3.9-4.6h-3.8v-1.7h6.5v1.3l-3.9,4.6H687.4z"/>
			</g>
		</g>
		<g>
			<g>
				<g>
					<path class="st1" d="M560.1,418.5h-4.5l-0.9,2.1h-2.3l4.4-9.8h2.3l4.4,9.8h-2.4L560.1,418.5z M559.4,416.8l-1.6-3.8l-1.6,3.8
						H559.4z"/>
				</g>
				<g>
					<path class="st1" d="M574.7,420.6l-1.9-2.7h-2.1v2.7h-2.3v-9.8h4.3c0.8,0,1.6,0.1,2.3,0.4c1.3,0.5,2.1,1.8,2,3.1
						c0.1,1.4-0.8,2.6-2,3.1l2.2,3.2L574.7,420.6L574.7,420.6z M574.1,413.1c-0.5-0.3-1-0.5-1.6-0.4h-1.9v3.4h1.9
						c0.6,0,1.1-0.1,1.6-0.5C574.8,414.9,574.8,413.8,574.1,413.1L574.1,413.1L574.1,413.1z"/>
				</g>
				<g>
					<path class="st1" d="M584.3,413.8c0.7,0.7,1,1.6,0.9,2.5v4.3h-2.1v-0.9c-0.5,0.8-1.4,1.2-2.3,1.1c-0.5,0-1-0.1-1.5-0.3
						c-0.4-0.2-0.7-0.5-1-0.8c-0.2-0.4-0.3-0.8-0.3-1.2c0-0.7,0.3-1.3,0.8-1.7c0.7-0.5,1.6-0.7,2.5-0.6h1.7c0-0.4-0.1-0.8-0.4-1.1
						c-0.4-0.3-0.8-0.4-1.3-0.4c-0.4,0-0.8,0.1-1.2,0.2s-0.7,0.3-1,0.5l-0.8-1.5c0.5-0.3,1-0.5,1.5-0.7c0.6-0.2,1.2-0.2,1.8-0.2
						C582.5,412.9,583.5,413.2,584.3,413.8z M582.4,419c0.3-0.2,0.5-0.4,0.6-0.8v-0.8h-1.5c-0.9,0-1.3,0.3-1.3,0.9
						c0,0.3,0.1,0.5,0.3,0.7c0.3,0.2,0.6,0.3,0.9,0.2C581.8,419.3,582.1,419.2,582.4,419L582.4,419z"/>
				</g>
				<g>
					<path class="st1" d="M599.1,413.8c0.6,0.7,0.9,1.6,0.8,2.5v4.3h-2.2v-4c0-0.5-0.1-1-0.4-1.3c-0.3-0.3-0.7-0.5-1.1-0.4
						c-0.5,0-0.9,0.2-1.2,0.5c-0.3,0.4-0.5,1-0.5,1.5v3.8h-2.2v-4c0-1.2-0.5-1.8-1.4-1.8c-0.5,0-0.9,0.2-1.2,0.5
						c-0.3,0.4-0.5,1-0.5,1.5v3.8H587v-7.6h2.1v0.9c0.3-0.3,0.6-0.6,1-0.7c0.4-0.2,0.9-0.3,1.3-0.3c0.5,0,1,0.1,1.4,0.3
						c0.4,0.2,0.8,0.5,1,0.9c0.3-0.4,0.7-0.7,1.2-0.9c0.5-0.2,1-0.3,1.6-0.3C597.7,412.9,598.5,413.2,599.1,413.8z"/>
				</g>
				<g>
					<path class="st1" d="M603.5,420.2c-0.6-0.3-1.1-0.8-1.5-1.4c-0.7-1.2-0.7-2.8,0-4c0.4-0.6,0.9-1.1,1.5-1.4
						c1.3-0.7,2.9-0.7,4.3,0c0.6,0.3,1.1,0.8,1.5,1.4c0.7,1.2,0.7,2.8,0,4c-0.4,0.6-0.9,1.1-1.5,1.4
						C606.4,420.9,604.8,420.9,603.5,420.2z M607,418.4c0.7-0.9,0.7-2.2,0-3.1c-0.4-0.4-0.9-0.6-1.4-0.6s-1,0.2-1.4,0.6
						c-0.7,0.9-0.7,2.2,0,3.1c0.4,0.4,0.9,0.6,1.4,0.6C606.2,418.9,606.7,418.7,607,418.4L607,418.4z"/>
					<path class="st1" d="M612,420.5c-0.5-0.1-1-0.3-1.4-0.6l0.7-1.6c0.4,0.2,0.8,0.4,1.2,0.5c0.5,0.1,0.9,0.2,1.4,0.2
						c0.9,0,1.4-0.2,1.4-0.7c0-0.2-0.2-0.4-0.4-0.5c-0.4-0.1-0.8-0.2-1.2-0.2c-0.5-0.1-1-0.2-1.5-0.3c-0.4-0.1-0.8-0.3-1-0.6
						c-0.3-0.4-0.5-0.8-0.4-1.3c0-0.5,0.1-0.9,0.4-1.3c0.3-0.4,0.7-0.7,1.2-0.9c0.6-0.2,1.2-0.3,1.9-0.3c0.5,0,1.1,0.1,1.6,0.2
						s0.9,0.3,1.3,0.5l-0.7,1.6c-0.7-0.4-1.4-0.6-2.2-0.6c-0.4,0-0.7,0-1.1,0.2c-0.2,0.1-0.3,0.3-0.4,0.5c0,0.2,0.2,0.4,0.4,0.5
						c0.4,0.1,0.8,0.2,1.2,0.3c0.5,0.1,1,0.2,1.5,0.3c0.4,0.1,0.7,0.3,1,0.6c0.3,0.4,0.5,0.8,0.4,1.3c0,0.5-0.1,0.9-0.4,1.3
						c-0.3,0.4-0.7,0.7-1.2,0.9c-0.6,0.2-1.3,0.3-1.9,0.3C613.2,420.7,612.6,420.6,612,420.5z"/>
				</g>
			</g>
			<g>
				<g>
					<path class="st1" d="M555.7,437c-0.8-0.4-1.5-1-1.9-1.8c-0.9-1.6-0.9-3.6,0-5.2c0.5-0.8,1.1-1.4,1.9-1.8c1.6-0.8,3.4-0.9,5-0.2
						c0.7,0.3,1.3,0.7,1.7,1.3l-1.5,1.4c-0.6-0.7-1.5-1.2-2.5-1.2c-0.6,0-1.1,0.1-1.6,0.4s-0.9,0.6-1.1,1.1c-0.5,1-0.5,2.2,0,3.3
						c0.3,0.5,0.6,0.9,1.1,1.1c0.5,0.3,1.1,0.4,1.6,0.4c1,0,1.9-0.4,2.5-1.2l1.5,1.4c-0.5,0.6-1.1,1-1.7,1.3
						c-0.7,0.3-1.5,0.5-2.3,0.5C557.4,437.7,556.5,437.4,555.7,437z"/>
				</g>
				<g>
					<path class="st1" d="M569.5,430.6c0.7,0.7,1,1.6,0.9,2.5v4.3h-2.1v-0.9c-0.5,0.8-1.4,1.2-2.3,1.1c-0.5,0-1-0.1-1.5-0.3
						c-0.4-0.2-0.7-0.5-1-0.8c-0.2-0.4-0.3-0.8-0.3-1.2c0-0.7,0.3-1.3,0.8-1.7c0.7-0.5,1.6-0.7,2.5-0.6h1.7c0-0.4-0.1-0.8-0.4-1.1
						c-0.4-0.3-0.8-0.4-1.3-0.4c-0.4,0-0.8,0.1-1.2,0.2s-0.7,0.3-1,0.5l-0.8-1.5c0.5-0.3,1-0.5,1.5-0.7c0.6-0.2,1.2-0.2,1.8-0.2
						C567.8,429.7,568.7,430,569.5,430.6z M567.6,435.9c0.3-0.2,0.5-0.4,0.6-0.8v-0.8h-1.5c-0.9,0-1.3,0.3-1.3,0.9
						c0,0.3,0.1,0.5,0.3,0.7c0.3,0.2,0.6,0.3,0.9,0.2C567,436.1,567.3,436,567.6,435.9L567.6,435.9z"/>
				</g>
				<g>
					<path class="st1" d="M575.6,430.1c0.5-0.2,1-0.3,1.5-0.3v2c-0.2,0-0.4,0-0.5,0c-0.5,0-1.1,0.2-1.5,0.5c-0.4,0.4-0.6,1-0.5,1.6
						v3.6h-2.2v-7.6h2.1v1C574.8,430.5,575.2,430.3,575.6,430.1z"/>
				</g>
				<g>
					<path class="st1" d="M581.6,430.1c0.5-0.2,1-0.3,1.5-0.3v2c-0.2,0-0.4,0-0.5,0c-0.5,0-1.1,0.2-1.5,0.5c-0.4,0.4-0.6,1-0.5,1.6
						v3.6h-2.2v-7.6h2.1v1C580.8,430.5,581.2,430.3,581.6,430.1z"/>
				</g>
				<g>
					<path class="st1" d="M590.2,430.6c0.7,0.7,1,1.6,0.9,2.5v4.3H589v-0.9c-0.5,0.8-1.4,1.2-2.3,1.1c-0.5,0-1-0.1-1.5-0.3
						c-0.4-0.2-0.7-0.5-1-0.8c-0.2-0.4-0.3-0.8-0.3-1.2c0-0.7,0.3-1.3,0.8-1.7c0.7-0.5,1.6-0.7,2.5-0.6h1.7c0-0.4-0.1-0.8-0.4-1.1
						c-0.4-0.3-0.8-0.4-1.3-0.4c-0.4,0-0.8,0.1-1.2,0.2s-0.7,0.3-1,0.5l-0.8-1.5c0.5-0.3,1-0.5,1.5-0.7c0.6-0.2,1.2-0.2,1.8-0.2
						C588.4,429.7,589.4,430,590.2,430.6z M588.3,435.9c0.3-0.2,0.5-0.4,0.6-0.8v-0.8h-1.5c-0.9,0-1.3,0.3-1.3,0.9
						c0,0.3,0.1,0.5,0.3,0.7c0.3,0.2,0.6,0.3,0.9,0.2C587.6,436.1,588,436,588.3,435.9L588.3,435.9z"/>
					<path class="st1" d="M598,437.1c-0.2,0.2-0.5,0.3-0.8,0.4s-0.7,0.1-1,0.1c-0.8,0-1.5-0.2-2.1-0.7c-0.5-0.5-0.8-1.3-0.7-2v-3.1
						h-1.2v-1.7h1.2v-1.8h2.2v1.8h1.9v1.7h-1.9v3.1c0,0.3,0.1,0.5,0.2,0.7c0.2,0.2,0.4,0.3,0.7,0.3s0.6-0.1,0.9-0.3L598,437.1z"/>
					<path class="st1" d="M605,430.6c0.7,0.7,1,1.6,0.9,2.5v4.3h-2.1v-0.9c-0.5,0.8-1.4,1.2-2.3,1.1c-0.5,0-1-0.1-1.5-0.3
						c-0.4-0.2-0.7-0.5-1-0.8c-0.2-0.4-0.3-0.8-0.3-1.2c0-0.7,0.3-1.3,0.8-1.7c0.7-0.5,1.6-0.7,2.5-0.6h1.7c0-0.4-0.1-0.8-0.4-1.1
						c-0.4-0.3-0.8-0.4-1.3-0.4c-0.4,0-0.8,0.1-1.2,0.2s-0.7,0.3-1,0.5l-0.8-1.5c0.5-0.3,1-0.5,1.5-0.7c0.6-0.2,1.2-0.2,1.8-0.2
						C603.2,429.7,604.2,430,605,430.6z M603.1,435.9c0.3-0.2,0.5-0.4,0.6-0.8v-0.8h-1.5c-0.9,0-1.3,0.3-1.3,0.9
						c0,0.3,0.1,0.5,0.3,0.7c0.3,0.2,0.6,0.3,0.9,0.2C602.4,436.1,602.8,436,603.1,435.9L603.1,435.9z"/>
					<path class="st1" d="M607.9,427h2.2v10.4h-2.2V427z"/>
					<path class="st1" d="M617.9,430.6c0.7,0.7,1,1.6,0.9,2.5v4.3h-2.1v-0.9c-0.5,0.8-1.4,1.2-2.3,1.1c-0.5,0-1-0.1-1.5-0.3
						c-0.4-0.2-0.7-0.5-1-0.8c-0.2-0.4-0.3-0.8-0.3-1.2c0-0.7,0.3-1.3,0.8-1.7c0.7-0.5,1.6-0.7,2.5-0.6h1.7c0-0.4-0.1-0.8-0.4-1.1
						c-0.4-0.3-0.8-0.4-1.3-0.4c-0.4,0-0.8,0.1-1.2,0.2s-0.7,0.3-1,0.5l-0.8-1.5c0.5-0.3,1-0.5,1.5-0.7c0.6-0.2,1.2-0.2,1.8-0.2
						C616.1,429.7,617.1,430,617.9,430.6z M612.4,426.9h2.4l1.9,2H615L612.4,426.9z M616,435.9c0.3-0.2,0.5-0.4,0.6-0.8v-0.8h-1.5
						c-0.9,0-1.3,0.3-1.3,0.9c0,0.3,0.1,0.5,0.3,0.7c0.3,0.2,0.6,0.3,0.9,0.2C615.3,436.1,615.7,436,616,435.9L616,435.9z"/>
				</g>
			</g>
		</g>
		<g>
			<g>
				<path class="st1" d="M428.9,585.3c-0.7,0.5-1.6,0.8-2.5,0.8c-1.9,0-3.6-0.9-4.6-2.5c-0.5-0.8-0.7-1.7-0.7-2.5
					c0-1,0.3-1.9,0.7-2.7c0.4-0.7,0.9-1.3,1.5-1.8c0.6-0.5,1.2-0.8,2-0.9l0.5,1.9c-0.9,0.2-1.7,0.8-2.2,1.6
					c-0.3,0.5-0.4,1.1-0.4,1.6s0.2,1.1,0.4,1.5c0.6,1,1.7,1.5,2.9,1.6c0.5,0,1.1-0.2,1.5-0.4c0.5-0.3,0.9-0.7,1.1-1.2
					c0.5-0.8,0.5-1.8,0.2-2.7l1.9-0.6c0.3,0.7,0.4,1.4,0.3,2.2c-0.1,0.8-0.3,1.6-0.7,2.3C430.4,584.1,429.7,584.8,428.9,585.3z"/>
			</g>
			<g>
				<path class="st1" d="M430,570.1c0.9-0.3,1.9-0.1,2.7,0.4l3.8,2.1l-1,1.8l-0.8-0.5c0.4,0.8,0.3,1.8-0.2,2.5
					c-0.2,0.5-0.6,0.9-1,1.2c-0.3,0.3-0.8,0.4-1.2,0.5c-0.4,0-0.8-0.1-1.2-0.3c-0.6-0.3-1-0.8-1.1-1.5c-0.1-0.9,0.2-1.7,0.6-2.4
					l0.8-1.5c-0.4-0.2-0.8-0.3-1.2-0.1c-0.4,0.2-0.8,0.5-1,1c-0.2,0.4-0.3,0.7-0.4,1.1c-0.1,0.4-0.1,0.7,0,1.1h-1.7
					c-0.1-0.5,0-1.1,0.1-1.6c0.1-0.6,0.4-1.1,0.6-1.7C428.4,571.2,429.1,570.5,430,570.1z M433.7,574.2c0-0.3-0.1-0.7-0.4-0.9
					l-0.7-0.4l-0.7,1.3c-0.4,0.8-0.4,1.3,0.1,1.6c0.2,0.1,0.5,0.1,0.7,0c0.3-0.2,0.5-0.4,0.6-0.7
					C433.6,574.9,433.7,574.6,433.7,574.2L433.7,574.2z"/>
				<path class="st1" d="M437.6,570.1c-0.3,0.4-0.7,0.7-1.2,1l-1-1.4c0.4-0.2,0.7-0.5,1-0.8s0.6-0.7,0.9-1.1
					c0.4-0.8,0.5-1.3,0.1-1.6c-0.2-0.1-0.4-0.1-0.6,0.1c-0.3,0.3-0.5,0.6-0.8,0.9c-0.3,0.4-0.7,0.8-1,1.2c-0.3,0.3-0.7,0.5-1.1,0.6
					c-0.5,0.1-1,0-1.4-0.2c-0.4-0.2-0.7-0.6-0.9-1c-0.2-0.5-0.3-1-0.2-1.5c0.1-0.6,0.3-1.2,0.6-1.8c0.3-0.5,0.6-0.9,0.9-1.3
					c0.3-0.4,0.7-0.7,1.1-0.9l1,1.4c-0.6,0.4-1.2,1-1.5,1.6c-0.2,0.3-0.3,0.7-0.3,1c0,0.2,0.1,0.4,0.3,0.5c0.2,0.1,0.5,0.1,0.6-0.1
					c0.3-0.3,0.6-0.6,0.8-0.9c0.3-0.4,0.7-0.8,1-1.2c0.3-0.3,0.7-0.5,1.1-0.6c0.5-0.1,0.9,0,1.3,0.2c0.4,0.2,0.7,0.6,0.9,1
					c0.2,0.5,0.2,1,0.2,1.5c-0.1,0.6-0.3,1.3-0.7,1.8C438.4,569.2,438,569.7,437.6,570.1z"/>
			</g>
			<g>
				<path class="st1" d="M443,559.8c0,0.3,0,0.6-0.1,0.9c-0.1,0.3-0.2,0.6-0.4,0.9c-0.3,0.7-0.9,1.2-1.6,1.5
					c-0.7,0.2-1.5,0.1-2.1-0.3l-2.7-1.5l-0.6,1l-1.5-0.8l0.6-1l-1.6-0.9l1-1.9l1.6,0.9l0.9-1.7l1.5,0.8l-0.9,1.7l2.7,1.5
					c0.2,0.1,0.5,0.2,0.8,0.1c0.2-0.1,0.5-0.3,0.6-0.5c0.2-0.3,0.2-0.6,0.2-0.9L443,559.8z"/>
			</g>
			<g>
				<path class="st1" d="M444.5,551.1l-2.7,5c0.4,0.1,0.9,0.1,1.3-0.1c0.5-0.2,0.8-0.6,1-1.1c0.2-0.3,0.3-0.7,0.3-1s0-0.7-0.1-1
					l1.7-0.4c0.4,1.1,0.2,2.3-0.4,3.3c-0.4,0.7-0.9,1.3-1.5,1.8c-0.6,0.4-1.2,0.6-1.9,0.7c-0.7,0-1.4-0.1-2-0.5
					c-0.6-0.3-1.1-0.8-1.5-1.4c-0.4-0.6-0.5-1.3-0.5-1.9c0-1.4,0.7-2.8,1.9-3.6c0.6-0.4,1.2-0.6,1.9-0.6s1.4,0.2,2.1,0.5
					C444,550.8,444.2,550.9,444.5,551.1z M439.9,554.4c0.1,0.4,0.3,0.8,0.7,1.1l1.8-3.3c-0.4-0.2-0.9-0.2-1.3,0
					c-0.4,0.2-0.8,0.5-1,0.9C439.9,553.5,439.8,554,439.9,554.4L439.9,554.4z"/>
				<path class="st1" d="M438.8,546.3l1-1.9l9.2,5l-1,1.9L438.8,546.3z"/>
				<path class="st1" d="M440.9,542.6l1-1.9l9.2,5l-1,1.9L440.9,542.6z"/>
			</g>
		</g>
		<g>
			<path class="st1" d="M543.6,493.5l-0.5-3.3H543l-1.8-0.9l-1.2,2.5l-2-1l4.4-8.8l3.8,1.9c0.7,0.3,1.3,0.8,1.8,1.4
				c0.9,1,1.1,2.5,0.4,3.7c-0.6,1.2-1.8,2-3.2,1.9l0.6,3.8L543.6,493.5z M546.5,486.4c-0.3-0.5-0.7-0.9-1.2-1.1l-1.7-0.8l-1.5,3.1
				l1.7,0.8c0.5,0.3,1,0.4,1.6,0.3C546.3,488.4,546.8,487.4,546.5,486.4C546.5,486.5,546.5,486.5,546.5,486.4z"/>
			<path class="st1" d="M562.3,491.1l-4.7,9.3l-1.9-0.9l0.4-0.8c-0.8,0.3-1.8,0.3-2.6-0.2c-0.6-0.3-1.1-0.7-1.5-1.3
				c-0.4-0.5-0.6-1.2-0.6-1.8c0-1.4,0.7-2.8,1.8-3.7c0.5-0.4,1.2-0.6,1.8-0.6c0.7,0,1.3,0.1,1.9,0.4c0.8,0.3,1.4,1,1.6,1.8l1.6-3.3
				L562.3,491.1z M556.2,497.2c1-0.5,1.6-1.6,1.4-2.7c-0.3-1-1.5-1.6-2.5-1.2c-1,0.5-1.6,1.6-1.4,2.7
				C554.1,497,555.2,497.5,556.2,497.2L556.2,497.2z"/>
			<path class="st1" d="M567.4,501.8l-5.1-2.6c-0.1,0.4-0.1,0.9,0.2,1.3s0.6,0.8,1.1,1c0.3,0.2,0.7,0.3,1,0.3s0.7,0,1-0.1l0.5,1.7
				c-1.1,0.4-2.3,0.3-3.3-0.3c-0.7-0.3-1.3-0.8-1.8-1.5c-0.4-0.6-0.7-1.2-0.7-1.9c-0.1-0.7,0.1-1.4,0.4-2s0.8-1.2,1.4-1.6
				c0.6-0.4,1.2-0.6,1.9-0.6c1.4,0,2.8,0.6,3.7,1.8c0.4,0.5,0.6,1.2,0.7,1.9c0,0.7-0.1,1.4-0.5,2.1
				C567.7,501.3,567.6,501.5,567.4,501.8z M563.9,497.3c-0.4,0.1-0.8,0.4-1.1,0.8l3.3,1.7c0.1-0.4,0.1-0.9,0-1.3
				c-0.2-0.4-0.5-0.7-0.9-0.9C564.8,497.3,564.4,497.2,563.9,497.3L563.9,497.3z"/>
			<path class="st1" d="M572,507.4c-0.5-0.4-0.9-0.9-1.2-1.5l1.5-1.2c0.3,0.5,0.6,0.9,1,1.3c0.4,0.4,0.9,0.8,1.4,1
				c0.4,0.3,0.9,0.4,1.4,0.4c0.3,0,0.6-0.2,0.8-0.5c0.1-0.2,0.1-0.4,0-0.6c-0.1-0.2-0.3-0.5-0.5-0.6c-0.2-0.2-0.5-0.5-0.9-0.8
				c-0.5-0.4-1-0.8-1.4-1.3c-0.3-0.4-0.6-0.8-0.7-1.3c-0.1-0.6,0-1.1,0.2-1.6s0.6-0.9,1.1-1.2c0.5-0.3,1.1-0.4,1.7-0.4
				c0.8,0.1,1.5,0.3,2.2,0.7c0.6,0.3,1.1,0.6,1.5,1s0.8,0.8,1.1,1.3l-1.4,1.2c-0.5-0.8-1.2-1.5-2.1-1.9c-0.4-0.3-0.9-0.4-1.4-0.4
				c-0.3,0-0.6,0.2-0.8,0.5c-0.2,0.3-0.1,0.7,0.1,0.9c0.4,0.4,0.8,0.8,1.2,1.2c0.5,0.4,1,0.8,1.4,1.3c0.3,0.4,0.6,0.8,0.7,1.3
				c0.1,0.6,0,1.1-0.2,1.6s-0.6,0.9-1.1,1.2c-0.5,0.3-1.1,0.4-1.8,0.4c-0.8-0.1-1.5-0.3-2.2-0.7C573.2,508.4,572.6,507.9,572,507.4z
				"/>
			<path class="st1" d="M587.1,507.5c0.3,0.9,0.2,1.9-0.3,2.7l-1.9,3.9l-1.8-0.9l0.4-0.8c-0.8,0.4-1.8,0.4-2.5-0.1
				c-0.5-0.2-0.9-0.5-1.2-0.9c-0.3-0.3-0.5-0.7-0.5-1.2c0-0.4,0-0.8,0.2-1.2c0.3-0.6,0.8-1,1.5-1.1c0.9-0.1,1.7,0.1,2.5,0.6l1.6,0.8
				c0.2-0.4,0.2-0.8,0.1-1.2c-0.2-0.4-0.6-0.8-1-0.9c-0.4-0.2-0.7-0.3-1.1-0.4c-0.4-0.1-0.7-0.1-1.1,0v-1.7c0.5-0.1,1.1-0.1,1.6,0.1
				c0.6,0.1,1.2,0.3,1.7,0.6C586,505.9,586.7,506.6,587.1,507.5z M583.1,511.3c0.3,0,0.7-0.2,0.9-0.4l0.3-0.7l-1.3-0.7
				c-0.8-0.4-1.3-0.3-1.6,0.2c-0.1,0.2-0.1,0.5,0,0.7c0.2,0.3,0.4,0.5,0.7,0.6C582.4,511.3,582.8,511.3,583.1,511.3z"/>
			<path class="st1" d="M591.4,505.6l2,1l-4.7,9.3l-2-1L591.4,505.6z"/>
			<path class="st1" d="M598.7,513.2c0.3,0.9,0.2,1.9-0.3,2.7l-1.9,3.9l-1.8-0.9l0.4-0.8c-0.8,0.4-1.8,0.4-2.5-0.1
				c-0.5-0.2-0.9-0.5-1.2-0.9c-0.3-0.3-0.5-0.7-0.5-1.2c0-0.4,0-0.8,0.2-1.2c0.3-0.6,0.8-1,1.5-1.1c0.9-0.1,1.7,0.1,2.5,0.6l1.6,0.8
				c0.2-0.4,0.2-0.8,0.1-1.2c-0.2-0.4-0.6-0.8-1-0.9c-0.4-0.2-0.7-0.3-1.1-0.4c-0.4-0.1-0.7-0.1-1.1,0v-1.7c0.5-0.1,1.1-0.1,1.6,0.1
				c0.6,0.1,1.2,0.3,1.7,0.6C597.6,511.7,598.3,512.4,598.7,513.2z M594.7,517.1c0.3,0,0.7-0.2,0.9-0.4l0.3-0.7l-1.3-0.7
				c-0.8-0.4-1.3-0.3-1.6,0.2c-0.1,0.2-0.1,0.5,0,0.7c0.2,0.3,0.4,0.5,0.7,0.6C594,517,594.4,517.1,594.7,517.1z"/>
			<path class="st1" d="M604.6,521.9l-0.8,1.5l-6-3l0.6-1.2l5.5-2.4l-3.4-1.7l0.8-1.5l5.8,2.9l-0.6,1.2l-5.5,2.4L604.6,521.9z"/>
			<path class="st1" d="M613.3,520.5c0.3,0.9,0.2,1.9-0.3,2.7l-1.9,3.9l-1.8-0.9l0.4-0.8c-0.8,0.4-1.8,0.4-2.5-0.1
				c-0.5-0.2-0.9-0.5-1.2-0.9c-0.3-0.3-0.5-0.7-0.5-1.2c0-0.4,0-0.8,0.2-1.2c0.3-0.6,0.8-1,1.5-1.1c0.9-0.1,1.7,0.1,2.5,0.6l1.6,0.8
				c0.2-0.4,0.2-0.8,0.1-1.2c-0.2-0.4-0.6-0.8-1-0.9c-0.4-0.2-0.7-0.3-1.1-0.4c-0.4-0.1-0.7-0.1-1.1,0v-1.7c0.5-0.1,1.1-0.1,1.6,0.1
				c0.6,0.1,1.2,0.3,1.7,0.6C612.2,518.9,612.9,519.6,613.3,520.5z M609.3,524.4c0.3,0,0.7-0.2,0.9-0.4l0.3-0.7l-1.3-0.7
				c-0.8-0.4-1.3-0.3-1.6,0.2c-0.1,0.2-0.1,0.5,0,0.7c0.2,0.3,0.4,0.5,0.7,0.6C608.6,524.3,609,524.4,609.3,524.4z"/>
			<path class="st1" d="M619,522.7c0.5,0,1,0.2,1.5,0.4l-0.9,1.8c-0.2-0.1-0.4-0.2-0.4-0.2c-0.5-0.3-1-0.3-1.6-0.2
				c-0.5,0.2-1,0.6-1.2,1.2l-1.6,3.2l-2-1l3.4-6.8l1.9,0.9l-0.4,0.9C618.1,522.8,618.5,522.7,619,522.7z"/>
		</g>
	</g>
	<g id="_x5F_Strokes_1_">
		<path class="st2" d="M668,281.6c-5.3-3.3-14.8-12.3-20.4-20.4c-5.5-8.1-16.9-17.8-21.4-21.2c-4.5-3.5-12.3-12.8-15-18
			s-11.7-14.2-15-14.8s-10,0.7-16.7,5.4c-6.7,4.7-49.2,33.2-60.1,39.2s-40.6,29-42.6,33.5c-2.1,4.5-13.5,32.8-10.2,41.6
			c3.3,8.8,4.1,15.9,4.3,19.9s0,7.9-8.5,6.6c-8.5-1.4-18.8,7.1-25.6,11.7c-6.7,4.7-29,22.4-34.5,16.7s-49.7-51.6-56.8-58.2
			c-7.1-6.6-8.8-10.4-15-3.8c-6.2,6.6-26.4,23.7-29.7,31.8c-3.3,8.1-25,69.8-28.3,76.5s-12.8,23.8-14,28.1c-1.2,4.3-2.4,9-8.8,16.2
			c-6.4,7.3-19.2,25.6-19.2,37.3c0,11.7-3,17-5.7,25.6c-2.8,9.1-7.4,31-13.5,38.6s-6.7,16.7-8.8,26.9s-2.8,18.8-7.1,26.2
			c-4.3,7.4-9.5,12.3,0,15.4c9.5,3.1,41.1,11.6,49,15.5c7.9,4,17.3,6.9,21.4,9c4.1,2.1,8.1,4,2.9,10.4c-5.2,6.4-30.2,36.8-36.1,43.9
			c-5.9,7.1-9,12.6-12.9,19.3c-4,6.7-8.1,10.2-3.1,17.1c5,6.9,15.2,18.5,24,20.2s15,3.8,20.5,1.6c5.5-2.2,5.7-1.8,10.2,1
			c4.5,2.8,10.4,7.1,11.4,11.3c1,4.1,2.8,14.5,6.6,21.1c3.8,6.6,11.7,12.4,17.4,10.2c5.7-2.2,9-8.5,14.5-7.6
			c5.5,0.9,10,1.4,11.7-6.4c1.7-7.8,21.1-63.5,23.7-71.8s4-14.7,9.2-17.8c5.2-3.1,10.9-0.2,14.2-2.9s1.7-11.4,6.9-14
			c5.2-2.6,8.3-1.4,9.3,1.9c1,3.3,3.3,13.8,2.2,17.3c-1,3.5-0.9,14.3,4.1,19.3c5,5,2.4,0.7,2.9-7.9c0.5-8.6,4-20,7.6-23.3
			c3.6-3.3,9.8-2.6,13.1-1s6.3,7.6,6.6,12.8c0.3,6.4,1.4,13.6,1.7,18.5c0.3,4.8,0.3,11.2,0.5,16.2s6,12.7,7.9-0.2
			c0.9-5.7,0.9-30.6,1.7-37.8c0.9-7.3,1.2-13.3,3.5-15.4c2.2-2.1-2.8-11.1-6.6-14.8c-3.8-3.8-0.5-10.9,5-9s13.8,11.4,21.8,5.5
			c7.9-5.9,5.7-18.5,9.8-19.7s5.2-0.3,10.4-5c5.2-4.7,16.4-12.8,8.6-10.2c-7.8,2.6-9.5,6.2-14.8,1.7c-5.4-4.5-3.5-15.9,1-19.9
			c4.5-4,14.5-9.3,19.2-12.2c3-1.9,10.1,1.5,10.2,5c0.3,5.1,0.5,11.2-1.5,14.3c-3.2,5.1-4.9,8.3,3,6.6c2.9-0.6-0.3,12.1-3.1,16.2
			c-2.8,4.1-26.9,28.8-36.8,37.8c-9.8,9-10.6,21.4,6.5,6.2c17.1-15.2,43.3-38.6,45.2-52.5c1.5-11,0.8-15.9,0.2-19.8
			c-0.5-3.2-2.9-9.3-3.8-13.6c-0.8-4.1,0.8-11.4,5.2-15c4.2-3.5,11.9-10.9,15-12.4c2.5-1.2,7.9-9.7,11.1-10.4
			c3.1-0.7,18-10,21.9-9.8c4,0.2,7.9-6,9.2-9.5c1.2-3.5,15.7-16.2,19.5-18c3.8-1.7,16.7-5.7,19.9-8.5c3.1-2.8,20.7-7.8,28.3-13.6
			s15.4-17.4,19.7-19c4.3-1.6,13.3-10,19-9.5c5.7,0.5,10.4-0.9,15.5,2.2s25.2,9.3,28.5,11.6s7.9,18.5,8.8,23.7
			c0.9,5.2-2.6,9.5,8.8,11.7s18.5,3.8,24.3,2.9c5.9-0.9,4.5,8.8,14.2,8.5s20.5,0.5,29.4,2.6c8.8,2.1,15.2,4.1,19.2,2.4
			c4-1.7,5.2-4,9.5-0.9s9.3,5,14,2.4c4.7-2.6,16.2-0.5,21.4-0.5s22.1,1.7,15.9-4.7s-14.7-16.2-24.7-25.6c-5.8-5.5-4.5-22.7-4.9-42.2
			c-0.7-29.2,0.3-73,1.4-84.4c1-11.4,5.4-24.3-0.7-29.7c-6-5.4-27.8-29.9-35.4-35.9c-7.6-6-11.1-5.7-13.1-17.3
			c-2.1-11.6-2.6-16.6-10.9-9c-8.3,7.6-13.6,12.9-19.2,16.6c-5.5,3.6-20.5,17.4-28.5,13.8c-7.9-3.6-29.5-20.9-40.4-17.6
			c-5.1,1.5-10-3.6-14.5-6.7C705.1,314.8,671.7,283.9,668,281.6"/>
		<path class="st2" d="M701.5,494.4c0,0-4.8-3.6-5.1-11.1s-2.3-14.8-9.3-20.7c-7-6-11.9-18.1-16.8-33.2c-4.9-15-8-26.2-7.3-30
			s9.6-10.6,16.6-16.6c7-6,10.9-7.8,10.9-17.9s-2.5-23.8,0.2-28.5c4.1-7.1,18-9.2,27.8-12.5"/>
		<path class="st2" d="M469,352.7c0,0,9.9,3.6,18.7,3.1c8.8-0.5,15.5-5.4,27.7-1.5s17.1,7.2,28,12.7c10.9,5.4,8.3,8.5,19.9,11.7
			s16.1,3.4,20.7,6.2s6.5,6.2,17.6,6.2c11.1,0,32.8-0.3,38.8,1.6c6.4,2,24.4,18.9,24.4,18.9"/>
		<path class="st2" d="M401.5,381c0,0,9.7,10.3,11.8,17.4s7.8,28.5,9.3,35.9c1.6,7.4,5.4,19.5,6.4,23.8c1,4.3,0.7,9.7,10.9,8.1
			c10.2-1.6,49-6.4,56.6-6.9c7.6-0.5,12.9-0.5,13.3,2.9c0.3,3.5,0,14.8,4.8,14.5c4.8-0.3,22.8-1.6,29-2.9s11.6,0.5,11.1-7.9
			c-0.5-8.5-2.2-16.4,3.3-16.4c5.5,0,23-0.9,28.3-0.2c5.4,0.7,20.5,4.5,26.1,5.7c5.5,1.2,8.5,0.3,12.1-8.6c3.6-9,9.8-19.9,12.8-25.2
			c2.9-5.4,5.2-14.9,10-9.6s8.6,13.5,23.5,19.7"/>
		<path class="st2" d="M512.4,475.8c0,0-0.9,8.2,0,11.7c0.9,3.5,6.9,8.5,14.2,11.1c7.3,2.6,23.1,10,27.3,11.9
			c4.1,1.9,5.9,5.5,7.3,8.3c1.4,2.8,9.2,10.9,11.4,13.1c2.2,2.2,10.7,5.4,16.1,6c5.4,0.7,14.8,3.2,19.6,5.2"/>
		<path class="st2" d="M550.9,583.7c0,0-2-3.9-1.7-12.9c0.3-9,2.2-16.6-2.2-14.5s-6.7,6.4-16.7,5.5c-10-0.9-16.4-3.1-19,0.9
			c-2.6,4-11.9,17.6-16.1,20c-4.1,2.4-6.7,5.9-6.7-1.9c0-7.8-1.9-16.9,1.2-17.1c3.1-0.2,4.7-2.6,7.8-5c3.1-2.4,6.2-5.5,9.2-10.2
			c2.9-4.7,4.5-7.9,8.3-9.8c3.8-1.9,9.8-3.3,6.7-4.8s-6-4.3-2.2-10c3.8-5.7,13.1-23,13.1-23"/>
		<path class="st2" d="M271,673.7c0,0,7.5-6.4,11.4-9.8c4-3.5,9.2-5.4,4.1-7.1c-5-1.7-23.8-7.8-26.9-9.5s-6.9-2.4-8.1-7.6
			c-1.2-5.2-5.9-11.7-8.1-14.2c-2.2-2.4-9.3-3.6-6.9-10s4-10.9,0.3-16.4c-3.6-5.5-12.8-12.9-12.5-18.6c0.3-7.1,9.4-16.4,11.3-22.1
			c1.9-5.7,1.4-12.3,2.8-17.4c1.5-5.4,9.1-11.8,8.4-17.2c-0.7-5.6,0.4-9.9,4.8-11c5.7-1.5,8.3,2.8,9.7,7.6c1.6,5.6,6.6,14.1,11,19.6
			c4.3,5.5,14.8,15.8,20.2,19.4s15.5,10,26.8,12.6s15.9,3.3,25.7,5c9.8,1.7,18.8,5.2,25.4,7.8s18.5,10.9,25.7,12.8s43,11.4,43,11.4"
			/>
		<path class="st2" d="M449.8,680.5c0,0-0.9-9.5-3.5-21.4c-2.6-11.9-7.1-27.5-7.3-35.2c-0.2-7.8-1-17.6,1-23.7
			c2.1-6,11.4-8.6,9.7-12.4c-1.7-3.8-7.1-10.2-2.6-10.5c4.5-0.3,9.3-5,11.4-5c2.1,0,3.8-5.4,6.4-5.4c2.6,0,6.4,1.9,9.8-1.2
			s9.2-9.2,14.8-1.9"/>
		<path class="st2" d="M462.8,568.1c0,0,0.5-5.6,2.9-11.1c2.4-5.5-0.3-7.9-1.5-13.8c-1.1-5.9-0.9-9.9,0-13.7
			c0.9-3.8-2.9-9.2-5.1-13.7c-2.2-4.5-2.6-3.6-8.3-3.4s-12.9,8.1-15.5,2.7c-2.6-5.3-5.4-9-5.4-9"/>
		<path class="st2" d="M325.2,573.4c0,0,3.8-8.2,5.5-14.6s3.6-10.5,9.4-16.4c5.9-5.9,38-39.5,42.8-43.2c4.8-3.6,8.6-5.5,11.6-1.6
			c2.9,4,9.7,13,10.7,15.7s-0.5,11.4,2.2,13.8c2.8,2.4,7.3,5.7,11.1-2.2c3.8-7.9,5.4-12.8,13.5-18.6s23.7-14.3,28.5-17.3
			c4.8-2.9,3.5-8.6,0.9-12.3s-8.8-12.3-8.8-12.3"/>
	</g>
</svg>
