<?xml version="1.0" encoding="utf-8"?>
<!-- Generator: Adobe Illustrator 24.0.2, SVG Export Plug-In . SVG Version: 6.00 Build 0)  -->
<svg version="1.1" id="Capa_1" xmlns="http://www.w3.org/2000/svg" xmlns:xlink="http://www.w3.org/1999/xlink" x="0px" y="0px"
	 viewBox="0 0 1080 1080" style="enable-background:new 0 0 1080 1080;" xml:space="preserve">
<style type="text/css">
	.st1{fill:none;stroke:#FFFFFF;stroke-width:8;stroke-miterlimit:10;}
	.st2{fill:#FFFFFF;}
</style>
<g id="3_Tamarit_-_Playa_Lissa" class="zone">
	<path class="st0" d="M436.1,529.9c-4.2-17.4-9-37.1-16.8-39.9c-12.4-4.3-33.1-11.6-46.7-28.5c-1.3-1.6-2.6-3.3-4.1-5.1
		c-12.2-15.3-35-43.9-44.3-47.5c-6.3-2.5-24.9-11.1-40.9-19.4c-20.3-10.6-28.6-16.6-32-20.3c-1.6,0.8-3.3,1.5-5.1,2.1
		c-14.1,5-25.2,9.5-28.2,17.1c-4.7,11.9-19.1,32.1-20.7,34.4c-5.8,8.1-16.7,20.4-43.4,32.9c-3.3,1.5-6.4,3-9.5,4.5
		c-21,10-37.7,18-57.1,16.1c-9.7-1-19.7-3-29.4-5c-11.2-2.3-21.8-4.4-29-4.2c-5.4,0.1-11.3-1-16.5-1.9c-3.8-0.7-9.4-1.8-11.4-1.3
		c0,0.1,0,0.2,0,0.3c0.4,2.8,0.9,5.8,1.5,8.9c1.5,8.3,3.2,17.7,3.1,28.3c-0.1,14.4-4.3,21.8-8.8,29.6l-0.9,1.6
		c-4.2,7.5-13.1,23.2-26,31c-10.6,6.3-41.2,33.1-52.1,53.4l-1.7,3.2c-10.1,18.8-15.7,29.2-35.2,49.7c-5.7,6-13.3,14.8-21.2,24.1
		c-26,30.4-45.3,52.1-56.9,55c-8.1,2-36.1,10.5-63.2,18.6c-25.6,7.7-52.1,15.7-62.9,18.6c-23.5,6.3-30.5,9.6-29,18.5
		c1.5,8.2,5.7,24.3,9.1,37.2c2,7.5,3.7,14,4.6,18l0.3,1.4c2.3,10,3.2,14.2,19.9,14.4c4.8,0.1,10.7,0,17,0c27.5-0.2,45.9,0,51.6,3.5
		c1.1,0.7,2.3,1.5,3.7,2.5c7.5,5.2,20.1,13.8,36.3,12.2c17.7-1.8,65.5-4.4,89-4.4c4.4,0,7.9,0.1,10.2,0.3c11.7,1,39.5,4.2,44.9,10.7
		c2.2,2.6,3.1,6.2,4.1,9.7c0.9,3.5,1.9,7.2,3.8,8.2c4.4,2.3,5.2,7.4,5.8,11.5c0.8,5.6,1.5,6.9,3.4,7.2c3.3,0.5,6.6,0.8,9.9,0.9
		c6.6,0.4,12.8,0.7,17.4,3.5c7.4,4.5,10.6,15.8,7.4,26.3c-3.5,10.7-7.8,21.1-13,31.1c-8.2,14.8-12,28.5-9.2,32.7
		c5.1,7.4,16.9,12.6,28.1,12.4c5.7-0.1,16.3-1.9,22.5-12.2c17.6-28.9,84.6-142.2,88.6-159.4C108,851.6,122,811,138.9,791
		c9.5-11.3,29.9-31,48-48.5c13.7-13.2,26.6-25.7,32.2-32c13.5-15.2,80.8-66.5,102.1-72.3c9-2.5,12.5-0.5,15.2,3.6
		c0.8,1.1,0.8,1.1,2.2,1c3.6-0.2,10.6-2.8,20.6-7.5c39.5-18.5,47.1-18.7,65.5-19l1.4,0c5.8-0.1,11.6,0.3,17.3,1.5
		c1.4,0.2,2.6,0.5,3.8,0.6c-0.6-13.9-2.8-57.7-6.6-70.9C439,541.8,437.5,535.7,436.1,529.9z"/>
</g>
<g id="3_Gran_Playa" class="zone">
	<path class="st0" d="M562.3,563.7c4.9-0.2,8.3-5.3,11.6-10.3c0.9-1.4,1.8-2.8,2.8-4c-7.2-4.2-15.9-9.5-25.2-15.3
		c-7.4-4.6-15.1-9.3-22.4-13.7c-26.1-15.6-100.5-62-121.8-76.8c-22.6-15.8-38.3-27.2-49.8-40.8c-10.9-12.9-48-60-58.6-73.4
		c-3.8,3.8-7.3,7.3-10.5,10.2c-2.8,2.5-5.3,4.8-7.7,7c-8.8,8-15.3,14-22.2,18.5c3,2.6,10.6,8,30.2,18.2
		c15.9,8.2,32.7,15.9,38.3,18.1c10.4,4.1,28.5,26,47.6,50c1.5,1.8,2.8,3.6,4.1,5.1c12.2,15.2,30.8,21.7,43.1,26
		c11.9,4.2,16.8,24.3,21.9,45.5c1.4,5.8,2.9,11.8,4.4,17.2c4,14.1,6.2,57.9,6.9,72.4c1-0.3,2.2-0.7,3.4-1.1
		c14.1-5.4,59.1-9.9,76-9.9c6.9-0.1,13.7,1.7,19.6,5.2c-0.6-6.4-1.4-15.2-2.5-23.4c-0.1-0.9-0.2-1.8-0.4-2.6
		c-1-6.9-1.9-13.5,1.8-17.9C555.1,565.3,558.2,563.9,562.3,563.7z"/>
</g>
<g id="3_Zona_Norte" class="zone">
	<path class="st0" d="M411.8,437c21.1,14.8,95.3,60.9,121.3,76.5c7.4,4.4,15.1,9.2,22.5,13.8c9.7,6,19.1,11.8,26.5,16.1
		c7.4-8.8,28.8-41.8,35.2-52.4c0.9-1.4,1.9-2.9,2.9-4.5c4.1-6.2,8.7-13.2,9.8-21c0.6-3.9,2.6-14.2,5.2-27.2
		c4.8-24.2,11.4-57.4,12.7-71.2c2-20.2,8.3-76,8.9-81.7c-0.6-3.8-0.7-7.7-0.2-11.5c0.7-7.1,0.4-17.7,0-28.9
		c-0.6-17.3-1.2-35.2,2-44.3c5.1-14.5,41.4-120.5,48.7-142.1c1.2-3.6,2.4-7,3.6-10.2c5.9-16.6,8.5-24.9,3.4-32.4
		c-8-11.8-14.8-20.4-29.7-24.8c-1.1-0.3-2.1-0.6-3.2-1c-15.1-4.6-27.1-8.2-42.9,4.9c-3.9,3.2-7.8,6.2-11.5,9.1
		c-13,10-23.2,17.9-22.8,27.2l0.1,2.1c0.6,16.1,1,26.8-6.1,29.1c-3.6,1.2-8,4.6-8.7,6c-0.8,4.3-3.9,10.2-14.3,14.2
		c-8,3.1-14.4,8.4-22.7,16.6c-1,1-2.3,2.2-3.8,3.7c-10.1,9.8-31.3,30.3-38.6,42.2c-2.9,4.8-5.4,9.8-7.5,14.9
		c-3.8,8.5-8.1,18.2-18,30.6c-18.7,23.6-44.1,52.8-59.5,58c-4.2,1.4-11.1,3.4-19.1,5.6c-19.6,5.5-49.3,13.9-56.1,20.1
		c-4.2,3.9-12.5,13-22,23.5c-7.7,8.5-16,17.7-23.7,25.8c9.5,12.1,48,61,59.1,74C374.4,410.5,389.7,421.6,411.8,437z"/>
</g>
<g id="3_Puerto" class="zone">
	<path class="st0" d="M634.8,620.5c-0.2-0.9-0.7-1.7-1.5-2.2c-0.9-0.7-2.1-1.1-3.2-0.9c-5,1.7-10.3-3.1-18.4-10.3
		c-3.1-2.7-6.3-5.6-9.4-8c-13.6-10.4-7.1-22.8-3.3-30.2c1.6-3.1,2.1-5.4,1.4-6.9c-0.7-1.8-3.3-3.4-7.7-4.7c-3.1-1.1-6.1-2.4-9-4
		c-1,1.3-2.1,2.9-3.2,4.5c-4,6-8.9,13.4-17.9,13.9c-1.2,0.1-2.8,0.3-3.5,1.1c-1.4,1.7-0.7,7,0,11.7c0.1,0.9,0.2,1.8,0.4,2.7
		c1.8,13.3,2.9,28.2,3.3,32.3c2.6,3.4,4.4,7.4,5.3,11.6c2.3,11,7.3,22.7,11.9,27.9c5.4,6.1,9,11.1,7.1,21.1
		c-0.5,2.6,0.1,4.1,0.4,4.3c0.4,0.2,2.8,0.2,7.6-4c3.8-3.4,7.4-7,10.7-10.8c4-4.5,6.8-7.7,11-8.8c4.3-1.2,12-7.6,12.8-10.8
		c1.4-5.4,7.3-11.7,13.4-14.9c-1-2.2-2.4-4.2-4-6C637,626.6,634.8,624,634.8,620.5z"/>
</g>
<g id="3_Centro" class="zone">
	<path class="st0" d="M607.2,592.8c3.4,2.6,6.7,5.5,9.9,8.3c3.6,3.2,8.9,7.9,10.9,8.5c3.5-0.8,7.2-0.1,10,2.1
		c0.1,0.1,0.3,0.2,0.4,0.3c7.4-10.1,12.9-26.5,17.4-40c2.8-8.6,5.3-16,7.9-20.9c0.8-1.5,3.1-5.9,16.7-11.3c4.1-1.8,8-4,11.7-6.5
		c0-2.1,0.6-4.1,1.7-5.8c1.2-2,3.6-5.7,7-10.8c7.2-10.8,18-27.2,26.7-42.5c13.6-24,14-31.6,13.5-33.7l-0.5-2.6
		c-3-14.5-7.6-36.5-17.8-39.7c-10.8-3.4-53.6-16.7-67.7-21.1c-2.5,16.6-7.7,42.7-11.7,62.7c-2.5,12.4-4.6,23.1-5.1,26.8
		c-1.4,9.6-6.8,17.8-11.1,24.3c-1,1.5-2,3-2.8,4.3c-0.3,0.4-24,38.4-34.9,52.1c1.9,1,3.8,1.8,5.8,2.5c4.4,1.4,10.4,3.8,12.7,9.3
		c1.6,3.9,1,8.3-1.7,13.7C601.2,582.3,600.1,587.4,607.2,592.8z"/>
</g>
<g id="3_Playa_Levante" class="zone">
	<path class="st0" d="M695.1,592.1c-1.4-6.3-0.1-12.9,3.5-18.1c2.9-4.3,6.3-8.2,9.9-11.9c2.3-2.4,5.4-5.7,6-7.2
		c-1.8-1.3-3.7-2.6-5.7-3.7c-4.3-2.6-10.2-6-13.8-10.4c-3.8,2.5-7.7,4.6-11.9,6.4c-8,3.2-11.8,6.1-12.6,7.6
		c-2.3,4.3-4.8,11.8-7.4,19.7c-5,15.2-11.2,33.9-20.6,44.9c0,0.4,0.1,0.7,0.1,1.1c0,0.6,1.5,2.4,2.5,3.6c2.2,2.5,4,5.3,5.3,8.3
		c7.4-2.3,17-5.1,22.6,0.2c0.9,0.9,1.7,1.7,2.4,2.4c3,3.1,3,3.1,4.9,2c0.4-0.3,0.9-0.6,1.4-0.9c1.8-1.2,3.9-2.5,6.1-3.7
		c1.1-3.3,3.6-11.7,3.3-17.8c-0.6-14.3,1.8-19.2,4-21.5C695.3,593,695.2,592.5,695.1,592.1z"/>
</g>
<g id="3_Calas_de_Santiago_Bernabeu" class="zone">
	<path class="st0" d="M795.8,603.9c3.6-8,4.8-14.7,5-38.1c0-4.5,0-9,0-13.8c-0.2-21.4-0.4-43.4,5.6-60.4
		c6.3-17.7,39.7-105.3,47.1-124.7c-83.7-30.6-165.2-60.6-173.3-63.6c-1-0.4-2-0.8-3-1.1c-5.3-1.9-9.8-3.6-13.3-6
		c-2.1,18.3-6.3,55.9-7.8,71.6c0,0.4-0.1,0.8-0.1,1.3c12.5,3.9,57.8,17.9,69,21.5c14.7,4.6,19.6,28.4,23.2,45.7l0.5,2.6
		c2.6,12.4-14.6,41.9-41.3,82.3c-3.2,4.8-5.7,8.6-6.8,10.5c-2.2,3.7,4.6,8.2,12.4,12.8c3.7,2.2,6.6,3.9,8.2,5.8
		c4.6,5.6-1.2,11.6-6.8,17.5c-3.3,3.3-6.4,6.9-9,10.7c-3.5,5.4-2.9,9.3-2.4,12.4c0.4,2.5,1,5.9-2,8.3c0,0-2.2,2.3-1.7,15.5
		c0,5-0.7,9.9-2,14.7c2.6-0.4,5.2,0,7.6,1.1c2.1,1.1,4.1,2.5,5.8,4.1c0.5,0.4,1.1,0.9,1.5,1.2c0.1,0,0.1-0.1,0.2-0.1
		c4.9-3.5,14.5-7.3,20.3-4.8c1.8,0.9,3.5,1.9,5,3.2c1.4,1.1,2.9,2.1,4.5,2.8c4.8-4.7,15.8-7.3,22.2-5.2c3.7,1.2,5.4,4.1,6.4,5.9
		c0,0,0.1,0.1,0.1,0.1c2.6-1,5.4-1.4,8.2-1.1c0.8-5.5,2.1-13.9,3.6-17.2c1.1-2.5,3.1-4.1,5.2-5.8C791.3,611.1,794,607.8,795.8,603.9
		z"/>
</g>
<g id="3_Calas_de_Santa_Pola_Este" class="zone">
	<path class="st0" d="M1042.9,435c-7.9-2-95-33.6-182-65.4c-7.3,19.1-40.8,107-47.1,124.6c-5.5,15.7-5.4,37-5.2,57.7
		c0,4.8,0.1,9.4,0,13.9c-0.2,24.9-1.6,32.1-5.7,41.3c-2.2,5-5.8,9.4-10.2,12.6c-1.1,0.7-2.1,1.7-2.9,2.8c-1,2.2-2.4,10.6-3.2,17
		c0.6,0.5,1.2,1,1.7,1.6c1.7,1.9,3.3,5,5,8.4c0.6,1.1,1.3,2.6,2.1,4c2.8-5.4,8.3-13.2,18-15.9c10.5-3,17.9-3.2,22.5-0.7
		c1,0.5,1.9,1.2,2.9,1.8c1.1,0.7,3.3,2.2,4,2.1c0.2-0.2,0.4-0.3,0.5-0.5c4.1-5.5,7.1-9.5,11.9-8.7c2.3,0.4,3.1,0.3,4.2-1.2
		c3.5-4.7,9.7-7.4,13.7-5.9c3.1,1.1,3.8,0.4,4.5-0.5c3.6-5.1,12.7-8.5,17.4-6.4c1.1,0.4,2.3,0.4,3.5,0.1c2-4.6,11.8-11.1,17.2-10.3
		c3.3,0.5,3.8,0.1,4.7-1.1c2-2.5,7.2-4.8,18.6-9.3c4-1.6,7.7-3.1,10.2-4.3c9.6-4.6,34.9-19.7,37.3-23.5c1.9-3.2,5.5-7.3,10.1-12.5
		c3.7-4.2,8-9,11.9-14.1c1.7-2.2,3.2-4,4.5-5.7c5.2-6.5,6.9-8.7,8.2-13c1.2-4,5.6-10.4,10.8-17.7c3.9-5.6,8-11.3,9.7-15
		c2.4-5.1,6.8-14.5,6-18.7c-2-10.7-1-19.5,3-26c1.9-3.2,2.7-5.4,2.2-6.5C1052.5,439.1,1050.9,437,1042.9,435z"/>
</g>
<g id="_Strokes">
	<path class="st1" d="M-39.4,1033.9c10.5,15.5,43.9,21.9,57.3,0c9.8-16.1,84.6-141.2,89.1-160.6s18.3-60.1,34.9-79.8
		s67-65.6,80.1-80.5s80.1-65.6,100.1-71.1s-1,15.5,38.7-3.1s46.3-18.3,65.3-18.6s20.4,5.2,33.8,0s57.7-9.7,74.6-9.7
		s27.3,10,29.7,21.4s7.6,23.8,12.8,29.7s7.7,9.7,6.1,17.7s3.6,13.7,14.6,4.1s14.8-17.4,20.1-18.8s14.4-8.7,15.7-13.6
		s8.2-11.8,14.4-13.6s17.7-6.5,22.5-1.9s6.6,8.4,12.2,4.9s14.4-9.7,20.5-6.6s7.3,8,11.7,4.9s12.4-6.1,16.4-4.4s10.1,9.1,13.7,5.3
		s13.5-6,18.3-4.4s4.1,8.3,8.3,6.3s10.1-2.1,14,2.2s9.5,21.6,12.2,14.6s8.3-14.6,17-17.1s15.7-3.1,19.6-1s8.7,7.3,12.4,2.2
		s5.7-7.5,8-7.1s5.4,0.8,8-2.7s7-5.3,9.2-4.5s6.3,1.9,9.1-1.9s9.8-6.2,12.6-5s7.6,0.9,8.7-1.9s9.3-8.5,13-8s6.1,0.4,8.4-2.6
		s20.1-8.9,27.3-12.4s35.9-19.8,39-25.1s13.1-15,21.8-26.2s11.5-13.7,13.3-20.1s16.3-23.6,20.3-32.1s7.3-16.2,6.3-21.1
		s-2.3-15.3,2.5-23.2s5.2-13.5-10.1-17.4S697.6,305.5,681.6,299.6s-22.5-7-20.7-25.4s-3.1-58.3,1.8-72.3S703.8,82,711.4,59.7
		s14.2-34.7,6.5-46.1S702.6-7.9,686-12.8s-31.1-10.7-49.7,4.7S600,17,600.5,31.4s1.2,25.8-3.2,27.2s-10.9,6-11.4,8.9
		s-2.7,7.8-11.8,11.3s-15.9,9.5-24.1,17.5s-34.3,32.6-43,46.6s-10,25.9-25.3,45.2s-42.5,51.5-57.6,56.7s-66.3,17.1-76.7,26.5
		s-43.1,48.4-61.8,65.3s-27.1,25.9-40.9,30.8s-26.8,9.8-30.6,19.4s-14.6,25.8-20.2,33.5s-15.8,19.4-41.8,31.6s-43.5,22.3-64.5,20.2
		s-44.9-9.6-58.9-9.2s-33.2-8.7-31.7,1.6s4.7,22.3,4.5,36.7s-4.5,21.1-9.2,29.4s-12.9,22.5-24.6,29.5s-42.5,34.2-53.6,54.9
		s-16.1,30.8-36.3,52.1s-60.3,74.1-76.1,78s-103.9,31.3-126.1,37.3s-34.2,10.1-31.9,23s11.1,44.3,13.7,55.4s3.4,18.6,24.1,18.9
		s59.8-1.3,66.6,2.8s21.8,17.4,42.5,15.3s83.9-5.4,98.4-4.1s38.3,4.7,42.2,9.3s3.1,15.8,9.1,18.9s1,17.6,10.4,19.2
		s19.9,0.3,25.9,3.9s8.3,13.2,5.7,21.8c-3.4,10.4-7.6,20.6-12.7,30.3C-34.5,1004.5-44.9,1025.7-39.4,1033.9z"/>
	<path class="st1" d="M451.3,622.4c0,0-2.2-59.8-6.9-76.1c-6.9-24.2-11-55.6-23.8-60.1s-32.1-11.4-44.9-27.3s-38.7-49.4-50.1-53.9
		s-72.4-33.1-72.8-41.3"/>
	<path class="st1" d="M299.2,323.3c0,0,48.5,61.8,61.3,76.9c11.4,13.5,27.3,24.9,49,40.1s96.7,61.8,121.6,76.7
		c24.9,14.8,52.8,33.5,62.8,36.6s13.5,7.9,8.6,17.3s-7.8,17.6,2.2,25.2s19.9,19,24.1,17.6s10,2.4,10,6.9s7.8,8.5,9.1,17"/>
	<path class="st1" d="M558.9,621c0,0-1.3-17.6-3.3-33.2c-1.4-10.5-3.6-19.5,6.9-20s14.5-14.5,20.5-19.3s33.6-48.3,37.9-55.3
		s11.7-16.2,13.3-27.1s15.9-77.2,18-98.6s9-82.1,9-82.1"/>
	<path class="st1" d="M782.4,641.6c0,0,2-16.4,3.9-20.6s8.6-5.4,13.1-15.4c3.9-8.7,5.2-15.5,5.3-39.7s-1.7-52.8,5.4-72.9
		s48.5-128.4,48.5-128.4"/>
	<path class="st1" d="M691.2,635.4c0,0,4.4-12.1,4.1-20.7s0.3-16.6,3.3-18.8s-3.6-8.8,3.5-19.7s19.9-18.8,16.1-23.5
		s-27.1-12.6-20.9-23.1s51.1-73.6,47.7-90s-7.9-41.1-21.1-45.2s-72.2-22.4-72.2-22.4"/>
	<path class="st1" d="M696.5,535.2c0,0-8.6,5.9-14.7,8.3s-12.8,5.9-14.7,9.5c-7.1,13.5-14.2,50.1-28.8,65.4"/>
</g>
<g id="_Texto" class="text">
	<path class="st2" d="M423.3,441.7c-0.5-0.8-0.7-1.8-0.7-2.7c0.1-2,1.2-3.8,3-4.7c0.8-0.4,1.8-0.6,2.8-0.6c1.9,0.2,3.6,1.1,4.7,2.7
		c0.4,0.6,0.7,1.4,0.8,2.2l-2.1,0.4c-0.1-1-0.7-1.9-1.6-2.4c-0.5-0.3-1.1-0.5-1.7-0.6c-0.6,0-1.1,0.1-1.6,0.4
		c-1.1,0.6-1.7,1.7-1.8,3c0,0.6,0.1,1.1,0.4,1.6c0.3,0.5,0.7,1,1.2,1.3c0.9,0.6,1.9,0.7,2.9,0.3l0.6,2c-0.7,0.3-1.5,0.3-2.3,0.2
		c-0.8-0.1-1.6-0.4-2.4-0.9C424.6,443.3,423.9,442.6,423.3,441.7z"/>
	<path class="st2" d="M435.1,449.2c-0.3,0-0.6,0-0.9-0.1c-0.3-0.1-0.7-0.3-1-0.5c-0.7-0.4-1.3-1-1.5-1.8c-0.2-0.8,0-1.6,0.5-2.2
		l1.8-2.8l-1.1-0.7l1-1.5l1.1,0.7l1-1.7l2,1.2l-1,1.7l1.7,1.1l-1,1.5l-1.7-1.1l-1.7,2.8c-0.2,0.2-0.2,0.5-0.2,0.8
		c0.1,0.3,0.2,0.5,0.5,0.6c0.3,0.2,0.6,0.3,1,0.2L435.1,449.2z"/>
	<path class="st2" d="M443,445.3c0.6,0.1,1.1,0.3,1.6,0.6l-1.1,1.8c-0.2-0.2-0.4-0.3-0.4-0.3c-0.5-0.3-1.1-0.5-1.6-0.4
		c-0.6,0.2-1.1,0.6-1.4,1.1l-2,3.2l-2-1.2l4.3-6.8l1.9,1.2l-0.6,0.9C442,445.3,442.5,445.2,443,445.3z"/>
	<path class="st2" d="M450.5,450.6c0.2,1,0,2-0.6,2.8l-2.4,3.9l-1.9-1.2l0.5-0.9c-0.9,0.4-1.9,0.3-2.7-0.4c-0.5-0.3-0.9-0.7-1.2-1.1
		c-0.3-0.4-0.4-0.8-0.4-1.3c0-0.4,0.1-0.9,0.4-1.3c0.3-0.6,1-1,1.7-1.1c0.9,0,1.8,0.3,2.6,0.8l1.6,1c0.3-0.4,0.3-0.8,0.2-1.2
		c-0.2-0.5-0.5-0.9-1-1.1c-0.4-0.2-0.8-0.4-1.2-0.5c-0.4-0.1-0.8-0.1-1.2-0.1l0.2-1.8c0.6,0,1.2,0.1,1.7,0.2
		c0.6,0.2,1.2,0.4,1.7,0.8C449.4,448.8,450.1,449.7,450.5,450.6z M445.8,454.3c0.4,0,0.7-0.1,1-0.3l0.4-0.7l-1.4-0.9
		c-0.8-0.5-1.4-0.5-1.7,0c-0.2,0.2-0.2,0.5-0.1,0.8c0.1,0.3,0.4,0.6,0.7,0.7C445.1,454.2,445.4,454.3,445.8,454.3z"/>
	<path class="st2" d="M465.7,455.6l-5.9,9.4l-1.9-1.2l0.5-0.8c-0.9,0.3-1.9,0.1-2.7-0.4c-0.6-0.4-1.1-0.9-1.5-1.5
		c-0.3-0.6-0.5-1.3-0.5-2c0.1-1.5,1-2.9,2.3-3.7c0.6-0.3,1.3-0.5,2-0.5c0.7,0,1.4,0.3,2,0.7c0.8,0.4,1.4,1.2,1.5,2.1l2.1-3.3
		L465.7,455.6z M458.6,461.5c1.2-0.4,1.9-1.5,1.7-2.8c-0.3-1.1-1.4-1.8-2.5-1.6c-1.2,0.4-1.9,1.5-1.7,2.8c0.1,0.5,0.5,1,0.9,1.3
		C457.5,461.6,458.1,461.6,458.6,461.5L458.6,461.5z"/>
	<path class="st2" d="M470.1,467.5l-5.2-3.2c-0.2,0.5-0.2,1,0,1.4c0.2,0.5,0.6,0.9,1.1,1.2c0.3,0.2,0.7,0.4,1,0.4
		c0.4,0.1,0.7,0.1,1.1,0l0.3,1.8c-1.2,0.3-2.5,0.1-3.5-0.7c-0.7-0.4-1.3-1-1.8-1.7c-0.4-0.6-0.6-1.4-0.6-2.1c0-0.8,0.2-1.5,0.7-2.1
		c0.4-0.6,0.9-1.2,1.6-1.5c0.6-0.3,1.4-0.5,2.1-0.4c0.8,0.1,1.5,0.3,2.1,0.7c0.6,0.4,1.2,0.9,1.5,1.6c0.4,0.6,0.5,1.3,0.5,2
		c0,0.8-0.3,1.5-0.7,2.2C470.4,467,470.3,467.2,470.1,467.5z M466.8,462.4c-0.5,0.1-0.9,0.3-1.2,0.7l3.4,2.1
		c0.2-0.4,0.2-0.9,0.1-1.4c-0.1-0.5-0.5-0.8-0.9-1.1C467.8,462.5,467.3,462.4,466.8,462.4z"/>
	<path class="st2" d="M481.3,476.2l-1,1.7l-6.9-4.3l5.6-8.9l6.7,4.2l-1,1.7l-4.7-2.9l-1.2,1.9l4.1,2.6l-1,1.6l-4.1-2.6l-1.3,2.1
		L481.3,476.2z"/>
	<path class="st2" d="M487.7,469.4l2,1.2l-5.9,9.4l-2-1.2L487.7,469.4z"/>
	<path class="st2" d="M487.2,481.7c-0.4-0.6-0.6-1.4-0.6-2.1c0-1.5,0.9-2.9,2.3-3.6c0.7-0.3,1.4-0.5,2.1-0.4
		c0.8,0.1,1.6,0.3,2.2,0.8c0.7,0.4,1.2,1,1.6,1.6c0.3,0.6,0.5,1.3,0.4,2l-2.1-0.1c0.1-0.8-0.3-1.5-1-1.9c-0.5-0.3-1.1-0.4-1.6-0.3
		c-1.2,0.4-1.9,1.5-1.7,2.8c0.1,0.6,0.5,1,1,1.3c0.6,0.4,1.5,0.4,2.1,0l1,1.8c-0.6,0.4-1.3,0.6-2,0.5c-0.8,0-1.5-0.3-2.2-0.7
		C488.2,483,487.6,482.4,487.2,481.7z"/>
	<path class="st2" d="M503.2,483.6c0.2,1-0.1,2-0.6,2.8l-2.4,3.9l-2-1.2l2.3-3.6c0.3-0.4,0.4-0.9,0.4-1.4c-0.1-0.4-0.4-0.8-0.8-1
		c-0.4-0.3-1-0.4-1.5-0.3c-0.6,0.2-1,0.6-1.3,1.1l-2.1,3.4l-2-1.2l5.9-9.4l2,1.2l-2.1,3.3c0.4-0.1,0.9-0.1,1.3,0
		c0.5,0.1,0.9,0.3,1.4,0.6C502.4,482,502.9,482.7,503.2,483.6z"/>
	<path class="st2" d="M510.4,492.7l-5.2-3.2c-0.2,0.5-0.2,1,0,1.4c0.2,0.5,0.6,0.9,1.1,1.2c0.3,0.2,0.7,0.4,1,0.4
		c0.4,0.1,0.7,0.1,1.1,0l0.3,1.8c-1.2,0.3-2.5,0.1-3.5-0.7c-0.7-0.4-1.3-1-1.8-1.7c-0.4-0.6-0.6-1.4-0.6-2.1c0-0.8,0.2-1.5,0.7-2.1
		c0.4-0.6,0.9-1.2,1.6-1.5c0.6-0.3,1.4-0.5,2.1-0.4c1.5,0.1,2.9,1,3.7,2.3c0.4,0.6,0.5,1.3,0.5,2c0,0.8-0.3,1.5-0.7,2.2
		C510.8,492.2,510.6,492.4,510.4,492.7z M507.1,487.6c-0.5,0.1-0.9,0.3-1.2,0.7l3.4,2.1c0.2-0.4,0.2-0.9,0.1-1.4
		c-0.1-0.5-0.5-0.8-0.9-1.1C508.1,487.7,507.6,487.6,507.1,487.6L507.1,487.6z"/>
	<path class="st2" d="M514.7,314.6v2h-9.2V315l5.8-6.9h-5.6v-2h8.8v1.6l-5.7,6.9H514.7z"/>
	<path class="st2" d="M517.5,316.1c-0.7-0.3-1.2-0.8-1.6-1.5c-0.8-1.3-0.8-3,0-4.3c0.4-0.6,0.9-1.1,1.6-1.5c1.4-0.7,3.1-0.7,4.6,0
		c0.7,0.3,1.2,0.8,1.6,1.5c0.8,1.3,0.8,3,0,4.3c-0.4,0.6-0.9,1.1-1.6,1.5C520.6,316.9,519,316.9,517.5,316.1z M521.3,314.1
		c0.8-0.9,0.8-2.3,0-3.3c-0.4-0.4-0.9-0.6-1.5-0.6c-0.6,0-1.1,0.2-1.5,0.6c-0.8,0.9-0.8,2.3,0,3.3c0.4,0.4,0.9,0.6,1.5,0.6
		C520.4,314.8,520.9,314.6,521.3,314.1L521.3,314.1z"/>
	<path class="st2" d="M533.1,309.3c0.7,0.7,1,1.7,0.9,2.7v4.6h-2.3v-4.3c0-0.5-0.1-1-0.4-1.4c-0.3-0.3-0.8-0.5-1.2-0.5
		c-0.5,0-1,0.2-1.4,0.5c-0.4,0.5-0.6,1-0.5,1.6v4h-2.3v-8.1h2.2v0.9c0.3-0.3,0.7-0.6,1.2-0.8c0.5-0.2,1-0.3,1.5-0.3
		C531.6,308.3,532.5,308.7,533.1,309.3z"/>
	<path class="st2" d="M542.3,309.3c0.7,0.7,1.1,1.7,1,2.7v4.6h-2.2v-1c-0.5,0.8-1.5,1.2-2.5,1.1c-0.6,0-1.1-0.1-1.6-0.3
		c-0.4-0.2-0.8-0.5-1-0.9c-0.2-0.4-0.4-0.8-0.4-1.3c0-0.7,0.3-1.4,0.8-1.8c0.8-0.5,1.7-0.7,2.6-0.6h1.9c0-0.4-0.1-0.9-0.5-1.2
		c-0.4-0.3-0.9-0.4-1.4-0.4c-0.4,0-0.9,0.1-1.3,0.2c-0.4,0.1-0.7,0.3-1.1,0.5l-0.8-1.6c0.5-0.3,1-0.6,1.6-0.7
		c0.6-0.2,1.3-0.3,1.9-0.3C540.4,308.3,541.5,308.6,542.3,309.3z M540.3,314.8c0.3-0.2,0.5-0.5,0.7-0.8v-0.8h-1.6
		c-1,0-1.4,0.3-1.4,0.9c0,0.3,0.1,0.5,0.4,0.7c0.3,0.2,0.6,0.3,1,0.3C539.6,315.1,540,315,540.3,314.8L540.3,314.8z"/>
	<path class="st2" d="M513.3,324.1v10.5h-2l-5.2-6.4v6.4h-2.4v-10.5h2l5.2,6.4v-6.4H513.3z"/>
	<path class="st2" d="M517.2,334.1c-0.7-0.3-1.2-0.8-1.6-1.5c-0.8-1.3-0.8-3,0-4.3c0.4-0.6,0.9-1.1,1.6-1.5c1.4-0.7,3.1-0.7,4.6,0
		c0.7,0.3,1.2,0.8,1.6,1.5c0.8,1.3,0.8,3,0,4.3c-0.4,0.6-0.9,1.1-1.6,1.5C520.3,334.9,518.6,334.9,517.2,334.1z M521,332.1
		c0.8-0.9,0.8-2.3,0-3.3c-0.4-0.4-0.9-0.6-1.5-0.6c-0.6,0-1.1,0.2-1.5,0.6c-0.8,0.9-0.8,2.3,0,3.3c0.4,0.4,0.9,0.6,1.5,0.6
		C520,332.8,520.6,332.6,521,332.1L521,332.1z"/>
	<path class="st2" d="M528.8,326.7c0.5-0.2,1.1-0.3,1.6-0.3v2.2c-0.3,0-0.4,0-0.5,0c-0.6,0-1.1,0.2-1.6,0.6
		c-0.4,0.5-0.6,1.1-0.6,1.7v3.8h-2.3v-8.1h2.2v1.1C528,327.2,528.4,326.8,528.8,326.7z"/>
	<path class="st2" d="M537.4,334.2c-0.3,0.2-0.5,0.3-0.8,0.4c-0.3,0.1-0.7,0.1-1.1,0.1c-0.8,0.1-1.6-0.2-2.2-0.7
		c-0.6-0.6-0.8-1.4-0.8-2.2v-3.3h-1.2v-1.8h1.2v-2h2.3v2h2v1.8h-2v3.3c0,0.3,0.1,0.6,0.3,0.8c0.2,0.2,0.5,0.3,0.7,0.3
		c0.3,0,0.7-0.1,0.9-0.3L537.4,334.2z"/>
	<path class="st2" d="M546.3,331.2h-6.1c0.1,0.5,0.4,0.9,0.8,1.2c0.5,0.3,1,0.5,1.5,0.4c0.4,0,0.8-0.1,1.1-0.2
		c0.3-0.1,0.6-0.3,0.9-0.6l1.2,1.4c-0.9,0.9-2.1,1.4-3.3,1.3c-0.8,0-1.7-0.2-2.4-0.5c-0.7-0.3-1.2-0.8-1.6-1.5
		c-0.4-0.6-0.6-1.4-0.6-2.1c0-0.8,0.2-1.5,0.6-2.1c0.4-0.6,0.9-1.1,1.5-1.5c1.4-0.7,3-0.7,4.3,0c0.6,0.3,1.2,0.8,1.5,1.5
		c0.4,0.7,0.6,1.4,0.5,2.2C546.3,330.6,546.3,330.8,546.3,331.2z M540.8,328.6c-0.4,0.3-0.6,0.8-0.7,1.2h4c-0.1-0.5-0.3-0.9-0.7-1.2
		c-0.4-0.3-0.8-0.5-1.3-0.5C541.7,328.1,541.2,328.3,540.8,328.6z"/>
	<path class="st2" d="M242.3,466.7c-0.7-0.2-1.3-0.5-1.9-0.9l0.8-1.8c0.5,0.3,1,0.6,1.6,0.8c0.6,0.2,1.2,0.3,1.9,0.3
		c0.5,0,1.1-0.1,1.5-0.3c0.3-0.2,0.5-0.5,0.5-0.8c0-0.2-0.1-0.5-0.3-0.6c-0.2-0.2-0.5-0.3-0.8-0.4c-0.3-0.1-0.7-0.2-1.2-0.3
		c-0.7-0.2-1.3-0.3-2-0.6c-0.5-0.2-1-0.5-1.3-0.9c-0.4-0.5-0.6-1.1-0.5-1.7c0-0.6,0.2-1.2,0.5-1.7c0.4-0.5,0.9-0.9,1.5-1.2
		c0.8-0.3,1.6-0.5,2.4-0.4c0.7,0,1.3,0.1,2,0.2c0.6,0.1,1.2,0.4,1.7,0.7l-0.8,1.8c-0.9-0.5-1.9-0.8-2.9-0.8c-0.5,0-1,0.1-1.5,0.3
		c-0.3,0.2-0.5,0.5-0.5,0.9c0,0.4,0.2,0.7,0.6,0.8c0.6,0.2,1.1,0.4,1.7,0.5c0.7,0.2,1.3,0.3,2,0.6c0.5,0.2,1,0.5,1.3,0.9
		c0.4,0.5,0.6,1.1,0.5,1.7c0,0.6-0.2,1.2-0.5,1.6c-0.4,0.5-0.9,0.9-1.5,1.2c-0.8,0.3-1.6,0.5-2.4,0.4
		C243.9,467.1,243.1,467,242.3,466.7z"/>
	<path class="st2" d="M256.8,459.6c0.7,0.7,1.1,1.7,1,2.7v4.6h-2.2v-1c-0.5,0.8-1.5,1.2-2.5,1.1c-0.6,0-1.1-0.1-1.6-0.3
		c-0.4-0.2-0.8-0.5-1-0.9c-0.2-0.4-0.4-0.8-0.4-1.3c0-0.7,0.3-1.4,0.8-1.8c0.8-0.5,1.7-0.7,2.6-0.6h1.9c0-0.4-0.1-0.9-0.5-1.2
		c-0.4-0.3-0.9-0.5-1.4-0.4c-0.4,0-0.9,0.1-1.3,0.2c-0.4,0.1-0.7,0.3-1.1,0.5l-0.8-1.6c0.5-0.3,1-0.6,1.6-0.7
		c0.6-0.2,1.3-0.3,1.9-0.3C254.9,458.6,256,458.9,256.8,459.6z M254.8,465.2c0.3-0.2,0.5-0.5,0.7-0.8v-0.8h-1.6
		c-1,0-1.4,0.3-1.4,0.9c0,0.3,0.1,0.5,0.4,0.7c0.3,0.2,0.6,0.3,1,0.3C254.1,465.4,254.5,465.3,254.8,465.2L254.8,465.2z"/>
	<path class="st2" d="M259.9,455.8h2.3v11.1h-2.3V455.8z"/>
	<path class="st2" d="M264.5,457.3c-0.5-0.5-0.5-1.3-0.1-1.8c0,0,0,0,0.1-0.1c0.3-0.3,0.7-0.4,1-0.4c0.4,0,0.8,0.1,1,0.4
		c0.3,0.2,0.4,0.6,0.4,0.9c0,0.4-0.1,0.7-0.4,1c-0.3,0.3-0.7,0.4-1,0.4C265.2,457.7,264.8,457.6,264.5,457.3z M264.4,458.8h2.3v8.1
		h-2.3V458.8z"/>
	<path class="st2" d="M276.2,459.6c0.7,0.7,1,1.7,0.9,2.7v4.6h-2.3v-4.3c0-0.5-0.1-1-0.4-1.4c-0.3-0.3-0.8-0.5-1.2-0.5
		c-0.5,0-1,0.2-1.4,0.5c-0.4,0.5-0.6,1-0.5,1.6v4h-2.3v-8.1h2.2v0.9c0.3-0.3,0.7-0.6,1.2-0.8c0.5-0.2,1-0.3,1.5-0.3
		C274.7,458.7,275.6,459,276.2,459.6z"/>
	<path class="st2" d="M285.4,459.6c0.7,0.7,1.1,1.7,1,2.7v4.6h-2.2v-1c-0.5,0.8-1.5,1.2-2.5,1.1c-0.6,0-1.1-0.1-1.6-0.3
		c-0.4-0.2-0.8-0.5-1-0.9c-0.2-0.4-0.4-0.8-0.4-1.3c0-0.7,0.3-1.4,0.8-1.8c0.8-0.5,1.7-0.7,2.6-0.6h1.9c0-0.4-0.1-0.9-0.5-1.2
		c-0.4-0.3-0.9-0.5-1.4-0.4c-0.4,0-0.9,0.1-1.3,0.2c-0.4,0.1-0.7,0.3-1.1,0.5l-0.8-1.6c0.5-0.3,1-0.6,1.6-0.7
		c0.6-0.2,1.3-0.3,1.9-0.3C283.6,458.6,284.6,458.9,285.4,459.6z M283.4,465.2c0.3-0.2,0.5-0.5,0.7-0.8v-0.8h-1.6
		c-1,0-1.4,0.3-1.4,0.9c0,0.3,0.1,0.5,0.4,0.7c0.3,0.2,0.6,0.3,1,0.3C282.7,465.4,283.1,465.3,283.4,465.2z"/>
	<path class="st2" d="M289.3,466.8c-0.5-0.1-1.1-0.3-1.5-0.6l0.8-1.7c0.4,0.3,0.8,0.4,1.3,0.6c0.5,0.1,1,0.2,1.5,0.2
		c1,0,1.5-0.2,1.5-0.7c0-0.2-0.2-0.4-0.4-0.5c-0.4-0.1-0.8-0.2-1.2-0.3c-0.6-0.1-1.1-0.2-1.6-0.3c-0.4-0.1-0.8-0.4-1.1-0.7
		c-0.3-0.4-0.5-0.9-0.5-1.4c0-0.5,0.1-1,0.4-1.4c0.3-0.4,0.8-0.7,1.3-0.9c0.6-0.2,1.3-0.3,2-0.3c0.6,0,1.1,0.1,1.7,0.2
		c0.5,0.1,1,0.3,1.4,0.5l-0.8,1.7c-0.7-0.4-1.5-0.6-2.3-0.6c-0.4,0-0.8,0-1.1,0.2c-0.2,0.1-0.4,0.3-0.4,0.5c0,0.2,0.2,0.5,0.4,0.5
		c0.4,0.1,0.9,0.2,1.3,0.3c0.5,0.1,1.1,0.2,1.6,0.4c0.4,0.1,0.8,0.4,1.1,0.7c0.3,0.4,0.5,0.9,0.5,1.4c0,0.5-0.2,1-0.5,1.3
		c-0.3,0.4-0.8,0.7-1.3,0.9c-0.7,0.2-1.4,0.3-2,0.3C290.6,467,289.9,466.9,289.3,466.8z"/>
	<path class="st2" d="M650.5,487.7c-0.8-0.4-1.6-1.1-2-1.9c-1-1.7-1-3.9,0-5.6c0.5-0.8,1.2-1.5,2-1.9c0.9-0.5,1.9-0.7,2.9-0.7
		c0.8,0,1.7,0.2,2.5,0.5c0.7,0.3,1.4,0.8,1.9,1.4l-1.6,1.4c-0.6-0.8-1.6-1.2-2.6-1.2c-0.6,0-1.2,0.1-1.7,0.4
		c-0.5,0.3-0.9,0.7-1.2,1.2c-0.6,1.1-0.6,2.4,0,3.5c0.3,0.5,0.7,0.9,1.2,1.2c0.5,0.3,1.1,0.4,1.7,0.4c1,0,2-0.4,2.6-1.2l1.6,1.4
		c-0.5,0.6-1.1,1.1-1.9,1.4c-0.8,0.3-1.6,0.5-2.5,0.5C652.3,488.5,651.3,488.2,650.5,487.7z"/>
	<path class="st2" d="M666.7,484.9h-6.1c0.1,0.5,0.4,0.9,0.8,1.2c0.5,0.3,1,0.5,1.5,0.4c0.4,0,0.8-0.1,1.1-0.2
		c0.3-0.1,0.6-0.3,0.9-0.6l1.2,1.4c-0.9,0.9-2.1,1.4-3.3,1.3c-0.8,0-1.7-0.2-2.4-0.5c-0.7-0.3-1.2-0.8-1.6-1.5
		c-0.4-0.6-0.6-1.4-0.6-2.1c0-0.8,0.2-1.5,0.6-2.1c0.4-0.6,0.9-1.1,1.5-1.5c1.4-0.7,3-0.7,4.3,0c0.6,0.3,1.2,0.8,1.5,1.5
		c0.4,0.7,0.6,1.4,0.5,2.2C666.8,484.3,666.8,484.5,666.7,484.9z M661.3,482.3c-0.4,0.3-0.6,0.8-0.7,1.2h4c-0.1-0.5-0.3-0.9-0.7-1.2
		c-0.4-0.3-0.8-0.5-1.3-0.5C662.1,481.8,661.6,482,661.3,482.3z"/>
	<path class="st2" d="M675.7,481c0.7,0.7,1,1.7,0.9,2.7v4.6h-2.3V484c0-0.5-0.1-1-0.4-1.4c-0.3-0.3-0.8-0.5-1.2-0.5
		c-0.5,0-1,0.2-1.4,0.5c-0.4,0.5-0.6,1-0.5,1.6v4h-2.3v-8.1h2.2v0.9c0.3-0.3,0.7-0.6,1.2-0.8c0.5-0.2,1-0.3,1.5-0.3
		C674.1,480,675,480.4,675.7,481z"/>
	<path class="st2" d="M683.9,487.9c-0.3,0.2-0.5,0.3-0.8,0.4c-0.3,0.1-0.7,0.1-1.1,0.1c-0.8,0.1-1.6-0.2-2.2-0.7
		c-0.6-0.6-0.8-1.4-0.8-2.2v-3.3h-1.2v-1.8h1.2v-2h2.3v2h2v1.8h-2v3.3c0,0.3,0.1,0.6,0.3,0.8c0.2,0.2,0.5,0.3,0.7,0.3
		c0.3,0,0.7-0.1,0.9-0.3L683.9,487.9z"/>
	<path class="st2" d="M688.6,480.4c0.5-0.2,1.1-0.3,1.6-0.3v2.2c-0.3,0-0.4,0-0.5,0c-0.6,0-1.1,0.2-1.6,0.6
		c-0.4,0.5-0.6,1.1-0.6,1.7v3.8h-2.3v-8.1h2.2v1.1C687.7,480.9,688.1,480.6,688.6,480.4z"/>
	<path class="st2" d="M693.1,487.9c-0.7-0.3-1.2-0.8-1.6-1.5c-0.8-1.3-0.8-3,0-4.3c0.4-0.6,0.9-1.1,1.6-1.5c1.4-0.7,3.1-0.7,4.6,0
		c0.7,0.3,1.2,0.8,1.6,1.5c0.8,1.3,0.8,3,0,4.3c-0.4,0.6-0.9,1.1-1.6,1.5C696.2,488.6,694.5,488.6,693.1,487.9z M696.9,485.9
		c0.8-0.9,0.8-2.3,0-3.3c-0.4-0.4-0.9-0.6-1.5-0.6c-0.6,0-1.1,0.2-1.5,0.6c-0.8,0.9-0.8,2.3,0,3.3c0.4,0.4,0.9,0.6,1.5,0.6
		C696,486.5,696.5,486.3,696.9,485.9L696.9,485.9z"/>
	<path class="st2" d="M722.3,576.3c-0.8-0.4-1.6-1.1-2-1.9c-1-1.7-1-3.9,0-5.6c0.5-0.8,1.2-1.5,2-1.9c0.9-0.5,1.9-0.7,2.9-0.7
		c0.8,0,1.7,0.2,2.5,0.5c0.7,0.3,1.4,0.8,1.9,1.4l-1.6,1.4c-0.6-0.8-1.6-1.2-2.6-1.2c-0.6,0-1.2,0.1-1.7,0.4
		c-0.5,0.3-0.9,0.7-1.2,1.2c-0.6,1.1-0.6,2.4,0,3.5c0.3,0.5,0.7,0.9,1.2,1.2c0.5,0.3,1.1,0.4,1.7,0.4c1,0,2-0.4,2.6-1.2l1.6,1.4
		c-0.5,0.6-1.1,1.1-1.9,1.4c-0.8,0.3-1.6,0.5-2.5,0.5C724.2,577,723.2,576.7,722.3,576.3z"/>
	<path class="st2" d="M737.1,569.5c0.7,0.7,1.1,1.7,1,2.7v4.6h-2.2v-1c-0.5,0.8-1.5,1.2-2.5,1.1c-0.6,0-1.1-0.1-1.6-0.3
		c-0.4-0.2-0.8-0.5-1-0.9c-0.2-0.4-0.4-0.8-0.4-1.3c0-0.7,0.3-1.4,0.8-1.8c0.8-0.5,1.7-0.7,2.6-0.6h1.9c0-0.4-0.1-0.9-0.5-1.2
		c-0.4-0.3-0.9-0.5-1.4-0.4c-0.4,0-0.9,0.1-1.3,0.2c-0.4,0.1-0.7,0.3-1.1,0.5l-0.8-1.6c0.5-0.3,1-0.6,1.6-0.7
		c0.6-0.2,1.3-0.3,1.9-0.3C735.3,568.5,736.3,568.8,737.1,569.5z M735.1,575.1c0.3-0.2,0.5-0.5,0.7-0.8v-0.8h-1.6
		c-1,0-1.4,0.3-1.4,0.9c0,0.3,0.1,0.5,0.4,0.7c0.3,0.2,0.6,0.3,1,0.3C734.4,575.3,734.8,575.2,735.1,575.1z"/>
	<path class="st2" d="M740.2,565.7h2.3v11.1h-2.3V565.7z"/>
	<path class="st2" d="M750.9,569.5c0.7,0.7,1.1,1.7,1,2.7v4.6h-2.2v-1c-0.5,0.8-1.5,1.2-2.5,1.1c-0.6,0-1.1-0.1-1.6-0.3
		c-0.4-0.2-0.8-0.5-1-0.9c-0.2-0.4-0.4-0.8-0.4-1.3c0-0.7,0.3-1.4,0.8-1.8c0.8-0.5,1.7-0.7,2.6-0.6h1.9c0-0.4-0.1-0.9-0.5-1.2
		c-0.4-0.3-0.9-0.5-1.4-0.4c-0.4,0-0.9,0.1-1.3,0.2c-0.4,0.1-0.7,0.3-1.1,0.5l-0.8-1.6c0.5-0.3,1-0.6,1.6-0.7
		c0.6-0.2,1.3-0.3,1.9-0.3C749.1,568.5,750.1,568.8,750.9,569.5z M748.9,575.1c0.3-0.2,0.5-0.5,0.7-0.8v-0.8H748
		c-1,0-1.4,0.3-1.4,0.9c0,0.3,0.1,0.5,0.4,0.7c0.3,0.2,0.6,0.3,1,0.3C748.2,575.3,748.6,575.2,748.9,575.1L748.9,575.1z"/>
	<path class="st2" d="M754.8,576.7c-0.5-0.1-1.1-0.3-1.5-0.6l0.8-1.7c0.4,0.3,0.8,0.4,1.3,0.6c0.5,0.1,1,0.2,1.5,0.2
		c1,0,1.5-0.2,1.5-0.7c0-0.2-0.2-0.4-0.4-0.5c-0.4-0.1-0.8-0.2-1.2-0.3c-0.6-0.1-1.1-0.2-1.6-0.3c-0.4-0.1-0.8-0.4-1.1-0.7
		c-0.3-0.4-0.5-0.9-0.5-1.4c0-0.5,0.1-1,0.4-1.4c0.3-0.4,0.8-0.7,1.3-0.9c0.6-0.2,1.3-0.3,2-0.3c0.6,0,1.1,0.1,1.7,0.2
		c0.5,0.1,1,0.3,1.4,0.5l-0.8,1.7c-0.7-0.4-1.5-0.6-2.3-0.6c-0.4,0-0.8,0-1.1,0.2c-0.2,0.1-0.4,0.3-0.4,0.5c0,0.2,0.2,0.5,0.4,0.5
		c0.4,0.1,0.9,0.2,1.3,0.3c0.5,0.1,1.1,0.2,1.6,0.4c0.4,0.1,0.8,0.4,1.1,0.7c0.3,0.4,0.5,0.9,0.5,1.4c0,0.5-0.2,1-0.5,1.3
		c-0.3,0.4-0.8,0.7-1.3,0.9c-0.7,0.2-1.4,0.3-2,0.3C756.1,576.9,755.4,576.8,754.8,576.7z"/>
	<path class="st2" d="M774.4,565.7v11.1h-2.2v-0.9c-0.6,0.7-1.6,1.1-2.5,1c-0.7,0-1.4-0.2-2.1-0.5c-0.6-0.3-1.1-0.8-1.4-1.5
		c-0.7-1.4-0.7-3,0-4.4c0.3-0.6,0.8-1.1,1.4-1.5c0.6-0.3,1.3-0.5,2.1-0.5c0.9,0,1.8,0.3,2.4,1v-3.9H774.4z M771.6,574.4
		c0.8-0.9,0.8-2.3,0-3.3c-0.4-0.4-0.9-0.6-1.5-0.6c-0.6,0-1.1,0.2-1.5,0.6c-0.8,0.9-0.8,2.3,0,3.3c0.4,0.4,0.9,0.6,1.5,0.6
		C770.7,575,771.2,574.8,771.6,574.4L771.6,574.4z"/>
	<path class="st2" d="M784.5,573.4h-6.1c0.1,0.5,0.4,0.9,0.8,1.2c0.5,0.3,1,0.5,1.5,0.4c0.4,0,0.8-0.1,1.1-0.2
		c0.3-0.1,0.6-0.3,0.9-0.6l1.2,1.4c-0.9,0.9-2.1,1.4-3.3,1.3c-0.8,0-1.7-0.2-2.4-0.5c-0.7-0.3-1.2-0.8-1.6-1.5
		c-0.4-0.6-0.6-1.4-0.6-2.1c0-0.8,0.2-1.5,0.6-2.1c0.4-0.6,0.9-1.1,1.5-1.5c1.4-0.7,3-0.7,4.3,0c0.6,0.3,1.2,0.8,1.5,1.5
		c0.4,0.7,0.6,1.4,0.5,2.2C784.5,572.8,784.5,573,784.5,573.4z M779,570.8c-0.4,0.3-0.6,0.8-0.7,1.2h4c-0.1-0.5-0.3-0.9-0.7-1.2
		c-0.4-0.3-0.8-0.5-1.3-0.5C779.8,570.4,779.4,570.5,779,570.8L779,570.8z"/>
	<path class="st2" d="M719.3,591.6c-0.7-0.2-1.3-0.5-1.9-0.9l0.8-1.8c0.5,0.3,1,0.6,1.6,0.8c0.6,0.2,1.2,0.3,1.9,0.3
		c0.5,0,1.1-0.1,1.5-0.3c0.3-0.2,0.5-0.5,0.5-0.8c0-0.2-0.1-0.5-0.3-0.6c-0.2-0.2-0.5-0.3-0.8-0.4c-0.3-0.1-0.7-0.2-1.2-0.3
		c-0.7-0.2-1.3-0.3-2-0.6c-0.5-0.2-1-0.5-1.3-0.9c-0.4-0.5-0.6-1.1-0.5-1.7c0-0.6,0.2-1.2,0.5-1.7c0.4-0.5,0.9-0.9,1.5-1.2
		c0.8-0.3,1.6-0.5,2.4-0.4c0.7,0,1.3,0.1,2,0.2c0.6,0.1,1.2,0.4,1.7,0.7l-0.8,1.8c-0.9-0.5-1.9-0.8-2.9-0.8c-0.5,0-1,0.1-1.5,0.3
		c-0.3,0.2-0.5,0.5-0.5,0.9c0,0.4,0.2,0.7,0.6,0.8c0.6,0.2,1.1,0.4,1.7,0.5c0.7,0.2,1.3,0.3,2,0.6c0.5,0.2,1,0.5,1.3,0.9
		c0.4,0.5,0.6,1.1,0.5,1.7c0,0.6-0.2,1.2-0.5,1.6c-0.4,0.5-0.9,0.9-1.5,1.2c-0.8,0.3-1.6,0.5-2.4,0.4
		C720.9,592,720.1,591.9,719.3,591.6z"/>
	<path class="st2" d="M733.8,584.5c0.7,0.7,1.1,1.7,1,2.7v4.6h-2.2v-1c-0.5,0.8-1.5,1.2-2.5,1.1c-0.6,0-1.1-0.1-1.6-0.3
		c-0.4-0.2-0.8-0.5-1-0.9c-0.2-0.4-0.4-0.8-0.4-1.3c0-0.7,0.3-1.4,0.8-1.8c0.8-0.5,1.7-0.7,2.6-0.6h1.9c0-0.4-0.1-0.9-0.5-1.2
		c-0.4-0.3-0.9-0.5-1.4-0.4c-0.4,0-0.9,0.1-1.3,0.2c-0.4,0.1-0.7,0.3-1.1,0.5l-0.8-1.6c0.5-0.3,1-0.6,1.6-0.7
		c0.6-0.2,1.3-0.3,1.9-0.3C732,583.5,733,583.8,733.8,584.5z M731.8,590.1c0.3-0.2,0.5-0.5,0.7-0.8v-0.8h-1.6c-1,0-1.4,0.3-1.4,0.9
		c0,0.3,0.1,0.5,0.4,0.7c0.3,0.2,0.6,0.3,1,0.3C731.1,590.3,731.5,590.2,731.8,590.1z"/>
	<path class="st2" d="M744.3,584.5c0.7,0.7,1,1.7,0.9,2.7v4.6h-2.3v-4.3c0-0.5-0.1-1-0.4-1.4c-0.3-0.3-0.8-0.5-1.2-0.5
		c-0.5,0-1,0.2-1.4,0.5c-0.4,0.5-0.6,1-0.5,1.6v4h-2.3v-8.1h2.2v0.9c0.3-0.3,0.7-0.6,1.2-0.8c0.5-0.2,1-0.3,1.5-0.3
		C742.7,583.6,743.6,583.9,744.3,584.5z"/>
	<path class="st2" d="M752.5,591.4c-0.3,0.2-0.5,0.3-0.8,0.4c-0.3,0.1-0.7,0.1-1.1,0.1c-0.8,0.1-1.6-0.2-2.2-0.7
		c-0.6-0.6-0.8-1.4-0.8-2.2v-3.3h-1.2v-1.8h1.2v-2h2.3v2h2v1.8h-2v3.3c0,0.3,0.1,0.6,0.3,0.8c0.2,0.2,0.5,0.3,0.7,0.3
		c0.3,0,0.7-0.1,0.9-0.3L752.5,591.4z"/>
	<path class="st2" d="M753.9,582.2c-0.5-0.5-0.5-1.3-0.1-1.8c0,0,0,0,0.1-0.1c0.3-0.3,0.7-0.4,1-0.4c0.4,0,0.8,0.1,1,0.4
		c0.3,0.2,0.4,0.6,0.4,0.9c0,0.4-0.1,0.7-0.4,1c-0.3,0.3-0.7,0.4-1,0.4C754.6,582.6,754.2,582.5,753.9,582.2z M753.8,583.7h2.3v8.1
		h-2.3V583.7z"/>
	<path class="st2" d="M764.5,584.5c0.7,0.7,1.1,1.7,1,2.7v4.6h-2.2v-1c-0.5,0.8-1.5,1.2-2.5,1.1c-0.6,0-1.1-0.1-1.6-0.3
		c-0.4-0.2-0.8-0.5-1-0.9c-0.2-0.4-0.4-0.8-0.4-1.3c0-0.7,0.3-1.4,0.8-1.8c0.8-0.5,1.7-0.7,2.6-0.6h1.9c0-0.4-0.1-0.9-0.5-1.2
		c-0.4-0.3-0.9-0.5-1.4-0.4c-0.4,0-0.9,0.1-1.3,0.2c-0.4,0.1-0.7,0.3-1.1,0.5l-0.8-1.6c0.5-0.3,1-0.6,1.6-0.7
		c0.6-0.2,1.3-0.3,1.9-0.3C762.6,583.5,763.7,583.8,764.5,584.5z M762.5,590.1c0.3-0.2,0.5-0.5,0.7-0.8v-0.8h-1.6
		c-1,0-1.4,0.3-1.4,0.9c0,0.3,0.1,0.5,0.4,0.7c0.3,0.2,0.6,0.3,1,0.3C761.8,590.3,762.2,590.2,762.5,590.1L762.5,590.1z"/>
	<path class="st2" d="M776,583.7v6.7c0.1,1.2-0.3,2.4-1.2,3.3c-0.9,0.8-2.2,1.2-3.4,1.1c-0.7,0-1.5-0.1-2.2-0.3
		c-0.6-0.2-1.2-0.4-1.7-0.8l0.9-1.7c0.4,0.3,0.8,0.5,1.3,0.7c0.5,0.2,1,0.2,1.6,0.2c0.6,0.1,1.3-0.1,1.8-0.5c0.4-0.4,0.6-1,0.6-1.7
		v-0.3c-0.7,0.7-1.6,1.1-2.5,1c-0.7,0-1.4-0.2-2-0.5c-0.6-0.3-1.1-0.8-1.5-1.4c-0.7-1.3-0.7-2.8,0-4.1c0.4-0.6,0.9-1.1,1.5-1.4
		c0.6-0.3,1.3-0.5,2-0.5c1-0.1,2,0.4,2.7,1.2v-1L776,583.7z M773.1,588.9c0.8-0.8,0.8-2.1,0-2.9c-0.4-0.4-1-0.6-1.5-0.5
		c-0.6,0-1.1,0.2-1.5,0.5c-0.8,0.8-0.8,2,0,2.8c0,0,0,0,0,0c0.4,0.4,1,0.6,1.5,0.5C772.1,589.5,772.7,589.3,773.1,588.9L773.1,588.9
		z"/>
	<path class="st2" d="M779.7,591.4c-0.7-0.3-1.2-0.8-1.6-1.5c-0.8-1.3-0.8-3,0-4.3c0.4-0.6,0.9-1.1,1.6-1.5c1.4-0.7,3.1-0.7,4.6,0
		c0.7,0.3,1.2,0.8,1.6,1.5c0.8,1.3,0.8,3,0,4.3c-0.4,0.6-0.9,1.1-1.6,1.5C782.9,592.1,781.2,592.1,779.7,591.4z M783.5,589.4
		c0.8-0.9,0.8-2.3,0-3.3c-0.4-0.4-0.9-0.6-1.5-0.6c-0.6,0-1.1,0.2-1.5,0.6c-0.8,0.9-0.8,2.3,0,3.3c0.4,0.4,0.9,0.6,1.5,0.6
		C782.6,590,783.1,589.8,783.5,589.4L783.5,589.4z"/>
	<path class="st2" d="M723.8,602.3c0.3,0.5,0.5,1.1,0.5,1.6c0,0.8-0.4,1.7-1.1,2.1c-0.9,0.6-2,0.8-3.1,0.7h-5.4v-10.5h5.1
		c1-0.1,2.1,0.2,2.9,0.7c0.7,0.4,1.1,1.2,1,2c0,1-0.5,1.9-1.4,2.3C723,601.5,723.4,601.8,723.8,602.3z M717.1,598.1v2.5h2.4
		c0.5,0,1-0.1,1.4-0.3c0.3-0.2,0.5-0.6,0.5-0.9c0-0.4-0.2-0.7-0.5-0.9c-0.4-0.2-0.9-0.3-1.4-0.3L717.1,598.1z M721.4,604.6
		c0.3-0.2,0.5-0.6,0.5-1c0-0.9-0.6-1.3-1.9-1.3h-2.8v2.6h2.8C720.4,605,720.9,604.9,721.4,604.6z"/>
	<path class="st2" d="M733.9,603.4h-6.1c0.1,0.5,0.4,0.9,0.8,1.2c0.5,0.3,1,0.5,1.5,0.4c0.4,0,0.8-0.1,1.1-0.2
		c0.3-0.1,0.6-0.3,0.9-0.6l1.2,1.4c-0.9,0.9-2.1,1.4-3.3,1.3c-0.8,0-1.7-0.2-2.4-0.5c-0.7-0.3-1.2-0.8-1.6-1.5
		c-0.4-0.6-0.6-1.4-0.6-2.1c0-0.8,0.2-1.5,0.6-2.1c0.4-0.6,0.9-1.1,1.5-1.5c1.4-0.7,3-0.7,4.3,0c0.6,0.3,1.2,0.8,1.5,1.5
		c0.4,0.7,0.6,1.4,0.5,2.2C733.9,602.8,733.9,603,733.9,603.4z M728.4,600.8c-0.4,0.3-0.6,0.8-0.7,1.2h4c-0.1-0.5-0.3-0.9-0.7-1.2
		c-0.4-0.3-0.8-0.5-1.3-0.5C729.2,600.4,728.8,600.5,728.4,600.8L728.4,600.8z"/>
	<path class="st2" d="M738.8,598.9c0.5-0.2,1.1-0.3,1.6-0.3v2.2c-0.3,0-0.4,0-0.5,0c-0.6,0-1.1,0.2-1.6,0.6
		c-0.4,0.5-0.6,1.1-0.6,1.7v3.8h-2.3v-8.1h2.2v1.1C738,599.4,738.4,599.1,738.8,598.9z"/>
	<path class="st2" d="M749.2,599.5c0.7,0.7,1,1.7,0.9,2.7v4.6h-2.3v-4.3c0-0.5-0.1-1-0.4-1.4c-0.3-0.3-0.8-0.5-1.2-0.5
		c-0.5,0-1,0.2-1.4,0.5c-0.4,0.5-0.6,1-0.5,1.6v4h-2.3v-8.1h2.2v0.9c0.3-0.3,0.7-0.6,1.2-0.8c0.5-0.2,1-0.3,1.5-0.3
		C747.7,598.6,748.5,598.9,749.2,599.5z"/>
	<path class="st2" d="M758.4,599.5c0.7,0.7,1.1,1.7,1,2.7v4.6h-2.2v-1c-0.5,0.8-1.5,1.2-2.5,1.1c-0.6,0-1.1-0.1-1.6-0.3
		c-0.4-0.2-0.8-0.5-1-0.9c-0.2-0.4-0.4-0.8-0.4-1.3c0-0.7,0.3-1.4,0.8-1.8c0.8-0.5,1.7-0.7,2.6-0.6h1.9c0-0.4-0.1-0.9-0.5-1.2
		c-0.4-0.3-0.9-0.5-1.4-0.4c-0.4,0-0.9,0.1-1.3,0.2c-0.4,0.1-0.7,0.3-1.1,0.5l-0.8-1.6c0.5-0.3,1-0.6,1.6-0.7
		c0.6-0.2,1.3-0.3,1.9-0.3C756.5,598.5,757.6,598.8,758.4,599.5z M756.4,605.1c0.3-0.2,0.5-0.5,0.7-0.8v-0.8h-1.6
		c-1,0-1.4,0.3-1.4,0.9c0,0.3,0.1,0.5,0.4,0.7c0.3,0.2,0.6,0.3,1,0.3C755.7,605.3,756.1,605.2,756.4,605.1z"/>
	<path class="st2" d="M768.3,599.1c0.6,0.3,1.1,0.8,1.4,1.5c0.7,1.4,0.7,3,0,4.4c-0.3,0.6-0.8,1.1-1.4,1.5c-0.6,0.3-1.3,0.5-2,0.5
		c-1,0.1-1.9-0.3-2.5-1v0.9h-2.2v-11.1h2.3v3.9c0.6-0.7,1.5-1,2.4-1C767,598.6,767.7,598.8,768.3,599.1z M767.3,604.4
		c0.8-0.9,0.8-2.3,0-3.3c-0.8-0.8-2.1-0.8-3,0c-0.8,0.9-0.8,2.3,0,3.3C765.2,605.2,766.5,605.2,767.3,604.4z"/>
	<path class="st2" d="M779.7,603.4h-6.1c0.1,0.5,0.4,0.9,0.8,1.2c0.5,0.3,1,0.5,1.5,0.4c0.4,0,0.8-0.1,1.1-0.2
		c0.3-0.1,0.6-0.3,0.9-0.6l1.2,1.4c-0.9,0.9-2.1,1.4-3.3,1.3c-0.8,0-1.7-0.2-2.4-0.5c-0.7-0.3-1.2-0.8-1.6-1.5
		c-0.4-0.6-0.6-1.4-0.6-2.1c0-0.8,0.2-1.5,0.6-2.1c0.4-0.6,0.9-1.1,1.5-1.5c1.4-0.7,3-0.7,4.3,0c0.6,0.3,1.2,0.8,1.5,1.5
		c0.4,0.7,0.6,1.4,0.5,2.2C779.7,602.8,779.7,603,779.7,603.4z M774.2,600.8c-0.4,0.3-0.6,0.8-0.7,1.2h4c-0.1-0.5-0.3-0.9-0.7-1.2
		c-0.4-0.3-0.8-0.5-1.3-0.5C775.1,600.4,774.6,600.5,774.2,600.8L774.2,600.8z"/>
	<path class="st2" d="M789.4,598.7v8.1h-2.2v-1c-0.3,0.3-0.7,0.6-1.1,0.8c-0.4,0.2-0.9,0.3-1.4,0.3c-0.9,0-1.8-0.3-2.5-0.9
		c-0.7-0.7-1-1.7-0.9-2.7v-4.6h2.3v4.2c0,1.3,0.5,2,1.6,2c0.5,0,1-0.2,1.4-0.5c0.4-0.5,0.6-1,0.5-1.6v-4L789.4,598.7z"/>
	<path class="st2" d="M886.3,490c-0.8-0.4-1.6-1.1-2-1.9c-1-1.7-1-3.9,0-5.6c0.5-0.8,1.2-1.5,2-1.9c0.9-0.5,1.9-0.7,2.9-0.7
		c0.8,0,1.7,0.2,2.5,0.5c0.7,0.3,1.4,0.8,1.9,1.4l-1.6,1.4c-0.6-0.8-1.6-1.2-2.6-1.2c-0.6,0-1.2,0.1-1.7,0.4
		c-0.5,0.3-0.9,0.7-1.2,1.2c-0.6,1.1-0.6,2.4,0,3.5c0.3,0.5,0.7,0.9,1.2,1.2c0.5,0.3,1.1,0.4,1.7,0.4c1,0,2-0.4,2.6-1.2l1.6,1.4
		c-0.5,0.6-1.1,1.1-1.9,1.4c-0.8,0.3-1.6,0.5-2.5,0.5C888.2,490.7,887.2,490.4,886.3,490z"/>
	<path class="st2" d="M901.1,483.2c0.7,0.7,1.1,1.7,1,2.7v4.6h-2.2v-1c-0.5,0.8-1.5,1.2-2.5,1.1c-0.6,0-1.1-0.1-1.6-0.3
		c-0.4-0.2-0.8-0.5-1-0.9c-0.2-0.4-0.4-0.8-0.4-1.3c0-0.7,0.3-1.4,0.8-1.8c0.8-0.5,1.7-0.7,2.6-0.6h1.9c0-0.4-0.1-0.9-0.5-1.2
		c-0.4-0.3-0.9-0.5-1.4-0.4c-0.4,0-0.9,0.1-1.3,0.2c-0.4,0.1-0.7,0.3-1.1,0.5l-0.8-1.6c0.5-0.3,1-0.6,1.6-0.7
		c0.6-0.2,1.3-0.3,1.9-0.3C899.3,482.2,900.3,482.6,901.1,483.2z M899.1,488.8c0.3-0.2,0.5-0.5,0.7-0.8v-0.8h-1.6
		c-1,0-1.4,0.3-1.4,0.9c0,0.3,0.1,0.5,0.4,0.7c0.3,0.2,0.6,0.3,1,0.3C898.4,489,898.8,488.9,899.1,488.8z"/>
	<path class="st2" d="M904.2,479.4h2.3v11.1h-2.3V479.4z"/>
	<path class="st2" d="M914.9,483.2c0.7,0.7,1.1,1.7,1,2.7v4.6h-2.2v-1c-0.5,0.8-1.5,1.2-2.5,1.1c-0.6,0-1.1-0.1-1.6-0.3
		c-0.4-0.2-0.8-0.5-1-0.9c-0.2-0.4-0.4-0.8-0.4-1.3c0-0.7,0.3-1.4,0.8-1.8c0.8-0.5,1.7-0.7,2.6-0.6h1.9c0-0.4-0.1-0.9-0.5-1.2
		c-0.4-0.3-0.9-0.5-1.4-0.4c-0.4,0-0.9,0.1-1.3,0.2c-0.4,0.1-0.7,0.3-1.1,0.5l-0.8-1.6c0.5-0.3,1-0.6,1.6-0.7
		c0.6-0.2,1.3-0.3,1.9-0.3C913,482.2,914.1,482.6,914.9,483.2z M912.9,488.8c0.3-0.2,0.5-0.5,0.7-0.8v-0.8h-1.6
		c-1,0-1.4,0.3-1.4,0.9c0,0.3,0.1,0.5,0.4,0.7c0.3,0.2,0.6,0.3,1,0.3C912.2,489,912.6,488.9,912.9,488.8L912.9,488.8z"/>
	<path class="st2" d="M918.7,490.4c-0.5-0.1-1.1-0.3-1.5-0.6l0.8-1.7c0.4,0.3,0.8,0.4,1.3,0.6c0.5,0.1,1,0.2,1.5,0.2
		c1,0,1.5-0.2,1.5-0.7c0-0.2-0.2-0.4-0.4-0.5c-0.4-0.1-0.8-0.2-1.2-0.3c-0.6-0.1-1.1-0.2-1.6-0.3c-0.4-0.1-0.8-0.4-1.1-0.7
		c-0.3-0.4-0.5-0.9-0.5-1.4c0-0.5,0.1-1,0.4-1.4c0.3-0.4,0.8-0.7,1.3-0.9c0.6-0.2,1.3-0.3,2-0.3c0.6,0,1.1,0.1,1.7,0.2
		c0.5,0.1,1,0.3,1.4,0.5l-0.8,1.7c-0.7-0.4-1.5-0.6-2.3-0.6c-0.4,0-0.8,0-1.1,0.2c-0.2,0.1-0.4,0.3-0.4,0.5c0,0.2,0.2,0.5,0.4,0.5
		c0.4,0.1,0.9,0.2,1.3,0.3c0.5,0.1,1.1,0.2,1.6,0.4c0.4,0.1,0.8,0.4,1.1,0.7c0.3,0.4,0.5,0.9,0.5,1.4c0,0.5-0.2,1-0.5,1.3
		c-0.3,0.4-0.8,0.7-1.3,0.9c-0.7,0.2-1.4,0.3-2,0.3C920,490.6,919.4,490.5,918.7,490.4z"/>
	<path class="st2" d="M938.4,479.4v11.1h-2.2v-0.9c-0.6,0.7-1.6,1.1-2.5,1c-0.7,0-1.4-0.2-2.1-0.5c-0.6-0.3-1.1-0.8-1.4-1.5
		c-0.7-1.4-0.7-3,0-4.4c0.3-0.6,0.8-1.1,1.4-1.5c0.6-0.3,1.3-0.5,2.1-0.5c0.9,0,1.8,0.3,2.4,1v-3.9L938.4,479.4z M935.5,488.1
		c0.8-0.9,0.8-2.3,0-3.3c-0.4-0.4-0.9-0.6-1.5-0.6c-0.6,0-1.1,0.2-1.5,0.6c-0.8,0.9-0.8,2.3,0,3.3c0.4,0.4,0.9,0.6,1.5,0.6
		C934.6,488.7,935.2,488.5,935.5,488.1L935.5,488.1z"/>
	<path class="st2" d="M948.4,487.1h-6.1c0.1,0.5,0.4,0.9,0.8,1.2c0.5,0.3,1,0.5,1.5,0.4c0.4,0,0.8-0.1,1.1-0.2
		c0.3-0.1,0.6-0.3,0.9-0.6l1.2,1.4c-0.9,0.9-2.1,1.4-3.3,1.3c-0.8,0-1.7-0.2-2.4-0.5c-0.7-0.3-1.2-0.8-1.6-1.5
		c-0.4-0.6-0.6-1.4-0.6-2.1c0-0.8,0.2-1.5,0.6-2.1c0.4-0.6,0.9-1.1,1.5-1.5c1.4-0.7,3-0.7,4.3,0c0.6,0.3,1.2,0.8,1.5,1.5
		c0.4,0.7,0.6,1.4,0.5,2.2C948.5,486.5,948.5,486.7,948.4,487.1z M943,484.5c-0.4,0.3-0.6,0.8-0.7,1.2h4c-0.1-0.5-0.3-0.9-0.7-1.2
		c-0.4-0.3-0.8-0.5-1.3-0.5C943.8,484.1,943.3,484.2,943,484.5L943,484.5z"/>
	<path class="st2" d="M857.5,508.3c-0.7-0.2-1.3-0.5-1.9-0.9l0.8-1.8c0.5,0.3,1,0.6,1.6,0.8c0.6,0.2,1.2,0.3,1.9,0.3
		c0.5,0,1.1-0.1,1.5-0.3c0.3-0.2,0.5-0.5,0.5-0.8c0-0.2-0.1-0.5-0.3-0.6c-0.2-0.2-0.5-0.3-0.8-0.4c-0.3-0.1-0.7-0.2-1.2-0.3
		c-0.7-0.2-1.3-0.3-2-0.6c-0.5-0.2-1-0.5-1.3-0.9c-0.4-0.5-0.6-1.1-0.5-1.7c0-0.6,0.2-1.2,0.5-1.7c0.4-0.5,0.9-0.9,1.5-1.2
		c0.8-0.3,1.6-0.5,2.4-0.4c0.7,0,1.3,0.1,2,0.2c0.6,0.1,1.2,0.4,1.7,0.7l-0.8,1.8c-0.9-0.5-1.9-0.8-2.9-0.8c-0.5,0-1,0.1-1.5,0.3
		c-0.3,0.2-0.5,0.5-0.5,0.9c0,0.4,0.2,0.7,0.6,0.8c0.6,0.2,1.1,0.4,1.7,0.5c0.7,0.2,1.3,0.3,2,0.6c0.5,0.2,1,0.5,1.3,0.9
		c0.4,0.5,0.6,1.1,0.5,1.7c0,0.6-0.2,1.2-0.5,1.6c-0.4,0.5-0.9,0.9-1.5,1.2c-0.8,0.3-1.6,0.5-2.4,0.4
		C859.1,508.7,858.2,508.6,857.5,508.3z"/>
	<path class="st2" d="M872,501.2c0.7,0.7,1.1,1.7,1,2.7v4.6h-2.2v-1c-0.5,0.8-1.5,1.2-2.5,1.1c-0.6,0-1.1-0.1-1.6-0.3
		c-0.4-0.2-0.8-0.5-1-0.9c-0.2-0.4-0.4-0.8-0.4-1.3c0-0.7,0.3-1.4,0.8-1.8c0.8-0.5,1.7-0.7,2.6-0.6h1.9c0-0.4-0.1-0.9-0.5-1.2
		c-0.4-0.3-0.9-0.5-1.4-0.4c-0.4,0-0.9,0.1-1.3,0.2c-0.4,0.1-0.7,0.3-1.1,0.5l-0.8-1.6c0.5-0.3,1-0.6,1.6-0.7
		c0.6-0.2,1.3-0.3,1.9-0.3C870.1,500.2,871.1,500.6,872,501.2z M870,506.8c0.3-0.2,0.5-0.5,0.7-0.8v-0.8H869c-1,0-1.4,0.3-1.4,0.9
		c0,0.3,0.1,0.5,0.4,0.7c0.3,0.2,0.6,0.3,1,0.3C869.3,507,869.6,506.9,870,506.8L870,506.8z"/>
	<path class="st2" d="M882.4,501.2c0.7,0.7,1,1.7,0.9,2.7v4.6H881v-4.3c0-0.5-0.1-1-0.4-1.4c-0.3-0.3-0.8-0.5-1.2-0.5
		c-0.5,0-1,0.2-1.4,0.5c-0.4,0.5-0.6,1-0.5,1.6v4h-2.3v-8.1h2.2v0.9c0.3-0.3,0.7-0.6,1.2-0.8c0.5-0.2,1-0.3,1.5-0.3
		C880.9,500.3,881.8,500.6,882.4,501.2z"/>
	<path class="st2" d="M890.7,508.1c-0.3,0.2-0.5,0.3-0.8,0.4c-0.3,0.1-0.7,0.1-1.1,0.1c-0.8,0.1-1.6-0.2-2.2-0.7
		c-0.6-0.6-0.8-1.4-0.8-2.2v-3.3h-1.2v-1.8h1.2v-2h2.3v2h2v1.8h-2v3.3c0,0.3,0.1,0.6,0.3,0.8c0.2,0.2,0.5,0.3,0.7,0.3
		c0.3,0,0.7-0.1,0.9-0.3L890.7,508.1z"/>
	<path class="st2" d="M898.1,501.2c0.7,0.7,1.1,1.7,1,2.7v4.6h-2.2v-1c-0.5,0.8-1.5,1.2-2.5,1.1c-0.6,0-1.1-0.1-1.6-0.3
		c-0.4-0.2-0.8-0.5-1-0.9c-0.2-0.4-0.4-0.8-0.4-1.3c0-0.7,0.3-1.4,0.8-1.8c0.8-0.5,1.7-0.7,2.6-0.6h1.9c0-0.4-0.1-0.9-0.5-1.2
		c-0.4-0.3-0.9-0.5-1.4-0.4c-0.4,0-0.9,0.1-1.3,0.2c-0.4,0.1-0.7,0.3-1.1,0.5l-0.8-1.6c0.5-0.3,1-0.6,1.6-0.7
		c0.6-0.2,1.3-0.3,1.9-0.3C896.3,500.2,897.3,500.6,898.1,501.2z M896.1,506.8c0.3-0.2,0.5-0.5,0.7-0.8v-0.8h-1.6
		c-1,0-1.4,0.3-1.4,0.9c0,0.3,0.1,0.5,0.4,0.7c0.3,0.2,0.6,0.3,1,0.3C895.4,507,895.8,506.9,896.1,506.8z"/>
	<path class="st2" d="M912.6,498.5c1.3,0.6,2.2,1.9,2.1,3.3c0,0.7-0.2,1.4-0.6,2c-0.4,0.6-0.9,1-1.6,1.3c-0.8,0.3-1.6,0.5-2.4,0.5
		h-2.1v2.9h-2.4V498h4.5C911,498,911.8,498.1,912.6,498.5z M911.7,503.1c0.4-0.3,0.6-0.8,0.6-1.3c0-0.5-0.2-1-0.6-1.4
		c-0.5-0.3-1.1-0.5-1.7-0.5h-2v3.6h2C910.6,503.7,911.2,503.5,911.7,503.1z"/>
	<path class="st2" d="M917.8,508.1c-0.7-0.3-1.2-0.8-1.6-1.5c-0.8-1.3-0.8-3,0-4.3c0.4-0.6,0.9-1.1,1.6-1.5c1.4-0.7,3.1-0.7,4.6,0
		c0.7,0.3,1.2,0.8,1.6,1.5c0.8,1.3,0.8,3,0,4.3c-0.4,0.6-0.9,1.1-1.6,1.5C921,508.8,919.3,508.8,917.8,508.1z M921.6,506.1
		c0.8-0.9,0.8-2.3,0-3.3c-0.4-0.4-0.9-0.6-1.5-0.6c-0.6,0-1.1,0.2-1.5,0.6c-0.8,0.9-0.8,2.3,0,3.3c0.4,0.4,0.9,0.6,1.5,0.6
		C920.7,506.7,921.2,506.5,921.6,506.1L921.6,506.1z"/>
	<path class="st2" d="M926.1,497.4h2.3v11.1h-2.3V497.4z"/>
	<path class="st2" d="M936.8,501.2c0.7,0.7,1.1,1.7,1,2.7v4.6h-2.2v-1c-0.5,0.8-1.5,1.2-2.5,1.1c-0.6,0-1.1-0.1-1.6-0.3
		c-0.4-0.2-0.8-0.5-1-0.9c-0.2-0.4-0.4-0.8-0.4-1.3c0-0.7,0.3-1.4,0.8-1.8c0.8-0.5,1.7-0.7,2.6-0.6h1.9c0-0.4-0.1-0.9-0.5-1.2
		c-0.4-0.3-0.9-0.5-1.4-0.4c-0.4,0-0.9,0.1-1.3,0.2c-0.4,0.1-0.7,0.3-1.1,0.5l-0.8-1.6c0.5-0.3,1-0.6,1.6-0.7
		c0.6-0.2,1.3-0.3,1.9-0.3C934.9,500.2,935.9,500.6,936.8,501.2z M934.8,506.8c0.3-0.2,0.5-0.5,0.7-0.8v-0.8h-1.6
		c-1,0-1.4,0.3-1.4,0.9c0,0.3,0.1,0.5,0.4,0.7c0.3,0.2,0.6,0.3,1,0.3C934.1,507,934.4,506.9,934.8,506.8z"/>
	<path class="st2" d="M952.4,506.5v2h-8.1V498h7.9v2h-5.5v2.3h4.9v1.9h-4.9v2.4L952.4,506.5z"/>
	<path class="st2" d="M954.9,508.4c-0.5-0.1-1.1-0.3-1.5-0.6l0.8-1.7c0.4,0.3,0.8,0.4,1.3,0.6c0.5,0.1,1,0.2,1.5,0.2
		c1,0,1.5-0.2,1.5-0.7c0-0.2-0.2-0.4-0.4-0.5c-0.4-0.1-0.8-0.2-1.2-0.3c-0.6-0.1-1.1-0.2-1.6-0.3c-0.4-0.1-0.8-0.4-1.1-0.7
		c-0.3-0.4-0.5-0.9-0.5-1.4c0-0.5,0.1-1,0.4-1.4c0.3-0.4,0.8-0.7,1.3-0.9c0.6-0.2,1.3-0.3,2-0.3c0.6,0,1.1,0.1,1.7,0.2
		c0.5,0.1,1,0.3,1.4,0.5l-0.8,1.7c-0.7-0.4-1.5-0.6-2.3-0.6c-0.4,0-0.8,0-1.1,0.2c-0.2,0.1-0.4,0.3-0.4,0.5c0,0.2,0.2,0.5,0.4,0.5
		c0.4,0.1,0.9,0.2,1.3,0.3c0.5,0.1,1.1,0.2,1.6,0.4c0.4,0.1,0.8,0.4,1.1,0.7c0.3,0.4,0.5,0.9,0.5,1.4c0,0.5-0.2,1-0.5,1.3
		c-0.3,0.4-0.8,0.7-1.3,0.9c-0.7,0.2-1.4,0.3-2,0.3C956.2,508.6,955.5,508.5,954.9,508.4z"/>
	<path class="st2" d="M967.3,508.1c-0.3,0.2-0.5,0.3-0.8,0.4c-0.3,0.1-0.7,0.1-1.1,0.1c-0.8,0.1-1.6-0.2-2.2-0.7
		c-0.6-0.6-0.8-1.4-0.8-2.2v-3.3h-1.2v-1.8h1.2v-2h2.3v2h2v1.8h-2v3.3c0,0.3,0.1,0.6,0.3,0.8c0.2,0.2,0.5,0.3,0.7,0.3
		c0.3,0,0.7-0.1,0.9-0.3L967.3,508.1z"/>
	<path class="st2" d="M976.2,505.1h-6.1c0.1,0.5,0.4,0.9,0.8,1.2c0.5,0.3,1,0.5,1.5,0.4c0.4,0,0.8-0.1,1.1-0.2
		c0.3-0.1,0.6-0.3,0.9-0.6l1.2,1.4c-0.9,0.9-2.1,1.4-3.3,1.3c-0.8,0-1.7-0.2-2.4-0.5c-0.7-0.3-1.2-0.8-1.6-1.5
		c-0.4-0.6-0.6-1.4-0.6-2.1c0-0.8,0.2-1.5,0.6-2.1c0.4-0.6,0.9-1.1,1.5-1.5c1.4-0.7,3-0.7,4.3,0c0.6,0.3,1.2,0.8,1.5,1.5
		c0.4,0.7,0.6,1.4,0.5,2.2C976.3,504.5,976.3,504.7,976.2,505.1z M970.8,502.5c-0.4,0.3-0.6,0.8-0.7,1.2h4c-0.1-0.5-0.3-0.9-0.7-1.2
		c-0.4-0.3-0.8-0.5-1.3-0.5C971.6,502.1,971.1,502.2,970.8,502.5L970.8,502.5z"/>
	<path class="st2" d="M118.2,568.3h-3.4v-2h9.2v2h-3.4v8.5h-2.4V568.3z"/>
	<path class="st2" d="M130.8,569.5c0.7,0.7,1.1,1.7,1,2.7v4.6h-2.2v-1c-0.5,0.8-1.5,1.2-2.5,1.1c-0.6,0-1.1-0.1-1.6-0.3
		c-0.4-0.2-0.8-0.5-1-0.9c-0.2-0.4-0.4-0.8-0.4-1.3c0-0.7,0.3-1.4,0.8-1.8c0.8-0.5,1.7-0.7,2.6-0.6h1.9c0-0.4-0.1-0.9-0.5-1.2
		c-0.4-0.3-0.9-0.5-1.4-0.4c-0.4,0-0.9,0.1-1.3,0.2c-0.4,0.1-0.7,0.3-1.1,0.5l-0.8-1.6c0.5-0.3,1-0.6,1.6-0.7
		c0.6-0.2,1.3-0.3,1.9-0.3C129,568.5,130,568.8,130.8,569.5z M128.8,575.1c0.3-0.2,0.5-0.5,0.7-0.8v-0.8h-1.6c-1,0-1.4,0.3-1.4,0.9
		c0,0.3,0.1,0.5,0.4,0.7c0.3,0.2,0.6,0.3,1,0.3C128.1,575.3,128.5,575.2,128.8,575.1z"/>
	<path class="st2" d="M146.7,569.5c0.6,0.7,1,1.7,0.9,2.7v4.6h-2.3v-4.3c0-0.5-0.1-1-0.4-1.4c-0.3-0.3-0.7-0.5-1.1-0.5
		c-0.5,0-1,0.2-1.3,0.5c-0.4,0.4-0.5,1-0.5,1.6v4h-2.3v-4.3c0-1.3-0.5-1.9-1.5-1.9c-0.5,0-1,0.2-1.3,0.5c-0.4,0.4-0.5,1-0.5,1.6v4
		h-2.3v-8.1h2.2v0.9c0.3-0.3,0.7-0.6,1.1-0.8c0.5-0.2,0.9-0.3,1.4-0.3c0.5,0,1.1,0.1,1.5,0.3c0.5,0.2,0.8,0.6,1.1,1
		c0.3-0.4,0.8-0.8,1.3-1c0.5-0.2,1.1-0.4,1.7-0.3C145.2,568.6,146,568.9,146.7,569.5z"/>
	<path class="st2" d="M155.8,569.5c0.7,0.7,1.1,1.7,1,2.7v4.6h-2.2v-1c-0.5,0.8-1.5,1.2-2.5,1.1c-0.6,0-1.1-0.1-1.6-0.3
		c-0.4-0.2-0.8-0.5-1-0.9c-0.2-0.4-0.4-0.8-0.4-1.3c0-0.7,0.3-1.4,0.8-1.8c0.8-0.5,1.7-0.7,2.6-0.6h1.9c0-0.4-0.1-0.9-0.5-1.2
		c-0.4-0.3-0.9-0.5-1.4-0.4c-0.4,0-0.9,0.1-1.3,0.2c-0.4,0.1-0.7,0.3-1.1,0.5l-0.8-1.6c0.5-0.3,1-0.6,1.6-0.7
		c0.6-0.2,1.3-0.3,1.9-0.3C154,568.5,155,568.8,155.8,569.5z M153.8,575.1c0.3-0.2,0.5-0.5,0.7-0.8v-0.8h-1.6c-1,0-1.4,0.3-1.4,0.9
		c0,0.3,0.1,0.5,0.4,0.7c0.3,0.2,0.6,0.3,1,0.3C153.1,575.3,153.5,575.2,153.8,575.1z"/>
	<path class="st2" d="M162.3,568.9c0.5-0.2,1.1-0.3,1.6-0.3v2.2c-0.3,0-0.4,0-0.5,0c-0.6,0-1.1,0.2-1.6,0.6
		c-0.4,0.5-0.6,1.1-0.6,1.7v3.8h-2.3v-8.1h2.2v1.1C161.4,569.4,161.8,569.1,162.3,568.9z"/>
	<path class="st2" d="M165.4,567.2c-0.5-0.5-0.5-1.3-0.1-1.8c0,0,0,0,0.1-0.1c0.3-0.3,0.7-0.4,1.1-0.4c0.4,0,0.8,0.1,1.1,0.4
		c0.3,0.2,0.4,0.6,0.4,0.9c0,0.4-0.1,0.7-0.4,1c-0.3,0.3-0.7,0.4-1.1,0.4C166.1,567.6,165.7,567.5,165.4,567.2z M165.3,568.7h2.3
		v8.1h-2.3V568.7z"/>
	<path class="st2" d="M175,576.4c-0.3,0.2-0.5,0.3-0.8,0.4c-0.3,0.1-0.7,0.1-1.1,0.1c-0.8,0.1-1.6-0.2-2.2-0.7
		c-0.6-0.6-0.8-1.4-0.8-2.2v-3.3h-1.2v-1.8h1.2v-2h2.3v2h2v1.8h-2v3.3c0,0.3,0.1,0.6,0.3,0.8c0.2,0.2,0.5,0.3,0.7,0.3
		c0.3,0,0.7-0.1,0.9-0.3L175,576.4z"/>
	<path class="st2" d="M180.3,571.6h4.2v1.9h-4.2V571.6z"/>
	<path class="st2" d="M197.8,566.8c1.3,0.6,2.2,1.9,2.1,3.3c0,0.7-0.2,1.4-0.6,2c-0.4,0.6-0.9,1-1.6,1.3c-0.8,0.3-1.6,0.5-2.4,0.5
		h-2.1v2.9h-2.4v-10.5h4.5C196.2,566.3,197,566.4,197.8,566.8z M196.9,571.4c0.4-0.3,0.6-0.8,0.6-1.3c0-0.5-0.2-1-0.6-1.4
		c-0.5-0.3-1.1-0.5-1.7-0.5h-2v3.6h2C195.8,572,196.4,571.8,196.9,571.4L196.9,571.4z"/>
	<path class="st2" d="M201.6,565.7h2.3v11.1h-2.3V565.7z"/>
	<path class="st2" d="M212.3,569.5c0.7,0.7,1.1,1.7,1,2.7v4.6h-2.2v-1c-0.5,0.8-1.5,1.2-2.5,1.1c-0.6,0-1.1-0.1-1.6-0.3
		c-0.4-0.2-0.8-0.5-1-0.9c-0.2-0.4-0.4-0.8-0.4-1.3c0-0.7,0.3-1.4,0.8-1.8c0.8-0.5,1.7-0.7,2.6-0.6h1.9c0-0.4-0.1-0.9-0.5-1.2
		c-0.4-0.3-0.9-0.5-1.4-0.4c-0.4,0-0.9,0.1-1.3,0.2c-0.4,0.1-0.7,0.3-1.1,0.5l-0.8-1.6c0.5-0.3,1-0.6,1.6-0.7
		c0.6-0.2,1.3-0.3,1.9-0.3C210.4,568.5,211.5,568.8,212.3,569.5z M210.3,575.1c0.3-0.2,0.5-0.5,0.7-0.8v-0.8h-1.6
		c-1,0-1.4,0.3-1.4,0.9c0,0.3,0.1,0.5,0.4,0.7c0.3,0.2,0.6,0.3,1,0.3C209.6,575.3,210,575.2,210.3,575.1z"/>
	<path class="st2" d="M223.3,568.7l-3.6,8.6c-0.3,0.8-0.7,1.5-1.4,2c-0.6,0.4-1.3,0.6-2,0.6c-0.4,0-0.8-0.1-1.2-0.2
		c-0.4-0.1-0.7-0.3-1-0.5l0.9-1.7c0.2,0.2,0.4,0.3,0.6,0.4c0.2,0.1,0.5,0.1,0.7,0.1c0.3,0,0.6-0.1,0.8-0.2c0.2-0.2,0.4-0.5,0.5-0.8
		l0-0.1l-3.5-8.1h2.4l2.3,5.5l2.3-5.5L223.3,568.7z"/>
	<path class="st2" d="M230.1,569.5c0.7,0.7,1.1,1.7,1,2.7v4.6h-2.2v-1c-0.5,0.8-1.5,1.2-2.5,1.1c-0.6,0-1.1-0.1-1.6-0.3
		c-0.4-0.2-0.8-0.5-1-0.9c-0.2-0.4-0.4-0.8-0.4-1.3c0-0.7,0.3-1.4,0.8-1.8c0.8-0.5,1.7-0.7,2.6-0.6h1.9c0-0.4-0.1-0.9-0.5-1.2
		c-0.4-0.3-0.9-0.5-1.4-0.4c-0.4,0-0.9,0.1-1.3,0.2c-0.4,0.1-0.7,0.3-1.1,0.5l-0.8-1.6c0.5-0.3,1-0.6,1.6-0.7
		c0.6-0.2,1.3-0.3,1.9-0.3C228.2,568.5,229.3,568.8,230.1,569.5z M228.1,575.1c0.3-0.2,0.5-0.5,0.7-0.8v-0.8h-1.6
		c-1,0-1.4,0.3-1.4,0.9c0,0.3,0.1,0.5,0.4,0.7c0.3,0.2,0.6,0.3,1,0.3C227.4,575.3,227.8,575.2,228.1,575.1L228.1,575.1z"/>
	<path class="st2" d="M237.6,566.3h2.4v8.5h5.3v2h-7.7V566.3z"/>
	<path class="st2" d="M246.6,567.2c-0.5-0.5-0.5-1.3-0.1-1.8c0,0,0,0,0.1-0.1c0.3-0.3,0.7-0.4,1.1-0.4c0.4,0,0.8,0.1,1.1,0.4
		c0.3,0.2,0.4,0.6,0.4,0.9c0,0.4-0.1,0.7-0.4,1c-0.3,0.3-0.7,0.4-1.1,0.4C247.3,567.6,246.9,567.5,246.6,567.2z M246.5,568.7h2.3
		v8.1h-2.3V568.7z"/>
	<path class="st2" d="M251.8,576.7c-0.5-0.1-1.1-0.3-1.5-0.6l0.8-1.7c0.4,0.3,0.8,0.4,1.3,0.6c0.5,0.1,1,0.2,1.5,0.2
		c1,0,1.5-0.2,1.5-0.7c0-0.2-0.2-0.4-0.4-0.5c-0.4-0.1-0.8-0.2-1.2-0.3c-0.6-0.1-1.1-0.2-1.6-0.3c-0.4-0.1-0.8-0.4-1.1-0.7
		c-0.3-0.4-0.5-0.9-0.5-1.4c0-0.5,0.1-1,0.4-1.4c0.3-0.4,0.8-0.7,1.3-0.9c0.6-0.2,1.3-0.3,2-0.3c0.6,0,1.1,0.1,1.7,0.2
		c0.5,0.1,1,0.3,1.4,0.5l-0.8,1.7c-0.7-0.4-1.5-0.6-2.3-0.6c-0.4,0-0.8,0-1.1,0.2c-0.2,0.1-0.4,0.3-0.4,0.5c0,0.2,0.2,0.5,0.4,0.5
		c0.4,0.1,0.9,0.2,1.3,0.3c0.5,0.1,1.1,0.2,1.6,0.4c0.4,0.1,0.8,0.4,1.1,0.7c0.3,0.4,0.5,0.9,0.5,1.4c0,0.5-0.2,1-0.5,1.3
		c-0.3,0.4-0.8,0.7-1.3,0.9c-0.7,0.2-1.4,0.3-2,0.3C253.1,576.9,252.4,576.8,251.8,576.7z"/>
	<path class="st2" d="M259.7,576.7c-0.5-0.1-1.1-0.3-1.5-0.6l0.8-1.7c0.4,0.3,0.8,0.4,1.3,0.6c0.5,0.1,1,0.2,1.5,0.2
		c1,0,1.5-0.2,1.5-0.7c0-0.2-0.2-0.4-0.4-0.5c-0.4-0.1-0.8-0.2-1.2-0.3c-0.6-0.1-1.1-0.2-1.6-0.3c-0.4-0.1-0.8-0.4-1.1-0.7
		c-0.3-0.4-0.5-0.9-0.5-1.4c0-0.5,0.1-1,0.4-1.4c0.3-0.4,0.8-0.7,1.3-0.9c0.6-0.2,1.3-0.3,2-0.3c0.6,0,1.1,0.1,1.7,0.2
		c0.5,0.1,1,0.3,1.4,0.5l-0.8,1.7c-0.7-0.4-1.5-0.6-2.3-0.6c-0.4,0-0.8,0-1.1,0.2c-0.2,0.1-0.4,0.3-0.4,0.5c0,0.2,0.2,0.5,0.4,0.5
		c0.4,0.1,0.9,0.2,1.3,0.3c0.5,0.1,1.1,0.2,1.6,0.4c0.4,0.1,0.8,0.4,1.1,0.7c0.3,0.4,0.5,0.9,0.5,1.4c0,0.5-0.2,1-0.5,1.3
		c-0.3,0.4-0.8,0.7-1.3,0.9c-0.7,0.2-1.4,0.3-2,0.3C261,576.9,260.4,576.8,259.7,576.7z"/>
	<path class="st2" d="M273.1,569.5c0.7,0.7,1.1,1.7,1,2.7v4.6h-2.2v-1c-0.5,0.8-1.5,1.2-2.5,1.1c-0.6,0-1.1-0.1-1.6-0.3
		c-0.4-0.2-0.8-0.5-1-0.9c-0.2-0.4-0.4-0.8-0.4-1.3c0-0.7,0.3-1.4,0.8-1.8c0.8-0.5,1.7-0.7,2.6-0.6h1.9c0-0.4-0.1-0.9-0.5-1.2
		c-0.4-0.3-0.9-0.5-1.4-0.4c-0.4,0-0.9,0.1-1.3,0.2c-0.4,0.1-0.7,0.3-1.1,0.5l-0.8-1.6c0.5-0.3,1-0.6,1.6-0.7
		c0.6-0.2,1.3-0.3,1.9-0.3C271.2,568.5,272.3,568.8,273.1,569.5z M271.1,575.1c0.3-0.2,0.5-0.5,0.7-0.8v-0.8h-1.6
		c-1,0-1.4,0.3-1.4,0.9c0,0.3,0.1,0.5,0.4,0.7c0.3,0.2,0.6,0.3,1,0.3C270.4,575.3,270.8,575.2,271.1,575.1L271.1,575.1z"/>
	<path class="st2" d="M583.5,627.5c1.3,0.6,2.2,1.9,2.1,3.3c0,0.7-0.2,1.4-0.6,2c-0.4,0.6-0.9,1-1.6,1.3c-0.8,0.3-1.6,0.5-2.4,0.5
		H579v2.9h-2.4V627h4.5C581.9,627,582.7,627.2,583.5,627.5z M582.6,632.2c0.4-0.3,0.6-0.8,0.6-1.3c0-0.5-0.2-1-0.6-1.4
		c-0.5-0.3-1.1-0.5-1.7-0.5h-2v3.6h2C581.5,632.7,582.1,632.5,582.6,632.2L582.6,632.2z"/>
	<path class="st2" d="M595.5,629.5v8.1h-2.2v-1c-0.3,0.3-0.7,0.6-1.1,0.8c-0.4,0.2-0.9,0.3-1.4,0.3c-0.9,0-1.8-0.3-2.5-0.9
		c-0.7-0.7-1-1.7-0.9-2.7v-4.6h2.3v4.2c0,1.3,0.5,2,1.6,2c0.5,0,1-0.2,1.3-0.5c0.4-0.5,0.6-1,0.5-1.6v-4L595.5,629.5z"/>
	<path class="st2" d="M605.5,634.2h-6.1c0.1,0.5,0.4,0.9,0.8,1.2c0.5,0.3,1,0.5,1.5,0.4c0.4,0,0.8-0.1,1.1-0.2
		c0.3-0.1,0.6-0.3,0.9-0.6l1.2,1.3c-0.9,0.9-2.1,1.4-3.3,1.3c-0.8,0-1.7-0.2-2.4-0.5c-0.7-0.3-1.2-0.8-1.6-1.5
		c-0.4-0.6-0.6-1.4-0.6-2.1c0-0.8,0.2-1.5,0.6-2.1c0.4-0.6,0.9-1.1,1.5-1.5c1.4-0.7,3-0.7,4.3,0c0.6,0.3,1.2,0.8,1.5,1.5
		c0.4,0.7,0.6,1.4,0.5,2.2C605.6,633.6,605.6,633.8,605.5,634.2z M600,631.6c-0.4,0.3-0.6,0.8-0.7,1.2h4c-0.1-0.5-0.3-0.9-0.7-1.2
		c-0.4-0.3-0.8-0.5-1.3-0.5C600.9,631.1,600.4,631.3,600,631.6z"/>
	<path class="st2" d="M610.5,629.7c0.5-0.2,1.1-0.3,1.6-0.3v2.2c-0.3,0-0.4,0-0.5,0c-0.6,0-1.1,0.2-1.6,0.6
		c-0.4,0.5-0.6,1.1-0.6,1.7v3.8h-2.3v-8.1h2.2v1.1C609.6,630.1,610,629.8,610.5,629.7z"/>
	<path class="st2" d="M619,637.2c-0.3,0.2-0.5,0.3-0.8,0.4c-0.3,0.1-0.7,0.1-1.1,0.1c-0.8,0.1-1.6-0.2-2.2-0.7
		c-0.6-0.6-0.8-1.4-0.8-2.2v-3.3h-1.2v-1.8h1.2v-2h2.3v2h2v1.8h-2v3.3c0,0.3,0.1,0.6,0.3,0.8c0.2,0.2,0.5,0.3,0.7,0.3
		c0.3,0,0.7-0.1,0.9-0.3L619,637.2z"/>
	<path class="st2" d="M621.6,637.1c-0.7-0.3-1.2-0.8-1.6-1.5c-0.8-1.3-0.8-3,0-4.3c0.4-0.6,0.9-1.1,1.6-1.5c1.4-0.7,3.1-0.7,4.6,0
		c0.7,0.3,1.2,0.8,1.6,1.5c0.8,1.3,0.8,3,0,4.3c-0.4,0.6-0.9,1.1-1.6,1.5C624.8,637.8,623.1,637.8,621.6,637.1z M625.4,635.1
		c0.8-0.9,0.8-2.3,0-3.3c-0.4-0.4-0.9-0.6-1.5-0.6c-0.6,0-1.1,0.2-1.5,0.6c-0.8,0.9-0.8,2.3,0,3.3c0.4,0.4,0.9,0.6,1.5,0.6
		C624.5,635.8,625,635.5,625.4,635.1L625.4,635.1z"/>
	<path class="st2" d="M660.3,599c0.4-0.5,1-0.9,1.7-1.1c1.4-0.4,2.9,0.1,3.9,1.2c0.5,0.5,0.7,1.2,0.8,1.9c0.1,0.8,0,1.7-0.3,2.5
		l-0.6,2l2.8,0.8l-0.7,2.3l-10.1-3l1.3-4.4C659.4,600.4,659.8,599.6,660.3,599z M664.6,601.2c-0.5-0.9-1.6-1.3-2.5-0.8c0,0,0,0,0,0
		c-0.5,0.4-0.8,0.9-0.9,1.5l-0.6,1.9l3.5,1l0.6-1.9C664.8,602.4,664.8,601.7,664.6,601.2L664.6,601.2z"/>
	<path class="st2" d="M660.4,595l0.7-2.2l10.7,3.2l-0.7,2.2L660.4,595z"/>
	<path class="st2" d="M667.1,585.9c0.9-0.5,1.9-0.6,2.9-0.2l4.4,1.3l-0.6,2.1l-1-0.3c0.6,0.8,0.8,1.8,0.4,2.7
		c-0.1,0.5-0.4,1-0.8,1.5c-0.3,0.4-0.7,0.6-1.1,0.8c-0.4,0.1-0.9,0.1-1.3,0c-0.7-0.2-1.2-0.7-1.5-1.3c-0.2-0.9-0.2-1.8,0.1-2.7
		l0.5-1.8c-0.4-0.2-0.9-0.1-1.3,0.1c-0.4,0.3-0.7,0.7-0.8,1.2c-0.1,0.4-0.2,0.8-0.2,1.3c0,0.4,0.1,0.8,0.2,1.2l-1.8,0.3
		c-0.2-0.6-0.3-1.1-0.2-1.7c0-0.6,0.1-1.3,0.3-1.9C665.7,587.4,666.3,586.5,667.1,585.9z M671.9,589.4c-0.1-0.3-0.3-0.7-0.6-0.9
		l-0.8-0.2l-0.5,1.5c-0.3,0.9-0.1,1.5,0.5,1.7c0.3,0.1,0.6,0,0.8-0.1c0.3-0.2,0.4-0.5,0.5-0.9C671.9,590.1,672,589.7,671.9,589.4
		L671.9,589.4z"/>
	<path class="st2" d="M669.5,575.1l7.2,5.9c0.7,0.5,1.2,1.1,1.5,1.9c0.2,0.7,0.2,1.4,0,2.1c-0.1,0.4-0.3,0.8-0.5,1.1
		c-0.2,0.3-0.5,0.6-0.8,0.8l-1.4-1.3c0.2-0.1,0.4-0.3,0.5-0.5c0.1-0.2,0.3-0.4,0.3-0.6c0.1-0.3,0.1-0.6,0-0.8
		c-0.1-0.3-0.3-0.5-0.6-0.7l-0.1,0l-8.8,1l0.7-2.3l5.9-0.6l-4.6-3.7L669.5,575.1z"/>
	<path class="st2" d="M672.2,568.8c0.9-0.5,1.9-0.6,2.9-0.2l4.4,1.3l-0.6,2.1l-1-0.3c0.6,0.8,0.8,1.8,0.4,2.7
		c-0.1,0.5-0.4,1-0.8,1.5c-0.3,0.4-0.7,0.6-1.1,0.8c-0.4,0.1-0.9,0.1-1.3,0c-0.7-0.2-1.2-0.7-1.5-1.3c-0.2-0.9-0.2-1.8,0.1-2.7
		l0.5-1.8c-0.4-0.2-0.9-0.1-1.3,0.1c-0.4,0.3-0.7,0.7-0.8,1.2c-0.1,0.4-0.2,0.8-0.2,1.3c0,0.4,0.1,0.8,0.2,1.2l-1.8,0.3
		c-0.2-0.6-0.3-1.1-0.2-1.7c0-0.6,0.1-1.3,0.3-1.9C670.7,570.3,671.3,569.4,672.2,568.8z M677,572.3c-0.1-0.4-0.3-0.7-0.6-0.9
		l-0.8-0.2l-0.5,1.5c-0.3,0.9-0.1,1.5,0.5,1.6c0.3,0.1,0.6,0,0.8-0.1c0.3-0.2,0.4-0.5,0.5-0.9C677,573.1,677,572.7,677,572.3z"/>
	<path class="st2" d="M669.5,619.3l0.7-2.3l8.2,2.4l1.5-5l1.9,0.6l-2.2,7.4L669.5,619.3z"/>
	<path class="st2" d="M681.1,605.3l-1.7,5.9c0.5,0,1-0.1,1.4-0.4c0.4-0.3,0.7-0.8,0.9-1.3c0.1-0.4,0.2-0.7,0.1-1.1
		c0-0.4-0.1-0.7-0.3-1l1.6-0.8c0.6,1.1,0.7,2.4,0.3,3.6c-0.2,0.8-0.6,1.5-1.2,2.2c-0.5,0.5-1.2,0.9-1.9,1.1
		c-0.7,0.2-1.5,0.2-2.2-0.1c-0.7-0.2-1.4-0.6-1.9-1.1c-0.5-0.5-0.8-1.2-1-1.9c-0.3-1.5,0.2-3.1,1.2-4.2c0.5-0.5,1.1-0.9,1.8-1
		c0.8-0.2,1.5-0.1,2.3,0.1C680.5,605.1,680.7,605.2,681.1,605.3z M677,609.8c0.2,0.4,0.5,0.8,1,1l1.1-3.8c-0.5-0.1-1,0-1.4,0.3
		c-0.4,0.3-0.7,0.7-0.8,1.1C676.8,608.9,676.8,609.4,677,609.8L677,609.8z"/>
	<path class="st2" d="M679.3,594.9l6.8,5.6l-0.7,2.3l-8.7,0.9l0.7-2.3l5.9-0.6l-4.6-3.8L679.3,594.9z"/>
	<path class="st2" d="M681.9,588.6c0.9-0.5,1.9-0.6,2.9-0.2l4.4,1.3l-0.6,2.1l-1-0.3c0.6,0.8,0.8,1.8,0.4,2.7
		c-0.1,0.5-0.4,1-0.8,1.5c-0.3,0.4-0.7,0.6-1.1,0.8c-0.4,0.1-0.9,0.1-1.3,0c-0.7-0.2-1.2-0.7-1.5-1.3c-0.2-0.9-0.2-1.8,0.1-2.7
		l0.5-1.8c-0.4-0.2-0.9-0.1-1.3,0.1c-0.4,0.3-0.7,0.7-0.8,1.2c-0.1,0.4-0.2,0.8-0.2,1.3c0,0.4,0.1,0.8,0.2,1.2l-1.8,0.3
		c-0.2-0.6-0.3-1.1-0.2-1.7c0-0.6,0.1-1.3,0.3-1.9C680.5,590.1,681.1,589.2,681.9,588.6z M686.7,592.1c-0.1-0.4-0.3-0.7-0.6-0.9
		l-0.8-0.2l-0.5,1.5c-0.3,0.9-0.1,1.5,0.5,1.6c0.3,0.1,0.6,0,0.8-0.1c0.3-0.2,0.4-0.5,0.5-0.9C686.8,592.9,686.8,592.5,686.7,592.1
		L686.7,592.1z"/>
	<path class="st2" d="M684.9,578.6c0.9-0.4,1.9-0.5,2.8-0.1l4.4,1.3l-0.7,2.2l-4.1-1.2c-0.5-0.2-1-0.2-1.5,0c-0.4,0.2-0.7,0.6-0.8,1
		c-0.2,0.5-0.1,1,0.1,1.5c0.3,0.5,0.8,0.8,1.4,1l3.8,1.1l-0.7,2.2l-7.7-2.3l0.6-2.1l0.9,0.3c-0.2-0.4-0.4-0.9-0.4-1.3
		c0-0.5,0-1,0.2-1.5C683.6,579.8,684.2,579.1,684.9,578.6z"/>
	<path class="st2" d="M693.9,572.7c0.1,0.3,0.1,0.6,0.1,0.9c0,0.4-0.1,0.7-0.2,1c-0.2,0.8-0.7,1.5-1.3,1.9c-0.7,0.4-1.5,0.4-2.3,0.1
		l-3.2-0.9l-0.4,1.2l-1.7-0.5l0.4-1.2l-1.9-0.6l0.7-2.2l1.9,0.6l0.6-1.9l1.7,0.5l-0.6,1.9l3.1,0.9c0.3,0.1,0.6,0.1,0.8,0
		c0.2-0.1,0.4-0.4,0.5-0.6c0.1-0.3,0.1-0.7,0-1L693.9,572.7z"/>
	<path class="st2" d="M693.6,563.3l-1.7,5.9c0.5,0,1-0.1,1.4-0.4c0.4-0.3,0.7-0.8,0.9-1.3c0.1-0.4,0.2-0.7,0.1-1.1
		c0-0.4-0.1-0.7-0.3-1l1.6-0.8c0.6,1.1,0.7,2.4,0.3,3.6c-0.2,0.8-0.6,1.5-1.2,2.2c-0.5,0.5-1.2,0.9-1.9,1.1
		c-0.7,0.2-1.5,0.2-2.2-0.1c-0.7-0.2-1.4-0.6-1.9-1.1c-0.5-0.5-0.8-1.2-1-1.9c-0.3-1.5,0.2-3.1,1.2-4.2c0.5-0.5,1.1-0.9,1.8-1
		c0.8-0.2,1.5-0.1,2.3,0.1C693,563,693.2,563.1,693.6,563.3z M689.5,567.8c0.2,0.4,0.5,0.8,1,1l1.1-3.8c-0.5-0.1-1,0-1.4,0.3
		c-0.4,0.3-0.7,0.7-0.8,1.1C689.3,566.8,689.3,567.3,689.5,567.8L689.5,567.8z"/>
	<path class="st2" d="M470.2,594.3h2.2v4.3c-0.6,0.4-1.3,0.8-2,1c-0.7,0.2-1.5,0.3-2.3,0.3c-1,0-2-0.2-2.9-0.7
		c-0.8-0.4-1.6-1.1-2-1.9c-1-1.7-1-3.9,0-5.6c0.5-0.8,1.2-1.5,2.1-1.9c0.9-0.5,1.9-0.7,3-0.7c0.9,0,1.7,0.1,2.5,0.5
		c0.7,0.3,1.4,0.8,1.9,1.3l-1.6,1.4c-0.7-0.8-1.7-1.2-2.7-1.2c-0.6,0-1.2,0.1-1.8,0.4c-0.5,0.3-0.9,0.7-1.2,1.2
		c-0.6,1.1-0.6,2.4,0,3.5c0.3,0.5,0.7,0.9,1.2,1.2c0.5,0.3,1.1,0.4,1.8,0.4c0.7,0,1.3-0.1,1.9-0.5L470.2,594.3z"/>
	<path class="st2" d="M477.9,591.8c0.5-0.2,1.1-0.3,1.6-0.3v2.2c-0.3,0-0.4,0-0.5,0c-0.6,0-1.1,0.2-1.6,0.6
		c-0.4,0.5-0.6,1.1-0.6,1.7v3.8h-2.3v-8.1h2.2v1.1C477,592.3,477.4,592,477.9,591.8z"/>
	<path class="st2" d="M487,592.4c0.7,0.7,1.1,1.7,1,2.7v4.6h-2.2v-1c-0.5,0.8-1.5,1.2-2.5,1.1c-0.6,0-1.1-0.1-1.6-0.3
		c-0.4-0.2-0.8-0.5-1-0.9c-0.2-0.4-0.4-0.8-0.4-1.3c0-0.7,0.3-1.4,0.8-1.8c0.8-0.5,1.7-0.7,2.6-0.6h1.9c0-0.4-0.1-0.9-0.5-1.2
		c-0.4-0.3-0.9-0.5-1.4-0.4c-0.4,0-0.9,0.1-1.3,0.2c-0.4,0.1-0.7,0.3-1.1,0.5l-0.8-1.6c0.5-0.3,1-0.6,1.6-0.7
		c0.6-0.2,1.3-0.3,1.9-0.3C485.2,591.5,486.2,591.8,487,592.4z M485,598c0.3-0.2,0.5-0.5,0.7-0.8v-0.8h-1.6c-1,0-1.4,0.3-1.4,0.9
		c0,0.3,0.1,0.5,0.4,0.7c0.3,0.2,0.6,0.3,1,0.3C484.3,598.3,484.7,598.2,485,598L485,598z"/>
	<path class="st2" d="M497.4,592.4c0.7,0.7,1,1.7,0.9,2.7v4.6H496v-4.3c0-0.5-0.1-1-0.4-1.4c-0.3-0.3-0.8-0.5-1.2-0.5
		c-0.5,0-1,0.2-1.4,0.5c-0.4,0.5-0.6,1-0.5,1.6v4h-2.3v-8.1h2.2v0.9c0.3-0.3,0.7-0.6,1.2-0.8c0.5-0.2,1-0.3,1.5-0.3
		C495.9,591.5,496.8,591.8,497.4,592.4z"/>
	<path class="st2" d="M511.9,589.7c1.3,0.6,2.2,1.9,2.1,3.3c0,0.7-0.2,1.4-0.6,2c-0.4,0.6-0.9,1-1.6,1.3c-0.8,0.3-1.6,0.5-2.4,0.5
		h-2.1v2.9h-2.4v-10.5h4.5C510.3,589.2,511.1,589.4,511.9,589.7z M511,594.4c0.4-0.3,0.6-0.8,0.6-1.3c0-0.5-0.2-1-0.6-1.4
		c-0.5-0.3-1.1-0.5-1.7-0.5h-2v3.6h2C509.9,594.9,510.5,594.7,511,594.4L511,594.4z"/>
	<path class="st2" d="M515.7,588.6h2.3v11.1h-2.3V588.6z"/>
	<path class="st2" d="M526.4,592.4c0.7,0.7,1.1,1.7,1,2.7v4.6h-2.2v-1c-0.5,0.8-1.5,1.2-2.5,1.1c-0.6,0-1.1-0.1-1.6-0.3
		c-0.4-0.2-0.8-0.5-1-0.9c-0.2-0.4-0.4-0.8-0.4-1.3c0-0.7,0.3-1.4,0.8-1.8c0.8-0.5,1.7-0.7,2.6-0.6h1.9c0-0.4-0.1-0.9-0.5-1.2
		c-0.4-0.3-0.9-0.5-1.4-0.4c-0.4,0-0.9,0.1-1.3,0.2c-0.4,0.1-0.7,0.3-1.1,0.5l-0.8-1.6c0.5-0.3,1-0.6,1.6-0.7
		c0.6-0.2,1.3-0.3,1.9-0.3C524.5,591.5,525.5,591.8,526.4,592.4z M524.4,598c0.3-0.2,0.5-0.5,0.7-0.8v-0.8h-1.6
		c-1,0-1.4,0.3-1.4,0.9c0,0.3,0.1,0.5,0.4,0.7c0.3,0.2,0.6,0.3,1,0.3C523.7,598.3,524,598.2,524.4,598L524.4,598z"/>
	<path class="st2" d="M537.3,591.7l-3.6,8.6c-0.3,0.8-0.7,1.5-1.4,2c-0.6,0.4-1.3,0.6-2,0.6c-0.4,0-0.8-0.1-1.2-0.2
		c-0.4-0.1-0.7-0.3-1-0.5l0.9-1.7c0.2,0.2,0.4,0.3,0.6,0.4c0.2,0.1,0.5,0.1,0.7,0.1c0.3,0,0.6-0.1,0.8-0.2c0.2-0.2,0.4-0.5,0.5-0.8
		l0-0.1l-3.5-8.1h2.4l2.3,5.5l2.3-5.5L537.3,591.7z"/>
	<path class="st2" d="M544.2,592.4c0.7,0.7,1.1,1.7,1,2.7v4.6H543v-1c-0.5,0.8-1.5,1.2-2.5,1.1c-0.6,0-1.1-0.1-1.6-0.3
		c-0.4-0.2-0.8-0.5-1-0.9c-0.2-0.4-0.4-0.8-0.4-1.3c0-0.7,0.3-1.4,0.8-1.8c0.8-0.5,1.7-0.7,2.6-0.6h1.9c0-0.4-0.1-0.9-0.5-1.2
		c-0.4-0.3-0.9-0.5-1.4-0.4c-0.4,0-0.9,0.1-1.3,0.2c-0.4,0.1-0.7,0.3-1.1,0.5l-0.8-1.6c0.5-0.3,1-0.6,1.6-0.7
		c0.6-0.2,1.3-0.3,1.9-0.3C542.3,591.5,543.3,591.8,544.2,592.4z M542.2,598c0.3-0.2,0.5-0.5,0.7-0.8v-0.8h-1.6
		c-1,0-1.4,0.3-1.4,0.9c0,0.3,0.1,0.5,0.4,0.7c0.3,0.2,0.6,0.3,1,0.3C541.5,598.3,541.8,598.2,542.2,598L542.2,598z"/>
	<path class="st2" d="M850.9,612.9c1.5,0,2.8,0.9,3.3,2.2c0.3,0.6,0.4,1.4,0.3,2.1c-0.1,0.7-0.4,1.3-0.9,1.8c-0.6,0.6-1.3,1.1-2,1.4
		l-1.9,0.9l1.2,2.7l-2.2,1l-4.2-9.6l4.2-1.8C849.3,613.1,850.1,612.9,850.9,612.9z M852,617.5c0.2-0.5,0.2-1,0-1.5
		c-0.2-0.5-0.6-0.9-1.1-1c-0.6-0.1-1.2,0-1.7,0.2l-1.8,0.8l1.5,3.3l1.8-0.8C851.2,618.4,851.7,618,852,617.5L852,617.5z"/>
	<path class="st2" d="M854,610.3l2.1-0.9l4.5,10.2l-2.1,0.9L854,610.3z"/>
	<path class="st2" d="M865.3,609.5c0.9,0.4,1.7,1.1,2,2.1l1.9,4.2l-2,0.9l-0.4-0.9c-0.2,1-0.9,1.7-1.8,2c-0.5,0.2-1,0.4-1.6,0.4
		c-0.5,0-0.9-0.1-1.3-0.4c-0.4-0.2-0.7-0.6-0.8-1c-0.3-0.6-0.3-1.4,0.1-2c0.5-0.8,1.3-1.3,2.1-1.6l1.7-0.7c-0.2-0.4-0.5-0.7-0.9-0.9
		c-0.5-0.1-1-0.1-1.4,0.2c-0.4,0.2-0.8,0.4-1.1,0.7c-0.3,0.3-0.6,0.6-0.7,0.9l-1.4-1.2c0.3-0.5,0.7-0.9,1.2-1.3c0.5-0.4,1-0.7,1.6-1
		C863.2,609.4,864.3,609.3,865.3,609.5z M865.7,615.4c0.2-0.3,0.3-0.7,0.3-1l-0.3-0.8l-1.5,0.6c-0.9,0.4-1.2,0.9-0.9,1.4
		c0.1,0.3,0.3,0.5,0.6,0.5c0.3,0.1,0.7,0,1-0.1C865.2,616,865.5,615.7,865.7,615.4L865.7,615.4z"/>
	<path class="st2" d="M875,604.4l0.1,9.3c0.1,0.8-0.1,1.6-0.5,2.4c-0.4,0.6-0.9,1.1-1.6,1.3c-0.4,0.2-0.8,0.3-1.2,0.3
		c-0.4,0.1-0.8,0-1.1-0.1l0.1-1.9c0.2,0.1,0.5,0.1,0.7,0.1c0.2,0,0.5-0.1,0.7-0.2c0.3-0.1,0.5-0.3,0.6-0.5c0.1-0.3,0.2-0.6,0.2-0.9
		l0-0.1l-6.5-6l2.2-1l4.3,4.1l-0.1-5.9L875,604.4z"/>
	<path class="st2" d="M881.6,602.4c0.9,0.4,1.7,1.1,2,2.1l1.9,4.2l-2,0.9l-0.4-0.9c-0.2,1-0.9,1.7-1.8,2c-0.5,0.2-1,0.4-1.6,0.4
		c-0.5,0-0.9-0.1-1.3-0.4c-0.4-0.2-0.7-0.6-0.8-1c-0.3-0.6-0.3-1.4,0.1-2c0.5-0.8,1.3-1.3,2.1-1.6l1.7-0.7c-0.2-0.4-0.5-0.7-0.9-0.9
		c-0.5-0.1-1-0.1-1.4,0.2c-0.4,0.2-0.8,0.4-1.1,0.7c-0.3,0.3-0.6,0.6-0.7,0.9l-1.4-1.2c0.3-0.5,0.7-0.9,1.2-1.3c0.5-0.4,1-0.7,1.6-1
		C879.5,602.2,880.6,602.1,881.6,602.4z M882,608.3c0.2-0.3,0.3-0.7,0.3-1l-0.3-0.8l-1.5,0.6c-0.9,0.4-1.2,0.9-0.9,1.4
		c0.1,0.3,0.3,0.5,0.6,0.5c0.3,0.1,0.7,0,1-0.1C881.5,608.8,881.8,608.6,882,608.3z"/>
	<path class="st2" d="M896.4,592.3l0.1,11.4l-2.2,1l-8.4-7.8l2.4-1.1l5.9,5.6l-0.1-8.2L896.4,592.3z"/>
	<path class="st2" d="M903.4,592.8c0.9,0.4,1.7,1.1,2,2.1l1.9,4.2l-2,0.9l-0.4-0.9c-0.2,1-0.9,1.7-1.8,2c-0.5,0.2-1,0.4-1.6,0.4
		c-0.5,0-0.9-0.1-1.3-0.4c-0.4-0.2-0.7-0.6-0.8-1c-0.3-0.6-0.3-1.4,0.1-2c0.5-0.8,1.3-1.3,2.1-1.6l1.7-0.7c-0.2-0.4-0.5-0.7-0.9-0.9
		c-0.5-0.1-1-0.1-1.4,0.2c-0.4,0.2-0.8,0.4-1.1,0.7c-0.3,0.3-0.6,0.6-0.7,0.9l-1.4-1.2c0.3-0.5,0.7-0.9,1.2-1.3c0.5-0.4,1-0.7,1.6-1
		C901.4,592.6,902.4,592.5,903.4,592.8z M903.8,598.7c0.2-0.3,0.3-0.7,0.3-1l-0.3-0.8l-1.5,0.6c-0.9,0.4-1.2,0.9-0.9,1.4
		c0.1,0.3,0.3,0.5,0.6,0.5c0.3,0.1,0.7,0,1-0.1C903.3,599.2,903.6,599,903.8,598.7L903.8,598.7z"/>
	<path class="st2" d="M909.1,589.6c0.4-0.4,0.9-0.7,1.4-0.9l0.9,2c-0.2,0.1-0.4,0.1-0.5,0.2c-0.5,0.2-1,0.6-1.2,1.1
		c-0.2,0.6-0.1,1.2,0.2,1.8l1.5,3.5l-2.1,0.9l-3.2-7.4l2-0.9l0.4,1C908.6,590.4,908.8,590,909.1,589.6z"/>
	<path class="st2" d="M917.7,586.5c0.9,0.4,1.7,1.1,2,2.1l1.9,4.2l-2,0.9l-0.4-0.9c-0.2,1-0.9,1.7-1.8,2c-0.5,0.2-1,0.4-1.6,0.4
		c-0.5,0-0.9-0.1-1.3-0.4c-0.4-0.2-0.7-0.6-0.8-1c-0.3-0.6-0.3-1.4,0.1-2c0.5-0.8,1.3-1.3,2.1-1.6l1.7-0.7c-0.2-0.4-0.5-0.7-0.9-0.9
		c-0.5-0.1-1-0.1-1.4,0.2c-0.4,0.2-0.8,0.4-1.1,0.7c-0.3,0.3-0.6,0.6-0.7,0.9l-1.4-1.2c0.3-0.5,0.7-0.9,1.2-1.3c0.5-0.4,1-0.7,1.6-1
		C915.6,586.3,916.7,586.2,917.7,586.5z M918.1,592.4c0.2-0.3,0.3-0.7,0.3-1l-0.3-0.8l-1.5,0.6c-0.9,0.4-1.2,0.9-0.9,1.4
		c0.1,0.3,0.3,0.5,0.6,0.5c0.3,0.1,0.7,0,1-0.1C917.6,592.9,917.9,592.7,918.1,592.4L918.1,592.4z"/>
	<path class="st2" d="M926.6,578.4l4.5,10.2l-2,0.9l-0.4-0.9c-0.3,0.9-1,1.6-1.9,2c-0.7,0.3-1.4,0.4-2.1,0.4
		c-0.7-0.1-1.4-0.3-1.9-0.8c-1.2-1-1.8-2.5-1.8-4c0.1-0.7,0.3-1.4,0.7-1.9c0.4-0.6,1-1,1.7-1.3c0.8-0.4,1.8-0.4,2.6-0.1l-1.6-3.6
		L926.6,578.4z M927.5,587.5c0.3-1.2-0.2-2.4-1.3-3c-1.1-0.4-2.3,0.1-2.7,1.2c-0.3,1.2,0.2,2.4,1.3,3
		C925.9,589.1,927.1,588.6,927.5,587.5L927.5,587.5z"/>
	<path class="st2" d="M938.9,581.5l-5.6,2.5c0.3,0.4,0.7,0.7,1.2,0.8c0.5,0.1,1.1,0,1.6-0.2c0.4-0.1,0.7-0.4,0.9-0.6
		c0.3-0.3,0.5-0.6,0.6-0.9l1.7,0.7c-0.4,1.2-1.3,2.1-2.5,2.5c-0.8,0.4-1.6,0.5-2.4,0.5c-0.7,0-1.5-0.3-2.1-0.7
		c-0.6-0.4-1.1-1-1.4-1.7c-0.3-0.7-0.4-1.4-0.3-2.2c0.1-0.7,0.4-1.4,0.8-2c0.5-0.6,1.1-1.1,1.8-1.4c0.7-0.3,1.4-0.4,2.2-0.4
		c0.7,0.1,1.4,0.3,2,0.7c0.6,0.5,1.1,1.1,1.4,1.8C938.7,580.9,938.8,581.1,938.9,581.5z M932.9,581.3c-0.2,0.4-0.2,0.9-0.1,1.4
		l3.6-1.6c-0.2-0.4-0.6-0.7-1.1-0.9c-0.5-0.1-1-0.1-1.4,0.1C933.5,580.5,933.1,580.8,932.9,581.3z"/>
	<path class="st2" d="M941.7,575.3c0.4-0.4,0.9-0.7,1.4-0.9l0.9,2c-0.2,0.1-0.4,0.1-0.5,0.2c-0.5,0.2-1,0.6-1.2,1.1
		c-0.2,0.6-0.1,1.2,0.2,1.8l1.5,3.5l-2.1,0.9l-3.2-7.4l2-0.9l0.4,1C941.1,576.1,941.3,575.7,941.7,575.3z"/>
	<path class="st2" d="M948.8,580.3c-0.7,0-1.4-0.3-2-0.7c-1.2-0.9-1.9-2.4-1.7-3.9c0.1-0.7,0.4-1.4,0.9-2c1-1.2,2.6-1.9,4.2-1.8
		c0.7,0,1.4,0.3,2,0.7c1.2,0.9,1.9,2.4,1.7,3.9c-0.1,0.7-0.4,1.4-0.8,2C952,579.7,950.4,580.4,948.8,580.3L948.8,580.3z M951.5,577
		c0.3-1.2-0.2-2.4-1.3-3c-0.5-0.2-1.1-0.2-1.6,0c-0.5,0.2-0.9,0.6-1.1,1.2c-0.3,1.2,0.2,2.4,1.3,3c0.5,0.2,1.1,0.2,1.6,0
		C950.9,577.9,951.3,577.5,951.5,577L951.5,577z"/>
	<path class="st2" d="M350.9,615c2.1,0.3,3.5,2.1,3.3,4.2c0,0.1,0,0.3-0.1,0.4c-0.2,0.7-0.6,1.3-1.1,1.8c-0.6,0.5-1.4,1-2.2,1.2
		l-2,0.7l0.9,2.7l-2.3,0.8l-3.3-10l4.3-1.4C349.3,615.1,350.1,615,350.9,615z M351.6,619.8c0.3-0.4,0.3-1,0.1-1.5
		c-0.1-0.5-0.5-0.9-1-1.1c-0.6-0.2-1.2-0.1-1.7,0.1l-1.9,0.6l1.2,3.5l1.9-0.6C350.7,620.6,351.2,620.3,351.6,619.8L351.6,619.8z"/>
	<path class="st2" d="M354.2,612.8l2.2-0.7l3.5,10.6l-2.2,0.7L354.2,612.8z"/>
	<path class="st2" d="M365.5,613c0.9,0.4,1.6,1.3,1.8,2.2l1.5,4.4l-2.1,0.7l-0.3-1c-0.3,0.9-1,1.7-2,1.8c-0.5,0.2-1.1,0.3-1.6,0.2
		c-0.5,0-0.9-0.2-1.3-0.5c-0.3-0.3-0.6-0.7-0.7-1.1c-0.2-0.6-0.2-1.4,0.2-1.9c0.6-0.7,1.4-1.2,2.3-1.4l1.8-0.6
		c-0.1-0.4-0.4-0.8-0.8-1c-0.5-0.2-1-0.1-1.5,0.1c-0.4,0.1-0.8,0.3-1.1,0.6c-0.3,0.2-0.6,0.5-0.8,0.9l-1.3-1.3
		c0.4-0.5,0.8-0.9,1.3-1.2c0.5-0.4,1.1-0.6,1.7-0.8C363.5,612.7,364.6,612.7,365.5,613z M365.4,618.9c0.2-0.3,0.4-0.6,0.4-1
		l-0.3-0.8l-1.5,0.5c-0.9,0.3-1.3,0.8-1.1,1.4c0.1,0.3,0.3,0.5,0.6,0.6c0.3,0.1,0.7,0.1,1-0.1C364.9,619.4,365.2,619.2,365.4,618.9
		L365.4,618.9z"/>
	<path class="st2" d="M375.7,608.8l-0.7,9.3c0,0.8-0.2,1.6-0.7,2.3c-0.4,0.6-1,1-1.7,1.2c-0.4,0.1-0.8,0.2-1.2,0.2
		c-0.4,0-0.8-0.1-1.1-0.2l0.3-1.9c0.2,0.1,0.5,0.1,0.7,0.2c0.2,0,0.5,0,0.7-0.1c0.3-0.1,0.5-0.2,0.7-0.5c0.2-0.3,0.3-0.6,0.3-0.9
		l0-0.1l-5.9-6.6l2.3-0.8l3.9,4.5l0.4-5.9L375.7,608.8z"/>
	<path class="st2" d="M382.4,607.4c0.9,0.4,1.6,1.3,1.8,2.2l1.5,4.4l-2.1,0.7l-0.3-1c-0.3,0.9-1,1.7-2,1.8c-0.5,0.2-1.1,0.3-1.6,0.2
		c-0.5,0-0.9-0.2-1.3-0.5c-0.3-0.3-0.6-0.7-0.7-1.1c-0.2-0.6-0.2-1.4,0.2-1.9c0.6-0.7,1.4-1.2,2.3-1.4l1.8-0.6
		c-0.1-0.4-0.4-0.8-0.8-1c-0.5-0.2-1-0.1-1.5,0.1c-0.4,0.1-0.8,0.3-1.1,0.6c-0.3,0.2-0.6,0.5-0.8,0.9l-1.3-1.3
		c0.4-0.5,0.8-0.9,1.3-1.2c0.5-0.4,1.1-0.6,1.7-0.8C380.4,607,381.5,607,382.4,607.4z M382.3,613.3c0.2-0.3,0.4-0.6,0.4-1l-0.3-0.8
		l-1.5,0.5c-0.9,0.3-1.3,0.8-1.1,1.4c0.1,0.3,0.3,0.5,0.6,0.6c0.3,0.1,0.7,0.1,1-0.1C381.7,613.8,382.1,613.6,382.3,613.3
		L382.3,613.3z"/>
	<path class="st2" d="M388.5,601.9l2.3-0.8l2.7,8.1l5-1.7l0.6,1.9l-7.3,2.4L388.5,601.9z"/>
	<path class="st2" d="M397.4,600c-0.6-0.3-0.9-1-0.6-1.7c0,0,0-0.1,0-0.1c0.2-0.3,0.5-0.6,0.9-0.7c0.4-0.1,0.8-0.1,1.1,0
		c0.3,0.1,0.6,0.4,0.7,0.7c0.1,0.3,0.1,0.7-0.1,1c-0.2,0.3-0.5,0.6-0.9,0.7C398.1,600.1,397.7,600.1,397.4,600z M397.8,601.4
		l2.2-0.7l2.6,7.7l-2.2,0.7L397.8,601.4z"/>
	<path class="st2" d="M405.3,607.3c-0.6,0.1-1.1,0-1.6-0.1l0.2-1.8c0.5,0.1,0.9,0.1,1.4,0.1c0.5,0,1-0.1,1.5-0.3
		c0.9-0.3,1.3-0.7,1.2-1.2c-0.1-0.2-0.3-0.4-0.5-0.3c-0.4,0-0.8,0.1-1.3,0.2c-0.5,0.1-1.1,0.2-1.7,0.2c-0.4,0-0.9-0.1-1.3-0.3
		c-0.4-0.3-0.8-0.7-0.9-1.2c-0.2-0.5-0.2-1,0-1.4c0.2-0.5,0.5-1,0.9-1.3c0.5-0.4,1.1-0.7,1.8-0.9c0.5-0.2,1.1-0.3,1.7-0.4
		c0.5-0.1,1,0,1.5,0l-0.2,1.8c-0.8-0.2-1.6-0.1-2.4,0.2c-0.4,0.1-0.7,0.3-1,0.6c-0.2,0.2-0.2,0.4-0.2,0.6c0.1,0.2,0.3,0.4,0.5,0.4
		c0.4,0,0.9-0.1,1.3-0.1c0.5-0.1,1.1-0.2,1.6-0.2c0.4,0,0.9,0.1,1.3,0.3c0.4,0.3,0.7,0.7,0.9,1.2c0.2,0.5,0.2,1,0,1.4
		c-0.2,0.5-0.5,1-1,1.3c-0.6,0.4-1.2,0.8-1.8,1C406.6,607.1,405.9,607.2,405.3,607.3z"/>
	<path class="st2" d="M412.8,604.7c-0.6,0.1-1.1,0-1.6-0.1l0.2-1.8c0.5,0.1,0.9,0.1,1.4,0.1c0.5,0,1-0.1,1.5-0.3
		c0.9-0.3,1.3-0.7,1.2-1.2c-0.1-0.2-0.3-0.4-0.5-0.3c-0.4,0-0.8,0.1-1.3,0.2c-0.5,0.1-1.1,0.2-1.7,0.2c-0.4,0-0.9-0.1-1.3-0.3
		c-0.4-0.3-0.8-0.7-0.9-1.2c-0.2-0.5-0.2-1,0-1.4c0.2-0.5,0.5-1,0.9-1.3c0.5-0.4,1.1-0.7,1.8-1c0.5-0.2,1.1-0.3,1.7-0.4
		c0.5-0.1,1,0,1.5,0l-0.2,1.8c-0.8-0.2-1.6-0.1-2.4,0.2c-0.4,0.1-0.7,0.3-1,0.6c-0.2,0.2-0.2,0.4-0.2,0.6c0.1,0.2,0.3,0.4,0.6,0.4
		c0.4,0,0.9-0.1,1.3-0.1c0.5-0.1,1.1-0.2,1.6-0.2c0.4,0,0.9,0.1,1.3,0.3c0.4,0.3,0.7,0.7,0.9,1.2c0.2,0.5,0.2,1,0,1.4
		c-0.2,0.5-0.5,1-1,1.3c-0.6,0.4-1.2,0.8-1.8,1C414.1,604.6,413.5,604.7,412.8,604.7z"/>
	<path class="st2" d="M423.2,593.7c0.9,0.4,1.6,1.3,1.8,2.2l1.5,4.4l-2.1,0.7l-0.3-1c-0.3,0.9-1,1.6-2,1.8c-0.5,0.2-1.1,0.3-1.6,0.2
		c-0.5,0-0.9-0.2-1.3-0.5c-0.3-0.3-0.6-0.7-0.7-1.1c-0.2-0.6-0.2-1.4,0.2-1.9c0.6-0.7,1.4-1.2,2.3-1.4l1.8-0.6
		c-0.1-0.4-0.4-0.8-0.8-1c-0.5-0.2-1-0.1-1.5,0.1c-0.4,0.1-0.8,0.3-1.1,0.6c-0.3,0.2-0.6,0.5-0.8,0.9l-1.3-1.3
		c0.4-0.5,0.8-0.9,1.3-1.2c0.5-0.4,1.1-0.6,1.7-0.8C421.1,593.4,422.2,593.3,423.2,593.7z M423.1,599.6c0.2-0.3,0.4-0.6,0.4-1
		l-0.3-0.8l-1.5,0.5c-0.9,0.3-1.3,0.8-1.1,1.4c0.1,0.3,0.3,0.5,0.6,0.6c0.3,0.1,0.7,0.1,1-0.1C422.5,600.1,422.8,599.9,423.1,599.6
		L423.1,599.6z"/>
</g>
</svg>
