<?xml version="1.0" encoding="utf-8"?>
<!-- Generator: Adobe Illustrator 24.0.2, SVG Export Plug-In . SVG Version: 6.00 Build 0)  -->
<svg version="1.1" id="Capa_1" xmlns="http://www.w3.org/2000/svg" xmlns:xlink="http://www.w3.org/1999/xlink" x="0px" y="0px"
	 viewBox="0 0 1080 1080" style="enable-background:new 0 0 1080 1080;" xml:space="preserve">
<style type="text/css">
	.st1{fill:none;stroke:#FFFFFF;stroke-width:8;stroke-miterlimit:10;}
	.st2{fill:#FFFFFF;}
</style>
<g id="3_El_Acequión_-_Los_Náufragos" class="zone">
	<path class="st0" d="M532,680.5c-4.6-1.9-8.9-3.5-11.5-4.4c-12.2,16.2-44.8,63.3-67.3,95.8c-8.7,12.5-16.1,23.3-20.8,30
		c-14.2,20.3-16.4,33.1-18.8,46.6c-0.7,3.9-1.4,7.9-2.4,12.1c-4.5,18.7-14.8,52.6-19,62.5c-2.9,6.6-17.8,38.1-28.6,61.1
		c-5.8,12.3-10.4,22-11.8,25c-2.2,5.1-6.4,9-11.6,10.8c-0.7,3.4-1.6,6.7-2.7,9.9c-2.8,8.9-6.3,20-0.9,23.6c4.7,3.2,9.2,7.7,13.5,12
		c9.7,9.8,16,15.5,21.7,11.2c12-9,14.8-8.7,25.7-6c1.8,0.5,3.9,1,6.3,1.5c4.2,1,8.3,2.4,12.2,4.1c1.5,0.7,3.1,1.3,4.8,1.7
		c0.6-2,0.9-4,0.9-6.1c0.4-7.5,0.3-15-0.2-22.4c-0.4-6.7-0.6-11.2,0.5-14c0.6-1.5,2.1-10.4,3.5-18.2c2-11.5,4.2-24.6,6.3-32.4
		c1.7-6.4,0.4-12.8-0.7-17.9c-1.2-5.7-2.3-11.5,2.8-14c2.5-1.2,3.9-6.9,3.4-11.2c-0.2-1.5-0.5-2.9-0.9-4.4c-1.1-4.9-2.5-11,0.5-15.4
		c0.7-1.1,1-3.3,1.3-5.6c0.5-3.8,1.1-8.5,4.1-13c4.2-6.4,9.9-22.6,9.5-28.6c-0.6-8.7,2.7-14,6.8-20.8c1.7-2.8,2.9-7.5,4-12
		c1.3-5.1,2.5-10,4.8-13c1.2-1.5,2.5-6.4,3.5-10.4c1.7-6.5,3.1-12.2,6.2-14.6c3-2.4,12-16.3,14.5-24.9c0.4-1.4,0.7-2.6,1-3.7
		c1.7-6.6,2.7-9.5,11.4-13.2c3-1.2,6.1-2.2,9.3-2.9c4.4-1.1,6.9-1.8,7.4-3.4c0.6-2.2,1.1-4.4,1.4-6.6c1.2-6.7,2.6-15,7.5-21
		c6.2-7.5,21.5-18.3,36.8-22c-2.6-3.9-6.3-9.2-8.5-11.7C554.8,691.3,540.3,683.8,532,680.5z"/>
</g>
<g id="3_Los_Balcones_-_Los_Altos_del_Edén" class="zone">
	<path class="st0" d="M338.8,1011.9c2.5-1.3,4.5-3.4,5.6-6c1.4-3,6-12.7,11.8-25.1c10.9-22.9,25.7-54.3,28.5-60.8
		c4.1-9.6,14.2-42.7,18.6-61.2c0.9-3.9,1.6-7.7,2.3-11.6c2.4-13.8,4.9-28.1,20.1-49.9c4.7-6.7,12.2-17.5,20.8-30
		c22.8-32.8,52.5-75.8,65.9-93.8c-8.5-2.7-21.8-7-24.4-8.6c-2.7-1.7-8.1-8.2-18.9-22.4c-1.4-1.8-2.7-3.5-3.9-5
		c-1.2-1.5-2.3-2.8-3.4-4c-5.1-5.9-9.1-10.5-7.8-24.5c0.4-4.2,0.9-7.4,1.4-10.1c1.1-6.8,1.4-8.2-2.4-12.2
		c-6.6-7.1-28.3-17.2-34.1-16.9c-5.9,0.4-30.1,11.7-56.7,27.9c-4.8,2.9-10.3,6.6-16.2,10.5c-24.4,16.2-54.8,36.4-76.5,33.4
		c-23.1-3.2-103-24.7-129.3-31.8c-3-0.8-5.3-1.4-6.9-1.8c-1.1-0.3-2.3-0.6-3.4-0.9c-14.9-4.1-31.9-8.8-44.7,8.3
		C70.9,634.5,5.4,707.8-6.6,721.1c4.8,9.5,12,18.9,22.9,28.7c14.8,13.2,40,34.4,62.3,53c23.3,19.5,43.4,36.3,50.2,42.9
		c4.6,4.5,8.8,9.3,12.6,14.3c4.7,6,8.2,10.4,14.1,12.8c12.3,5,17.6,10.3,25.8,25.6c5.2,9.7,12.9,13.7,22.7,18.8
		c3.5,1.8,7.2,3.8,11.1,6.1c4.6,2.8,9.7,5.3,15.2,7.9c11.6,5.6,24.8,11.9,36.7,23.2c13.7,12.8,28.7,24,38.6,31.4
		c2.4,1.8,4.4,3.3,6.1,4.6c3.3,2.6,6.4,5.4,9.3,8.4c4.9,4.8,9.5,9.3,14.2,10.7C336.8,1009.9,338,1010.7,338.8,1011.9z"/>
</g>
<g id="3_Torrevieja_Centro" class="zone">
	<path class="st0" d="M648.7,672.2c-3.6-17.7-9-44.3-5-64.2c0-1.1,0.3-2.2,0.7-3.3c-3,0.5-6,1.2-8.9,2.2c-5.1,1.6-10.2,3.2-15.3,4.7
		c-5.4,1.6-10.4,3.1-15.1,4.6l-1.8,0.6c-8.5,2.7-15.8,5.1-18.6-2.1c-0.3-0.7-0.9-2.3-4.4-2.3c-2,0-5.8,0-8.2,0
		c-16.4,20.7-37.8,47.3-46.2,57.1c2.5,1,5.8,2.2,9.2,3.6c7,2.8,24.1,10.9,29,16.7c3.1,3.7,8.5,11.7,11,15.5c3.8-0.5,6.7-0.9,9.1-1.3
		c6.8-1.1,10.2-1.6,16.4,0.5c6.8,2.2,13.8,3.5,21,3.9l0.5,0c3.9,0,11.2,0,14.5,7.3c0.4,0.9,0.9,2.2,1.5,3.6c3.1,8,5.5,12.8,7.2,14.3
		c0.8-0.8,1.6-1.7,2.5-2.6c3.1-3.5,6.4-6.8,10-9.9c-1.3-7.1-5.1-27.9-7.2-39.9C650,678.7,649.4,675.7,648.7,672.2z"/>
</g>
<g id="3_La_Siesta_-_El_Salado_-_Torreta" class="zone">
	<path class="st0" d="M132,599.4c1.1,0.3,2.3,0.6,3.4,0.9c1.6,0.4,3.9,1,6.9,1.9c26.2,7,105.7,28.5,128.3,31.6
		c18.7,2.6,49-17.5,71-32.2c6-4,11.6-7.7,16.5-10.7c22.4-13.6,51.2-28.5,60.3-29.1c9.3-0.6,33.1,11.5,40.5,19.4
		c6.4,6.9,5.6,11.7,4.4,19c-0.4,2.6-0.9,5.6-1.3,9.5c-1,10.6,1.3,13.2,5.9,18.5c1.1,1.3,2.3,2.7,3.6,4.4c1.2,1.5,2.5,3.2,3.9,5.1
		c5.1,6.6,14.6,18.9,16.8,20.4c1.7,1,13.8,5,25.4,8.7c0.2-0.2,0.4-0.5,0.5-0.6c9-10.4,48.9-60.4,63.9-79.4
		c13-16.5,21.2-28.6,21.8-38.2c0.2-2.6,0.1-6.2,0.1-10.4c-0.1-12.6-0.2-31.7,4.9-47.1c7.1-21.4,20.6-41.1,38.8-57
		c9.5-8.3,32.4-31.6,54.6-54.1c20.9-21.3,42.6-43.3,52.9-52.5c21.3-19.2,34.5-32.4,39.2-43.5c5.2-12.1,24-65.2,30.9-87.5
		c2.5-8,5.3-15.7,7.7-22.4c4.3-12,8.1-22.4,8-28.1c-0.1-6.8-2.8-12.7-5.8-19.7c-0.9-2.1-1.9-4.4-2.9-6.7c-3.3-8.3-10.8-25.5-13-30.4
		c-8.9-4.3-25.2-12.8-50.1-25.9c-8.3-4.4-15.4-8.1-20-10.4c-1.4-0.7-2.7-1.4-3.9-2c-15.9-8-21.4-12-31.2-42.6
		c-6.5-20.3-11.3-33.3-15.1-43.8c-2.4-6.6-4.3-11.7-5.9-16.8c-3.3-10.3-4.2-13-28.7-14.1c-15.5-0.6-56.6-3.8-89.6-6.4
		c-20.5-1.6-38.2-3-46.2-3.5c-18.5-1.1-78.9,1.2-111.4,2.4c-4.1,0.2-7.7,0.3-10.8,0.4c-4.1,0.2-7.9,0.2-11.3,0.3
		c-19.3,0.4-27.3,0.5-35,12.8c-4.8,7.6-14.3,18.6-24.4,30.2C324.5-17,311.5-2,308.1,5.7c-1.5,3.4-4.3,8.7-7.8,15.5
		c-6,11.3-13.4,25.4-18.2,37.4c-6.9,17.2-4.4,19.9-4.4,20c4.2,2.1,8.5,4,12.9,5.7c17.9,7.2,29.6,12.5,30.4,20.4
		c0.2,2.4-0.5,5.8-5.3,9c-4.7,3.1-14.1,8.6-25,15.1c-25.5,15.1-64.1,38-70.5,45.8c-1.6,1.9-3.6,4.6-6.1,7.7
		c-22.8,29.2-36,43.3-44.7,39c-1.2-0.6-2.5-1.3-3.9-2c-9.4-5.1-16.5-8.3-21.4-2.8c-6.5,7.3-64.1,71.7-83.2,86
		c-5.4,4-12,9.5-19.8,15.9c-19.4,16-43.5,35.8-63.2,45.6c-17.7,8.9-26.8,15.7-30.3,23c-3.2,6.7-1.9,14.2,0.2,25.5
		c0.9,4.9,1.9,10.5,2.7,16.9c2.7,22,9.9,76.2,16.8,128.6c5.5,41.2,10.6,80,12.7,96.7c0.7,5.7,1.2,11.2,1.8,16.5
		c1.5,15.3,2.8,29,7.8,42.2c16.4-18.3,75.7-85,88.9-102.5C94.9,589.1,116.3,595,132,599.4z"/>
</g>
<g id="3_Playa_del_Cura" class="zone">
	<path class="st0" d="M776.3,657.2c-4.1-1.3-8.8-4.4-9.8-10.4c-0.7-4.2-0.3-9.8,0-14.8c0.2-3.5,0.5-7.9,0.1-9.3
		c-0.8-2.6-4.8-7.9-8.1-10.8c-7.3,3.6-17.7,5.7-37.3,6.6c-7.2,0.3-13.8,0.8-19.6,1.2c-8.2,0.6-15.3,1.1-21.7,1.1
		c-6.7,0.1-13.4-0.7-19.8-2.4c-4.1-1.2-7.1-2.1-9.4-3c-1.8,17.7,2.8,40,5.9,55.3c0.7,3.5,1.3,6.6,1.8,9.1
		c1.9,10.8,5.2,28.8,6.7,37.5c1.2-0.2,2.5-0.2,3.7,0.2c0.8,0,3-1.9,4.3-3c2.9-2.5,6.5-5.6,11-4.9c1.5,0.2,2.9,0.6,4.2,1.1
		c1.9,0.7,2.4,0.8,6.4-2.3c2.1-1.7,3.9-3.3,5.5-4.7c4.3-3.8,7.8-6.9,13.2-7.8c1.9-0.3,4.8-2.5,7.3-4.4c3.9-2.9,7.5-5.7,11.5-5.5
		c0.5,0,0.9,0,1.4,0.1c4.9,0.2,11.7,0.4,16.8,8.5c1.7,2.6,4,4.3,5.9,4.2c1.8-0.1,3-1.7,3.7-3.1c4.4-8.4,9.6-16.4,15.5-23.8
		c3-3.6,2.9-6.4,1.5-11.4C776.6,659.3,776.4,658.2,776.3,657.2z"/>
</g>
<g id="3_Nueva_Torrevieja_-_Aguas_Nuevas" class="zone">
	<path class="st0" d="M828.6,328.9c-4.4-7.5-20.7-25.5-30.4-35.1c-6.8,10.7-19,22.7-37.6,39.5c-10.1,9.1-31.7,31-52.5,52.2
		c-22.3,22.7-45.4,46.1-55.1,54.5c-17.2,15-29.8,33.5-36.5,53.5c-4.7,14.1-4.6,31.7-4.5,44.5c0,4.4,0.1,8.1-0.1,11
		c-0.8,11.7-9.2,24.5-23.5,42.6c-2.6,3.3-6.1,7.7-10.2,12.9c0.7,0,1.3,0,1.9,0c5.7,0,9.8,2.5,11.7,7.1c0,0,0,0,0,0
		c1.5,0,5.4-1.2,8.8-2.3l1.9-0.6c4.7-1.5,9.8-3.1,15.2-4.7c5-1.5,10.1-3.1,15.2-4.6c10.9-3.4,16.2-3.6,18.9-0.5
		c1,1.1,2.3,3.4,0.6,7.2l-0.1,0.3c-0.1,0.3-0.3,0.7-0.5,1c2.3,1.1,8.2,2.8,10.3,3.4c10.5,3,22.4,2.2,38.8,1
		c5.9-0.4,12.5-0.9,19.8-1.2c27.5-1.2,34.3-5,40.3-9.8c6.5-5.2,14.3-19.8,13.7-28.7c-0.5-7.5,1.2-12.5,5-15.4
		c4.2-3.1,10.4-3.1,18.8,0.1c0.1,0.1,0.3,0.1,0.5,0.1c2.1-0.8,4.7-11.2,6.4-18.1c1.2-4.7,2.5-10,4.1-15.3
		c3.5-11.4,7.2-25.8,10.5-38.6c2.5-9.9,4.9-19.2,6.8-25.3c3.7-12.3,19.1-49.8,23.2-59.7c-0.2-0.3-0.4-0.5-0.7-0.7
		c-13-14.9-18-21.7-20.7-30.5c-2.2-7.2-0.9-14.2,0.4-20.9C830.6,340.4,831.8,334.3,828.6,328.9z"/>
</g>
<g id="3_Playa_de_los_Locos" class="zone">
	<path class="st0" d="M881.6,417.3c-9.4,0-16.9-3.3-25.3-11.2c-5.3,13-18.4,45-21.6,55.7c-1.8,6-4.2,15.2-6.7,25
		c-3.3,12.8-7.1,27.4-10.6,38.9c-1.6,5.2-2.9,10.3-4,14.9c-3,11.9-5.1,20.4-10.5,23.3c-2.2,1.1-4.7,1.2-7,0.3
		c-5.4-2-9.5-2.5-11.3-1.2c-1.4,1.1-2.1,4.1-1.8,8.4c0.8,11.8-8.3,28.8-16.7,35.5c-0.3,0.2-0.5,0.4-0.8,0.6c3.8,3.8,7.7,9.1,8.8,13
		c0.7,2.6,0.6,6.2,0.2,12c-0.3,4.5-0.6,9.7-0.1,13c0.4,2.5,2.6,3.6,4.3,4.1c1.8-1.4,3.9-2.3,6.1-2.5c3-0.5,9.1-6,11.2-11
		c0.5-1.3,0.9-2.7,1.3-4.1c1.5-5.2,3.3-11.6,10.8-15.1c1.2-0.6,2.4-1.1,3.5-1.7c6.9-3.4,14.7-7.3,19.7-0.8c1.4,1.8,5.8,4.9,9.5,6.9
		c-6.5-14.2-6.6-18.8-5.5-21.5c1.4-3.7,5.7-3.9,9.9-4.2c1-0.1,2.5-0.1,3.6-0.3c-6.8-11.1-2.2-18.2,3.2-23.6c0.7-0.7,0.8-1-0.3-3.9
		c-1-2.7-3.1-8.2,2.5-12.3c-0.3-0.4-0.6-0.9-0.9-1.3c-1.3-1.9-3.2-4.5-2.6-7.7c0.5-2.2,1.8-4,3.7-5.2c-0.1-1.2-1.8-4-2.6-5.4
		c-1.9-3.2-3.9-6.5-2.1-9.5c1.1-1.9,3.2-2.8,6.1-2.6c3.3,0.2,4.7-1.6,5.2-2.7c0.7-1.2,0.7-2.6,0-3.8c-5-6.1-6.8-11.1-5.3-14.6
		c0.6-1.4,2.2-3.7,6.3-4.1c0.5,0,1-0.1,1.4-0.3c0.2-0.9,0.3-1.8,0.3-2.8c0.1-1,0.1-2.2,0.3-3.6c0.4-3,1.1-7,1.7-10.5
		c0.6-3.2,1.3-7.2,1.3-8.2c0-1.9,2-15.9,9.9-18.1c1.8-0.5,4.6-2.3,7.6-4.1c4.1-2.6,8.4-5,12.8-7.1c10.1-4.5,13.2-7.1,13.2-11.4
		c0-2.2-0.2-4.4-0.5-6.6c-0.4-3.7-0.8-7.1,0.9-10.4c0.4-0.8,0.7-1.5,1-2.3c-6.5,1-17.3,2.5-25.2,3.4
		C885.1,417.2,883.4,417.3,881.6,417.3z"/>
</g>
<g id="3_La_Mata" class="zone">
	<path class="st0" d="M911.3,384.2c-0.2-0.1-0.4-0.3-0.6-0.4c-3-1.7-5-4.5-5.7-7.8c-0.2,0.1-0.5,0.1-0.7,0.2
		c-1.9,0.5-4.3,1.2-6.5-0.3c-1.3-0.9-2.1-2.3-2.3-3.8c-0.5-3.3-9.3-21.6-12.1-24.4c-0.7-0.5-1.4-0.8-2.1-1.1
		c-5.1-2.1-10.6-5.5-9.9-18.3c0.7-14.5,0.3-55.1-0.8-64.9c-0.6-5.8-0.1-14.6,0.3-23.1c0.3-6.5,0.7-12.7,0.5-16.5
		c-0.1-2.1-0.7-6.2-1.4-10.9c-2.3-15.2-5.7-38.1-1.7-50.4c1.3-4,2.6-8.8,4-13.9c6.5-23.6,9.7-32.4,16-32.1c2,0.1,2.5-0.3,2.6-0.4
		c0.1-0.1,0.7-0.7,0.7-3.7c0-1.1-1.2-2.2-3.2-3.8c-2.5-2-6.3-5-5-9.9c0.1-0.5,0.3-1,0.4-1.6c0.6-2,2-7.2,1.1-8.6
		c-0.3-0.2-0.7-0.4-1.2-0.4c-3.7-0.4-17.7,1.1-28.9,2.2c-13.6,1.4-21.1,2.1-25,2.1c3.2,7.3,7.7,17.8,10.1,23.8
		c0.9,2.2,1.8,4.4,2.8,6.5c3.3,7.4,6.4,14.4,6.5,22.8c0.1,7.1-3.7,17.6-8.5,31c-2.4,6.7-5.1,14.3-7.6,22.1
		c-6.9,22.1-25.4,74.5-31,87.7c9.7,9.4,28.1,29.5,33.4,38.4c4.7,8,3.2,16.3,1.7,24.3c-1.1,6.1-2.2,11.8-0.6,17.2
		c2.1,6.9,6,12.6,19,27.5c12.5,14.4,20.1,16.4,30.4,15.2c8.7-1,20.9-2.8,27-3.7c-2.7-6-2.2-10.7,1.3-13.9c-0.3-0.9-0.7-1.7-1.2-2.5
		C912.3,387.4,911.7,385.9,911.3,384.2z"/>
</g>
<g id="_Strokes">
	<path class="st1" d="M-23.7,360.2c-46.4,23.2-33.9,33.4-29.5,69.4c4.8,39.8,24.9,188,29.5,225.3s1.7,66,37.3,97.9
		c29.5,26.4,98.9,82.9,112.4,95.8s16.6,23.3,28,28s16.1,9.3,23.8,23.8s20.7,17.6,35.2,26.4s34.2,14.5,51.3,30.6s36.3,29.5,45.1,36.3
		s16.1,17.1,24.9,19.7s-14,34.2,0,43.5s26.9,32.8,39.9,23.1s12.7-7.3,28.7-3.7s21.8,13.2,22.8-3.9s-1.6-31.1,0-35.2s6.2-37,9.8-51
		s-4.9-26.9,0-29.3s6.2-10.4,5.7-15.3s-3.9-13-1-17.1s1-11.9,5.4-18.6s10.6-23.8,10.1-31.1s2.1-11.7,6.2-18.4s4.9-19.9,8.5-24.6
		s5.2-21.2,9.1-24.3s13.2-17.9,15.8-26.9s1.6-10.6,10.1-14.2s16.8-2.8,18.9-8.5s2.1-18.9,8.3-26.4s24.1-19.9,40.4-21.8
		s18.6-3.9,26.2-1.3c7.2,2.3,14.7,3.7,22.3,4.1c3.9,0,9.1-0.3,11.4,4.9s8.8,25.6,14.8,19.4s14.8-17,19.9-15.5s10.4-8.6,15.8-7.8
		s6,4.1,13.7-2.1s10.9-10.6,16.8-11.7s13-10.1,17.9-9.8s10.6-0.3,15,6.7s12.4,8.8,16.6,0.8c4.3-8.1,9.3-15.8,15-23
		c4.1-4.9,3.9-9.3,2.3-15s-0.3-7.5,4.7-8.3s11.9-7.8,14.2-13.5s2.3-13.5,10.1-17.1s14.8-8.3,18.4-3.6s22.8,16.3,18.4,7.3
		s-8.8-19.4-7.5-22.8s18.9,1,13.5-7.5s-3.1-13.7,2.3-19.2s-4.7-11.4,1.8-15.8s-7-9.3,0-14s-9.8-17.4-1-16.8s12.2-8.5,8.5-13
		s-8-11.7-1.8-12.2s4.9-3.9,5.7-10.1s3.1-16.6,3.1-19.2s2.3-13,7-14.2s11.7-7.3,21-11.4s15.5-7.8,15.5-15s-1.8-11.7,0-15.3
		s3.6-10.4,2.1-13.7s-2.7-7.3,0.6-9.8s-1.9-7.8-2.1-10.9s-5.7-2.6-6.5-8.8s-8.8,1-9.3-2.8s-9.8-23.3-13.2-26.7s-11.7-1.3-10.9-16.3
		s0.3-55.7-0.8-65.5s1.3-30.3,0.8-39.4s-8.3-44.5-3.4-59.8s10.9-43.5,16.1-43.3s7.5-1.8,7.5-8s-9.6-7.8-8.3-12.7s4.9-14.8-3.1-15.5
		s-51.3,5.2-55.9,4.1s-59.8-30.6-76.9-39.4S728.7,40,718.1,6.9s-16.8-47.7-21-60.6s-7.5-15.8-32.4-16.8S550-79.1,529-80.4
		s-94.8,1.8-122.5,2.8s-39.1-1.6-49.5,15S311-10.7,304.5,4.1s-40.7,71.2-28.7,78s53.6,17.9,37.8,28.2s-86.8,50-96.3,61.6
		s-37,50-45.8,45.6s-21.5-13.5-30-3.9S76.9,285.4,58.7,299C39.6,313.4,3.3,346.7-23.7,360.2z"/>
	<path class="st1" d="M336.3,1016.8c0,0,7.8-0.7,11.7-9.3s36.1-76,40.4-86s14.5-43.7,18.8-61.8s2.8-33,21.8-60.1
		s82.7-120,92.2-130.9s50.6-62.5,64.1-79.6s21.9-29.7,22.6-40.4s-1.7-36.8,4.8-56.5s19-39,37.6-55.3s86.5-87.7,107.6-106.7
		s35-32.8,40.2-44.9s24-65.3,31.1-87.9s16.1-42,15.9-51.8s-5-18-9-27.8s-13.6-31.8-13.6-31.8"/>
	<path class="st1" d="M917.3,408.7c0,0-18.7,2.9-30.8,4.3s-20.9-1.7-33.8-16.6s-17.5-21.2-19.9-29c-4.1-13.8,6.6-28.3-0.7-40.6
		c-5.7-9.6-28.1-33.7-35.7-40.4"/>
	<path class="st1" d="M854.9,399c0,0-19.9,47.8-24.1,61.7s-11,43.5-17.3,63.9c-6.2,20.4-7.6,39.2-16.2,35.9
		c-13.3-5-19.3-1.4-18.5,11.2c0.7,10.7-8.1,26.4-15.2,32.1s-15.2,9.5-42.6,10.7s-44.7,4.3-59.9,0s-14.5-5.2-12.3-10.2
		s-4.3-4.5-14.7-1.2s-21.2,6.4-30.4,9.3s-14,4.8-15.5,0.9s-5.2-4.8-8.1-4.8s-10.1-0.1-10.1-0.1"/>
	<path class="st1" d="M780.4,654c0,0-8.8-0.6-10-7.9s1.2-20.4,0-24.5s-7.4-11.7-11.6-14.4"/>
	<path class="st1" d="M662,722.8c0,0-5-27.6-7.6-42.4c-2.6-14.9-11.5-49.1-6.7-72.2"/>
	<path class="st1" d="M573.1,709.5c0,0-8.1-12.5-12.1-17.2s-19.7-12.4-27.5-15.5s-14.4-5.5-14.4-5.5s-25.8-8-28.9-9.9
		s-15-17.8-21.8-26.4s-11.7-10.7-10.4-25.7s4.8-18-2.1-25.4s-29.5-18.6-37.3-18.1s-34.7,14-58.5,28.5s-64.7,46.9-90.1,43.4
		s-120.2-29.4-135.7-33.5s-36.8-11.9-52.3,8.8s-93.4,107.5-93.4,107.5"/>
</g>
<g id="_Texto" class="text">
	<path class="st2" d="M699.4,643.9c1.3,0.6,2.2,1.9,2.1,3.3c0,0.7-0.2,1.4-0.6,2c-0.4,0.6-0.9,1-1.6,1.3c-0.8,0.3-1.6,0.5-2.4,0.5
		h-2.1v2.9h-2.4v-10.5h4.5C697.8,643.4,698.6,643.6,699.4,643.9z M698.5,648.6c0.4-0.3,0.6-0.8,0.6-1.3c0-0.5-0.2-1-0.6-1.4
		c-0.5-0.3-1.1-0.5-1.7-0.5h-2v3.6h2C697.4,649.1,698,649,698.5,648.6L698.5,648.6z"/>
	<path class="st2" d="M703.3,642.8h2.3V654h-2.3V642.8z"/>
	<path class="st2" d="M713.9,646.7c0.7,0.7,1.1,1.7,1,2.7v4.6h-2.2v-1c-0.5,0.8-1.5,1.2-2.5,1.1c-0.6,0-1.1-0.1-1.6-0.3
		c-0.4-0.2-0.8-0.5-1-0.9c-0.2-0.4-0.4-0.8-0.4-1.3c0-0.7,0.3-1.4,0.8-1.8c0.8-0.5,1.7-0.7,2.6-0.6h1.9c0-0.4-0.1-0.9-0.5-1.2
		c-0.4-0.3-0.9-0.5-1.4-0.4c-0.4,0-0.9,0.1-1.3,0.2c-0.4,0.1-0.7,0.3-1.1,0.5l-0.8-1.6c0.5-0.3,1-0.6,1.6-0.7
		c0.6-0.2,1.3-0.3,1.9-0.3C712.1,645.7,713.1,646,713.9,646.7z M711.9,652.2c0.3-0.2,0.5-0.5,0.7-0.8v-0.8H711c-1,0-1.4,0.3-1.4,0.9
		c0,0.3,0.1,0.5,0.4,0.7c0.3,0.2,0.6,0.3,1,0.3C711.2,652.5,711.6,652.4,711.9,652.2z"/>
	<path class="st2" d="M724.9,645.9l-3.6,8.6c-0.3,0.8-0.7,1.5-1.4,2c-0.6,0.4-1.3,0.6-2,0.6c-0.4,0-0.8-0.1-1.2-0.2
		c-0.4-0.1-0.7-0.3-1-0.5l0.9-1.7c0.2,0.2,0.4,0.3,0.6,0.4c0.2,0.1,0.5,0.1,0.7,0.1c0.3,0,0.6-0.1,0.8-0.2c0.2-0.2,0.4-0.5,0.5-0.8
		l0-0.1l-3.5-8.1h2.4l2.3,5.5l2.3-5.5L724.9,645.9z"/>
	<path class="st2" d="M731.7,646.7c0.7,0.7,1.1,1.7,1,2.7v4.6h-2.2v-1c-0.5,0.8-1.5,1.2-2.5,1.1c-0.6,0-1.1-0.1-1.6-0.3
		c-0.4-0.2-0.8-0.5-1-0.9c-0.2-0.4-0.4-0.8-0.4-1.3c0-0.7,0.3-1.4,0.8-1.8c0.8-0.5,1.7-0.7,2.6-0.6h1.9c0-0.4-0.1-0.9-0.5-1.2
		c-0.4-0.3-0.9-0.5-1.4-0.4c-0.4,0-0.9,0.1-1.3,0.2c-0.4,0.1-0.7,0.3-1.1,0.5l-0.8-1.6c0.5-0.3,1-0.6,1.6-0.7
		c0.6-0.2,1.3-0.3,1.9-0.3C729.9,645.7,730.9,646,731.7,646.7z M729.7,652.2c0.3-0.2,0.5-0.5,0.7-0.8v-0.8h-1.6
		c-1,0-1.4,0.3-1.4,0.9c0,0.3,0.1,0.5,0.4,0.7c0.3,0.2,0.6,0.3,1,0.3C729,652.5,729.4,652.4,729.7,652.2z"/>
	<path class="st2" d="M689.1,660.8V672h-2.2V671c-0.6,0.7-1.6,1.1-2.5,1c-0.7,0-1.4-0.2-2.1-0.5c-0.6-0.3-1.1-0.8-1.4-1.5
		c-0.7-1.4-0.7-3,0-4.4c0.3-0.6,0.8-1.1,1.4-1.5c0.6-0.3,1.3-0.5,2.1-0.5c0.9,0,1.8,0.3,2.4,1v-3.9L689.1,660.8z M686.2,669.5
		c0.8-0.9,0.8-2.3,0-3.3c-0.8-0.8-2.1-0.8-3,0c-0.8,0.9-0.8,2.3,0,3.3C684.1,670.4,685.4,670.4,686.2,669.5z"/>
	<path class="st2" d="M699.1,668.6H693c0.1,0.5,0.4,0.9,0.8,1.2c0.5,0.3,1,0.5,1.5,0.4c0.4,0,0.8-0.1,1.1-0.2
		c0.3-0.1,0.6-0.3,0.9-0.6l1.2,1.4c-0.9,0.9-2.1,1.4-3.3,1.3c-0.8,0-1.7-0.2-2.4-0.5c-0.7-0.3-1.2-0.8-1.6-1.5
		c-0.4-0.6-0.6-1.4-0.6-2.1c0-0.8,0.2-1.5,0.6-2.1c0.4-0.6,0.9-1.1,1.5-1.5c1.4-0.7,3-0.7,4.3,0c0.6,0.3,1.2,0.8,1.5,1.5
		c0.4,0.7,0.6,1.4,0.5,2.2C699.2,668,699.2,668.2,699.1,668.6z M693.7,666c-0.4,0.3-0.6,0.8-0.7,1.2h4c-0.1-0.5-0.3-0.9-0.7-1.2
		c-0.4-0.3-0.8-0.5-1.3-0.5C694.5,665.5,694,665.7,693.7,666L693.7,666z"/>
	<path class="st2" d="M700.7,660.8h2.3V672h-2.3V660.8z"/>
	<path class="st2" d="M711.8,671.4c-0.8-0.4-1.6-1.1-2-1.9c-1-1.7-1-3.9,0-5.6c0.5-0.8,1.2-1.5,2-1.9c0.9-0.5,1.9-0.7,2.9-0.7
		c0.8,0,1.7,0.2,2.5,0.5c0.7,0.3,1.4,0.8,1.9,1.4l-1.6,1.4c-0.6-0.8-1.6-1.2-2.6-1.2c-0.6,0-1.2,0.1-1.7,0.4
		c-0.5,0.3-0.9,0.7-1.2,1.2c-0.6,1.1-0.6,2.4,0,3.5c0.3,0.5,0.7,0.9,1.2,1.2c0.5,0.3,1.1,0.4,1.7,0.4c1,0,2-0.4,2.6-1.2l1.6,1.4
		c-0.5,0.6-1.1,1.1-1.9,1.4c-0.8,0.3-1.6,0.5-2.5,0.5C713.7,672.1,712.7,671.9,711.8,671.4z"/>
	<path class="st2" d="M728.4,663.9v8.1h-2.2v-1c-0.3,0.3-0.7,0.6-1.1,0.8c-0.4,0.2-0.9,0.3-1.4,0.3c-0.9,0-1.8-0.3-2.5-0.9
		c-0.7-0.7-1-1.7-0.9-2.7v-4.6h2.3v4.2c0,1.3,0.5,2,1.6,2c0.5,0,1-0.2,1.4-0.5c0.4-0.5,0.6-1,0.5-1.6v-4L728.4,663.9z"/>
	<path class="st2" d="M734,664.1c0.5-0.2,1.1-0.3,1.6-0.3v2.2c-0.3,0-0.4,0-0.5,0c-0.6,0-1.1,0.2-1.6,0.6c-0.4,0.5-0.6,1.1-0.6,1.7
		v3.8h-2.3v-8.1h2.2v1.1C733.1,664.6,733.5,664.2,734,664.1z"/>
	<path class="st2" d="M743.1,664.7c0.7,0.7,1.1,1.7,1,2.7v4.6h-2.2v-1c-0.5,0.8-1.5,1.2-2.5,1.1c-0.6,0-1.1-0.1-1.6-0.3
		c-0.4-0.2-0.8-0.5-1-0.9c-0.2-0.4-0.4-0.8-0.4-1.3c0-0.7,0.3-1.4,0.8-1.8c0.8-0.5,1.7-0.7,2.6-0.6h1.9c0-0.4-0.1-0.9-0.5-1.2
		c-0.4-0.3-0.9-0.5-1.4-0.4c-0.4,0-0.9,0.1-1.3,0.2c-0.4,0.1-0.7,0.3-1.1,0.5l-0.8-1.6c0.5-0.3,1-0.6,1.6-0.7
		c0.6-0.2,1.3-0.3,1.9-0.3C741.2,663.7,742.3,664,743.1,664.7z M741.1,670.2c0.3-0.2,0.5-0.5,0.7-0.8v-0.8h-1.6
		c-1,0-1.4,0.3-1.4,0.9c0,0.3,0.1,0.5,0.4,0.7c0.3,0.2,0.6,0.3,1,0.3C740.4,670.5,740.8,670.4,741.1,670.2z"/>
	<path class="st2" d="M577.2,664.1c-0.8-0.4-1.6-1.1-2-1.9c-1-1.7-1-3.9,0-5.6c0.5-0.8,1.2-1.5,2-1.9c0.9-0.5,1.9-0.7,2.9-0.7
		c0.8,0,1.7,0.2,2.5,0.5c0.7,0.3,1.4,0.8,1.9,1.4l-1.6,1.4c-0.6-0.8-1.6-1.2-2.6-1.2c-0.6,0-1.2,0.1-1.7,0.4
		c-0.5,0.3-0.9,0.7-1.2,1.2c-0.6,1.1-0.6,2.4,0,3.5c0.3,0.5,0.7,0.9,1.2,1.2c0.5,0.3,1.1,0.4,1.7,0.4c1,0,2-0.4,2.6-1.2l1.6,1.4
		c-0.5,0.6-1.1,1.1-1.9,1.4c-0.8,0.3-1.6,0.5-2.5,0.5C579.1,664.8,578.1,664.6,577.2,664.1z"/>
	<path class="st2" d="M593.5,661.3h-6.1c0.1,0.5,0.4,0.9,0.8,1.2c0.5,0.3,1,0.5,1.5,0.4c0.4,0,0.8-0.1,1.1-0.2
		c0.3-0.1,0.6-0.3,0.9-0.6l1.2,1.4c-0.9,0.9-2.1,1.4-3.3,1.3c-0.8,0-1.7-0.2-2.4-0.5c-0.7-0.3-1.2-0.8-1.6-1.5
		c-0.4-0.6-0.6-1.4-0.6-2.1c0-0.8,0.2-1.5,0.6-2.1c0.4-0.6,0.9-1.1,1.5-1.5c1.4-0.7,3-0.7,4.3,0c0.6,0.3,1.2,0.8,1.5,1.5
		c0.4,0.7,0.6,1.4,0.5,2.2C593.5,660.7,593.5,660.9,593.5,661.3z M588,658.7c-0.4,0.3-0.6,0.8-0.7,1.2h4c-0.1-0.5-0.3-0.9-0.7-1.2
		c-0.4-0.3-0.8-0.5-1.3-0.5C588.8,658.2,588.4,658.4,588,658.7L588,658.7z"/>
	<path class="st2" d="M602.4,657.4c0.7,0.7,1,1.7,0.9,2.7v4.6H601v-4.3c0-0.5-0.1-1-0.4-1.4c-0.3-0.3-0.8-0.5-1.2-0.5
		c-0.5,0-1,0.2-1.4,0.5c-0.4,0.5-0.6,1-0.5,1.6v4h-2.3v-8.1h2.2v0.9c0.3-0.3,0.7-0.6,1.2-0.8c0.5-0.2,1-0.3,1.5-0.3
		C600.9,656.4,601.7,656.7,602.4,657.4z"/>
	<path class="st2" d="M610.6,664.3c-0.3,0.2-0.5,0.3-0.8,0.4c-0.3,0.1-0.7,0.1-1.1,0.1c-0.8,0.1-1.6-0.2-2.2-0.7
		c-0.6-0.6-0.8-1.4-0.8-2.2v-3.3h-1.2v-1.8h1.2v-2h2.3v2h2v1.8h-2v3.3c0,0.3,0.1,0.6,0.3,0.8c0.2,0.2,0.5,0.3,0.7,0.3
		c0.3,0,0.7-0.1,0.9-0.3L610.6,664.3z"/>
	<path class="st2" d="M615.3,656.8c0.5-0.2,1.1-0.3,1.6-0.3v2.2c-0.3,0-0.4,0-0.5,0c-0.6,0-1.1,0.2-1.6,0.6
		c-0.4,0.5-0.6,1.1-0.6,1.7v3.8H612v-8.1h2.2v1.1C614.5,657.2,614.9,656.9,615.3,656.8z"/>
	<path class="st2" d="M619.8,664.2c-0.7-0.3-1.2-0.8-1.6-1.5c-0.8-1.3-0.8-3,0-4.3c0.4-0.6,0.9-1.1,1.6-1.5c1.4-0.7,3.1-0.7,4.6,0
		c0.7,0.3,1.2,0.8,1.6,1.5c0.8,1.3,0.8,3,0,4.3c-0.4,0.6-0.9,1.1-1.6,1.5C623,664.9,621.3,664.9,619.8,664.2z M623.6,662.2
		c0.8-0.9,0.8-2.3,0-3.3c-0.4-0.4-0.9-0.6-1.5-0.6c-0.6,0-1.1,0.2-1.5,0.6c-0.8,0.9-0.8,2.3,0,3.3c0.4,0.4,0.9,0.6,1.5,0.6
		C622.7,662.9,623.2,662.6,623.6,662.2z"/>
	<path class="st2" d="M720.2,452.9v10.5h-2l-5.2-6.4v6.4h-2.4v-10.5h2l5.2,6.4v-6.4H720.2z"/>
	<path class="st2" d="M730.6,455.4v8.1h-2.2v-1c-0.3,0.3-0.7,0.6-1.1,0.8c-0.4,0.2-0.9,0.3-1.4,0.3c-0.9,0-1.8-0.3-2.5-0.9
		c-0.7-0.7-1-1.7-0.9-2.7v-4.6h2.3v4.2c0,1.3,0.5,2,1.6,2c0.5,0,1-0.2,1.4-0.5c0.4-0.5,0.6-1,0.5-1.6v-4L730.6,455.4z"/>
	<path class="st2" d="M740.7,460.1h-6.1c0.1,0.5,0.4,0.9,0.8,1.2c0.5,0.3,1,0.5,1.5,0.4c0.4,0,0.8-0.1,1.1-0.2
		c0.3-0.1,0.6-0.3,0.9-0.6l1.2,1.4c-0.9,0.9-2.1,1.4-3.3,1.3c-0.8,0-1.7-0.2-2.4-0.5c-0.7-0.3-1.2-0.8-1.6-1.5
		c-0.4-0.6-0.6-1.4-0.6-2.1c0-0.8,0.2-1.5,0.6-2.1c0.4-0.6,0.9-1.1,1.5-1.5c1.4-0.7,3-0.7,4.3,0c0.6,0.3,1.2,0.8,1.5,1.5
		c0.4,0.7,0.6,1.4,0.5,2.2C740.7,459.5,740.7,459.7,740.7,460.1z M735.2,457.5c-0.4,0.3-0.6,0.8-0.7,1.2h4c-0.1-0.5-0.3-0.9-0.7-1.2
		c-0.4-0.3-0.8-0.5-1.3-0.5C736,457,735.6,457.2,735.2,457.5L735.2,457.5z"/>
	<path class="st2" d="M750.1,455.4l-3.4,8.1h-2.4l-3.4-8.1h2.4l2.2,5.5l2.3-5.5H750.1z"/>
	<path class="st2" d="M757,456.1c0.7,0.7,1.1,1.7,1,2.7v4.6h-2.2v-1c-0.5,0.8-1.5,1.2-2.5,1.1c-0.6,0-1.1-0.1-1.6-0.3
		c-0.4-0.2-0.8-0.5-1-0.9c-0.2-0.4-0.4-0.8-0.4-1.3c0-0.7,0.3-1.4,0.8-1.8c0.8-0.5,1.7-0.7,2.6-0.6h1.9c0-0.4-0.1-0.9-0.5-1.2
		c-0.4-0.3-0.9-0.5-1.4-0.4c-0.4,0-0.9,0.1-1.3,0.2c-0.4,0.1-0.7,0.3-1.1,0.5l-0.8-1.6c0.5-0.3,1-0.6,1.6-0.7
		c0.6-0.2,1.3-0.3,1.9-0.3C755.1,455.2,756.1,455.5,757,456.1z M755,461.7c0.3-0.2,0.5-0.5,0.7-0.8v-0.8H754c-1,0-1.4,0.3-1.4,0.9
		c0,0.3,0.1,0.5,0.4,0.7c0.3,0.2,0.6,0.3,1,0.3C754.3,462,754.6,461.9,755,461.7L755,461.7z"/>
	<path class="st2" d="M699,472.9h-3.4v-2h9.2v2h-3.4v8.5H699L699,472.9z"/>
	<path class="st2" d="M706.7,481c-0.7-0.3-1.2-0.8-1.6-1.5c-0.8-1.3-0.8-3,0-4.3c0.4-0.6,0.9-1.1,1.6-1.5c1.4-0.7,3.1-0.7,4.6,0
		c0.7,0.3,1.2,0.8,1.6,1.5c0.8,1.3,0.8,3,0,4.3c-0.4,0.6-0.9,1.1-1.6,1.5C709.8,481.7,708.1,481.7,706.7,481z M710.4,479
		c0.8-0.9,0.8-2.3,0-3.3c-0.4-0.4-0.9-0.6-1.5-0.6c-0.6,0-1.1,0.2-1.5,0.6c-0.8,0.9-0.8,2.3,0,3.3c0.4,0.4,0.9,0.6,1.5,0.6
		C709.5,479.7,710,479.4,710.4,479z"/>
	<path class="st2" d="M718.3,473.6c0.5-0.2,1.1-0.3,1.6-0.3v2.2c-0.3,0-0.4,0-0.5,0c-0.6,0-1.1,0.2-1.6,0.6
		c-0.4,0.5-0.6,1.1-0.6,1.7v3.8h-2.3v-8.1h2.2v1.1C717.5,474,717.9,473.7,718.3,473.6z"/>
	<path class="st2" d="M724.7,473.6c0.5-0.2,1.1-0.3,1.6-0.3v2.2c-0.3,0-0.4,0-0.5,0c-0.6,0-1.1,0.2-1.6,0.6
		c-0.4,0.5-0.6,1.1-0.6,1.7v3.8h-2.3v-8.1h2.2v1.1C723.9,474,724.3,473.7,724.7,473.6z"/>
	<path class="st2" d="M735.5,478.1h-6.1c0.1,0.5,0.4,0.9,0.8,1.2c0.5,0.3,1,0.5,1.5,0.4c0.4,0,0.8-0.1,1.1-0.2
		c0.3-0.1,0.6-0.3,0.9-0.6l1.2,1.4c-0.9,0.9-2.1,1.4-3.3,1.3c-0.8,0-1.7-0.2-2.4-0.5c-0.7-0.3-1.2-0.8-1.6-1.5
		c-0.4-0.6-0.6-1.4-0.6-2.1c0-0.8,0.2-1.5,0.6-2.1c0.4-0.6,0.9-1.1,1.5-1.5c1.4-0.7,3-0.7,4.3,0c0.6,0.3,1.2,0.8,1.5,1.5
		c0.4,0.7,0.6,1.4,0.5,2.2C735.6,477.5,735.6,477.7,735.5,478.1z M730.1,475.5c-0.4,0.3-0.6,0.8-0.7,1.2h4c-0.1-0.5-0.3-0.9-0.7-1.2
		c-0.4-0.3-0.8-0.5-1.3-0.5C730.9,475,730.4,475.2,730.1,475.5L730.1,475.5z"/>
	<path class="st2" d="M745,473.4l-3.4,8.1h-2.4l-3.4-8.1h2.4l2.2,5.5l2.3-5.5H745z"/>
	<path class="st2" d="M746.1,471.9c-0.5-0.5-0.5-1.3-0.1-1.8c0,0,0,0,0.1-0.1c0.3-0.3,0.7-0.4,1-0.4c0.4,0,0.8,0.1,1,0.4
		c0.3,0.2,0.4,0.6,0.4,0.9c0,0.4-0.1,0.7-0.4,1c-0.3,0.3-0.7,0.4-1,0.4C746.7,472.3,746.4,472.1,746.1,471.9z M746,473.4h2.3v8.1
		H746V473.4z"/>
	<path class="st2" d="M758.3,478.1h-6.1c0.1,0.5,0.4,0.9,0.8,1.2c0.5,0.3,1,0.5,1.5,0.4c0.4,0,0.8-0.1,1.1-0.2
		c0.3-0.1,0.6-0.3,0.9-0.6l1.2,1.4c-0.9,0.9-2.1,1.4-3.3,1.3c-0.8,0-1.7-0.2-2.4-0.5c-0.7-0.3-1.2-0.8-1.6-1.5
		c-0.4-0.6-0.6-1.4-0.6-2.1c0-0.8,0.2-1.5,0.6-2.1c0.4-0.6,0.9-1.1,1.5-1.5c1.4-0.7,3-0.7,4.3,0c0.6,0.3,1.2,0.8,1.5,1.5
		c0.4,0.7,0.6,1.4,0.5,2.2C758.4,477.5,758.4,477.7,758.3,478.1z M752.9,475.5c-0.4,0.3-0.6,0.8-0.7,1.2h4c-0.1-0.5-0.3-0.9-0.7-1.2
		c-0.4-0.3-0.8-0.5-1.3-0.5C753.7,475,753.2,475.2,752.9,475.5L752.9,475.5z"/>
	<path class="st2" d="M757.5,484l0.6-1.7c0.3,0.2,0.6,0.3,1,0.3c0.3,0,0.5-0.1,0.7-0.3c0.2-0.3,0.3-0.6,0.3-0.9v-8.1h2.3v8.1
		c0,0.8-0.2,1.6-0.8,2.2c-0.6,0.6-1.4,0.9-2.2,0.8C758.7,484.5,758,484.4,757.5,484z M760.2,471.9c-0.5-0.5-0.5-1.3-0.1-1.8
		c0,0,0,0,0.1-0.1c0.3-0.3,0.7-0.4,1.1-0.4c0.4,0,0.8,0.1,1,0.4c0.3,0.2,0.4,0.6,0.4,0.9c0,0.4-0.1,0.7-0.4,1
		c-0.3,0.3-0.7,0.4-1,0.4C760.8,472.3,760.4,472.1,760.2,471.9L760.2,471.9z"/>
	<path class="st2" d="M770.7,474.1c0.7,0.7,1.1,1.7,1,2.7v4.6h-2.2v-1c-0.5,0.8-1.5,1.2-2.5,1.1c-0.6,0-1.1-0.1-1.6-0.3
		c-0.4-0.2-0.8-0.5-1-0.9c-0.2-0.4-0.4-0.8-0.4-1.3c0-0.7,0.3-1.4,0.8-1.8c0.8-0.5,1.7-0.7,2.6-0.6h1.9c0-0.4-0.1-0.9-0.5-1.2
		c-0.4-0.3-0.9-0.5-1.4-0.4c-0.4,0-0.9,0.1-1.3,0.2c-0.4,0.1-0.7,0.3-1.1,0.5l-0.8-1.6c0.5-0.3,1-0.6,1.6-0.7
		c0.6-0.2,1.3-0.3,1.9-0.3C768.8,473.2,769.9,473.5,770.7,474.1z M768.7,479.7c0.3-0.2,0.5-0.5,0.7-0.8v-0.8h-1.6
		c-1,0-1.4,0.3-1.4,0.9c0,0.3,0.1,0.5,0.4,0.7c0.3,0.2,0.6,0.3,1,0.3C768,480,768.4,479.9,768.7,479.7L768.7,479.7z"/>
	<path class="st2" d="M219.2,351.2h2.4v8.5h5.3v2h-7.7L219.2,351.2z"/>
	<path class="st2" d="M234.3,354.4c0.7,0.7,1.1,1.7,1,2.7v4.6h-2.2v-1c-0.5,0.8-1.5,1.2-2.5,1.1c-0.6,0-1.1-0.1-1.6-0.3
		c-0.4-0.2-0.8-0.5-1-0.9c-0.2-0.4-0.4-0.8-0.4-1.3c0-0.7,0.3-1.4,0.8-1.8c0.8-0.5,1.7-0.7,2.6-0.6h1.9c0-0.4-0.1-0.9-0.5-1.2
		c-0.4-0.3-0.9-0.5-1.4-0.4c-0.4,0-0.9,0.1-1.3,0.2c-0.4,0.1-0.7,0.3-1.1,0.5l-0.8-1.6c0.5-0.3,1-0.6,1.6-0.7
		c0.6-0.2,1.3-0.3,1.9-0.3C232.4,353.5,233.5,353.8,234.3,354.4z M232.3,360c0.3-0.2,0.5-0.5,0.7-0.8v-0.8h-1.6
		c-1,0-1.4,0.3-1.4,0.9c0,0.3,0.1,0.5,0.4,0.7c0.3,0.2,0.6,0.3,1,0.3C231.6,360.3,232,360.2,232.3,360z"/>
	<path class="st2" d="M245.8,353.7v6.7c0.1,1.2-0.3,2.4-1.2,3.3c-0.9,0.8-2.2,1.2-3.4,1.1c-0.7,0-1.5-0.1-2.2-0.3
		c-0.6-0.2-1.2-0.4-1.7-0.8l0.9-1.7c0.4,0.3,0.8,0.5,1.3,0.7c0.5,0.2,1,0.2,1.6,0.2c0.6,0.1,1.3-0.1,1.8-0.5c0.4-0.4,0.6-1,0.6-1.7
		v-0.3c-0.7,0.7-1.6,1.1-2.6,1c-0.7,0-1.4-0.2-2-0.5c-0.6-0.3-1.1-0.8-1.5-1.4c-0.7-1.3-0.7-2.8,0-4.1c0.4-0.6,0.9-1.1,1.5-1.4
		c0.6-0.3,1.3-0.5,2-0.5c1-0.1,2,0.4,2.7,1.2v-1L245.8,353.7z M242.9,358.9c0.8-0.8,0.8-2.1,0-2.9c-0.4-0.4-1-0.6-1.5-0.5
		c-0.6,0-1.1,0.2-1.5,0.5c-0.8,0.8-0.8,2,0,2.8c0,0,0,0,0,0c0.4,0.4,1,0.6,1.5,0.5C241.9,359.4,242.5,359.2,242.9,358.9L242.9,358.9
		z"/>
	<path class="st2" d="M256.1,353.7v8.1h-2.2v-1c-0.3,0.3-0.7,0.6-1.1,0.8c-0.4,0.2-0.9,0.3-1.4,0.3c-0.9,0-1.8-0.3-2.5-0.9
		c-0.7-0.7-1-1.7-0.9-2.7v-4.6h2.3v4.2c0,1.3,0.5,2,1.6,2c0.5,0,1-0.2,1.4-0.5c0.4-0.5,0.6-1,0.5-1.6v-4L256.1,353.7z"/>
	<path class="st2" d="M265.6,354.4c0.7,0.7,1,1.7,0.9,2.7v4.6h-2.3v-4.3c0-0.5-0.1-1-0.4-1.4c-0.3-0.3-0.8-0.5-1.2-0.5
		c-0.5,0-1,0.2-1.4,0.5c-0.4,0.5-0.6,1-0.5,1.6v4h-2.3v-8.1h2.2v0.9c0.3-0.3,0.7-0.6,1.2-0.8c0.5-0.2,1-0.3,1.5-0.3
		C264.1,353.5,265,353.8,265.6,354.4z"/>
	<path class="st2" d="M274.8,354.4c0.7,0.7,1.1,1.7,1,2.7v4.6h-2.2v-1c-0.5,0.8-1.5,1.2-2.5,1.1c-0.6,0-1.1-0.1-1.6-0.3
		c-0.4-0.2-0.8-0.5-1-0.9c-0.2-0.4-0.4-0.8-0.4-1.3c0-0.7,0.3-1.4,0.8-1.8c0.8-0.5,1.7-0.7,2.6-0.6h1.9c0-0.4-0.1-0.9-0.5-1.2
		c-0.4-0.3-0.9-0.5-1.4-0.4c-0.4,0-0.9,0.1-1.3,0.2c-0.4,0.1-0.7,0.3-1.1,0.5l-0.8-1.6c0.5-0.3,1-0.6,1.6-0.7
		c0.6-0.2,1.3-0.3,1.9-0.3C272.9,353.5,274,353.8,274.8,354.4z M272.8,360c0.3-0.2,0.5-0.5,0.7-0.8v-0.8h-1.6c-1,0-1.4,0.3-1.4,0.9
		c0,0.3,0.1,0.5,0.4,0.7c0.3,0.2,0.6,0.3,1,0.3C272.1,360.3,272.5,360.2,272.8,360z"/>
	<path class="st2" d="M290.4,350.6v11.1h-2.2v-0.9c-0.6,0.7-1.6,1.1-2.5,1c-0.7,0-1.4-0.2-2.1-0.5c-0.6-0.3-1.1-0.8-1.4-1.5
		c-0.7-1.4-0.7-3,0-4.4c0.3-0.6,0.8-1.1,1.4-1.5c0.6-0.3,1.3-0.5,2.1-0.5c0.9,0,1.8,0.3,2.4,1v-3.9L290.4,350.6z M287.5,359.3
		c0.8-0.9,0.8-2.3,0-3.3c-0.8-0.8-2.1-0.8-3,0c-0.8,0.9-0.8,2.3,0,3.3C285.4,360.1,286.7,360.1,287.5,359.3z"/>
	<path class="st2" d="M300.4,358.4h-6.1c0.1,0.5,0.4,0.9,0.8,1.2c0.5,0.3,1,0.5,1.5,0.4c0.4,0,0.8-0.1,1.1-0.2
		c0.3-0.1,0.6-0.3,0.9-0.6l1.2,1.4c-0.9,0.9-2.1,1.4-3.3,1.3c-0.8,0-1.7-0.2-2.4-0.5c-0.7-0.3-1.2-0.8-1.6-1.5
		c-0.4-0.6-0.6-1.4-0.6-2.1c0-0.8,0.2-1.5,0.6-2.1c0.4-0.6,0.9-1.1,1.5-1.5c1.4-0.7,3-0.7,4.3,0c0.6,0.3,1.2,0.8,1.5,1.5
		c0.4,0.7,0.6,1.4,0.5,2.2C300.4,357.8,300.4,358,300.4,358.4z M294.9,355.8c-0.4,0.3-0.6,0.8-0.7,1.2h4c-0.1-0.5-0.3-0.9-0.7-1.2
		c-0.4-0.3-0.8-0.5-1.3-0.5C295.8,355.3,295.3,355.5,294.9,355.8z"/>
	<path class="st2" d="M224.3,371.2h-3.4v-2h9.1v2h-3.4v8.5h-2.4L224.3,371.2z"/>
	<path class="st2" d="M231.9,379.3c-0.7-0.3-1.2-0.8-1.6-1.5c-0.8-1.3-0.8-3,0-4.3c0.4-0.6,0.9-1.1,1.6-1.5c1.4-0.7,3.1-0.7,4.6,0
		c0.7,0.3,1.2,0.8,1.6,1.5c0.8,1.3,0.8,3,0,4.3c-0.4,0.6-0.9,1.1-1.6,1.5C235.1,380,233.4,380,231.9,379.3z M235.7,377.3
		c0.8-0.9,0.8-2.3,0-3.3c-0.4-0.4-0.9-0.6-1.5-0.6c-0.6,0-1.1,0.2-1.5,0.6c-0.8,0.9-0.8,2.3,0,3.3c0.4,0.4,0.9,0.6,1.5,0.6
		C234.8,377.9,235.3,377.7,235.7,377.3L235.7,377.3z"/>
	<path class="st2" d="M243.6,371.8c0.5-0.2,1.1-0.3,1.6-0.3v2.2c-0.3,0-0.4,0-0.5,0c-0.6,0-1.1,0.2-1.6,0.6
		c-0.4,0.5-0.6,1.1-0.6,1.7v3.8h-2.3v-8.1h2.2v1.1C242.7,372.3,243.1,372,243.6,371.8z"/>
	<path class="st2" d="M250,371.8c0.5-0.2,1.1-0.3,1.6-0.3v2.2c-0.3,0-0.4,0-0.5,0c-0.6,0-1.1,0.2-1.6,0.6c-0.4,0.5-0.6,1.1-0.6,1.7
		v3.8h-2.3v-8.1h2.2v1.1C249.1,372.3,249.5,372,250,371.8z"/>
	<path class="st2" d="M260.8,376.4h-6.1c0.1,0.5,0.4,0.9,0.8,1.2c0.5,0.3,1,0.5,1.5,0.4c0.4,0,0.8-0.1,1.1-0.2
		c0.3-0.1,0.6-0.3,0.9-0.6l1.2,1.4c-0.9,0.9-2.1,1.4-3.3,1.3c-0.8,0-1.7-0.2-2.4-0.5c-0.7-0.3-1.2-0.8-1.6-1.5
		c-0.4-0.6-0.6-1.4-0.6-2.1c0-0.8,0.2-1.5,0.6-2.1c0.4-0.6,0.9-1.1,1.5-1.5c1.4-0.7,3-0.7,4.3,0c0.6,0.3,1.2,0.8,1.5,1.5
		c0.4,0.7,0.6,1.4,0.5,2.2C260.8,375.8,260.8,376,260.8,376.4z M255.3,373.8c-0.4,0.3-0.6,0.8-0.7,1.2h4c-0.1-0.5-0.3-0.9-0.7-1.2
		c-0.4-0.3-0.8-0.5-1.3-0.5C256.2,373.3,255.7,373.5,255.3,373.8z"/>
	<path class="st2" d="M270.3,371.7l-3.4,8.1h-2.4l-3.4-8.1h2.4l2.2,5.5l2.3-5.5H270.3z"/>
	<path class="st2" d="M271.3,370.2c-0.5-0.5-0.5-1.3-0.1-1.8c0,0,0,0,0.1-0.1c0.3-0.3,0.7-0.4,1-0.4c0.4,0,0.8,0.1,1,0.4
		c0.3,0.2,0.4,0.6,0.4,0.9c0,0.4-0.1,0.7-0.4,1c-0.3,0.3-0.7,0.4-1,0.4C272,370.6,271.6,370.4,271.3,370.2z M271.2,371.7h2.3v8.1
		h-2.3V371.7z"/>
	<path class="st2" d="M283.6,376.4h-6.1c0.1,0.5,0.4,0.9,0.8,1.2c0.5,0.3,1,0.5,1.5,0.4c0.4,0,0.8-0.1,1.1-0.2
		c0.3-0.1,0.6-0.3,0.9-0.6l1.2,1.4c-0.9,0.9-2.1,1.4-3.3,1.3c-0.8,0-1.7-0.2-2.4-0.5c-0.7-0.3-1.2-0.8-1.6-1.5
		c-0.4-0.6-0.6-1.4-0.6-2.1c0-0.8,0.2-1.5,0.6-2.1c0.4-0.6,0.9-1.1,1.5-1.5c1.4-0.7,3-0.7,4.3,0c0.6,0.3,1.2,0.8,1.5,1.5
		c0.4,0.7,0.6,1.4,0.5,2.2C283.6,375.8,283.6,376,283.6,376.4z M278.1,373.8c-0.4,0.3-0.6,0.8-0.7,1.2h4c-0.1-0.5-0.3-0.9-0.7-1.2
		c-0.4-0.3-0.8-0.5-1.3-0.5C279,373.3,278.5,373.5,278.1,373.8L278.1,373.8z"/>
	<path class="st2" d="M282.7,382.3l0.6-1.7c0.3,0.2,0.6,0.3,1,0.3c0.3,0,0.5-0.1,0.7-0.3c0.2-0.3,0.3-0.6,0.3-0.9v-8.1h2.3v8.1
		c0,0.8-0.2,1.6-0.8,2.2c-0.6,0.6-1.4,0.9-2.2,0.8C283.9,382.8,283.3,382.6,282.7,382.3z M285.4,370.2c-0.5-0.5-0.5-1.3-0.1-1.8
		c0,0,0,0,0.1-0.1c0.3-0.3,0.7-0.4,1.1-0.4c0.4,0,0.8,0.1,1,0.4c0.3,0.2,0.4,0.6,0.4,0.9c0,0.4-0.1,0.7-0.4,1
		c-0.3,0.3-0.7,0.4-1,0.4C286.1,370.6,285.7,370.4,285.4,370.2L285.4,370.2z"/>
	<path class="st2" d="M295.9,372.4c0.7,0.7,1.1,1.7,1,2.7v4.6h-2.2v-1c-0.5,0.8-1.5,1.2-2.5,1.1c-0.6,0-1.1-0.1-1.6-0.3
		c-0.4-0.2-0.8-0.5-1-0.9c-0.2-0.4-0.4-0.8-0.4-1.3c0-0.7,0.3-1.4,0.8-1.8c0.8-0.5,1.7-0.7,2.6-0.6h1.9c0-0.4-0.1-0.9-0.5-1.2
		c-0.4-0.3-0.9-0.5-1.4-0.4c-0.4,0-0.9,0.1-1.3,0.2c-0.4,0.1-0.7,0.3-1.1,0.5l-0.8-1.6c0.5-0.3,1-0.6,1.6-0.7
		c0.6-0.2,1.3-0.3,1.9-0.3C294.1,371.5,295.1,371.8,295.9,372.4z M293.9,378c0.3-0.2,0.5-0.5,0.7-0.8v-0.8H293c-1,0-1.4,0.3-1.4,0.9
		c0,0.3,0.1,0.5,0.4,0.7c0.3,0.2,0.6,0.3,1,0.3C293.3,378.3,293.6,378.2,293.9,378L293.9,378z"/>
	<path class="st2" d="M216.7,753.7h2.4v8.5h5.3v2h-7.7L216.7,753.7z"/>
	<path class="st2" d="M227.1,763.8c-0.7-0.3-1.2-0.8-1.6-1.5c-0.8-1.3-0.8-3,0-4.3c0.4-0.6,0.9-1.1,1.6-1.5c1.4-0.7,3.1-0.7,4.6,0
		c0.7,0.3,1.2,0.8,1.6,1.5c0.8,1.3,0.8,3,0,4.3c-0.4,0.6-0.9,1.1-1.6,1.5C230.2,764.5,228.5,764.5,227.1,763.8z M230.9,761.8
		c0.8-0.9,0.8-2.3,0-3.3c-0.4-0.4-0.9-0.6-1.5-0.6c-0.6,0-1.1,0.2-1.5,0.6c-0.8,0.9-0.8,2.3,0,3.3c0.4,0.4,0.9,0.6,1.5,0.6
		C229.9,762.4,230.5,762.2,230.9,761.8L230.9,761.8z"/>
	<path class="st2" d="M236.1,764.1c-0.5-0.1-1.1-0.3-1.5-0.6l0.8-1.7c0.4,0.3,0.8,0.4,1.3,0.6c0.5,0.1,1,0.2,1.5,0.2
		c1,0,1.5-0.2,1.5-0.7c0-0.2-0.2-0.4-0.4-0.5c-0.4-0.1-0.8-0.2-1.2-0.3c-0.6-0.1-1.1-0.2-1.6-0.3c-0.4-0.1-0.8-0.4-1.1-0.7
		c-0.3-0.4-0.5-0.9-0.5-1.4c0-0.5,0.1-1,0.4-1.4c0.3-0.4,0.8-0.7,1.3-0.9c0.6-0.2,1.3-0.3,2-0.3c0.6,0,1.1,0.1,1.7,0.2
		c0.5,0.1,1,0.3,1.4,0.5l-0.8,1.7c-0.7-0.4-1.5-0.6-2.3-0.6c-0.4,0-0.8,0-1.1,0.2c-0.2,0.1-0.4,0.3-0.4,0.5c0,0.2,0.2,0.5,0.4,0.5
		c0.4,0.1,0.9,0.2,1.3,0.3c0.5,0.1,1.1,0.2,1.6,0.4c0.4,0.1,0.8,0.4,1.1,0.7c0.3,0.4,0.5,0.9,0.5,1.4c0,0.5-0.2,1-0.4,1.3
		c-0.3,0.4-0.8,0.7-1.3,0.9c-0.7,0.2-1.4,0.3-2,0.3C237.4,764.3,236.8,764.2,236.1,764.1z"/>
	<path class="st2" d="M256.9,759.7c0.3,0.5,0.5,1.1,0.5,1.6c0,0.8-0.4,1.7-1.1,2.1c-0.9,0.6-2,0.8-3.1,0.7h-5.4v-10.5h5.1
		c1-0.1,2.1,0.2,2.9,0.7c0.7,0.4,1,1.2,1,2c0,1-0.5,1.9-1.4,2.3C256,758.9,256.5,759.2,256.9,759.7z M250.2,755.5v2.5h2.4
		c0.5,0,1-0.1,1.4-0.3c0.3-0.2,0.5-0.6,0.5-0.9c0-0.4-0.2-0.7-0.5-0.9c-0.4-0.2-0.9-0.3-1.4-0.3L250.2,755.5z M254.4,762.1
		c0.3-0.2,0.5-0.6,0.5-1c0-0.9-0.6-1.3-1.9-1.3h-2.8v2.6h2.8C253.5,762.4,254,762.3,254.4,762.1z"/>
	<path class="st2" d="M265.2,756.9c0.7,0.7,1.1,1.7,1,2.7v4.6H264v-1c-0.5,0.8-1.5,1.2-2.5,1.1c-0.6,0-1.1-0.1-1.6-0.3
		c-0.4-0.2-0.8-0.5-1-0.9c-0.2-0.4-0.4-0.8-0.4-1.3c0-0.7,0.3-1.4,0.8-1.8c0.8-0.5,1.7-0.7,2.6-0.6h1.9c0-0.4-0.1-0.9-0.5-1.2
		c-0.4-0.3-0.9-0.5-1.4-0.4c-0.4,0-0.9,0.1-1.3,0.2c-0.4,0.1-0.7,0.3-1.1,0.5l-0.8-1.6c0.5-0.3,1-0.6,1.6-0.7
		c0.6-0.2,1.3-0.3,1.9-0.3C263.3,755.9,264.4,756.3,265.2,756.9z M263.2,762.5c0.3-0.2,0.5-0.5,0.7-0.8v-0.8h-1.6
		c-1,0-1.4,0.3-1.4,0.9c0,0.3,0.1,0.5,0.4,0.7c0.3,0.2,0.6,0.3,1,0.3C262.5,762.8,262.9,762.7,263.2,762.5z"/>
	<path class="st2" d="M268.3,753.1h2.3v11.1h-2.3V753.1z"/>
	<path class="st2" d="M274.4,763.8c-0.7-0.3-1.2-0.8-1.6-1.5c-0.8-1.3-0.8-3,0-4.3c0.4-0.6,0.9-1.1,1.6-1.5c0.7-0.4,1.5-0.5,2.3-0.5
		c0.8,0,1.5,0.2,2.2,0.5c0.6,0.3,1.1,0.9,1.4,1.5l-1.8,1c-0.3-0.7-1-1.1-1.8-1.1c-0.6,0-1.1,0.2-1.5,0.6c-0.8,0.9-0.8,2.3,0,3.3
		c0.4,0.4,0.9,0.6,1.5,0.6c0.8,0,1.5-0.4,1.8-1.1l1.8,1c-0.3,0.6-0.8,1.2-1.4,1.5c-0.7,0.4-1.4,0.6-2.2,0.5
		C275.9,764.3,275.1,764.2,274.4,763.8z"/>
	<path class="st2" d="M283.1,763.8c-0.7-0.3-1.2-0.8-1.6-1.5c-0.8-1.3-0.8-3,0-4.3c0.4-0.6,0.9-1.1,1.6-1.5c1.4-0.7,3.1-0.7,4.6,0
		c0.7,0.3,1.2,0.8,1.6,1.5c0.8,1.3,0.8,3,0,4.3c-0.4,0.6-0.9,1.1-1.6,1.5C286.3,764.5,284.6,764.5,283.1,763.8z M286.9,761.8
		c0.8-0.9,0.8-2.3,0-3.3c-0.4-0.4-0.9-0.6-1.5-0.6c-0.6,0-1.1,0.2-1.5,0.6c-0.8,0.9-0.8,2.3,0,3.3c0.4,0.4,0.9,0.6,1.5,0.6
		C286,762.4,286.5,762.2,286.9,761.8L286.9,761.8z"/>
	<path class="st2" d="M298.7,756.9c0.7,0.7,1,1.7,0.9,2.7v4.6h-2.3v-4.3c0-0.5-0.1-1-0.4-1.4c-0.3-0.3-0.8-0.5-1.2-0.5
		c-0.5,0-1,0.2-1.4,0.5c-0.4,0.5-0.6,1-0.5,1.6v4h-2.3v-8.1h2.2v0.9c0.3-0.3,0.7-0.6,1.2-0.8c0.5-0.2,1-0.3,1.5-0.3
		C297.2,756,298.1,756.3,298.7,756.9z"/>
	<path class="st2" d="M309.7,760.8h-6.1c0.1,0.5,0.4,0.9,0.8,1.2c0.5,0.3,1,0.5,1.5,0.4c0.4,0,0.8-0.1,1.1-0.2
		c0.3-0.1,0.6-0.3,0.9-0.6l1.2,1.4c-0.9,0.9-2.1,1.4-3.3,1.3c-0.8,0-1.7-0.2-2.4-0.5c-0.7-0.3-1.2-0.8-1.6-1.5
		c-0.4-0.6-0.6-1.4-0.6-2.1c0-0.8,0.2-1.5,0.6-2.1c0.4-0.6,0.9-1.1,1.5-1.5c1.4-0.7,3-0.7,4.3,0c0.6,0.3,1.2,0.8,1.5,1.5
		c0.4,0.7,0.6,1.4,0.5,2.2C309.8,760.2,309.7,760.4,309.7,760.8z M304.2,758.2c-0.4,0.3-0.6,0.8-0.7,1.2h4c-0.1-0.5-0.3-0.9-0.7-1.2
		c-0.4-0.3-0.8-0.5-1.3-0.5C305.1,757.8,304.6,757.9,304.2,758.2L304.2,758.2z"/>
	<path class="st2" d="M312.1,764.1c-0.5-0.1-1.1-0.3-1.5-0.6l0.8-1.7c0.4,0.3,0.8,0.4,1.3,0.6c0.5,0.1,1,0.2,1.5,0.2
		c1,0,1.5-0.2,1.5-0.7c0-0.2-0.2-0.4-0.4-0.5c-0.4-0.1-0.8-0.2-1.2-0.3c-0.6-0.1-1.1-0.2-1.6-0.3c-0.4-0.1-0.8-0.4-1.1-0.7
		c-0.3-0.4-0.5-0.9-0.5-1.4c0-0.5,0.1-1,0.4-1.4c0.3-0.4,0.8-0.7,1.3-0.9c0.6-0.2,1.3-0.3,2-0.3c0.6,0,1.1,0.1,1.7,0.2
		c0.5,0.1,1,0.3,1.4,0.5l-0.8,1.7c-0.7-0.4-1.5-0.6-2.3-0.6c-0.4,0-0.8,0-1.1,0.2c-0.2,0.1-0.4,0.3-0.4,0.5c0,0.2,0.2,0.5,0.4,0.5
		c0.4,0.1,0.9,0.2,1.3,0.3c0.5,0.1,1.1,0.2,1.6,0.4c0.4,0.1,0.8,0.4,1.1,0.7c0.3,0.4,0.5,0.9,0.5,1.4c0,0.5-0.2,1-0.5,1.3
		c-0.3,0.4-0.8,0.7-1.3,0.9c-0.7,0.2-1.4,0.3-2,0.3C313.4,764.3,312.7,764.2,312.1,764.1z"/>
	<path class="st2" d="M323.2,759h4.2v1.9h-4.2V759z"/>
	<path class="st2" d="M200.7,771.7h2.4v8.5h5.3v2h-7.7L200.7,771.7z"/>
	<path class="st2" d="M211.1,781.8c-0.7-0.3-1.2-0.8-1.6-1.5c-0.8-1.3-0.8-3,0-4.3c0.4-0.6,0.9-1.1,1.6-1.5c1.4-0.7,3.1-0.7,4.6,0
		c0.7,0.3,1.2,0.8,1.6,1.5c0.8,1.3,0.8,3,0,4.3c-0.4,0.6-0.9,1.1-1.6,1.5C214.2,782.5,212.5,782.5,211.1,781.8z M214.9,779.8
		c0.8-0.9,0.8-2.3,0-3.3c-0.4-0.4-0.9-0.6-1.5-0.6c-0.6,0-1.1,0.2-1.5,0.6c-0.8,0.9-0.8,2.3,0,3.3c0.4,0.4,0.9,0.6,1.5,0.6
		C214,780.4,214.5,780.2,214.9,779.8z"/>
	<path class="st2" d="M220.1,782.1c-0.5-0.1-1.1-0.3-1.5-0.6l0.8-1.7c0.4,0.3,0.8,0.4,1.3,0.6c0.5,0.1,1,0.2,1.5,0.2
		c1,0,1.5-0.2,1.5-0.7c0-0.2-0.2-0.4-0.4-0.5c-0.4-0.1-0.8-0.2-1.2-0.3c-0.6-0.1-1.1-0.2-1.6-0.3c-0.4-0.1-0.8-0.4-1.1-0.7
		c-0.3-0.4-0.5-0.9-0.5-1.4c0-0.5,0.1-1,0.4-1.4c0.3-0.4,0.8-0.7,1.3-0.9c0.6-0.2,1.3-0.3,2-0.3c0.6,0,1.1,0.1,1.7,0.2
		c0.5,0.1,1,0.3,1.4,0.5l-0.8,1.7c-0.7-0.4-1.5-0.6-2.3-0.6c-0.4,0-0.8,0-1.1,0.2c-0.2,0.1-0.4,0.3-0.4,0.5c0,0.2,0.2,0.5,0.4,0.5
		c0.4,0.1,0.9,0.2,1.3,0.3c0.5,0.1,1.1,0.2,1.6,0.4c0.4,0.1,0.8,0.4,1.1,0.7c0.3,0.4,0.5,0.9,0.5,1.4c0,0.5-0.2,1-0.4,1.3
		c-0.3,0.4-0.8,0.7-1.3,0.9c-0.7,0.2-1.4,0.3-2,0.3C221.4,782.3,220.8,782.2,220.1,782.1z"/>
	<path class="st2" d="M238.7,780h-4.9l-0.9,2.3h-2.5l4.7-10.5h2.4l4.7,10.5h-2.6L238.7,780z M237.9,778.1l-1.7-4l-1.7,4H237.9z"/>
	<path class="st2" d="M243.1,771.1h2.3v11.1h-2.3V771.1z"/>
	<path class="st2" d="M253.4,781.8c-0.3,0.2-0.5,0.3-0.8,0.4c-0.3,0.1-0.7,0.1-1.1,0.1c-0.8,0.1-1.6-0.2-2.2-0.7
		c-0.6-0.6-0.8-1.4-0.8-2.2v-3.3h-1.2v-1.8h1.2v-2h2.3v2h2v1.8h-2v3.3c0,0.3,0.1,0.6,0.3,0.8c0.2,0.2,0.5,0.3,0.7,0.3
		c0.3,0,0.7-0.1,0.9-0.3L253.4,781.8z"/>
	<path class="st2" d="M256,781.8c-0.7-0.3-1.2-0.8-1.6-1.5c-0.8-1.3-0.8-3,0-4.3c0.4-0.6,0.9-1.1,1.6-1.5c1.4-0.7,3.1-0.7,4.6,0
		c0.7,0.3,1.2,0.8,1.6,1.5c0.8,1.3,0.8,3,0,4.3c-0.4,0.6-0.9,1.1-1.6,1.5C259.1,782.5,257.4,782.5,256,781.8z M259.8,779.8
		c0.8-0.9,0.8-2.3,0-3.3c-0.4-0.4-0.9-0.6-1.5-0.6c-0.6,0-1.1,0.2-1.5,0.6c-0.8,0.9-0.8,2.3,0,3.3c0.4,0.4,0.9,0.6,1.5,0.6
		C258.8,780.4,259.4,780.2,259.8,779.8z"/>
	<path class="st2" d="M265,782.1c-0.5-0.1-1.1-0.3-1.5-0.6l0.8-1.7c0.4,0.3,0.8,0.4,1.3,0.6c0.5,0.1,1,0.2,1.5,0.2
		c1,0,1.5-0.2,1.5-0.7c0-0.2-0.2-0.4-0.4-0.5c-0.4-0.1-0.8-0.2-1.2-0.3c-0.6-0.1-1.1-0.2-1.6-0.3c-0.4-0.1-0.8-0.4-1.1-0.7
		c-0.3-0.4-0.5-0.9-0.5-1.4c0-0.5,0.1-1,0.4-1.4c0.3-0.4,0.8-0.7,1.3-0.9c0.6-0.2,1.3-0.3,2-0.3c0.6,0,1.1,0.1,1.7,0.2
		c0.5,0.1,1,0.3,1.4,0.5l-0.8,1.7c-0.7-0.4-1.5-0.6-2.3-0.6c-0.4,0-0.8,0-1.1,0.2c-0.2,0.1-0.4,0.3-0.4,0.5c0,0.2,0.2,0.5,0.4,0.5
		c0.4,0.1,0.9,0.2,1.3,0.3c0.5,0.1,1.1,0.2,1.6,0.4c0.4,0.1,0.8,0.4,1.1,0.7c0.3,0.4,0.5,0.9,0.5,1.4c0,0.5-0.2,1-0.5,1.3
		c-0.3,0.4-0.8,0.7-1.3,0.9c-0.7,0.2-1.4,0.3-2,0.3C266.3,782.3,265.7,782.2,265,782.1z"/>
	<path class="st2" d="M284.7,771.1v11.1h-2.2v-0.9c-0.6,0.7-1.6,1.1-2.5,1.1c-0.7,0-1.4-0.2-2.1-0.5c-0.6-0.3-1.1-0.8-1.4-1.5
		c-0.7-1.4-0.7-3,0-4.4c0.3-0.6,0.8-1.1,1.4-1.5c0.6-0.3,1.3-0.5,2.1-0.5c0.9,0,1.8,0.3,2.4,1v-3.9L284.7,771.1z M281.8,779.8
		c0.8-0.9,0.8-2.3,0-3.3c-0.4-0.4-0.9-0.6-1.5-0.6c-0.6,0-1.1,0.2-1.5,0.6c-0.8,0.9-0.8,2.3,0,3.3c0.4,0.4,0.9,0.6,1.5,0.6
		C280.9,780.4,281.4,780.2,281.8,779.8L281.8,779.8z"/>
	<path class="st2" d="M294.7,778.8h-6.1c0.1,0.5,0.4,0.9,0.8,1.2c0.5,0.3,1,0.5,1.5,0.4c0.4,0,0.8-0.1,1.1-0.2
		c0.3-0.1,0.6-0.3,0.9-0.6l1.2,1.4c-0.9,0.9-2.1,1.4-3.3,1.3c-0.8,0-1.7-0.2-2.4-0.5c-0.7-0.3-1.2-0.8-1.6-1.5
		c-0.4-0.6-0.6-1.4-0.6-2.1c0-0.8,0.2-1.5,0.6-2.1c0.4-0.6,0.9-1.1,1.5-1.5c1.4-0.7,3-0.7,4.3,0c0.6,0.3,1.2,0.8,1.5,1.5
		c0.4,0.7,0.6,1.4,0.5,2.2C294.8,778.2,294.8,778.4,294.7,778.8z M289.2,776.2c-0.4,0.3-0.6,0.8-0.7,1.2h4c-0.1-0.5-0.3-0.9-0.7-1.2
		c-0.4-0.3-0.8-0.5-1.3-0.5C290.1,775.8,289.6,775.9,289.2,776.2L289.2,776.2z"/>
	<path class="st2" d="M296.3,771.1h2.3v11.1h-2.3V771.1z"/>
	<path class="st2" d="M313.4,780.3v1.9h-8.1v-10.5h7.9v2h-5.5v2.3h4.9v1.9h-4.9v2.4L313.4,780.3z"/>
	<path class="st2" d="M323.3,771.1v11.1h-2.2v-0.9c-0.6,0.7-1.6,1.1-2.5,1.1c-0.7,0-1.4-0.2-2.1-0.5c-0.6-0.3-1.1-0.8-1.4-1.5
		c-0.7-1.4-0.7-3,0-4.4c0.3-0.6,0.8-1.1,1.4-1.5c0.6-0.3,1.3-0.5,2.1-0.5c0.9,0,1.8,0.3,2.4,1v-3.9L323.3,771.1z M320.4,779.8
		c0.8-0.9,0.8-2.3,0-3.3c-0.8-0.8-2.1-0.8-3,0c-0.8,0.9-0.8,2.3,0,3.3C318.3,780.6,319.6,780.6,320.4,779.8z"/>
	<path class="st2" d="M333.3,778.8h-6.1c0.1,0.5,0.4,0.9,0.8,1.2c0.5,0.3,1,0.5,1.5,0.4c0.4,0,0.8-0.1,1.1-0.2
		c0.3-0.1,0.6-0.3,0.9-0.6l1.2,1.4c-0.9,0.9-2.1,1.4-3.3,1.3c-0.8,0-1.7-0.2-2.4-0.5c-0.7-0.3-1.2-0.8-1.6-1.5
		c-0.4-0.6-0.6-1.4-0.6-2.1c0-0.8,0.2-1.5,0.6-2.1c0.4-0.6,0.9-1.1,1.5-1.5c1.4-0.7,3-0.7,4.3,0c0.6,0.3,1.2,0.8,1.5,1.5
		c0.4,0.7,0.6,1.4,0.5,2.2C333.4,778.2,333.4,778.4,333.3,778.8z M327.9,776.2c-0.4,0.3-0.6,0.8-0.7,1.2h4c-0.1-0.5-0.3-0.9-0.7-1.2
		c-0.4-0.3-0.8-0.5-1.3-0.5C328.7,775.8,328.2,775.9,327.9,776.2L327.9,776.2z M329.8,770.9h2.5l-2.7,2.2h-1.8L329.8,770.9z"/>
	<path class="st2" d="M342.3,774.9c0.7,0.7,1,1.7,0.9,2.7v4.6h-2.3v-4.3c0-0.5-0.1-1-0.4-1.4c-0.3-0.3-0.8-0.5-1.2-0.5
		c-0.5,0-1,0.2-1.4,0.5c-0.4,0.5-0.6,1-0.5,1.6v4h-2.3v-8.1h2.2v0.9c0.3-0.3,0.7-0.6,1.2-0.8c0.5-0.2,1-0.3,1.5-0.3
		C340.7,774,341.6,774.3,342.3,774.9z"/>
	<path class="st2" d="M541.6,100.3h2.4v8.5h5.3v2h-7.7L541.6,100.3z"/>
	<path class="st2" d="M556.7,103.5c0.7,0.7,1.1,1.7,1,2.7v4.6h-2.2v-1c-0.5,0.8-1.5,1.2-2.5,1.1c-0.6,0-1.1-0.1-1.6-0.3
		c-0.4-0.2-0.8-0.5-1-0.9c-0.2-0.4-0.4-0.8-0.4-1.3c0-0.7,0.3-1.4,0.8-1.8c0.8-0.5,1.7-0.7,2.6-0.6h1.9c0-0.4-0.1-0.9-0.5-1.2
		c-0.4-0.3-0.9-0.5-1.4-0.4c-0.4,0-0.9,0.1-1.3,0.2c-0.4,0.1-0.7,0.3-1.1,0.5l-0.8-1.6c0.5-0.3,1-0.6,1.6-0.7
		c0.6-0.2,1.3-0.3,1.9-0.3C554.9,102.5,555.9,102.8,556.7,103.5z M554.7,109c0.3-0.2,0.5-0.5,0.7-0.8v-0.8h-1.6
		c-1,0-1.4,0.3-1.4,0.9c0,0.3,0.1,0.5,0.4,0.7c0.3,0.2,0.6,0.3,1,0.3C554,109.3,554.4,109.2,554.7,109L554.7,109z"/>
	<path class="st2" d="M568.3,102.7v6.7c0.1,1.2-0.3,2.4-1.2,3.3c-0.9,0.8-2.2,1.2-3.4,1.1c-0.7,0-1.5-0.1-2.2-0.3
		c-0.6-0.2-1.2-0.4-1.7-0.8l0.9-1.7c0.4,0.3,0.8,0.5,1.3,0.7c0.5,0.2,1,0.2,1.6,0.2c0.6,0.1,1.3-0.1,1.8-0.5c0.4-0.4,0.6-1,0.6-1.7
		v-0.3c-0.7,0.7-1.6,1.1-2.5,1c-0.7,0-1.4-0.2-2-0.5c-0.6-0.3-1.1-0.8-1.5-1.4c-0.7-1.3-0.7-2.8,0-4.1c0.4-0.6,0.9-1.1,1.5-1.4
		c0.6-0.3,1.3-0.5,2-0.5c1-0.1,2,0.4,2.7,1.2v-1L568.3,102.7z M565.4,107.9c0.8-0.8,0.8-2.1,0-2.9c-0.4-0.4-1-0.6-1.5-0.5
		c-0.6,0-1.1,0.2-1.5,0.5c-0.8,0.8-0.8,2,0,2.8c0,0,0,0,0,0c0.4,0.4,1,0.6,1.5,0.5C564.4,108.5,564.9,108.3,565.4,107.9L565.4,107.9
		z"/>
	<path class="st2" d="M578.6,102.7v8.1h-2.2v-1c-0.3,0.3-0.7,0.6-1.1,0.8c-0.4,0.2-0.9,0.3-1.4,0.3c-0.9,0-1.8-0.3-2.5-0.9
		c-0.7-0.7-1-1.7-0.9-2.7v-4.6h2.3v4.2c0,1.3,0.5,2,1.6,1.9c0.5,0,1-0.2,1.4-0.5c0.4-0.5,0.6-1,0.5-1.6v-4L578.6,102.7z"/>
	<path class="st2" d="M588.1,103.5c0.7,0.7,1,1.7,0.9,2.7v4.6h-2.3v-4.3c0-0.5-0.1-1-0.4-1.4c-0.3-0.3-0.8-0.5-1.2-0.5
		c-0.5,0-1,0.2-1.4,0.5c-0.4,0.5-0.6,1-0.5,1.6v4h-2.3v-8.1h2.2v0.9c0.3-0.3,0.7-0.6,1.2-0.8c0.5-0.2,1-0.3,1.5-0.3
		C586.5,102.5,587.4,102.9,588.1,103.5z"/>
	<path class="st2" d="M597.2,103.5c0.7,0.7,1.1,1.7,1,2.7v4.6h-2.2v-1c-0.5,0.8-1.5,1.2-2.5,1.1c-0.6,0-1.1-0.1-1.6-0.3
		c-0.4-0.2-0.8-0.5-1-0.9c-0.2-0.4-0.4-0.8-0.4-1.3c0-0.7,0.3-1.4,0.8-1.8c0.8-0.5,1.7-0.7,2.6-0.6h1.9c0-0.4-0.1-0.9-0.5-1.2
		c-0.4-0.3-0.9-0.5-1.4-0.4c-0.4,0-0.9,0.1-1.3,0.2c-0.4,0.1-0.7,0.3-1.1,0.5l-0.8-1.6c0.5-0.3,1-0.6,1.6-0.7
		c0.6-0.2,1.3-0.3,1.9-0.3C595.4,102.5,596.4,102.8,597.2,103.5z M595.2,109c0.3-0.2,0.5-0.5,0.7-0.8v-0.8h-1.6
		c-1,0-1.4,0.3-1.4,0.9c0,0.3,0.1,0.5,0.4,0.7c0.3,0.2,0.6,0.3,1,0.3C594.6,109.3,594.9,109.2,595.2,109L595.2,109z"/>
	<path class="st2" d="M612.8,99.6v11.1h-2.2v-0.9c-0.6,0.7-1.6,1.1-2.5,1.1c-0.7,0-1.4-0.2-2.1-0.5c-0.6-0.3-1.1-0.8-1.4-1.5
		c-0.7-1.4-0.7-3,0-4.4c0.3-0.6,0.8-1.1,1.4-1.5c0.6-0.3,1.3-0.5,2.1-0.5c0.9,0,1.8,0.3,2.4,1v-3.9L612.8,99.6z M609.9,108.4
		c0.8-0.9,0.8-2.3,0-3.3c-0.8-0.8-2.1-0.8-3,0c-0.8,0.9-0.8,2.3,0,3.3C607.8,109.2,609.1,109.2,609.9,108.4z"/>
	<path class="st2" d="M622.8,107.4h-6.1c0.1,0.5,0.4,0.9,0.8,1.2c0.5,0.3,1,0.5,1.5,0.4c0.4,0,0.8-0.1,1.1-0.2
		c0.3-0.1,0.6-0.3,0.9-0.6l1.2,1.3c-0.9,0.9-2.1,1.4-3.3,1.3c-0.8,0-1.7-0.2-2.4-0.5c-0.7-0.3-1.2-0.8-1.6-1.5
		c-0.4-0.6-0.6-1.4-0.6-2.1c0-0.8,0.2-1.5,0.6-2.1c0.4-0.6,0.9-1.1,1.5-1.5c1.4-0.7,3-0.7,4.3,0c0.6,0.3,1.2,0.8,1.5,1.5
		c0.4,0.7,0.6,1.4,0.5,2.2C622.9,106.8,622.9,107,622.8,107.4z M617.4,104.8c-0.4,0.3-0.6,0.8-0.7,1.2h4c-0.1-0.5-0.3-0.9-0.7-1.2
		c-0.4-0.3-0.8-0.5-1.3-0.5C618.2,104.3,617.7,104.5,617.4,104.8L617.4,104.8z"/>
	<path class="st2" d="M552.1,118.3h2.4v8.5h5.3v2h-7.7L552.1,118.3z"/>
	<path class="st2" d="M567.2,121.5c0.7,0.7,1.1,1.7,1,2.7v4.6H566v-1c-0.5,0.8-1.5,1.2-2.5,1.1c-0.6,0-1.1-0.1-1.6-0.3
		c-0.4-0.2-0.8-0.5-1-0.9c-0.2-0.4-0.4-0.8-0.4-1.3c0-0.7,0.3-1.4,0.8-1.8c0.8-0.5,1.7-0.7,2.6-0.6h1.9c0-0.4-0.1-0.9-0.5-1.2
		c-0.4-0.3-0.9-0.5-1.4-0.4c-0.4,0-0.9,0.1-1.3,0.2c-0.4,0.1-0.7,0.3-1.1,0.5l-0.8-1.6c0.5-0.3,1-0.6,1.6-0.7
		c0.6-0.2,1.3-0.3,1.9-0.3C565.4,120.5,566.4,120.8,567.2,121.5z M565.2,127c0.3-0.2,0.5-0.5,0.7-0.8v-0.8h-1.6
		c-1,0-1.4,0.3-1.4,0.9c0,0.3,0.1,0.5,0.4,0.7c0.3,0.2,0.6,0.3,1,0.3C564.5,127.3,564.9,127.2,565.2,127L565.2,127z"/>
	<path class="st2" d="M584.3,128.8l0-6.3l-3.1,5.2h-1.1l-3.1-5.1v6.2h-2.3v-10.5h2l3.9,6.5l3.9-6.5h2l0,10.5L584.3,128.8z"/>
	<path class="st2" d="M595,121.5c0.7,0.7,1.1,1.7,1,2.7v4.6h-2.2v-1c-0.5,0.8-1.5,1.2-2.5,1.1c-0.6,0-1.1-0.1-1.6-0.3
		c-0.4-0.2-0.8-0.5-1-0.9c-0.2-0.4-0.4-0.8-0.4-1.3c0-0.7,0.3-1.4,0.8-1.8c0.8-0.5,1.7-0.7,2.6-0.6h1.9c0-0.4-0.1-0.9-0.5-1.2
		c-0.4-0.3-0.9-0.5-1.4-0.4c-0.4,0-0.9,0.1-1.3,0.2c-0.4,0.1-0.7,0.3-1.1,0.5l-0.8-1.6c0.5-0.3,1-0.6,1.6-0.7
		c0.6-0.2,1.3-0.3,1.9-0.3C593.2,120.5,594.2,120.8,595,121.5z M593.1,127c0.3-0.2,0.5-0.5,0.7-0.8v-0.8h-1.6c-1,0-1.4,0.3-1.4,0.9
		c0,0.3,0.1,0.5,0.4,0.7c0.3,0.2,0.6,0.3,1,0.3C592.4,127.3,592.7,127.2,593.1,127z"/>
	<path class="st2" d="M603.4,128.4c-0.3,0.2-0.5,0.3-0.8,0.4c-0.3,0.1-0.7,0.1-1.1,0.1c-0.8,0.1-1.6-0.2-2.2-0.7
		c-0.6-0.6-0.8-1.4-0.8-2.2v-3.3h-1.2v-1.8h1.2v-2h2.3v2h2v1.8h-2v3.3c0,0.3,0.1,0.6,0.3,0.8c0.2,0.2,0.5,0.3,0.7,0.3
		c0.3,0,0.7-0.1,0.9-0.3L603.4,128.4z"/>
	<path class="st2" d="M610.8,121.5c0.7,0.7,1.1,1.7,1,2.7v4.6h-2.2v-1c-0.5,0.8-1.5,1.2-2.5,1.1c-0.6,0-1.1-0.1-1.6-0.3
		c-0.4-0.2-0.8-0.5-1-0.9c-0.2-0.4-0.4-0.8-0.4-1.3c0-0.7,0.3-1.4,0.8-1.8c0.8-0.5,1.7-0.7,2.6-0.6h1.9c0-0.4-0.1-0.9-0.5-1.2
		c-0.4-0.3-0.9-0.5-1.4-0.4c-0.4,0-0.9,0.1-1.3,0.2c-0.4,0.1-0.7,0.3-1.1,0.5l-0.8-1.6c0.5-0.3,1-0.6,1.6-0.7
		c0.6-0.2,1.3-0.3,1.9-0.3C609,120.5,610,120.8,610.8,121.5z M608.8,127c0.3-0.2,0.5-0.5,0.7-0.8v-0.8h-1.6c-1,0-1.4,0.3-1.4,0.9
		c0,0.3,0.1,0.5,0.4,0.7c0.3,0.2,0.6,0.3,1,0.3C608.1,127.3,608.5,127.2,608.8,127z"/>
	<path class="st2" d="M833.2,238.3h2.4v8.5h5.3v2h-7.7L833.2,238.3z"/>
	<path class="st2" d="M848.3,241.5c0.7,0.7,1.1,1.7,1,2.7v4.6h-2.2v-1c-0.5,0.8-1.5,1.2-2.5,1.1c-0.6,0-1.1-0.1-1.6-0.3
		c-0.4-0.2-0.8-0.5-1-0.9c-0.2-0.4-0.4-0.8-0.4-1.3c0-0.7,0.3-1.4,0.8-1.8c0.8-0.5,1.7-0.7,2.6-0.6h1.9c0-0.4-0.1-0.9-0.5-1.2
		c-0.4-0.3-0.9-0.5-1.4-0.4c-0.4,0-0.9,0.1-1.3,0.2c-0.4,0.1-0.7,0.3-1.1,0.5l-0.8-1.6c0.5-0.3,1-0.6,1.6-0.7
		c0.6-0.2,1.3-0.3,1.9-0.3C846.5,240.5,847.5,240.8,848.3,241.5z M846.3,247.1c0.3-0.2,0.5-0.5,0.7-0.8v-0.8h-1.6
		c-1,0-1.4,0.3-1.4,0.9c0,0.3,0.1,0.5,0.4,0.7c0.3,0.2,0.6,0.3,1,0.3C845.7,247.3,846,247.2,846.3,247.1L846.3,247.1z"/>
	<path class="st2" d="M832.3,266.8l0-6.3l-3.1,5.2h-1.1l-3.1-5.1v6.2h-2.3v-10.5h2l3.9,6.5l3.9-6.5h2l0,10.5L832.3,266.8z"/>
	<path class="st2" d="M843,259.5c0.7,0.7,1.1,1.7,1,2.7v4.6h-2.2v-1c-0.5,0.8-1.5,1.2-2.5,1.1c-0.6,0-1.1-0.1-1.6-0.3
		c-0.4-0.2-0.8-0.5-1-0.9c-0.2-0.4-0.4-0.8-0.4-1.3c0-0.7,0.3-1.4,0.8-1.8c0.8-0.5,1.7-0.7,2.6-0.6h1.9c0-0.4-0.1-0.9-0.5-1.2
		c-0.4-0.3-0.9-0.5-1.4-0.4c-0.4,0-0.9,0.1-1.3,0.2c-0.4,0.1-0.7,0.3-1.1,0.5l-0.8-1.6c0.5-0.3,1-0.6,1.6-0.7
		c0.6-0.2,1.3-0.3,1.9-0.3C841.2,258.5,842.2,258.8,843,259.5z M841,265.1c0.3-0.2,0.5-0.5,0.7-0.8v-0.8h-1.6c-1,0-1.4,0.3-1.4,0.9
		c0,0.3,0.1,0.5,0.4,0.7c0.3,0.2,0.6,0.3,1,0.3C840.4,265.3,840.7,265.2,841,265.1L841,265.1z"/>
	<path class="st2" d="M851.4,266.4c-0.3,0.2-0.5,0.3-0.8,0.4c-0.3,0.1-0.7,0.1-1.1,0.1c-0.8,0.1-1.6-0.2-2.2-0.7
		c-0.6-0.6-0.8-1.4-0.8-2.2v-3.3h-1.2v-1.8h1.2v-2h2.3v2h2v1.8h-2v3.3c0,0.3,0.1,0.6,0.3,0.8c0.2,0.2,0.5,0.3,0.7,0.3
		c0.3,0,0.7-0.1,0.9-0.3L851.4,266.4z"/>
	<path class="st2" d="M858.8,259.5c0.7,0.7,1.1,1.7,1,2.7v4.6h-2.2v-1c-0.5,0.8-1.5,1.2-2.5,1.1c-0.6,0-1.1-0.1-1.6-0.3
		c-0.4-0.2-0.8-0.5-1-0.9c-0.2-0.4-0.4-0.8-0.4-1.3c0-0.7,0.3-1.4,0.8-1.8c0.8-0.5,1.7-0.7,2.6-0.6h1.9c0-0.4-0.1-0.9-0.5-1.2
		c-0.4-0.3-0.9-0.5-1.4-0.4c-0.4,0-0.9,0.1-1.3,0.2c-0.4,0.1-0.7,0.3-1.1,0.5l-0.8-1.6c0.5-0.3,1-0.6,1.6-0.7
		c0.6-0.2,1.3-0.3,1.9-0.3C857,258.5,858,258.8,858.8,259.5z M856.8,265.1c0.3-0.2,0.5-0.5,0.7-0.8v-0.8h-1.6c-1,0-1.4,0.3-1.4,0.9
		c0,0.3,0.1,0.5,0.4,0.7c0.3,0.2,0.6,0.3,1,0.3C856.1,265.3,856.5,265.2,856.8,265.1L856.8,265.1z"/>
	<path class="st2" d="M813,580.4c0.5-0.5,1.1-0.9,1.7-1.1c1.4-0.3,2.9,0.1,3.9,1.2c0.4,0.5,0.7,1.2,0.8,1.9c0.1,0.8,0,1.7-0.3,2.4
		l-0.6,2l2.8,0.9l-0.7,2.3l-10-3.1l1.3-4.3C812.1,581.7,812.5,581,813,580.4z M817.2,582.6c-0.5-0.9-1.6-1.3-2.5-0.8c0,0,0,0,0,0
		c-0.5,0.4-0.8,0.9-0.9,1.5l-0.6,1.9l3.5,1.1l0.6-1.9C817.4,583.8,817.4,583.2,817.2,582.6L817.2,582.6z"/>
	<path class="st2" d="M813.1,576.4l0.7-2.2l10.6,3.3l-0.7,2.2L813.1,576.4z"/>
	<path class="st2" d="M819.9,567.3c0.9-0.5,1.9-0.5,2.9-0.2l4.4,1.4l-0.6,2.1l-1-0.3c0.6,0.8,0.7,1.8,0.4,2.7
		c-0.1,0.5-0.4,1-0.8,1.4c-0.3,0.4-0.7,0.6-1.1,0.7c-0.4,0.1-0.9,0.1-1.3,0c-0.7-0.2-1.2-0.7-1.4-1.3c-0.2-0.9-0.2-1.8,0.2-2.7
		l0.5-1.8c-0.4-0.2-0.9-0.1-1.3,0.1c-0.4,0.3-0.7,0.7-0.8,1.2c-0.1,0.4-0.2,0.8-0.2,1.3c0,0.4,0.1,0.8,0.2,1.2l-1.8,0.3
		c-0.2-0.6-0.2-1.1-0.2-1.7c0-0.6,0.1-1.3,0.3-1.9C818.4,568.8,819,567.9,819.9,567.3z M824.6,570.9c-0.1-0.4-0.3-0.7-0.6-0.9
		l-0.8-0.2l-0.5,1.5c-0.3,0.9-0.1,1.5,0.5,1.7c0.3,0.1,0.6,0,0.8-0.1c0.3-0.2,0.5-0.5,0.5-0.8C824.7,571.6,824.7,571.2,824.6,570.9
		L824.6,570.9z"/>
	<path class="st2" d="M822.4,556.6l7.1,6c0.7,0.5,1.2,1.1,1.5,1.9c0.2,0.7,0.2,1.4,0,2.1c-0.1,0.4-0.3,0.8-0.6,1.1
		c-0.2,0.3-0.5,0.6-0.8,0.8l-1.3-1.3c0.2-0.1,0.4-0.3,0.5-0.5c0.1-0.2,0.3-0.4,0.3-0.6c0.1-0.3,0.1-0.5,0-0.8
		c-0.1-0.3-0.3-0.5-0.6-0.7l-0.1-0.1l-8.8,0.9l0.7-2.3l5.9-0.6l-4.6-3.8L822.4,556.6z"/>
	<path class="st2" d="M825.1,550.3c0.9-0.5,1.9-0.5,2.9-0.2l4.4,1.4l-0.6,2.1l-1-0.3c0.6,0.8,0.7,1.8,0.4,2.7
		c-0.2,0.5-0.4,1-0.8,1.4c-0.3,0.4-0.7,0.6-1.1,0.7c-0.4,0.1-0.9,0.1-1.3,0c-0.7-0.2-1.2-0.7-1.4-1.3c-0.2-0.9-0.2-1.8,0.2-2.7
		l0.5-1.8c-0.4-0.2-0.9-0.1-1.3,0.1c-0.4,0.3-0.7,0.7-0.8,1.2c-0.1,0.4-0.2,0.8-0.2,1.3c0,0.4,0.1,0.8,0.2,1.2l-1.8,0.3
		c-0.2-0.6-0.2-1.1-0.2-1.7c0-0.6,0.1-1.3,0.3-1.9C823.7,551.8,824.3,550.9,825.1,550.3z M829.8,553.8c-0.1-0.4-0.3-0.7-0.6-0.9
		l-0.8-0.2l-0.5,1.5c-0.3,0.9-0.1,1.5,0.5,1.7c0.3,0.1,0.6,0,0.8-0.1c0.3-0.2,0.5-0.5,0.5-0.8C829.9,554.6,829.9,554.2,829.8,553.8
		L829.8,553.8z"/>
	<path class="st2" d="M826,534.3l10.6,3.3l-0.7,2.1l-0.9-0.3c0.5,0.8,0.6,1.8,0.3,2.7c-0.2,0.7-0.6,1.3-1.1,1.8
		c-0.5,0.5-1.1,0.8-1.8,1c-1.5,0.3-3.1-0.2-4.2-1.3c-0.5-0.5-0.8-1.1-1-1.8c-0.1-0.7-0.1-1.4,0.1-2.1c0.2-0.9,0.8-1.6,1.6-2
		l-3.7-1.2L826,534.3z M833.5,539.6c-0.7-1-2-1.4-3.1-1c-0.5,0.2-0.9,0.7-1,1.2c-0.2,0.5-0.1,1.1,0.1,1.6c0.7,1,2,1.4,3.1,1
		c0.5-0.3,0.9-0.7,1-1.2C833.9,540.7,833.8,540.1,833.5,539.6L833.5,539.6z"/>
	<path class="st2" d="M836.4,527l-1.8,5.8c0.5,0,1-0.1,1.4-0.4c0.4-0.3,0.7-0.8,0.9-1.3c0.1-0.4,0.2-0.7,0.1-1.1
		c0-0.4-0.1-0.7-0.3-1l1.7-0.8c0.6,1.1,0.7,2.4,0.3,3.6c-0.2,0.8-0.6,1.5-1.2,2.2c-0.5,0.5-1.2,0.9-1.9,1.1
		c-0.7,0.2-1.5,0.1-2.2-0.1c-0.7-0.2-1.4-0.6-1.9-1.2c-0.5-0.5-0.8-1.2-1-1.9c-0.3-1.5,0.2-3.1,1.3-4.2c0.5-0.5,1.1-0.9,1.8-1
		c0.8-0.2,1.5-0.1,2.3,0.1C835.8,526.8,836,526.8,836.4,527z M832.3,531.5c0.2,0.4,0.5,0.8,1,1l1.2-3.8c-0.5-0.1-1,0-1.4,0.3
		c-0.4,0.3-0.7,0.7-0.8,1.1C832.1,530.5,832.1,531,832.3,531.5L832.3,531.5z"/>
	<path class="st2" d="M830.7,519.1l0.7-2.2l10.6,3.3l-0.7,2.2L830.7,519.1z"/>
	<path class="st2" d="M842.7,516.5c-0.5,0.5-1.2,0.9-1.9,1.1c-1.5,0.3-3.1-0.1-4.1-1.3c-0.5-0.5-0.8-1.2-0.9-1.9
		c-0.3-1.6,0.2-3.2,1.3-4.4c0.5-0.5,1.2-0.9,1.9-1.1c1.5-0.3,3.1,0.1,4.1,1.3c0.5,0.5,0.8,1.2,0.9,1.9c0.1,0.8,0.1,1.6-0.2,2.3
		C843.7,515.2,843.3,515.9,842.7,516.5z M841.9,512.3c-0.7-1-2-1.4-3.1-1c-0.5,0.2-0.9,0.7-1,1.2c-0.2,0.5-0.1,1.1,0.1,1.6
		c0.7,1,2,1.4,3.1,1c0.5-0.3,0.9-0.7,1-1.2C842.3,513.3,842.2,512.8,841.9,512.3L841.9,512.3z"/>
	<path class="st2" d="M845.7,507.9c-0.3,0.5-0.6,0.9-1,1.3l-1.4-1.2c0.4-0.3,0.7-0.7,0.9-1.1c0.3-0.4,0.5-0.9,0.6-1.4
		c0.3-0.9,0.2-1.5-0.3-1.6c-0.2-0.1-0.5,0-0.6,0.2c-0.2,0.3-0.4,0.7-0.6,1.1c-0.2,0.5-0.5,1-0.8,1.5c-0.2,0.4-0.6,0.7-1,0.9
		c-0.5,0.2-1,0.2-1.5,0c-0.5-0.1-0.9-0.4-1.2-0.8c-0.3-0.4-0.5-1-0.5-1.5c0-0.7,0.1-1.4,0.3-2c0.2-0.5,0.4-1.1,0.7-1.6
		c0.2-0.4,0.5-0.8,0.9-1.2l1.4,1.2c-0.6,0.6-1,1.3-1.3,2c-0.1,0.4-0.2,0.8-0.1,1.1c0,0.2,0.2,0.4,0.4,0.5c0.2,0.1,0.5,0,0.6-0.2
		c0.3-0.4,0.5-0.7,0.7-1.1c0.2-0.5,0.5-1,0.8-1.4c0.2-0.4,0.6-0.7,1-0.8c0.5-0.2,1-0.2,1.5,0c0.5,0.1,0.9,0.4,1.1,0.8
		c0.3,0.5,0.5,1,0.5,1.5c0,0.7-0.1,1.4-0.3,2.1C846.3,506.8,846,507.4,845.7,507.9z"/>
	<path class="st2" d="M839.2,493.8l0.7-2.3l8.1,2.5l1.5-5l1.9,0.6l-2.3,7.4L839.2,493.8z"/>
	<path class="st2" d="M851.9,486.8c-0.5,0.5-1.2,0.9-1.9,1.1c-1.5,0.3-3.1-0.1-4.1-1.3c-0.5-0.5-0.8-1.2-0.9-1.9
		c-0.3-1.6,0.2-3.2,1.3-4.4c0.5-0.5,1.2-0.9,1.9-1.1c1.5-0.3,3.1,0.1,4.1,1.3c0.5,0.5,0.8,1.2,0.9,1.9
		C853.5,484,853,485.6,851.9,486.8L851.9,486.8z M851.1,482.6c-0.7-1-2-1.4-3.1-1c-0.5,0.2-0.9,0.7-1,1.2c-0.2,0.5-0.1,1.1,0.1,1.6
		c0.7,1,2,1.4,3.1,1c0.5-0.3,0.9-0.7,1-1.2C851.4,483.7,851.3,483.1,851.1,482.6L851.1,482.6z"/>
	<path class="st2" d="M854.8,477.4c-0.5,0.5-1.2,0.9-1.9,1.1c-2.2,0.6-4.4-0.7-5-2.9c0-0.1-0.1-0.2-0.1-0.3
		c-0.1-0.8-0.1-1.6,0.2-2.4c0.2-0.7,0.6-1.4,1.2-2c0.5-0.5,1.2-0.8,1.9-0.9l0.4,2c-0.8,0.1-1.4,0.7-1.6,1.4
		c-0.2,0.5-0.1,1.1,0.1,1.6c0.7,1,2,1.4,3.1,1c0.5-0.3,0.9-0.7,1-1.3c0.2-0.7,0-1.5-0.5-2.1l1.5-1.4c0.5,0.5,0.9,1.1,1,1.8
		c0.2,0.8,0.1,1.6-0.1,2.3C855.7,476.1,855.3,476.8,854.8,477.4z"/>
	<path class="st2" d="M857.3,469c-0.5,0.5-1.2,0.9-1.9,1.1c-1.5,0.3-3.1-0.1-4.1-1.3c-0.5-0.5-0.8-1.2-0.9-1.9
		c-0.3-1.6,0.2-3.2,1.3-4.4c0.5-0.5,1.2-0.9,1.9-1.1c1.5-0.3,3.1,0.1,4.1,1.3c0.5,0.5,0.8,1.2,0.9,1.9c0.1,0.8,0.1,1.6-0.2,2.3
		C858.3,467.8,857.9,468.5,857.3,469z M856.5,464.9c-0.7-1-2-1.4-3.1-1c-0.5,0.2-0.9,0.7-1,1.2c-0.2,0.5-0.1,1.1,0.1,1.6
		c0.7,1,2,1.4,3.1,1c0.5-0.3,0.9-0.7,1-1.2C856.9,465.9,856.8,465.3,856.5,464.9L856.5,464.9z"/>
	<path class="st2" d="M860.3,460.5c-0.3,0.5-0.6,0.9-1,1.3l-1.4-1.2c0.4-0.3,0.7-0.7,0.9-1.1c0.3-0.4,0.5-0.9,0.6-1.4
		c0.3-0.9,0.2-1.5-0.3-1.6c-0.2-0.1-0.5,0-0.6,0.2c-0.2,0.3-0.4,0.7-0.6,1.1c-0.2,0.5-0.5,1-0.8,1.5c-0.2,0.4-0.6,0.7-1,0.9
		c-0.5,0.2-1,0.2-1.5,0c-0.5-0.1-0.9-0.4-1.2-0.8c-0.3-0.4-0.5-1-0.5-1.5c0-0.7,0.1-1.4,0.3-2c0.2-0.5,0.4-1.1,0.7-1.6
		c0.2-0.4,0.5-0.8,0.9-1.2l1.4,1.2c-0.6,0.6-1,1.3-1.3,2c-0.1,0.4-0.2,0.8-0.1,1.1c0,0.2,0.2,0.4,0.4,0.5c0.2,0.1,0.5,0,0.6-0.2
		c0.3-0.4,0.5-0.7,0.7-1.1c0.2-0.5,0.5-1,0.8-1.4c0.2-0.4,0.6-0.7,1-0.8c0.5-0.2,1-0.2,1.5,0c0.5,0.1,0.9,0.4,1.1,0.8
		c0.3,0.5,0.5,1,0.5,1.5c0,0.7-0.1,1.4-0.3,2.1C860.9,459.3,860.6,459.9,860.3,460.5z"/>
	<path class="st2" d="M386.2,1034.6l1.9,0.6l-2.4,7.8l-10-3.1l2.3-7.6l1.9,0.6l-1.6,5.3l2.2,0.7l1.4-4.7l1.8,0.6l-1.4,4.7l2.3,0.7
		L386.2,1034.6z"/>
	<path class="st2" d="M377.9,1030.3l0.7-2.2l10.6,3.3l-0.7,2.2L377.9,1030.3z"/>
	<path class="st2" d="M391.1,1017.7l-1.4,4.7l1.9,1.6l-0.7,2.4l-8.7-7.6l0.7-2.3l11.4-1.4l-0.8,2.4L391.1,1017.7z M389.1,1017.9
		l-4.3,0.4l3.4,2.8L389.1,1017.9z"/>
	<path class="st2" d="M394.6,1012.6c-1.6,1.6-4.1,1.6-5.8,0.1c-0.6-0.6-1-1.4-1.2-2.2c-0.1-0.8-0.1-1.6,0.2-2.4
		c0.2-0.7,0.6-1.4,1.2-2c0.5-0.5,1.2-0.8,1.9-0.9l0.4,2c-0.8,0.1-1.4,0.7-1.6,1.4c-0.2,0.5-0.1,1.1,0.1,1.6c0.7,1,2,1.4,3.1,1
		c0.5-0.3,0.9-0.7,1-1.3c0.2-0.7,0-1.5-0.5-2.1l1.5-1.4c0.5,0.5,0.9,1.1,1,1.8c0.2,0.8,0.1,1.6-0.1,2.3
		C395.5,1011.3,395.1,1012,394.6,1012.6z"/>
	<path class="st2" d="M396.1,997.4l-1.8,5.8c0.5,0,1-0.1,1.4-0.4c0.4-0.3,0.7-0.8,0.9-1.3c0.1-0.4,0.2-0.7,0.1-1.1
		c0-0.4-0.1-0.7-0.3-1l1.7-0.8c0.6,1.1,0.7,2.4,0.3,3.6c-0.2,0.8-0.6,1.5-1.2,2.2c-0.5,0.5-1.2,0.9-1.9,1.1
		c-0.7,0.2-1.5,0.1-2.2-0.1c-0.7-0.2-1.4-0.6-1.9-1.2c-0.5-0.5-0.8-1.2-1-1.9c-0.3-1.5,0.2-3.1,1.3-4.2c0.5-0.5,1.1-0.9,1.8-1
		c0.8-0.2,1.5-0.1,2.3,0.1C395.6,997.1,395.8,997.2,396.1,997.4z M392.1,1001.8c0.2,0.4,0.5,0.8,1,1l1.2-3.8c-0.5-0.1-1,0-1.4,0.3
		c-0.4,0.3-0.7,0.7-0.8,1.1C391.9,1000.9,391.9,1001.4,392.1,1001.8L392.1,1001.8z"/>
	<path class="st2" d="M394.5,986.6l10.5,3.2l-0.7,2.2l-3.6-1.1c0.5,0.8,0.5,1.7,0.2,2.6c-0.2,0.7-0.6,1.3-1.1,1.8
		c-0.5,0.5-1.1,0.8-1.8,1c-1.5,0.3-3.1-0.2-4.2-1.3c-0.5-0.5-0.8-1.1-1-1.8c-0.1-0.7-0.1-1.4,0.1-2.1c0.2-0.9,0.9-1.7,1.7-2.1
		l-0.9-0.3L394.5,986.6z M399.1,991c-0.7-1-2-1.4-3.1-1c-1,0.5-1.4,1.8-0.9,2.8c0.7,1,2,1.4,3.1,1c0.5-0.3,0.9-0.7,1-1.2
		C399.4,992.1,399.4,991.5,399.1,991z"/>
	<path class="st2" d="M397.6,976.8l7.7,2.4l-0.7,2.1l-0.9-0.3c0.2,0.4,0.4,0.8,0.4,1.3c0,0.5,0,1-0.1,1.4c-0.2,0.9-0.8,1.7-1.6,2.1
		c-0.9,0.4-1.9,0.5-2.9,0.1l-4.4-1.3l0.7-2.2l4,1.2c1.2,0.4,2,0.1,2.3-1c0.2-0.5,0.1-1-0.1-1.5c-0.3-0.5-0.8-0.8-1.4-1l-3.8-1.2
		L397.6,976.8z"/>
	<path class="st2" d="M396.8,974.2c-0.6,0.4-1.4,0.1-1.7-0.5c0,0,0-0.1,0-0.1c-0.2-0.4-0.2-0.7,0-1.1c0.1-0.4,0.3-0.7,0.7-0.9
		c0.3-0.2,0.7-0.2,1-0.1c0.4,0.1,0.6,0.3,0.8,0.7c0.2,0.3,0.2,0.8,0.1,1.1C397.4,973.6,397.1,974,396.8,974.2z M398.2,974.7l0.7-2.2
		l7.7,2.4l-0.7,2.2L398.2,974.7z"/>
	<path class="st2" d="M397.8,965.2l0.7-2.4l1.3,3.2l-0.5,1.7L397.8,965.2z M407.3,971.2c-0.5,0.5-1.2,0.9-1.9,1.1
		c-1.5,0.3-3.1-0.1-4.1-1.3c-0.5-0.5-0.8-1.2-0.9-1.9c-0.3-1.6,0.2-3.2,1.3-4.4c0.5-0.5,1.2-0.9,1.9-1.1c1.5-0.3,3.1,0.1,4.1,1.3
		c0.5,0.5,0.8,1.2,0.9,1.9c0.1,0.8,0.1,1.6-0.2,2.3C408.3,969.9,407.9,970.6,407.3,971.2L407.3,971.2z M406.5,967
		c-0.7-1-2-1.4-3.1-1c-0.5,0.2-0.9,0.7-1,1.2c-0.2,0.5-0.1,1.1,0.1,1.6c0.7,1,2,1.4,3.1,1c0.5-0.3,0.9-0.7,1-1.2
		C406.8,968,406.8,967.5,406.5,967L406.5,967z"/>
	<path class="st2" d="M405.3,954.2c0.9-0.4,1.9-0.5,2.8-0.1l4.4,1.4l-0.7,2.2l-4.1-1.3c-0.5-0.2-1-0.2-1.5,0c-0.4,0.2-0.7,0.6-0.8,1
		c-0.2,0.5-0.1,1,0.1,1.5c0.3,0.5,0.8,0.8,1.4,1l3.8,1.2l-0.7,2.2l-7.7-2.4l0.7-2.1l0.9,0.3c-0.2-0.4-0.4-0.9-0.4-1.3
		c0-0.5,0-1,0.2-1.5C404,955.4,404.5,954.7,405.3,954.2z"/>
	<path class="st2" d="M409.4,948.2l1.2-4.1l1.8,0.6l-1.2,4.1L409.4,948.2z"/>
	<path class="st2" d="M407.4,936.6l0.7-2.3l8.1,2.5l1.5-5l1.9,0.6l-2.3,7.4L407.4,936.6z"/>
	<path class="st2" d="M420.1,929.6c-0.5,0.5-1.2,0.9-1.9,1.1c-1.5,0.3-3.1-0.1-4.1-1.3c-0.5-0.5-0.8-1.2-0.9-1.9
		c-0.3-1.6,0.2-3.2,1.3-4.4c0.5-0.5,1.2-0.9,1.9-1.1c1.5-0.3,3.1,0.1,4.1,1.3c0.5,0.5,0.8,1.2,0.9,1.9
		C421.7,926.8,421.2,928.4,420.1,929.6L420.1,929.6z M419.3,925.4c-0.7-1-2-1.4-3.1-1c-0.5,0.2-0.9,0.7-1,1.2
		c-0.2,0.5-0.1,1.1,0.1,1.6c0.7,1,2,1.4,3.1,1c0.5-0.3,0.9-0.7,1-1.2C419.6,926.5,419.6,925.9,419.3,925.4L419.3,925.4z"/>
	<path class="st2" d="M423,921.1c-0.3,0.5-0.6,0.9-1,1.3l-1.4-1.2c0.4-0.3,0.7-0.7,0.9-1.1c0.3-0.4,0.5-0.9,0.6-1.4
		c0.3-0.9,0.2-1.5-0.3-1.6c-0.2-0.1-0.5,0-0.6,0.2c-0.2,0.3-0.4,0.7-0.6,1.1c-0.2,0.5-0.5,1-0.8,1.5c-0.2,0.4-0.6,0.7-1,0.9
		c-0.5,0.2-1,0.2-1.5,0c-0.5-0.1-0.9-0.4-1.2-0.8c-0.3-0.4-0.5-1-0.5-1.5c0-0.7,0.1-1.4,0.3-2c0.2-0.5,0.4-1.1,0.7-1.6
		c0.2-0.4,0.5-0.8,0.9-1.2l1.4,1.2c-0.6,0.6-1,1.3-1.3,2c-0.1,0.4-0.2,0.8-0.1,1.1c0,0.2,0.2,0.4,0.4,0.5c0.2,0.1,0.5,0,0.6-0.2
		c0.3-0.4,0.5-0.7,0.7-1.1c0.2-0.5,0.5-1,0.8-1.4c0.2-0.4,0.6-0.7,1-0.8c0.5-0.2,1-0.2,1.5,0c0.5,0.1,0.9,0.4,1.1,0.8
		c0.3,0.5,0.5,1,0.5,1.5c0,0.7-0.1,1.4-0.3,2.1C423.6,919.9,423.4,920.5,423,921.1z"/>
	<path class="st2" d="M419.4,897.7l10,3.1l-0.6,1.9l-7.6,3.1l6.1,1.9l-0.7,2.3l-10-3.1l0.6-1.9l7.6-3.1l-6.1-1.9L419.4,897.7z"/>
	<path class="st2" d="M420.5,891.3l0.7-2.4l1.3,3.2l-0.5,1.7L420.5,891.3z M424.9,890.6c0.9-0.5,1.9-0.5,2.9-0.2l4.4,1.4l-0.6,2.1
		l-1-0.3c0.6,0.8,0.7,1.8,0.4,2.7c-0.2,0.5-0.4,1-0.8,1.4c-0.3,0.4-0.7,0.6-1.1,0.7c-0.4,0.1-0.9,0.1-1.3,0
		c-0.7-0.2-1.2-0.7-1.4-1.3c-0.2-0.9-0.2-1.8,0.2-2.7l0.5-1.8c-0.4-0.2-0.9-0.1-1.3,0.1c-0.4,0.3-0.7,0.7-0.8,1.2
		c-0.1,0.4-0.2,0.8-0.2,1.3c0,0.4,0.1,0.8,0.2,1.2l-1.8,0.3c-0.2-0.6-0.2-1.1-0.2-1.7c0-0.6,0.1-1.3,0.3-1.9
		C423.4,892,424.1,891.2,424.9,890.6L424.9,890.6z M429.6,894.1c-0.1-0.4-0.3-0.7-0.6-0.9l-0.8-0.2l-0.5,1.5
		c-0.3,0.9-0.1,1.5,0.5,1.7c0.3,0.1,0.6,0,0.8-0.1c0.3-0.2,0.5-0.5,0.5-0.8C429.7,894.9,429.7,894.5,429.6,894.1L429.6,894.1z"/>
	<path class="st2" d="M427.5,879.6l7.7,2.4l-0.7,2.1l-0.9-0.3c0.2,0.4,0.4,0.8,0.4,1.3c0,0.5,0,1-0.1,1.4c-0.2,0.9-0.8,1.7-1.6,2.1
		c-0.9,0.4-1.9,0.5-2.9,0.1l-4.4-1.3l0.7-2.2l4,1.2c1.2,0.4,2,0.1,2.3-1c0.2-0.5,0.1-1-0.1-1.5c-0.3-0.5-0.8-0.8-1.4-1l-3.8-1.2
		L427.5,879.6z"/>
	<path class="st2" d="M429,875.1l0.6-2l1.7,0.5l-0.6,1.9l5.8,1.8l-0.7,2.2l-5.8-1.8l-0.4,1.2l-1.7-0.5l0.4-1.2l-0.3-0.1
		c-0.8-0.2-1.5-0.7-1.9-1.4c-0.4-0.8-0.4-1.6-0.1-2.4c0.1-0.3,0.2-0.6,0.4-0.9c0.1-0.2,0.3-0.5,0.5-0.7l1.4,1.1
		c-0.3,0.2-0.5,0.5-0.5,0.8c-0.2,0.7,0.1,1.1,0.8,1.4L429,875.1z"/>
	<path class="st2" d="M431.3,867.6c0-0.6,0-1.1,0.2-1.7l2.1,0.6c-0.1,0.2-0.2,0.4-0.2,0.5c-0.2,0.5-0.2,1.1,0.1,1.7
		c0.3,0.5,0.8,0.9,1.4,1l3.6,1.1l-0.7,2.2l-7.7-2.4l0.7-2.1l1,0.3C431.6,868.6,431.4,868.1,431.3,867.6z"/>
	<path class="st2" d="M434.6,859.1c0.9-0.5,1.9-0.5,2.9-0.2l4.4,1.4l-0.6,2.1l-1-0.3c0.6,0.8,0.7,1.8,0.4,2.7
		c-0.2,0.5-0.4,1-0.8,1.4c-0.3,0.4-0.7,0.6-1.1,0.7c-0.4,0.1-0.9,0.1-1.3,0c-0.7-0.2-1.2-0.7-1.4-1.3c-0.2-0.9-0.2-1.8,0.2-2.7
		l0.5-1.8c-0.4-0.2-0.9-0.1-1.3,0.1c-0.4,0.3-0.7,0.7-0.8,1.2c-0.1,0.4-0.2,0.8-0.2,1.3c0,0.4,0.1,0.8,0.2,1.2l-1.8,0.3
		c-0.2-0.6-0.2-1.1-0.2-1.7c0-0.6,0.1-1.3,0.3-1.9C433.1,860.6,433.7,859.7,434.6,859.1z M439.3,862.6c-0.1-0.4-0.3-0.7-0.6-0.9
		l-0.8-0.2l-0.5,1.5c-0.3,0.9-0.1,1.5,0.5,1.7c0.3,0.1,0.6,0,0.8-0.1c0.3-0.2,0.5-0.5,0.5-0.8C439.4,863.4,439.4,863,439.3,862.6
		L439.3,862.6z"/>
	<path class="st2" d="M437.2,847.8l6.4,2c1.2,0.3,2.2,1,2.8,2.1c0.5,1.1,0.5,2.4,0,3.5c-0.2,0.7-0.5,1.4-0.9,2
		c-0.3,0.6-0.8,1-1.3,1.4l-1.3-1.4c0.4-0.3,0.7-0.6,1-1c0.3-0.4,0.5-0.9,0.7-1.4c0.2-0.6,0.2-1.3,0-1.9c-0.3-0.5-0.8-0.9-1.4-1
		l-0.3-0.1c0.5,0.8,0.5,1.8,0.2,2.7c-0.2,0.7-0.6,1.3-1.1,1.8c-0.5,0.5-1.1,0.8-1.7,1c-1.4,0.3-2.9-0.1-3.9-1.2
		c-0.5-0.5-0.8-1.1-0.9-1.8c-0.1-0.7-0.1-1.4,0.1-2.1c0.2-1,0.9-1.8,1.9-2.2l-1-0.3L437.2,847.8z M441.4,852.2
		c-0.5-1-1.7-1.4-2.7-0.8c-0.5,0.3-0.8,0.8-1,1.3c-0.2,0.5-0.2,1.1,0.1,1.6c0.5,1,1.7,1.4,2.7,0.9c0,0,0,0,0,0
		c0.5-0.3,0.8-0.8,1-1.3C441.6,853.2,441.6,852.7,441.4,852.2z"/>
	<path class="st2" d="M445.7,846.5c-0.5,0.5-1.2,0.9-1.9,1.1c-1.5,0.3-3.1-0.1-4.1-1.3c-0.5-0.5-0.8-1.2-0.9-1.9
		c-0.3-1.6,0.2-3.2,1.3-4.4c0.5-0.5,1.2-0.9,1.9-1.1c1.5-0.3,3.1,0.1,4.1,1.3c0.5,0.5,0.8,1.2,0.9,1.9
		C447.3,843.8,446.8,845.4,445.7,846.5L445.7,846.5z M444.9,842.4c-0.7-1-2-1.4-3.1-1c-0.5,0.2-0.9,0.7-1,1.2
		c-0.2,0.5-0.1,1.1,0.1,1.6c0.7,1,2,1.4,3.1,1c0.5-0.3,0.9-0.7,1-1.2C445.2,843.4,445.1,842.8,444.9,842.4L444.9,842.4z"/>
	<path class="st2" d="M448.6,838c-0.3,0.5-0.6,0.9-1,1.3l-1.4-1.2c0.4-0.3,0.7-0.7,0.9-1.1c0.3-0.4,0.5-0.9,0.6-1.4
		c0.3-0.9,0.2-1.5-0.3-1.6c-0.2-0.1-0.5,0-0.6,0.2c-0.2,0.3-0.4,0.7-0.6,1.1c-0.2,0.5-0.5,1-0.8,1.5c-0.2,0.4-0.6,0.7-1,0.9
		c-0.5,0.2-1,0.2-1.5,0c-0.5-0.1-0.9-0.4-1.2-0.8c-0.3-0.4-0.5-1-0.5-1.5c0-0.7,0.1-1.4,0.3-2c0.2-0.5,0.4-1.1,0.7-1.6
		c0.2-0.4,0.5-0.8,0.9-1.2l1.4,1.2c-0.6,0.6-1,1.3-1.3,2c-0.1,0.4-0.2,0.8-0.1,1.1c0,0.2,0.2,0.4,0.4,0.5c0.2,0.1,0.5,0,0.6-0.2
		c0.3-0.4,0.5-0.7,0.7-1.1c0.2-0.5,0.5-1,0.8-1.4c0.2-0.4,0.6-0.7,1-0.8c0.5-0.2,1-0.2,1.5,0c0.5,0.1,0.9,0.4,1.1,0.8
		c0.3,0.5,0.5,1,0.5,1.5c0,0.7-0.1,1.4-0.3,2.1C449.2,836.8,448.9,837.4,448.6,838z"/>
	<path class="st2" d="M667.9,403.7c-0.9,0.3-1.9,0.3-2.8,0.1c-1.9-0.5-3.4-2-4-3.9c-0.2-0.9-0.2-1.9,0.1-2.8c0.3-1,0.8-1.9,1.6-2.6
		c0.6-0.6,1.3-1.1,2.1-1.4c0.7-0.3,1.5-0.4,2.3-0.3l-0.1,2.1c-1-0.1-2,0.3-2.7,1c-0.4,0.4-0.8,1-0.9,1.5c-0.2,0.6-0.2,1.1,0,1.7
		c0.4,1.2,1.3,2.1,2.5,2.5c0.6,0.2,1.1,0.2,1.7,0c0.6-0.2,1.1-0.5,1.5-0.9c0.7-0.7,1.1-1.7,1-2.8l2.1-0.1c0.1,0.8,0,1.6-0.3,2.3
		c-0.3,0.8-0.8,1.5-1.4,2.1C669.8,402.9,668.9,403.4,667.9,403.7z"/>
	<path class="st2" d="M677.8,393.9c-0.1,0.3-0.2,0.6-0.3,0.9c-0.2,0.3-0.4,0.6-0.7,0.8c-0.5,0.6-1.3,1-2.1,1.1c-0.8,0-1.6-0.4-2.1-1
		l-2.3-2.3l-0.9,0.9l-1.3-1.3l0.9-0.9l-1.4-1.4l1.7-1.7l1.4,1.4l1.4-1.4l1.3,1.3l-1.4,1.4l2.3,2.3c0.2,0.2,0.5,0.3,0.7,0.4
		c0.3,0,0.5-0.1,0.7-0.3c0.2-0.2,0.4-0.5,0.5-0.9L677.8,393.9z"/>
	<path class="st2" d="M675.8,385.3c0.2-0.5,0.5-1,0.9-1.4l1.5,1.5c-0.2,0.2-0.3,0.3-0.4,0.4c-0.4,0.4-0.7,0.9-0.7,1.5
		c0,0.6,0.3,1.2,0.8,1.6l2.7,2.7l-1.7,1.7l-5.7-5.7l1.6-1.6l0.8,0.8C675.6,386.3,675.6,385.8,675.8,385.3z"/>
	<path class="st2" d="M682.7,379.3c1,0,2,0.4,2.6,1.2l3.3,3.2l-1.5,1.6l-0.7-0.7c0.2,1-0.2,1.9-0.9,2.5c-0.4,0.4-0.8,0.7-1.4,0.9
		c-0.4,0.2-0.9,0.2-1.4,0.1c-0.4-0.1-0.8-0.3-1.1-0.6c-0.5-0.5-0.8-1.2-0.7-1.8c0.2-0.9,0.7-1.7,1.4-2.3l1.3-1.3
		c-0.3-0.3-0.7-0.5-1.2-0.5c-0.5,0.1-1,0.3-1.3,0.7c-0.3,0.3-0.6,0.7-0.8,1c-0.2,0.4-0.3,0.7-0.4,1.1l-1.8-0.6
		c0.1-0.6,0.3-1.1,0.6-1.6c0.3-0.6,0.7-1.1,1.2-1.5C680.7,379.9,681.6,379.4,682.7,379.3z M685.2,384.6c0.1-0.4,0-0.7-0.1-1
		l-0.6-0.6l-1.1,1.1c-0.7,0.7-0.8,1.2-0.3,1.7c0.2,0.2,0.5,0.3,0.8,0.3c0.3-0.1,0.6-0.2,0.9-0.5C684.9,385.3,685.1,385,685.2,384.6z
		"/>
	<path class="st2" d="M691,365.5l7.9,7.9l-1.6,1.6l-0.7-0.7c0.1,1-0.3,1.9-1,2.5c-0.5,0.5-1.1,0.9-1.8,1.1c-0.7,0.2-1.4,0.2-2.1,0
		c-1.5-0.5-2.6-1.6-3.1-3.1c-0.2-0.7-0.2-1.4,0-2.1c0.2-0.7,0.6-1.3,1.1-1.8c0.6-0.7,1.5-1.1,2.4-1l-2.8-2.8L691,365.5z
		 M695.1,373.7c-0.1-1.2-1.1-2.2-2.3-2.3c-1.2,0-2.1,0.9-2.1,2.1c0.1,1.2,1.1,2.2,2.3,2.3C694.2,375.8,695.1,374.9,695.1,373.7z"/>
	<path class="st2" d="M703.5,363.9l-4.3,4.3c0.4,0.3,0.9,0.4,1.4,0.3c0.5-0.1,1-0.4,1.4-0.8c0.3-0.3,0.5-0.6,0.7-0.9
		c0.1-0.3,0.2-0.7,0.2-1.1l1.8,0.1c0,1.3-0.5,2.5-1.4,3.3c-0.6,0.6-1.3,1.1-2.1,1.3c-0.7,0.2-1.5,0.3-2.2,0.1
		c-0.7-0.2-1.4-0.6-1.9-1.1c-0.5-0.5-0.9-1.2-1.1-1.9c-0.2-0.7-0.2-1.4,0-2.1c0.5-1.5,1.6-2.6,3-3.1c0.7-0.2,1.4-0.2,2.1,0
		c0.7,0.2,1.4,0.6,2,1.2C703.1,363.4,703.3,363.6,703.5,363.9z M697.8,365.9c0,0.5,0.1,1,0.4,1.3l2.8-2.8c-0.4-0.3-0.9-0.4-1.3-0.4
		c-0.5,0-0.9,0.3-1.3,0.6C698.1,365,697.9,365.5,697.8,365.9L697.8,365.9z"/>
	<path class="st2" d="M713.4,355.5L710,359l0.9,2.2l-1.8,1.8l-4.1-10.7l1.7-1.7l10.8,4.1l-1.8,1.8L713.4,355.5z M711.6,354.8l-4-1.7
		l1.7,4L711.6,354.8z"/>
	<path class="st2" d="M710.2,346.1l1.6-1.7l7.9,7.9l-1.7,1.7L710.2,346.1z"/>
	<path class="st2" d="M714.6,343.9c-0.7,0-1.3-0.5-1.3-1.2c0,0,0-0.1,0-0.1c0-0.4,0.2-0.7,0.5-1c0.3-0.3,0.6-0.5,1-0.5
		c0.3,0,0.7,0.1,0.9,0.3c0.3,0.3,0.4,0.6,0.4,1C716,343.2,715.4,343.9,714.6,343.9L714.6,343.9z M715.6,345.1l1.7-1.7l5.7,5.7
		l-1.7,1.7L715.6,345.1z"/>
	<path class="st2" d="M725.3,346.2c-0.7,0.2-1.5,0.3-2.2,0.1c-0.7-0.2-1.4-0.6-1.9-1.1c-0.5-0.5-0.9-1.2-1.1-1.9
		c-0.2-0.7-0.1-1.5,0.1-2.2c0.2-0.8,0.7-1.5,1.3-2c0.5-0.6,1.2-1,1.9-1.2c0.7-0.2,1.4-0.2,2.1,0.1l-0.6,2c-0.7-0.2-1.5,0-2.1,0.5
		c-0.4,0.4-0.6,0.9-0.6,1.5c0.1,1.2,1.1,2.2,2.3,2.3c0.6,0,1.1-0.2,1.5-0.6c0.6-0.5,0.8-1.3,0.5-2.1l2-0.6c0.2,0.7,0.3,1.4,0.1,2
		c-0.2,0.7-0.6,1.4-1.2,2C726.8,345.5,726.1,345.9,725.3,346.2z"/>
	<path class="st2" d="M729.9,331.8c1,0,2,0.4,2.6,1.2l3.3,3.2l-1.5,1.6l-0.7-0.7c0.2,1-0.2,1.9-0.9,2.5c-0.4,0.4-0.8,0.7-1.4,0.9
		c-0.4,0.2-0.9,0.2-1.4,0.1c-0.4-0.1-0.8-0.3-1.1-0.6c-0.5-0.5-0.8-1.2-0.7-1.9c0.2-0.9,0.7-1.7,1.4-2.3l1.3-1.3
		c-0.3-0.3-0.7-0.5-1.2-0.5c-0.5,0.1-1,0.3-1.3,0.7c-0.3,0.3-0.6,0.7-0.8,1c-0.2,0.4-0.3,0.7-0.4,1.1l-1.8-0.6
		c0.1-0.6,0.3-1.1,0.6-1.6c0.3-0.6,0.7-1.1,1.2-1.5C727.9,332.4,728.9,331.9,729.9,331.8z M732.4,337.1c0.1-0.4,0-0.7-0.1-1
		l-0.6-0.6l-1.1,1.1c-0.7,0.7-0.8,1.2-0.3,1.7c0.2,0.2,0.5,0.3,0.8,0.3c0.3-0.1,0.6-0.2,0.9-0.5
		C732.2,337.8,732.4,337.5,732.4,337.1z"/>
	<path class="st2" d="M737.3,324.4c1,0,1.9,0.5,2.5,1.2l3.3,3.3l-1.7,1.7l-3-3c-0.3-0.4-0.8-0.6-1.3-0.7c-0.5,0-0.9,0.2-1.2,0.5
		c-0.4,0.4-0.6,0.9-0.6,1.4c0.1,0.6,0.3,1.1,0.8,1.5l2.8,2.8l-1.7,1.7l-5.7-5.7l1.6-1.6l0.7,0.7c0-0.5,0.1-0.9,0.3-1.4
		c0.2-0.5,0.5-0.9,0.9-1.3C735.5,324.8,736.4,324.4,737.3,324.4z"/>
	<path class="st2" d="M748,323.4c-0.1,0.3-0.2,0.6-0.3,0.9c-0.2,0.3-0.4,0.6-0.7,0.8c-0.5,0.6-1.3,1-2.1,1.1c-0.8,0-1.6-0.4-2.1-1
		l-2.4-2.3l-0.9,0.9l-1.3-1.3l0.9-0.9l-1.4-1.4l1.7-1.7l1.4,1.4l1.4-1.4l1.3,1.3l-1.4,1.4l2.3,2.3c0.2,0.2,0.5,0.3,0.7,0.4
		c0.3,0,0.5-0.1,0.7-0.3c0.2-0.2,0.4-0.5,0.5-0.9L748,323.4z"/>
	<path class="st2" d="M752.2,315l-4.3,4.3c0.4,0.3,0.9,0.4,1.4,0.3c0.5-0.1,1-0.4,1.4-0.8c0.3-0.3,0.5-0.6,0.7-0.9
		c0.1-0.3,0.2-0.7,0.2-1.1l1.8,0.1c0,1.3-0.5,2.5-1.4,3.3c-0.6,0.6-1.3,1.1-2.1,1.3c-0.7,0.2-1.5,0.3-2.2,0.1
		c-0.7-0.2-1.4-0.6-1.9-1.1c-0.5-0.5-0.9-1.2-1.1-1.9c-0.2-0.7-0.2-1.4,0-2.1c0.2-0.7,0.6-1.4,1.2-1.9c0.5-0.5,1.2-0.9,1.9-1.2
		c0.7-0.2,1.4-0.2,2.1,0c0.7,0.2,1.4,0.6,2,1.2C751.8,314.5,751.9,314.7,752.2,315z M746.5,317c0,0.5,0.1,1,0.4,1.3l2.8-2.8
		c-0.4-0.3-0.9-0.4-1.3-0.4c-0.5,0-0.9,0.3-1.3,0.6C746.7,316.1,746.5,316.6,746.5,317L746.5,317z"/>
</g>
</svg>
