<?xml version="1.0" encoding="utf-8"?>
<!-- Generator: Adobe Illustrator 24.0.2, SVG Export Plug-In . SVG Version: 6.00 Build 0)  -->
<svg version="1.1" id="Capa_1" xmlns="http://www.w3.org/2000/svg" xmlns:xlink="http://www.w3.org/1999/xlink" x="0px" y="0px"
	 viewBox="0 0 1080 1080" style="enable-background:new 0 0 1080 1080;" xml:space="preserve">
<style type="text/css">
	.st1{fill:none;stroke:#FFFFFF;stroke-width:8;stroke-miterlimit:10;}
	.st2{fill:#FFFFFF;}
</style>
<g id="3_El_Acequión_-_Los_Náufragos" class="zone">
	<path class="st0" d="M656.2,710c-3.7-1.5-7.3-2.9-9.4-3.6c-9.9,13.2-36.5,51.6-54.8,78.1c-7.1,10.2-13.1,19-16.9,24.4
		c-11.6,16.5-13.4,27-15.3,38c-0.6,3.2-1.1,6.4-2,9.9c-3.7,15.2-12.1,42.9-15.5,50.9c-2.4,5.4-14.5,31-23.3,49.8
		c-4.7,10-8.5,17.9-9.6,20.4c-1.8,4.2-5.2,7.3-9.5,8.8c-0.6,2.8-1.3,5.5-2.2,8.1c-2.3,7.3-5.1,16.3-0.7,19.2c3.8,2.6,7.5,6.3,11,9.8
		c7.9,8,13,12.6,17.7,9.1c9.8-7.3,12.1-7.1,20.9-4.9c1.5,0.4,3.2,0.8,5.1,1.2c3.4,0.8,6.8,2,9.9,3.3c1.2,0.6,2.5,1.1,3.9,1.4
		c0.5-1.6,0.7-3.3,0.7-5c0.3-6.1,0.2-12.2-0.2-18.3c-0.3-5.5-0.5-9.1,0.4-11.4c0.5-1.2,1.7-8.5,2.9-14.8c1.6-9.4,3.4-20,5.1-26.4
		c1.4-5.2,0.3-10.4-0.6-14.6c-1-4.6-1.9-9.4,2.3-11.4c2-1,3.2-5.6,2.8-9.1c-0.2-1.2-0.4-2.4-0.7-3.6c-0.9-4-2-9,0.4-12.5
		c0.6-0.9,0.8-2.7,1.1-4.6c0.4-3.1,0.9-6.9,3.3-10.6c3.4-5.2,8.1-18.4,7.7-23.3c-0.5-7.1,2.2-11.4,5.5-16.9c1.4-2.3,2.4-6.1,3.3-9.8
		c1.1-4.2,2-8.1,3.9-10.6c1-1.2,2-5.2,2.9-8.5c1.4-5.3,2.5-9.9,5.1-11.9c2.4-2,9.8-13.3,11.8-20.3c0.3-1.1,0.6-2.1,0.8-3
		c1.4-5.4,2.2-7.7,9.3-10.8c2.4-1,5-1.8,7.6-2.4c3.6-0.9,5.6-1.5,6-2.8c0.5-1.8,0.9-3.6,1.1-5.4c1-5.5,2.1-12.2,6.1-17.1
		c5.1-6.1,17.5-14.9,30-17.9c-2.1-3.2-5.1-7.5-6.9-9.5C674.8,718.8,662.9,712.7,656.2,710z"/>
</g>
<g id="3_Los_Balcones_-_Los_Altos_del_Edén" class="zone">
	<path class="st0" d="M498.8,980c2-1.1,3.7-2.8,4.6-4.9c1.1-2.4,4.9-10.3,9.6-20.5c8.9-18.7,20.9-44.2,23.2-49.5
		c3.3-7.8,11.6-34.8,15.2-49.9c0.7-3.2,1.3-6.3,1.9-9.5c2-11.2,4-22.9,16.4-40.7c3.8-5.5,9.9-14.3,16.9-24.4
		c18.6-26.7,42.8-61.8,53.7-76.4c-6.9-2.2-17.8-5.7-19.9-7c-2.2-1.4-6.6-6.7-15.4-18.3c-1.1-1.5-2.2-2.9-3.2-4.1
		c-1-1.2-1.9-2.3-2.8-3.3c-4.2-4.8-7.4-8.6-6.4-20c0.3-3.4,0.7-6,1.1-8.2c0.9-5.5,1.1-6.7-2-9.9c-5.4-5.8-23.1-14-27.8-13.8
		c-4.8,0.3-24.5,9.5-46.2,22.7c-3.9,2.4-8.4,5.4-13.2,8.6c-19.9,13.2-44.6,29.7-62.3,27.2c-18.8-2.6-83.9-20.1-105.3-25.9
		c-2.4-0.7-4.3-1.1-5.6-1.5c-0.9-0.2-1.9-0.5-2.8-0.7c-12.1-3.3-26-7.2-36.4,6.8c-11.7,15.6-65,75.3-74.8,86.1
		c3.9,7.7,9.8,15.4,18.7,23.4c12.1,10.8,32.6,28,50.8,43.2c19,15.9,35.4,29.6,40.9,35c3.7,3.7,7.2,7.6,10.3,11.7
		c3.8,4.9,6.7,8.5,11.5,10.4c10,4.1,14.3,8.4,21,20.9c4.2,7.9,10.5,11.2,18.5,15.3c2.9,1.5,5.9,3.1,9,5c3.7,2.3,7.9,4.3,12.4,6.4
		c9.5,4.6,20.2,9.7,29.9,18.9c11.2,10.4,23.4,19.6,31.5,25.6c2,1.5,3.6,2.7,5,3.7c2.7,2.1,5.2,4.4,7.6,6.8c4,3.9,7.7,7.6,11.6,8.7
		C497.1,978.4,498.1,979,498.8,980z"/>
</g>
<g id="3_Torrevieja_Centro" class="zone">
	<path class="st0" d="M751.3,703.2c-2.9-14.4-7.3-36.1-4.1-52.3c0-0.9,0.2-1.8,0.6-2.7c-2.4,0.4-4.9,1-7.3,1.8
		c-4.2,1.3-8.3,2.6-12.5,3.8c-4.4,1.3-8.5,2.5-12.3,3.7l-1.5,0.5c-6.9,2.2-12.9,4.2-15.2-1.7c-0.2-0.6-0.7-1.9-3.6-1.9
		c-1.6,0-4.7,0-6.7,0c-13.4,16.9-30.8,38.5-37.6,46.5c2,0.8,4.7,1.8,7.5,2.9c5.7,2.3,19.6,8.9,23.6,13.6c2.5,3,6.9,9.5,9,12.6
		c3.1-0.4,5.5-0.7,7.4-1.1c5.5-0.9,8.3-1.3,13.4,0.4c5.5,1.8,11.2,2.9,17.1,3.2h0.4c3.2,0,9.1,0,11.8,5.9c0.3,0.7,0.7,1.8,1.2,2.9
		c2.5,6.5,4.5,10.4,5.9,11.7c0.7-0.7,1.3-1.4,2-2.1c2.5-2.9,5.2-5.5,8.1-8.1c-1.1-5.8-4.2-22.7-5.9-32.5
		C752.3,708.5,751.8,706.1,751.3,703.2z"/>
</g>
<g id="3_La_Siesta_-_El_Salado_-_Torreta" class="zone">
	<path class="st0" d="M330.3,643.9c0.9,0.2,1.9,0.5,2.8,0.7c1.3,0.3,3.2,0.8,5.6,1.5c21.3,5.7,86.1,23.2,104.5,25.7
		c15.2,2.1,39.9-14.3,57.8-26.2c4.9-3.3,9.5-6.3,13.4-8.7c18.3-11.1,41.7-23.2,49.1-23.7c7.6-0.5,27,9.4,33,15.8
		c5.2,5.6,4.6,9.5,3.6,15.5c-0.3,2.1-0.7,4.6-1.1,7.7c-0.8,8.6,1.1,10.8,4.8,15.1c0.9,1.1,1.9,2.2,2.9,3.6c1,1.2,2,2.6,3.2,4.2
		c4.2,5.4,11.9,15.4,13.7,16.6c1.4,0.8,11.2,4.1,20.7,7.1c0.2-0.2,0.3-0.4,0.4-0.5c7.3-8.5,39.8-49.2,52.1-64.7
		c10.6-13.4,17.3-23.3,17.8-31.1c0.2-2.1,0.1-5.1,0.1-8.5c-0.1-10.3-0.2-25.8,4-38.4c5.8-17.4,16.8-33.5,31.6-46.4
		c7.7-6.8,26.4-25.7,44.5-44.1c17-17.4,34.7-35.3,43.1-42.8c17.4-15.6,28.1-26.4,31.9-35.4c4.2-9.9,19.6-53.1,25.2-71.3
		c2-6.5,4.3-12.8,6.3-18.3c3.5-9.8,6.6-18.3,6.5-22.9c-0.1-5.5-2.3-10.3-4.7-16.1c-0.7-1.7-1.5-3.6-2.4-5.5
		c-2.7-6.8-8.8-20.8-10.6-24.8c-7.3-3.5-20.5-10.4-40.8-21.1c-6.8-3.6-12.5-6.6-16.3-8.5c-1.1-0.6-2.2-1.1-3.2-1.6
		c-13-6.5-17.4-9.8-25.4-34.7c-5.3-16.5-9.2-27.1-12.3-35.7c-2-5.4-3.5-9.5-4.8-13.7c-2.7-8.4-3.4-10.6-23.4-11.5
		c-12.6-0.5-46.1-3.1-73-5.2c-16.7-1.3-31.1-2.4-37.6-2.9c-15.1-0.9-64.3,1-90.8,2c-3.3,0.2-6.3,0.2-8.8,0.3
		c-3.3,0.2-6.4,0.2-9.2,0.2c-15.7,0.3-22.2,0.4-28.5,10.4c-3.9,6.2-11.7,15.2-19.9,24.6c-9,10.8-19.6,23-22.4,29.3
		c-1.2,2.8-3.5,7.1-6.4,12.6c-4.9,9.2-10.9,20.7-14.8,30.5c-5.6,14-3.6,16.2-3.6,16.3c3.4,1.7,6.9,3.3,10.5,4.6
		c14.6,5.9,24.1,10.2,24.8,16.6c0.2,2-0.4,4.7-4.3,7.3c-3.8,2.5-11.5,7-20.4,12.3c-20.8,12.3-52.2,31-57.4,37.3
		c-1.3,1.5-2.9,3.7-5,6.3c-18.6,23.8-29.3,35.3-36.4,31.8c-1-0.5-2-1.1-3.2-1.6c-7.7-4.2-13.4-6.8-17.4-2.3
		c-5.3,5.9-52.2,58.4-67.8,70.1c-4.4,3.3-9.8,7.7-16.1,13c-15.8,13-35.4,29.2-51.5,37.2c-14.4,7.3-21.8,12.8-24.7,18.7
		c-2.6,5.5-1.5,11.6,0.2,20.8c0.7,4,1.5,8.6,2.2,13.8c2.2,17.9,8.1,62.1,13.7,104.8c4.5,33.6,8.6,65.2,10.3,78.8
		c0.6,4.6,1,9.1,1.5,13.4c1.2,12.5,2.3,23.6,6.4,34.4c13.4-14.9,61.7-69.3,72.4-83.5C300,635.5,317.5,640.3,330.3,643.9z"/>
</g>
<g id="3_Playa_del_Cura" class="zone">
	<path class="st0" d="M855.2,691c-3.3-1.1-7.2-3.6-8-8.5c-0.6-3.4-0.2-8,0-12.1c0.2-2.9,0.4-6.4,0.1-7.6c-0.7-2.1-3.9-6.4-6.6-8.8
		c-5.9,2.9-14.4,4.6-30.4,5.4c-5.9,0.2-11.2,0.7-16,1c-6.7,0.5-12.5,0.9-17.7,0.9c-5.5,0.1-10.9-0.6-16.1-2c-3.3-1-5.8-1.7-7.7-2.4
		c-1.5,14.4,2.3,32.6,4.8,45.1c0.6,2.9,1.1,5.4,1.5,7.4c1.5,8.8,4.2,23.5,5.5,30.6c1-0.2,2-0.2,3,0.2c0.7,0,2.4-1.5,3.5-2.4
		c2.4-2,5.3-4.6,9-4c1.2,0.2,2.4,0.5,3.4,0.9c1.5,0.6,2,0.7,5.2-1.9c1.7-1.4,3.2-2.7,4.5-3.8c3.5-3.1,6.4-5.6,10.8-6.4
		c1.5-0.2,3.9-2,5.9-3.6c3.2-2.4,6.1-4.6,9.4-4.5c0.4,0,0.7,0,1.1,0.1c4,0.2,9.5,0.3,13.7,6.9c1.4,2.1,3.3,3.5,4.8,3.4
		c1.5-0.1,2.4-1.4,3-2.5c3.6-6.8,7.8-13.4,12.6-19.4c2.4-2.9,2.4-5.2,1.2-9.3C855.5,692.7,855.3,691.8,855.2,691z"/>
</g>
<g id="3_Nueva_Torrevieja_-_Aguas_Nuevas" class="zone">
	<path class="st0" d="M897.8,423.5c-3.6-6.1-16.9-20.8-24.8-28.6c-5.5,8.7-15.5,18.5-30.6,32.2c-8.2,7.4-25.8,25.3-42.8,42.5
		c-18.2,18.5-37,37.6-44.9,44.4c-14,12.2-24.3,27.3-29.7,43.6c-3.8,11.5-3.7,25.8-3.7,36.3c0,3.6,0.1,6.6-0.1,9
		c-0.7,9.5-7.5,20-19.1,34.7c-2.1,2.7-5,6.3-8.3,10.5c0.6,0,1.1,0,1.5,0c4.6,0,8,2,9.5,5.8l0,0c1.2,0,4.4-1,7.2-1.9l1.5-0.5
		c3.8-1.2,8-2.5,12.4-3.8c4.1-1.2,8.2-2.5,12.4-3.7c8.9-2.8,13.2-2.9,15.4-0.4c0.8,0.9,1.9,2.8,0.5,5.9l-0.1,0.2
		c-0.1,0.2-0.2,0.6-0.4,0.8c1.9,0.9,6.7,2.3,8.4,2.8c8.6,2.4,18.3,1.8,31.6,0.8c4.8-0.3,10.2-0.7,16.1-1c22.4-1,27.9-4.1,32.8-8
		c5.3-4.2,11.7-16.1,11.2-23.4c-0.4-6.1,1-10.2,4.1-12.5c3.4-2.5,8.5-2.5,15.3,0.1c0.1,0.1,0.2,0.1,0.4,0.1
		c1.7-0.7,3.8-9.1,5.2-14.7c1-3.8,2-8.1,3.3-12.5c2.9-9.3,5.9-21,8.6-31.5c2-8.1,4-15.6,5.5-20.6c3-10,15.6-40.6,18.9-48.6
		c-0.2-0.2-0.3-0.4-0.6-0.6c-10.6-12.1-14.7-17.7-16.9-24.9c-1.8-5.9-0.7-11.6,0.3-17C899.5,432.9,900.4,427.9,897.8,423.5z"/>
</g>
<g id="3_Playa_de_los_Locos" class="zone">
	<path class="st0" d="M941,495.5c-7.7,0-13.8-2.7-20.6-9.1c-4.3,10.6-15,36.7-17.6,45.4c-1.5,4.9-3.4,12.4-5.5,20.4
		c-2.7,10.4-5.8,22.3-8.6,31.7c-1.3,4.2-2.4,8.4-3.3,12.1c-2.4,9.7-4.2,16.6-8.6,19c-1.8,0.9-3.8,1-5.7,0.2c-4.4-1.6-7.7-2-9.2-1
		c-1.1,0.9-1.7,3.3-1.5,6.8c0.7,9.6-6.8,23.5-13.6,28.9c-0.2,0.2-0.4,0.3-0.7,0.5c3.1,3.1,6.3,7.4,7.2,10.6c0.6,2.1,0.5,5.1,0.2,9.8
		c-0.2,3.7-0.5,7.9-0.1,10.6c0.3,2,2.1,2.9,3.5,3.3c1.5-1.1,3.2-1.9,5-2c2.4-0.4,7.4-4.9,9.1-9c0.4-1.1,0.7-2.2,1.1-3.3
		c1.2-4.2,2.7-9.5,8.8-12.3c1-0.5,2-0.9,2.9-1.4c5.6-2.8,12-5.9,16.1-0.7c1.1,1.5,4.7,4,7.7,5.6c-5.3-11.6-5.4-15.3-4.5-17.5
		c1.1-3,4.6-3.2,8.1-3.4c0.8-0.1,2-0.1,2.9-0.2c-5.5-9-1.8-14.8,2.6-19.2c0.6-0.6,0.7-0.8-0.2-3.2c-0.8-2.2-2.5-6.7,2-10
		c-0.2-0.3-0.5-0.7-0.7-1.1c-1.1-1.5-2.6-3.7-2.1-6.3c0.4-1.8,1.5-3.3,3-4.2c-0.1-1-1.5-3.3-2.1-4.4c-1.5-2.6-3.2-5.3-1.7-7.7
		c0.9-1.5,2.6-2.3,5-2.1c2.7,0.2,3.8-1.3,4.2-2.2c0.6-1,0.6-2.1,0-3.1c-4.1-5-5.5-9-4.3-11.9c0.5-1.1,1.8-3,5.1-3.3
		c0.4,0,0.8-0.1,1.1-0.2c0.2-0.7,0.2-1.5,0.2-2.3c0.1-0.8,0.1-1.8,0.2-2.9c0.3-2.4,0.9-5.7,1.4-8.6c0.5-2.6,1.1-5.9,1.1-6.7
		c0-1.5,1.6-13,8.1-14.7c1.5-0.4,3.7-1.9,6.2-3.3c3.3-2.1,6.8-4.1,10.4-5.8c8.2-3.7,10.8-5.8,10.8-9.3c0-1.8-0.2-3.6-0.4-5.4
		c-0.3-3-0.7-5.8,0.7-8.5c0.3-0.7,0.6-1.2,0.8-1.9c-5.3,0.8-14.1,2-20.5,2.8C943.9,495.5,942.5,495.5,941,495.5z"/>
</g>
<g id="3_La_Mata" class="zone">
	<path class="st0" d="M965.2,468.6c-0.2-0.1-0.3-0.2-0.5-0.3c-2.4-1.4-4.1-3.7-4.6-6.4c-0.2,0.1-0.4,0.1-0.6,0.2
		c-1.5,0.4-3.5,1-5.3-0.2c-1.1-0.7-1.7-1.9-1.9-3.1c-0.4-2.7-7.6-17.6-9.9-19.9c-0.6-0.4-1.1-0.7-1.7-0.9c-4.2-1.7-8.6-4.5-8.1-14.9
		c0.6-11.8,0.2-44.9-0.7-52.9c-0.5-4.7-0.1-11.9,0.2-18.8c0.2-5.3,0.6-10.3,0.4-13.4c-0.1-1.7-0.6-5.1-1.1-8.9
		c-1.9-12.4-4.6-31-1.4-41.1c1.1-3.3,2.1-7.2,3.3-11.3c5.3-19.2,7.9-26.4,13-26.2c1.6,0.1,2-0.2,2.1-0.3c0.1-0.1,0.6-0.6,0.6-3
		c0-0.9-1-1.8-2.6-3.1c-2-1.6-5.1-4.1-4.1-8.1c0.1-0.4,0.2-0.8,0.3-1.3c0.5-1.6,1.6-5.9,0.9-7c-0.2-0.2-0.6-0.3-1-0.3
		c-3-0.3-14.4,0.9-23.5,1.8c-11.1,1.1-17.2,1.7-20.4,1.7c2.6,5.9,6.3,14.5,8.2,19.4c0.7,1.8,1.5,3.6,2.3,5.3
		c2.7,6,5.2,11.7,5.3,18.6c0.1,5.8-3,14.3-6.9,25.3c-2,5.5-4.2,11.7-6.2,18c-5.6,18-20.7,60.7-25.3,71.5c7.9,7.7,22.9,24,27.2,31.3
		c3.8,6.5,2.6,13.3,1.4,19.8c-0.9,5-1.8,9.6-0.5,14c1.7,5.6,4.9,10.3,15.5,22.4c10.2,11.7,16.4,13.4,24.8,12.4c7.1-0.8,17-2.3,22-3
		c-2.2-4.9-1.8-8.7,1.1-11.3c-0.2-0.7-0.6-1.4-1-2C966,471.2,965.5,470,965.2,468.6z"/>
</g>
<g id="_Strokes">
	<path class="st1" d="M203.4,449c-37.8,18.9-27.6,27.2-24,56.5c3.9,32.4,20.3,153.2,24,183.6c3.7,30.4,1.4,53.8,30.4,79.8
		c24,21.5,80.6,67.5,91.6,78.1c11,10.5,13.5,19,22.8,22.8s13.1,7.6,19.4,19.4s16.9,14.3,28.7,21.5c11.8,7.2,27.9,11.8,41.8,24.9
		c13.9,13.1,29.6,24,36.7,29.6s13.1,13.9,20.3,16.1c7.2,2.1-11.4,27.9,0,35.4c11.4,7.6,21.9,26.7,32.5,18.8
		c10.6-7.9,10.3-5.9,23.4-3c13,2.9,17.8,10.8,18.6-3.2c0.8-13.9-1.3-25.3,0-28.7c1.3-3.3,5.1-30.1,8-41.6c2.9-11.4-4-21.9,0-23.9
		c4-2,5.1-8.5,4.6-12.5c-0.4-4-3.2-10.6-0.8-13.9c2.4-3.3,0.8-9.7,4.4-15.2c3.6-5.5,8.6-19.4,8.2-25.3c-0.4-5.9,1.7-9.5,5.1-15
		c3.3-5.5,4-16.2,6.9-20c2.9-3.8,4.2-17.3,7.4-19.8c3.2-2.5,10.8-14.6,12.9-21.9c2.1-7.3,1.3-8.6,8.2-11.6
		c6.9-2.9,13.7-2.3,15.4-6.9s1.7-15.4,6.8-21.5c5.1-6.1,19.6-16.2,32.9-17.8s15.2-3.2,21.3-1.1c5.9,1.9,12,3,18.2,3.3
		c3.2,0,7.4-0.2,9.3,4c1.9,4.2,7.2,20.9,12.1,15.8c4.9-5.1,12.1-13.9,16.2-12.6c4.2,1.2,8.5-7,12.9-6.4s4.9,3.3,11.2-1.7
		c6.3-5.1,8.9-8.6,13.7-9.5c4.8-0.9,10.6-8.2,14.6-8c4,0.2,8.6-0.2,12.2,5.5s10.1,7.2,13.5,0.7c3.5-6.6,7.6-12.9,12.2-18.7
		c3.3-4,3.2-7.6,1.9-12.2c-1.3-4.6-0.2-6.1,3.8-6.8c4.1-0.7,9.7-6.4,11.6-11c1.9-4.6,1.9-11,8.2-13.9c6.4-2.9,12.1-6.8,15-2.9
		c2.9,3.8,18.6,13.3,15,5.9c-3.6-7.3-7.2-15.8-6.1-18.6c1.1-2.8,15.4,0.8,11-6.1c-4.4-6.9-2.5-11.2,1.9-15.6
		c4.4-4.5-3.8-9.3,1.5-12.9c5.3-3.6-5.7-7.6,0-11.4s-8-14.2-0.8-13.7c7.2,0.5,9.9-6.9,6.9-10.6c-3-3.7-6.5-9.5-1.5-9.9
		c5.1-0.4,4-3.2,4.6-8.2s2.5-13.5,2.5-15.6s1.9-10.6,5.7-11.6c3.8-1,9.5-5.9,17.1-9.3c7.6-3.3,12.6-6.4,12.6-12.2
		c0-5.9-1.5-9.5,0-12.5c1.5-2.9,2.9-8.5,1.7-11.2c-1.2-2.7-2.2-5.9,0.5-8c2.7-2-1.5-6.4-1.7-8.9s-4.6-2.1-5.3-7.2
		c-0.7-5.1-7.2,0.8-7.6-2.3c-0.4-3.1-8-19-10.8-21.8c-2.8-2.8-9.5-1.1-8.9-13.3c0.7-12.2,0.2-45.4-0.7-53.4
		c-0.9-8,1.1-24.7,0.7-32.1c-0.4-7.4-6.8-36.3-2.8-48.7c4-12.5,8.9-35.4,13.1-35.3c4.2,0.2,6.1-1.5,6.1-6.5c0-5.1-7.8-6.4-6.8-10.3
		c1.1-4,4-12.1-2.5-12.6c-6.5-0.6-41.8,4.2-45.5,3.3c-3.7-0.9-48.7-24.9-62.7-32.1c-13.9-7.2-18.4-7.5-27.1-34.5
		c-8.6-27-13.7-38.9-17.1-49.4c-3.4-10.5-6.1-12.9-26.4-13.7c-20.3-0.8-93.5-7-110.6-8.1c-17.1-1.1-77.2,1.5-99.8,2.3
		c-22.6,0.8-31.9-1.3-40.3,12.2s-37.5,42.3-42.8,54.3c-5.3,12.1-33.2,58-23.4,63.6c9.8,5.5,43.7,14.6,30.8,23
		c-12.9,8.4-70.7,40.7-78.5,50.2c-7.7,9.5-30.1,40.7-37.3,37.2c-7.2-3.6-17.5-11-24.4-3.2c-6.9,7.8-52.6,58.5-67.5,69.6
		C255,410.9,225.4,438,203.4,449z"/>
	<path class="st1" d="M496.7,984c0,0,6.4-0.6,9.5-7.6c3.2-7,29.4-61.9,32.9-70.1c3.5-8.1,11.8-35.6,15.3-50.4
		c3.5-14.7,2.3-26.9,17.8-49s67.4-97.8,75.1-106.7c7.7-8.9,41.2-50.9,52.2-64.9c11-13.9,17.8-24.2,18.4-32.9c0.6-8.7-1.4-30,3.9-46
		c5.3-16.1,15.5-31.8,30.6-45.1c15.2-13.3,70.5-71.5,87.7-86.9c17.2-15.5,28.5-26.7,32.8-36.6s19.6-53.2,25.3-71.6
		s13.1-34.2,13-42.2s-4.1-14.7-7.3-22.7c-3.3-8-11.1-25.9-11.1-25.9"/>
	<path class="st1" d="M970.1,488.5c0,0-15.2,2.4-25.1,3.5c-9.9,1.1-17-1.4-27.5-13.5s-14.3-17.3-16.2-23.6
		c-3.3-11.2,5.4-23.1-0.6-33.1c-4.6-7.8-22.9-27.5-29.1-32.9"/>
	<path class="st1" d="M919.3,480.6c0,0-16.2,38.9-19.6,50.3c-3.4,11.3-9,35.4-14.1,52.1c-5.1,16.6-6.2,31.9-13.2,29.3
		c-10.8-4.1-15.7-1.1-15.1,9.1c0.6,8.7-6.6,21.5-12.4,26.2c-5.8,4.6-12.4,7.7-34.7,8.7c-22.3,1-36.4,3.5-48.8,0
		c-12.4-3.5-11.8-4.2-10-8.3s-3.5-3.7-12-1s-17.3,5.2-24.8,7.6s-11.4,3.9-12.6,0.7c-1.2-3.2-4.2-3.9-6.6-3.9s-8.2-0.1-8.2-0.1"/>
	<path class="st1" d="M858.6,688.4c0,0-7.2-0.5-8.1-6.4c-1-5.9,1-16.6,0-20c-1-3.3-6-9.5-9.5-11.7"/>
	<path class="st1" d="M762.1,744.5c0,0-4.1-22.5-6.2-34.5c-2.1-12.1-9.4-40-5.5-58.8"/>
	<path class="st1" d="M689.7,733.6c0,0-6.6-10.2-9.9-14c-3.3-3.8-16.1-10.1-22.4-12.6s-11.7-4.5-11.7-4.5s-21-6.5-23.5-8.1
		c-2.5-1.5-12.2-14.5-17.8-21.5s-9.5-8.7-8.5-20.9c1.1-12.2,3.9-14.7-1.7-20.7s-24-15.2-30.4-14.7c-6.4,0.4-28.3,11.4-47.7,23.2
		c-19.4,11.8-52.7,38.2-73.4,35.4c-20.7-2.9-97.9-24-110.6-27.3c-12.6-3.3-30-9.7-42.6,7.2s-76.1,87.6-76.1,87.6"/>
</g>
<g id="_Texto" class="text">
	<path class="st2" d="M792.6,680.2c1.1,0.5,1.8,1.5,1.7,2.7c0,0.6-0.2,1.1-0.5,1.6c-0.3,0.5-0.7,0.8-1.3,1.1c-0.7,0.2-1.3,0.4-2,0.4
		h-1.7v2.4h-2v-8.6h3.7C791.3,679.8,791.9,679.9,792.6,680.2z M791.8,684c0.3-0.2,0.5-0.7,0.5-1.1c0-0.4-0.2-0.8-0.5-1.1
		c-0.4-0.2-0.9-0.4-1.4-0.4h-1.6v2.9h1.6C790.9,684.4,791.4,684.3,791.8,684L791.8,684z"/>
	<path class="st2" d="M795.7,679.3h1.9v9.1h-1.9V679.3z"/>
	<path class="st2" d="M804.4,682.4c0.6,0.6,0.9,1.4,0.8,2.2v3.7h-1.8v-0.8c-0.4,0.7-1.2,1-2,0.9c-0.5,0-0.9-0.1-1.3-0.2
		c-0.3-0.2-0.7-0.4-0.8-0.7s-0.3-0.7-0.3-1.1c0-0.6,0.2-1.1,0.7-1.5c0.7-0.4,1.4-0.6,2.1-0.5h1.5c0-0.3-0.1-0.7-0.4-1
		c-0.3-0.2-0.7-0.4-1.1-0.3c-0.3,0-0.7,0.1-1.1,0.2c-0.3,0.1-0.6,0.2-0.9,0.4l-0.7-1.3c0.4-0.2,0.8-0.5,1.3-0.6
		c0.5-0.2,1.1-0.2,1.5-0.2C802.9,681.6,803.7,681.9,804.4,682.4z M802.8,686.9c0.2-0.2,0.4-0.4,0.6-0.7v-0.7H802
		c-0.8,0-1.1,0.2-1.1,0.7c0,0.2,0.1,0.4,0.3,0.6c0.2,0.2,0.5,0.2,0.8,0.2C802.2,687.2,802.5,687.1,802.8,686.9z"/>
	<path class="st2" d="M813.3,681.8l-2.9,7c-0.2,0.7-0.6,1.2-1.1,1.6c-0.5,0.3-1.1,0.5-1.6,0.5c-0.3,0-0.7-0.1-1-0.2
		c-0.3-0.1-0.6-0.2-0.8-0.4l0.7-1.4c0.2,0.2,0.3,0.2,0.5,0.3c0.2,0.1,0.4,0.1,0.6,0.1c0.2,0,0.5-0.1,0.7-0.2
		c0.2-0.2,0.3-0.4,0.4-0.7v-0.1l-2.9-6.6h2l1.9,4.5l1.9-4.5L813.3,681.8z"/>
	<path class="st2" d="M818.9,682.4c0.6,0.6,0.9,1.4,0.8,2.2v3.7h-1.8v-0.8c-0.4,0.7-1.2,1-2,0.9c-0.5,0-0.9-0.1-1.3-0.2
		c-0.3-0.2-0.7-0.4-0.8-0.7s-0.3-0.7-0.3-1.1c0-0.6,0.2-1.1,0.7-1.5c0.7-0.4,1.4-0.6,2.1-0.5h1.5c0-0.3-0.1-0.7-0.4-1
		c-0.3-0.2-0.7-0.4-1.1-0.3c-0.3,0-0.7,0.1-1.1,0.2c-0.3,0.1-0.6,0.2-0.9,0.4l-0.7-1.3c0.4-0.2,0.8-0.5,1.3-0.6
		c0.5-0.2,1.1-0.2,1.5-0.2C817.4,681.6,818.2,681.9,818.9,682.4z M817.3,686.9c0.2-0.2,0.4-0.4,0.6-0.7v-0.7h-1.3
		c-0.8,0-1.1,0.2-1.1,0.7c0,0.2,0.1,0.4,0.3,0.6c0.2,0.2,0.5,0.2,0.8,0.2C816.7,687.2,817,687.1,817.3,686.9z"/>
	<path class="st2" d="M784.2,693.9v9.1h-1.8v-0.8c-0.5,0.6-1.3,0.9-2,0.8c-0.6,0-1.1-0.2-1.7-0.4c-0.5-0.2-0.9-0.7-1.1-1.2
		c-0.6-1.1-0.6-2.4,0-3.6c0.2-0.5,0.7-0.9,1.1-1.2c0.5-0.2,1.1-0.4,1.7-0.4c0.7,0,1.5,0.2,2,0.8v-3.2L784.2,693.9z M781.8,701
		c0.7-0.7,0.7-1.9,0-2.7c-0.7-0.7-1.7-0.7-2.4,0c-0.7,0.7-0.7,1.9,0,2.7C780.1,701.8,781.2,701.8,781.8,701z"/>
	<path class="st2" d="M792.3,700.3h-5c0.1,0.4,0.3,0.7,0.7,1c0.4,0.2,0.8,0.4,1.2,0.3c0.3,0,0.7-0.1,0.9-0.2
		c0.2-0.1,0.5-0.2,0.7-0.5l1,1.1c-0.7,0.7-1.7,1.1-2.7,1.1c-0.7,0-1.4-0.2-2-0.4c-0.6-0.2-1-0.7-1.3-1.2c-0.3-0.5-0.5-1.1-0.5-1.7
		c0-0.7,0.2-1.2,0.5-1.7c0.3-0.5,0.7-0.9,1.2-1.2c1.1-0.6,2.4-0.6,3.5,0c0.5,0.2,1,0.7,1.2,1.2c0.3,0.6,0.5,1.1,0.4,1.8
		C792.4,699.8,792.4,700,792.3,700.3z M787.9,698.2c-0.3,0.2-0.5,0.7-0.6,1h3.3c-0.1-0.4-0.2-0.7-0.6-1c-0.3-0.2-0.7-0.4-1.1-0.4
		C788.6,697.8,788.2,697.9,787.9,698.2L787.9,698.2z"/>
	<path class="st2" d="M793.6,693.9h1.9v9.1h-1.9V693.9z"/>
	<path class="st2" d="M802.7,702.6c-0.7-0.3-1.3-0.9-1.6-1.5c-0.8-1.4-0.8-3.2,0-4.6c0.4-0.7,1-1.2,1.6-1.5c0.7-0.4,1.5-0.6,2.4-0.6
		c0.7,0,1.4,0.2,2,0.4c0.6,0.2,1.1,0.7,1.5,1.1l-1.3,1.1c-0.5-0.7-1.3-1-2.1-1c-0.5,0-1,0.1-1.4,0.3c-0.4,0.2-0.7,0.6-1,1
		c-0.5,0.9-0.5,2,0,2.9c0.2,0.4,0.6,0.7,1,1c0.4,0.2,0.9,0.3,1.4,0.3c0.8,0,1.6-0.3,2.1-1l1.3,1.1c-0.4,0.5-0.9,0.9-1.5,1.1
		c-0.7,0.2-1.3,0.4-2,0.4C804.2,703.1,803.4,703,802.7,702.6z"/>
	<path class="st2" d="M816.2,696.5v6.6h-1.8v-0.8c-0.2,0.2-0.6,0.5-0.9,0.7c-0.3,0.2-0.7,0.2-1.1,0.2c-0.7,0-1.5-0.2-2-0.7
		c-0.6-0.6-0.8-1.4-0.7-2.2v-3.7h1.9v3.4c0,1.1,0.4,1.6,1.3,1.6c0.4,0,0.8-0.2,1.1-0.4c0.3-0.4,0.5-0.8,0.4-1.3v-3.3L816.2,696.5z"
		/>
	<path class="st2" d="M820.8,696.6c0.4-0.2,0.9-0.2,1.3-0.2v1.8c-0.2,0-0.3,0-0.4,0c-0.5,0-0.9,0.2-1.3,0.5
		c-0.3,0.4-0.5,0.9-0.5,1.4v3.1H818v-6.6h1.8v0.9C820,697,820.4,696.7,820.8,696.6z"/>
	<path class="st2" d="M828.2,697.1c0.6,0.6,0.9,1.4,0.8,2.2v3.7h-1.8v-0.8c-0.4,0.7-1.2,1-2,0.9c-0.5,0-0.9-0.1-1.3-0.2
		c-0.3-0.2-0.7-0.4-0.8-0.7s-0.3-0.7-0.3-1.1c0-0.6,0.2-1.1,0.7-1.5c0.7-0.4,1.4-0.6,2.1-0.5h1.5c0-0.3-0.1-0.7-0.4-1
		c-0.3-0.2-0.7-0.4-1.1-0.3c-0.3,0-0.7,0.1-1.1,0.2s-0.6,0.2-0.9,0.4l-0.7-1.3c0.4-0.2,0.8-0.5,1.3-0.6c0.5-0.2,1.1-0.2,1.5-0.2
		C826.6,696.3,827.5,696.5,828.2,697.1z M826.5,701.6c0.2-0.2,0.4-0.4,0.6-0.7v-0.7h-1.3c-0.8,0-1.1,0.2-1.1,0.7
		c0,0.2,0.1,0.4,0.3,0.6c0.2,0.2,0.5,0.2,0.8,0.2C826,701.8,826.3,701.8,826.5,701.6z"/>
	<path class="st2" d="M693,696.6c-0.7-0.3-1.3-0.9-1.6-1.5c-0.8-1.4-0.8-3.2,0-4.6c0.4-0.7,1-1.2,1.6-1.5c0.7-0.4,1.5-0.6,2.4-0.6
		c0.7,0,1.4,0.2,2,0.4c0.6,0.2,1.1,0.7,1.5,1.1l-1.3,1.1c-0.5-0.7-1.3-1-2.1-1c-0.5,0-1,0.1-1.4,0.3c-0.4,0.2-0.7,0.6-1,1
		c-0.5,0.9-0.5,2,0,2.9c0.2,0.4,0.6,0.7,1,1c0.4,0.2,0.9,0.3,1.4,0.3c0.8,0,1.6-0.3,2.1-1l1.3,1.1c-0.4,0.5-0.9,0.9-1.5,1.1
		c-0.7,0.2-1.3,0.4-2,0.4C694.6,697.2,693.7,697,693,696.6z"/>
	<path class="st2" d="M706.3,694.3h-5c0.1,0.4,0.3,0.7,0.7,1c0.4,0.2,0.8,0.4,1.2,0.3c0.3,0,0.7-0.1,0.9-0.2
		c0.2-0.1,0.5-0.2,0.7-0.5l1,1.1c-0.7,0.7-1.7,1.1-2.7,1.1c-0.7,0-1.4-0.2-2-0.4c-0.6-0.2-1-0.7-1.3-1.2c-0.3-0.5-0.5-1.1-0.5-1.7
		c0-0.7,0.2-1.2,0.5-1.7c0.3-0.5,0.7-0.9,1.2-1.2c1.1-0.6,2.4-0.6,3.5,0c0.5,0.2,1,0.7,1.2,1.2c0.3,0.6,0.5,1.1,0.4,1.8
		C706.3,693.9,706.3,694,706.3,694.3z M701.8,692.2c-0.3,0.2-0.5,0.7-0.6,1h3.3c-0.1-0.4-0.2-0.7-0.6-1c-0.3-0.2-0.7-0.4-1.1-0.4
		C702.5,691.8,702.1,692,701.8,692.2L701.8,692.2z"/>
	<path class="st2" d="M713.5,691.2c0.6,0.6,0.8,1.4,0.7,2.2v3.7h-1.9v-3.5c0-0.4-0.1-0.8-0.3-1.1c-0.2-0.2-0.7-0.4-1-0.4
		c-0.4,0-0.8,0.2-1.1,0.4c-0.3,0.4-0.5,0.8-0.4,1.3v3.3h-1.9v-6.6h1.8v0.7c0.2-0.2,0.6-0.5,1-0.7c0.4-0.2,0.8-0.2,1.2-0.2
		C712.3,690.4,713,690.6,713.5,691.2z"/>
	<path class="st2" d="M720.2,696.8c-0.2,0.2-0.4,0.2-0.7,0.3c-0.2,0.1-0.6,0.1-0.9,0.1c-0.7,0.1-1.3-0.2-1.8-0.6
		c-0.5-0.5-0.7-1.1-0.7-1.8v-2.7h-1v-1.5h1V689h1.9v1.6h1.6v1.5h-1.6v2.7c0,0.2,0.1,0.5,0.2,0.7s0.4,0.2,0.6,0.2
		c0.2,0,0.6-0.1,0.7-0.2L720.2,696.8z"/>
	<path class="st2" d="M724,690.7c0.4-0.2,0.9-0.2,1.3-0.2v1.8c-0.2,0-0.3,0-0.4,0c-0.5,0-0.9,0.2-1.3,0.5c-0.3,0.4-0.5,0.9-0.5,1.4
		v3.1h-1.8v-6.6h1.8v0.9C723.4,691,723.7,690.8,724,690.7z"/>
	<path class="st2" d="M727.7,696.7c-0.6-0.2-1-0.7-1.3-1.2c-0.7-1.1-0.7-2.4,0-3.5c0.3-0.5,0.7-0.9,1.3-1.2c1.1-0.6,2.5-0.6,3.7,0
		c0.6,0.2,1,0.7,1.3,1.2c0.7,1.1,0.7,2.4,0,3.5c-0.3,0.5-0.7,0.9-1.3,1.2C730.3,697.3,728.9,697.3,727.7,696.7z M730.8,695.1
		c0.7-0.7,0.7-1.9,0-2.7c-0.3-0.3-0.7-0.5-1.2-0.5s-0.9,0.2-1.2,0.5c-0.7,0.7-0.7,1.9,0,2.7c0.3,0.3,0.7,0.5,1.2,0.5
		C730.1,695.6,730.5,695.4,730.8,695.1z"/>
	<path class="st2" d="M809.5,524.5v8.6h-1.6l-4.2-5.2v5.2h-2v-8.6h1.6l4.2,5.2v-5.2H809.5z"/>
	<path class="st2" d="M818,526.6v6.6h-1.8v-0.8c-0.2,0.2-0.6,0.5-0.9,0.7c-0.3,0.2-0.7,0.2-1.1,0.2c-0.7,0-1.5-0.2-2-0.7
		c-0.6-0.6-0.8-1.4-0.7-2.2v-3.7h1.9v3.4c0,1.1,0.4,1.6,1.3,1.6c0.4,0,0.8-0.2,1.1-0.4c0.3-0.4,0.5-0.8,0.4-1.3v-3.3L818,526.6z"/>
	<path class="st2" d="M826.2,530.4h-5c0.1,0.4,0.3,0.7,0.7,1c0.4,0.2,0.8,0.4,1.2,0.3c0.3,0,0.7-0.1,0.9-0.2
		c0.2-0.1,0.5-0.2,0.7-0.5l1,1.1c-0.7,0.7-1.7,1.1-2.7,1.1c-0.7,0-1.4-0.2-2-0.4c-0.6-0.2-1-0.7-1.3-1.2c-0.3-0.5-0.5-1.1-0.5-1.7
		c0-0.7,0.2-1.2,0.5-1.7c0.3-0.5,0.7-0.9,1.2-1.2c1.1-0.6,2.4-0.6,3.5,0c0.5,0.2,1,0.7,1.2,1.2c0.3,0.6,0.5,1.1,0.4,1.8
		C826.2,529.9,826.2,530.1,826.2,530.4z M821.7,528.3c-0.3,0.2-0.5,0.7-0.6,1h3.3c-0.1-0.4-0.2-0.7-0.6-1s-0.7-0.4-1.1-0.4
		C822.4,527.9,822.1,528,821.7,528.3L821.7,528.3z"/>
	<path class="st2" d="M833.9,526.6l-2.8,6.6h-2l-2.8-6.6h2l1.8,4.5l1.9-4.5H833.9z"/>
	<path class="st2" d="M839.5,527.2c0.6,0.6,0.9,1.4,0.8,2.2v3.7h-1.8v-0.8c-0.4,0.7-1.2,1-2,0.9c-0.5,0-0.9-0.1-1.3-0.2
		c-0.3-0.2-0.7-0.4-0.8-0.7c-0.2-0.3-0.3-0.7-0.3-1.1c0-0.6,0.2-1.1,0.7-1.5c0.7-0.4,1.4-0.6,2.1-0.5h1.5c0-0.3-0.1-0.7-0.4-1
		s-0.7-0.4-1.1-0.3c-0.3,0-0.7,0.1-1.1,0.2c-0.3,0.1-0.6,0.2-0.9,0.4l-0.7-1.3c0.4-0.2,0.8-0.5,1.3-0.6c0.5-0.2,1.1-0.2,1.5-0.2
		C838,526.4,838.8,526.7,839.5,527.2z M837.9,531.7c0.2-0.2,0.4-0.4,0.6-0.7v-0.7h-1.4c-0.8,0-1.1,0.2-1.1,0.7
		c0,0.2,0.1,0.4,0.3,0.6s0.5,0.2,0.8,0.2C837.3,532,837.5,531.9,837.9,531.7L837.9,531.7z"/>
	<path class="st2" d="M792.2,540.8h-2.8v-1.6h7.5v1.6h-2.8v6.9h-2V540.8z"/>
	<path class="st2" d="M798.5,547.4c-0.6-0.2-1-0.7-1.3-1.2c-0.7-1.1-0.7-2.4,0-3.5c0.3-0.5,0.7-0.9,1.3-1.2c1.1-0.6,2.5-0.6,3.7,0
		c0.6,0.2,1,0.7,1.3,1.2c0.7,1.1,0.7,2.4,0,3.5c-0.3,0.5-0.7,0.9-1.3,1.2C801,548,799.7,548,798.5,547.4z M801.5,545.8
		c0.7-0.7,0.7-1.9,0-2.7c-0.3-0.3-0.7-0.5-1.2-0.5s-0.9,0.2-1.2,0.5c-0.7,0.7-0.7,1.9,0,2.7c0.3,0.3,0.7,0.5,1.2,0.5
		C800.8,546.4,801.2,546.1,801.5,545.8z"/>
	<path class="st2" d="M808,541.4c0.4-0.2,0.9-0.2,1.3-0.2v1.8c-0.2,0-0.3,0-0.4,0c-0.5,0-0.9,0.2-1.3,0.5c-0.3,0.4-0.5,0.9-0.5,1.4
		v3.1h-1.9v-6.6h1.8v0.9C807.3,541.7,807.6,541.5,808,541.4z"/>
	<path class="st2" d="M813.2,541.4c0.4-0.2,0.9-0.2,1.3-0.2v1.8c-0.2,0-0.3,0-0.4,0c-0.5,0-0.9,0.2-1.3,0.5
		c-0.3,0.4-0.5,0.9-0.5,1.4v3.1h-1.9v-6.6h1.8v0.9C812.5,541.7,812.9,541.5,813.2,541.4z"/>
	<path class="st2" d="M822,545.1h-5c0.1,0.4,0.3,0.7,0.7,1c0.4,0.2,0.8,0.4,1.2,0.3c0.3,0,0.7-0.1,0.9-0.2c0.2-0.1,0.5-0.2,0.7-0.5
		l1,1.1c-0.7,0.7-1.7,1.1-2.7,1.1c-0.7,0-1.4-0.2-2-0.4s-1-0.7-1.3-1.2c-0.3-0.5-0.5-1.1-0.5-1.7c0-0.7,0.2-1.2,0.5-1.7
		c0.3-0.5,0.7-0.9,1.2-1.2c1.1-0.6,2.4-0.6,3.5,0c0.5,0.2,1,0.7,1.2,1.2c0.3,0.6,0.5,1.1,0.4,1.8C822.1,544.6,822.1,544.8,822,545.1
		z M817.6,543c-0.3,0.2-0.5,0.7-0.6,1h3.3c-0.1-0.4-0.2-0.7-0.6-1s-0.7-0.4-1.1-0.4S817.8,542.7,817.6,543L817.6,543z"/>
	<path class="st2" d="M829.7,541.2l-2.8,6.6h-2l-2.8-6.6h2l1.8,4.5l1.9-4.5H829.7z"/>
	<path class="st2" d="M830.6,540c-0.4-0.4-0.4-1.1-0.1-1.5c0,0,0,0,0.1-0.1c0.2-0.2,0.6-0.3,0.8-0.3c0.3,0,0.7,0.1,0.8,0.3
		c0.2,0.2,0.3,0.5,0.3,0.7c0,0.3-0.1,0.6-0.3,0.8c-0.2,0.2-0.6,0.3-0.8,0.3C831.1,540.4,830.9,540.2,830.6,540z M830.5,541.2h1.9
		v6.6h-1.9V541.2z"/>
	<path class="st2" d="M840.6,545.1h-5c0.1,0.4,0.3,0.7,0.7,1c0.4,0.2,0.8,0.4,1.2,0.3c0.3,0,0.7-0.1,0.9-0.2
		c0.2-0.1,0.5-0.2,0.7-0.5l1,1.1c-0.7,0.7-1.7,1.1-2.7,1.1c-0.7,0-1.4-0.2-2-0.4s-1-0.7-1.3-1.2c-0.3-0.5-0.5-1.1-0.5-1.7
		c0-0.7,0.2-1.2,0.5-1.7c0.3-0.5,0.7-0.9,1.2-1.2c1.1-0.6,2.4-0.6,3.5,0c0.5,0.2,1,0.7,1.2,1.2c0.3,0.6,0.5,1.1,0.4,1.8
		C840.6,544.6,840.6,544.8,840.6,545.1z M836.2,543c-0.3,0.2-0.5,0.7-0.6,1h3.3c-0.1-0.4-0.2-0.7-0.6-1s-0.7-0.4-1.1-0.4
		C836.8,542.6,836.4,542.7,836.2,543L836.2,543z"/>
	<path class="st2" d="M839.9,549.9l0.5-1.4c0.2,0.2,0.5,0.2,0.8,0.2c0.2,0,0.4-0.1,0.6-0.2c0.2-0.2,0.2-0.5,0.2-0.7v-6.6h1.9v6.6
		c0,0.7-0.2,1.3-0.7,1.8c-0.5,0.5-1.1,0.7-1.8,0.7C840.9,550.3,840.3,550.2,839.9,549.9z M842.1,540c-0.4-0.4-0.4-1.1-0.1-1.5
		c0,0,0,0,0.1-0.1c0.2-0.2,0.6-0.3,0.9-0.3c0.3,0,0.7,0.1,0.8,0.3c0.2,0.2,0.3,0.5,0.3,0.7c0,0.3-0.1,0.6-0.3,0.8
		c-0.2,0.2-0.6,0.3-0.8,0.3C842.6,540.4,842.3,540.2,842.1,540L842.1,540z"/>
	<path class="st2" d="M850.7,541.8c0.6,0.6,0.9,1.4,0.8,2.2v3.7h-1.8V547c-0.4,0.7-1.2,1-2,0.9c-0.5,0-0.9-0.1-1.3-0.2
		c-0.3-0.2-0.7-0.4-0.8-0.7c-0.2-0.3-0.3-0.7-0.3-1.1c0-0.6,0.2-1.1,0.7-1.5c0.7-0.4,1.4-0.6,2.1-0.5h1.5c0-0.3-0.1-0.7-0.4-1
		s-0.7-0.4-1.1-0.3c-0.3,0-0.7,0.1-1.1,0.2c-0.3,0.1-0.6,0.2-0.9,0.4l-0.7-1.3c0.4-0.2,0.8-0.5,1.3-0.6c0.5-0.2,1.1-0.2,1.5-0.2
		C849.1,541.1,850,541.3,850.7,541.8z M849,546.4c0.2-0.2,0.4-0.4,0.6-0.7v-0.7h-1.3c-0.8,0-1.1,0.2-1.1,0.7c0,0.2,0.1,0.4,0.3,0.6
		s0.5,0.2,0.8,0.2C848.5,546.6,848.8,546.5,849,546.4L849,546.4z"/>
	<path class="st2" d="M401.3,441.7h2v6.9h4.3v1.6h-6.3V441.7z"/>
	<path class="st2" d="M413.6,444.3c0.6,0.6,0.9,1.4,0.8,2.2v3.7h-1.8v-0.8c-0.4,0.7-1.2,1-2,0.9c-0.5,0-0.9-0.1-1.3-0.2
		c-0.3-0.2-0.7-0.4-0.8-0.7c-0.2-0.3-0.3-0.7-0.3-1.1c0-0.6,0.2-1.1,0.7-1.5c0.7-0.4,1.4-0.6,2.1-0.5h1.5c0-0.3-0.1-0.7-0.4-1
		s-0.7-0.4-1.1-0.3c-0.3,0-0.7,0.1-1.1,0.2c-0.3,0.1-0.6,0.2-0.9,0.4l-0.7-1.3c0.4-0.2,0.8-0.5,1.3-0.6c0.5-0.2,1.1-0.2,1.5-0.2
		C412.1,443.6,413,443.8,413.6,444.3z M412,448.9c0.2-0.2,0.4-0.4,0.6-0.7v-0.7h-1.3c-0.8,0-1.1,0.2-1.1,0.7c0,0.2,0.1,0.4,0.3,0.6
		c0.2,0.2,0.5,0.2,0.8,0.2C411.4,449.1,411.7,449,412,448.9z"/>
	<path class="st2" d="M423,443.7v5.5c0.1,1-0.2,2-1,2.7c-0.7,0.7-1.8,1-2.8,0.9c-0.6,0-1.2-0.1-1.8-0.2c-0.5-0.2-1-0.3-1.4-0.7
		l0.7-1.4c0.3,0.2,0.7,0.4,1.1,0.6c0.4,0.2,0.8,0.2,1.3,0.2c0.5,0.1,1.1-0.1,1.5-0.4c0.3-0.3,0.5-0.8,0.5-1.4v-0.2
		c-0.6,0.6-1.3,0.9-2.1,0.8c-0.6,0-1.1-0.2-1.6-0.4c-0.5-0.2-0.9-0.7-1.2-1.1c-0.6-1.1-0.6-2.3,0-3.3c0.3-0.5,0.7-0.9,1.2-1.1
		c0.5-0.2,1.1-0.4,1.6-0.4c0.8-0.1,1.6,0.3,2.2,1v-0.8L423,443.7z M420.6,448c0.7-0.7,0.7-1.7,0-2.4c-0.3-0.3-0.8-0.5-1.2-0.4
		c-0.5,0-0.9,0.2-1.2,0.4c-0.7,0.7-0.7,1.6,0,2.3l0,0c0.3,0.3,0.8,0.5,1.2,0.4C419.8,448.4,420.3,448.2,420.6,448L420.6,448z"/>
	<path class="st2" d="M431.4,443.7v6.6h-1.8v-0.8c-0.2,0.2-0.6,0.5-0.9,0.7c-0.3,0.2-0.7,0.2-1.1,0.2c-0.7,0-1.5-0.2-2-0.7
		c-0.6-0.6-0.8-1.4-0.7-2.2v-3.7h1.9v3.4c0,1.1,0.4,1.6,1.3,1.6c0.4,0,0.8-0.2,1.1-0.4c0.3-0.4,0.5-0.8,0.4-1.3v-3.3L431.4,443.7z"
		/>
	<path class="st2" d="M439.1,444.3c0.6,0.6,0.8,1.4,0.7,2.2v3.7H438v-3.5c0-0.4-0.1-0.8-0.3-1.1c-0.2-0.2-0.7-0.4-1-0.4
		c-0.4,0-0.8,0.2-1.1,0.4c-0.3,0.4-0.5,0.8-0.4,1.3v3.3h-1.9v-6.6h1.8v0.7c0.2-0.2,0.6-0.5,1-0.7c0.4-0.2,0.8-0.2,1.2-0.2
		C437.9,443.6,438.6,443.8,439.1,444.3z"/>
	<path class="st2" d="M446.6,444.3c0.6,0.6,0.9,1.4,0.8,2.2v3.7h-1.8v-0.8c-0.4,0.7-1.2,1-2,0.9c-0.5,0-0.9-0.1-1.3-0.2
		c-0.3-0.2-0.7-0.4-0.8-0.7c-0.2-0.3-0.3-0.7-0.3-1.1c0-0.6,0.2-1.1,0.7-1.5c0.7-0.4,1.4-0.6,2.1-0.5h1.5c0-0.3-0.1-0.7-0.4-1
		s-0.7-0.4-1.1-0.3c-0.3,0-0.7,0.1-1.1,0.2c-0.3,0.1-0.6,0.2-0.9,0.4l-0.7-1.3c0.4-0.2,0.8-0.5,1.3-0.6c0.5-0.2,1.1-0.2,1.5-0.2
		C445.1,443.6,446,443.8,446.6,444.3z M445,448.9c0.2-0.2,0.4-0.4,0.6-0.7v-0.7h-1.3c-0.8,0-1.1,0.2-1.1,0.7c0,0.2,0.1,0.4,0.3,0.6
		s0.5,0.2,0.8,0.2C444.4,449.1,444.7,449,445,448.9z"/>
	<path class="st2" d="M459.3,441.2v9h-1.8v-0.7c-0.5,0.6-1.3,0.9-2,0.8c-0.6,0-1.1-0.2-1.7-0.4c-0.5-0.2-0.9-0.7-1.1-1.2
		c-0.6-1.1-0.6-2.4,0-3.6c0.2-0.5,0.7-0.9,1.1-1.2c0.5-0.2,1.1-0.4,1.7-0.4c0.7,0,1.5,0.2,2,0.8v-3.2L459.3,441.2z M457,448.3
		c0.7-0.7,0.7-1.9,0-2.7c-0.7-0.7-1.7-0.7-2.4,0c-0.7,0.7-0.7,1.9,0,2.7C455.3,448.9,456.3,448.9,457,448.3z"/>
	<path class="st2" d="M467.5,447.6h-5c0.1,0.4,0.3,0.7,0.7,1c0.4,0.2,0.8,0.4,1.2,0.3c0.3,0,0.7-0.1,0.9-0.2
		c0.2-0.1,0.5-0.2,0.7-0.5l1,1.1c-0.7,0.7-1.7,1.1-2.7,1.1c-0.7,0-1.4-0.2-2-0.4c-0.6-0.2-1-0.7-1.3-1.2c-0.3-0.5-0.5-1.1-0.5-1.7
		c0-0.7,0.2-1.2,0.5-1.7s0.7-0.9,1.2-1.2c1.1-0.6,2.4-0.6,3.5,0c0.5,0.2,1,0.7,1.2,1.2c0.3,0.6,0.5,1.1,0.4,1.8
		C467.5,447.1,467.5,447.2,467.5,447.6z M463,445.4c-0.3,0.2-0.5,0.7-0.6,1h3.3c-0.1-0.4-0.2-0.7-0.6-1c-0.3-0.2-0.7-0.4-1.1-0.4
		C463.7,445,463.3,445.2,463,445.4z"/>
	<path class="st2" d="M405.5,458h-2.8v-1.6h7.4v1.6h-2.8v6.9h-2L405.5,458z"/>
	<path class="st2" d="M411.7,464.6c-0.6-0.2-1-0.7-1.3-1.2c-0.7-1.1-0.7-2.4,0-3.5c0.3-0.5,0.7-0.9,1.3-1.2c1.1-0.6,2.5-0.6,3.7,0
		c0.6,0.2,1,0.7,1.3,1.2c0.7,1.1,0.7,2.4,0,3.5c-0.3,0.5-0.7,0.9-1.3,1.2C414.3,465.1,412.9,465.1,411.7,464.6z M414.8,462.9
		c0.7-0.7,0.7-1.9,0-2.7c-0.3-0.3-0.7-0.5-1.2-0.5s-0.9,0.2-1.2,0.5c-0.7,0.7-0.7,1.9,0,2.7c0.3,0.3,0.7,0.5,1.2,0.5
		S414.4,463.3,414.8,462.9L414.8,462.9z"/>
	<path class="st2" d="M421.2,458.5c0.4-0.2,0.9-0.2,1.3-0.2v1.8c-0.2,0-0.3,0-0.4,0c-0.5,0-0.9,0.2-1.3,0.5
		c-0.3,0.4-0.5,0.9-0.5,1.4v3.1h-1.9v-6.6h1.8v0.9C420.5,458.9,420.8,458.6,421.2,458.5z"/>
	<path class="st2" d="M426.4,458.5c0.4-0.2,0.9-0.2,1.3-0.2v1.8c-0.2,0-0.3,0-0.4,0c-0.5,0-0.9,0.2-1.3,0.5
		c-0.3,0.4-0.5,0.9-0.5,1.4v3.1h-1.9v-6.6h1.8v0.9C425.7,458.9,426,458.6,426.4,458.5z"/>
	<path class="st2" d="M435.2,462.2h-5c0.1,0.4,0.3,0.7,0.7,1c0.4,0.2,0.8,0.4,1.2,0.3c0.3,0,0.7-0.1,0.9-0.2s0.5-0.2,0.7-0.5l1,1.1
		c-0.7,0.7-1.7,1.1-2.7,1.1c-0.7,0-1.4-0.2-2-0.4s-1-0.7-1.3-1.2c-0.3-0.5-0.5-1.1-0.5-1.7c0-0.7,0.2-1.2,0.5-1.7
		c0.3-0.5,0.7-0.9,1.2-1.2c1.1-0.6,2.4-0.6,3.5,0c0.5,0.2,1,0.7,1.2,1.2c0.3,0.6,0.5,1.1,0.4,1.8
		C435.2,461.7,435.2,461.9,435.2,462.2z M430.7,460.1c-0.3,0.2-0.5,0.7-0.6,1h3.3c-0.1-0.4-0.2-0.7-0.6-1c-0.3-0.2-0.7-0.4-1.1-0.4
		C431.5,459.7,431.1,459.9,430.7,460.1z"/>
	<path class="st2" d="M443,458.4l-2.8,6.6h-2l-2.8-6.6h2l1.8,4.5l1.9-4.5H443z"/>
	<path class="st2" d="M443.8,457.2c-0.4-0.4-0.4-1.1-0.1-1.5c0,0,0,0,0.1-0.1c0.2-0.2,0.6-0.3,0.8-0.3c0.3,0,0.7,0.1,0.8,0.3
		c0.2,0.2,0.3,0.5,0.3,0.7c0,0.3-0.1,0.6-0.3,0.8s-0.6,0.3-0.8,0.3C444.3,457.5,444,457.3,443.8,457.2z M443.7,458.4h1.9v6.6h-1.9
		V458.4z"/>
	<path class="st2" d="M453.8,462.2h-5c0.1,0.4,0.3,0.7,0.7,1c0.4,0.2,0.8,0.4,1.2,0.3c0.3,0,0.7-0.1,0.9-0.2
		c0.2-0.1,0.5-0.2,0.7-0.5l1,1.1c-0.7,0.7-1.7,1.1-2.7,1.1c-0.7,0-1.4-0.2-2-0.4c-0.6-0.2-1-0.7-1.3-1.2c-0.3-0.5-0.5-1.1-0.5-1.7
		c0-0.7,0.2-1.2,0.5-1.7c0.3-0.5,0.7-0.9,1.2-1.2c1.1-0.6,2.4-0.6,3.5,0c0.5,0.2,1,0.7,1.2,1.2c0.3,0.6,0.5,1.1,0.4,1.8
		C453.8,461.7,453.8,461.9,453.8,462.2z M449.3,460.1c-0.3,0.2-0.5,0.7-0.6,1h3.3c-0.1-0.4-0.2-0.7-0.6-1c-0.3-0.2-0.7-0.4-1.1-0.4
		C450,459.7,449.6,459.9,449.3,460.1L449.3,460.1z"/>
	<path class="st2" d="M453.1,467l0.5-1.4c0.2,0.2,0.5,0.2,0.8,0.2c0.2,0,0.4-0.1,0.6-0.2c0.2-0.2,0.2-0.5,0.2-0.7v-6.6h1.9v6.6
		c0,0.7-0.2,1.3-0.7,1.8c-0.5,0.5-1.1,0.7-1.8,0.7C454,467.4,453.5,467.3,453.1,467z M455.3,457.2c-0.4-0.4-0.4-1.1-0.1-1.5
		c0,0,0,0,0.1-0.1c0.2-0.2,0.6-0.3,0.9-0.3s0.7,0.1,0.8,0.3c0.2,0.2,0.3,0.5,0.3,0.7c0,0.3-0.1,0.6-0.3,0.8
		c-0.2,0.2-0.6,0.3-0.8,0.3C455.8,457.5,455.5,457.3,455.3,457.2L455.3,457.2z"/>
	<path class="st2" d="M463.8,459c0.6,0.6,0.9,1.4,0.8,2.2v3.7h-1.8v-0.8c-0.4,0.7-1.2,1-2,0.9c-0.5,0-0.9-0.1-1.3-0.2
		c-0.3-0.2-0.7-0.4-0.8-0.7c-0.2-0.3-0.3-0.7-0.3-1.1c0-0.6,0.2-1.1,0.7-1.5c0.7-0.4,1.4-0.6,2.1-0.5h1.5c0-0.3-0.1-0.7-0.4-1
		c-0.3-0.2-0.7-0.4-1.1-0.3c-0.3,0-0.7,0.1-1.1,0.2s-0.6,0.2-0.9,0.4l-0.7-1.3c0.4-0.2,0.8-0.5,1.3-0.6c0.5-0.2,1.1-0.2,1.5-0.2
		C462.3,458.2,463.2,458.5,463.8,459z M462.2,463.5c0.2-0.2,0.4-0.4,0.6-0.7v-0.7h-1.3c-0.8,0-1.1,0.2-1.1,0.7
		c0,0.2,0.1,0.4,0.3,0.6s0.5,0.2,0.8,0.2C461.7,463.8,461.9,463.7,462.2,463.5L462.2,463.5z"/>
	<path class="st2" d="M399.3,769.6h2v6.9h4.3v1.6h-6.3V769.6z"/>
	<path class="st2" d="M407.8,777.9c-0.6-0.2-1-0.7-1.3-1.2c-0.7-1.1-0.7-2.4,0-3.5c0.3-0.5,0.7-0.9,1.3-1.2c1.1-0.6,2.5-0.6,3.7,0
		c0.6,0.2,1,0.7,1.3,1.2c0.7,1.1,0.7,2.4,0,3.5c-0.3,0.5-0.7,0.9-1.3,1.2C410.3,778.4,408.9,778.4,407.8,777.9z M410.9,776.2
		c0.7-0.7,0.7-1.9,0-2.7c-0.3-0.3-0.7-0.5-1.2-0.5c-0.5,0-0.9,0.2-1.2,0.5c-0.7,0.7-0.7,1.9,0,2.7c0.3,0.3,0.7,0.5,1.2,0.5
		C410,776.7,410.5,776.6,410.9,776.2L410.9,776.2z"/>
	<path class="st2" d="M415.1,778.1c-0.4-0.1-0.9-0.2-1.2-0.5l0.7-1.4c0.3,0.2,0.7,0.3,1.1,0.5c0.4,0.1,0.8,0.2,1.2,0.2
		c0.8,0,1.2-0.2,1.2-0.6c0-0.2-0.2-0.3-0.3-0.4c-0.3-0.1-0.7-0.2-1-0.2c-0.5-0.1-0.9-0.2-1.3-0.2c-0.3-0.1-0.7-0.3-0.9-0.6
		c-0.2-0.3-0.4-0.7-0.4-1.1c0-0.4,0.1-0.8,0.3-1.1c0.2-0.3,0.7-0.6,1.1-0.7c0.5-0.2,1.1-0.2,1.6-0.2c0.5,0,0.9,0.1,1.4,0.2
		c0.4,0.1,0.8,0.2,1.1,0.4l-0.7,1.4c-0.6-0.3-1.2-0.5-1.9-0.5c-0.3,0-0.7,0-0.9,0.2c-0.2,0.1-0.3,0.2-0.3,0.4s0.2,0.4,0.3,0.4
		c0.3,0.1,0.7,0.2,1.1,0.2c0.4,0.1,0.9,0.2,1.3,0.3c0.3,0.1,0.7,0.3,0.9,0.6c0.2,0.3,0.4,0.7,0.4,1.1s-0.2,0.8-0.3,1.1
		c-0.2,0.3-0.7,0.6-1.1,0.7c-0.6,0.2-1.1,0.2-1.6,0.2C416.1,778.3,415.7,778.2,415.1,778.1z"/>
	<path class="st2" d="M432,774.5c0.2,0.4,0.4,0.9,0.4,1.3c0,0.7-0.3,1.4-0.9,1.7c-0.7,0.5-1.6,0.7-2.5,0.6h-4.4v-8.6h4.2
		c0.8-0.1,1.7,0.2,2.4,0.6c0.6,0.3,0.8,1,0.8,1.6c0,0.8-0.4,1.5-1.1,1.9C431.3,773.9,431.7,774.1,432,774.5z M426.6,771.1v2h2
		c0.4,0,0.8-0.1,1.1-0.2c0.2-0.2,0.4-0.5,0.4-0.7c0-0.3-0.2-0.6-0.4-0.7c-0.3-0.2-0.7-0.2-1.1-0.2L426.6,771.1z M430,776.5
		c0.2-0.2,0.4-0.5,0.4-0.8c0-0.7-0.5-1.1-1.5-1.1h-2.3v2.1h2.3C429.3,776.7,429.7,776.6,430,776.5z"/>
	<path class="st2" d="M438.8,772.2c0.6,0.6,0.9,1.4,0.8,2.2v3.7h-1.8v-0.8c-0.4,0.7-1.2,1-2,0.9c-0.5,0-0.9-0.1-1.3-0.2
		c-0.3-0.2-0.7-0.4-0.8-0.7s-0.3-0.7-0.3-1.1c0-0.6,0.2-1.1,0.7-1.5c0.7-0.4,1.4-0.6,2.1-0.5h1.5c0-0.3-0.1-0.7-0.4-1
		s-0.7-0.4-1.1-0.3c-0.3,0-0.7,0.1-1.1,0.2s-0.6,0.2-0.9,0.4l-0.7-1.3c0.4-0.2,0.8-0.5,1.3-0.6c0.5-0.2,1.1-0.2,1.5-0.2
		C437.2,771.4,438.1,771.7,438.8,772.2z M437.2,776.8c0.2-0.2,0.4-0.4,0.6-0.7v-0.7h-1.3c-0.8,0-1.1,0.2-1.1,0.7
		c0,0.2,0.1,0.4,0.3,0.6c0.2,0.2,0.5,0.2,0.8,0.2C436.6,777,436.9,777,437.2,776.8z"/>
	<path class="st2" d="M441.3,769.1h1.9v9h-1.9V769.1z"/>
	<path class="st2" d="M446.3,777.9c-0.6-0.2-1-0.7-1.3-1.2c-0.7-1.1-0.7-2.4,0-3.5c0.3-0.5,0.7-0.9,1.3-1.2s1.2-0.4,1.9-0.4
		s1.2,0.2,1.8,0.4c0.5,0.2,0.9,0.7,1.1,1.2l-1.5,0.8c-0.2-0.6-0.8-0.9-1.5-0.9c-0.5,0-0.9,0.2-1.2,0.5c-0.7,0.7-0.7,1.9,0,2.7
		c0.3,0.3,0.7,0.5,1.2,0.5c0.7,0,1.2-0.3,1.5-0.9l1.5,0.8c-0.2,0.5-0.7,1-1.1,1.2c-0.6,0.3-1.1,0.5-1.8,0.4
		C447.5,778.3,446.9,778.2,446.3,777.9z"/>
	<path class="st2" d="M453.4,777.9c-0.6-0.2-1-0.7-1.3-1.2c-0.7-1.1-0.7-2.4,0-3.5c0.3-0.5,0.7-0.9,1.3-1.2c1.1-0.6,2.5-0.6,3.7,0
		c0.6,0.2,1,0.7,1.3,1.2c0.7,1.1,0.7,2.4,0,3.5c-0.3,0.5-0.7,0.9-1.3,1.2C456,778.4,454.6,778.4,453.4,777.9z M456.5,776.2
		c0.7-0.7,0.7-1.9,0-2.7c-0.3-0.3-0.7-0.5-1.2-0.5s-0.9,0.2-1.2,0.5c-0.7,0.7-0.7,1.9,0,2.7c0.3,0.3,0.7,0.5,1.2,0.5
		C455.7,776.7,456.2,776.6,456.5,776.2L456.5,776.2z"/>
	<path class="st2" d="M466.1,772.2c0.6,0.6,0.8,1.4,0.7,2.2v3.7H465v-3.5c0-0.4-0.1-0.8-0.3-1.1c-0.2-0.2-0.7-0.4-1-0.4
		c-0.4,0-0.8,0.2-1.1,0.4c-0.3,0.4-0.5,0.8-0.4,1.3v3.3h-1.9v-6.6h1.8v0.7c0.2-0.2,0.6-0.5,1-0.7s0.8-0.2,1.2-0.2
		C464.9,771.5,465.6,771.7,466.1,772.2z"/>
	<path class="st2" d="M475.1,775.4h-5c0.1,0.4,0.3,0.7,0.7,1c0.4,0.2,0.8,0.4,1.2,0.3c0.3,0,0.7-0.1,0.9-0.2
		c0.2-0.1,0.5-0.2,0.7-0.5l1,1.1c-0.7,0.7-1.7,1.1-2.7,1.1c-0.7,0-1.4-0.2-2-0.4c-0.6-0.2-1-0.7-1.3-1.2c-0.3-0.5-0.5-1.1-0.5-1.7
		c0-0.7,0.2-1.2,0.5-1.7s0.7-0.9,1.2-1.2c1.1-0.6,2.4-0.6,3.5,0c0.5,0.2,1,0.7,1.2,1.2c0.3,0.6,0.5,1.1,0.4,1.8
		C475.1,774.9,475.1,775.1,475.1,775.4z M470.6,773.3c-0.3,0.2-0.5,0.7-0.6,1h3.3c-0.1-0.4-0.2-0.7-0.6-1c-0.3-0.2-0.7-0.4-1.1-0.4
		C471.3,773,470.9,773.1,470.6,773.3L470.6,773.3z"/>
	<path class="st2" d="M477,778.1c-0.4-0.1-0.9-0.2-1.2-0.5l0.7-1.4c0.3,0.2,0.7,0.3,1.1,0.5c0.4,0.1,0.8,0.2,1.2,0.2
		c0.8,0,1.2-0.2,1.2-0.6c0-0.2-0.2-0.3-0.3-0.4c-0.3-0.1-0.7-0.2-1-0.2c-0.5-0.1-0.9-0.2-1.3-0.2c-0.3-0.1-0.7-0.3-0.9-0.6
		c-0.2-0.3-0.4-0.7-0.4-1.1c0-0.4,0.1-0.8,0.3-1.1s0.7-0.6,1.1-0.7c0.5-0.2,1.1-0.2,1.6-0.2c0.5,0,0.9,0.1,1.4,0.2
		c0.4,0.1,0.8,0.2,1.1,0.4l-0.7,1.4c-0.6-0.3-1.2-0.5-1.9-0.5c-0.3,0-0.7,0-0.9,0.2c-0.2,0.1-0.3,0.2-0.3,0.4s0.2,0.4,0.3,0.4
		c0.3,0.1,0.7,0.2,1.1,0.2c0.4,0.1,0.9,0.2,1.3,0.3c0.3,0.1,0.7,0.3,0.9,0.6c0.2,0.3,0.4,0.7,0.4,1.1s-0.2,0.8-0.4,1.1
		c-0.2,0.3-0.7,0.6-1.1,0.7c-0.6,0.2-1.1,0.2-1.6,0.2C478.1,778.3,477.5,778.2,477,778.1z"/>
	<path class="st2" d="M486.1,773.9h3.4v1.5h-3.4V773.9z"/>
	<path class="st2" d="M386.2,784.3h2v6.9h4.3v1.6h-6.3V784.3z"/>
	<path class="st2" d="M394.7,792.5c-0.6-0.2-1-0.7-1.3-1.2c-0.7-1.1-0.7-2.4,0-3.5c0.3-0.5,0.7-0.9,1.3-1.2c1.1-0.6,2.5-0.6,3.7,0
		c0.6,0.2,1,0.7,1.3,1.2c0.7,1.1,0.7,2.4,0,3.5c-0.3,0.5-0.7,0.9-1.3,1.2C397.2,793.1,395.9,793.1,394.7,792.5z M397.8,790.9
		c0.7-0.7,0.7-1.9,0-2.7c-0.3-0.3-0.7-0.5-1.2-0.5s-0.9,0.2-1.2,0.5c-0.7,0.7-0.7,1.9,0,2.7c0.3,0.3,0.7,0.5,1.2,0.5
		C397.1,791.4,397.5,791.2,397.8,790.9z"/>
	<path class="st2" d="M402.1,792.8c-0.4-0.1-0.9-0.2-1.2-0.5l0.7-1.4c0.3,0.2,0.7,0.3,1.1,0.5c0.4,0.1,0.8,0.2,1.2,0.2
		c0.8,0,1.2-0.2,1.2-0.6c0-0.2-0.2-0.3-0.3-0.4c-0.3-0.1-0.7-0.2-1-0.2c-0.5-0.1-0.9-0.2-1.3-0.2c-0.3-0.1-0.7-0.3-0.9-0.6
		c-0.2-0.3-0.4-0.7-0.4-1.1c0-0.4,0.1-0.8,0.3-1.1c0.2-0.3,0.7-0.6,1.1-0.7c0.5-0.2,1.1-0.2,1.6-0.2c0.5,0,0.9,0.1,1.4,0.2
		c0.4,0.1,0.8,0.2,1.1,0.4l-0.7,1.4c-0.6-0.3-1.2-0.5-1.9-0.5c-0.3,0-0.7,0-0.9,0.2c-0.2,0.1-0.3,0.2-0.3,0.4s0.2,0.4,0.3,0.4
		c0.3,0.1,0.7,0.2,1.1,0.2c0.4,0.1,0.9,0.2,1.3,0.3c0.3,0.1,0.7,0.3,0.9,0.6c0.2,0.3,0.4,0.7,0.4,1.1c0,0.4-0.2,0.8-0.3,1.1
		c-0.2,0.3-0.7,0.6-1.1,0.7c-0.6,0.2-1.1,0.2-1.6,0.2C403.1,792.9,402.6,792.8,402.1,792.8z"/>
	<path class="st2" d="M417.2,791.1h-4l-0.7,1.9h-2l3.8-8.6h2l3.8,8.6h-2.1L417.2,791.1z M416.6,789.5l-1.4-3.3l-1.4,3.3H416.6z"/>
	<path class="st2" d="M420.8,783.8h1.9v9h-1.9V783.8z"/>
	<path class="st2" d="M429.2,792.5c-0.2,0.2-0.4,0.2-0.7,0.3s-0.6,0.1-0.9,0.1c-0.7,0.1-1.3-0.2-1.8-0.6c-0.5-0.5-0.7-1.1-0.7-1.8
		v-2.7h-1v-1.5h1v-1.6h1.9v1.6h1.6v1.5h-1.6v2.7c0,0.2,0.1,0.5,0.2,0.7c0.2,0.2,0.4,0.2,0.6,0.2c0.2,0,0.6-0.1,0.7-0.2L429.2,792.5z
		"/>
	<path class="st2" d="M431.3,792.5c-0.6-0.2-1-0.7-1.3-1.2c-0.7-1.1-0.7-2.4,0-3.5c0.3-0.5,0.7-0.9,1.3-1.2c1.1-0.6,2.5-0.6,3.7,0
		c0.6,0.2,1,0.7,1.3,1.2c0.7,1.1,0.7,2.4,0,3.5c-0.3,0.5-0.7,0.9-1.3,1.2C433.8,793.1,432.4,793.1,431.3,792.5z M434.4,790.9
		c0.7-0.7,0.7-1.9,0-2.7c-0.3-0.3-0.7-0.5-1.2-0.5c-0.5,0-0.9,0.2-1.2,0.5c-0.7,0.7-0.7,1.9,0,2.7c0.3,0.3,0.7,0.5,1.2,0.5
		C433.6,791.4,434.1,791.2,434.4,790.9z"/>
	<path class="st2" d="M438.6,792.8c-0.4-0.1-0.9-0.2-1.2-0.5l0.7-1.4c0.3,0.2,0.7,0.3,1.1,0.5c0.4,0.1,0.8,0.2,1.2,0.2
		c0.8,0,1.2-0.2,1.2-0.6c0-0.2-0.2-0.3-0.3-0.4c-0.3-0.1-0.7-0.2-1-0.2c-0.5-0.1-0.9-0.2-1.3-0.2c-0.3-0.1-0.7-0.3-0.9-0.6
		c-0.2-0.3-0.4-0.7-0.4-1.1c0-0.4,0.1-0.8,0.3-1.1s0.7-0.6,1.1-0.7c0.5-0.2,1.1-0.2,1.6-0.2c0.5,0,0.9,0.1,1.4,0.2
		c0.4,0.1,0.8,0.2,1.1,0.4l-0.7,1.4c-0.6-0.3-1.2-0.5-1.9-0.5c-0.3,0-0.7,0-0.9,0.2c-0.2,0.1-0.3,0.2-0.3,0.4s0.2,0.4,0.3,0.4
		c0.3,0.1,0.7,0.2,1.1,0.2c0.4,0.1,0.9,0.2,1.3,0.3c0.3,0.1,0.7,0.3,0.9,0.6c0.2,0.3,0.4,0.7,0.4,1.1c0,0.4-0.2,0.8-0.4,1.1
		c-0.2,0.3-0.7,0.6-1.1,0.7c-0.6,0.2-1.1,0.2-1.6,0.2C439.7,792.9,439.2,792.8,438.6,792.8z"/>
	<path class="st2" d="M454.7,783.8v9h-1.8v-0.7c-0.5,0.6-1.3,0.9-2,0.9c-0.6,0-1.1-0.2-1.7-0.4c-0.5-0.2-0.9-0.7-1.1-1.2
		c-0.6-1.1-0.6-2.4,0-3.6c0.2-0.5,0.7-0.9,1.1-1.2c0.5-0.2,1.1-0.4,1.7-0.4c0.7,0,1.5,0.2,2,0.8v-3.2L454.7,783.8z M452.3,790.9
		c0.7-0.7,0.7-1.9,0-2.7c-0.3-0.3-0.7-0.5-1.2-0.5s-0.9,0.2-1.2,0.5c-0.7,0.7-0.7,1.9,0,2.7c0.3,0.3,0.7,0.5,1.2,0.5
		C451.6,791.4,452,791.2,452.3,790.9L452.3,790.9z"/>
	<path class="st2" d="M462.8,790.1h-5c0.1,0.4,0.3,0.7,0.7,1c0.4,0.2,0.8,0.4,1.2,0.3c0.3,0,0.7-0.1,0.9-0.2
		c0.2-0.1,0.5-0.2,0.7-0.5l1,1.1c-0.7,0.7-1.7,1.1-2.7,1.1c-0.7,0-1.4-0.2-2-0.4c-0.6-0.2-1-0.7-1.3-1.2c-0.3-0.5-0.5-1.1-0.5-1.7
		c0-0.7,0.2-1.2,0.5-1.7s0.7-0.9,1.2-1.2c1.1-0.6,2.4-0.6,3.5,0c0.5,0.2,1,0.7,1.2,1.2c0.3,0.6,0.5,1.1,0.4,1.8
		C462.9,789.6,462.9,789.8,462.8,790.1z M458.4,788c-0.3,0.2-0.5,0.7-0.6,1h3.3c-0.1-0.4-0.2-0.7-0.6-1c-0.3-0.2-0.7-0.4-1.1-0.4
		C459.1,787.6,458.7,787.7,458.4,788L458.4,788z"/>
	<path class="st2" d="M464.1,783.8h1.9v9h-1.9V783.8z"/>
	<path class="st2" d="M478.1,791.3v1.5h-6.6v-8.6h6.4v1.6h-4.5v1.9h4v1.5h-4v2L478.1,791.3z"/>
	<path class="st2" d="M486.1,783.8v9h-1.8v-0.7c-0.5,0.6-1.3,0.9-2,0.9c-0.6,0-1.1-0.2-1.7-0.4c-0.5-0.2-0.9-0.7-1.1-1.2
		c-0.6-1.1-0.6-2.4,0-3.6c0.2-0.5,0.7-0.9,1.1-1.2c0.5-0.2,1.1-0.4,1.7-0.4c0.7,0,1.5,0.2,2,0.8v-3.2L486.1,783.8z M483.8,790.9
		c0.7-0.7,0.7-1.9,0-2.7c-0.7-0.7-1.7-0.7-2.4,0c-0.7,0.7-0.7,1.9,0,2.7C482.1,791.5,483.1,791.5,483.8,790.9z"/>
	<path class="st2" d="M494.3,790.1h-5c0.1,0.4,0.3,0.7,0.7,1c0.4,0.2,0.8,0.4,1.2,0.3c0.3,0,0.7-0.1,0.9-0.2s0.5-0.2,0.7-0.5l1,1.1
		c-0.7,0.7-1.7,1.1-2.7,1.1c-0.7,0-1.4-0.2-2-0.4c-0.6-0.2-1-0.7-1.3-1.2c-0.3-0.5-0.5-1.1-0.5-1.7c0-0.7,0.2-1.2,0.5-1.7
		c0.3-0.5,0.7-0.9,1.2-1.2c1.1-0.6,2.4-0.6,3.5,0c0.5,0.2,1,0.7,1.2,1.2c0.3,0.6,0.5,1.1,0.4,1.8
		C494.4,789.6,494.4,789.8,494.3,790.1z M489.9,788c-0.3,0.2-0.5,0.7-0.6,1h3.3c-0.1-0.4-0.2-0.7-0.6-1c-0.3-0.2-0.7-0.4-1.1-0.4
		C490.5,787.6,490.1,787.7,489.9,788L489.9,788z M491.4,783.6h2l-2.2,1.8h-1.5L491.4,783.6z"/>
	<path class="st2" d="M501.6,786.9c0.6,0.6,0.8,1.4,0.7,2.2v3.7h-1.9v-3.5c0-0.4-0.1-0.8-0.3-1.1c-0.2-0.2-0.7-0.4-1-0.4
		c-0.4,0-0.8,0.2-1.1,0.4c-0.3,0.4-0.5,0.8-0.4,1.3v3.3h-1.9v-6.6h1.8v0.7c0.2-0.2,0.6-0.5,1-0.7s0.8-0.2,1.2-0.2
		C500.3,786.2,501,786.4,501.6,786.9z"/>
	<path class="st2" d="M664,237.3h2v6.9h4.3v1.6H664V237.3z"/>
	<path class="st2" d="M676.3,239.9c0.6,0.6,0.9,1.4,0.8,2.2v3.7h-1.8V245c-0.4,0.7-1.2,1-2,0.9c-0.5,0-0.9-0.1-1.3-0.2
		c-0.3-0.2-0.7-0.4-0.8-0.7c-0.2-0.3-0.3-0.7-0.3-1.1c0-0.6,0.2-1.1,0.7-1.5c0.7-0.4,1.4-0.6,2.1-0.5h1.5c0-0.3-0.1-0.7-0.4-1
		c-0.3-0.2-0.7-0.4-1.1-0.3c-0.3,0-0.7,0.1-1.1,0.2c-0.3,0.1-0.6,0.2-0.9,0.4l-0.7-1.3c0.4-0.2,0.8-0.5,1.3-0.6
		c0.5-0.2,1.1-0.2,1.5-0.2C674.8,239.1,675.7,239.3,676.3,239.9z M674.7,244.3c0.2-0.2,0.4-0.4,0.6-0.7V243h-1.3
		c-0.8,0-1.1,0.2-1.1,0.7c0,0.2,0.1,0.4,0.3,0.6c0.2,0.2,0.5,0.2,0.8,0.2C674.1,244.6,674.4,244.5,674.7,244.3L674.7,244.3z"/>
	<path class="st2" d="M685.8,239.2v5.5c0.1,1-0.2,2-1,2.7c-0.7,0.7-1.8,1-2.8,0.9c-0.6,0-1.2-0.1-1.8-0.2c-0.5-0.2-1-0.3-1.4-0.7
		l0.7-1.4c0.3,0.2,0.7,0.4,1.1,0.6c0.4,0.2,0.8,0.2,1.3,0.2c0.5,0.1,1.1-0.1,1.5-0.4c0.3-0.3,0.5-0.8,0.5-1.4v-0.2
		c-0.6,0.6-1.3,0.9-2,0.8c-0.6,0-1.1-0.2-1.6-0.4s-0.9-0.7-1.2-1.1c-0.6-1.1-0.6-2.3,0-3.3c0.3-0.5,0.7-0.9,1.2-1.1
		c0.5-0.2,1.1-0.4,1.6-0.4c0.8-0.1,1.6,0.3,2.2,1v-0.8L685.8,239.2z M683.4,243.5c0.7-0.7,0.7-1.7,0-2.4c-0.3-0.3-0.8-0.5-1.2-0.4
		c-0.5,0-0.9,0.2-1.2,0.4c-0.7,0.7-0.7,1.6,0,2.3l0,0c0.3,0.3,0.8,0.5,1.2,0.4C682.6,243.9,683,243.8,683.4,243.5L683.4,243.5z"/>
	<path class="st2" d="M694.1,239.2v6.6h-1.8V245c-0.2,0.2-0.6,0.5-0.9,0.7c-0.3,0.2-0.7,0.2-1.1,0.2c-0.7,0-1.5-0.2-2-0.7
		c-0.6-0.6-0.8-1.4-0.7-2.2v-3.7h1.9v3.4c0,1.1,0.4,1.6,1.3,1.5c0.4,0,0.8-0.2,1.1-0.4c0.3-0.4,0.5-0.8,0.4-1.3v-3.3L694.1,239.2z"
		/>
	<path class="st2" d="M701.9,239.9c0.6,0.6,0.8,1.4,0.7,2.2v3.7h-1.9v-3.5c0-0.4-0.1-0.8-0.3-1.1c-0.2-0.2-0.7-0.4-1-0.4
		c-0.4,0-0.8,0.2-1.1,0.4c-0.3,0.4-0.5,0.8-0.4,1.3v3.3H696v-6.6h1.8v0.7c0.2-0.2,0.6-0.5,1-0.7c0.4-0.2,0.8-0.2,1.2-0.2
		C700.6,239.1,701.3,239.4,701.9,239.9z"/>
	<path class="st2" d="M709.3,239.9c0.6,0.6,0.9,1.4,0.8,2.2v3.7h-1.8V245c-0.4,0.7-1.2,1-2,0.9c-0.5,0-0.9-0.1-1.3-0.2
		c-0.3-0.2-0.7-0.4-0.8-0.7c-0.2-0.3-0.3-0.7-0.3-1.1c0-0.6,0.2-1.1,0.7-1.5c0.7-0.4,1.4-0.6,2.1-0.5h1.5c0-0.3-0.1-0.7-0.4-1
		c-0.3-0.2-0.7-0.4-1.1-0.3c-0.3,0-0.7,0.1-1.1,0.2c-0.3,0.1-0.6,0.2-0.9,0.4l-0.7-1.3c0.4-0.2,0.8-0.5,1.3-0.6
		c0.5-0.2,1.1-0.2,1.5-0.2C707.8,239.1,708.6,239.3,709.3,239.9z M707.7,244.3c0.2-0.2,0.4-0.4,0.6-0.7V243h-1.3
		c-0.8,0-1.1,0.2-1.1,0.7c0,0.2,0.1,0.4,0.3,0.6s0.5,0.2,0.8,0.2C707.2,244.6,707.4,244.5,707.7,244.3L707.7,244.3z"/>
	<path class="st2" d="M722,236.7v9h-1.8V245c-0.5,0.6-1.3,0.9-2,0.9c-0.6,0-1.1-0.2-1.7-0.4c-0.5-0.2-0.9-0.7-1.1-1.2
		c-0.6-1.1-0.6-2.4,0-3.6c0.2-0.5,0.7-0.9,1.1-1.2c0.5-0.2,1.1-0.4,1.7-0.4c0.7,0,1.5,0.2,2,0.8v-3.2H722z M719.6,243.9
		c0.7-0.7,0.7-1.9,0-2.7c-0.7-0.7-1.7-0.7-2.4,0c-0.7,0.7-0.7,1.9,0,2.7C717.9,244.5,719,244.5,719.6,243.9z"/>
	<path class="st2" d="M730.2,243h-5c0.1,0.4,0.3,0.7,0.7,1c0.4,0.2,0.8,0.4,1.2,0.3c0.3,0,0.7-0.1,0.9-0.2c0.2-0.1,0.5-0.2,0.7-0.5
		l1,1.1c-0.7,0.7-1.7,1.1-2.7,1.1c-0.7,0-1.4-0.2-2-0.4c-0.6-0.2-1-0.7-1.3-1.2c-0.3-0.5-0.5-1.1-0.5-1.7c0-0.7,0.2-1.2,0.5-1.7
		c0.3-0.5,0.7-0.9,1.2-1.2c1.1-0.6,2.4-0.6,3.5,0c0.5,0.2,1,0.7,1.2,1.2c0.3,0.6,0.5,1.1,0.4,1.8C730.2,242.6,730.2,242.7,730.2,243
		z M725.8,240.9c-0.3,0.2-0.5,0.7-0.6,1h3.3c-0.1-0.4-0.2-0.7-0.6-1s-0.7-0.4-1.1-0.4C726.4,240.5,726,240.7,725.8,240.9
		L725.8,240.9z"/>
	<path class="st2" d="M672.6,251.9h2v6.9h4.3v1.6h-6.3V251.9z"/>
	<path class="st2" d="M684.9,254.5c0.6,0.6,0.9,1.4,0.8,2.2v3.7h-1.8v-0.8c-0.4,0.7-1.2,1-2,0.9c-0.5,0-0.9-0.1-1.3-0.2
		c-0.3-0.2-0.7-0.4-0.8-0.7c-0.2-0.3-0.3-0.7-0.3-1.1c0-0.6,0.2-1.1,0.7-1.5c0.7-0.4,1.4-0.6,2.1-0.5h1.5c0-0.3-0.1-0.7-0.4-1
		s-0.7-0.4-1.1-0.3c-0.3,0-0.7,0.1-1.1,0.2c-0.3,0.1-0.6,0.2-0.9,0.4l-0.7-1.3c0.4-0.2,0.8-0.5,1.3-0.6c0.5-0.2,1.1-0.2,1.5-0.2
		C683.4,253.7,684.2,254,684.9,254.5z M683.2,259c0.2-0.2,0.4-0.4,0.6-0.7v-0.7h-1.3c-0.8,0-1.1,0.2-1.1,0.7c0,0.2,0.1,0.4,0.3,0.6
		c0.2,0.2,0.5,0.2,0.8,0.2C682.7,259.3,683,259.2,683.2,259L683.2,259z"/>
	<path class="st2" d="M698.8,260.5v-5.1l-2.5,4.2h-0.9l-2.5-4.2v5.1H691v-8.6h1.6l3.2,5.3l3.2-5.3h1.6v8.6H698.8z"/>
	<path class="st2" d="M707.5,254.5c0.6,0.6,0.9,1.4,0.8,2.2v3.7h-1.8v-0.8c-0.4,0.7-1.2,1-2,0.9c-0.5,0-0.9-0.1-1.3-0.2
		c-0.3-0.2-0.7-0.4-0.8-0.7c-0.2-0.3-0.3-0.7-0.3-1.1c0-0.6,0.2-1.1,0.7-1.5c0.7-0.4,1.4-0.6,2.1-0.5h1.5c0-0.3-0.1-0.7-0.4-1
		s-0.7-0.4-1.1-0.3c-0.3,0-0.7,0.1-1.1,0.2c-0.3,0.1-0.6,0.2-0.9,0.4l-0.7-1.3c0.4-0.2,0.8-0.5,1.3-0.6c0.5-0.2,1.1-0.2,1.5-0.2
		C706,253.7,706.9,254,707.5,254.5z M706,259c0.2-0.2,0.4-0.4,0.6-0.7v-0.7h-1.3c-0.8,0-1.1,0.2-1.1,0.7c0,0.2,0.1,0.4,0.3,0.6
		c0.2,0.2,0.5,0.2,0.8,0.2C705.4,259.3,705.6,259.2,706,259z"/>
	<path class="st2" d="M714.4,260.2c-0.2,0.2-0.4,0.2-0.7,0.3c-0.2,0.1-0.6,0.1-0.9,0.1c-0.7,0.1-1.3-0.2-1.8-0.6
		c-0.5-0.5-0.7-1.1-0.7-1.8v-2.7h-1V254h1v-1.6h1.9v1.6h1.6v1.5h-1.6v2.7c0,0.2,0.1,0.5,0.2,0.7c0.2,0.2,0.4,0.2,0.6,0.2
		c0.2,0,0.6-0.1,0.7-0.2L714.4,260.2z"/>
	<path class="st2" d="M720.4,254.5c0.6,0.6,0.9,1.4,0.8,2.2v3.7h-1.8v-0.8c-0.4,0.7-1.2,1-2,0.9c-0.5,0-0.9-0.1-1.3-0.2
		c-0.3-0.2-0.7-0.4-0.8-0.7c-0.2-0.3-0.3-0.7-0.3-1.1c0-0.6,0.2-1.1,0.7-1.5c0.7-0.4,1.4-0.6,2.1-0.5h1.5c0-0.3-0.1-0.7-0.4-1
		s-0.7-0.4-1.1-0.3c-0.3,0-0.7,0.1-1.1,0.2c-0.3,0.1-0.6,0.2-0.9,0.4l-0.7-1.3c0.4-0.2,0.8-0.5,1.3-0.6c0.5-0.2,1.1-0.2,1.5-0.2
		C718.9,253.7,719.7,254,720.4,254.5z M718.8,259c0.2-0.2,0.4-0.4,0.6-0.7v-0.7H718c-0.8,0-1.1,0.2-1.1,0.7c0,0.2,0.1,0.4,0.3,0.6
		c0.2,0.2,0.5,0.2,0.8,0.2C718.2,259.3,718.5,259.2,718.8,259z"/>
	<path class="st2" d="M901.6,349.7h2v6.9h4.3v1.6h-6.3V349.7z"/>
	<path class="st2" d="M913.9,352.3c0.6,0.6,0.9,1.4,0.8,2.2v3.7h-1.8v-0.8c-0.4,0.7-1.2,1-2,0.9c-0.5,0-0.9-0.1-1.3-0.2
		c-0.3-0.2-0.7-0.4-0.8-0.7s-0.3-0.7-0.3-1.1c0-0.6,0.2-1.1,0.7-1.5c0.7-0.4,1.4-0.6,2.1-0.5h1.5c0-0.3-0.1-0.7-0.4-1
		c-0.3-0.2-0.7-0.4-1.1-0.3c-0.3,0-0.7,0.1-1.1,0.2s-0.6,0.2-0.9,0.4l-0.7-1.3c0.4-0.2,0.8-0.5,1.3-0.6c0.5-0.2,1.1-0.2,1.5-0.2
		C912.4,351.5,913.2,351.7,913.9,352.3z M912.3,356.9c0.2-0.2,0.4-0.4,0.6-0.7v-0.7h-1.3c-0.8,0-1.1,0.2-1.1,0.7
		c0,0.2,0.1,0.4,0.3,0.6c0.2,0.2,0.5,0.2,0.8,0.2C911.8,357,912,356.9,912.3,356.9L912.3,356.9z"/>
	<path class="st2" d="M900.9,372.9v-5.1l-2.5,4.2h-0.9l-2.5-4.2v5.1H893v-8.6h1.6l3.2,5.3l3.2-5.3h1.6v8.6L900.9,372.9z"/>
	<path class="st2" d="M909.6,367c0.6,0.6,0.9,1.4,0.8,2.2v3.7h-1.8v-0.8c-0.4,0.7-1.2,1-2,0.9c-0.5,0-0.9-0.1-1.3-0.2
		c-0.3-0.2-0.7-0.4-0.8-0.7s-0.3-0.7-0.3-1.1c0-0.6,0.2-1.1,0.7-1.5c0.7-0.4,1.4-0.6,2.1-0.5h1.5c0-0.3-0.1-0.7-0.4-1
		c-0.3-0.2-0.7-0.4-1.1-0.3c-0.3,0-0.7,0.1-1.1,0.2c-0.3,0.1-0.6,0.2-0.9,0.4l-0.7-1.3c0.4-0.2,0.8-0.5,1.3-0.6
		c0.5-0.2,1.1-0.2,1.5-0.2C908.1,366.2,908.9,366.4,909.6,367z M907.9,371.5c0.2-0.2,0.4-0.4,0.6-0.7v-0.7h-1.3
		c-0.8,0-1.1,0.2-1.1,0.7c0,0.2,0.1,0.4,0.3,0.6s0.5,0.2,0.8,0.2C907.5,371.7,907.7,371.6,907.9,371.5L907.9,371.5z"/>
	<path class="st2" d="M916.4,372.6c-0.2,0.2-0.4,0.2-0.7,0.3c-0.2,0.1-0.6,0.1-0.9,0.1c-0.7,0.1-1.3-0.2-1.8-0.6
		c-0.5-0.5-0.7-1.1-0.7-1.8v-2.7h-1v-1.5h1v-1.6h1.9v1.6h1.6v1.5h-1.6v2.7c0,0.2,0.1,0.5,0.2,0.7c0.2,0.2,0.4,0.2,0.6,0.2
		c0.2,0,0.6-0.1,0.7-0.2L916.4,372.6z"/>
	<path class="st2" d="M922.4,367c0.6,0.6,0.9,1.4,0.8,2.2v3.7h-1.8v-0.8c-0.4,0.7-1.2,1-2,0.9c-0.5,0-0.9-0.1-1.3-0.2
		c-0.3-0.2-0.7-0.4-0.8-0.7s-0.3-0.7-0.3-1.1c0-0.6,0.2-1.1,0.7-1.5c0.7-0.4,1.4-0.6,2.1-0.5h1.5c0-0.3-0.1-0.7-0.4-1
		c-0.3-0.2-0.7-0.4-1.1-0.3c-0.3,0-0.7,0.1-1.1,0.2c-0.3,0.1-0.6,0.2-0.9,0.4l-0.7-1.3c0.4-0.2,0.8-0.5,1.3-0.6
		c0.5-0.2,1.1-0.2,1.5-0.2C921,366.2,921.8,366.4,922.4,367z M920.8,371.5c0.2-0.2,0.4-0.4,0.6-0.7v-0.7h-1.3
		c-0.8,0-1.1,0.2-1.1,0.7c0,0.2,0.1,0.4,0.3,0.6s0.5,0.2,0.8,0.2C920.2,371.7,920.6,371.6,920.8,371.5L920.8,371.5z"/>
	<path class="st2" d="M885.1,628.4c0.4-0.4,0.9-0.7,1.4-0.9c1.1-0.2,2.4,0.1,3.2,1c0.3,0.4,0.6,1,0.7,1.5c0.1,0.7,0,1.4-0.2,2
		l-0.5,1.6l2.3,0.7l-0.6,1.9l-8.1-2.5l1.1-3.5C884.4,629.5,884.7,628.9,885.1,628.4z M888.5,630.2c-0.4-0.7-1.3-1.1-2-0.7l0,0
		c-0.4,0.3-0.7,0.7-0.7,1.2l-0.5,1.5l2.9,0.9l0.5-1.5C888.7,631.2,888.7,630.7,888.5,630.2L888.5,630.2z"/>
	<path class="st2" d="M885.2,625.2l0.6-1.8l8.6,2.7l-0.6,1.8L885.2,625.2z"/>
	<path class="st2" d="M890.7,617.8c0.7-0.4,1.5-0.4,2.4-0.2l3.6,1.1l-0.5,1.7l-0.8-0.2c0.5,0.7,0.6,1.5,0.3,2.2
		c-0.1,0.4-0.3,0.8-0.7,1.1c-0.2,0.3-0.6,0.5-0.9,0.6s-0.7,0.1-1.1,0c-0.6-0.2-1-0.6-1.1-1.1c-0.2-0.7-0.2-1.5,0.2-2.2l0.4-1.5
		c-0.3-0.2-0.7-0.1-1.1,0.1c-0.3,0.2-0.6,0.6-0.7,1c-0.1,0.3-0.2,0.7-0.2,1.1c0,0.3,0.1,0.7,0.2,1l-1.5,0.2
		c-0.2-0.5-0.2-0.9-0.2-1.4c0-0.5,0.1-1.1,0.2-1.5C889.5,619,890,618.2,890.7,617.8z M894.6,620.7c-0.1-0.3-0.2-0.6-0.5-0.7
		l-0.7-0.2L893,621c-0.2,0.7-0.1,1.2,0.4,1.4c0.2,0.1,0.5,0,0.7-0.1c0.2-0.2,0.4-0.4,0.4-0.7C894.7,621.3,894.7,620.9,894.6,620.7
		L894.6,620.7z"/>
	<path class="st2" d="M892.8,609l5.8,4.9c0.6,0.4,1,0.9,1.2,1.5c0.2,0.6,0.2,1.1,0,1.7c-0.1,0.3-0.2,0.7-0.5,0.9
		c-0.2,0.2-0.4,0.5-0.7,0.7l-1.1-1.1c0.2-0.1,0.3-0.2,0.4-0.4s0.2-0.3,0.2-0.5c0.1-0.2,0.1-0.4,0-0.7c-0.1-0.2-0.2-0.4-0.5-0.6
		l-0.1-0.1l-7.2,0.7l0.6-1.9l4.8-0.5l-3.7-3.1L892.8,609z"/>
	<path class="st2" d="M895,603.9c0.7-0.4,1.5-0.4,2.4-0.2l3.6,1.1l-0.5,1.7l-0.8-0.2c0.5,0.7,0.6,1.5,0.3,2.2
		c-0.2,0.4-0.3,0.8-0.7,1.1c-0.2,0.3-0.6,0.5-0.9,0.6s-0.7,0.1-1.1,0c-0.6-0.2-1-0.6-1.1-1.1c-0.2-0.7-0.2-1.5,0.2-2.2l0.4-1.5
		c-0.3-0.2-0.7-0.1-1.1,0.1c-0.3,0.2-0.6,0.6-0.7,1c-0.1,0.3-0.2,0.7-0.2,1.1c0,0.3,0.1,0.7,0.2,1l-1.5,0.2
		c-0.2-0.5-0.2-0.9-0.2-1.4s0.1-1.1,0.2-1.5C893.8,605.1,894.3,604.4,895,603.9z M898.8,606.8c-0.1-0.3-0.2-0.6-0.5-0.7l-0.7-0.2
		l-0.4,1.2c-0.2,0.7-0.1,1.2,0.4,1.4c0.2,0.1,0.5,0,0.7-0.1c0.2-0.2,0.4-0.4,0.4-0.7C898.9,607.4,898.9,607.1,898.8,606.8
		L898.8,606.8z"/>
	<path class="st2" d="M895.7,590.9l8.6,2.7l-0.6,1.7l-0.7-0.2c0.4,0.7,0.5,1.5,0.2,2.2c-0.2,0.6-0.5,1.1-0.9,1.5
		c-0.4,0.4-0.9,0.7-1.5,0.8c-1.2,0.2-2.5-0.2-3.4-1.1c-0.4-0.4-0.7-0.9-0.8-1.5c-0.1-0.6-0.1-1.1,0.1-1.7c0.2-0.7,0.7-1.3,1.3-1.6
		l-3-1L895.7,590.9z M901.8,595.2c-0.6-0.8-1.6-1.1-2.5-0.8c-0.4,0.2-0.7,0.6-0.8,1c-0.2,0.4-0.1,0.9,0.1,1.3
		c0.6,0.8,1.6,1.1,2.5,0.8c0.4-0.2,0.7-0.6,0.8-1C902.2,596.1,902.1,595.6,901.8,595.2L901.8,595.2z"/>
	<path class="st2" d="M904.2,584.9l-1.5,4.7c0.4,0,0.8-0.1,1.1-0.3c0.3-0.2,0.6-0.7,0.7-1.1c0.1-0.3,0.2-0.6,0.1-0.9
		c0-0.3-0.1-0.6-0.2-0.8l1.4-0.7c0.5,0.9,0.6,2,0.2,2.9c-0.2,0.7-0.5,1.2-1,1.8c-0.4,0.4-1,0.7-1.5,0.9c-0.6,0.2-1.2,0.1-1.8-0.1
		c-0.6-0.2-1.1-0.5-1.5-1c-0.4-0.4-0.7-1-0.8-1.5c-0.2-1.2,0.2-2.5,1.1-3.4c0.4-0.4,0.9-0.7,1.5-0.8c0.7-0.2,1.2-0.1,1.9,0.1
		C903.7,584.8,903.9,584.8,904.2,584.9z M900.9,588.6c0.2,0.3,0.4,0.7,0.8,0.8l1-3.1c-0.4-0.1-0.8,0-1.1,0.2
		c-0.3,0.2-0.6,0.6-0.7,0.9C900.7,587.8,900.7,588.2,900.9,588.6L900.9,588.6z"/>
	<path class="st2" d="M899.5,578.5l0.6-1.8l8.6,2.7l-0.6,1.8L899.5,578.5z"/>
	<path class="st2" d="M909.3,576.4c-0.4,0.4-1,0.7-1.5,0.9c-1.2,0.2-2.5-0.1-3.3-1.1c-0.4-0.4-0.7-1-0.7-1.5
		c-0.2-1.3,0.2-2.6,1.1-3.6c0.4-0.4,1-0.7,1.5-0.9c1.2-0.2,2.5,0.1,3.3,1.1c0.4,0.4,0.7,1,0.7,1.5c0.1,0.7,0.1,1.3-0.2,1.9
		C910.1,575.3,909.8,575.9,909.3,576.4z M908.7,572.9c-0.6-0.8-1.6-1.1-2.5-0.8c-0.4,0.2-0.7,0.6-0.8,1c-0.2,0.4-0.1,0.9,0.1,1.3
		c0.6,0.8,1.6,1.1,2.5,0.8c0.4-0.2,0.7-0.6,0.8-1C909,573.8,908.9,573.4,908.7,572.9L908.7,572.9z"/>
	<path class="st2" d="M911.8,569.4c-0.2,0.4-0.5,0.7-0.8,1.1l-1.1-1c0.3-0.2,0.6-0.6,0.7-0.9c0.2-0.3,0.4-0.7,0.5-1.1
		c0.2-0.7,0.2-1.2-0.2-1.3c-0.2-0.1-0.4,0-0.5,0.2c-0.2,0.2-0.3,0.6-0.5,0.9c-0.2,0.4-0.4,0.8-0.7,1.2c-0.2,0.3-0.5,0.6-0.8,0.7
		c-0.4,0.2-0.8,0.2-1.2,0c-0.4-0.1-0.7-0.3-1-0.7c-0.2-0.3-0.4-0.8-0.4-1.2c0-0.6,0.1-1.1,0.2-1.6c0.2-0.4,0.3-0.9,0.6-1.3
		c0.2-0.3,0.4-0.7,0.7-1l1.1,1c-0.5,0.5-0.8,1.1-1.1,1.6c-0.1,0.3-0.2,0.7-0.1,0.9c0,0.2,0.2,0.3,0.3,0.4s0.4,0,0.5-0.2
		c0.2-0.3,0.4-0.6,0.6-0.9c0.2-0.4,0.4-0.8,0.7-1.1c0.2-0.3,0.5-0.6,0.8-0.7c0.4-0.2,0.8-0.2,1.2,0c0.4,0.1,0.7,0.3,0.9,0.7
		c0.2,0.4,0.4,0.8,0.4,1.2c0,0.6-0.1,1.1-0.2,1.7C912.3,568.5,912,569,911.8,569.4z"/>
	<path class="st2" d="M906.5,557.9l0.6-1.9l6.6,2l1.2-4.1l1.5,0.5l-1.9,6L906.5,557.9z"/>
	<path class="st2" d="M916.8,552.2c-0.4,0.4-1,0.7-1.5,0.9c-1.2,0.2-2.5-0.1-3.3-1.1c-0.4-0.4-0.7-1-0.7-1.5
		c-0.2-1.3,0.2-2.6,1.1-3.6c0.4-0.4,1-0.7,1.5-0.9c1.2-0.2,2.5,0.1,3.3,1.1c0.4,0.4,0.7,1,0.7,1.5
		C918.1,549.9,917.7,551.2,916.8,552.2L916.8,552.2z M916.2,548.7c-0.6-0.8-1.6-1.1-2.5-0.8c-0.4,0.2-0.7,0.6-0.8,1
		c-0.2,0.4-0.1,0.9,0.1,1.3c0.6,0.8,1.6,1.1,2.5,0.8c0.4-0.2,0.7-0.6,0.8-1C916.4,549.6,916.3,549.2,916.2,548.7L916.2,548.7z"/>
	<path class="st2" d="M919.2,544.5c-0.4,0.4-1,0.7-1.5,0.9c-1.8,0.5-3.6-0.6-4.1-2.4c0-0.1-0.1-0.2-0.1-0.2c-0.1-0.7-0.1-1.3,0.2-2
		c0.2-0.6,0.5-1.1,1-1.6c0.4-0.4,1-0.7,1.5-0.7l0.3,1.6c-0.7,0.1-1.1,0.6-1.3,1.1c-0.2,0.4-0.1,0.9,0.1,1.3c0.6,0.8,1.6,1.1,2.5,0.8
		c0.4-0.2,0.7-0.6,0.8-1.1c0.2-0.6,0-1.2-0.4-1.7l1.2-1.1c0.4,0.4,0.7,0.9,0.8,1.5c0.2,0.7,0.1,1.3-0.1,1.9
		C919.9,543.4,919.6,544,919.2,544.5z"/>
	<path class="st2" d="M921.2,537.7c-0.4,0.4-1,0.7-1.5,0.9c-1.2,0.2-2.5-0.1-3.3-1.1c-0.4-0.4-0.7-1-0.7-1.5
		c-0.2-1.3,0.2-2.6,1.1-3.6c0.4-0.4,1-0.7,1.5-0.9c1.2-0.2,2.5,0.1,3.3,1.1c0.4,0.4,0.7,1,0.7,1.5c0.1,0.7,0.1,1.3-0.2,1.9
		C922,536.7,921.7,537.3,921.2,537.7z M920.6,534.3c-0.6-0.8-1.6-1.1-2.5-0.8c-0.4,0.2-0.7,0.6-0.8,1c-0.2,0.4-0.1,0.9,0.1,1.3
		c0.6,0.8,1.6,1.1,2.5,0.8c0.4-0.2,0.7-0.6,0.8-1C920.9,535.1,920.8,534.6,920.6,534.3L920.6,534.3z"/>
	<path class="st2" d="M923.7,530.7c-0.2,0.4-0.5,0.7-0.8,1.1l-1.1-1c0.3-0.2,0.6-0.6,0.7-0.9c0.2-0.3,0.4-0.7,0.5-1.1
		c0.2-0.7,0.2-1.2-0.2-1.3c-0.2-0.1-0.4,0-0.5,0.2c-0.2,0.2-0.3,0.6-0.5,0.9c-0.2,0.4-0.4,0.8-0.7,1.2c-0.2,0.3-0.5,0.6-0.8,0.7
		c-0.4,0.2-0.8,0.2-1.2,0c-0.4-0.1-0.7-0.3-1-0.7c-0.2-0.3-0.4-0.8-0.4-1.2c0-0.6,0.1-1.1,0.2-1.6c0.2-0.4,0.3-0.9,0.6-1.3
		c0.2-0.3,0.4-0.7,0.7-1l1.1,1c-0.5,0.5-0.8,1.1-1.1,1.6c-0.1,0.3-0.2,0.7-0.1,0.9c0,0.2,0.2,0.3,0.3,0.4s0.4,0,0.5-0.2
		c0.2-0.3,0.4-0.6,0.6-0.9c0.2-0.4,0.4-0.8,0.7-1.1c0.2-0.3,0.5-0.6,0.8-0.7c0.4-0.2,0.8-0.2,1.2,0c0.4,0.1,0.7,0.3,0.9,0.7
		c0.2,0.4,0.4,0.8,0.4,1.2c0,0.6-0.1,1.1-0.2,1.7C924.2,529.8,923.9,530.2,923.7,530.7z"/>
	<path class="st2" d="M537.4,998.5l1.5,0.5l-2,6.4l-8.1-2.5l1.9-6.2l1.5,0.5l-1.3,4.3l1.8,0.6l1.1-3.8l1.5,0.5l-1.1,3.8l1.9,0.6
		L537.4,998.5z"/>
	<path class="st2" d="M530.6,995l0.6-1.8l8.6,2.7l-0.6,1.8L530.6,995z"/>
	<path class="st2" d="M541.4,984.7l-1.1,3.8l1.5,1.3l-0.6,2l-7.1-6.2l0.6-1.9l9.3-1.1l-0.7,2L541.4,984.7z M539.7,984.9l-3.5,0.3
		l2.8,2.3L539.7,984.9z"/>
	<path class="st2" d="M544.2,980.6c-1.3,1.3-3.3,1.3-4.7,0.1c-0.5-0.5-0.8-1.1-1-1.8c-0.1-0.7-0.1-1.3,0.2-2c0.2-0.6,0.5-1.1,1-1.6
		c0.4-0.4,1-0.7,1.5-0.7l0.3,1.6c-0.7,0.1-1.1,0.6-1.3,1.1c-0.2,0.4-0.1,0.9,0.1,1.3c0.6,0.8,1.6,1.1,2.5,0.8
		c0.4-0.2,0.7-0.6,0.8-1.1c0.2-0.6,0-1.2-0.4-1.7l1.2-1.1c0.4,0.4,0.7,0.9,0.8,1.5c0.2,0.7,0.1,1.3-0.1,1.9
		C545,979.5,544.6,980.1,544.2,980.6z"/>
	<path class="st2" d="M545.4,968.2l-1.5,4.7c0.4,0,0.8-0.1,1.1-0.3c0.3-0.2,0.6-0.7,0.7-1.1c0.1-0.3,0.2-0.6,0.1-0.9
		c0-0.3-0.1-0.6-0.2-0.8l1.4-0.7c0.5,0.9,0.6,2,0.2,2.9c-0.2,0.7-0.5,1.2-1,1.8c-0.4,0.4-1,0.7-1.5,0.9c-0.6,0.2-1.2,0.1-1.8-0.1
		c-0.6-0.2-1.1-0.5-1.5-1c-0.4-0.4-0.7-1-0.8-1.5c-0.2-1.2,0.2-2.5,1.1-3.4c0.4-0.4,0.9-0.7,1.5-0.8c0.7-0.2,1.2-0.1,1.9,0.1
		C545,967.9,545.2,968,545.4,968.2z M542.2,971.8c0.2,0.3,0.4,0.7,0.8,0.8l1-3.1c-0.4-0.1-0.8,0-1.1,0.2c-0.3,0.2-0.6,0.6-0.7,0.9
		C542,971,542,971.4,542.2,971.8L542.2,971.8z"/>
	<path class="st2" d="M544.1,959.4l8.6,2.6l-0.6,1.8l-2.9-0.9c0.4,0.7,0.4,1.4,0.2,2.1c-0.2,0.6-0.5,1.1-0.9,1.5
		c-0.4,0.4-0.9,0.7-1.5,0.8c-1.2,0.2-2.5-0.2-3.4-1.1c-0.4-0.4-0.7-0.9-0.8-1.5c-0.1-0.6-0.1-1.1,0.1-1.7c0.2-0.7,0.7-1.4,1.4-1.7
		l-0.7-0.2L544.1,959.4z M547.9,963c-0.6-0.8-1.6-1.1-2.5-0.8c-0.8,0.4-1.1,1.5-0.7,2.3c0.6,0.8,1.6,1.1,2.5,0.8
		c0.4-0.2,0.7-0.6,0.8-1C548.1,963.9,548.1,963.4,547.9,963z"/>
	<path class="st2" d="M546.7,951.4l6.3,2l-0.6,1.7l-0.7-0.2c0.2,0.3,0.3,0.7,0.3,1.1s0,0.8-0.1,1.1c-0.2,0.7-0.7,1.4-1.3,1.7
		c-0.7,0.3-1.5,0.4-2.4,0.1l-3.6-1.1l0.6-1.8l3.3,1c1,0.3,1.6,0.1,1.9-0.8c0.2-0.4,0.1-0.8-0.1-1.2c-0.2-0.4-0.7-0.7-1.1-0.8l-3.1-1
		L546.7,951.4z"/>
	<path class="st2" d="M546,949.3c-0.5,0.3-1.1,0.1-1.4-0.4v-0.1c-0.2-0.3-0.2-0.6,0-0.9c0.1-0.3,0.2-0.6,0.6-0.7
		c0.2-0.2,0.6-0.2,0.8-0.1c0.3,0.1,0.5,0.2,0.7,0.6c0.2,0.2,0.2,0.7,0.1,0.9C546.5,948.8,546.3,949.1,546,949.3z M547.2,949.7
		l0.6-1.8l6.3,2l-0.6,1.8L547.2,949.7z"/>
	<path class="st2" d="M546.8,942l0.6-2l1.1,2.6l-0.4,1.4L546.8,942z M554.6,946.8c-0.4,0.4-1,0.7-1.5,0.9c-1.2,0.2-2.5-0.1-3.3-1.1
		c-0.4-0.4-0.7-1-0.7-1.5c-0.2-1.3,0.2-2.6,1.1-3.6c0.4-0.4,1-0.7,1.5-0.9c1.2-0.2,2.5,0.1,3.3,1.1c0.4,0.4,0.7,1,0.7,1.5
		c0.1,0.7,0.1,1.3-0.2,1.9C555.4,945.8,555.1,946.4,554.6,946.8L554.6,946.8z M553.9,943.4c-0.6-0.8-1.6-1.1-2.5-0.8
		c-0.4,0.2-0.7,0.6-0.8,1c-0.2,0.4-0.1,0.9,0.1,1.3c0.6,0.8,1.6,1.1,2.5,0.8c0.4-0.2,0.7-0.6,0.8-1
		C554.2,944.2,554.2,943.8,553.9,943.4L553.9,943.4z"/>
	<path class="st2" d="M552.9,933c0.7-0.3,1.5-0.4,2.3-0.1l3.6,1.1l-0.6,1.8l-3.3-1.1c-0.4-0.2-0.8-0.2-1.2,0
		c-0.3,0.2-0.6,0.5-0.7,0.8c-0.2,0.4-0.1,0.8,0.1,1.2c0.2,0.4,0.7,0.7,1.1,0.8l3.1,1l-0.6,1.8l-6.3-2l0.6-1.7l0.7,0.2
		c-0.2-0.3-0.3-0.7-0.3-1.1c0-0.4,0-0.8,0.2-1.2C551.9,934,552.3,933.4,552.9,933z"/>
	<path class="st2" d="M556.3,928.1l1-3.3l1.5,0.5l-1,3.3L556.3,928.1z"/>
	<path class="st2" d="M554.7,918.6l0.6-1.9l6.6,2l1.2-4.1l1.5,0.5l-1.9,6L554.7,918.6z"/>
	<path class="st2" d="M565,912.9c-0.4,0.4-1,0.7-1.5,0.9c-1.2,0.2-2.5-0.1-3.3-1.1c-0.4-0.4-0.7-1-0.7-1.5c-0.2-1.3,0.2-2.6,1.1-3.6
		c0.4-0.4,1-0.7,1.5-0.9c1.2-0.2,2.5,0.1,3.3,1.1c0.4,0.4,0.7,1,0.7,1.5C566.3,910.7,565.9,912,565,912.9L565,912.9z M564.4,909.5
		c-0.6-0.8-1.6-1.1-2.5-0.8c-0.4,0.2-0.7,0.6-0.8,1c-0.2,0.4-0.1,0.9,0.1,1.3c0.6,0.8,1.6,1.1,2.5,0.8c0.4-0.2,0.7-0.6,0.8-1
		C564.6,910.4,564.6,909.9,564.4,909.5L564.4,909.5z"/>
	<path class="st2" d="M567.4,906c-0.2,0.4-0.5,0.7-0.8,1.1l-1.1-1c0.3-0.2,0.6-0.6,0.7-0.9c0.2-0.3,0.4-0.7,0.5-1.1
		c0.2-0.7,0.2-1.2-0.2-1.3c-0.2-0.1-0.4,0-0.5,0.2c-0.2,0.2-0.3,0.6-0.5,0.9c-0.2,0.4-0.4,0.8-0.7,1.2c-0.2,0.3-0.5,0.6-0.8,0.7
		c-0.4,0.2-0.8,0.2-1.2,0c-0.4-0.1-0.7-0.3-1-0.7c-0.2-0.3-0.4-0.8-0.4-1.2c0-0.6,0.1-1.1,0.2-1.6c0.2-0.4,0.3-0.9,0.6-1.3
		c0.2-0.3,0.4-0.7,0.7-1l1.1,1c-0.5,0.5-0.8,1.1-1.1,1.6c-0.1,0.3-0.2,0.7-0.1,0.9c0,0.2,0.2,0.3,0.3,0.4s0.4,0,0.5-0.2
		c0.2-0.3,0.4-0.6,0.6-0.9c0.2-0.4,0.4-0.8,0.7-1.1c0.2-0.3,0.5-0.6,0.8-0.7c0.4-0.2,0.8-0.2,1.2,0c0.4,0.1,0.7,0.3,0.9,0.7
		c0.2,0.4,0.4,0.8,0.4,1.2c0,0.6-0.1,1.1-0.2,1.7C567.9,905,567.7,905.5,567.4,906z"/>
	<path class="st2" d="M564.4,887l8.1,2.5l-0.5,1.5l-6.2,2.5l5,1.5l-0.6,1.9l-8.1-2.5l0.5-1.5l6.2-2.5l-5-1.5L564.4,887z"/>
	<path class="st2" d="M565.3,881.7l0.6-2l1.1,2.6l-0.4,1.4L565.3,881.7z M568.9,881.2c0.7-0.4,1.5-0.4,2.4-0.2l3.6,1.1l-0.5,1.7
		l-0.8-0.2c0.5,0.7,0.6,1.5,0.3,2.2c-0.2,0.4-0.3,0.8-0.7,1.1c-0.2,0.3-0.6,0.5-0.9,0.6c-0.3,0.1-0.7,0.1-1.1,0
		c-0.6-0.2-1-0.6-1.1-1.1c-0.2-0.7-0.2-1.5,0.2-2.2l0.4-1.5c-0.3-0.2-0.7-0.1-1.1,0.1c-0.3,0.2-0.6,0.6-0.7,1
		c-0.1,0.3-0.2,0.7-0.2,1.1c0,0.3,0.1,0.7,0.2,1l-1.5,0.2c-0.2-0.5-0.2-0.9-0.2-1.4c0-0.5,0.1-1.1,0.2-1.5
		C567.7,882.3,568.3,881.7,568.9,881.2L568.9,881.2z M572.7,884c-0.1-0.3-0.2-0.6-0.5-0.7l-0.7-0.2l-0.4,1.2
		c-0.2,0.7-0.1,1.2,0.4,1.4c0.2,0.1,0.5,0,0.7-0.1c0.2-0.2,0.4-0.4,0.4-0.7C572.8,884.7,572.8,884.3,572.7,884L572.7,884z"/>
	<path class="st2" d="M571,872.2l6.3,2l-0.6,1.7l-0.7-0.2c0.2,0.3,0.3,0.7,0.3,1.1c0,0.4,0,0.8-0.1,1.1c-0.2,0.7-0.7,1.4-1.3,1.7
		c-0.7,0.3-1.5,0.4-2.4,0.1l-3.6-1.1l0.6-1.8l3.3,1c1,0.3,1.6,0.1,1.9-0.8c0.2-0.4,0.1-0.8-0.1-1.2c-0.2-0.4-0.7-0.7-1.1-0.8l-3.1-1
		L571,872.2z"/>
	<path class="st2" d="M572.3,868.5l0.5-1.6l1.4,0.4l-0.5,1.5l4.7,1.5l-0.6,1.8l-4.7-1.5l-0.3,1l-1.4-0.4l0.3-1l-0.2-0.1
		c-0.7-0.2-1.2-0.6-1.5-1.1c-0.3-0.7-0.3-1.3-0.1-2c0.1-0.2,0.2-0.5,0.3-0.7c0.1-0.2,0.2-0.4,0.4-0.6l1.1,0.9
		c-0.2,0.2-0.4,0.4-0.4,0.7c-0.2,0.6,0.1,0.9,0.7,1.1L572.3,868.5z"/>
	<path class="st2" d="M574.1,862.4c0-0.5,0-0.9,0.2-1.4l1.7,0.5c-0.1,0.2-0.2,0.3-0.2,0.4c-0.2,0.4-0.2,0.9,0.1,1.4
		c0.2,0.4,0.7,0.7,1.1,0.8l2.9,0.9l-0.6,1.8l-6.3-2l0.6-1.7l0.8,0.2C574.4,863.2,574.2,862.8,574.1,862.4z"/>
	<path class="st2" d="M576.8,855.5c0.7-0.4,1.5-0.4,2.4-0.2l3.6,1.1l-0.5,1.7l-0.8-0.2c0.5,0.7,0.6,1.5,0.3,2.2
		c-0.2,0.4-0.3,0.8-0.7,1.1c-0.2,0.3-0.6,0.5-0.9,0.6c-0.3,0.1-0.7,0.1-1.1,0c-0.6-0.2-1-0.6-1.1-1.1c-0.2-0.7-0.2-1.5,0.2-2.2
		l0.4-1.5c-0.3-0.2-0.7-0.1-1.1,0.1c-0.3,0.2-0.6,0.6-0.7,1c-0.1,0.3-0.2,0.7-0.2,1.1c0,0.3,0.1,0.7,0.2,1l-1.5,0.2
		c-0.2-0.5-0.2-0.9-0.2-1.4s0.1-1.1,0.2-1.5C575.6,856.7,576.1,856,576.8,855.5z M580.6,858.4c-0.1-0.3-0.2-0.6-0.5-0.7l-0.7-0.2
		l-0.4,1.2c-0.2,0.7-0.1,1.2,0.4,1.4c0.2,0.1,0.5,0,0.7-0.1c0.2-0.2,0.4-0.4,0.4-0.7C580.7,859,580.7,858.7,580.6,858.4L580.6,858.4
		z"/>
	<path class="st2" d="M578.9,846.3l5.2,1.6c1,0.2,1.8,0.8,2.3,1.7c0.4,0.9,0.4,2,0,2.9c-0.2,0.6-0.4,1.1-0.7,1.6
		c-0.2,0.5-0.7,0.8-1.1,1.1l-1.1-1.1c0.3-0.2,0.6-0.5,0.8-0.8c0.2-0.3,0.4-0.7,0.6-1.1c0.2-0.5,0.2-1.1,0-1.5
		c-0.2-0.4-0.7-0.7-1.1-0.8l-0.2-0.1c0.4,0.7,0.4,1.5,0.2,2.2c-0.2,0.6-0.5,1.1-0.9,1.5c-0.4,0.4-0.9,0.7-1.4,0.8
		c-1.1,0.2-2.4-0.1-3.2-1c-0.4-0.4-0.7-0.9-0.7-1.5c-0.1-0.6-0.1-1.1,0.1-1.7c0.2-0.8,0.7-1.5,1.5-1.8l-0.8-0.2L578.9,846.3z
		 M582.4,849.9c-0.4-0.8-1.4-1.1-2.2-0.7c-0.4,0.2-0.7,0.7-0.8,1.1c-0.2,0.4-0.2,0.9,0.1,1.3c0.4,0.8,1.4,1.1,2.2,0.7l0,0
		c0.4-0.2,0.7-0.7,0.8-1.1C582.5,850.7,582.5,850.3,582.4,849.9z"/>
	<path class="st2" d="M585.9,845.2c-0.4,0.4-1,0.7-1.5,0.9c-1.2,0.2-2.5-0.1-3.3-1.1c-0.4-0.4-0.7-1-0.7-1.5
		c-0.2-1.3,0.2-2.6,1.1-3.6c0.4-0.4,1-0.7,1.5-0.9c1.2-0.2,2.5,0.1,3.3,1.1c0.4,0.4,0.7,1,0.7,1.5
		C587.2,843,586.8,844.3,585.9,845.2L585.9,845.2z M585.2,841.9c-0.6-0.8-1.6-1.1-2.5-0.8c-0.4,0.2-0.7,0.6-0.8,1
		c-0.2,0.4-0.1,0.9,0.1,1.3c0.6,0.8,1.6,1.1,2.5,0.8c0.4-0.2,0.7-0.6,0.8-1C585.5,842.7,585.4,842.2,585.2,841.9L585.2,841.9z"/>
	<path class="st2" d="M588.2,838.3c-0.2,0.4-0.5,0.7-0.8,1.1l-1.1-1c0.3-0.2,0.6-0.6,0.7-0.9c0.2-0.3,0.4-0.7,0.5-1.1
		c0.2-0.7,0.2-1.2-0.2-1.3c-0.2-0.1-0.4,0-0.5,0.2c-0.2,0.2-0.3,0.6-0.5,0.9c-0.2,0.4-0.4,0.8-0.7,1.2c-0.2,0.3-0.5,0.6-0.8,0.7
		c-0.4,0.2-0.8,0.2-1.2,0c-0.4-0.1-0.7-0.3-1-0.7c-0.2-0.3-0.4-0.8-0.4-1.2c0-0.6,0.1-1.1,0.2-1.6c0.2-0.4,0.3-0.9,0.6-1.3
		c0.2-0.3,0.4-0.7,0.7-1l1.1,1c-0.5,0.5-0.8,1.1-1.1,1.6c-0.1,0.3-0.2,0.7-0.1,0.9c0,0.2,0.2,0.3,0.3,0.4c0.2,0.1,0.4,0,0.5-0.2
		c0.2-0.3,0.4-0.6,0.6-0.9c0.2-0.4,0.4-0.8,0.7-1.1c0.2-0.3,0.5-0.6,0.8-0.7c0.4-0.2,0.8-0.2,1.2,0c0.4,0.1,0.7,0.3,0.9,0.7
		c0.2,0.4,0.4,0.8,0.4,1.2c0,0.6-0.1,1.1-0.2,1.7C588.7,837.3,588.5,837.8,588.2,838.3z"/>
	<path class="st2" d="M766.9,484.5c-0.7,0.2-1.5,0.2-2.3,0.1c-1.5-0.4-2.8-1.6-3.3-3.2c-0.2-0.7-0.2-1.5,0.1-2.3
		c0.2-0.8,0.7-1.5,1.3-2.1c0.5-0.5,1.1-0.9,1.7-1.1c0.6-0.2,1.2-0.3,1.9-0.2l-0.1,1.7c-0.8-0.1-1.6,0.2-2.2,0.8
		c-0.3,0.3-0.7,0.8-0.7,1.2c-0.2,0.5-0.2,0.9,0,1.4c0.3,1,1.1,1.7,2,2c0.5,0.2,0.9,0.2,1.4,0c0.5-0.2,0.9-0.4,1.2-0.7
		c0.6-0.6,0.9-1.4,0.8-2.3l1.7-0.1c0.1,0.7,0,1.3-0.2,1.9c-0.2,0.7-0.7,1.2-1.1,1.7C768.5,483.8,767.7,484.2,766.9,484.5z"/>
	<path class="st2" d="M775,476.5c-0.1,0.2-0.2,0.5-0.2,0.7c-0.2,0.2-0.3,0.5-0.6,0.7c-0.4,0.5-1.1,0.8-1.7,0.9
		c-0.7,0-1.3-0.3-1.7-0.8l-1.9-1.9l-0.7,0.7l-1.1-1.1l0.7-0.7l-1.1-1.1l1.4-1.4l1.1,1.1l1.1-1.1l1.1,1.1l-1.1,1.1l1.9,1.9
		c0.2,0.2,0.4,0.2,0.6,0.3c0.2,0,0.4-0.1,0.6-0.2c0.2-0.2,0.3-0.4,0.4-0.7L775,476.5z"/>
	<path class="st2" d="M773.3,469.5c0.2-0.4,0.4-0.8,0.7-1.1l1.2,1.2c-0.2,0.2-0.2,0.2-0.3,0.3c-0.3,0.3-0.6,0.7-0.6,1.2
		s0.2,1,0.7,1.3l2.2,2.2l-1.4,1.4l-4.6-4.6l1.3-1.3l0.7,0.7C773.2,470.3,773.2,469.9,773.3,469.5z"/>
	<path class="st2" d="M779,464.6c0.8,0,1.6,0.3,2.1,1l2.7,2.6l-1.2,1.3l-0.6-0.6c0.2,0.8-0.2,1.5-0.7,2c-0.3,0.3-0.7,0.6-1.1,0.7
		c-0.3,0.2-0.7,0.2-1.1,0.1c-0.3-0.1-0.7-0.2-0.9-0.5c-0.4-0.4-0.7-1-0.6-1.5c0.2-0.7,0.6-1.4,1.1-1.9l1.1-1.1
		c-0.2-0.2-0.6-0.4-1-0.4c-0.4,0.1-0.8,0.2-1.1,0.6c-0.2,0.2-0.5,0.6-0.7,0.8c-0.2,0.3-0.2,0.6-0.3,0.9l-1.5-0.5
		c0.1-0.5,0.2-0.9,0.5-1.3c0.2-0.5,0.6-0.9,1-1.2C777.3,465.1,778.1,464.7,779,464.6z M781,468.9c0.1-0.3,0-0.6-0.1-0.8l-0.5-0.5
		l-0.9,0.9c-0.6,0.6-0.7,1-0.2,1.4c0.2,0.2,0.4,0.2,0.7,0.2c0.2-0.1,0.5-0.2,0.7-0.4C780.8,469.5,780.9,469.2,781,468.9z"/>
	<path class="st2" d="M785.7,453.3l6.4,6.4l-1.3,1.3l-0.6-0.6c0.1,0.8-0.2,1.5-0.8,2c-0.4,0.4-0.9,0.7-1.5,0.9
		c-0.6,0.2-1.1,0.2-1.7,0c-1.2-0.4-2.1-1.3-2.5-2.5c-0.2-0.6-0.2-1.1,0-1.7s0.5-1.1,0.9-1.5c0.5-0.6,1.2-0.9,2-0.8l-2.3-2.3
		L785.7,453.3z M789.1,460c-0.1-1-0.9-1.8-1.9-1.9c-1,0-1.7,0.7-1.7,1.7c0.1,1,0.9,1.8,1.9,1.9C788.3,461.7,789.1,461,789.1,460z"/>
	<path class="st2" d="M795.9,452l-3.5,3.5c0.3,0.2,0.7,0.3,1.1,0.2s0.8-0.3,1.1-0.7c0.2-0.2,0.4-0.5,0.6-0.7
		c0.1-0.2,0.2-0.6,0.2-0.9l1.5,0.1c0,1.1-0.4,2-1.1,2.7c-0.5,0.5-1.1,0.9-1.7,1.1c-0.6,0.2-1.2,0.2-1.8,0.1
		c-0.6-0.2-1.1-0.5-1.5-0.9s-0.7-1-0.9-1.5c-0.2-0.6-0.2-1.1,0-1.7c0.4-1.2,1.3-2.1,2.4-2.5c0.6-0.2,1.1-0.2,1.7,0s1.1,0.5,1.6,1
		C795.6,451.6,795.7,451.8,795.9,452z M791.3,453.7c0,0.4,0.1,0.8,0.3,1.1l2.3-2.3c-0.3-0.2-0.7-0.3-1.1-0.3c-0.4,0-0.7,0.2-1.1,0.5
		C791.5,452.9,791.3,453.3,791.3,453.7L791.3,453.7z"/>
	<path class="st2" d="M804,445.2l-2.8,2.9l0.7,1.8l-1.5,1.5l-3.3-8.7l1.4-1.4l8.8,3.3l-1.5,1.5L804,445.2z M802.5,444.6l-3.3-1.4
		l1.4,3.3L802.5,444.6z"/>
	<path class="st2" d="M801.4,437.5l1.3-1.4l6.4,6.4l-1.4,1.4L801.4,437.5z"/>
	<path class="st2" d="M805,435.7c-0.6,0-1.1-0.4-1.1-1v-0.1c0-0.3,0.2-0.6,0.4-0.8c0.2-0.2,0.5-0.4,0.8-0.4c0.2,0,0.6,0.1,0.7,0.2
		c0.2,0.2,0.3,0.5,0.3,0.8C806.1,435.2,805.6,435.7,805,435.7L805,435.7z M805.8,436.7l1.4-1.4l4.6,4.6l-1.4,1.4L805.8,436.7z"/>
	<path class="st2" d="M813.7,437.6c-0.6,0.2-1.2,0.2-1.8,0.1c-0.6-0.2-1.1-0.5-1.5-0.9c-0.4-0.4-0.7-1-0.9-1.5
		c-0.2-0.6-0.1-1.2,0.1-1.8c0.2-0.7,0.6-1.2,1.1-1.6c0.4-0.5,1-0.8,1.5-1c0.6-0.2,1.1-0.2,1.7,0.1l-0.5,1.6c-0.6-0.2-1.2,0-1.7,0.4
		c-0.3,0.3-0.5,0.7-0.5,1.2c0.1,1,0.9,1.8,1.9,1.9c0.5,0,0.9-0.2,1.2-0.5c0.5-0.4,0.7-1.1,0.4-1.7l1.6-0.5c0.2,0.6,0.2,1.1,0.1,1.6
		c-0.2,0.6-0.5,1.1-1,1.6C814.9,437,814.3,437.4,813.7,437.6z"/>
	<path class="st2" d="M817.4,425.9c0.8,0,1.6,0.3,2.1,1l2.7,2.6l-1.2,1.3l-0.6-0.6c0.2,0.8-0.2,1.5-0.7,2c-0.3,0.3-0.7,0.6-1.1,0.7
		c-0.3,0.2-0.7,0.2-1.1,0.1c-0.3-0.1-0.7-0.2-0.9-0.5c-0.4-0.4-0.7-1-0.6-1.5c0.2-0.7,0.6-1.4,1.1-1.9l1.1-1.1
		c-0.2-0.2-0.6-0.4-1-0.4c-0.4,0.1-0.8,0.2-1.1,0.6c-0.2,0.2-0.5,0.6-0.7,0.8c-0.2,0.3-0.2,0.6-0.3,0.9l-1.5-0.5
		c0.1-0.5,0.2-0.9,0.5-1.3c0.2-0.5,0.6-0.9,1-1.2C815.8,426.4,816.6,426,817.4,425.9z M819.5,430.2c0.1-0.3,0-0.6-0.1-0.8l-0.5-0.5
		l-0.9,0.9c-0.6,0.6-0.7,1-0.2,1.4c0.2,0.2,0.4,0.2,0.7,0.2c0.2-0.1,0.5-0.2,0.7-0.4C819.3,430.8,819.5,430.5,819.5,430.2z"/>
	<path class="st2" d="M823.4,419.8c0.8,0,1.5,0.4,2,1l2.7,2.7l-1.4,1.4l-2.4-2.4c-0.2-0.3-0.7-0.5-1.1-0.6c-0.4,0-0.7,0.2-1,0.4
		c-0.3,0.3-0.5,0.7-0.5,1.1c0.1,0.5,0.2,0.9,0.7,1.2l2.3,2.3l-1.4,1.4l-4.6-4.6l1.3-1.3l0.6,0.6c0-0.4,0.1-0.7,0.2-1.1
		s0.4-0.7,0.7-1.1C822,420.2,822.7,419.8,823.4,419.8z"/>
	<path class="st2" d="M832.2,419c-0.1,0.2-0.2,0.5-0.2,0.7c-0.2,0.2-0.3,0.5-0.6,0.7c-0.4,0.5-1.1,0.8-1.7,0.9
		c-0.7,0-1.3-0.3-1.7-0.8l-2-1.9l-0.7,0.7l-1.1-1.1l0.7-0.7l-1.1-1.1l1.4-1.4l1.1,1.1l1.1-1.1l1.1,1.1l-1.1,1.1l1.9,1.9
		c0.2,0.2,0.4,0.2,0.6,0.3c0.2,0,0.4-0.1,0.6-0.2c0.2-0.2,0.3-0.4,0.4-0.7L832.2,419z"/>
	<path class="st2" d="M835.6,412.2l-3.5,3.5c0.3,0.2,0.7,0.3,1.1,0.2c0.4-0.1,0.8-0.3,1.1-0.7c0.2-0.2,0.4-0.5,0.6-0.7
		c0.1-0.2,0.2-0.6,0.2-0.9l1.5,0.1c0,1.1-0.4,2-1.1,2.7c-0.5,0.5-1.1,0.9-1.7,1.1c-0.6,0.2-1.2,0.2-1.8,0.1
		c-0.6-0.2-1.1-0.5-1.5-0.9c-0.4-0.4-0.7-1-0.9-1.5c-0.2-0.6-0.2-1.1,0-1.7c0.2-0.6,0.5-1.1,1-1.5c0.4-0.4,1-0.7,1.5-1
		c0.6-0.2,1.1-0.2,1.7,0s1.1,0.5,1.6,1C835.3,411.8,835.3,411.9,835.6,412.2z M830.9,413.8c0,0.4,0.1,0.8,0.3,1.1l2.3-2.3
		c-0.3-0.2-0.7-0.3-1.1-0.3c-0.4,0-0.7,0.2-1.1,0.5C831.1,413.1,830.9,413.5,830.9,413.8L830.9,413.8z"/>
</g>
</svg>
