<svg xmlns="http://www.w3.org/2000/svg" viewBox="0 0 1080 1080">
    <defs>
        <style>.cls-2{stroke-miterlimit:10;}.cls-2{fill:none;stroke:#fff;stroke-width:8px;}.cls-3{font-size:15px;}.cls-13,.cls-20,.cls-3{fill:#fff;font-family:Montserrat-Bold, Montserrat;font-weight:700;}.cls-4{letter-spacing:-0.015em;}.cls-5{letter-spacing:-0.009em;}.cls-6{letter-spacing:0em;}.cls-7{letter-spacing:0.006em;}.cls-8{letter-spacing:-0.007em;}.cls-9{letter-spacing:-0.004em;}.cls-10{letter-spacing:-0.004em;}.cls-11{letter-spacing:0em;}.cls-12{letter-spacing:-0.005em;}.cls-13{font-size:13px;}.cls-14{letter-spacing:0.006em;}.cls-15{letter-spacing:-0.004em;}.cls-16{letter-spacing:0em;}.cls-17{letter-spacing:-0.011em;}.cls-18{letter-spacing:0.015em;}.cls-19{letter-spacing:-0.007em;}.cls-20{font-size:10px;}.cls-21{letter-spacing:-0.01em;}.cls-22{letter-spacing:0.006em;}.cls-23{letter-spacing:-0.0069em;}.cls-24{letter-spacing:0em;}.cls-25{letter-spacing:-0.007em;}.cls-26{letter-spacing:-0.009em;}</style>
    </defs>
    <g id="4_El_Palmeral_-_Urbanova_-_Tabarca" class="zone" data-name="4_El_Palmeral_-_Urbanova_-_Tabarca">
        <path class="cls-1" d="M554.7139,847.21l45-132,2.9038-8.7115-121.92-53.4555,32.14-71.5362-7.7375-41.0978a16.5332,16.5332,0,0,1-7.8406,1.0847c-7.0962-.3233-66.79-3.1206-76.0234-6.1983-9.0083-3.0029-47.5831-18.4258-49.2208-19.081l-.3867-.1548-.3467-.231c-1.0278-.62-3.208-1.248-5.5263,1.9971-5.0117,7.0161-121.5562,142.5327-128.1006,150.1416a240.6493,240.6493,0,0,0-16.5767,27.3223c-6.687,13.374-21.8061,44.54-22.915,46.8256-.3574,1.01-.6948,3.6607,3.9619,5.73,9.1035,4.0459,160.9453,93.4063,167.4043,97.208L516.0068,932.54l15.0342,8.4565a1.6066,1.6066,0,0,0,1.5366-1.2808c1.0039-5.0195,21.1763-88.5986,22.0337-92.1538Z"/>
    </g>
    <g id="4_San_Gabriel" class="zone" data-name="4_San_Gabriel">
        <path class="cls-1" d="M652.6208,604.19,551.9629,534.1519l-39.026,4.645,8.2262,43.6972-29.86,66.4634,113.8556,49.9186,10.5067-31.52c.3516-1.3067,2.7012-9.354,9.5577-19.15C631.5023,639.2357,649.5447,609.3041,652.6208,604.19Z"/>
    </g>
    <g id="4_Babel" class="zone" data-name="4_Babel">
        <path class="cls-1" d="M889.6572,590.249c-.7715-.7387-1.6064-1.5386-2.4883-2.42-7.6269-7.6269-30.0751-31.8389-32.8564-34.8408-4.8057-3.6567-12.0059-12.5816-6.8125-21.93,5.08-9.145,13.61-8.229,20.4629-7.4951a57.7272,57.7272,0,0,0,6.0342.4375c2.1582,0,4.5195.2061,6.8027.4053,3,.2622,9.2412.8061,10.3779-.2476a4.3354,4.3354,0,0,0-.1025-1.373c-1.2313-6.1541-7.5815-44.1436-12.4041-73.1834L774.9873,468.8486l-30.2822-34.6079-1.792-12.5454,22.9687-.9985L764.0527,408.5H728.8965l-2.8291-26.8716L760.5,380.6157l.0136-19.2979-37.6542,2.168c-1.4385.1836-16.9532,2.2818-29.5733,8.5918-13.2882,6.6437-151.9369,58.73-172.071,66.2848a23.884,23.884,0,0,1-1.5413,5.2133c-2.8891,6.7412-12.8564,27.6147-13.98,29.9648-.16.5342-1.36,4.9522.2383,13.7442,1.9155,10.5361,6.6284,38.771,6.9888,40.9292a17.0609,17.0609,0,0,1,.2956,5.171l42.3172-5.0368,1.247.8687,106.0662,73.8016a16.464,16.464,0,0,1,4.71,2.9088c5.5713,4.6421,24.4072,19.9,26.7236,21.7754a9.1455,9.1455,0,0,0,1.8877-1.5312,2.6406,2.6406,0,0,0,.9268-1.6275,3.58,3.58,0,0,0-1.1728-1.9824c-.5977-.5171-5.4444-4.87-5.6387-10.3135a9.3626,9.3626,0,0,1,2.8847-7.0766c4.7549-4.7554,16.5967-17.53,17.3555-18.3486.6514-.7374,4.3418-4.6587,9.3-4.4249,2.127.0938,5.23.9991,7.9278,4.7769,1.5976,2.2363,3.98,4.9395,6.5039,7.8018,5.5752,6.3232,10.8418,12.2963,11.6865,17.3657.1523.914.3281,1.8989.5176,2.9541A132.77,132.77,0,0,1,748.9971,640c0,16.5889-1.6153,27.1533-4.8,31.4-.3858.5147-.8164,1.0449-1.2657,1.5957-3.0068,3.69-4.9931,6.1284-.7773,11.5488,6.2422,8.0249,17.3291,23.3052,19.6523,26.5147a7.8448,7.8448,0,0,0,2.9717-1.3872,6.0027,6.0027,0,0,0,1.6582-1.4351,15.7367,15.7367,0,0,0-1.9687-2.9531l-.6709-.8838c-.36-.481-.8692-1.083-1.4571-1.78-3.9775-4.7134-11.3818-13.4858-5.9209-24.4092,4.7754-9.55,30.1954-65.0625,31.8575-68.6933a12.2783,12.2783,0,0,1,6.6855-7.08c4.1777-1.7314,9.2012-1.0444,14.9317,2.04,2.8916,1.5572,6.4785,3.147,10.2773,4.8306,13.9668,6.19,29.7988,13.2065,28.8145,25.998-.9913,12.8843-3.9756,44.7466-4.0059,45.0669l-.0371.2842c-.6055,3.7163-.1192,7.7949.69,8.398,12.1582,2.0214,10.8369,13.91,10.34,18.3862-.9756,8.7827-2.961,46.39-2.9815,46.7685l-.0254.2857a39.2542,39.2542,0,0,0,1.8262,15.2393c.4424,1.3281,1.79,5.3706,2.6133,6.0439a14.5,14.5,0,0,0,3.5918.2207c1.0381,0,1.955.0728,2.7646.1367a16.1614,16.1614,0,0,0,1.7149.0835c.3252-.5762,1.1005-2.6313,1.5283-9.47.9678-15.4888,7.6513-131.93,7.9863-137.7612-.0889-2.2359.1-13.74,12.1777-25.8179,5.5879-5.5884,6.4092-7.6367,6.4014-8.3609C893.5615,593.9868,891.4873,592.0015,889.6572,590.249Z"/>
    </g>
    <g id="4_Benalúa" class="zone" data-name="4_Benalúa">
        <path class="cls-1" d="M767.48,388.3843l-33.5674.9873L735.0837,400.5h34.8438l4.1709,27.8032-23.0313,1.0015.208,1.4546,25.7178,29.3921,99.3545-18.4435c-2.3439-14.1348-4.099-24.7741-4.3105-26.057l-9.3291-60.2756L767.5,360.8572Z"/>
    </g>
    <g id="4_Alipark" class="zone" data-name="4_Alipark">
        <path class="cls-1" d="M850.2354,321.2949c-8.8868-2.9624-63.43-20.8135-63.98-20.9931l-73.99-23.9971-1.97-.6408,35.1195,75.9236,115.58-6.6542-2.4114-15.58A12.9913,12.9913,0,0,0,850.2354,321.2949Z"/>
    </g>
    <g id="4_Princesa_Mercedes" class="zone" data-name="4_Princesa_Mercedes">
        <path class="cls-1" d="M688.2109,363.4224c14.46-7.23,31.6-9.31,32.3213-9.3951l.2383-.021,16.0585-.9245-36.91-79.7933-21.812-7.0956-16.413,108.0659C675.3416,368.913,685.2281,364.9139,688.2109,363.4224Z"/>
    </g>
    <g id="4_La_Florida" class="zone" data-name="4_La_Florida">
        <path class="cls-1" d="M661.0436,332.8444l-128.1515-17.821-34.9762,2.9632L520.3945,426.58a23.3364,23.3364,0,0,1,.4991,2.67c19.5736-7.3521,89.5863-33.6915,133.1987-50.6367Z"/>
    </g>
    <g id="4_La_Florida_Portazgo" class="zone" data-name="4_La_Florida_Portazgo">
        <polygon class="cls-1" points="660.245 324.935 669.396 264.684 628.263 251.304 593.876 239.841 579.834 313.753 660.245 324.935"/>
    </g>
    <g id="4_Ciudad_de_Asís" class="zone" data-name="4_Ciudad_de_Asís">
        <path class="cls-1" d="M472.1,198.2266c1.583,8.7832,10.7261,54.5092,10.8223,54.9887l11.36,54.8808,36.8253-3.1195,40.7929,5.6726,14.3167-75.36-58.4538-19.4845Z"/>
    </g>
    <g id="_Strokes">
        <path class="cls-2" d="M530,213l-57-18s-5-2-4,4,11,56,11,56l35.5,171.5a23.066,23.066,0,0,1-1,14c-3,7-14,30-14,30s-2,5,0,16,7,41,7,41,3,12-10,11c0,0-66-3-75-6s-49-19-49-19-6-4-11,3-128,150-128,150a243.6751,243.6751,0,0,0-17,28c-7,14-23,47-23,47s-3,7,6,11,167,97,167,97L514,937l16,9s5.5.5,6.5-4.5,22-92,22-92l45-132,16-48s2-8,9-18,28-45,28-45,1-4,7,1,27,22,27,22,2,3,7-2-.5-9.5-.5-9.5-7.5-6.5-2.5-11.5S712,588,712,588s6-7,11,0,16.5,17.5,17.5,23.5,3,15,3,27-1,25-4,29-9,9-2,18,20,27,20,27,2,3,8-1,3-7,0-11-12-12-7-22,32-69,32-69,3-10,16-3,38,14,37,27-4,45-4,45-2,12,4,13,8,5,7,14-3,47-3,47a42.772,42.772,0,0,0,2,17c3,9,4,9,10,9s9,3,10-13,8-138,8-138-1-11,11-23,8-13,0-21-33-35-33-35-11-8-6-17,14-5,23-5,23,4,21-6-18-107-18-107l-13-84a16.9286,16.9286,0,0,0-11-11c-9-3-64-21-64-21l-74-24-83-27Z"/>
        <path class="cls-2" d="M865.6221,349.6736,721,358s-17,2-31,9-173.9264,66.957-173.9264,66.957"/>
        <polyline class="cls-2" points="763.019 355.581 763 383 729 384 731 403 766 403 769 423 746 424 747 431 775 463 880.453 443.424"/>
        <line class="cls-2" x1="702.8172" y1="270.0249" x2="742.9273" y2="356.7376"/>
        <line class="cls-2" x1="674.86" y1="260.9304" x2="656.6998" y2="380.5"/>
        <polyline class="cls-2" points="492.085 313.381 532 310 664.607 328.44"/>
        <line class="cls-2" x1="591.8" y1="233.6" x2="576.1202" y2="316.1354"/>
        <polyline class="cls-2" points="505.256 536.683 553 531 659.535 605.128"/>
        <polyline class="cls-2" points="508.214 536.331 517 583 486 652 607.567 705.3"/>
    </g>
    <g id="Textos" class="text">
        <text class="cls-3" transform="translate(363.3096 713.5913)">
            <tspan class="cls-4">P</tspan>
            <tspan x="10.7549" y="0">a</tspan>
            <tspan class="cls-5" x="20.0098" y="0">r</tspan>
            <tspan class="cls-6" x="26.3398" y="0">que el</tspan>
            <tspan class="cls-4" x="2.3701" y="18">P</tspan>
            <tspan x="13.125" y="18">al</tspan>
            <tspan class="cls-7" x="26.895" y="18">m</tspan>
            <tspan x="42.7197" y="18">e</tspan>
            <tspan class="cls-8" x="52.1846" y="18">r</tspan>
            <tspan x="58.5449" y="18">al</tspan>
        </text>
        <text class="cls-3" transform="translate(526.6519 627.5913)">San Gab<tspan class="cls-9" x="64.604" y="0">r</tspan>
            <tspan x="71.0088" y="0">iel</tspan>
        </text>
        <text class="cls-3" transform="translate(661.6519 515.5913)">Babel</text>
        <text class="cls-3" transform="translate(544.6519 372.5913)">
            <tspan class="cls-7">L</tspan>
            <tspan x="9.1499" y="0">a Flo</tspan>
            <tspan class="cls-10" x="46.5742" y="0">r</tspan>
            <tspan class="cls-11" x="52.9795" y="0">ida</tspan>
        </text>
        <text class="cls-3" transform="translate(494.6475 266.5913)">Ciud<tspan class="cls-7" x="36.1943" y="0">a</tspan>
            <tspan x="45.5391" y="0">d de</tspan>
            <tspan class="cls-12" x="24.0747" y="18">A</tspan>
            <tspan x="35.4897" y="18">sís</tspan>
        </text>
        <text class="cls-13" transform="translate(593.2295 288.5913)">
            <tspan class="cls-14">L</tspan>
            <tspan x="7.9297" y="0">a Flo</tspan>
            <tspan class="cls-15" x="40.3643" y="0">r</tspan>
            <tspan class="cls-16" x="45.9155" y="0">ida</tspan>
            <tspan class="cls-17" x="2.4497" y="15.6001">P</tspan>
            <tspan x="11.8228" y="15.6001">o</tspan>
            <tspan class="cls-18" x="20.3379" y="15.6001">r</tspan>
            <tspan x="26.1357" y="15.6001">ta</tspan>
            <tspan class="cls-19" x="39.8115" y="15.6001">z</tspan>
            <tspan x="46.7798" y="15.6001">go</tspan>
        </text>
        <text class="cls-20" transform="translate(674.1021 328.5913)">
            <tspan class="cls-21">P</tspan>
            <tspan class="cls-9" x="7.2202" y="0">r</tspan>
            <tspan x="11.4902" y="0">i</tspan>
            <tspan class="cls-22" x="14.5" y="0">n</tspan>
            <tspan class="cls-23" x="21.4697" y="0">c</tspan>
            <tspan class="cls-24" x="27.3101" y="0">esa</tspan>
            <tspan x="-2.835" y="12">Me</tspan>
            <tspan class="cls-5" x="13.0249" y="12">r</tspan>
            <tspan class="cls-25" x="17.2451" y="12">c</tspan>
            <tspan x="23.085" y="12">edes</tspan>
        </text>
        <text class="cls-3" transform="translate(758.6519 333.5913)">Ali<tspan class="cls-26" x="20.5195" y="0">p</tspan>
            <tspan x="30.7349" y="0">a</tspan>
            <tspan class="cls-9" x="39.9897" y="0">r</tspan>
            <tspan x="46.3945" y="0">k</tspan>
        </text>
        <text class="cls-3" transform="translate(785.6519 409.5913)">Benalua</text>
    </g>
</svg>