<?xml version="1.0" encoding="utf-8"?>
<!-- Generator: Adobe Illustrator 24.0.2, SVG Export Plug-In . SVG Version: 6.00 Build 0)  -->
<svg version="1.1" id="Capa_1" xmlns="http://www.w3.org/2000/svg" xmlns:xlink="http://www.w3.org/1999/xlink" x="0px" y="0px"
	 viewBox="0 0 1080 1080" style="enable-background:new 0 0 1080 1080;" xml:space="preserve">
<style type="text/css">
	.st1{fill:none;stroke:#FFFFFF;stroke-width:8;stroke-miterlimit:10;}
	.st2{enable-background:new    ;}
	.st3{fill:#FFFFFF;}
</style>
<g id="4_El_Palmeral_-_Urbanova_-_Tabarca" class="zone" data-name="4_El_Palmeral_-_Urbanova_-_Tabarca">
	<path class="st0" d="M523.5,891.6L580.6,724l3.7-11.1L429.5,645l40.8-90.9l-9.8-52.2c-3.2,1.3-6.6,1.7-10,1.4
		c-9-0.4-84.8-4-96.6-7.9c-11.4-3.8-60.4-23.4-62.5-24.2l-0.5-0.2l-0.4-0.3c-1.3-0.8-4.1-1.6-7,2.5c-6.4,8.9-154.4,181-162.7,190.7
		c-7.8,11.1-14.8,22.7-21.1,34.7c-8.5,17-27.7,56.6-29.1,59.5c-0.5,1.3-0.9,4.6,5,7.3c11.6,5.1,204.4,118.6,212.6,123.5l186,111.1
		l19.1,10.7c0.9,0,1.8-0.7,2-1.6c1.3-6.4,26.9-112.5,28-117L523.5,891.6z"/>
</g>
<g id="4_San_Gabriel" class="zone" data-name="4_San_Gabriel">
	<path class="st0" d="M647.8,583L520,494l-49.6,5.9l10.4,55.5L443,639.8l144.6,63.4l13.3-40c0.4-1.7,3.4-11.9,12.1-24.3
		C621,627.5,643.9,589.5,647.8,583z"/>
</g>
<g id="4_Babel" class="zone" data-name="4_Babel">
	<path class="st0" d="M948.9,565.3c-1-0.9-2-2-3.2-3.1c-9.7-9.7-38.2-40.4-41.7-44.3c-6.1-4.6-15.2-16-8.7-27.9
		c6.5-11.6,17.3-10.5,26-9.5c2.5,0.3,5.1,0.5,7.7,0.6c2.7,0,5.7,0.3,8.6,0.5c3.8,0.3,11.7,1,13.2-0.3c0-0.6,0-1.2-0.1-1.7
		c-1.6-7.8-9.6-56.1-15.8-92.9l-131.7,24.4l-38.5-44l-2.3-15.9l29.2-1.3l-2.3-15.5h-44.7l-3.6-34.1l43.7-1.3l0-24.5l-47.8,2.8
		c-1.8,0.2-21.5,2.9-37.6,10.9c-16.9,8.4-193,74.6-218.5,84.2c-0.4,2.3-1.1,4.5-2,6.6c-3.7,8.6-16.3,35.1-17.8,38.1
		c-0.2,0.7-1.7,6.3,0.3,17.5c2.4,13.4,8.4,49.2,8.9,52c0.5,2.2,0.6,4.4,0.4,6.6l53.7-6.4l1.6,1.1l134.7,93.7c2.2,0.9,4.2,2.1,6,3.7
		c7.1,5.9,31,25.3,33.9,27.7c0.9-0.5,1.7-1.2,2.4-1.9c0.6-0.5,1.1-1.3,1.2-2.1c-0.2-1-0.7-1.9-1.5-2.5c-0.8-0.7-6.9-6.2-7.2-13.1
		c-0.1-3.4,1.2-6.6,3.7-9c6-6,21.1-22.3,22-23.3c0.8-0.9,5.5-5.9,11.8-5.6c2.7,0.1,6.6,1.3,10.1,6.1c2,2.8,5.1,6.3,8.3,9.9
		c7.1,8,13.8,15.6,14.8,22.1c0.2,1.2,0.4,2.4,0.7,3.8c2.1,10.3,3.1,20.8,3.2,31.4c0,21.1-2.1,34.5-6.1,39.9c-0.5,0.7-1,1.3-1.6,2
		c-3.8,4.7-6.3,7.8-1,14.7c7.9,10.2,22,29.6,25,33.7c1.4-0.3,2.7-0.9,3.8-1.8c0.8-0.5,1.5-1.1,2.1-1.8c-0.7-1.3-1.5-2.6-2.5-3.8
		l-0.9-1.1c-0.5-0.6-1.1-1.4-1.9-2.3c-5.1-6-14.5-17.1-7.5-31c6.1-12.1,38.4-82.6,40.5-87.2c1.5-4,4.5-7.3,8.5-9
		c5.3-2.2,11.7-1.3,19,2.6c3.7,2,8.2,4,13.1,6.1c17.7,7.9,37.8,16.8,36.6,33c-1.3,16.4-5,56.8-5.1,57.2l0,0.4
		c-0.8,4.7-0.2,9.9,0.9,10.7c15.4,2.6,13.8,17.7,13.1,23.4c-1.2,11.2-3.8,58.9-3.8,59.4l0,0.4c-0.5,6.5,0.3,13.1,2.3,19.4
		c0.6,1.7,2.3,6.8,3.3,7.7c1.5,0.3,3,0.4,4.6,0.3c1.3,0,2.5,0.1,3.5,0.2c0.7,0.1,1.5,0.1,2.2,0.1c0.4-0.7,1.4-3.3,1.9-12
		c1.2-19.7,9.7-167.6,10.1-175c-0.1-2.8,0.1-17.5,15.5-32.8c7.1-7.1,8.1-9.7,8.1-10.6C953.9,570,951.2,567.5,948.9,565.3z"/>
</g>
<g id="4_Benalúa" class="zone" data-name="4_Benalúa">
	<path class="st0" d="M793.7,308.9l-42.6,1.3l1.5,14.1h44.3l5.3,35.3l-29.3,1.3l0.3,1.8l32.7,37.3L932,376.6
		c-3-18-5.2-31.5-5.5-33.1L914.7,267l-120.9,7L793.7,308.9z"/>
</g>
<g id="4_Alipark" class="zone" data-name="4_Alipark">
	<path class="st0" d="M898.8,223.7c-11.3-3.8-80.6-26.4-81.3-26.7l-94-30.5l-2.5-0.8l44.6,96.4l146.8-8.5l-3.1-19.8
		C907.7,229,903.8,225.2,898.8,223.7z"/>
</g>
<g id="4_Princesa_Mercedes" class="zone" data-name="4_Princesa_Mercedes">
	<path class="st0" d="M693,277.2c18.4-9.2,40.1-11.8,41.1-11.9l0.3,0l20.4-1.2l-46.9-101.3l-27.7-9L659.4,291
		C676.7,284.2,689.3,279.1,693,277.2z"/>
</g>
<g id="4_La_Florida" class="zone" data-name="4_La_Florida">
	<path class="st0" d="M658.5,238.4l-162.8-22.6l-44.4,3.8l28.5,137.9c0.3,1.1,0.5,2.2,0.6,3.4c24.9-9.3,113.8-42.8,169.2-64.3
		L658.5,238.4z"/>
</g>
<g id="4_La_Florida_Portazgo" class="zone" data-name="4_La_Florida_Portazgo">
	<polygon class="st0" points="657.5,228.3 669.1,151.8 616.9,134.8 573.2,120.2 555.4,214.1 	"/>
</g>
<g id="4_Ciudad_de_Asís" class="zone" data-name="4_Ciudad_de_Asís">
	<path class="st0" d="M418.6,67.4c2,11.2,13.6,69.2,13.7,69.8l14.4,69.7l46.8-4l51.8,7.2l18.2-95.7l-74.2-24.7L418.6,67.4z"/>
</g>
<g id="_x5F_Strokes">
	<path class="st1" d="M492.1,86.1l-72.4-22.9c0,0-6.4-2.5-5.1,5.1c1.3,7.6,14,71.1,14,71.1l45.1,217.8c1.4,5.9,1,12.1-1.3,17.8
		c-3.8,8.9-17.8,38.1-17.8,38.1s-2.5,6.4,0,20.3c2.5,14,8.9,52.1,8.9,52.1s3.8,15.2-12.7,14c0,0-83.8-3.8-95.3-7.6
		c-11.4-3.8-62.2-24.1-62.2-24.1s-7.6-5.1-14,3.8c-6.4,8.9-162.6,190.5-162.6,190.5c-8,11.4-15.2,23.2-21.6,35.6
		C86.3,715.5,66,757.4,66,757.4s-3.8,8.9,7.6,14s212.1,123.2,212.1,123.2l186.1,111.1l20.3,11.4c0,0,7,0.6,8.3-5.7
		c1.3-6.4,27.9-116.8,27.9-116.8l57.2-167.6l20.3-61c0,0,2.5-10.2,11.4-22.9c8.9-12.7,35.6-57.2,35.6-57.2s1.3-5.1,8.9,1.3
		c7.6,6.4,34.3,27.9,34.3,27.9s2.5,3.8,8.9-2.5c6.4-6.4-0.6-12.1-0.6-12.1s-9.5-8.3-3.2-14.6s22.2-23.5,22.2-23.5s7.6-8.9,14,0
		c6.4,8.9,21,22.2,22.2,29.8s3.8,19.1,3.8,34.3c0,15.2-1.3,31.8-5.1,36.8c-3.8,5.1-11.4,11.4-2.5,22.9c8.9,11.4,25.4,34.3,25.4,34.3
		s2.5,3.8,10.2-1.3c7.6-5.1,3.8-8.9,0-14c-3.8-5.1-15.2-15.2-8.9-27.9c6.4-12.7,40.6-87.6,40.6-87.6s3.8-12.7,20.3-3.8
		c16.5,8.9,48.3,17.8,47,34.3c-1.3,16.5-5.1,57.2-5.1,57.2s-2.5,15.2,5.1,16.5c7.6,1.3,10.2,6.4,8.9,17.8s-3.8,59.7-3.8,59.7
		c-0.6,7.3,0.2,14.6,2.5,21.6c3.8,11.4,5.1,11.4,12.7,11.4s11.4,3.8,12.7-16.5c1.3-20.3,10.2-175.3,10.2-175.3s-1.3-14,14-29.2
		c15.2-15.2,10.2-16.5,0-26.7s-41.9-44.5-41.9-44.5s-14-10.2-7.6-21.6s17.8-6.4,29.2-6.4s29.2,5.1,26.7-7.6
		c-2.5-12.7-22.9-135.9-22.9-135.9l-16.5-106.7c-2.1-6.6-7.3-11.9-14-14c-11.4-3.8-81.3-26.7-81.3-26.7l-94-30.5l-105.4-34.3
		L492.1,86.1z"/>
	<path class="st1" d="M918.4,259.7l-183.7,10.6c0,0-21.6,2.5-39.4,11.4c-17.8,8.9-220.9,85-220.9,85"/>
	<polyline class="st1" points="788.1,267.2 788,302.1 744.8,303.3 747.4,327.5 791.8,327.5 795.6,352.9 766.4,354.1 767.7,363 
		803.3,403.7 937.2,378.8 	"/>
	<line class="st1" x1="711.6" y1="158.6" x2="762.5" y2="268.7"/>
	<line class="st1" x1="676.1" y1="147" x2="653" y2="298.9"/>
	<polyline class="st1" points="443.9,213.6 494.6,209.3 663.1,232.8 	"/>
	<line class="st1" x1="570.6" y1="112.3" x2="550.7" y2="217.1"/>
	<polyline class="st1" points="460.7,497.2 521.3,490 656.6,584.2 	"/>
	<polyline class="st1" points="464.4,496.8 475.6,556.1 436.2,643.7 590.6,711.4 	"/>
</g>
<g id="_x5F_Textos" class="text">
	<g class="st2">
		<path class="st3" d="M290.8,709.2c0.9,0.4,1.5,1,2,1.7c0.5,0.7,0.7,1.6,0.7,2.6c0,1-0.2,1.8-0.7,2.6c-0.5,0.7-1.1,1.3-2,1.7
			c-0.9,0.4-1.9,0.6-3.1,0.6h-2.7v3.7H282v-13.3h5.8C288.9,708.6,290,708.8,290.8,709.2z M289.7,715.1c0.5-0.4,0.7-1,0.7-1.7
			c0-0.7-0.2-1.3-0.7-1.7c-0.5-0.4-1.2-0.6-2.1-0.6h-2.5v4.6h2.5C288.5,715.7,289.2,715.5,289.7,715.1z"/>
	</g>
	<g class="st2">
		<path class="st3" d="M303.2,712.7c0.9,0.8,1.3,1.9,1.3,3.4v5.8h-2.8v-1.3c-0.6,1-1.6,1.4-3.1,1.4c-0.8,0-1.5-0.1-2-0.4
			c-0.6-0.3-1-0.6-1.3-1.1s-0.5-1-0.5-1.6c0-1,0.4-1.7,1.1-2.2c0.7-0.5,1.8-0.8,3.3-0.8h2.4c0-0.6-0.2-1.1-0.6-1.5
			c-0.4-0.3-1-0.5-1.8-0.5c-0.5,0-1.1,0.1-1.6,0.3c-0.5,0.2-1,0.4-1.3,0.7l-1.1-2.1c0.6-0.4,1.2-0.7,2-0.9s1.6-0.3,2.4-0.3
			C301.1,711.5,302.4,711.9,303.2,712.7z M300.7,719.7c0.4-0.2,0.7-0.6,0.8-1v-1h-2c-1.2,0-1.8,0.4-1.8,1.2c0,0.4,0.1,0.7,0.4,0.9
			c0.3,0.2,0.7,0.3,1.2,0.3C299.8,720.1,300.3,720,300.7,719.7z"/>
	</g>
	<g class="st2">
		<path class="st3" d="M311.5,711.9c0.6-0.3,1.3-0.4,2.1-0.4v2.7c-0.3,0-0.6,0-0.7,0c-0.9,0-1.5,0.2-2,0.7c-0.5,0.5-0.7,1.2-0.7,2.1
			v4.8h-3v-10.2h2.8v1.4C310.4,712.5,310.9,712.2,311.5,711.9z"/>
	</g>
	<g class="st2">
		<path class="st3" d="M325.6,711.7v13.9h-3v-4.8c-0.7,0.8-1.8,1.2-3.1,1.2c-1,0-1.8-0.2-2.6-0.6c-0.8-0.4-1.4-1-1.8-1.8
			c-0.4-0.8-0.7-1.7-0.7-2.8c0-1.1,0.2-2,0.7-2.8c0.4-0.8,1.1-1.4,1.8-1.8c0.8-0.4,1.7-0.6,2.6-0.6c1.4,0,2.5,0.4,3.2,1.3v-1.2
			H325.6z M322,718.9c0.5-0.5,0.7-1.2,0.7-2.1c0-0.9-0.2-1.6-0.7-2.1c-0.5-0.5-1.1-0.8-1.9-0.8c-0.8,0-1.4,0.3-1.9,0.8
			c-0.5,0.5-0.7,1.2-0.7,2.1c0,0.9,0.2,1.6,0.7,2.1c0.5,0.5,1.1,0.8,1.9,0.8C320.8,719.6,321.5,719.4,322,718.9z"/>
		<path class="st3" d="M338.7,711.7v10.2h-2.8v-1.2c-0.4,0.4-0.9,0.8-1.4,1c-0.5,0.2-1.1,0.4-1.8,0.4c-1.3,0-2.4-0.4-3.2-1.2
			c-0.8-0.8-1.2-1.9-1.2-3.4v-5.8h3v5.4c0,1.7,0.7,2.5,2.1,2.5c0.7,0,1.3-0.2,1.7-0.7c0.4-0.5,0.6-1.2,0.6-2.1v-5.1H338.7z"/>
		<path class="st3" d="M351.4,717.6h-7.8c0.1,0.6,0.5,1.1,1,1.5c0.5,0.4,1.2,0.6,1.9,0.6c0.5,0,1-0.1,1.4-0.2
			c0.4-0.2,0.8-0.4,1.2-0.8l1.6,1.7c-1,1.1-2.4,1.7-4.2,1.7c-1.2,0-2.2-0.2-3.1-0.7c-0.9-0.5-1.6-1.1-2.1-1.9
			c-0.5-0.8-0.7-1.7-0.7-2.7c0-1,0.2-1.9,0.7-2.7c0.5-0.8,1.1-1.4,2-1.9c0.8-0.5,1.8-0.7,2.8-0.7c1,0,1.9,0.2,2.7,0.6
			c0.8,0.4,1.5,1.1,1.9,1.9c0.5,0.8,0.7,1.7,0.7,2.8C351.5,716.9,351.5,717.1,351.4,717.6z M344.5,714.3c-0.5,0.4-0.7,0.9-0.8,1.6h5
			c-0.1-0.6-0.4-1.2-0.8-1.6c-0.5-0.4-1-0.6-1.7-0.6C345.5,713.8,344.9,714,344.5,714.3z"/>
		<path class="st3" d="M368.8,717.6h-7.8c0.1,0.6,0.5,1.1,1,1.5c0.5,0.4,1.2,0.6,1.9,0.6c0.5,0,1-0.1,1.4-0.2
			c0.4-0.2,0.8-0.4,1.2-0.8l1.6,1.7c-1,1.1-2.4,1.7-4.2,1.7c-1.2,0-2.2-0.2-3.1-0.7c-0.9-0.5-1.6-1.1-2.1-1.9
			c-0.5-0.8-0.7-1.7-0.7-2.7c0-1,0.2-1.9,0.7-2.7c0.5-0.8,1.1-1.4,2-1.9c0.8-0.5,1.8-0.7,2.8-0.7c1,0,1.9,0.2,2.7,0.6
			c0.8,0.4,1.5,1.1,1.9,1.9c0.5,0.8,0.7,1.7,0.7,2.8C368.9,716.9,368.9,717.1,368.8,717.6z M361.9,714.3c-0.5,0.4-0.7,0.9-0.8,1.6h5
			c-0.1-0.6-0.4-1.2-0.8-1.6c-0.5-0.4-1-0.6-1.7-0.6C362.9,713.8,362.4,714,361.9,714.3z"/>
		<path class="st3" d="M370.9,707.8h3v14.1h-3V707.8z"/>
	</g>
	<g class="st2">
		<path class="st3" d="M293.8,732c0.9,0.4,1.5,1,2,1.7c0.5,0.7,0.7,1.6,0.7,2.6c0,1-0.2,1.8-0.7,2.6c-0.5,0.7-1.1,1.3-2,1.7
			c-0.9,0.4-1.9,0.6-3.1,0.6h-2.7v3.7H285v-13.3h5.8C291.9,731.5,293,731.7,293.8,732z M292.7,738c0.5-0.4,0.7-1,0.7-1.7
			c0-0.7-0.2-1.3-0.7-1.7c-0.5-0.4-1.2-0.6-2.1-0.6h-2.5v4.6h2.5C291.5,738.6,292.2,738.4,292.7,738z"/>
	</g>
	<g class="st2">
		<path class="st3" d="M306.2,735.5c0.9,0.8,1.3,1.9,1.3,3.4v5.8h-2.8v-1.3c-0.6,1-1.6,1.4-3.1,1.4c-0.8,0-1.5-0.1-2-0.4
			c-0.6-0.3-1-0.6-1.3-1.1s-0.5-1-0.5-1.6c0-1,0.4-1.7,1.1-2.2c0.7-0.5,1.8-0.8,3.3-0.8h2.4c0-0.6-0.2-1.1-0.6-1.5
			c-0.4-0.3-1-0.5-1.8-0.5c-0.5,0-1.1,0.1-1.6,0.3c-0.5,0.2-1,0.4-1.3,0.7l-1.1-2.1c0.6-0.4,1.2-0.7,2-0.9s1.6-0.3,2.4-0.3
			C304.2,734.4,305.4,734.8,306.2,735.5z M303.7,742.6c0.4-0.2,0.7-0.6,0.8-1v-1h-2c-1.2,0-1.8,0.4-1.8,1.2c0,0.4,0.1,0.7,0.4,0.9
			c0.3,0.2,0.7,0.3,1.2,0.3C302.9,742.9,303.3,742.8,303.7,742.6z"/>
		<path class="st3" d="M310.2,730.7h3v14.1h-3V730.7z"/>
	</g>
	<g class="st2">
		<path class="st3" d="M332.1,735.5c0.8,0.8,1.1,1.9,1.1,3.4v5.9h-3v-5.4c0-0.8-0.2-1.4-0.5-1.8c-0.3-0.4-0.8-0.6-1.4-0.6
			c-0.7,0-1.3,0.2-1.7,0.7c-0.4,0.5-0.6,1.1-0.6,2v5.1h-3v-5.4c0-1.6-0.6-2.4-1.9-2.4c-0.7,0-1.2,0.2-1.6,0.7
			c-0.4,0.5-0.6,1.1-0.6,2v5.1h-3v-10.2h2.8v1.2c0.4-0.4,0.8-0.8,1.4-1c0.6-0.2,1.2-0.3,1.8-0.3c0.7,0,1.4,0.1,2,0.4
			c0.6,0.3,1.1,0.7,1.4,1.2c0.4-0.5,0.9-0.9,1.6-1.2c0.6-0.3,1.3-0.4,2.1-0.4C330.3,734.4,331.4,734.8,332.1,735.5z"/>
	</g>
	<g class="st2">
		<path class="st3" d="M346,740.5h-7.8c0.1,0.6,0.5,1.1,1,1.5c0.5,0.4,1.2,0.6,1.9,0.6c0.5,0,1-0.1,1.4-0.2c0.4-0.2,0.8-0.4,1.2-0.8
			l1.6,1.7c-1,1.1-2.4,1.7-4.2,1.7c-1.2,0-2.2-0.2-3.1-0.7c-0.9-0.5-1.6-1.1-2.1-1.9c-0.5-0.8-0.7-1.7-0.7-2.7c0-1,0.2-1.9,0.7-2.7
			c0.5-0.8,1.1-1.4,2-1.9c0.8-0.5,1.8-0.7,2.8-0.7c1,0,1.9,0.2,2.7,0.6c0.8,0.4,1.5,1.1,1.9,1.9c0.5,0.8,0.7,1.7,0.7,2.8
			C346.1,739.7,346,740,346,740.5z M339.1,737.2c-0.5,0.4-0.7,0.9-0.8,1.6h5c-0.1-0.6-0.4-1.2-0.8-1.6c-0.5-0.4-1-0.6-1.7-0.6
			C340.1,736.6,339.5,736.8,339.1,737.2z"/>
	</g>
	<g class="st2">
		<path class="st3" d="M352.3,734.8c0.6-0.3,1.3-0.4,2.1-0.4v2.7c-0.3,0-0.6,0-0.7,0c-0.9,0-1.5,0.2-2,0.7c-0.5,0.5-0.7,1.2-0.7,2.1
			v4.8h-3v-10.2h2.8v1.4C351.2,735.4,351.7,735,352.3,734.8z"/>
	</g>
	<g class="st2">
		<path class="st3" d="M363.9,735.5c0.9,0.8,1.3,1.9,1.3,3.4v5.8h-2.8v-1.3c-0.6,1-1.6,1.4-3.1,1.4c-0.8,0-1.5-0.1-2-0.4
			c-0.6-0.3-1-0.6-1.3-1.1s-0.5-1-0.5-1.6c0-1,0.4-1.7,1.1-2.2c0.7-0.5,1.8-0.8,3.3-0.8h2.4c0-0.6-0.2-1.1-0.6-1.5
			c-0.4-0.3-1-0.5-1.8-0.5c-0.5,0-1.1,0.1-1.6,0.3c-0.5,0.2-1,0.4-1.3,0.7l-1.1-2.1c0.6-0.4,1.2-0.7,2-0.9s1.6-0.3,2.4-0.3
			C361.8,734.4,363.1,734.8,363.9,735.5z M361.4,742.6c0.4-0.2,0.7-0.6,0.8-1v-1h-2c-1.2,0-1.8,0.4-1.8,1.2c0,0.4,0.1,0.7,0.4,0.9
			c0.3,0.2,0.7,0.3,1.2,0.3C360.5,742.9,361,742.8,361.4,742.6z"/>
		<path class="st3" d="M367.9,730.7h3v14.1h-3V730.7z"/>
	</g>
	<g class="st2">
		<path class="st3" d="M490.8,612.5c-1-0.3-1.8-0.7-2.4-1.1l1-2.3c0.6,0.4,1.3,0.8,2,1s1.6,0.4,2.4,0.4c0.9,0,1.5-0.1,1.9-0.4
			c0.4-0.3,0.6-0.6,0.6-1c0-0.3-0.1-0.6-0.4-0.8c-0.2-0.2-0.6-0.4-1-0.5c-0.4-0.1-0.9-0.3-1.6-0.4c-1-0.2-1.8-0.5-2.5-0.7
			c-0.6-0.2-1.2-0.6-1.7-1.2c-0.5-0.5-0.7-1.2-0.7-2.1c0-0.8,0.2-1.5,0.6-2.1c0.4-0.6,1.1-1.1,1.9-1.5s1.9-0.6,3.1-0.6
			c0.9,0,1.7,0.1,2.5,0.3c0.8,0.2,1.5,0.5,2.1,0.9l-1,2.3c-1.2-0.7-2.5-1-3.7-1c-0.9,0-1.5,0.1-1.9,0.4c-0.4,0.3-0.6,0.6-0.6,1.1
			s0.2,0.8,0.7,1c0.5,0.2,1.2,0.4,2.2,0.7c1,0.2,1.8,0.5,2.5,0.7s1.2,0.6,1.7,1.1c0.5,0.5,0.7,1.2,0.7,2.1c0,0.8-0.2,1.5-0.6,2.1
			c-0.4,0.6-1.1,1.1-1.9,1.5c-0.9,0.4-1.9,0.6-3.1,0.6C492.8,612.9,491.7,612.8,490.8,612.5z"/>
		<path class="st3" d="M509.2,603.4c0.9,0.8,1.3,1.9,1.3,3.4v5.8h-2.8v-1.3c-0.6,1-1.6,1.4-3.1,1.4c-0.8,0-1.5-0.1-2-0.4
			c-0.6-0.3-1-0.6-1.3-1.1s-0.5-1-0.5-1.6c0-1,0.4-1.7,1.1-2.2c0.7-0.5,1.8-0.8,3.3-0.8h2.4c0-0.6-0.2-1.1-0.6-1.5
			c-0.4-0.3-1-0.5-1.8-0.5c-0.5,0-1.1,0.1-1.6,0.3c-0.5,0.2-1,0.4-1.3,0.7l-1.1-2.1c0.6-0.4,1.2-0.7,2-0.9s1.6-0.3,2.4-0.3
			C507.1,602.3,508.3,602.7,509.2,603.4z M506.6,610.5c0.4-0.2,0.7-0.6,0.8-1v-1h-2c-1.2,0-1.8,0.4-1.8,1.2c0,0.4,0.1,0.7,0.4,0.9
			c0.3,0.2,0.7,0.3,1.2,0.3C505.8,610.9,506.2,610.7,506.6,610.5z"/>
		<path class="st3" d="M522.4,603.4c0.8,0.8,1.2,1.9,1.2,3.4v5.9h-3v-5.4c0-0.8-0.2-1.4-0.5-1.8c-0.4-0.4-0.9-0.6-1.5-0.6
			c-0.7,0-1.3,0.2-1.8,0.7c-0.4,0.5-0.7,1.2-0.7,2.1v5.1h-3v-10.2h2.8v1.2c0.4-0.4,0.9-0.8,1.5-1c0.6-0.2,1.2-0.4,1.9-0.4
			C520.6,602.3,521.7,602.7,522.4,603.4z"/>
		<path class="st3" d="M540.9,605.8h2.8v5.4c-0.7,0.5-1.6,1-2.5,1.3s-1.9,0.4-2.9,0.4c-1.4,0-2.6-0.3-3.7-0.9s-2-1.4-2.6-2.5
			c-0.6-1-0.9-2.2-0.9-3.6c0-1.3,0.3-2.5,0.9-3.6c0.6-1,1.5-1.9,2.6-2.5c1.1-0.6,2.4-0.9,3.8-0.9c1.2,0,2.2,0.2,3.2,0.6
			c1,0.4,1.8,1,2.4,1.7l-2,1.8c-1-1-2.1-1.5-3.4-1.5c-0.9,0-1.6,0.2-2.3,0.5c-0.7,0.4-1.2,0.9-1.5,1.5c-0.4,0.6-0.6,1.4-0.6,2.2
			c0,0.8,0.2,1.6,0.6,2.2c0.4,0.6,0.9,1.2,1.5,1.5c0.7,0.4,1.4,0.5,2.2,0.5c0.9,0,1.7-0.2,2.4-0.6V605.8z"/>
		<path class="st3" d="M554.2,603.4c0.9,0.8,1.3,1.9,1.3,3.4v5.8h-2.8v-1.3c-0.6,1-1.6,1.4-3.1,1.4c-0.8,0-1.5-0.1-2-0.4
			c-0.6-0.3-1-0.6-1.3-1.1s-0.5-1-0.5-1.6c0-1,0.4-1.7,1.1-2.2c0.7-0.5,1.8-0.8,3.3-0.8h2.4c0-0.6-0.2-1.1-0.6-1.5s-1-0.5-1.8-0.5
			c-0.5,0-1.1,0.1-1.6,0.3c-0.5,0.2-1,0.4-1.3,0.7l-1.1-2.1c0.6-0.4,1.2-0.7,2-0.9s1.6-0.3,2.4-0.3
			C552.1,602.3,553.3,602.7,554.2,603.4z M551.6,610.5c0.4-0.2,0.7-0.6,0.8-1v-1h-2c-1.2,0-1.8,0.4-1.8,1.2c0,0.4,0.1,0.7,0.4,0.9
			c0.3,0.2,0.7,0.3,1.2,0.3C550.8,610.9,551.2,610.7,551.6,610.5z"/>
		<path class="st3" d="M566.8,603c0.8,0.4,1.4,1.1,1.8,1.8c0.4,0.8,0.7,1.7,0.7,2.8c0,1.1-0.2,2-0.7,2.8c-0.4,0.8-1.1,1.4-1.8,1.8
			s-1.6,0.7-2.6,0.7c-1.4,0-2.5-0.4-3.2-1.3v1.2h-2.8v-14.1h3v5c0.7-0.8,1.8-1.2,3.1-1.2C565.1,602.3,566,602.5,566.8,603z
			 M565.5,609.6c0.5-0.5,0.7-1.2,0.7-2.1c0-0.9-0.2-1.6-0.7-2.1c-0.5-0.5-1.1-0.8-1.9-0.8c-0.8,0-1.4,0.3-1.9,0.8
			c-0.5,0.5-0.7,1.2-0.7,2.1c0,0.9,0.2,1.6,0.7,2.1s1.1,0.8,1.9,0.8C564.4,610.4,565.1,610.2,565.5,609.6z"/>
	</g>
	<g class="st2">
		<path class="st3" d="M575.6,602.7c0.6-0.3,1.3-0.4,2.1-0.4v2.7c-0.3,0-0.6,0-0.7,0c-0.9,0-1.5,0.2-2,0.7c-0.5,0.5-0.7,1.2-0.7,2.1
			v4.8h-3v-10.2h2.8v1.4C574.5,603.3,574.9,602.9,575.6,602.7z"/>
	</g>
	<g class="st2">
		<path class="st3" d="M579.6,600.5c-0.3-0.3-0.5-0.7-0.5-1.2c0-0.5,0.2-0.9,0.5-1.2c0.3-0.3,0.8-0.5,1.3-0.5c0.5,0,1,0.2,1.3,0.5
			c0.3,0.3,0.5,0.7,0.5,1.1c0,0.5-0.2,0.9-0.5,1.2c-0.3,0.3-0.8,0.5-1.3,0.5C580.3,601,579.9,600.9,579.6,600.5z M579.4,602.5h3
			v10.2h-3V602.5z"/>
		<path class="st3" d="M595.1,608.4h-7.8c0.1,0.6,0.5,1.1,1,1.5c0.5,0.4,1.2,0.6,1.9,0.6c0.5,0,1-0.1,1.4-0.2
			c0.4-0.2,0.8-0.4,1.2-0.8l1.6,1.7c-1,1.1-2.4,1.7-4.2,1.7c-1.2,0-2.2-0.2-3.1-0.7c-0.9-0.5-1.6-1.1-2.1-1.9
			c-0.5-0.8-0.7-1.7-0.7-2.7c0-1,0.2-1.9,0.7-2.7c0.5-0.8,1.1-1.4,2-1.9c0.8-0.5,1.8-0.7,2.8-0.7c1,0,1.9,0.2,2.7,0.6
			c0.8,0.4,1.5,1.1,1.9,1.9c0.5,0.8,0.7,1.7,0.7,2.8C595.2,607.7,595.2,607.9,595.1,608.4z M588.2,605.1c-0.5,0.4-0.7,0.9-0.8,1.6h5
			c-0.1-0.6-0.4-1.2-0.8-1.6c-0.5-0.4-1-0.6-1.7-0.6C589.2,604.5,588.6,604.7,588.2,605.1z"/>
		<path class="st3" d="M597.2,598.6h3v14.1h-3V598.6z"/>
	</g>
	<g class="st2">
		<path class="st3" d="M672.5,464.7c0.4,0.6,0.6,1.3,0.6,2.1c0,1.2-0.5,2.1-1.4,2.7c-0.9,0.6-2.2,0.9-4,0.9h-6.9v-13.3h6.5
			c1.6,0,2.9,0.3,3.7,0.9c0.9,0.6,1.3,1.5,1.3,2.5c0,0.6-0.2,1.2-0.5,1.7c-0.3,0.5-0.7,0.9-1.3,1.2
			C671.4,463.8,672,464.2,672.5,464.7z M664,459.4v3.1h3.1c0.8,0,1.3-0.1,1.7-0.4c0.4-0.3,0.6-0.7,0.6-1.2s-0.2-0.9-0.6-1.2
			c-0.4-0.3-1-0.4-1.7-0.4H664z M669.4,467.7c0.4-0.3,0.6-0.7,0.6-1.2c0-1.1-0.8-1.7-2.5-1.7H664v3.3h3.6
			C668.4,468.1,669,468,669.4,467.7z"/>
		<path class="st3" d="M683,461.2c0.9,0.8,1.3,1.9,1.3,3.4v5.8h-2.8v-1.3c-0.6,1-1.6,1.4-3.1,1.4c-0.8,0-1.5-0.1-2-0.4
			c-0.6-0.3-1-0.6-1.3-1.1s-0.5-1-0.5-1.6c0-1,0.4-1.7,1.1-2.2c0.7-0.5,1.8-0.8,3.3-0.8h2.4c0-0.6-0.2-1.1-0.6-1.5s-1-0.5-1.8-0.5
			c-0.5,0-1.1,0.1-1.6,0.3c-0.5,0.2-1,0.4-1.3,0.7l-1.1-2.1c0.6-0.4,1.2-0.7,2-0.9s1.6-0.3,2.4-0.3C681,460.1,682.2,460.4,683,461.2
			z M680.5,468.3c0.4-0.2,0.7-0.6,0.8-1v-1h-2c-1.2,0-1.8,0.4-1.8,1.2c0,0.4,0.1,0.7,0.4,0.9c0.3,0.2,0.7,0.3,1.2,0.3
			C679.7,468.6,680.1,468.5,680.5,468.3z"/>
		<path class="st3" d="M695.7,460.7c0.8,0.4,1.4,1.1,1.8,1.8s0.7,1.7,0.7,2.8c0,1.1-0.2,2-0.7,2.8s-1.1,1.4-1.8,1.8
			s-1.6,0.7-2.6,0.7c-1.4,0-2.5-0.4-3.2-1.3v1.2H687v-14.1h3v5c0.7-0.8,1.8-1.2,3.1-1.2C694,460.1,694.9,460.3,695.7,460.7z
			 M694.4,467.4c0.5-0.5,0.7-1.2,0.7-2.1c0-0.9-0.2-1.6-0.7-2.1c-0.5-0.5-1.1-0.8-1.9-0.8c-0.8,0-1.4,0.3-1.9,0.8
			c-0.5,0.5-0.7,1.2-0.7,2.1c0,0.9,0.2,1.6,0.7,2.1c0.5,0.5,1.1,0.8,1.9,0.8C693.3,468.2,693.9,467.9,694.4,467.4z"/>
		<path class="st3" d="M710.1,466.2h-7.8c0.1,0.6,0.5,1.1,1,1.5c0.5,0.4,1.2,0.6,1.9,0.6c0.5,0,1-0.1,1.4-0.2
			c0.4-0.2,0.8-0.4,1.2-0.8l1.6,1.7c-1,1.1-2.4,1.7-4.2,1.7c-1.2,0-2.2-0.2-3.1-0.7c-0.9-0.5-1.6-1.1-2.1-1.9
			c-0.5-0.8-0.7-1.7-0.7-2.7c0-1,0.2-1.9,0.7-2.7c0.5-0.8,1.1-1.4,2-1.9c0.8-0.5,1.8-0.7,2.8-0.7c1,0,1.9,0.2,2.7,0.6
			s1.5,1.1,1.9,1.9c0.5,0.8,0.7,1.7,0.7,2.8C710.2,465.4,710.2,465.7,710.1,466.2z M703.2,462.9c-0.5,0.4-0.7,0.9-0.8,1.6h5
			c-0.1-0.6-0.4-1.2-0.8-1.6c-0.5-0.4-1-0.6-1.7-0.6C704.2,462.3,703.6,462.5,703.2,462.9z"/>
		<path class="st3" d="M712.2,456.3h3v14.1h-3V456.3z"/>
	</g>
	<g class="st2">
		<path class="st3" d="M512.3,275.5h3.1v10.8h6.7v2.5h-9.8V275.5z"/>
	</g>
	<g class="st2">
		<path class="st3" d="M531.5,279.6c0.9,0.8,1.3,1.9,1.3,3.4v5.8H530v-1.3c-0.6,1-1.6,1.4-3.1,1.4c-0.8,0-1.5-0.1-2-0.4
			c-0.6-0.3-1-0.6-1.3-1.1s-0.5-1-0.5-1.6c0-1,0.4-1.7,1.1-2.2c0.7-0.5,1.8-0.8,3.3-0.8h2.4c0-0.6-0.2-1.1-0.6-1.5
			c-0.4-0.3-1-0.5-1.8-0.5c-0.5,0-1.1,0.1-1.6,0.3c-0.5,0.2-1,0.4-1.3,0.7l-1.1-2.1c0.6-0.4,1.2-0.7,2-0.9s1.6-0.3,2.4-0.3
			C529.4,278.4,530.6,278.8,531.5,279.6z M529,286.6c0.4-0.2,0.7-0.6,0.8-1v-1h-2c-1.2,0-1.8,0.4-1.8,1.2c0,0.4,0.1,0.7,0.4,0.9
			c0.3,0.2,0.7,0.3,1.2,0.3C528.1,287,528.6,286.9,529,286.6z"/>
		<path class="st3" d="M544.1,278v3.5h6.2v2.5h-6.2v4.9h-3.1v-13.3h10.1v2.5H544.1z"/>
		<path class="st3" d="M553,274.7h3v14.1h-3V274.7z"/>
		<path class="st3" d="M560.7,288.3c-0.9-0.5-1.5-1.1-2-1.9c-0.5-0.8-0.7-1.7-0.7-2.7c0-1,0.2-1.9,0.7-2.7c0.5-0.8,1.2-1.4,2-1.9
			c0.9-0.5,1.8-0.7,2.9-0.7c1.1,0,2,0.2,2.9,0.7c0.9,0.5,1.5,1.1,2,1.9c0.5,0.8,0.7,1.7,0.7,2.7c0,1-0.2,1.9-0.7,2.7s-1.1,1.4-2,1.9
			c-0.9,0.5-1.8,0.7-2.9,0.7C562.6,289,561.6,288.8,560.7,288.3z M565.5,285.8c0.5-0.5,0.7-1.2,0.7-2.1c0-0.9-0.2-1.6-0.7-2.1
			c-0.5-0.5-1.1-0.8-1.9-0.8c-0.8,0-1.4,0.3-1.9,0.8c-0.5,0.5-0.7,1.2-0.7,2.1c0,0.9,0.2,1.6,0.7,2.1c0.5,0.5,1.1,0.8,1.9,0.8
			C564.4,286.6,565,286.3,565.5,285.8z"/>
	</g>
	<g class="st2">
		<path class="st3" d="M575.5,278.8c0.6-0.3,1.3-0.4,2.1-0.4v2.7c-0.3,0-0.6,0-0.7,0c-0.9,0-1.5,0.2-2,0.7c-0.5,0.5-0.7,1.2-0.7,2.1
			v4.8h-3v-10.2h2.8v1.4C574.4,279.4,574.9,279.1,575.5,278.8z"/>
	</g>
	<g class="st2">
		<path class="st3" d="M579.5,276.7c-0.3-0.3-0.5-0.7-0.5-1.2c0-0.5,0.2-0.9,0.5-1.2c0.3-0.3,0.8-0.5,1.3-0.5c0.5,0,1,0.2,1.3,0.5
			c0.3,0.3,0.5,0.7,0.5,1.1c0,0.5-0.2,0.9-0.5,1.2c-0.3,0.3-0.8,0.5-1.3,0.5C580.3,277.2,579.9,277,579.5,276.7z M579.4,278.6h3
			v10.2h-3V278.6z"/>
		<path class="st3" d="M595.5,274.7v14.1h-2.8v-1.2c-0.7,0.9-1.8,1.3-3.2,1.3c-1,0-1.8-0.2-2.6-0.6c-0.8-0.4-1.4-1-1.8-1.8
			c-0.4-0.8-0.7-1.7-0.7-2.8c0-1.1,0.2-2,0.7-2.8c0.4-0.8,1.1-1.4,1.8-1.8c0.8-0.4,1.7-0.6,2.6-0.6c1.3,0,2.3,0.4,3.1,1.2v-5H595.5z
			 M591.9,285.8c0.5-0.5,0.7-1.2,0.7-2.1c0-0.9-0.2-1.6-0.7-2.1c-0.5-0.5-1.1-0.8-1.9-0.8c-0.8,0-1.4,0.3-1.9,0.8
			c-0.5,0.5-0.7,1.2-0.7,2.1c0,0.9,0.2,1.6,0.7,2.1c0.5,0.5,1.1,0.8,1.9,0.8C590.8,286.6,591.4,286.3,591.9,285.8z"/>
		<path class="st3" d="M606.1,279.6c0.9,0.8,1.3,1.9,1.3,3.4v5.8h-2.8v-1.3c-0.6,1-1.6,1.4-3.1,1.4c-0.8,0-1.5-0.1-2-0.4
			c-0.6-0.3-1-0.6-1.3-1.1s-0.5-1-0.5-1.6c0-1,0.4-1.7,1.1-2.2c0.7-0.5,1.8-0.8,3.3-0.8h2.4c0-0.6-0.2-1.1-0.6-1.5
			c-0.4-0.3-1-0.5-1.8-0.5c-0.5,0-1.1,0.1-1.6,0.3c-0.5,0.2-1,0.4-1.3,0.7l-1.1-2.1c0.6-0.4,1.2-0.7,2-0.9s1.6-0.3,2.4-0.3
			C604,278.4,605.2,278.8,606.1,279.6z M603.5,286.6c0.4-0.2,0.7-0.6,0.8-1v-1h-2c-1.2,0-1.8,0.4-1.8,1.2c0,0.4,0.2,0.7,0.4,0.9
			c0.3,0.2,0.7,0.3,1.2,0.3C602.7,287,603.2,286.9,603.5,286.6z"/>
	</g>
	<g class="st2">
		<path class="st3" d="M451.5,153.6c-1.1-0.6-2-1.4-2.6-2.5c-0.6-1-0.9-2.2-0.9-3.6c0-1.3,0.3-2.5,0.9-3.6c0.6-1,1.5-1.9,2.6-2.5
			c1.1-0.6,2.3-0.9,3.7-0.9c1.2,0,2.2,0.2,3.1,0.6c0.9,0.4,1.7,1,2.4,1.8l-2,1.8c-0.9-1-2-1.6-3.4-1.6c-0.8,0-1.6,0.2-2.2,0.5
			c-0.6,0.4-1.2,0.9-1.5,1.5c-0.4,0.6-0.5,1.4-0.5,2.2c0,0.8,0.2,1.6,0.5,2.2c0.4,0.6,0.9,1.2,1.5,1.5c0.6,0.4,1.4,0.5,2.2,0.5
			c1.3,0,2.5-0.5,3.4-1.6l2,1.8c-0.6,0.8-1.4,1.4-2.4,1.8c-0.9,0.4-2,0.6-3.1,0.6C453.8,154.4,452.6,154.1,451.5,153.6z"/>
		<path class="st3" d="M462.7,142.1c-0.3-0.3-0.5-0.7-0.5-1.2c0-0.5,0.2-0.9,0.5-1.2c0.3-0.3,0.8-0.5,1.3-0.5c0.5,0,1,0.2,1.3,0.5
			c0.3,0.3,0.5,0.7,0.5,1.1c0,0.5-0.2,0.9-0.5,1.2c-0.3,0.3-0.8,0.5-1.3,0.5C463.5,142.5,463,142.4,462.7,142.1z M462.5,144h3v10.2
			h-3V144z"/>
		<path class="st3" d="M478.6,144v10.2h-2.8V153c-0.4,0.4-0.9,0.8-1.4,1c-0.5,0.2-1.1,0.4-1.8,0.4c-1.3,0-2.4-0.4-3.2-1.2
			c-0.8-0.8-1.2-1.9-1.2-3.4V144h3v5.4c0,1.7,0.7,2.5,2.1,2.5c0.7,0,1.3-0.2,1.7-0.7c0.4-0.5,0.6-1.2,0.6-2.1V144H478.6z"/>
		<path class="st3" d="M491.8,140.1v14.1H489V153c-0.7,0.9-1.8,1.3-3.2,1.3c-1,0-1.8-0.2-2.6-0.6c-0.8-0.4-1.4-1-1.8-1.8
			c-0.4-0.8-0.7-1.7-0.7-2.8c0-1.1,0.2-2,0.7-2.8c0.4-0.8,1.1-1.4,1.8-1.8c0.8-0.4,1.7-0.6,2.6-0.6c1.3,0,2.3,0.4,3.1,1.2v-5H491.8z
			 M488.1,151.2c0.5-0.5,0.7-1.2,0.7-2.1c0-0.9-0.2-1.6-0.7-2.1c-0.5-0.5-1.1-0.8-1.9-0.8c-0.8,0-1.4,0.3-1.9,0.8
			c-0.5,0.5-0.7,1.2-0.7,2.1c0,0.9,0.2,1.6,0.7,2.1c0.5,0.5,1.1,0.8,1.9,0.8C487,151.9,487.6,151.7,488.1,151.2z"/>
	</g>
	<g class="st2">
		<path class="st3" d="M502.3,144.9c0.9,0.8,1.3,1.9,1.3,3.4v5.8h-2.8v-1.3c-0.6,1-1.6,1.4-3.1,1.4c-0.8,0-1.5-0.1-2-0.4
			c-0.6-0.3-1-0.6-1.3-1.1s-0.5-1-0.5-1.6c0-1,0.4-1.7,1.1-2.2c0.7-0.5,1.8-0.8,3.3-0.8h2.4c0-0.6-0.2-1.1-0.6-1.5
			c-0.4-0.3-1-0.5-1.8-0.5c-0.5,0-1.1,0.1-1.6,0.3c-0.5,0.2-1,0.4-1.3,0.7l-1.1-2.1c0.6-0.4,1.2-0.7,2-0.9s1.6-0.3,2.4-0.3
			C500.3,143.8,501.5,144.2,502.3,144.9z M499.8,152c0.4-0.2,0.7-0.6,0.8-1v-1h-2c-1.2,0-1.8,0.4-1.8,1.2c0,0.4,0.1,0.7,0.4,0.9
			c0.3,0.2,0.7,0.3,1.2,0.3C499,152.4,499.4,152.2,499.8,152z"/>
	</g>
	<g class="st2">
		<path class="st3" d="M516.9,140.1v14.1H514V153c-0.7,0.9-1.8,1.3-3.2,1.3c-1,0-1.8-0.2-2.6-0.6c-0.8-0.4-1.4-1-1.8-1.8
			c-0.4-0.8-0.7-1.7-0.7-2.8c0-1.1,0.2-2,0.7-2.8c0.4-0.8,1.1-1.4,1.8-1.8c0.8-0.4,1.7-0.6,2.6-0.6c1.3,0,2.3,0.4,3.1,1.2v-5H516.9z
			 M513.2,151.2c0.5-0.5,0.7-1.2,0.7-2.1c0-0.9-0.2-1.6-0.7-2.1c-0.5-0.5-1.1-0.8-1.9-0.8c-0.8,0-1.4,0.3-1.9,0.8
			c-0.5,0.5-0.7,1.2-0.7,2.1c0,0.9,0.2,1.6,0.7,2.1c0.5,0.5,1.1,0.8,1.9,0.8C512.1,151.9,512.7,151.7,513.2,151.2z"/>
		<path class="st3" d="M535.4,140.1v14.1h-2.8V153c-0.7,0.9-1.8,1.3-3.2,1.3c-1,0-1.8-0.2-2.6-0.6c-0.8-0.4-1.4-1-1.8-1.8
			c-0.4-0.8-0.7-1.7-0.7-2.8c0-1.1,0.2-2,0.7-2.8c0.4-0.8,1.1-1.4,1.8-1.8c0.8-0.4,1.7-0.6,2.6-0.6c1.3,0,2.3,0.4,3.1,1.2v-5H535.4z
			 M531.8,151.2c0.5-0.5,0.7-1.2,0.7-2.1c0-0.9-0.2-1.6-0.7-2.1c-0.5-0.5-1.1-0.8-1.9-0.8c-0.8,0-1.4,0.3-1.9,0.8
			c-0.5,0.5-0.7,1.2-0.7,2.1c0,0.9,0.2,1.6,0.7,2.1c0.5,0.5,1.1,0.8,1.9,0.8C530.7,151.9,531.3,151.7,531.8,151.2z"/>
		<path class="st3" d="M548.2,149.9h-7.8c0.1,0.6,0.5,1.1,1,1.5c0.5,0.4,1.2,0.6,1.9,0.6c0.5,0,1-0.1,1.4-0.2
			c0.4-0.2,0.8-0.4,1.2-0.8l1.6,1.7c-1,1.1-2.4,1.7-4.2,1.7c-1.2,0-2.2-0.2-3.1-0.7c-0.9-0.5-1.6-1.1-2.1-1.9
			c-0.5-0.8-0.7-1.7-0.7-2.7c0-1,0.2-1.9,0.7-2.7c0.5-0.8,1.1-1.4,2-1.9c0.8-0.5,1.8-0.7,2.8-0.7c1,0,1.9,0.2,2.7,0.6
			s1.5,1.1,1.9,1.9c0.5,0.8,0.7,1.7,0.7,2.8C548.2,149.2,548.2,149.4,548.2,149.9z M541.2,146.6c-0.5,0.4-0.7,0.9-0.8,1.6h5
			c-0.1-0.6-0.4-1.2-0.8-1.6c-0.5-0.4-1-0.6-1.7-0.6C542.2,146.1,541.7,146.2,541.2,146.6z"/>
	</g>
	<g class="st2">
		<path class="st3" d="M488.1,174.2H482l-1.2,2.9h-3.2l5.9-13.3h3l6,13.3h-3.2L488.1,174.2z M487.2,171.9l-2.1-5.1l-2.1,5.1H487.2z"
			/>
	</g>
	<g class="st2">
		<path class="st3" d="M494.6,176.9c-0.8-0.2-1.5-0.5-1.9-0.8l1-2.1c0.5,0.3,1,0.5,1.7,0.7c0.6,0.2,1.3,0.3,1.9,0.3
			c1.3,0,1.9-0.3,1.9-0.9c0-0.3-0.2-0.5-0.5-0.6c-0.3-0.1-0.9-0.2-1.6-0.3c-0.8-0.1-1.5-0.3-2.1-0.4s-1-0.5-1.4-0.9
			c-0.4-0.4-0.6-1-0.6-1.8c0-0.6,0.2-1.2,0.6-1.7c0.4-0.5,0.9-0.9,1.6-1.2c0.7-0.3,1.6-0.4,2.5-0.4c0.7,0,1.4,0.1,2.2,0.2
			c0.7,0.2,1.3,0.4,1.8,0.7l-1,2.1c-0.9-0.5-1.9-0.8-3-0.8c-0.6,0-1.1,0.1-1.4,0.3s-0.5,0.4-0.5,0.7c0,0.3,0.2,0.5,0.5,0.7
			c0.3,0.1,0.9,0.2,1.6,0.4c0.8,0.1,1.5,0.3,2.1,0.4c0.5,0.2,1,0.4,1.4,0.9c0.4,0.4,0.6,1,0.6,1.8c0,0.6-0.2,1.2-0.6,1.7
			c-0.4,0.5-0.9,0.9-1.7,1.2c-0.7,0.3-1.6,0.4-2.6,0.4C496.2,177.2,495.4,177.1,494.6,176.9z"/>
		<path class="st3" d="M506.1,162.8h3.2l-3.4,2.7h-2.3L506.1,162.8z M503.8,166.8h3v10.2h-3V166.8z"/>
		<path class="st3" d="M510.5,176.9c-0.8-0.2-1.5-0.5-1.9-0.8l1-2.1c0.5,0.3,1,0.5,1.7,0.7c0.6,0.2,1.3,0.3,1.9,0.3
			c1.3,0,1.9-0.3,1.9-0.9c0-0.3-0.2-0.5-0.5-0.6c-0.3-0.1-0.9-0.2-1.6-0.3c-0.8-0.1-1.5-0.3-2.1-0.4s-1-0.5-1.4-0.9
			c-0.4-0.4-0.6-1-0.6-1.8c0-0.6,0.2-1.2,0.6-1.7c0.4-0.5,0.9-0.9,1.6-1.2c0.7-0.3,1.6-0.4,2.5-0.4c0.7,0,1.4,0.1,2.2,0.2
			c0.7,0.2,1.3,0.4,1.8,0.7l-1,2.1c-0.9-0.5-1.9-0.8-3-0.8c-0.6,0-1.1,0.1-1.4,0.3s-0.5,0.4-0.5,0.7c0,0.3,0.2,0.5,0.5,0.7
			c0.3,0.1,0.9,0.2,1.6,0.4c0.8,0.1,1.5,0.3,2.1,0.4c0.5,0.2,1,0.4,1.4,0.9c0.4,0.4,0.6,1,0.6,1.8c0,0.6-0.2,1.2-0.6,1.7
			c-0.4,0.5-0.9,0.9-1.7,1.2c-0.7,0.3-1.6,0.4-2.6,0.4C512.1,177.2,511.3,177.1,510.5,176.9z"/>
	</g>
	<g class="st2">
		<path class="st3" d="M573.8,170.6h2.7v9.4h5.8v2.2h-8.5V170.6z"/>
	</g>
	<g class="st2">
		<path class="st3" d="M590.4,174.1c0.7,0.7,1.1,1.6,1.1,3v5.1h-2.4V181c-0.5,0.8-1.4,1.2-2.7,1.2c-0.7,0-1.3-0.1-1.8-0.3
			c-0.5-0.2-0.9-0.5-1.1-1c-0.3-0.4-0.4-0.9-0.4-1.4c0-0.8,0.3-1.5,0.9-1.9c0.6-0.5,1.6-0.7,2.9-0.7h2c0-0.6-0.2-1-0.5-1.3
			c-0.3-0.3-0.9-0.5-1.5-0.5c-0.5,0-0.9,0.1-1.4,0.2c-0.5,0.1-0.8,0.3-1.2,0.6l-0.9-1.8c0.5-0.3,1.1-0.6,1.7-0.8
			c0.7-0.2,1.4-0.3,2.1-0.3C588.6,173.1,589.7,173.5,590.4,174.1z M588.2,180.2c0.3-0.2,0.6-0.5,0.7-0.9v-0.9h-1.8
			c-1.1,0-1.6,0.3-1.6,1c0,0.3,0.1,0.6,0.4,0.8s0.6,0.3,1.1,0.3C587.5,180.5,587.9,180.4,588.2,180.2z"/>
		<path class="st3" d="M601.4,172.7v3.1h5.3v2.1h-5.3v4.2h-2.7v-11.6h8.7v2.1H601.4z"/>
		<path class="st3" d="M609.1,169.9h2.6v12.3h-2.6V169.9z"/>
		<path class="st3" d="M615.8,181.7c-0.7-0.4-1.3-0.9-1.7-1.6s-0.6-1.5-0.6-2.4s0.2-1.7,0.6-2.4s1-1.2,1.7-1.6s1.6-0.6,2.5-0.6
			s1.8,0.2,2.5,0.6s1.3,0.9,1.7,1.6c0.4,0.7,0.6,1.5,0.6,2.4s-0.2,1.7-0.6,2.4c-0.4,0.7-1,1.2-1.7,1.6s-1.6,0.6-2.5,0.6
			S616.5,182.1,615.8,181.7z M619.9,179.5c0.4-0.4,0.6-1,0.6-1.8c0-0.7-0.2-1.3-0.6-1.8c-0.4-0.4-1-0.7-1.6-0.7
			c-0.7,0-1.2,0.2-1.6,0.7c-0.4,0.4-0.6,1-0.6,1.8c0,0.7,0.2,1.3,0.6,1.8c0.4,0.4,1,0.7,1.6,0.7
			C618.9,180.2,619.5,179.9,619.9,179.5z"/>
	</g>
	<g class="st2">
		<path class="st3" d="M628.6,173.5c0.5-0.2,1.1-0.3,1.8-0.3v2.4c-0.3,0-0.5,0-0.6,0c-0.7,0-1.3,0.2-1.7,0.6c-0.4,0.4-0.6,1-0.6,1.9
			v4.2h-2.6v-8.9h2.5v1.2C627.6,174,628,173.7,628.6,173.5z"/>
	</g>
	<g class="st2">
		<path class="st3" d="M632,171.6c-0.3-0.3-0.4-0.6-0.4-1s0.1-0.7,0.4-1c0.3-0.3,0.7-0.4,1.2-0.4s0.9,0.1,1.2,0.4
			c0.3,0.3,0.4,0.6,0.4,1c0,0.4-0.1,0.8-0.4,1.1c-0.3,0.3-0.7,0.4-1.2,0.4S632.3,171.9,632,171.6z M631.9,173.3h2.6v8.9h-2.6V173.3z
			"/>
		<path class="st3" d="M645.9,169.9v12.3h-2.5v-1c-0.6,0.8-1.6,1.2-2.8,1.2c-0.8,0-1.6-0.2-2.3-0.6c-0.7-0.4-1.2-0.9-1.6-1.6
			c-0.4-0.7-0.6-1.5-0.6-2.4c0-0.9,0.2-1.7,0.6-2.4c0.4-0.7,0.9-1.2,1.6-1.6c0.7-0.4,1.4-0.6,2.3-0.6c1.1,0,2,0.4,2.7,1.1v-4.3
			H645.9z M642.8,179.5c0.4-0.4,0.6-1,0.6-1.8c0-0.7-0.2-1.3-0.6-1.8c-0.4-0.4-1-0.7-1.6-0.7c-0.7,0-1.2,0.2-1.6,0.7
			c-0.4,0.4-0.6,1-0.6,1.8c0,0.7,0.2,1.3,0.6,1.8c0.4,0.4,1,0.7,1.6,0.7C641.8,180.2,642.3,179.9,642.8,179.5z"/>
		<path class="st3" d="M655.1,174.1c0.7,0.7,1.1,1.6,1.1,3v5.1h-2.4V181c-0.5,0.8-1.4,1.2-2.7,1.2c-0.7,0-1.3-0.1-1.8-0.3
			c-0.5-0.2-0.9-0.5-1.1-1s-0.4-0.9-0.4-1.4c0-0.8,0.3-1.5,0.9-1.9c0.6-0.5,1.6-0.7,2.9-0.7h2c0-0.6-0.2-1-0.5-1.3s-0.9-0.5-1.5-0.5
			c-0.5,0-0.9,0.1-1.4,0.2c-0.5,0.1-0.8,0.3-1.2,0.6l-0.9-1.8c0.5-0.3,1.1-0.6,1.7-0.8c0.7-0.2,1.4-0.3,2.1-0.3
			C653.3,173.1,654.3,173.5,655.1,174.1z M652.9,180.2c0.3-0.2,0.6-0.5,0.7-0.9v-0.9h-1.8c-1.1,0-1.6,0.3-1.6,1
			c0,0.3,0.1,0.6,0.4,0.8c0.3,0.2,0.6,0.3,1.1,0.3C652.1,180.5,652.5,180.4,652.9,180.2z"/>
	</g>
	<g class="st2">
		<path class="st3" d="M584.6,190.9c0.8,0.3,1.3,0.8,1.7,1.5c0.4,0.6,0.6,1.4,0.6,2.2c0,0.8-0.2,1.6-0.6,2.2c-0.4,0.6-1,1.1-1.7,1.5
			c-0.8,0.3-1.6,0.5-2.7,0.5h-2.3v3.2h-2.7v-11.6h5C582.9,190.4,583.8,190.6,584.6,190.9z M583.6,196.1c0.4-0.3,0.6-0.8,0.6-1.5
			c0-0.6-0.2-1.1-0.6-1.5c-0.4-0.3-1-0.5-1.8-0.5h-2.2v4h2.2C582.5,196.6,583.2,196.4,583.6,196.1z"/>
	</g>
	<g class="st2">
		<path class="st3" d="M590.3,201.5c-0.7-0.4-1.3-0.9-1.7-1.6s-0.6-1.5-0.6-2.4s0.2-1.7,0.6-2.4s1-1.2,1.7-1.6
			c0.7-0.4,1.6-0.6,2.5-0.6s1.8,0.2,2.5,0.6c0.7,0.4,1.3,0.9,1.7,1.6c0.4,0.7,0.6,1.5,0.6,2.4s-0.2,1.7-0.6,2.4
			c-0.4,0.7-1,1.2-1.7,1.6c-0.7,0.4-1.6,0.6-2.5,0.6S591.1,201.9,590.3,201.5z M594.5,199.3c0.4-0.4,0.6-1,0.6-1.8
			c0-0.7-0.2-1.3-0.6-1.8c-0.4-0.4-1-0.7-1.6-0.7c-0.7,0-1.2,0.2-1.6,0.7c-0.4,0.4-0.6,1-0.6,1.8c0,0.7,0.2,1.3,0.6,1.8
			c0.4,0.4,1,0.7,1.6,0.7C593.5,200,594,199.8,594.5,199.3z"/>
	</g>
	<g class="st2">
		<path class="st3" d="M603.1,193.3c0.5-0.2,1.1-0.3,1.8-0.3v2.4c-0.3,0-0.5,0-0.6,0c-0.7,0-1.3,0.2-1.7,0.6c-0.4,0.4-0.6,1-0.6,1.9
			v4.2h-2.6v-8.9h2.5v1.2C602.2,193.8,602.6,193.5,603.1,193.3z"/>
	</g>
	<g class="st2">
		<path class="st3" d="M612.5,201.5c-0.3,0.2-0.6,0.3-0.9,0.4c-0.4,0.1-0.8,0.1-1.2,0.1c-1.1,0-1.9-0.3-2.5-0.8s-0.9-1.3-0.9-2.4
			v-3.6h-1.4v-2h1.4v-2.2h2.6v2.2h2.2v2h-2.2v3.6c0,0.4,0.1,0.7,0.3,0.9c0.2,0.2,0.5,0.3,0.8,0.3c0.4,0,0.8-0.1,1-0.3L612.5,201.5z"
			/>
		<path class="st3" d="M620.7,193.9c0.7,0.7,1.1,1.6,1.1,3v5.1h-2.4v-1.1c-0.5,0.8-1.4,1.2-2.7,1.2c-0.7,0-1.3-0.1-1.8-0.3
			c-0.5-0.2-0.9-0.5-1.1-1s-0.4-0.9-0.4-1.4c0-0.8,0.3-1.5,0.9-1.9c0.6-0.5,1.6-0.7,2.9-0.7h2c0-0.6-0.2-1-0.5-1.3
			c-0.3-0.3-0.9-0.5-1.5-0.5c-0.5,0-0.9,0.1-1.4,0.2c-0.5,0.1-0.8,0.3-1.2,0.6l-0.9-1.8c0.5-0.3,1.1-0.6,1.7-0.8
			c0.7-0.2,1.4-0.3,2.1-0.3C618.9,192.9,620,193.3,620.7,193.9z M618.5,200.1c0.3-0.2,0.6-0.5,0.7-0.9v-0.9h-1.8
			c-1.1,0-1.6,0.3-1.6,1c0,0.3,0.1,0.6,0.4,0.8c0.3,0.2,0.6,0.3,1.1,0.3C617.8,200.4,618.2,200.3,618.5,200.1z"/>
	</g>
	<g class="st2">
		<path class="st3" d="M631.5,200v2h-7.9v-1.6l4.5-5.3h-4.4v-2h7.7v1.6l-4.5,5.3H631.5z"/>
	</g>
	<g class="st2">
		<path class="st3" d="M642.2,193.1v7.4c0,1.6-0.4,2.8-1.3,3.6c-0.8,0.8-2.1,1.2-3.7,1.2c-0.9,0-1.7-0.1-2.4-0.3s-1.4-0.5-1.9-0.9
			l1-1.8c0.4,0.3,0.8,0.6,1.4,0.7s1.1,0.3,1.7,0.3c0.9,0,1.5-0.2,2-0.6c0.4-0.4,0.6-1,0.6-1.8v-0.4c-0.7,0.7-1.6,1.1-2.8,1.1
			c-0.8,0-1.6-0.2-2.2-0.5s-1.2-0.9-1.6-1.5c-0.4-0.6-0.6-1.4-0.6-2.2s0.2-1.6,0.6-2.2c0.4-0.6,0.9-1.2,1.6-1.5
			c0.7-0.4,1.4-0.5,2.2-0.5c1.3,0,2.3,0.4,2.9,1.3v-1.1H642.2z M639,198.8c0.4-0.4,0.7-0.9,0.7-1.6s-0.2-1.2-0.7-1.6
			c-0.4-0.4-1-0.6-1.7-0.6s-1.2,0.2-1.7,0.6c-0.4,0.4-0.7,0.9-0.7,1.6s0.2,1.2,0.7,1.6c0.4,0.4,1,0.6,1.7,0.6S638.5,199.2,639,198.8
			z"/>
		<path class="st3" d="M646.3,201.5c-0.7-0.4-1.3-0.9-1.7-1.6s-0.6-1.5-0.6-2.4s0.2-1.7,0.6-2.4s1-1.2,1.7-1.6s1.6-0.6,2.5-0.6
			s1.8,0.2,2.5,0.6s1.3,0.9,1.7,1.6c0.4,0.7,0.6,1.5,0.6,2.4s-0.2,1.7-0.6,2.4c-0.4,0.7-1,1.2-1.7,1.6s-1.6,0.6-2.5,0.6
			S647,201.9,646.3,201.5z M650.4,199.3c0.4-0.4,0.6-1,0.6-1.8c0-0.7-0.2-1.3-0.6-1.8c-0.4-0.4-1-0.7-1.6-0.7
			c-0.7,0-1.2,0.2-1.6,0.7c-0.4,0.4-0.6,1-0.6,1.8c0,0.7,0.2,1.3,0.6,1.8c0.4,0.4,1,0.7,1.6,0.7C649.5,200,650,199.8,650.4,199.3z"
			/>
	</g>
	<g class="st2">
		<path class="st3" d="M682.1,224.5c0.6,0.3,1,0.6,1.3,1.1s0.5,1.1,0.5,1.7c0,0.7-0.2,1.2-0.5,1.7c-0.3,0.5-0.8,0.9-1.3,1.1
			c-0.6,0.3-1.3,0.4-2.1,0.4h-1.8v2.5h-2.1v-8.9h3.8C680.8,224.1,681.5,224.2,682.1,224.5z M681.3,228.4c0.3-0.3,0.5-0.6,0.5-1.1
			c0-0.5-0.2-0.9-0.5-1.1c-0.3-0.3-0.8-0.4-1.4-0.4h-1.7v3.1h1.7C680.5,228.8,681,228.7,681.3,228.4z"/>
	</g>
	<g class="st2">
		<path class="st3" d="M688.1,226.3c0.4-0.2,0.9-0.3,1.4-0.3v1.8c-0.2,0-0.4,0-0.4,0c-0.6,0-1,0.2-1.3,0.5c-0.3,0.3-0.5,0.8-0.5,1.4
			v3.2h-2v-6.8h1.9v0.9C687.3,226.7,687.7,226.4,688.1,226.3z"/>
	</g>
	<g class="st2">
		<path class="st3" d="M690.7,224.9c-0.2-0.2-0.3-0.5-0.3-0.8s0.1-0.6,0.3-0.8s0.5-0.3,0.9-0.3s0.7,0.1,0.9,0.3
			c0.2,0.2,0.3,0.5,0.3,0.8c0,0.3-0.1,0.6-0.3,0.8c-0.2,0.2-0.5,0.3-0.9,0.3S691,225.1,690.7,224.9z M690.6,226.1h2v6.8h-2V226.1z"
			/>
	</g>
	<g class="st2">
		<path class="st3" d="M700.7,226.8c0.5,0.5,0.8,1.3,0.8,2.3v3.9h-2v-3.6c0-0.5-0.1-0.9-0.4-1.2c-0.2-0.3-0.6-0.4-1-0.4
			c-0.5,0-0.9,0.2-1.2,0.5c-0.3,0.3-0.4,0.8-0.4,1.4v3.4h-2v-6.8h1.9v0.8c0.3-0.3,0.6-0.5,1-0.7c0.4-0.2,0.8-0.2,1.3-0.2
			C699.5,226,700.1,226.3,700.7,226.8z"/>
	</g>
	<g class="st2">
		<path class="st3" d="M704.6,232.6c-0.6-0.3-1-0.7-1.4-1.3c-0.3-0.5-0.5-1.1-0.5-1.8c0-0.7,0.2-1.3,0.5-1.8c0.3-0.5,0.8-1,1.4-1.3
			s1.2-0.5,2-0.5c0.7,0,1.3,0.2,1.9,0.5s0.9,0.7,1.2,1.3l-1.5,0.8c-0.4-0.6-0.9-0.9-1.5-0.9c-0.5,0-0.9,0.2-1.3,0.5
			c-0.3,0.3-0.5,0.8-0.5,1.4c0,0.6,0.2,1,0.5,1.4c0.3,0.3,0.8,0.5,1.3,0.5c0.7,0,1.2-0.3,1.5-0.9l1.5,0.8c-0.2,0.5-0.6,1-1.2,1.3
			s-1.2,0.5-1.9,0.5C705.9,233.1,705.2,232.9,704.6,232.6z"/>
	</g>
	<g class="st2">
		<path class="st3" d="M717.4,230.1h-5.2c0.1,0.4,0.3,0.8,0.7,1c0.3,0.2,0.8,0.4,1.3,0.4c0.4,0,0.7-0.1,0.9-0.2
			c0.3-0.1,0.5-0.3,0.8-0.5l1.1,1.1c-0.6,0.7-1.6,1.1-2.8,1.1c-0.8,0-1.5-0.2-2-0.5c-0.6-0.3-1-0.7-1.4-1.3
			c-0.3-0.5-0.5-1.1-0.5-1.8c0-0.7,0.2-1.3,0.5-1.8c0.3-0.5,0.8-1,1.3-1.3c0.6-0.3,1.2-0.5,1.9-0.5c0.7,0,1.3,0.1,1.8,0.4
			c0.5,0.3,1,0.7,1.3,1.2c0.3,0.5,0.5,1.2,0.5,1.9C717.4,229.6,717.4,229.8,717.4,230.1z M712.7,227.9c-0.3,0.3-0.5,0.6-0.6,1h3.4
			c-0.1-0.4-0.3-0.8-0.6-1c-0.3-0.3-0.7-0.4-1.1-0.4C713.4,227.5,713,227.6,712.7,227.9z"/>
		<path class="st3" d="M719.4,232.8c-0.5-0.1-1-0.3-1.3-0.5l0.7-1.4c0.3,0.2,0.7,0.4,1.1,0.5s0.9,0.2,1.3,0.2c0.8,0,1.3-0.2,1.3-0.6
			c0-0.2-0.1-0.3-0.3-0.4c-0.2-0.1-0.6-0.2-1.1-0.2c-0.6-0.1-1-0.2-1.4-0.3c-0.4-0.1-0.7-0.3-0.9-0.6c-0.3-0.3-0.4-0.7-0.4-1.2
			c0-0.4,0.1-0.8,0.4-1.1c0.2-0.3,0.6-0.6,1.1-0.8s1-0.3,1.7-0.3c0.5,0,1,0.1,1.4,0.2c0.5,0.1,0.9,0.3,1.2,0.4l-0.7,1.4
			c-0.6-0.3-1.3-0.5-2-0.5c-0.4,0-0.7,0.1-1,0.2c-0.2,0.1-0.3,0.3-0.3,0.5c0,0.2,0.1,0.4,0.3,0.4c0.2,0.1,0.6,0.2,1.1,0.2
			c0.6,0.1,1,0.2,1.4,0.3s0.7,0.3,0.9,0.6c0.3,0.3,0.4,0.7,0.4,1.2c0,0.4-0.1,0.8-0.4,1.1c-0.3,0.3-0.6,0.6-1.1,0.8
			c-0.5,0.2-1.1,0.3-1.7,0.3C720.5,233.1,719.9,233,719.4,232.8z"/>
		<path class="st3" d="M730.7,226.8c0.6,0.5,0.9,1.3,0.9,2.3v3.9h-1.9v-0.9c-0.4,0.6-1.1,1-2.1,1c-0.5,0-1-0.1-1.4-0.3
			s-0.7-0.4-0.9-0.7c-0.2-0.3-0.3-0.7-0.3-1.1c0-0.6,0.2-1.1,0.7-1.5c0.5-0.4,1.2-0.5,2.2-0.5h1.6c0-0.4-0.1-0.8-0.4-1
			c-0.3-0.2-0.7-0.3-1.2-0.3c-0.4,0-0.7,0.1-1.1,0.2s-0.6,0.3-0.9,0.5l-0.7-1.4c0.4-0.3,0.8-0.5,1.3-0.6c0.5-0.1,1.1-0.2,1.6-0.2
			C729.3,226,730.1,226.3,730.7,226.8z M729,231.5c0.3-0.2,0.4-0.4,0.6-0.7v-0.7h-1.4c-0.8,0-1.2,0.3-1.2,0.8c0,0.3,0.1,0.5,0.3,0.6
			s0.5,0.2,0.8,0.2C728.4,231.7,728.7,231.6,729,231.5z"/>
	</g>
	<g class="st2">
		<path class="st3" d="M680.7,248.2l0-5.3l-2.6,4.4h-0.9l-2.6-4.3v5.2h-1.9v-8.9h1.7l3.3,5.5l3.3-5.5h1.7l0,8.9H680.7z"/>
		<path class="st3" d="M691.2,245.3h-5.2c0.1,0.4,0.3,0.8,0.7,1c0.3,0.2,0.8,0.4,1.3,0.4c0.4,0,0.7-0.1,0.9-0.2
			c0.3-0.1,0.5-0.3,0.8-0.5l1.1,1.1c-0.6,0.7-1.6,1.1-2.8,1.1c-0.8,0-1.5-0.2-2-0.5c-0.6-0.3-1-0.7-1.4-1.3
			c-0.3-0.5-0.5-1.1-0.5-1.8c0-0.7,0.2-1.3,0.5-1.8c0.3-0.5,0.8-1,1.3-1.3c0.6-0.3,1.2-0.5,1.9-0.5c0.7,0,1.3,0.1,1.8,0.4
			c0.5,0.3,1,0.7,1.3,1.2c0.3,0.5,0.5,1.2,0.5,1.9C691.3,244.8,691.2,245,691.2,245.3z M686.6,243.1c-0.3,0.3-0.5,0.6-0.6,1h3.4
			c-0.1-0.4-0.3-0.8-0.6-1c-0.3-0.3-0.7-0.4-1.1-0.4C687.3,242.8,686.9,242.9,686.6,243.1z"/>
	</g>
	<g class="st2">
		<path class="st3" d="M695.4,241.5c0.4-0.2,0.9-0.3,1.4-0.3v1.8c-0.2,0-0.4,0-0.4,0c-0.6,0-1,0.2-1.3,0.5c-0.3,0.3-0.5,0.8-0.5,1.4
			v3.2h-2v-6.8h1.9v0.9C694.7,241.9,695,241.7,695.4,241.5z"/>
	</g>
	<g class="st2">
		<path class="st3" d="M699.3,247.8c-0.6-0.3-1-0.7-1.4-1.3c-0.3-0.5-0.5-1.1-0.5-1.8c0-0.7,0.2-1.3,0.5-1.8c0.3-0.5,0.8-1,1.4-1.3
			s1.2-0.5,2-0.5c0.7,0,1.3,0.2,1.9,0.5s0.9,0.7,1.2,1.3l-1.5,0.8c-0.4-0.6-0.9-0.9-1.5-0.9c-0.5,0-0.9,0.2-1.3,0.5
			c-0.3,0.3-0.5,0.8-0.5,1.4c0,0.6,0.2,1,0.5,1.4c0.3,0.3,0.8,0.5,1.3,0.5c0.7,0,1.2-0.3,1.5-0.9l1.5,0.8c-0.2,0.5-0.6,1-1.2,1.3
			s-1.2,0.5-1.9,0.5C700.5,248.3,699.9,248.1,699.3,247.8z"/>
	</g>
	<g class="st2">
		<path class="st3" d="M712,245.3h-5.2c0.1,0.4,0.3,0.8,0.7,1c0.3,0.2,0.8,0.4,1.3,0.4c0.4,0,0.7-0.1,0.9-0.2
			c0.3-0.1,0.5-0.3,0.8-0.5l1.1,1.1c-0.6,0.7-1.6,1.1-2.8,1.1c-0.8,0-1.5-0.2-2-0.5c-0.6-0.3-1-0.7-1.4-1.3
			c-0.3-0.5-0.5-1.1-0.5-1.8c0-0.7,0.2-1.3,0.5-1.8c0.3-0.5,0.8-1,1.3-1.3s1.2-0.5,1.9-0.5c0.7,0,1.3,0.1,1.8,0.4
			c0.5,0.3,1,0.7,1.3,1.2c0.3,0.5,0.5,1.2,0.5,1.9C712.1,244.8,712,245,712,245.3z M707.4,243.1c-0.3,0.3-0.5,0.6-0.6,1h3.4
			c-0.1-0.4-0.3-0.8-0.6-1c-0.3-0.3-0.7-0.4-1.1-0.4C708.1,242.8,707.7,242.9,707.4,243.1z"/>
		<path class="st3" d="M720.3,238.8v9.4h-1.9v-0.8c-0.5,0.6-1.2,0.9-2.1,0.9c-0.6,0-1.2-0.1-1.7-0.4c-0.5-0.3-0.9-0.7-1.2-1.2
			c-0.3-0.5-0.4-1.2-0.4-1.9c0-0.7,0.1-1.3,0.4-1.9c0.3-0.5,0.7-0.9,1.2-1.2c0.5-0.3,1.1-0.4,1.7-0.4c0.9,0,1.6,0.3,2,0.8v-3.3
			H720.3z M717.9,246.2c0.3-0.3,0.5-0.8,0.5-1.4c0-0.6-0.2-1-0.5-1.4c-0.3-0.3-0.7-0.5-1.2-0.5c-0.5,0-0.9,0.2-1.3,0.5
			c-0.3,0.3-0.5,0.8-0.5,1.4c0,0.6,0.2,1,0.5,1.4c0.3,0.3,0.7,0.5,1.3,0.5C717.1,246.7,717.6,246.5,717.9,246.2z"/>
		<path class="st3" d="M728.8,245.3h-5.2c0.1,0.4,0.3,0.8,0.7,1c0.3,0.2,0.8,0.4,1.3,0.4c0.4,0,0.7-0.1,0.9-0.2
			c0.3-0.1,0.5-0.3,0.8-0.5l1.1,1.1c-0.6,0.7-1.6,1.1-2.8,1.1c-0.8,0-1.5-0.2-2-0.5c-0.6-0.3-1-0.7-1.4-1.3
			c-0.3-0.5-0.5-1.1-0.5-1.8c0-0.7,0.2-1.3,0.5-1.8c0.3-0.5,0.8-1,1.3-1.3s1.2-0.5,1.9-0.5c0.7,0,1.3,0.1,1.8,0.4
			c0.5,0.3,1,0.7,1.3,1.2c0.3,0.5,0.5,1.2,0.5,1.9C728.9,244.8,728.8,245,728.8,245.3z M724.2,243.1c-0.3,0.3-0.5,0.6-0.6,1h3.4
			c-0.1-0.4-0.3-0.8-0.6-1c-0.3-0.3-0.7-0.4-1.1-0.4C724.9,242.8,724.5,242.9,724.2,243.1z"/>
		<path class="st3" d="M730.8,248.1c-0.5-0.1-1-0.3-1.3-0.5l0.7-1.4c0.3,0.2,0.7,0.4,1.1,0.5c0.4,0.1,0.9,0.2,1.3,0.2
			c0.8,0,1.3-0.2,1.3-0.6c0-0.2-0.1-0.3-0.3-0.4s-0.6-0.2-1.1-0.2c-0.6-0.1-1-0.2-1.4-0.3c-0.4-0.1-0.7-0.3-0.9-0.6
			c-0.3-0.3-0.4-0.7-0.4-1.2c0-0.4,0.1-0.8,0.4-1.1c0.3-0.3,0.6-0.6,1.1-0.8c0.5-0.2,1-0.3,1.7-0.3c0.5,0,1,0.1,1.4,0.2
			c0.5,0.1,0.9,0.3,1.2,0.4l-0.7,1.4c-0.6-0.3-1.3-0.5-2-0.5c-0.4,0-0.7,0.1-1,0.2c-0.2,0.1-0.3,0.3-0.3,0.5c0,0.2,0.1,0.4,0.3,0.4
			c0.2,0.1,0.6,0.2,1.1,0.2c0.6,0.1,1,0.2,1.4,0.3c0.4,0.1,0.7,0.3,0.9,0.6c0.3,0.3,0.4,0.7,0.4,1.2c0,0.4-0.1,0.8-0.4,1.1
			c-0.3,0.3-0.6,0.6-1.1,0.8c-0.5,0.2-1.1,0.3-1.7,0.3C731.9,248.3,731.4,248.2,730.8,248.1z"/>
	</g>
	<g class="st2">
		<path class="st3" d="M792.9,236.4h-6.2l-1.2,2.9h-3.2l5.9-13.3h3l6,13.3h-3.2L792.9,236.4z M791.9,234.1l-2.1-5.1l-2.1,5.1H791.9z
			"/>
		<path class="st3" d="M798.5,225.2h3v14.1h-3V225.2z"/>
		<path class="st3" d="M804.4,227.1c-0.3-0.3-0.5-0.7-0.5-1.2c0-0.5,0.2-0.9,0.5-1.2c0.3-0.3,0.8-0.5,1.3-0.5s1,0.2,1.3,0.5
			c0.3,0.3,0.5,0.7,0.5,1.1c0,0.5-0.2,0.9-0.5,1.2c-0.3,0.3-0.8,0.5-1.3,0.5S804.7,227.5,804.4,227.1z M804.2,229.1h3v10.2h-3V229.1
			z"/>
	</g>
	<g class="st2">
		<path class="st3" d="M818.6,229.6c0.8,0.4,1.4,1.1,1.8,1.8c0.4,0.8,0.7,1.7,0.7,2.8c0,1.1-0.2,2-0.7,2.8c-0.4,0.8-1.1,1.4-1.8,1.8
			s-1.6,0.7-2.6,0.7c-1.3,0-2.3-0.4-3.1-1.2v4.8h-3v-13.9h2.8v1.2c0.7-0.9,1.8-1.3,3.2-1.3C817,228.9,817.8,229.1,818.6,229.6z
			 M817.4,236.2c0.5-0.5,0.7-1.2,0.7-2.1c0-0.9-0.2-1.6-0.7-2.1c-0.5-0.5-1.1-0.8-1.9-0.8c-0.8,0-1.4,0.3-1.9,0.8
			c-0.5,0.5-0.7,1.2-0.7,2.1c0,0.9,0.2,1.6,0.7,2.1s1.1,0.8,1.9,0.8C816.2,237,816.9,236.8,817.4,236.2z"/>
	</g>
	<g class="st2">
		<path class="st3" d="M830.7,230c0.9,0.8,1.3,1.9,1.3,3.4v5.8h-2.8V238c-0.6,1-1.6,1.4-3.1,1.4c-0.8,0-1.5-0.1-2-0.4
			c-0.6-0.3-1-0.6-1.3-1.1s-0.5-1-0.5-1.6c0-1,0.4-1.7,1.1-2.2c0.7-0.5,1.8-0.8,3.3-0.8h2.4c0-0.6-0.2-1.1-0.6-1.5
			c-0.4-0.3-1-0.5-1.8-0.5c-0.5,0-1.1,0.1-1.6,0.3c-0.5,0.2-1,0.4-1.3,0.7l-1.1-2.1c0.6-0.4,1.2-0.7,2-0.9s1.6-0.3,2.4-0.3
			C828.6,228.9,829.9,229.3,830.7,230z M828.2,237.1c0.4-0.2,0.7-0.6,0.8-1v-1h-2c-1.2,0-1.8,0.4-1.8,1.2c0,0.4,0.1,0.7,0.4,0.9
			c0.3,0.2,0.7,0.3,1.2,0.3C827.3,237.5,827.8,237.3,828.2,237.1z"/>
	</g>
	<g class="st2">
		<path class="st3" d="M838.9,229.3c0.6-0.3,1.3-0.4,2.1-0.4v2.7c-0.3,0-0.6,0-0.7,0c-0.9,0-1.5,0.2-2,0.7c-0.5,0.5-0.7,1.2-0.7,2.1
			v4.8h-3v-10.2h2.8v1.4C837.9,229.9,838.3,229.5,838.9,229.3z"/>
	</g>
	<g class="st2">
		<path class="st3" d="M847.2,235.3l-1.4,1.4v2.6h-3v-14.1h3v8l4.3-4.1h3.5l-4.3,4.3l4.6,5.9h-3.6L847.2,235.3z"/>
	</g>
	<g class="st2">
		<path class="st3" d="M830,330.1c0.4,0.6,0.6,1.3,0.6,2.1c0,1.2-0.5,2.1-1.4,2.7c-0.9,0.6-2.2,0.9-4,0.9h-6.9v-13.3h6.5
			c1.6,0,2.9,0.3,3.7,0.9c0.9,0.6,1.3,1.5,1.3,2.5c0,0.6-0.2,1.2-0.5,1.7c-0.3,0.5-0.7,0.9-1.3,1.2
			C828.9,329.1,829.5,329.5,830,330.1z M821.4,324.8v3.1h3.1c0.8,0,1.3-0.1,1.7-0.4c0.4-0.3,0.6-0.7,0.6-1.2s-0.2-0.9-0.6-1.2
			c-0.4-0.3-1-0.4-1.7-0.4H821.4z M826.9,333.1c0.4-0.3,0.6-0.7,0.6-1.2c0-1.1-0.8-1.7-2.5-1.7h-3.6v3.3h3.6
			C825.9,333.5,826.5,333.4,826.9,333.1z"/>
		<path class="st3" d="M842.7,331.5H835c0.1,0.6,0.5,1.1,1,1.5c0.5,0.4,1.2,0.6,1.9,0.6c0.5,0,1-0.1,1.4-0.2
			c0.4-0.2,0.8-0.4,1.2-0.8l1.6,1.7c-1,1.1-2.4,1.7-4.2,1.7c-1.2,0-2.2-0.2-3.1-0.7c-0.9-0.5-1.6-1.1-2.1-1.9
			c-0.5-0.8-0.7-1.7-0.7-2.7c0-1,0.2-1.9,0.7-2.7c0.5-0.8,1.1-1.4,2-1.9c0.8-0.5,1.8-0.7,2.8-0.7c1,0,1.9,0.2,2.7,0.6
			c0.8,0.4,1.5,1.1,1.9,1.9c0.5,0.8,0.7,1.7,0.7,2.8C842.8,330.8,842.8,331,842.7,331.5z M835.8,328.2c-0.5,0.4-0.7,0.9-0.8,1.6h5
			c-0.1-0.6-0.4-1.2-0.8-1.6c-0.5-0.4-1-0.6-1.7-0.6C836.8,327.7,836.2,327.9,835.8,328.2z"/>
		<path class="st3" d="M854.1,326.6c0.8,0.8,1.2,1.9,1.2,3.4v5.9h-3v-5.4c0-0.8-0.2-1.4-0.5-1.8c-0.4-0.4-0.9-0.6-1.5-0.6
			c-0.8,0-1.3,0.2-1.8,0.7c-0.4,0.5-0.7,1.2-0.7,2.1v5.1h-3v-10.2h2.8v1.2c0.4-0.4,0.9-0.8,1.5-1c0.6-0.2,1.2-0.4,1.9-0.4
			C852.3,325.4,853.3,325.8,854.1,326.6z"/>
		<path class="st3" d="M865.7,326.6c0.9,0.8,1.3,1.9,1.3,3.4v5.8h-2.8v-1.3c-0.6,1-1.6,1.4-3.1,1.4c-0.8,0-1.5-0.1-2-0.4
			c-0.6-0.3-1-0.6-1.3-1.1s-0.5-1-0.5-1.6c0-1,0.4-1.7,1.1-2.2c0.7-0.5,1.8-0.8,3.3-0.8h2.4c0-0.6-0.2-1.1-0.6-1.5
			c-0.4-0.3-1-0.5-1.8-0.5c-0.5,0-1.1,0.1-1.6,0.3c-0.5,0.2-1,0.4-1.3,0.7l-1.1-2.1c0.6-0.4,1.2-0.7,2-0.9s1.6-0.3,2.4-0.3
			C863.7,325.4,864.9,325.8,865.7,326.6z M863.2,333.6c0.4-0.2,0.7-0.6,0.8-1v-1h-2c-1.2,0-1.8,0.4-1.8,1.2c0,0.4,0.2,0.7,0.4,0.9
			c0.3,0.2,0.7,0.3,1.2,0.3C862.3,334,862.8,333.9,863.2,333.6z"/>
		<path class="st3" d="M869.7,321.7h3v14.1h-3V321.7z"/>
		<path class="st3" d="M885.7,325.6v10.2h-2.8v-1.2c-0.4,0.4-0.9,0.8-1.4,1c-0.5,0.2-1.1,0.4-1.8,0.4c-1.3,0-2.4-0.4-3.2-1.2
			c-0.8-0.8-1.2-1.9-1.2-3.4v-5.8h3v5.4c0,1.7,0.7,2.5,2.1,2.5c0.7,0,1.3-0.2,1.7-0.7c0.4-0.5,0.6-1.2,0.6-2.1v-5.1H885.7z"/>
		<path class="st3" d="M896.3,326.6c0.9,0.8,1.3,1.9,1.3,3.4v5.8h-2.8v-1.3c-0.6,1-1.6,1.4-3.1,1.4c-0.8,0-1.5-0.1-2-0.4
			c-0.6-0.3-1-0.6-1.3-1.1s-0.5-1-0.5-1.6c0-1,0.4-1.7,1.1-2.2c0.7-0.5,1.8-0.8,3.3-0.8h2.4c0-0.6-0.2-1.1-0.6-1.5
			c-0.4-0.3-1-0.5-1.8-0.5c-0.5,0-1.1,0.1-1.6,0.3c-0.5,0.2-1,0.4-1.3,0.7l-1.1-2.1c0.6-0.4,1.2-0.7,2-0.9s1.6-0.3,2.4-0.3
			C894.2,325.4,895.4,325.8,896.3,326.6z M893.8,333.6c0.4-0.2,0.7-0.6,0.8-1v-1h-2c-1.2,0-1.8,0.4-1.8,1.2c0,0.4,0.2,0.7,0.4,0.9
			c0.3,0.2,0.7,0.3,1.2,0.3C892.9,334,893.4,333.9,893.8,333.6z"/>
	</g>
</g>
</svg>
