<?xml version="1.0" encoding="utf-8"?>
<!-- Generator: Adobe Illustrator 24.0.2, SVG Export Plug-In . SVG Version: 6.00 Build 0)  -->
<svg version="1.1" id="Capa_1" xmlns="http://www.w3.org/2000/svg" xmlns:xlink="http://www.w3.org/1999/xlink" x="0px" y="0px"
	 viewBox="0 0 1080 1080" style="enable-background:new 0 0 1080 1080;" xml:space="preserve">
<style type="text/css">
	.st1{fill:#FFFFFF;}
</style>
<g id="4_Carolinas_Bajas" class="zone">
	<path class="st0" d="M706.1,933.5l5.7,0.9c12.2,1.9,27.5,4.3,35.2,5.1c7.8,0.9,11.9,0.2,19.2-5.2c8.7-6.5,12.6-7.8,23.4-7.8h73
		c6.4,0,11.6-0.1,15.9-0.2c10.9-0.2,16.9-0.3,23.1,1.3l40,10c2.1,0.5,4.3,1.3,6.3,1.9c0.6,0.2,1.2,0.4,1.9,0.6
		c-0.1-0.2-0.2-0.4-0.2-0.6c-2-5.1-3.7-9.2-9.7-15.2c-3.4-3.4-14.1-15.2-26.5-28.8c-16.4-18.1-36.9-40.6-45.5-49.2
		c-7.8-7.8-18.3-19.1-28.4-30c-9.5-10.2-18.4-19.8-24.6-26l-18-18c-1.5-1.3-2.5-3.2-2.6-5.2c-4.3-5.1-19.4-22.8-36.9-40.3
		c-15.5-15.5-45-34.8-62.6-46.3c-6.2-4-11.1-7.2-13.9-9.3c-10.1-7.4-27-12.2-40.6-16.1l-1.2-0.3c-9.3-2.7-19.4-8.5-30-17.2
		c-7.2,12.5-16.6,31.5-21.1,46.5c-6.4,21.5-13.8,47.8-13.8,60.9c0,6.2,0.6,17.1,1.3,28.6c0.8,14.4,1.7,30.7,1.7,42.4
		c0,15.3,0.6,36.5,0.9,46.6c0.8-0.1,1.6-0.1,2.6-0.1h82c9,0,9,6.4,9,12c0,1.2,0.1,2.8,0.2,4.6c0.4,7.1,1,16.8-2.9,22.6
		c-2.4,3.5-5.5,9.4-8.3,14.5c-1.8,3.4-3.4,6.3-4.6,8.3c-0.3,0.5-0.6,1-0.9,1.5c-0.1,0.2-0.2,0.4-0.4,0.6c3.1,0.5,11.3,1.5,20,2.7
		C686,930.8,699,932.5,706.1,933.5z"/>
</g>
<g id="4_Campoamor" class="zone">
	<path class="st0" d="M494.1,952.3c2.7-2,17.3-9.7,37.5-20.3c8.2-4.3,15.2-8,18.9-10c2.7-1.5,5.4-2.8,7.8-4
		c5.2-2.6,11.1-5.4,11.1-7.5v-36c-0.1-2.1,0.1-4.3,0.6-6.3c-0.1-4-1.1-32.7-1.1-52.2c0-11.4-0.9-27.6-1.7-41.9
		c-0.7-12.2-1.3-22.7-1.3-29.1c0-14.1,7.6-41.2,14.2-63.1c5.9-19.6,20.8-48.1,28.6-59.1c2.3-3.3,4.9-6.7,7.5-10
		c5-6.5,10.2-13.3,12.1-18.1c1.4-3.8,3.1-11.9,3.6-29.2c-20.3,1.1-106.2,5.7-137.7,6.6c-2.7,0.1-5.2,0.1-7.5,0.2
		c-30,0.9-41.2,1.2-69.6-6.4c-17.8-4.7-27.2-7-34.1-8.7c-4.7-1.1-8.4-2.1-12.9-3.3c-11.3-3.1-15.3-3.4-20.6,0.4
		c-5.8,4.1-42.6,29-56.1,38c0.3,0.5,0.6,0.9,0.8,1.4c2,3.9,16.8,29.7,21.8,37.7c0.5,0.8,0.9,1.5,1.3,2.2c2,3.2,4.2,6.7,5.1,7.1
		c0,0,0.1,0,0.2,0c1.7-0.6,3.3-1.2,4.9-2c5.3-2.3,11.3-5,15.9-4.1c2.6,0.5,7.1,1.1,11.4,1.6c3.7,0.5,7.6,0.9,10.4,1.4
		c8.4,1.4,10.1,5.5,14.1,15.5c1,2.6,2.3,5.5,3.4,8.3c3.6,8.6,7,16.6,7.8,21.5c1.9,11.2,8.1,48.5,10,56.8c1.9,8.4,4.6,12.9,7.3,16.5
		l15,20c0.2,0.3,0.5,0.6,0.7,0.9c3.6,4.6,4.9,7.9,2,20.4c-2.2,9.7-3.4,17.3-4.2,22.8c-0.3,1.8-0.5,3.5-0.8,4.9
		c-0.8,4.9-0.2,9,2.8,18.1c3.3,10,5.5,16.6,2.8,22.1c-2.1,4.2-27.8,69.8-29.7,77.2c-0.6,2.4-1.3,4.6-1.9,6.5
		c-0.8,2.7-1.9,6.3-1.6,7.4c0.9,1.4,2.1,3.5,3.5,6c1.9,3.4,4.2,7.5,6.5,10.9c3.1,4.7,3.7,5.2,10.7,5.2c4.1,0,15.3,0.5,27.2,1
		c11.3,0.5,22.9,1,26.8,1c1.7,0,3.2,0.1,4.5,0.2c5.1,0.3,5.5,0.3,6.8-2.7C478.9,977.7,487.8,957,494.1,952.3z"/>
</g>
<g id="4_Carolinas_Altas" class="zone">
	<path class="st0" d="M632.7,385.5c2,11.5,6.3,37.2,6.3,47.5c0,6,0.2,28.4,0.4,52.2c0.3,27.7,0.6,59.1,0.6,68.8
		c0,21.6-1.4,35.8-4.3,43.4c-2.2,6-7.6,12.9-13.2,20.2c-2.5,3.2-5.1,6.5-7.3,9.7c-0.7,0.9-1.4,2.1-2.2,3.4
		c12.5,10.5,22.1,14.8,28,16.5l1.2,0.3c14.2,4,31.8,9.1,43.1,17.3c2.7,1.9,7.5,5.1,13.6,9.1c19.1,12.5,47.9,31.3,63.9,47.3
		c16.1,16.1,30.3,32.4,36,39.1c0.1-0.1,0.3-0.2,0.4-0.3l0.9-0.7c4-3,27.9-19,41.3-27.2c10.5-6.5,23.2-14.4,28.6-18.7
		c0.2-0.2,0.4-0.3,0.5-0.4c-1.2-0.7-3.1-1.6-5.7-2.8c-5.1-2.3-9-4.1-12.8-5.9c-4.3-2-8.3-3.9-13.2-6.1c-1.7-0.8-3.3-1.4-4.9-2
		c-5.2-2-9.2-3.7-10.7-7.5c-0.8-2.3-0.6-4.8,0.7-6.9c6.5-13,40.2-80.2,63.1-122.1c24.4-44.7,46.4-87.9,48.9-92.9
		c0.4-0.9,0.9-1.7,1.3-2.5c0.7-1.3,1.9-3.4,1.8-4c0,0-0.4-0.8-3.2-2c-4.7-2.1-16.7-7.9-32-15.2c-14.1-6.7-31.6-15.1-48.1-22.9
		c-33.3-15.7-61.9-29.9-69.3-34.1c-0.7-0.4-1.3-0.8-2-1.1c-5.7-3.3-9.2-5.3-18.1-5.3c-10.8,0-52.3,2-65.7,3c-12.8,1-60.8,3-67.3,3
		C633.2,385.5,633,385.5,632.7,385.5z"/>
</g>
<g id="4_Altozano" class="zone">
	<path class="st0" d="M255.5,604c7.4-4.2,21.1-12.1,25.2-14.1c1.3-0.7,2.6-1.2,4-1.5c6.4-4.3,53.5-36.1,60-40.7
		c8.6-6.1,16.1-4.7,27.4-1.6c4.4,1.2,8.1,2.1,12.7,3.2c6.9,1.7,16.4,4,34.2,8.8c27.2,7.3,37.3,7,67.3,6.1c2.4-0.1,4.9-0.1,7.6-0.2
		c31.7-0.9,119-5.6,138.1-6.6c0-1.1,0-2.2,0-3.4c0-9.7-0.3-41.1-0.6-68.7c-0.2-23.8-0.4-46.3-0.4-52.3c0-11.5-6-45.1-7-50.9
		c-1-1.7-1.7-3.5-2.3-5.4c-2.2-6.6-22.1-70.3-25.1-84.4c-0.6-2.7-1.6-7-3-12.5c-14,1.5-66.4,7.3-74.2,8.2
		c-5.1,0.6-28.5,10.9-45.5,18.5c-11.2,5-21.8,9.7-28.5,12.3c-14.8,5.8-23.2,11.4-38.3,21.6c-2.7,1.8-5.7,3.8-8.9,6
		c-12.7,8.5-53.3,33.6-85.9,53.8c-20.7,12.8-38.6,23.9-42.1,26.2c-0.6,0.4-1.2,0.6-1.9,0.6c-0.9,0.8-2,1.6-3.1,2.1
		c-2.7,1.4-13.9,8-25.7,15c-13.9,8.3-29.7,17.6-39.2,22.9c-13.7,7.6-25.5,14.6-35.9,20.7c-3.2,1.9-6.2,3.6-9,5.3
		c-2.4,1.4-4.6,2.6-6.6,3.6c-8.5,4.5-8.4,4.8-6.8,8.3c3.9,8.8,14.9,29.8,21.8,41.6c7,12.1,21.2,38.4,28.1,51.1
		c2.8,5.3,5.3,10,7.5,14.2c3.2,6,5.7,10.8,7.4,13.7c0.2,0.4,0.5,0.8,0.7,1.1c0.5,1,1.1,1.9,1.8,2.8c1.1-0.2,2.1-0.7,3.1-1.3
		c3.5-2,12.7-7.1,21.5-12C242.9,611.1,252,606,255.5,604z"/>
</g>
<g id="4_Benisaudet" class="zone">
	<path class="st0" d="M393.8,339.7c3.2-2.1,6.1-4.1,8.8-5.9c15.1-10.2,24.3-16.4,39.9-22.5c6.5-2.5,17-7.2,28.1-12.1
		c25.1-11.1,42-18.5,47.9-19.1c7.6-0.8,57.6-6.3,73.1-8c-4.8-18.7-11.6-44.4-15.9-60.7c-1.2-4.7-2.3-8.8-3.1-11.8
		c-5-19.1-18.1-70.4-21-82c-1.9-7.6-3.8-14.3-5.2-19.3c-0.8-2.9-1.5-5.2-1.8-6.7c-0.1-0.6-0.3-1.1-0.5-1.7c-0.4-0.1-1.8-0.3-5.7,0.6
		c-9,2-56.9,11-81.2,15c-14.6,2.4-33.2,6-49.5,9.1c-10.6,2-19.8,3.8-26.4,4.9c-8.5,1.5-14.7,2.8-20.3,3.9
		c-5.7,1.1-10.7,2.1-16.8,3.1c-48.1,8-107.9,18-137.9,24c-31,6.2-51.3,10.1-57.1,11c-3.8,0.6-4.4,0.7-3.7,7.6
		c0.6,5.7,2.9,19.6,4.7,30.8c1,6.2,1.9,11.5,2.2,14c0.9,6.1,1.7,11.9,6.4,19.4c1.7,2.8,7.9,13.1,15.7,26.2
		c15.2,25.6,36.1,60.6,43.3,71.7c7.4,11.4,15.9,25.6,23.4,38.1c3.6,6,7,11.6,9.6,16c3.1,5,5.7,9.2,7.9,12.8
		c3.6,5.9,6.3,10.1,8.1,13.2l0.6,1c0.9,1.5,1.8,3,2.5,4.5c7.1-4.5,21.2-13.2,38.1-23.7C340.6,373.2,381.1,348.1,393.8,339.7z"/>
</g>
<g id="_Strokes">
	<g>
		<path class="st1" d="M474.7,988.8c-1,0-2.1-0.1-3.1-0.1c-1.3-0.1-2.6-0.1-4.1-0.1c-4.1,0-15.3-0.5-27.2-1c-11.3-0.5-22.9-1-26.8-1
			c-9.3,0-12.6-1.6-17.3-8.8c-2.4-3.6-4.8-8-6.8-11.5c-1.3-2.4-2.5-4.4-3.2-5.5c-2.5-3.7-1.1-8.3,0.7-14.1c0.6-1.9,1.2-3.9,1.7-6.1
			c2-8,28.1-74.3,30.3-78.8c1.3-2.5-0.7-8.4-3.2-15.9c-3-9-4.3-14.9-3.2-21.9c0.2-1.4,0.5-3,0.7-4.8c0.8-5.7,2-13.4,4.3-23.4
			s1.4-11.2-0.5-13.7c-0.3-0.3-0.5-0.7-0.8-1l-15-20c-3.1-4.1-6.5-9.6-8.7-19.5c-1.8-8.2-7.6-42.7-10-57.2c-0.7-4-4.2-12.3-7.3-19.7
			c-1.2-2.8-2.4-5.8-3.5-8.4c-3.9-9.9-4.3-9.9-7.9-10.5c-2.6-0.4-6.4-0.9-10.1-1.3c-4.7-0.6-9.2-1.1-12.1-1.7
			c-2.1-0.4-8,2.2-11.1,3.6c-2.4,1.1-4.5,2-6.1,2.4c-6.5,1.6-9.6-3.5-14-10.6c-0.4-0.7-0.9-1.4-1.3-2.1
			c-5.2-8.3-20.1-34.2-22.2-38.3c-0.3-0.5-0.5-0.9-0.6-1.1c-0.3,0.1-0.9,0.3-2,0.8c-3.9,2-18,10-24.8,13.9c-3.5,2-12.7,7.1-21.5,12
			s-18,10-21.5,12c-9.9,5.7-13.3-0.1-15.8-4.4c-0.2-0.3-0.4-0.7-0.6-1.1c-1.8-3.1-4.4-7.9-7.6-14.1c-2.2-4.2-4.7-8.9-7.5-14.1
			c-6.8-12.6-21-38.9-27.9-50.9c-7.1-12.2-18.1-33.2-22.2-42.4c-4.7-10.7,2.6-14.5,10.4-18.6c1.9-1,4-2.1,6.3-3.4
			c2.8-1.7,5.8-3.4,9-5.3c10.4-6.1,22.3-13.1,36.1-20.8c9.4-5.2,25.1-14.6,39-22.8c13-7.7,23.2-13.8,26.2-15.3
			c0.8-0.4,1.1-0.7,1.3-0.8c0-0.8-1.4-3-2.3-4.5l-0.6-1c-1.8-3.1-4.5-7.3-8.1-13.1c-2.2-3.6-4.9-7.9-7.9-12.8
			c-2.7-4.4-6.1-10-9.7-16c-7.5-12.5-16-26.6-23.3-37.9c-7.3-11.2-28.2-46.3-43.4-72c-7.8-13.1-13.9-23.4-15.6-26.1
			c-5.2-8.4-6.4-14.6-7.6-22.6c-0.4-2.5-1.2-7.7-2.2-13.9c-1.8-11.3-4.1-25.4-4.8-31.3c-1.2-10.5,1.6-14.9,10.3-16.4
			c5.7-1,26-4.8,56.9-11c28.4-5.7,83.2-14.9,138.1-24c5.9-1,10.8-2,16.5-3.1c5.6-1.1,11.9-2.4,20.5-3.9c6.6-1.2,15.7-2.9,26.3-4.9
			c16.4-3.1,35-6.6,49.7-9.1c24.3-4,71.9-13,80.8-15c9.8-2.2,13.9-0.4,15.7,6.9c0.4,1.4,1,3.7,1.8,6.5c1.4,5,3.3,11.8,5.2,19.5
			c2.9,11.6,16,62.9,21,82c0.8,3,1.9,7,3.1,11.8c6.9,26,18.4,69.5,20.9,81.4c2.9,13.5,22.8,77.2,24.9,83.6c0.4,1.3,0.9,2.6,1.1,3.2
			c0.7,0.1,1.9,0.1,3.1,0.1c6,0,54.2-2,66.7-3c13.5-1,55.4-3,66.3-3c11,0,15.9,2.8,22.1,6.4c0.6,0.4,1.2,0.7,1.9,1.1
			c7.2,4.1,35.6,18.2,68.7,33.9c16.5,7.8,34,16.2,48.1,22.9c15.2,7.3,27.2,13,31.8,15.1c2.6,1.2,6.3,3.1,7.5,6.8
			c1.3,3.8-0.6,7.1-2.3,10.4c-0.4,0.7-0.8,1.5-1.2,2.3c-2.5,5-24.6,48.3-49.1,93.1c-22.8,41.8-56.4,108.9-62.9,121.9
			c-0.1,0.2-0.2,0.4-0.2,0.5c0.9,0.8,3.9,2,6.1,2.9c1.6,0.6,3.3,1.3,5.2,2.1c4.9,2.2,9,4.1,13.3,6.1c3.8,1.8,7.7,3.6,12.7,5.9
			c6.8,3.1,11,5.2,11.5,9.1c0.4,3.5-2.5,5.9-4.7,7.6c-4.5,3.6-13.5,9.5-29.4,19.3c-12.9,7.9-36.9,24-40.7,26.8l-1,0.7
			c-0.3,0.2-0.7,0.5-1,0.8l17.5,17.5c6.3,6.3,15.3,16,24.8,26.2c10.1,10.8,20.5,22.1,28.2,29.8c8.7,8.7,28.4,30.4,45.7,49.4
			c12.3,13.6,23,25.3,26.3,28.6c7.2,7.2,9.3,12.4,11.5,17.9c0.4,1.1,0.9,2.2,1.4,3.4c1.3,3.1,1.2,5.7-0.5,7.4
			c-2.8,3-7.1,1.6-12.5-0.2c-1.9-0.6-3.8-1.3-5.7-1.7l-40-10c-5.2-1.3-10.5-1.2-21-1c-4.3,0.1-9.6,0.2-16,0.2h-73
			c-9.2,0-11.3,0.7-18.6,6.2c-8.5,6.4-14.3,7.9-24.8,6.8c-7.8-0.9-23.2-3.2-35.5-5.1l-5.7-0.9c-7-1.1-19.9-2.7-31.3-4.2
			c-9.6-1.2-17.9-2.3-20.7-2.8c-1.6-0.3-5.3-0.9-6.7-4c-1.4-3,0.3-5.7,2.1-8.6c0.3-0.4,0.6-0.9,0.9-1.4c1.1-1.9,2.7-4.8,4.4-8
			c2.9-5.3,6.1-11.3,8.7-15.1c2.4-3.6,1.9-12.1,1.5-17.7c-0.1-2-0.2-3.7-0.2-5.1c0-1.5,0-3.1-0.1-4c-0.2,0-0.5,0-0.9,0h-82
			c-1,0-2.1,0-2.8,0.1c-0.1,0.6-0.2,1.8-0.2,3.9v36c0,7-7.2,10.6-15.6,14.7c-2.4,1.2-4.9,2.4-7.5,3.8c-3.8,2.1-10.9,5.8-19.1,10.1
			c-13.6,7.1-34.1,17.8-36.5,19.6c-2.6,2-8.9,13.4-12.7,22.4C483.3,987.7,479.1,988.8,474.7,988.8z M392.9,956.3
			c0.9,1.4,2.1,3.5,3.5,6c1.9,3.4,4.2,7.5,6.5,10.9c3.1,4.7,3.7,5.2,10.7,5.2c4.1,0,15.3,0.5,27.2,1c11.3,0.5,22.9,1,26.8,1
			c1.7,0,3.2,0.1,4.5,0.2c5.1,0.3,5.5,0.3,6.8-2.7c0.1-0.2,9-20.9,15.3-25.6c2.7-2,17.3-9.7,37.5-20.3c8.2-4.3,15.2-8,18.9-10
			c2.7-1.5,5.4-2.8,7.8-4c5.2-2.6,11.1-5.4,11.1-7.5v-36c0-10.3,2.7-12,11-12h82c9,0,9,6.4,9,12c0,1.2,0.1,2.8,0.2,4.6
			c0.4,7.1,1,16.8-2.9,22.6c-2.4,3.5-5.5,9.4-8.3,14.5c-1.8,3.4-3.4,6.3-4.6,8.3c-0.3,0.5-0.6,1-0.9,1.5c-0.1,0.2-0.2,0.4-0.4,0.6
			c3.1,0.5,11.3,1.5,20,2.7c11.4,1.5,24.4,3.2,31.5,4.2l5.7,0.9c12.2,1.9,27.5,4.3,35.2,5.1c7.8,0.9,11.9,0.2,19.2-5.2
			c8.7-6.5,12.6-7.8,23.4-7.8h73c6.4,0,11.6-0.1,15.9-0.2c10.9-0.2,16.9-0.3,23.1,1.3l40,10c2.1,0.5,4.3,1.3,6.3,1.9
			c0.6,0.2,1.2,0.4,1.9,0.6c-0.1-0.2-0.2-0.4-0.2-0.6c-2-5.1-3.7-9.2-9.7-15.2c-3.4-3.4-14.1-15.2-26.5-28.8
			c-16.4-18.1-36.9-40.6-45.5-49.2c-7.8-7.8-18.3-19.1-28.4-30c-9.5-10.2-18.4-19.8-24.6-26l-18-18c-1.2-1.2-2.8-3.1-2.6-5.7
			c0.2-3,2.5-4.7,5.1-6.6l0.9-0.7c4-3,27.9-19,41.3-27.2c10.5-6.5,23.2-14.4,28.6-18.7c0.2-0.2,0.4-0.3,0.5-0.4
			c-1.2-0.7-3.1-1.6-5.7-2.8c-5.1-2.3-9-4.1-12.8-5.9c-4.3-2-8.3-3.9-13.2-6.1c-1.7-0.8-3.3-1.4-4.9-2c-5.2-2-9.2-3.7-10.7-7.5
			c-0.8-2.1-0.6-4.4,0.7-6.9c6.5-13,40.2-80.2,63.1-122.1c24.4-44.7,46.4-87.9,48.9-92.9c0.4-0.9,0.9-1.7,1.3-2.5
			c0.7-1.3,1.9-3.4,1.8-4l0,0c0,0-0.4-0.8-3.2-2c-4.7-2.1-16.7-7.9-32-15.2c-14.1-6.7-31.6-15.1-48.1-22.9
			c-33.3-15.7-61.9-29.9-69.3-34.1c-0.7-0.4-1.3-0.8-2-1.1c-5.7-3.3-9.2-5.3-18.1-5.3c-10.8,0-52.3,2-65.7,3c-12.8,1-60.8,3-67.3,3
			c-7.7,0-9.3-1.1-11.8-8.7c-2.2-6.6-22.1-70.3-25.1-84.4c-2.5-11.7-14.4-56.8-20.9-81.1c-1.2-4.7-2.3-8.8-3.1-11.8
			c-5-19.1-18.1-70.4-21-82c-1.9-7.6-3.8-14.3-5.2-19.3c-0.8-2.9-1.5-5.2-1.8-6.7c-0.2-0.8-0.4-1.4-0.5-1.7
			c-0.4-0.1-1.8-0.3-5.7,0.6c-9,2-56.9,11-81.2,15c-14.6,2.4-33.2,6-49.5,9.1c-10.6,2-19.8,3.8-26.4,4.9c-8.5,1.5-14.7,2.7-20.3,3.9
			c-5.7,1.1-10.7,2.1-16.8,3.1l0,0c-54.9,9.1-109.6,18.3-137.9,24c-31,6.2-51.3,10.1-57.1,11c-3.8,0.6-4.4,0.7-3.7,7.6
			c0.6,5.7,2.9,19.6,4.7,30.8c1,6.2,1.9,11.5,2.2,14c0.9,6.1,1.7,11.9,6.4,19.4c1.7,2.8,7.9,13.1,15.7,26.2
			c15.2,25.6,36.1,60.6,43.3,71.7c7.4,11.4,15.9,25.6,23.4,38.1c3.6,6,7,11.6,9.6,16c3.1,5,5.7,9.2,7.9,12.8
			c3.6,5.9,6.3,10.1,8.1,13.2l0.6,1c2.1,3.4,4.3,7,3.1,10.9c-0.7,2.4-2.5,4.3-5.4,5.8c-2.7,1.4-13.9,8-25.7,15
			c-13.9,8.3-29.7,17.6-39.2,22.9c-13.7,7.6-25.5,14.6-35.9,20.7c-3.2,1.9-6.2,3.6-9,5.3c-2.4,1.4-4.6,2.6-6.6,3.6
			c-8.5,4.5-8.4,4.8-6.8,8.3c3.9,8.8,14.9,29.8,21.8,41.6c7,12.1,21.2,38.4,28.1,51.1c2.8,5.3,5.3,10,7.5,14.2
			c3.2,6,5.7,10.8,7.4,13.7c0.2,0.4,0.5,0.8,0.7,1.1c0.6,1,1.4,2.4,1.8,2.8c0.3,0,1.2-0.2,3.1-1.3c3.5-2,12.7-7.1,21.5-12
			s18-10,21.5-12c7.4-4.2,21.1-12.1,25.2-14.1c2.5-1.3,9.2-4.6,13.4,3.8c2,3.9,16.8,29.7,21.8,37.7c0.5,0.8,0.9,1.5,1.3,2.2
			c2,3.2,4.2,6.7,5.1,7.1c0,0,0.1,0,0.2,0c1-0.2,2.9-1.1,4.9-2c5.3-2.3,11.3-5,15.9-4.1c2.6,0.5,7.1,1.1,11.4,1.6
			c3.7,0.5,7.6,0.9,10.4,1.4c8.4,1.4,10.1,5.5,14.1,15.5c1,2.6,2.3,5.5,3.4,8.3c3.6,8.6,7,16.6,7.8,21.5c1.9,11.2,8.1,48.5,10,56.8
			c1.9,8.4,4.6,12.9,7.3,16.5l15,20c0.2,0.3,0.5,0.6,0.7,0.9c3.6,4.6,4.9,7.9,2,20.4c-2.2,9.7-3.4,17.3-4.2,22.8
			c-0.3,1.8-0.5,3.5-0.8,4.9c-0.8,4.9-0.2,9,2.8,18.1c3.3,10,5.5,16.6,2.8,22.1c-2.1,4.2-27.8,69.8-29.7,77.2
			c-0.6,2.4-1.3,4.6-1.9,6.5C393.7,951.6,392.6,955.3,392.9,956.3z M209.5,629.4L209.5,629.4L209.5,629.4z M343.5,122.5L343.5,122.5
			L343.5,122.5z"/>
	</g>
	<g>
		<path class="st1" d="M268,427c-1.3,0-2.6-0.6-3.3-1.8c-1.2-1.8-0.7-4.3,1.1-5.5c3.6-2.4,20.7-13,42.3-26.4
			c32.5-20.1,73.1-45.2,85.7-53.6c3.2-2.1,6.1-4.1,8.8-5.9c15.1-10.2,24.3-16.4,39.9-22.5c6.5-2.5,17-7.2,28.1-12.1
			c25.1-11.1,42-18.5,47.9-19.1c8.9-1,76.9-8.4,77.6-8.5c2.2-0.2,4.2,1.3,4.4,3.5s-1.3,4.2-3.5,4.4c-0.7,0.1-68.7,7.5-77.6,8.5
			c-5.1,0.6-28.5,10.9-45.5,18.5c-11.2,5-21.8,9.7-28.5,12.3c-14.8,5.8-23.2,11.4-38.3,21.6c-2.7,1.8-5.7,3.8-8.9,6
			c-12.7,8.5-53.3,33.6-85.9,53.8c-20.7,12.8-38.6,23.9-42.1,26.2C269.5,426.8,268.8,427,268,427z"/>
	</g>
	<g>
		<path class="st1" d="M574.1,872.5c-2.1,0-3.9-1.7-4-3.9c0-0.3-1.1-31.8-1.1-52.6c0-11.4-0.9-27.6-1.7-41.9
			c-0.7-12.2-1.3-22.7-1.3-29.1c0-14.1,7.6-41.2,14.2-63.1c5.9-19.6,20.8-48.1,28.6-59.1c2.3-3.3,4.9-6.7,7.5-10
			c5-6.5,10.2-13.3,12.1-18.1c1.7-4.6,3.7-15.3,3.7-40.6c0-9.7-0.3-41.1-0.6-68.7c-0.2-23.8-0.4-46.3-0.4-52.3
			c0-12.5-7.1-51.3-7.1-51.7c-0.4-2.2,1-4.3,3.2-4.7c2.2-0.4,4.3,1,4.7,3.2c0.3,1.6,7.3,39.9,7.3,53.1c0,6,0.2,28.4,0.4,52.2
			c0.3,27.7,0.6,59.1,0.6,68.8c0,21.6-1.4,35.8-4.3,43.4c-2.2,6-7.6,12.9-13.2,20.2c-2.5,3.2-5.1,6.5-7.3,9.7
			c-6.3,9.1-21.4,36.6-27.4,56.9c-6.4,21.5-13.8,47.8-13.8,60.9c0,6.2,0.6,17.1,1.3,28.6c0.8,14.4,1.7,30.7,1.7,42.4
			c0,20.7,1.1,52,1.1,52.4c0.1,2.2-1.7,4.1-3.9,4.1C574.2,872.5,574.1,872.5,574.1,872.5z"/>
	</g>
	<g>
		<path class="st1" d="M286.2,596.2c-1.3,0-2.6-0.6-3.3-1.8c-1.2-1.8-0.7-4.3,1.1-5.6c0.5-0.4,53.8-36.2,60.7-41.1
			c8.6-6.1,16.1-4.7,27.4-1.6c4.4,1.2,8.1,2.1,12.7,3.2c6.9,1.7,16.4,4,34.2,8.8c27.2,7.3,37.3,7,67.3,6.1c2.4-0.1,4.9-0.1,7.6-0.2
			c35.5-1,140.7-6.7,141.8-6.8c2.2-0.1,4.1,1.6,4.2,3.8c0.1,2.2-1.6,4.1-3.8,4.2c-1.1,0.1-106.4,5.8-142,6.8
			c-2.7,0.1-5.2,0.1-7.5,0.2c-30,0.9-41.2,1.2-69.6-6.4c-17.8-4.7-27.2-7-34.1-8.7c-4.7-1.1-8.4-2.1-12.9-3.3
			c-11.3-3.1-15.3-3.4-20.6,0.4c-7,5-58.7,39.8-60.9,41.3C287.7,596,287,596.2,286.2,596.2z"/>
	</g>
	<g>
		<path class="st1" d="M798.4,770c-1.1,0-2.3-0.5-3.1-1.4c-0.2-0.2-17.5-21.1-38.1-41.7c-15.5-15.5-45-34.8-62.6-46.3
			c-6.2-4-11.1-7.2-13.9-9.3c-10.1-7.4-27-12.2-40.6-16.1l-1.2-0.3c-10.4-3-21.7-9.8-33.6-20.3c-1.7-1.5-1.8-4-0.4-5.6
			c1.5-1.7,4-1.8,5.6-0.4c13.7,12.1,24.2,16.8,30.6,18.7l1.2,0.3c14.2,4,31.8,9.1,43.1,17.3c2.7,1.9,7.5,5.1,13.6,9.1
			c19.1,12.5,47.9,31.3,63.9,47.3c20.9,20.9,38.5,42.1,38.7,42.3c1.4,1.7,1.2,4.2-0.5,5.6C800.2,769.7,799.3,770,798.4,770z"/>
	</g>
</g>
<g id="_texto" class="text">
	<g>
		<path class="st1" d="M655.9,801.5c-1.4-0.7-2.5-1.8-3.3-3.1s-1.2-2.8-1.2-4.5s0.4-3.2,1.2-4.5s1.9-2.4,3.3-3.1s2.9-1.1,4.7-1.1
			c1.5,0,2.8,0.3,3.9,0.8c1.2,0.5,2.2,1.2,3,2.2l-2.5,2.3c-1.1-1.3-2.5-2-4.2-2c-1,0-2,0.2-2.8,0.7s-1.5,1.1-1.9,1.9
			c-0.5,0.8-0.7,1.7-0.7,2.8s0.2,2,0.7,2.8s1.1,1.5,1.9,1.9c0.8,0.5,1.7,0.7,2.8,0.7c1.7,0,3.1-0.7,4.2-2l2.5,2.3
			c-0.8,1-1.8,1.7-3,2.2s-2.5,0.8-4,0.8C658.8,802.6,657.3,802.2,655.9,801.5z"/>
		<path class="st1" d="M679.6,790.6c1.1,1,1.6,2.4,1.6,4.3v7.4h-3.5v-1.6c-0.7,1.2-2,1.8-3.9,1.8c-1,0-1.9-0.2-2.6-0.5
			s-1.3-0.8-1.7-1.4c-0.4-0.6-0.6-1.3-0.6-2c0-1.2,0.5-2.1,1.4-2.8s2.3-1,4.2-1h3c0-0.8-0.2-1.4-0.7-1.9c-0.5-0.4-1.2-0.7-2.2-0.7
			c-0.7,0-1.4,0.1-2,0.3c-0.7,0.2-1.2,0.5-1.7,0.9l-1.3-2.6c0.7-0.5,1.5-0.9,2.5-1.2s2-0.4,3-0.4C677,789.2,678.5,789.7,679.6,790.6
			z M676.4,799.5c0.5-0.3,0.8-0.7,1.1-1.3v-1.3h-2.6c-1.5,0-2.3,0.5-2.3,1.5c0,0.5,0.2,0.9,0.6,1.1c0.4,0.3,0.9,0.4,1.5,0.4
			C675.3,800,675.9,799.8,676.4,799.5z"/>
		<path class="st1" d="M689.9,789.7c0.8-0.3,1.6-0.5,2.6-0.5v3.5c-0.4,0-0.7,0-0.8,0c-1.1,0-1.9,0.3-2.5,0.9
			c-0.6,0.6-0.9,1.5-0.9,2.7v6.1h-3.7v-12.9h3.6v1.7C688.6,790.5,689.2,790,689.9,789.7z"/>
		<path class="st1" d="M697.2,801.6c-1.1-0.6-1.9-1.4-2.5-2.4s-0.9-2.2-0.9-3.4c0-1.3,0.3-2.4,0.9-3.4s1.5-1.8,2.5-2.4
			c1.1-0.6,2.3-0.9,3.7-0.9s2.6,0.3,3.6,0.9c1.1,0.6,1.9,1.4,2.5,2.4s0.9,2.2,0.9,3.4c0,1.3-0.3,2.4-0.9,3.4c-0.6,1-1.4,1.8-2.5,2.4
			c-1.1,0.6-2.3,0.9-3.6,0.9C699.5,802.5,698.2,802.2,697.2,801.6z M703.2,798.5c0.6-0.6,0.9-1.5,0.9-2.6s-0.3-2-0.9-2.6
			c-0.6-0.6-1.4-1-2.4-1s-1.8,0.3-2.4,1c-0.6,0.6-0.9,1.5-0.9,2.6s0.3,2,0.9,2.6c0.6,0.6,1.4,1,2.4,1S702.6,799.1,703.2,798.5z"/>
		<path class="st1" d="M710.4,784.5h3.7v17.8h-3.7V784.5z"/>
		<path class="st1" d="M717.8,787c-0.4-0.4-0.6-0.9-0.6-1.5s0.2-1.1,0.6-1.5c0.4-0.4,1-0.6,1.7-0.6s1.2,0.2,1.7,0.6
			c0.4,0.4,0.6,0.9,0.6,1.4c0,0.6-0.2,1.1-0.6,1.5c-0.4,0.4-1,0.6-1.7,0.6C718.8,787.6,718.2,787.4,717.8,787z M717.6,789.4h3.7
			v12.9h-3.7V789.4z"/>
		<path class="st1" d="M736.6,790.6c1,1,1.5,2.4,1.5,4.3v7.4h-3.7v-6.8c0-1-0.2-1.8-0.7-2.3s-1.1-0.8-1.9-0.8
			c-0.9,0-1.7,0.3-2.3,0.9c-0.6,0.6-0.8,1.5-0.8,2.6v6.4H725v-12.9h3.6v1.5c0.5-0.5,1.1-1,1.8-1.3s1.5-0.4,2.4-0.4
			C734.3,789.2,735.6,789.7,736.6,790.6z"/>
		<path class="st1" d="M751.2,790.6c1.1,1,1.6,2.4,1.6,4.3v7.4h-3.5v-1.6c-0.7,1.2-2,1.8-3.9,1.8c-1,0-1.9-0.2-2.6-0.5
			s-1.3-0.8-1.7-1.4c-0.4-0.6-0.6-1.3-0.6-2c0-1.2,0.5-2.1,1.4-2.8s2.3-1,4.2-1h3c0-0.8-0.2-1.4-0.7-1.9c-0.5-0.4-1.2-0.7-2.2-0.7
			c-0.7,0-1.4,0.1-2,0.3c-0.7,0.2-1.2,0.5-1.7,0.9l-1.3-2.6c0.7-0.5,1.5-0.9,2.5-1.2s2-0.4,3-0.4
			C748.6,789.2,750.2,789.7,751.2,790.6z M748.1,799.5c0.5-0.3,0.8-0.7,1.1-1.3v-1.3h-2.6c-1.5,0-2.3,0.5-2.3,1.5
			c0,0.5,0.2,0.9,0.6,1.1c0.4,0.3,0.9,0.4,1.5,0.4C747,800,747.6,799.8,748.1,799.5z"/>
		<path class="st1" d="M757.4,802.1c-1-0.3-1.8-0.6-2.4-1l1.2-2.7c0.6,0.4,1.3,0.7,2.1,0.9s1.6,0.3,2.4,0.3c1.6,0,2.4-0.4,2.4-1.2
			c0-0.4-0.2-0.6-0.6-0.8c-0.4-0.2-1.1-0.3-2-0.4c-1.1-0.2-1.9-0.3-2.6-0.6c-0.7-0.2-1.3-0.6-1.8-1.1s-0.8-1.3-0.8-2.3
			c0-0.8,0.2-1.5,0.7-2.2s1.2-1.1,2.1-1.5c0.9-0.4,2-0.5,3.2-0.5c0.9,0,1.8,0.1,2.7,0.3s1.7,0.5,2.2,0.8L765,793
			c-1.1-0.6-2.4-1-3.7-1c-0.8,0-1.4,0.1-1.8,0.3c-0.4,0.2-0.6,0.5-0.6,0.9s0.2,0.7,0.6,0.8c0.4,0.2,1.1,0.3,2.1,0.5
			c1.1,0.2,1.9,0.4,2.6,0.6s1.3,0.6,1.8,1.1s0.7,1.3,0.7,2.2c0,0.8-0.2,1.5-0.7,2.1s-1.2,1.1-2.1,1.5c-0.9,0.3-2,0.5-3.3,0.5
			C759.5,802.5,758.5,802.4,757.4,802.1z"/>
		<path class="st1" d="M691.4,823.9c0.5,0.7,0.8,1.6,0.8,2.6c0,1.5-0.6,2.6-1.7,3.4c-1.1,0.8-2.8,1.2-5,1.2h-8.7v-16.8h8.2
			c2,0,3.6,0.4,4.7,1.2c1.1,0.8,1.6,1.8,1.6,3.2c0,0.8-0.2,1.5-0.6,2.2c-0.4,0.6-0.9,1.1-1.6,1.5
			C690.1,822.7,690.9,823.2,691.4,823.9z M680.7,817.2v4h3.9c1,0,1.7-0.2,2.2-0.5s0.7-0.8,0.7-1.5s-0.2-1.1-0.7-1.5
			c-0.5-0.3-1.2-0.5-2.2-0.5H680.7z M687.5,827.7c0.5-0.3,0.8-0.9,0.8-1.6c0-1.4-1-2.1-3.1-2.1h-4.5v4.2h4.5
			C686.3,828.2,687,828,687.5,827.7z"/>
		<path class="st1" d="M704.7,819.4c1.1,1,1.6,2.4,1.6,4.3v7.4h-3.5v-1.6c-0.7,1.2-2,1.8-3.9,1.8c-1,0-1.9-0.2-2.6-0.5
			s-1.3-0.8-1.7-1.4c-0.4-0.6-0.6-1.3-0.6-2c0-1.2,0.5-2.1,1.4-2.8s2.3-1,4.2-1h3c0-0.8-0.2-1.4-0.7-1.9c-0.5-0.4-1.2-0.7-2.2-0.7
			c-0.7,0-1.4,0.1-2,0.3c-0.7,0.2-1.2,0.5-1.7,0.9l-1.3-2.6c0.7-0.5,1.5-0.9,2.5-1.2s2-0.4,3-0.4C702.1,818,703.7,818.5,704.7,819.4
			z M701.6,828.3c0.5-0.3,0.8-0.7,1.1-1.3v-1.3H700c-1.5,0-2.3,0.5-2.3,1.5c0,0.5,0.2,0.9,0.6,1.1c0.4,0.3,0.9,0.4,1.5,0.4
			C700.5,828.8,701.1,828.6,701.6,828.3z"/>
		<path class="st1" d="M705.8,835.2l1-2.7c0.4,0.3,1,0.5,1.6,0.5c0.5,0,0.9-0.2,1.1-0.5c0.3-0.3,0.4-0.8,0.4-1.4v-12.9h3.7v12.9
			c0,1.5-0.4,2.7-1.3,3.6c-0.9,0.9-2.1,1.3-3.6,1.3C707.5,836,706.5,835.7,705.8,835.2z M710.1,815.8c-0.4-0.4-0.6-0.9-0.6-1.5
			s0.2-1.1,0.6-1.5c0.4-0.4,1-0.6,1.7-0.6s1.2,0.2,1.7,0.6c0.4,0.4,0.6,0.9,0.6,1.4c0,0.6-0.2,1.1-0.6,1.5c-0.4,0.4-1,0.6-1.7,0.6
			C711.1,816.4,710.5,816.2,710.1,815.8z"/>
		<path class="st1" d="M726.9,819.4c1.1,1,1.6,2.4,1.6,4.3v7.4H725v-1.6c-0.7,1.2-2,1.8-3.9,1.8c-1,0-1.9-0.2-2.6-0.5
			s-1.3-0.8-1.7-1.4c-0.4-0.6-0.6-1.3-0.6-2c0-1.2,0.5-2.1,1.4-2.8s2.3-1,4.2-1h3c0-0.8-0.2-1.4-0.7-1.9c-0.5-0.4-1.2-0.7-2.2-0.7
			c-0.7,0-1.4,0.1-2,0.3c-0.7,0.2-1.2,0.5-1.7,0.9l-1.3-2.6c0.7-0.5,1.5-0.9,2.5-1.2s2-0.4,3-0.4C724.3,818,725.8,818.5,726.9,819.4
			z M723.7,828.3c0.5-0.3,0.8-0.7,1.1-1.3v-1.3h-2.6c-1.5,0-2.3,0.5-2.3,1.5c0,0.5,0.2,0.9,0.6,1.1c0.4,0.3,0.9,0.4,1.5,0.4
			C722.7,828.8,723.2,828.6,723.7,828.3z"/>
		<path class="st1" d="M733.1,830.9c-1-0.3-1.8-0.6-2.4-1l1.2-2.7c0.6,0.4,1.3,0.7,2.1,0.9s1.6,0.3,2.4,0.3c1.6,0,2.4-0.4,2.4-1.2
			c0-0.4-0.2-0.6-0.6-0.8c-0.4-0.2-1.1-0.3-2-0.4c-1.1-0.2-1.9-0.3-2.6-0.6c-0.7-0.2-1.3-0.6-1.8-1.1S731,823,731,822
			c0-0.8,0.2-1.5,0.7-2.2s1.2-1.1,2.1-1.5c0.9-0.4,2-0.5,3.2-0.5c0.9,0,1.8,0.1,2.7,0.3s1.7,0.5,2.2,0.8l-1.2,2.7
			c-1.1-0.6-2.4-1-3.7-1c-0.8,0-1.4,0.1-1.8,0.3c-0.4,0.2-0.6,0.5-0.6,0.9s0.2,0.7,0.6,0.8c0.4,0.2,1.1,0.3,2.1,0.5
			c1.1,0.2,1.9,0.4,2.6,0.6s1.3,0.6,1.8,1.1s0.7,1.3,0.7,2.2c0,0.8-0.2,1.5-0.7,2.1s-1.2,1.1-2.1,1.5c-0.9,0.3-2,0.5-3.3,0.5
			C735.2,831.3,734.1,831.2,733.1,830.9z"/>
	</g>
	<g>
		<path class="st1" d="M417.9,441.3h-7.8l-1.5,3.6h-4l7.5-16.8h3.8l7.5,16.8h-4.1L417.9,441.3z M416.7,438.3l-2.7-6.4l-2.7,6.4
			H416.7z"/>
		<path class="st1" d="M425,427.1h3.7v17.8H425V427.1z"/>
		<path class="st1" d="M441.4,444.3c-0.4,0.3-0.8,0.5-1.4,0.6s-1.1,0.2-1.7,0.2c-1.5,0-2.7-0.4-3.6-1.2c-0.8-0.8-1.3-1.9-1.3-3.5
			v-5.3h-2v-2.9h2v-3.1h3.7v3.1h3.2v2.9h-3.2v5.3c0,0.5,0.1,1,0.4,1.3s0.7,0.4,1.2,0.4c0.6,0,1.1-0.2,1.5-0.5L441.4,444.3z"/>
		<path class="st1" d="M445.6,444.2c-1.1-0.6-1.9-1.4-2.5-2.4s-0.9-2.2-0.9-3.4c0-1.3,0.3-2.4,0.9-3.4s1.5-1.8,2.5-2.4
			s2.3-0.9,3.7-0.9c1.4,0,2.6,0.3,3.6,0.9c1.1,0.6,1.9,1.4,2.5,2.4s0.9,2.2,0.9,3.4c0,1.3-0.3,2.4-0.9,3.4s-1.4,1.8-2.5,2.4
			s-2.3,0.9-3.6,0.9C447.9,445.1,446.7,444.8,445.6,444.2z M451.7,441c0.6-0.6,0.9-1.5,0.9-2.6s-0.3-2-0.9-2.6s-1.4-1-2.4-1
			s-1.8,0.3-2.4,1s-0.9,1.5-0.9,2.6s0.3,2,0.9,2.6s1.4,1,2.4,1S451,441.7,451.7,441z"/>
		<path class="st1" d="M469.3,442v2.9h-11.5v-2.3l6.6-7.8H458V432h11.1v2.3l-6.6,7.8L469.3,442L469.3,442z"/>
		<path class="st1" d="M481.5,433.2c1.1,1,1.6,2.4,1.6,4.3v7.4h-3.5v-1.6c-0.7,1.2-2,1.8-3.9,1.8c-1,0-1.9-0.2-2.6-0.5
			s-1.3-0.8-1.7-1.4c-0.4-0.6-0.6-1.3-0.6-2c0-1.2,0.5-2.1,1.4-2.8c0.9-0.7,2.3-1,4.2-1h3c0-0.8-0.2-1.4-0.7-1.9s-1.2-0.7-2.2-0.7
			c-0.7,0-1.4,0.1-2,0.3c-0.7,0.2-1.2,0.5-1.7,0.9l-1.3-2.6c0.7-0.5,1.5-0.9,2.5-1.2c1-0.3,2-0.4,3-0.4
			C478.9,431.8,480.5,432.3,481.5,433.2z M478.4,442.1c0.5-0.3,0.8-0.7,1.1-1.3v-1.3h-2.6c-1.5,0-2.3,0.5-2.3,1.5
			c0,0.5,0.2,0.9,0.6,1.1c0.4,0.3,0.9,0.4,1.5,0.4C477.3,442.6,477.9,442.4,478.4,442.1z"/>
		<path class="st1" d="M498.3,433.2c1,1,1.5,2.4,1.5,4.3v7.4H496v-6.8c0-1-0.2-1.8-0.7-2.3s-1.1-0.8-1.9-0.8c-0.9,0-1.7,0.3-2.3,0.9
			c-0.6,0.6-0.8,1.5-0.8,2.6v6.4h-3.7V432h3.6v1.5c0.5-0.5,1.1-1,1.8-1.3c0.7-0.3,1.5-0.4,2.4-0.4
			C496,431.8,497.3,432.3,498.3,433.2z"/>
		<path class="st1" d="M505.8,444.2c-1.1-0.6-1.9-1.4-2.5-2.4s-0.9-2.2-0.9-3.4c0-1.3,0.3-2.4,0.9-3.4s1.5-1.8,2.5-2.4
			s2.3-0.9,3.7-0.9c1.4,0,2.6,0.3,3.6,0.9c1.1,0.6,1.9,1.4,2.5,2.4s0.9,2.2,0.9,3.4c0,1.3-0.3,2.4-0.9,3.4c-0.6,1-1.4,1.8-2.5,2.4
			c-1.1,0.6-2.3,0.9-3.6,0.9C508.1,445.1,506.8,444.8,505.8,444.2z M511.8,441c0.6-0.6,0.9-1.5,0.9-2.6s-0.3-2-0.9-2.6s-1.4-1-2.4-1
			s-1.8,0.3-2.4,1s-0.9,1.5-0.9,2.6s0.3,2,0.9,2.6s1.4,1,2.4,1S511.2,441.7,511.8,441z"/>
	</g>
	<g>
		<path class="st1" d="M415.7,661.4c-1.4-0.7-2.5-1.8-3.3-3.1s-1.2-2.8-1.2-4.5s0.4-3.2,1.2-4.5c0.8-1.3,1.9-2.4,3.3-3.1
			c1.4-0.7,2.9-1.1,4.7-1.1c1.5,0,2.8,0.3,3.9,0.8c1.2,0.5,2.2,1.2,3,2.2l-2.5,2.3c-1.1-1.3-2.5-2-4.2-2c-1,0-2,0.2-2.8,0.7
			s-1.5,1.1-1.9,1.9c-0.5,0.8-0.7,1.7-0.7,2.8s0.2,2,0.7,2.8s1.1,1.5,1.9,1.9c0.8,0.5,1.7,0.7,2.8,0.7c1.7,0,3.1-0.7,4.2-2l2.5,2.3
			c-0.8,1-1.8,1.7-3,2.2s-2.5,0.8-4,0.8C418.7,662.5,417.1,662.1,415.7,661.4z"/>
		<path class="st1" d="M439.4,650.6c1.1,1,1.6,2.4,1.6,4.3v7.4h-3.5v-1.6c-0.7,1.2-2,1.8-3.9,1.8c-1,0-1.9-0.2-2.6-0.5
			s-1.3-0.8-1.7-1.4s-0.6-1.3-0.6-2c0-1.2,0.5-2.1,1.4-2.8s2.3-1,4.2-1h3c0-0.8-0.2-1.4-0.7-1.9c-0.5-0.4-1.2-0.7-2.2-0.7
			c-0.7,0-1.4,0.1-2,0.3c-0.7,0.2-1.2,0.5-1.7,0.9l-1.3-2.6c0.7-0.5,1.5-0.9,2.5-1.2s2-0.4,3-0.4
			C436.8,649.1,438.3,649.6,439.4,650.6z M436.2,659.5c0.5-0.3,0.8-0.7,1.1-1.3v-1.3h-2.6c-1.5,0-2.3,0.5-2.3,1.5
			c0,0.5,0.2,0.9,0.6,1.1s0.9,0.4,1.5,0.4C435.1,659.9,435.7,659.8,436.2,659.5z"/>
		<path class="st1" d="M464.8,650.6c1,1,1.4,2.4,1.4,4.3v7.4h-3.7v-6.8c0-1-0.2-1.8-0.6-2.3s-1-0.8-1.8-0.8c-0.9,0-1.6,0.3-2.1,0.9
			c-0.5,0.6-0.8,1.4-0.8,2.5v6.5h-3.7v-6.8c0-2-0.8-3-2.4-3c-0.9,0-1.6,0.3-2.1,0.9c-0.5,0.6-0.8,1.4-0.8,2.5v6.5h-3.7v-12.9h3.6
			v1.5c0.5-0.5,1.1-1,1.8-1.2c0.7-0.3,1.5-0.4,2.3-0.4c0.9,0,1.7,0.2,2.5,0.5c0.7,0.4,1.3,0.9,1.8,1.6c0.5-0.7,1.2-1.2,2-1.6
			c0.8-0.4,1.7-0.6,2.7-0.6C462.5,649.1,463.8,649.6,464.8,650.6z"/>
		<path class="st1" d="M480.5,650c1,0.6,1.8,1.3,2.3,2.3c0.6,1,0.8,2.2,0.8,3.5s-0.3,2.5-0.8,3.5c-0.6,1-1.3,1.8-2.3,2.3
			c-1,0.6-2.1,0.8-3.3,0.8c-1.6,0-2.9-0.5-3.9-1.6v6h-3.7v-17.6h3.6v1.5c0.9-1.1,2.3-1.7,4.1-1.7C478.4,649.1,479.5,649.4,480.5,650
			z M478.9,658.4c0.6-0.6,0.9-1.5,0.9-2.6s-0.3-2-0.9-2.6s-1.4-1-2.4-1s-1.7,0.3-2.4,1c-0.6,0.6-0.9,1.5-0.9,2.6s0.3,2,0.9,2.6
			s1.4,1,2.4,1S478.3,659,478.9,658.4z"/>
		<path class="st1" d="M488.6,661.6c-1.1-0.6-1.9-1.4-2.5-2.4s-0.9-2.2-0.9-3.4s0.3-2.4,0.9-3.4s1.5-1.8,2.5-2.4
			c1.1-0.6,2.3-0.9,3.7-0.9c1.4,0,2.6,0.3,3.6,0.9c1.1,0.6,1.9,1.4,2.5,2.4s0.9,2.2,0.9,3.4s-0.3,2.4-0.9,3.4s-1.4,1.8-2.5,2.4
			c-1.1,0.6-2.3,0.9-3.6,0.9C490.9,662.4,489.7,662.1,488.6,661.6z M494.6,658.4c0.6-0.6,0.9-1.5,0.9-2.6s-0.3-2-0.9-2.6
			s-1.4-1-2.4-1s-1.8,0.3-2.4,1c-0.6,0.6-0.9,1.5-0.9,2.6s0.3,2,0.9,2.6s1.4,1,2.4,1S494,659,494.6,658.4z"/>
		<path class="st1" d="M511.4,650.6c1.1,1,1.6,2.4,1.6,4.3v7.4h-3.5v-1.6c-0.7,1.2-2,1.8-3.9,1.8c-1,0-1.9-0.2-2.6-0.5
			s-1.3-0.8-1.7-1.4s-0.6-1.3-0.6-2c0-1.2,0.5-2.1,1.4-2.8s2.3-1,4.2-1h3c0-0.8-0.2-1.4-0.7-1.9c-0.5-0.4-1.2-0.7-2.2-0.7
			c-0.7,0-1.4,0.1-2,0.3c-0.7,0.2-1.2,0.5-1.7,0.9l-1.3-2.6c0.7-0.5,1.5-0.9,2.5-1.2s2-0.4,3-0.4
			C508.8,649.1,510.4,649.6,511.4,650.6z M508.3,659.5c0.5-0.3,0.8-0.7,1.1-1.3v-1.3h-2.6c-1.5,0-2.3,0.5-2.3,1.5
			c0,0.5,0.2,0.9,0.6,1.1s0.9,0.4,1.5,0.4S507.8,659.8,508.3,659.5z"/>
		<path class="st1" d="M536.8,650.6c1,1,1.4,2.4,1.4,4.3v7.4h-3.7v-6.8c0-1-0.2-1.8-0.6-2.3s-1-0.8-1.8-0.8c-0.9,0-1.6,0.3-2.1,0.9
			c-0.5,0.6-0.8,1.4-0.8,2.5v6.5h-3.7v-6.8c0-2-0.8-3-2.4-3c-0.9,0-1.6,0.3-2.1,0.9c-0.5,0.6-0.8,1.4-0.8,2.5v6.5h-3.7v-12.9h3.6
			v1.5c0.5-0.5,1.1-1,1.8-1.2c0.7-0.3,1.5-0.4,2.3-0.4c0.9,0,1.7,0.2,2.5,0.5c0.7,0.4,1.3,0.9,1.8,1.6c0.5-0.7,1.2-1.2,2-1.6
			c0.8-0.4,1.7-0.6,2.7-0.6C534.6,649.1,535.9,649.6,536.8,650.6z"/>
		<path class="st1" d="M544.2,661.6c-1.1-0.6-1.9-1.4-2.5-2.4s-0.9-2.2-0.9-3.4s0.3-2.4,0.9-3.4c0.6-1,1.5-1.8,2.5-2.4
			c1.1-0.6,2.3-0.9,3.7-0.9s2.6,0.3,3.6,0.9c1.1,0.6,1.9,1.4,2.5,2.4s0.9,2.2,0.9,3.4s-0.3,2.4-0.9,3.4c-0.6,1-1.4,1.8-2.5,2.4
			c-1.1,0.6-2.3,0.9-3.6,0.9C546.5,662.4,545.3,662.1,544.2,661.6z M550.3,658.4c0.6-0.6,0.9-1.5,0.9-2.6s-0.3-2-0.9-2.6
			c-0.6-0.6-1.4-1-2.4-1s-1.8,0.3-2.4,1c-0.6,0.6-0.9,1.5-0.9,2.6s0.3,2,0.9,2.6c0.6,0.6,1.4,1,2.4,1S549.6,659,550.3,658.4z"/>
		<path class="st1" d="M562.9,649.6c0.8-0.3,1.6-0.5,2.6-0.5v3.5c-0.4,0-0.7,0-0.8,0c-1.1,0-1.9,0.3-2.5,0.9
			c-0.6,0.6-0.9,1.5-0.9,2.7v6.1h-3.7v-12.9h3.6v1.7C561.5,650.4,562.1,649.9,562.9,649.6z"/>
	</g>
	<g>
		<path class="st1" d="M704.1,531.1c-1.4-0.7-2.5-1.8-3.3-3.1s-1.2-2.8-1.2-4.5s0.4-3.2,1.2-4.5s1.9-2.4,3.3-3.1
			c1.4-0.7,2.9-1.1,4.7-1.1c1.5,0,2.8,0.3,3.9,0.8s2.2,1.2,3,2.2l-2.5,2.3c-1.1-1.3-2.5-2-4.2-2c-1,0-2,0.2-2.8,0.7
			s-1.5,1.1-1.9,1.9s-0.7,1.7-0.7,2.8s0.2,2,0.7,2.8s1.1,1.5,1.9,1.9c0.8,0.5,1.7,0.7,2.8,0.7c1.7,0,3.1-0.7,4.2-2l2.5,2.3
			c-0.8,1-1.8,1.7-3,2.2s-2.5,0.8-4,0.8C707,532.2,705.5,531.8,704.1,531.1z"/>
		<path class="st1" d="M727.7,520.2c1.1,1,1.6,2.4,1.6,4.3v7.4h-3.5v-1.6c-0.7,1.2-2,1.8-3.9,1.8c-1,0-1.9-0.2-2.6-0.5
			s-1.3-0.8-1.7-1.4c-0.4-0.6-0.6-1.3-0.6-2c0-1.2,0.5-2.1,1.4-2.8s2.3-1,4.2-1h3c0-0.8-0.2-1.4-0.7-1.9s-1.2-0.7-2.2-0.7
			c-0.7,0-1.4,0.1-2,0.3c-0.7,0.2-1.2,0.5-1.7,0.9l-1.3-2.6c0.7-0.5,1.5-0.9,2.5-1.2s2-0.4,3-0.4
			C725.1,518.8,726.7,519.3,727.7,520.2z M724.5,529.1c0.5-0.3,0.8-0.7,1.1-1.3v-1.3H723c-1.5,0-2.3,0.5-2.3,1.5
			c0,0.5,0.2,0.9,0.6,1.1c0.4,0.3,0.9,0.4,1.5,0.4C723.5,529.6,724,529.4,724.5,529.1z"/>
		<path class="st1" d="M738.1,519.3c0.8-0.3,1.6-0.5,2.6-0.5v3.5c-0.4,0-0.7,0-0.8,0c-1.1,0-1.9,0.3-2.5,0.9s-0.9,1.5-0.9,2.7v6.1
			h-3.7v-13h3.6v1.7C736.7,520.1,737.4,519.6,738.1,519.3z"/>
		<path class="st1" d="M745.3,531.3c-1.1-0.6-1.9-1.4-2.5-2.4s-0.9-2.2-0.9-3.4c0-1.3,0.3-2.4,0.9-3.4c0.6-1,1.5-1.8,2.5-2.4
			s2.3-0.9,3.7-0.9s2.6,0.3,3.6,0.9c1.1,0.6,1.9,1.4,2.5,2.4s0.9,2.2,0.9,3.4c0,1.3-0.3,2.4-0.9,3.4c-0.6,1-1.4,1.8-2.5,2.4
			c-1.1,0.6-2.3,0.9-3.6,0.9C747.6,532.1,746.4,531.8,745.3,531.3z M751.4,528.1c0.6-0.6,0.9-1.5,0.9-2.6s-0.3-2-0.9-2.6
			c-0.6-0.6-1.4-1-2.4-1s-1.8,0.3-2.4,1s-0.9,1.5-0.9,2.6s0.3,2,0.9,2.6s1.4,1,2.4,1S750.7,528.7,751.4,528.1z"/>
		<path class="st1" d="M758.6,514.1h3.7v17.8h-3.7V514.1z"/>
		<path class="st1" d="M766,516.6c-0.4-0.4-0.6-0.9-0.6-1.5s0.2-1.1,0.6-1.5c0.4-0.4,1-0.6,1.7-0.6s1.2,0.2,1.7,0.6
			c0.4,0.4,0.6,0.9,0.6,1.4c0,0.6-0.2,1.1-0.6,1.5c-0.4,0.4-1,0.6-1.7,0.6C767,517.2,766.4,517,766,516.6z M765.8,519h3.7v12.9h-3.7
			V519z"/>
		<path class="st1" d="M784.7,520.2c1,1,1.5,2.4,1.5,4.3v7.4h-3.7v-6.8c0-1-0.2-1.8-0.7-2.3s-1.1-0.8-1.9-0.8
			c-0.9,0-1.7,0.3-2.3,0.9c-0.6,0.6-0.8,1.5-0.8,2.6v6.4H773V519h3.6v1.5c0.5-0.5,1.1-1,1.8-1.3s1.5-0.4,2.4-0.4
			C782.5,518.8,783.8,519.3,784.7,520.2z"/>
		<path class="st1" d="M799.4,520.2c1.1,1,1.6,2.4,1.6,4.3v7.4h-3.5v-1.6c-0.7,1.2-2,1.8-3.9,1.8c-1,0-1.9-0.2-2.6-0.5
			s-1.3-0.8-1.7-1.4c-0.4-0.6-0.6-1.3-0.6-2c0-1.2,0.5-2.1,1.4-2.8s2.3-1,4.2-1h3c0-0.8-0.2-1.4-0.7-1.9s-1.2-0.7-2.2-0.7
			c-0.7,0-1.4,0.1-2,0.3c-0.7,0.2-1.2,0.5-1.7,0.9l-1.3-2.6c0.7-0.5,1.5-0.9,2.5-1.2s2-0.4,3-0.4
			C796.8,518.8,798.3,519.3,799.4,520.2z M796.2,529.1c0.5-0.3,0.8-0.7,1.1-1.3v-1.3h-2.6c-1.5,0-2.3,0.5-2.3,1.5
			c0,0.5,0.2,0.9,0.6,1.1c0.4,0.3,0.9,0.4,1.5,0.4C795.2,529.6,795.7,529.4,796.2,529.1z"/>
		<path class="st1" d="M805.6,531.7c-1-0.3-1.8-0.6-2.4-1l1.2-2.7c0.6,0.4,1.3,0.7,2.1,0.9s1.6,0.3,2.4,0.3c1.6,0,2.4-0.4,2.4-1.2
			c0-0.4-0.2-0.6-0.6-0.8c-0.4-0.2-1.1-0.3-2-0.4c-1.1-0.2-1.9-0.3-2.6-0.6c-0.7-0.2-1.3-0.6-1.8-1.1s-0.8-1.3-0.8-2.3
			c0-0.8,0.2-1.5,0.7-2.2c0.5-0.6,1.2-1.1,2.1-1.5c0.9-0.4,2-0.5,3.2-0.5c0.9,0,1.8,0.1,2.7,0.3s1.7,0.5,2.2,0.8l-1.2,2.7
			c-1.1-0.6-2.4-1-3.7-1c-0.8,0-1.4,0.1-1.8,0.3c-0.4,0.2-0.6,0.5-0.6,0.9s0.2,0.7,0.6,0.8c0.4,0.2,1.1,0.3,2.1,0.5
			c1.1,0.2,1.9,0.4,2.6,0.6s1.3,0.6,1.8,1.1s0.7,1.3,0.7,2.2c0,0.8-0.2,1.5-0.7,2.1s-1.2,1.1-2.1,1.5c-0.9,0.3-2,0.5-3.3,0.5
			C807.7,532.1,806.6,532,805.6,531.7z"/>
		<path class="st1" d="M737.8,557.1H730l-1.5,3.6h-4l7.5-16.8h3.8l7.5,16.8h-4.1L737.8,557.1z M736.6,554.2l-2.7-6.4l-2.7,6.4H736.6
			z"/>
		<path class="st1" d="M744.9,542.9h3.7v17.8h-3.7V542.9z"/>
		<path class="st1" d="M761.4,560.1c-0.4,0.3-0.8,0.5-1.4,0.6s-1.1,0.2-1.7,0.2c-1.5,0-2.7-0.4-3.6-1.2c-0.8-0.8-1.3-1.9-1.3-3.5
			V551h-2v-2.9h2V545h3.7v3.1h3.2v2.9h-3.2v5.3c0,0.5,0.1,1,0.4,1.3c0.3,0.3,0.7,0.4,1.2,0.4c0.6,0,1.1-0.2,1.5-0.5L761.4,560.1z"/>
		<path class="st1" d="M773.3,549c1.1,1,1.6,2.4,1.6,4.3v7.4h-3.5v-1.6c-0.7,1.2-2,1.8-3.9,1.8c-1,0-1.9-0.2-2.6-0.5
			s-1.3-0.8-1.7-1.4c-0.4-0.6-0.6-1.3-0.6-2c0-1.2,0.5-2.1,1.4-2.8s2.3-1,4.2-1h3c0-0.8-0.2-1.4-0.7-1.9c-0.5-0.4-1.2-0.7-2.2-0.7
			c-0.7,0-1.4,0.1-2,0.3c-0.7,0.2-1.2,0.5-1.7,0.9l-1.3-2.6c0.7-0.5,1.5-0.9,2.5-1.2s2-0.4,3-0.4C770.7,547.6,772.2,548.1,773.3,549
			z M770.1,557.9c0.5-0.3,0.8-0.7,1.1-1.3v-1.3h-2.6c-1.5,0-2.3,0.5-2.3,1.5c0,0.5,0.2,0.9,0.6,1.1c0.4,0.3,0.9,0.4,1.5,0.4
			C769.1,558.4,769.6,558.2,770.1,557.9z"/>
		<path class="st1" d="M779.5,560.5c-1-0.3-1.8-0.6-2.4-1l1.2-2.7c0.6,0.4,1.3,0.7,2.1,0.9s1.6,0.3,2.4,0.3c1.6,0,2.4-0.4,2.4-1.2
			c0-0.4-0.2-0.6-0.6-0.8c-0.4-0.2-1.1-0.3-2-0.4c-1.1-0.2-1.9-0.3-2.6-0.6c-0.7-0.2-1.3-0.6-1.8-1.1s-0.8-1.3-0.8-2.3
			c0-0.8,0.2-1.5,0.7-2.2s1.2-1.1,2.1-1.5c0.9-0.4,2-0.5,3.2-0.5c0.9,0,1.8,0.1,2.7,0.3s1.7,0.5,2.2,0.8l-1.2,2.7
			c-1.1-0.6-2.4-1-3.7-1c-0.8,0-1.4,0.1-1.8,0.3c-0.4,0.2-0.6,0.5-0.6,0.9s0.2,0.7,0.6,0.8c0.4,0.2,1.1,0.3,2.1,0.5
			c1.1,0.2,1.9,0.4,2.6,0.6s1.3,0.6,1.8,1.1s0.7,1.3,0.7,2.2c0,0.8-0.2,1.5-0.7,2.1s-1.2,1.1-2.1,1.5c-0.9,0.3-2,0.5-3.3,0.5
			C781.6,560.9,780.5,560.8,779.5,560.5z"/>
	</g>
	<g>
		<path class="st1" d="M331.4,231.8c0.5,0.7,0.8,1.6,0.8,2.6c0,1.5-0.6,2.6-1.7,3.4c-1.1,0.8-2.8,1.2-5,1.2h-8.7v-16.8h8.2
			c2,0,3.6,0.4,4.7,1.2s1.6,1.8,1.6,3.2c0,0.8-0.2,1.5-0.6,2.2c-0.4,0.6-0.9,1.1-1.6,1.5C330.1,230.6,330.8,231.1,331.4,231.8z
			 M320.7,225.1v4h3.9c1,0,1.7-0.2,2.2-0.5s0.7-0.8,0.7-1.5s-0.2-1.1-0.7-1.5c-0.5-0.3-1.2-0.5-2.2-0.5H320.7z M327.5,235.6
			c0.5-0.3,0.8-0.9,0.8-1.6c0-1.4-1-2.1-3.1-2.1h-4.5v4.2h4.5C326.2,236.1,327,235.9,327.5,235.6z"/>
		<path class="st1" d="M347.5,233.6h-9.8c0.2,0.8,0.6,1.4,1.2,1.9c0.7,0.5,1.5,0.7,2.4,0.7c0.7,0,1.3-0.1,1.8-0.3s1-0.5,1.5-0.9
			l2,2.2c-1.2,1.4-3,2.1-5.3,2.1c-1.5,0-2.7-0.3-3.9-0.9c-1.1-0.6-2-1.4-2.6-2.4s-0.9-2.2-0.9-3.4c0-1.3,0.3-2.4,0.9-3.4
			s1.4-1.8,2.5-2.4s2.2-0.9,3.5-0.9s2.4,0.3,3.4,0.8s1.8,1.3,2.4,2.3s0.9,2.2,0.9,3.5C347.5,232.6,347.5,233,347.5,233.6z
			 M338.7,229.4c-0.6,0.5-0.9,1.1-1.1,2h6.4c-0.1-0.8-0.5-1.5-1.1-2s-1.3-0.7-2.1-0.7C340,228.7,339.3,229,338.7,229.4z"/>
		<path class="st1" d="M361.8,227.3c1,1,1.5,2.4,1.5,4.3v7.4h-3.7v-6.8c0-1-0.2-1.8-0.7-2.3s-1.1-0.8-1.9-0.8
			c-0.9,0-1.7,0.3-2.3,0.9c-0.6,0.6-0.8,1.5-0.8,2.6v6.4H350v-12.9h3.6v1.5c0.5-0.5,1.1-1,1.8-1.3c0.7-0.3,1.5-0.4,2.4-0.4
			C359.5,225.9,360.8,226.4,361.8,227.3z"/>
		<path class="st1" d="M366.8,223.7c-0.4-0.4-0.6-0.9-0.6-1.5s0.2-1.1,0.6-1.5s1-0.6,1.7-0.6s1.2,0.2,1.7,0.6
			c0.4,0.4,0.6,0.9,0.6,1.4c0,0.6-0.2,1.1-0.6,1.5s-1,0.6-1.7,0.6C367.8,224.3,367.2,224.1,366.8,223.7z M366.6,226.1h3.7V239h-3.7
			V226.1z"/>
		<path class="st1" d="M375,238.8c-1-0.3-1.8-0.6-2.4-1l1.2-2.7c0.6,0.4,1.3,0.7,2.1,0.9c0.8,0.2,1.6,0.3,2.4,0.3
			c1.6,0,2.4-0.4,2.4-1.2c0-0.4-0.2-0.6-0.6-0.8s-1.1-0.3-2-0.4c-1.1-0.2-1.9-0.3-2.6-0.6c-0.7-0.2-1.3-0.6-1.8-1.1
			s-0.8-1.3-0.8-2.3c0-0.8,0.2-1.5,0.7-2.2c0.5-0.6,1.2-1.1,2.1-1.5s2-0.5,3.2-0.5c0.9,0,1.8,0.1,2.7,0.3c0.9,0.2,1.7,0.5,2.2,0.8
			l-1.2,2.7c-1.1-0.6-2.4-1-3.7-1c-0.8,0-1.4,0.1-1.8,0.3s-0.6,0.5-0.6,0.9s0.2,0.7,0.6,0.8c0.4,0.2,1.1,0.3,2.1,0.5
			c1.1,0.2,1.9,0.4,2.6,0.6s1.3,0.6,1.8,1.1s0.7,1.3,0.7,2.2c0,0.8-0.2,1.5-0.7,2.1s-1.2,1.1-2.1,1.5c-0.9,0.3-2,0.5-3.3,0.5
			C377.1,239.2,376.1,239.1,375,238.8z"/>
		<path class="st1" d="M396.4,227.3c1.1,1,1.6,2.4,1.6,4.3v7.4h-3.5v-1.6c-0.7,1.2-2,1.8-3.9,1.8c-1,0-1.9-0.2-2.6-0.5
			s-1.3-0.8-1.7-1.4c-0.4-0.6-0.6-1.3-0.6-2c0-1.2,0.5-2.1,1.4-2.8s2.3-1,4.2-1h3c0-0.8-0.2-1.4-0.7-1.9s-1.2-0.7-2.2-0.7
			c-0.7,0-1.4,0.1-2,0.3c-0.7,0.2-1.2,0.5-1.7,0.9l-1.3-2.6c0.7-0.5,1.5-0.9,2.5-1.2s2-0.4,3-0.4
			C393.8,225.9,395.3,226.4,396.4,227.3z M393.2,236.2c0.5-0.3,0.8-0.7,1.1-1.3v-1.3h-2.6c-1.5,0-2.3,0.5-2.3,1.5
			c0,0.5,0.2,0.9,0.6,1.1c0.4,0.3,0.9,0.4,1.5,0.4C392.2,236.7,392.7,236.5,393.2,236.2z"/>
		<path class="st1" d="M414.4,226.1V239h-3.6v-1.5c-0.5,0.6-1.1,1-1.8,1.3c-0.7,0.3-1.4,0.4-2.2,0.4c-1.7,0-3-0.5-4-1.5
			s-1.5-2.4-1.5-4.3v-7.3h3.7v6.7c0,2.1,0.9,3.1,2.6,3.1c0.9,0,1.6-0.3,2.2-0.9s0.8-1.5,0.8-2.6V226h3.8V226.1z"/>
		<path class="st1" d="M431,221.2V239h-3.6v-1.5c-0.9,1.1-2.3,1.7-4,1.7c-1.2,0-2.3-0.3-3.3-0.8s-1.8-1.3-2.3-2.3
			c-0.6-1-0.8-2.2-0.8-3.5s0.3-2.5,0.8-3.5c0.6-1,1.3-1.8,2.3-2.3s2.1-0.8,3.3-0.8c1.6,0,2.9,0.5,3.9,1.6v-6.3L431,221.2L431,221.2z
			 M426.4,235.1c0.6-0.6,0.9-1.5,0.9-2.6s-0.3-2-0.9-2.6s-1.4-1-2.4-1s-1.8,0.3-2.4,1s-0.9,1.5-0.9,2.6s0.3,2,0.9,2.6s1.4,1,2.4,1
			S425.8,235.8,426.4,235.1z"/>
		<path class="st1" d="M447.1,233.6h-9.8c0.2,0.8,0.6,1.4,1.2,1.9c0.7,0.5,1.5,0.7,2.4,0.7c0.7,0,1.3-0.1,1.8-0.3s1-0.5,1.5-0.9
			l2,2.2c-1.2,1.4-3,2.1-5.3,2.1c-1.5,0-2.7-0.3-3.9-0.9c-1.1-0.6-2-1.4-2.6-2.4s-0.9-2.2-0.9-3.4c0-1.3,0.3-2.4,0.9-3.4
			s1.4-1.8,2.5-2.4s2.2-0.9,3.5-0.9s2.4,0.3,3.4,0.8s1.8,1.3,2.4,2.3s0.9,2.2,0.9,3.5C447.1,232.6,447.1,233,447.1,233.6z
			 M438.3,229.4c-0.6,0.5-0.9,1.1-1.1,2h6.4c-0.1-0.8-0.5-1.5-1.1-2s-1.3-0.7-2.1-0.7C439.6,228.7,438.9,229,438.3,229.4z"/>
		<path class="st1" d="M458,238.4c-0.4,0.3-0.8,0.5-1.4,0.6s-1.1,0.2-1.7,0.2c-1.5,0-2.7-0.4-3.6-1.2c-0.8-0.8-1.3-1.9-1.3-3.5v-5.3
			h-2v-2.9h2v-3.1h3.7v3.1h3.2v2.9h-3.2v5.3c0,0.5,0.1,1,0.4,1.3s0.7,0.4,1.2,0.4c0.6,0,1.1-0.2,1.5-0.5L458,238.4z"/>
	</g>
</g>
</svg>
