<?xml version="1.0" encoding="utf-8"?>
<!-- Generator: Adobe Illustrator 24.0.2, SVG Export Plug-In . SVG Version: 6.00 Build 0)  -->
<svg version="1.1" id="Capa_1" xmlns="http://www.w3.org/2000/svg" xmlns:xlink="http://www.w3.org/1999/xlink" x="0px" y="0px"
	 viewBox="0 0 1080 1080" style="enable-background:new 0 0 1080 1080;" xml:space="preserve">
<style type="text/css">
	.st1{fill:#DF7753;stroke:#DF7753;stroke-width:2;stroke-miterlimit:10;}
	.st2{fill:none;stroke:#FFFFFF;stroke-width:8;stroke-miterlimit:10;}
	.st3{enable-background:new    ;}
	.st4{fill:#FFFFFF;}
</style>
<g class="zone" id="4_Centro_Tradicional" data-name="4_Centro_Tradicional">
	<path class="st0" d="M597.4,257.7l-205,99.5l138.7,250.1c19.2-28.4,43.7-65.4,46.6-69.7c1.4-3.2,7-14.4,27.1-23.1
		c9.9-4.3,41.5-21,67.3-34.6c-41.8-65.8-67.8-146.5-71.5-224.3L597.4,257.7z"/>
</g>
<g class="zone" id="4_Ensanche_-_Diputaci贸n" data-name="4_Ensanche_-_Diputaci贸n">
	<path class="st0" d="M423.8,961.3c0.3,0.3,5.8,1.6,6.1,1.9c2-0.3,9-5.3,15.2-12.7c7.4-8.9,72.1-74.2,75-77.1l3.6-3.2
		c1.7-1.4,1.9-5.8,2.3-8c0.2-2-0.7-4.1-2.7-6.3l-4-5.4c-17.1-19.4-32-35.5-27.8-52.6c1.2-4.8,3-8.5,13-12.3
		c30.5-11.6,152.8-59.6,154-60.1l0.7-0.3l0.8-0.1c0.8-0.1,1.6-0.5,2.1-1.1c0.2-0.4,0.4-8.3-2-12.1c-3.7-6.1-9.7-8.9-9.7-8.9
		c-1.7,0.4-4.6,3.3-6.1,4.1c-1.8,0.8-4.8,2.6-7.3,3.5c-10.7,4-51.1,21.3-56.8,23.8c-4,2.8-11.3,0.5-16.2,0
		c-6.9-0.7-7.4-2.7-13.2-10.3c-12.9-17.2-43.3-52.4-43.7-52.8l-3.8-3.8c-1.1-1.3-9.9-5.4,5.7-26.2c3.5-4.7,12-18,20.1-29.8
		L308.6,217.1c-14.5,7.9-29.5,16-29.8,16.2l-4.7,3.2c-0.3,0.1-7.6,5.1-10,19.1c-2.9,17.2-22.2,154.3-22.9,158.9
		c-0.1,0.8-1.2,13.4,4.1,41.6c5.8,30.5,82.3,424.5,83.1,428.5c0,0.1,4.5,17.2,35.7,45.7c26.6,24.3,32,28,33.8,29.1l1.2,1l1.2,0.8
		l1.7,0.8c1.6,0.7,6.3-0.8,7.5-2.1c2.4-3.2,4-4.1,7.1-4.3C421.6,955.5,420.9,958.3,423.8,961.3z"/>
</g>
<g class="zone" id="4_Casco_Hist贸rico_-_Santa_Cruz" data-name="4_Casco_Hist贸rico_-_Santa_Cruz">
	<path class="st0" d="M878.7,343.9c-4.1-2-10.1-4.1-13.8-6.1c-12.3-6.7-24.9-14.4-38.4-14.4c-18.3,0-61.3,4.4-64.3,4.7
		c-2.6,0.4-16.1,3.5-37.5-10.1c-15.7-10-35.6-27.6-29.1-51c0.4-1.5,0.8-2.8,1.1-3.9c-1.4,0.3-3,0.6-4.7,0.9
		c-3.2,0.6-10.5,0.1-14.9,1.2c-18.1,4.5-42.9,10.5-63.8,1.5c-1.9-0.8-3.6-1.7-5.2-2.6c5,73.8,28.7,151.1,68.8,213.3
		c22.4-11.7,41-21.6,41.4-21.8l0.3-0.2c1.1-0.5,11.1-4.6,26.6,2.2c14,6.2,15.4,19.9,21.7,36.8c0.9,2.3,1.8,4.7,2.7,7.2
		c1.3,3.5,2.7,6.7,3.8,9.5c4.5,10.8,7.2,17.4,4.5,23.2c-1.5,3.1-7.4,1.9-10.7,2.8c-1.1,0.3,2.3,6,1.3,6.6c-0.2,2.2,2.6,9.9,3.8,13.3
		c4.3,12.4,6.8,24.6,9.6,37.5l0.1,0.6v0.6c0,0.6-1.3,10-16.6,23.5c-12.6,11.1-42.9,40.9-46.1,44c-1,1.4,0.6,11.5,5.5,17.2
		c1.4,1.9,3.1,3.5,5,5c1.5-0.6,5.1-3.7,8.6-6.7l0.4-0.3c11.3-9.8,38.9-34.5,41.6-36.9c3.8-4.1,12.1-9.5,20-6.9c2.9,1,4.5,6,5.3,13.2
		c1.4,13.9,16.9,88.1,18.1,94c1.1,3.6,2.3,13.9-19.6,31c-20.4,15.9-95.6,93.2-96.3,94L557,1015.1l-5.2,4c-3.6,2.9-5.4,8.3-5.5,11.2
		c0,0.2,3.5,5.5,3.6,5.6c1.7,1.7,3.3,3.5,4.7,5.4c0.7,0.6,2.3,0.8,3.3,0.7s2.5-0.9,4.3-2.8C575.5,1026,833.1,773,835.7,770.5l1-1
		l0.2-0.1c0.9-1.6,4.1-9.1,0.1-33.9c-5.7-35.7-24.2-155.2-25.4-162.9c-1.3-4.8-0.7-9.9,1.7-14.3c2.9-4.8,9.1-6.6,16.2-7.9
		c1.8-0.3,3.9-3,4.1-3.4c1.9-3.4-2.5-10.8-7.5-23.2c-0.5-1.2-0.8-2.1-1-2.6c-3.2-9.5-18.6-57.6-10-73c7.9-14.2,47-67.8,62.1-84.2
		c2-2.2,7.8-8.5,8.6-10.9C885.9,350.7,882.5,345.7,878.7,343.9z"/>
</g>
<g class="zone" id="4_Mercado" data-name="4_Mercado">
	<path class="st0" d="M338.2,201.4c-4,2-15.9,9.2-25.4,14.4l76.8,136.9L597,251c-2.5-7.6-2.1-19.5-2-28.1c0-2,0.1-4,0.1-6.1
		c0-20.5,4.8-99,5.1-102.6l0-4.3c0.2-2.4-1.4-10.8-4.9-14.6c-2-2-7.8-3.2-10.6-3c-12,0-15.8-9.7-20.6-16.2
		c-6.3-8.5-10.1-7.2-13.2-5.2l-1.8,1c-0.4,0.2-42.2,20.7-54.4,42.3c-2.8,4.9-5.7,10.6-8.2,15.7c-9.6,19.9-17.9,38.5-39.9,32.6
		c-4-1.1-7.4-2.3-10.7-3.2c-15.9-4.6-24.3-5-32.6-0.4l-4,2.7c-11.2,6.3-14.8,8-25.8,8c-2,0-5,0.1-6.6,0c-7.4-0.4-10.2,0-12.3,5.7
		c-1,2.6-1.7,5.3-2.3,7.5C350,190.6,349.4,195.8,338.2,201.4z"/>
</g>
<g id="_x5F_Strokes">
	<path class="st1" d="M403.2,958.6c0,0,0.1,0,0.1,0C403.3,958.7,403.3,958.7,403.2,958.6L403.2,958.6z"/>
	<path class="st2" d="M548.8,68.8c0,0-44.1,22.1-57.3,45.6c-13.2,23.5-20.6,52.9-42.6,47s-33.8-11.8-47-4.4
		c-13.2,7.4-17.6,10.3-27.9,10.3s-17.6-2.9-22.1,8.8c-4.4,11.8-2.9,17.6-14.7,23.5c-11.8,5.9-61,33.1-61,33.1s-11,5.1-14,22.8
		c-2.9,17.6-23.5,158.8-23.5,158.8s-1.5,11.8,4.4,42.6c5.9,30.9,82.3,427.8,82.3,427.8s2.9,16.2,36.8,47
		c33.8,30.9,38.2,32.3,38.2,32.3s7.4,2.9,11.8-2.9c4.4-5.9,7.4-1.5,11.8,2.9c4.4,4.4,14.7-2.9,22.1-11.8
		c7.4-8.8,76.4-77.9,76.4-77.9s11.8-8.8,1.5-20.6c-10.3-11.8-50-54.4-19.1-66.2s151.4-58.8,151.4-58.8s13.2-1.5,4.4-16.2
		c-8.8-14.7-11.8-8.8-23.5-4.4s-55.7,23.8-58.8,25c-3.1,1.2-16.9,4.6-25-7.4c-12.4-18.3-48.5-57.3-48.5-57.3s-7.4-8.8,5.9-26.5
		c13.2-17.6,70.6-104.4,70.6-104.4s4.4-11.8,25-20.6c20.6-8.8,115.4-59.5,115.4-59.5s8.1-3.7,21.3,2.2c13.2,5.9,17.6,22.1,25,41.2
		c7.4,19.1,13.2,27.9,4.4,30.9c-8.8,2.9-8.8,5.9-2.9,22.1c4.1,12,7.6,24.3,10.3,36.8c0,0,0,11.8-13.2,23.5s-47,45.6-47,45.6
		s-7.4,8.8,1.5,19.1c8.8,10.3,10.3,8.8,22.1-1.5c11.8-10.3,41.2-36.8,41.2-36.8s16.2-17.6,17.6-2.9c1.5,14.7,19.1,100,19.1,100
		s5.9,14.7-14.7,30.9s-97,92.6-97,92.6l-151.4,150c0,0-16.2,13.2-8.8,20.6c7.4,7.4,7.4,16.2,20.6,2.9c13.2-13.2,269-266.1,269-266.1
		s8.8-2.9,2.9-39.7c-5.9-36.8-25-161.7-25-161.7s-4.4-13.2,11.8-16.2c16.2-2.9,2.9-30.9,1.5-35.3c-1.5-4.4-17.6-54.4-10.3-67.6
		c7.4-13.2,45.6-66.2,60.3-82.3s13.2-17.6-4.4-26.5s-30.9-19.1-50-19.1c-19.1,0-63.2,4.4-63.2,4.4s-16.2,2.9-36.8-10.3
		c-20.6-13.2-30.9-26.5-26.5-42.6s5.9-13.2-10.3-10.3c-16.2,2.9-47,14.7-70.6,4.4c-23.5-10.3-20.6-26.5-20.6-47s5.1-106.6,5.1-106.6
		s2.2-22.8-16.9-22.8C566.4,89.4,565,58.5,548.8,68.8z"/>
	<polyline class="st2" points="309.8,214.8 388.3,355.9 531.2,612.5 	"/>
	<line class="st2" x1="601.3" y1="252.3" x2="387.8" y2="356.2"/>
	<path class="st2" d="M676,481.8c-43.8-66.8-68.8-144.2-72.1-224.1"/>
</g>
<g id="_x5F_Texto" class="text">
	<g class="st3">
		<path class="st4" d="M508.4,429.8c-1.3-0.7-2.3-1.6-3-2.8c-0.7-1.2-1.1-2.6-1.1-4.1s0.4-2.9,1.1-4.1c0.7-1.2,1.7-2.2,3-2.8
			c1.3-0.7,2.7-1,4.3-1c1.3,0,2.5,0.2,3.6,0.7s2,1.1,2.7,2l-2.3,2.1c-1-1.2-2.3-1.8-3.9-1.8c-1,0-1.8,0.2-2.6,0.6
			c-0.7,0.4-1.3,1-1.8,1.8c-0.4,0.8-0.6,1.6-0.6,2.6c0,1,0.2,1.8,0.6,2.6s1,1.3,1.8,1.8c0.8,0.4,1.6,0.6,2.6,0.6
			c1.5,0,2.8-0.6,3.9-1.8l2.3,2.1c-0.7,0.9-1.6,1.6-2.7,2.1c-1.1,0.5-2.3,0.7-3.6,0.7C511.1,430.8,509.7,430.5,508.4,429.8z"/>
	</g>
	<g class="st3">
		<path class="st4" d="M532.3,425.6h-9c0.2,0.7,0.5,1.3,1.1,1.7c0.6,0.4,1.4,0.6,2.2,0.6c0.6,0,1.2-0.1,1.6-0.3
			c0.5-0.2,0.9-0.5,1.3-0.9l1.8,2c-1.1,1.3-2.7,1.9-4.9,1.9c-1.3,0-2.5-0.3-3.6-0.8c-1-0.5-1.8-1.2-2.4-2.2c-0.6-0.9-0.8-2-0.8-3.2
			c0-1.2,0.3-2.2,0.8-3.1s1.3-1.7,2.3-2.2c1-0.5,2-0.8,3.2-0.8c1.2,0,2.2,0.3,3.2,0.8c0.9,0.5,1.7,1.2,2.2,2.1
			c0.5,0.9,0.8,2,0.8,3.3C532.4,424.7,532.4,425,532.3,425.6z M524.3,421.8c-0.5,0.4-0.9,1-1,1.8h5.8c-0.1-0.7-0.4-1.3-1-1.8
			s-1.2-0.7-1.9-0.7C525.5,421.1,524.8,421.4,524.3,421.8z"/>
		<path class="st4" d="M545.5,419.9c0.9,0.9,1.4,2.2,1.4,3.9v6.8h-3.4v-6.3c0-0.9-0.2-1.6-0.6-2.1c-0.4-0.5-1-0.7-1.8-0.7
			c-0.9,0-1.6,0.3-2.1,0.8c-0.5,0.5-0.8,1.3-0.8,2.4v5.9h-3.4v-11.9h3.3v1.4c0.5-0.5,1-0.9,1.7-1.2c0.7-0.3,1.4-0.4,2.2-0.4
			C543.4,418.5,544.6,419,545.5,419.9z"/>
		<path class="st4" d="M557.6,430c-0.3,0.3-0.8,0.4-1.2,0.6c-0.5,0.1-1,0.2-1.6,0.2c-1.4,0-2.5-0.4-3.3-1.1
			c-0.8-0.7-1.2-1.8-1.2-3.2v-4.9h-1.8V419h1.8v-2.9h3.4v2.9h3v2.6h-3v4.8c0,0.5,0.1,0.9,0.4,1.2c0.3,0.3,0.6,0.4,1.1,0.4
			c0.5,0,1-0.1,1.4-0.4L557.6,430z"/>
	</g>
	<g class="st3">
		<path class="st4" d="M564.5,419c0.7-0.3,1.5-0.4,2.4-0.4v3.2c-0.4,0-0.6,0-0.8,0c-1,0-1.8,0.3-2.3,0.8c-0.6,0.6-0.8,1.4-0.8,2.5
			v5.6h-3.4v-11.9h3.3v1.6C563.2,419.7,563.8,419.3,564.5,419z"/>
	</g>
	<g class="st3">
		<path class="st4" d="M571.1,430c-1-0.5-1.8-1.2-2.3-2.2c-0.6-0.9-0.8-2-0.8-3.2s0.3-2.2,0.8-3.2c0.6-0.9,1.3-1.7,2.3-2.2
			c1-0.5,2.1-0.8,3.4-0.8c1.3,0,2.4,0.3,3.4,0.8c1,0.5,1.8,1.2,2.3,2.2c0.6,0.9,0.8,2,0.8,3.2s-0.3,2.2-0.8,3.2
			c-0.6,0.9-1.3,1.7-2.3,2.2c-1,0.5-2.1,0.8-3.4,0.8C573.2,430.8,572.1,430.5,571.1,430z M576.7,427c0.6-0.6,0.8-1.4,0.8-2.4
			s-0.3-1.8-0.8-2.4c-0.6-0.6-1.3-0.9-2.2-0.9c-0.9,0-1.6,0.3-2.2,0.9c-0.6,0.6-0.9,1.4-0.9,2.4s0.3,1.8,0.9,2.4
			c0.6,0.6,1.3,0.9,2.2,0.9C575.4,427.9,576.1,427.6,576.7,427z"/>
	</g>
	<g class="st3">
		<path class="st4" d="M662.8,385.7c-1.3-0.7-2.3-1.6-3-2.8c-0.7-1.2-1.1-2.6-1.1-4.1s0.4-2.9,1.1-4.1c0.7-1.2,1.7-2.2,3-2.8
			c1.3-0.7,2.7-1,4.3-1c1.3,0,2.5,0.2,3.6,0.7c1.1,0.5,2,1.1,2.7,2l-2.3,2.1c-1-1.2-2.3-1.8-3.9-1.8c-1,0-1.8,0.2-2.6,0.6
			s-1.3,1-1.8,1.8c-0.4,0.8-0.6,1.6-0.6,2.6c0,1,0.2,1.8,0.6,2.6s1,1.3,1.8,1.8s1.6,0.6,2.6,0.6c1.5,0,2.8-0.6,3.9-1.8l2.3,2.1
			c-0.7,0.9-1.6,1.6-2.7,2.1c-1.1,0.5-2.3,0.7-3.6,0.7C665.5,386.7,664,386.4,662.8,385.7z"/>
	</g>
	<g class="st3">
		<path class="st4" d="M684.5,375.8c1,0.9,1.5,2.2,1.5,4v6.8h-3.2V385c-0.6,1.1-1.9,1.7-3.6,1.7c-0.9,0-1.7-0.2-2.4-0.5
			c-0.7-0.3-1.2-0.7-1.5-1.3c-0.4-0.5-0.5-1.2-0.5-1.9c0-1.1,0.4-2,1.2-2.6c0.8-0.6,2.1-0.9,3.8-0.9h2.7c0-0.7-0.2-1.3-0.7-1.7
			c-0.5-0.4-1.1-0.6-2.1-0.6c-0.6,0-1.3,0.1-1.9,0.3c-0.6,0.2-1.1,0.5-1.6,0.8l-1.2-2.4c0.6-0.5,1.4-0.8,2.3-1.1
			c0.9-0.3,1.8-0.4,2.8-0.4C682.1,374.4,683.5,374.9,684.5,375.8z M681.6,383.9c0.5-0.3,0.8-0.7,1-1.2v-1.2h-2.4
			c-1.4,0-2.1,0.5-2.1,1.4c0,0.4,0.2,0.8,0.5,1c0.3,0.3,0.8,0.4,1.4,0.4C680.6,384.3,681.1,384.2,681.6,383.9z"/>
		<path class="st4" d="M690.2,386.3c-0.9-0.2-1.7-0.5-2.2-0.9l1.1-2.5c0.5,0.3,1.2,0.6,1.9,0.8c0.7,0.2,1.5,0.3,2.2,0.3
			c1.5,0,2.2-0.4,2.2-1.1c0-0.3-0.2-0.6-0.6-0.7c-0.4-0.1-1-0.3-1.8-0.4c-1-0.1-1.8-0.3-2.4-0.5c-0.6-0.2-1.2-0.5-1.6-1
			c-0.5-0.5-0.7-1.2-0.7-2.1c0-0.8,0.2-1.4,0.7-2c0.4-0.6,1.1-1,1.9-1.4c0.8-0.3,1.8-0.5,2.9-0.5c0.8,0,1.7,0.1,2.5,0.3
			c0.8,0.2,1.5,0.4,2.1,0.8l-1.1,2.4c-1-0.6-2.2-0.9-3.4-0.9c-0.7,0-1.3,0.1-1.7,0.3c-0.4,0.2-0.6,0.5-0.6,0.8
			c0,0.4,0.2,0.6,0.6,0.8c0.4,0.1,1,0.3,1.9,0.4c1,0.2,1.8,0.3,2.4,0.5c0.6,0.2,1.2,0.5,1.6,1c0.5,0.5,0.7,1.2,0.7,2
			c0,0.7-0.2,1.4-0.7,2c-0.4,0.6-1.1,1-1.9,1.3c-0.8,0.3-1.8,0.5-3,0.5C692.1,386.7,691.1,386.5,690.2,386.3z"/>
	</g>
	<g class="st3">
		<path class="st4" d="M703.1,385.9c-1-0.5-1.8-1.2-2.4-2.2c-0.6-0.9-0.8-2-0.8-3.2s0.3-2.2,0.8-3.2c0.6-0.9,1.4-1.7,2.4-2.2
			c1-0.5,2.1-0.8,3.4-0.8c1.2,0,2.3,0.3,3.3,0.8c0.9,0.5,1.6,1.3,2,2.2l-2.7,1.4c-0.6-1.1-1.5-1.6-2.7-1.6c-0.9,0-1.6,0.3-2.2,0.9
			c-0.6,0.6-0.9,1.4-0.9,2.4c0,1,0.3,1.8,0.9,2.4s1.3,0.9,2.2,0.9c1.2,0,2.1-0.5,2.7-1.6l2.7,1.5c-0.4,0.9-1.1,1.7-2,2.2
			s-2,0.8-3.3,0.8C705.3,386.7,704.1,386.4,703.1,385.9z"/>
	</g>
	<g class="st3">
		<path class="st4" d="M716,385.9c-1-0.5-1.8-1.2-2.3-2.2c-0.6-0.9-0.8-2-0.8-3.2s0.3-2.2,0.8-3.2c0.6-0.9,1.3-1.7,2.3-2.2
			c1-0.5,2.1-0.8,3.4-0.8c1.2,0,2.4,0.3,3.4,0.8c1,0.5,1.8,1.2,2.3,2.2c0.6,0.9,0.8,2,0.8,3.2s-0.3,2.2-0.8,3.2
			c-0.6,0.9-1.3,1.7-2.3,2.2c-1,0.5-2.1,0.8-3.4,0.8C718.1,386.7,716.9,386.4,716,385.9z M721.5,382.9c0.6-0.6,0.8-1.4,0.8-2.4
			s-0.3-1.8-0.8-2.4c-0.6-0.6-1.3-0.9-2.2-0.9s-1.6,0.3-2.2,0.9c-0.6,0.6-0.9,1.4-0.9,2.4s0.3,1.8,0.9,2.4c0.6,0.6,1.3,0.9,2.2,0.9
			S720.9,383.5,721.5,382.9z"/>
		<path class="st4" d="M748.8,371v15.4h-3.6v-6.3h-7v6.3h-3.6V371h3.6v6.1h7V371H748.8z"/>
		<path class="st4" d="M752.3,372.4c-0.4-0.4-0.6-0.8-0.6-1.4c0-0.5,0.2-1,0.6-1.4c0.4-0.4,0.9-0.6,1.5-0.6s1.1,0.2,1.5,0.5
			c0.4,0.4,0.6,0.8,0.6,1.3c0,0.6-0.2,1-0.6,1.4c-0.4,0.4-0.9,0.6-1.5,0.6S752.7,372.8,752.3,372.4z M752.2,374.6h3.4v11.9h-3.4
			V374.6z"/>
		<path class="st4" d="M759.9,386.3c-0.9-0.2-1.7-0.5-2.3-0.9l1.1-2.5c0.5,0.3,1.2,0.6,1.9,0.8s1.5,0.3,2.2,0.3
			c1.5,0,2.2-0.4,2.2-1.1c0-0.3-0.2-0.6-0.6-0.7c-0.4-0.1-1-0.3-1.8-0.4c-1-0.1-1.8-0.3-2.4-0.5c-0.6-0.2-1.2-0.5-1.6-1
			c-0.5-0.5-0.7-1.2-0.7-2.1c0-0.8,0.2-1.4,0.7-2c0.4-0.6,1.1-1,1.9-1.4c0.8-0.3,1.8-0.5,2.9-0.5c0.8,0,1.7,0.1,2.5,0.3
			c0.8,0.2,1.5,0.4,2.1,0.8l-1.1,2.4c-1-0.6-2.2-0.9-3.4-0.9c-0.7,0-1.3,0.1-1.7,0.3c-0.4,0.2-0.6,0.5-0.6,0.8
			c0,0.4,0.2,0.6,0.6,0.8c0.4,0.1,1,0.3,1.9,0.4c1,0.2,1.8,0.3,2.4,0.5c0.6,0.2,1.2,0.5,1.6,1s0.7,1.2,0.7,2c0,0.7-0.2,1.4-0.7,2
			c-0.4,0.6-1.1,1-1.9,1.3c-0.8,0.3-1.8,0.5-3,0.5C761.8,386.7,760.9,386.5,759.9,386.3z"/>
	</g>
	<g class="st3">
		<path class="st4" d="M778.2,385.9c-0.3,0.3-0.8,0.4-1.2,0.6c-0.5,0.1-1,0.2-1.6,0.2c-1.4,0-2.5-0.4-3.3-1.1
			c-0.8-0.7-1.2-1.8-1.2-3.2v-4.9h-1.8v-2.6h1.8V372h3.4v2.9h3v2.6h-3v4.8c0,0.5,0.1,0.9,0.4,1.2c0.3,0.3,0.6,0.4,1.1,0.4
			c0.5,0,1-0.1,1.4-0.4L778.2,385.9z"/>
	</g>
	<g class="st3">
		<path class="st4" d="M782,385.9c-1-0.5-1.8-1.2-2.3-2.2c-0.6-0.9-0.8-2-0.8-3.2s0.3-2.2,0.8-3.2c0.6-0.9,1.3-1.7,2.3-2.2
			c1-0.5,2.1-0.8,3.4-0.8c1.2,0,2.4,0.3,3.4,0.8c1,0.5,1.8,1.2,2.3,2.2c0.6,0.9,0.8,2,0.8,3.2s-0.3,2.2-0.8,3.2
			c-0.6,0.9-1.3,1.7-2.3,2.2c-1,0.5-2.1,0.8-3.4,0.8C784.1,386.7,783,386.4,782,385.9z M787.6,382.9c0.6-0.6,0.8-1.4,0.8-2.4
			s-0.3-1.8-0.8-2.4c-0.6-0.6-1.3-0.9-2.2-0.9s-1.6,0.3-2.2,0.9c-0.6,0.6-0.9,1.4-0.9,2.4s0.3,1.8,0.9,2.4c0.6,0.6,1.3,0.9,2.2,0.9
			S787,383.5,787.6,382.9z M786.3,369.9h3.7l-4,3.2h-2.7L786.3,369.9z"/>
	</g>
	<g class="st3">
		<path class="st4" d="M799.1,374.9c0.7-0.3,1.5-0.4,2.4-0.4v3.2c-0.4,0-0.6,0-0.8,0c-1,0-1.8,0.3-2.3,0.8c-0.6,0.6-0.8,1.4-0.8,2.5
			v5.6h-3.4v-11.9h3.3v1.6C797.9,375.6,798.4,375.2,799.1,374.9z"/>
	</g>
	<g class="st3">
		<path class="st4" d="M803.8,372.4c-0.4-0.4-0.6-0.8-0.6-1.4c0-0.5,0.2-1,0.6-1.4c0.4-0.4,0.9-0.6,1.5-0.6s1.1,0.2,1.5,0.5
			c0.4,0.4,0.6,0.8,0.6,1.3c0,0.6-0.2,1-0.6,1.4c-0.4,0.4-0.9,0.6-1.5,0.6S804.2,372.8,803.8,372.4z M803.6,374.6h3.4v11.9h-3.4
			V374.6z"/>
	</g>
	<g class="st3">
		<path class="st4" d="M812.6,385.9c-1-0.5-1.8-1.2-2.4-2.2c-0.6-0.9-0.8-2-0.8-3.2s0.3-2.2,0.8-3.2c0.6-0.9,1.4-1.7,2.4-2.2
			c1-0.5,2.1-0.8,3.4-0.8c1.2,0,2.3,0.3,3.3,0.8c0.9,0.5,1.6,1.3,2,2.2l-2.7,1.4c-0.6-1.1-1.5-1.6-2.7-1.6c-0.9,0-1.6,0.3-2.2,0.9
			c-0.6,0.6-0.9,1.4-0.9,2.4c0,1,0.3,1.8,0.9,2.4s1.3,0.9,2.2,0.9c1.2,0,2.1-0.5,2.7-1.6l2.7,1.5c-0.4,0.9-1.1,1.7-2,2.2
			s-2,0.8-3.3,0.8C814.7,386.7,813.6,386.4,812.6,385.9z"/>
	</g>
	<g class="st3">
		<path class="st4" d="M825.4,385.9c-1-0.5-1.8-1.2-2.3-2.2c-0.6-0.9-0.8-2-0.8-3.2s0.3-2.2,0.8-3.2c0.6-0.9,1.3-1.7,2.3-2.2
			c1-0.5,2.1-0.8,3.4-0.8c1.2,0,2.4,0.3,3.4,0.8c1,0.5,1.8,1.2,2.3,2.2c0.6,0.9,0.8,2,0.8,3.2s-0.3,2.2-0.8,3.2
			c-0.6,0.9-1.3,1.7-2.3,2.2c-1,0.5-2.1,0.8-3.4,0.8C827.5,386.7,826.4,386.4,825.4,385.9z M830.9,382.9c0.6-0.6,0.8-1.4,0.8-2.4
			s-0.3-1.8-0.8-2.4c-0.6-0.6-1.3-0.9-2.2-0.9s-1.6,0.3-2.2,0.9c-0.6,0.6-0.9,1.4-0.9,2.4s0.3,1.8,0.9,2.4c0.6,0.6,1.3,0.9,2.2,0.9
			S830.4,383.5,830.9,382.9z"/>
	</g>
	<g class="st3">
		<path class="st4" d="M435.1,229.2l0-9.3l-4.5,7.6H429l-4.5-7.4v9.1h-3.4v-15.4h3l5.8,9.6l5.7-9.6h2.9l0,15.4H435.1z"/>
		<path class="st4" d="M453.5,224.2h-9c0.2,0.7,0.5,1.3,1.1,1.7c0.6,0.4,1.4,0.6,2.2,0.6c0.6,0,1.2-0.1,1.6-0.3
			c0.5-0.2,0.9-0.5,1.3-0.9l1.8,2c-1.1,1.3-2.7,1.9-4.9,1.9c-1.3,0-2.5-0.3-3.6-0.8c-1-0.5-1.8-1.2-2.4-2.2c-0.6-0.9-0.8-2-0.8-3.2
			c0-1.2,0.3-2.2,0.8-3.1s1.3-1.7,2.3-2.2c1-0.5,2-0.8,3.2-0.8c1.2,0,2.2,0.3,3.2,0.8c0.9,0.5,1.7,1.2,2.2,2.1
			c0.5,0.9,0.8,2,0.8,3.3C453.5,223.3,453.5,223.6,453.5,224.2z M445.4,220.4c-0.5,0.4-0.9,1-1,1.8h5.8c-0.1-0.7-0.4-1.3-1-1.8
			s-1.2-0.7-1.9-0.7C446.6,219.7,445.9,220,445.4,220.4z"/>
	</g>
	<g class="st3">
		<path class="st4" d="M460.8,217.6c0.7-0.3,1.5-0.4,2.4-0.4v3.2c-0.4,0-0.6,0-0.8,0c-1,0-1.8,0.3-2.3,0.8c-0.6,0.6-0.8,1.4-0.8,2.5
			v5.6h-3.4v-11.9h3.3v1.6C459.5,218.3,460.1,217.9,460.8,217.6z"/>
	</g>
	<g class="st3">
		<path class="st4" d="M467.5,228.6c-1-0.5-1.8-1.2-2.4-2.2c-0.6-0.9-0.8-2-0.8-3.2s0.3-2.2,0.8-3.2c0.6-0.9,1.4-1.7,2.4-2.2
			c1-0.5,2.1-0.8,3.4-0.8c1.2,0,2.3,0.3,3.3,0.8c0.9,0.5,1.6,1.3,2,2.2l-2.7,1.4c-0.6-1.1-1.5-1.6-2.7-1.6c-0.9,0-1.6,0.3-2.2,0.9
			c-0.6,0.6-0.9,1.4-0.9,2.4c0,1,0.3,1.8,0.9,2.4s1.3,0.9,2.2,0.9c1.2,0,2.1-0.5,2.7-1.6l2.7,1.5c-0.4,0.9-1.1,1.7-2,2.2
			s-2,0.8-3.3,0.8C469.6,229.4,468.5,229.1,467.5,228.6z"/>
	</g>
	<g class="st3">
		<path class="st4" d="M487.2,218.5c1,0.9,1.5,2.2,1.5,4v6.8h-3.2v-1.5c-0.6,1.1-1.9,1.7-3.6,1.7c-0.9,0-1.7-0.2-2.4-0.5
			c-0.7-0.3-1.2-0.7-1.5-1.3c-0.4-0.5-0.5-1.2-0.5-1.9c0-1.1,0.4-2,1.2-2.6c0.8-0.6,2.1-0.9,3.8-0.9h2.7c0-0.7-0.2-1.3-0.7-1.7
			s-1.1-0.6-2.1-0.6c-0.6,0-1.3,0.1-1.9,0.3c-0.6,0.2-1.1,0.5-1.6,0.8l-1.2-2.4c0.6-0.5,1.4-0.8,2.3-1.1c0.9-0.3,1.8-0.4,2.8-0.4
			C484.8,217.1,486.2,217.6,487.2,218.5z M484.2,226.6c0.5-0.3,0.8-0.7,1-1.2v-1.2h-2.4c-1.4,0-2.1,0.5-2.1,1.4c0,0.4,0.2,0.8,0.5,1
			c0.3,0.3,0.8,0.4,1.4,0.4C483.3,227,483.8,226.9,484.2,226.6z"/>
	</g>
	<g class="st3">
		<path class="st4" d="M504,212.8v16.4h-3.3v-1.4c-0.9,1-2.1,1.5-3.7,1.5c-1.1,0-2.1-0.3-3-0.8c-0.9-0.5-1.6-1.2-2.1-2.1
			c-0.5-0.9-0.8-2-0.8-3.2c0-1.2,0.3-2.3,0.8-3.2s1.2-1.6,2.1-2.1c0.9-0.5,1.9-0.8,3-0.8c1.5,0,2.7,0.5,3.6,1.4v-5.8H504z
			 M499.7,225.6c0.6-0.6,0.9-1.4,0.9-2.4s-0.3-1.8-0.9-2.4c-0.6-0.6-1.3-0.9-2.2-0.9c-0.9,0-1.6,0.3-2.2,0.9
			c-0.6,0.6-0.9,1.4-0.9,2.4s0.3,1.8,0.9,2.4c0.6,0.6,1.3,0.9,2.2,0.9C498.5,226.5,499.2,226.2,499.7,225.6z"/>
		<path class="st4" d="M509.4,228.6c-1-0.5-1.8-1.2-2.3-2.2c-0.6-0.9-0.8-2-0.8-3.2s0.3-2.2,0.8-3.2c0.6-0.9,1.3-1.7,2.3-2.2
			c1-0.5,2.1-0.8,3.4-0.8s2.4,0.3,3.4,0.8c1,0.5,1.8,1.2,2.3,2.2c0.6,0.9,0.8,2,0.8,3.2s-0.3,2.2-0.8,3.2c-0.6,0.9-1.3,1.7-2.3,2.2
			c-1,0.5-2.1,0.8-3.4,0.8S510.4,229.1,509.4,228.6z M515,225.6c0.6-0.6,0.8-1.4,0.8-2.4s-0.3-1.8-0.8-2.4c-0.6-0.6-1.3-0.9-2.2-0.9
			c-0.9,0-1.6,0.3-2.2,0.9c-0.6,0.6-0.9,1.4-0.9,2.4s0.3,1.8,0.9,2.4c0.6,0.6,1.3,0.9,2.2,0.9C513.7,226.5,514.4,226.2,515,225.6z"
			/>
	</g>
	<g class="st3">
		<path class="st4" d="M432.5,254.9c-1.3-0.7-2.3-1.6-3-2.8c-0.7-1.2-1.1-2.6-1.1-4.1s0.4-2.9,1.1-4.1c0.7-1.2,1.7-2.2,3-2.8
			c1.3-0.7,2.7-1,4.3-1c1.3,0,2.5,0.2,3.6,0.7s2,1.1,2.7,2l-2.3,2.1c-1-1.2-2.3-1.8-3.9-1.8c-1,0-1.8,0.2-2.6,0.6
			c-0.7,0.4-1.3,1-1.8,1.8c-0.4,0.8-0.6,1.6-0.6,2.6c0,1,0.2,1.8,0.6,2.6s1,1.3,1.8,1.8c0.8,0.4,1.6,0.6,2.6,0.6
			c1.5,0,2.8-0.6,3.9-1.8l2.3,2.1c-0.7,0.9-1.6,1.6-2.7,2.1c-1.1,0.5-2.3,0.7-3.6,0.7C435.2,255.9,433.8,255.6,432.5,254.9z"/>
	</g>
	<g class="st3">
		<path class="st4" d="M456.5,250.7h-9c0.2,0.7,0.5,1.3,1.1,1.7c0.6,0.4,1.4,0.6,2.2,0.6c0.6,0,1.2-0.1,1.6-0.3
			c0.5-0.2,0.9-0.5,1.3-0.9l1.8,2c-1.1,1.3-2.7,1.9-4.9,1.9c-1.3,0-2.5-0.3-3.6-0.8c-1-0.5-1.8-1.2-2.4-2.2c-0.6-0.9-0.8-2-0.8-3.2
			c0-1.2,0.3-2.2,0.8-3.1s1.3-1.7,2.3-2.2c1-0.5,2-0.8,3.2-0.8c1.2,0,2.2,0.3,3.2,0.8c0.9,0.5,1.7,1.2,2.2,2.1
			c0.5,0.9,0.8,2,0.8,3.3C456.6,249.8,456.5,250.1,456.5,250.7z M448.4,246.9c-0.5,0.4-0.9,1-1,1.8h5.8c-0.1-0.7-0.4-1.3-1-1.8
			s-1.2-0.7-1.9-0.7C449.6,246.2,449,246.4,448.4,246.9z"/>
		<path class="st4" d="M469.6,244.9c0.9,0.9,1.4,2.2,1.4,3.9v6.8h-3.4v-6.3c0-0.9-0.2-1.6-0.6-2.1c-0.4-0.5-1-0.7-1.8-0.7
			c-0.9,0-1.6,0.3-2.1,0.8c-0.5,0.5-0.8,1.3-0.8,2.4v5.9h-3.4v-11.9h3.3v1.4c0.5-0.5,1-0.9,1.7-1.2c0.7-0.3,1.4-0.4,2.2-0.4
			C467.5,243.6,468.7,244,469.6,244.9z"/>
		<path class="st4" d="M481.7,255.1c-0.3,0.3-0.8,0.4-1.2,0.6c-0.5,0.1-1,0.2-1.6,0.2c-1.4,0-2.5-0.4-3.3-1.1
			c-0.8-0.7-1.2-1.8-1.2-3.2v-4.9h-1.8V244h1.8v-2.9h3.4v2.9h3v2.6h-3v4.8c0,0.5,0.1,0.9,0.4,1.2s0.6,0.4,1.1,0.4
			c0.5,0,1-0.1,1.4-0.4L481.7,255.1z"/>
	</g>
	<g class="st3">
		<path class="st4" d="M488.6,244c0.7-0.3,1.5-0.4,2.4-0.4v3.2c-0.4,0-0.6,0-0.8,0c-1,0-1.8,0.3-2.3,0.8c-0.6,0.6-0.8,1.4-0.8,2.5
			v5.6h-3.4v-11.9h3.3v1.6C487.4,244.8,487.9,244.3,488.6,244z"/>
	</g>
	<g class="st3">
		<path class="st4" d="M502,244.9c1,0.9,1.5,2.2,1.5,4v6.8h-3.2v-1.5c-0.6,1.1-1.9,1.7-3.6,1.7c-0.9,0-1.7-0.2-2.4-0.5
			c-0.7-0.3-1.2-0.7-1.5-1.3c-0.4-0.5-0.5-1.2-0.5-1.9c0-1.1,0.4-2,1.2-2.6c0.8-0.6,2.1-0.9,3.8-0.9h2.7c0-0.7-0.2-1.3-0.7-1.7
			s-1.1-0.6-2.1-0.6c-0.6,0-1.3,0.1-1.9,0.3c-0.6,0.2-1.1,0.5-1.6,0.8l-1.2-2.4c0.6-0.5,1.4-0.8,2.3-1.1c0.9-0.3,1.8-0.4,2.8-0.4
			C499.6,243.6,501.1,244,502,244.9z M499.1,253.1c0.5-0.3,0.8-0.7,1-1.2v-1.2h-2.4c-1.4,0-2.1,0.5-2.1,1.4c0,0.4,0.2,0.8,0.5,1
			c0.3,0.3,0.8,0.4,1.4,0.4C498.1,253.5,498.7,253.4,499.1,253.1z"/>
		<path class="st4" d="M506.6,239.3h3.4v16.4h-3.4V239.3z"/>
	</g>
	<g class="st3">
		<path class="st4" d="M342.3,610v2.9h-12v-15.4H342v2.9h-8.1v3.4h7.2v2.8h-7.2v3.6H342.3z"/>
		<path class="st4" d="M355.7,602.2c0.9,0.9,1.4,2.2,1.4,3.9v6.8h-3.4v-6.3c0-0.9-0.2-1.6-0.6-2.1c-0.4-0.5-1-0.7-1.8-0.7
			c-0.9,0-1.6,0.3-2.1,0.8c-0.5,0.5-0.8,1.3-0.8,2.4v5.9h-3.4V601h3.3v1.4c0.5-0.5,1-0.9,1.7-1.2c0.7-0.3,1.4-0.4,2.2-0.4
			C353.6,600.8,354.8,601.3,355.7,602.2z"/>
		<path class="st4" d="M361.2,612.7c-0.9-0.2-1.7-0.5-2.2-0.9l1.1-2.5c0.5,0.3,1.2,0.6,1.9,0.8c0.7,0.2,1.5,0.3,2.2,0.3
			c1.5,0,2.2-0.4,2.2-1.1c0-0.3-0.2-0.6-0.6-0.7c-0.4-0.1-1-0.3-1.8-0.4c-1-0.1-1.8-0.3-2.4-0.5c-0.6-0.2-1.2-0.5-1.6-1
			c-0.5-0.5-0.7-1.2-0.7-2.1c0-0.8,0.2-1.4,0.7-2c0.4-0.6,1.1-1,1.9-1.4c0.8-0.3,1.8-0.5,2.9-0.5c0.8,0,1.7,0.1,2.5,0.3
			c0.8,0.2,1.5,0.4,2.1,0.8l-1.1,2.4c-1-0.6-2.2-0.9-3.4-0.9c-0.7,0-1.3,0.1-1.7,0.3c-0.4,0.2-0.6,0.5-0.6,0.8
			c0,0.4,0.2,0.6,0.6,0.8c0.4,0.1,1,0.3,1.9,0.4c1,0.2,1.8,0.3,2.4,0.5c0.6,0.2,1.2,0.5,1.6,1c0.5,0.5,0.7,1.2,0.7,2
			c0,0.7-0.2,1.4-0.7,2s-1.1,1-1.9,1.3c-0.8,0.3-1.8,0.5-3,0.5C363.1,613.1,362.2,612.9,361.2,612.7z"/>
		<path class="st4" d="M380.9,602.2c1,0.9,1.5,2.2,1.5,4v6.8h-3.2v-1.5c-0.6,1.1-1.9,1.7-3.6,1.7c-0.9,0-1.7-0.2-2.4-0.5
			c-0.7-0.3-1.2-0.7-1.5-1.3c-0.4-0.5-0.5-1.2-0.5-1.9c0-1.1,0.4-2,1.2-2.6c0.8-0.6,2.1-0.9,3.8-0.9h2.7c0-0.7-0.2-1.3-0.7-1.7
			s-1.1-0.6-2.1-0.6c-0.6,0-1.3,0.1-1.9,0.3c-0.6,0.2-1.1,0.5-1.6,0.8l-1.2-2.4c0.6-0.5,1.4-0.8,2.3-1.1c0.9-0.3,1.8-0.4,2.8-0.4
			C378.5,600.8,379.9,601.3,380.9,602.2z M377.9,610.3c0.5-0.3,0.8-0.7,1-1.2v-1.2h-2.4c-1.4,0-2.1,0.5-2.1,1.4c0,0.4,0.2,0.8,0.5,1
			c0.3,0.3,0.8,0.4,1.4,0.4C376.9,610.7,377.5,610.6,377.9,610.3z"/>
	</g>
	<g class="st3">
		<path class="st4" d="M396.2,602.2c0.9,0.9,1.4,2.2,1.4,3.9v6.8h-3.4v-6.3c0-0.9-0.2-1.6-0.6-2.1c-0.4-0.5-1-0.7-1.8-0.7
			c-0.9,0-1.6,0.3-2.1,0.8c-0.5,0.5-0.8,1.3-0.8,2.4v5.9h-3.4V601h3.3v1.4c0.5-0.5,1-0.9,1.7-1.2c0.7-0.3,1.4-0.4,2.2-0.4
			C394.1,600.8,395.3,601.3,396.2,602.2z"/>
	</g>
	<g class="st3">
		<path class="st4" d="M403.1,612.3c-1-0.5-1.8-1.2-2.4-2.2c-0.6-0.9-0.8-2-0.8-3.2s0.3-2.2,0.8-3.2c0.6-0.9,1.4-1.7,2.4-2.2
			c1-0.5,2.1-0.8,3.4-0.8c1.2,0,2.3,0.3,3.3,0.8c0.9,0.5,1.6,1.3,2,2.2l-2.7,1.4c-0.6-1.1-1.5-1.6-2.7-1.6c-0.9,0-1.6,0.3-2.2,0.9
			c-0.6,0.6-0.9,1.4-0.9,2.4c0,1,0.3,1.8,0.9,2.4s1.3,0.9,2.2,0.9c1.2,0,2.1-0.5,2.7-1.6l2.7,1.5c-0.4,0.9-1.1,1.7-2,2.2
			s-2,0.8-3.3,0.8C405.3,613.1,404.1,612.8,403.1,612.3z"/>
	</g>
	<g class="st3">
		<path class="st4" d="M424.5,602.2c0.9,0.9,1.4,2.2,1.4,3.9v6.8h-3.4v-6.3c0-0.9-0.2-1.6-0.6-2.1c-0.4-0.5-1-0.7-1.8-0.7
			c-0.9,0-1.6,0.3-2.1,0.8c-0.5,0.5-0.8,1.3-0.8,2.4v5.9h-3.4v-16.4h3.4v5.7c0.5-0.5,1-0.8,1.7-1c0.6-0.2,1.4-0.4,2.1-0.4
			C422.4,600.8,423.6,601.3,424.5,602.2z"/>
	</g>
	<g class="st3">
		<path class="st4" d="M440.7,607.9h-9c0.2,0.7,0.5,1.3,1.1,1.7c0.6,0.4,1.4,0.6,2.2,0.6c0.6,0,1.2-0.1,1.6-0.3
			c0.5-0.2,0.9-0.5,1.3-0.9l1.8,2c-1.1,1.3-2.7,1.9-4.9,1.9c-1.3,0-2.5-0.3-3.6-0.8c-1-0.5-1.8-1.2-2.4-2.2c-0.6-0.9-0.8-2-0.8-3.2
			c0-1.2,0.3-2.2,0.8-3.1s1.3-1.7,2.3-2.2c1-0.5,2-0.8,3.2-0.8c1.2,0,2.2,0.3,3.2,0.8c0.9,0.5,1.7,1.2,2.2,2.1
			c0.5,0.9,0.8,2,0.8,3.3C440.7,607,440.7,607.3,440.7,607.9z M432.6,604.1c-0.5,0.4-0.9,1-1,1.8h5.8c-0.1-0.7-0.4-1.3-1-1.8
			s-1.2-0.7-1.9-0.7C433.8,603.4,433.2,603.7,432.6,604.1z"/>
		<path class="st4" d="M448.8,605.3h6.2v2.8h-6.2V605.3z"/>
	</g>
	<g class="st3">
		<path class="st4" d="M330.3,623.9h7c1.7,0,3.2,0.3,4.4,1c1.3,0.6,2.3,1.5,3,2.7c0.7,1.2,1.1,2.5,1.1,4.1c0,1.5-0.4,2.9-1.1,4.1
			c-0.7,1.2-1.7,2.1-3,2.7c-1.3,0.6-2.8,1-4.4,1h-7V623.9z M337.2,636.4c1.5,0,2.8-0.4,3.7-1.3c0.9-0.9,1.4-2,1.4-3.5
			s-0.5-2.6-1.4-3.5c-0.9-0.9-2.1-1.3-3.7-1.3h-3.3v9.6H337.2z"/>
		<path class="st4" d="M348.5,625.3c-0.4-0.4-0.6-0.8-0.6-1.4c0-0.5,0.2-1,0.6-1.4c0.4-0.4,0.9-0.6,1.5-0.6c0.6,0,1.1,0.2,1.5,0.5
			c0.4,0.4,0.6,0.8,0.6,1.3c0,0.6-0.2,1-0.6,1.4s-0.9,0.6-1.5,0.6C349.4,625.8,348.9,625.6,348.5,625.3z M348.3,627.5h3.4v11.9h-3.4
			V627.5z"/>
		<path class="st4" d="M365,628.1c0.9,0.5,1.6,1.2,2.1,2.1c0.5,0.9,0.8,2,0.8,3.2c0,1.2-0.3,2.3-0.8,3.2c-0.5,0.9-1.2,1.6-2.1,2.1
			c-0.9,0.5-1.9,0.8-3,0.8c-1.5,0-2.7-0.5-3.6-1.4v5.5h-3.4v-16.1h3.3v1.4c0.9-1,2.1-1.5,3.7-1.5C363.1,627.3,364.1,627.6,365,628.1
			z M363.5,635.8c0.6-0.6,0.8-1.4,0.8-2.4s-0.3-1.8-0.8-2.4c-0.6-0.6-1.3-0.9-2.2-0.9c-0.9,0-1.6,0.3-2.2,0.9
			c-0.6,0.6-0.8,1.4-0.8,2.4s0.3,1.8,0.8,2.4c0.6,0.6,1.3,0.9,2.2,0.9C362.2,636.7,363,636.4,363.5,635.8z"/>
		<path class="st4" d="M382.1,627.5v11.9h-3.3v-1.4c-0.5,0.5-1,0.9-1.6,1.2c-0.6,0.3-1.3,0.4-2.1,0.4c-1.6,0-2.8-0.4-3.7-1.3
			c-0.9-0.9-1.4-2.2-1.4-4v-6.7h3.4v6.2c0,1.9,0.8,2.9,2.4,2.9c0.8,0,1.5-0.3,2-0.8c0.5-0.5,0.7-1.3,0.7-2.4v-5.9H382.1z"/>
		<path class="st4" d="M393,638.8c-0.3,0.3-0.8,0.4-1.2,0.6c-0.5,0.1-1,0.2-1.6,0.2c-1.4,0-2.5-0.4-3.3-1.1
			c-0.8-0.7-1.2-1.8-1.2-3.2v-4.9h-1.8v-2.6h1.8v-2.9h3.4v2.9h3v2.6h-3v4.8c0,0.5,0.1,0.9,0.4,1.2s0.6,0.4,1.1,0.4
			c0.5,0,1-0.1,1.4-0.4L393,638.8z"/>
	</g>
	<g class="st3">
		<path class="st4" d="M403.9,628.6c1,0.9,1.5,2.2,1.5,4v6.8h-3.2v-1.5c-0.6,1.1-1.9,1.7-3.6,1.7c-0.9,0-1.7-0.2-2.4-0.5
			c-0.7-0.3-1.2-0.7-1.5-1.3c-0.4-0.5-0.5-1.2-0.5-1.9c0-1.1,0.4-2,1.2-2.6c0.8-0.6,2.1-0.9,3.8-0.9h2.7c0-0.7-0.2-1.3-0.7-1.7
			s-1.1-0.6-2.1-0.6c-0.6,0-1.3,0.1-1.9,0.3c-0.6,0.2-1.1,0.5-1.6,0.8l-1.2-2.4c0.6-0.5,1.4-0.8,2.3-1.1c0.9-0.3,1.8-0.4,2.8-0.4
			C401.5,627.3,402.9,627.7,403.9,628.6z M401,636.8c0.5-0.3,0.8-0.7,1-1.2v-1.2h-2.4c-1.4,0-2.1,0.5-2.1,1.4c0,0.4,0.2,0.8,0.5,1
			c0.3,0.3,0.8,0.4,1.4,0.4C400,637.2,400.5,637.1,401,636.8z"/>
	</g>
	<g class="st3">
		<path class="st4" d="M411,638.7c-1-0.5-1.8-1.2-2.4-2.2c-0.6-0.9-0.8-2-0.8-3.2s0.3-2.2,0.8-3.2c0.6-0.9,1.4-1.7,2.4-2.2
			c1-0.5,2.1-0.8,3.4-0.8c1.2,0,2.3,0.3,3.3,0.8c0.9,0.5,1.6,1.3,2,2.2l-2.7,1.4c-0.6-1.1-1.5-1.6-2.7-1.6c-0.9,0-1.6,0.3-2.2,0.9
			c-0.6,0.6-0.9,1.4-0.9,2.4c0,1,0.3,1.8,0.9,2.4s1.3,0.9,2.2,0.9c1.2,0,2.1-0.5,2.7-1.6l2.7,1.5c-0.4,0.9-1.1,1.7-2,2.2
			s-2,0.8-3.3,0.8C413.1,639.5,412,639.3,411,638.7z"/>
		<path class="st4" d="M421.9,625.3c-0.4-0.4-0.6-0.8-0.6-1.4c0-0.5,0.2-1,0.6-1.4c0.4-0.4,0.9-0.6,1.5-0.6c0.6,0,1.1,0.2,1.5,0.5
			c0.4,0.4,0.6,0.8,0.6,1.3c0,0.6-0.2,1-0.6,1.4s-0.9,0.6-1.5,0.6C422.8,625.8,422.2,625.6,421.9,625.3z M421.7,627.5h3.4v11.9h-3.4
			V627.5z"/>
		<path class="st4" d="M430.6,638.7c-1-0.5-1.8-1.2-2.3-2.2c-0.6-0.9-0.8-2-0.8-3.2s0.3-2.2,0.8-3.2c0.6-0.9,1.3-1.7,2.3-2.2
			c1-0.5,2.1-0.8,3.4-0.8s2.4,0.3,3.4,0.8c1,0.5,1.8,1.2,2.3,2.2c0.6,0.9,0.8,2,0.8,3.2s-0.3,2.2-0.8,3.2c-0.6,0.9-1.3,1.7-2.3,2.2
			c-1,0.5-2.1,0.8-3.4,0.8S431.6,639.3,430.6,638.7z M436.1,635.8c0.6-0.6,0.8-1.4,0.8-2.4s-0.3-1.8-0.8-2.4
			c-0.6-0.6-1.3-0.9-2.2-0.9c-0.9,0-1.6,0.3-2.2,0.9c-0.6,0.6-0.9,1.4-0.9,2.4s0.3,1.8,0.9,2.4c0.6,0.6,1.3,0.9,2.2,0.9
			C434.8,636.7,435.6,636.4,436.1,635.8z M434.9,622.8h3.7l-4,3.2h-2.7L434.9,622.8z"/>
		<path class="st4" d="M453.5,628.6c0.9,0.9,1.4,2.2,1.4,3.9v6.8h-3.4v-6.3c0-0.9-0.2-1.6-0.6-2.1c-0.4-0.5-1-0.7-1.8-0.7
			c-0.9,0-1.6,0.3-2.1,0.8c-0.5,0.5-0.8,1.3-0.8,2.4v5.9h-3.4v-11.9h3.3v1.4c0.5-0.5,1-0.9,1.7-1.2c0.7-0.3,1.4-0.4,2.2-0.4
			C451.4,627.3,452.6,627.7,453.5,628.6z"/>
	</g>
</g>
</svg>
