<svg xmlns="http://www.w3.org/2000/svg" viewBox="0 0 1080 1080">
    <defs>
        <style>.cls-2,.cls-3{stroke-miterlimit:10;}.cls-2{fill:#df7753;stroke:#df7753;stroke-width:2px;}.cls-3{fill:none;stroke:#fff;stroke-width:8px;}.cls-4{font-size:15px;fill:#fff;font-family:Montserrat-Bold, Montserrat;font-weight:700;}.cls-5{letter-spacing:-0.019em;}.cls-6{letter-spacing:-0.009em;}.cls-7{letter-spacing:0em;}.cls-8{letter-spacing:-0.004em;}.cls-9{letter-spacing:-0.007em;}.cls-10{letter-spacing:-0.017em;}.cls-11{letter-spacing:-0.004em;}.cls-12{letter-spacing:-0.007em;}.cls-13{letter-spacing:0.006em;}.cls-14{letter-spacing:0.006em;}</style>
    </defs>
    <g class="zone" id="4_Centro_Tradicional" data-name="4_Centro_Tradicional">
        <path class="cls-1" d="M527.5829,316.7826,390.4006,383.5758,482.3444,548.72c13.0361-19.3132,28.2016-42.2253,30.119-45.1237.9814-2.1733,5.2993-9.918,18.9609-15.773,6.7637-2.8985,25.7871-12.7062,43.3762-21.9263a304.1977,304.1977,0,0,1-47.2176-149.1143Z"/>
    </g>
    <g class="zone" id="4_Ensanche_-_Diputación" data-name="4_Ensanche_-_Diputación">
        <path class="cls-1" d="M411.8887,791.707c.2129.2212.4306.4478.6538.6758,1.3686-.2036,5.2065-2.43,9.3847-7.4433,5.0577-6.07,50.32-51.3438,52.2442-53.2681L474.6,731.3a6.4022,6.4022,0,0,0,2.2554-3.8184c.124-1.3281-.5039-2.791-1.8658-4.3476L473.894,721.89c-11.6474-13.1836-23.1689-28.2251-20.31-39.8256.8061-3.2706,3.1938-7.7124,9.9927-10.3023,20.7446-7.9028,102.15-39.6684,102.97-39.9883l.49-.1914.5225-.0581a2.4787,2.4787,0,0,0,1.4482-.7148c.1368-.2886.146-1.6148-1.4365-4.2515-2.4931-4.1558-3.5327-4.437-3.5429-4.439a12.4715,12.4715,0,0,0-3.2969,1.2622c-1.2344.5762-2.6333,1.23-4.3257,1.8638-7.2993,2.7373-35.4507,15.0191-39.3535,16.7241a13.6139,13.6139,0,0,1-9.3067,2.4878c-4.6992-.4917-9.0542-3.3706-12.9443-8.5571-8.7969-11.729-32.55-38.4736-32.79-38.7427l-.0831-.0967c-.7192-.8627-6.7192-8.8374,3.8726-22.96,2.4108-3.2143,7.0469-9.9122,12.5195-17.9606L330.67,290.94c-9.85,5.3794-19.0609,10.4645-19.2363,10.5613l-.2422.123c-.1743.0908-5.6528,2.9746-7.2461,12.5332-1.9463,11.6787-15.51,104.65-15.9761,107.8428-.0522.5576-.6958,8.5571,2.96,27.751,3.9536,20.7558,55.4785,288.292,55.9985,290.9922.0147.061,2.54,10.4194,23.77,29.8022C388.77,787.0469,394.231,790.937,395.44,791.72l.4156.0361-.3194.0259.0728.0449A2.8765,2.8765,0,0,0,398.8,791.1c1.6538-2.2046,3.5576-3.3877,5.6587-3.5166C407.7168,787.38,409.939,789.68,411.8887,791.707Z"/>
    </g>
    <g class="zone" id="4_Casco_Histórico_-_Santa_Cruz" data-name="4_Casco_Histórico_-_Santa_Cruz">
        <path class="cls-1" d="M713.2114,374.0776c-2.7519-1.3759-5.3252-2.789-7.8135-4.1562C697.1719,365.4028,690.0674,361.5,681,361.5c-12.2627,0-40.4854,2.7705-42.4912,2.9692-1.7388.2613-13.4028,1.5684-27.6719-7.6045-10.5224-6.7646-24.0127-17.5883-19.6958-33.4169.2671-.98.5186-1.8589.7481-2.6451-.9263.2-1.9771.4151-3.1739.6328-2.1206.3858-4.664,1.0142-7.6089,1.7427-12.124,2.9981-28.7285,7.103-42.71.9864-1.2551-.5492-2.4045-1.1256-3.4772-1.7222a296.1515,296.1515,0,0,0,45.99,139.72c15.0108-7.9033,27.4226-14.539,27.7045-14.69l.2314-.1143c.7315-.3315,7.4356-3.1113,17.78,1.4863,9.3916,4.1739,13.0542,14.0117,17.2954,25.4024.5835,1.5669,1.1822,3.1758,1.8135,4.8169.9009,2.3427,1.7837,4.4892,2.562,6.3833,3.0029,7.3037,4.8154,11.7124,3.0161,15.64a7.9982,7.9982,0,0,1-5.0464,4.2075,8.67,8.67,0,0,0-2.0576.8789c-.165,1.4883,1.728,6.6944,2.5518,8.959a226.3277,226.3277,0,0,1,7.1518,25.5293l.0889.4141V541.5c0,.4-.1177,9.9009-10.3428,18.99-8.3994,7.4664-29.51,28.523-31.6543,30.6641-.664.9146-2.27,3.8877,1.0342,7.7432a16.8222,16.8222,0,0,0,3.3418,3.3423c.9873-.3741,3.4048-2.49,5.7466-4.54l.2407-.21c7.5386-6.5966,26.0254-23.2241,27.8193-24.8378,2.5459-2.7476,8.7129-8.5479,13.9761-6.7979,1.9317.6426,4.336,2.4219,4.8184,7.2481.9375,9.3715,12.0747,63.4116,12.8906,67.3632.7534,2.4009,3.2529,13.6675-11.3994,25.18-13.6538,10.728-65.1245,62.1646-65.6426,62.6831L501.68,830.4756l-.147.12c-2.3813,1.9605-5.7378,5.7456-5.8345,7.7441a.3165.3165,0,0,0,.13.3316,32.6772,32.6772,0,0,1,3.1182,3.7353c.3882.521.8828,1.1841,1.2412,1.5811a18.7556,18.7556,0,0,0,3.9834-3.3164c8.9053-8.9048,181.2764-179.2959,183.0166-181.0161l.6626-.6553.1538-.0513c.6206-1.0634,2.7183-6.1128.0459-22.8169-3.8462-24.039-16.1621-104.5229-16.9644-109.7656a12.7611,12.7611,0,0,1,1.1441-9.6079c1.9219-3.2466,5.3047-5.33,10.0547-6.1938,1.22-.2217,1.4878-.7041,1.6318-.9634,1.2856-2.314.2627-7.7207-3.04-16.07-.3086-.78-.545-1.3867-.6714-1.7661-2.1314-6.395-12.4722-38.8208-6.7017-49.2075,5.3018-9.5434,31.439-45.6406,41.5366-56.7485,1.32-1.4512,5.2115-5.732,5.73-7.3482C719.8169,377.3809,715.7158,375.33,713.2114,374.0776Z"/>
    </g>
    <g class="zone" id="4_Mercado" data-name="4_Mercado">
        <path class="cls-1" d="M351.7886,278.0776c-2.7485,1.3744-8.6183,4.5223-15.0929,8.0365l49.8077,89.4618,137.9849-67.184c-1.7-5.1705-1.6169-10.883-1.5293-16.75.02-1.3491.041-2.73.041-4.1421,0-13.959,3.3638-70.3452,3.5073-72.7388l.0113-.1465c.1474-1.6645.0117-6.5947-2.3746-9.2021A6.5683,6.5683,0,0,0,519,203.5c-8.1655,0-12.6562-6.0854-15.9351-10.5288-4.2675-5.7822-4.7768-5.459-6.9174-4.0967l-.3579.2026c-.2891.1451-29.0137,14.6465-37.3033,29.3838-1.8784,3.3394-3.6108,6.9292-5.2866,10.4014-6.5225,13.5161-13.2632,27.4927-28.2305,23.5024-2.7417-.7309-5.2954-1.4746-7.5483-2.13-10.7871-3.14-15.7944-4.396-21.4785-1.2378l-1.959,1.0923C386.3413,254.3574,382.5049,256.5,375,256.5c-1.3335,0-2.5967-.0664-3.7109-.1255-5.0494-.2671-6.1-.3218-7.544,3.53-.6655,1.7759-1.1157,3.3291-1.5513,4.8315C360.7139,269.8433,359.4351,274.2544,351.7886,278.0776Z"/>
    </g>
    <g id="_Strokes">
        <path class="cls-2" d="M395.4854,791.7861c.02.0074.0463.0161.0781.0269-.0215-.0108-.042-.02-.0611-.0283Z"/>
        <path class="cls-3" d="M494.5,186.5s-30,15-39,31-14,36-29,32-23-8-32-3-12,7-19,7-12-2-15,6-2,12-10,16S309,298,309,298s-7.5,3.5-9.5,15.5-16,108-16,108-1,8,3,29,56,291,56,291,2,11,25,32,26,22,26,22,5,2,8-2,5-1,8,2,10-2,15-8,52-53,52-53,8-6,1-14-34-37-13-45,103-40,103-40,9-1,3-11-8-6-16-3-40,17-40,17-8,7-17-5-33-39-33-39-5-6,4-18,48-71,48-71,3-8,17-14S612,451,612,451s5.5-2.5,14.5,1.5,12,15,17,28,9,19,3,21-6,4-2,15a224.9748,224.9748,0,0,1,7,25s0,8-9,16-32,31-32,31-5,6,1,13,7,6,15-1,28-25,28-25,11-12,12-2,13,68,13,68,4,10-10,21-66,63-66,63l-103,102s-11,9-6,14,5,11,14,2,183-181,183-181,6-2,2-27-17-110-17-110-3-9,8-11,2-21,1-24-12-37-7-46,31-45,41-56,9-12-3-18-21-13-34-13-43,3-43,3-11,2-25-7-21-18-18-29,4-9-7-7-32,10-48,3-14-18-14-32S531,216,531,216s1.5-15.5-11.5-15.5S505.5,179.5,494.5,186.5Z"/>
        <polyline class="cls-3" points="331.903 285.83 385.34 381.811 482.514 556.349"/>
        <line class="cls-3" x1="530.2159" y1="311.2954" x2="385" y2="382"/>
        <path class="cls-3" d="M581.0245,467.4121A300.5224,300.5224,0,0,1,532,315"/>
    </g>
    <g id="Texto" class="text">
        <text class="cls-4" transform="translate(463.6519 432.5913)">
            <tspan class="cls-5">C</tspan>
            <tspan x="10.71" y="0">ent</tspan>
            <tspan class="cls-6" x="37.0645" y="0">r</tspan>
            <tspan class="cls-7" x="43.395" y="0">o</tspan>
        </text>
        <text class="cls-4" transform="translate(568.6519 402.5913)">
            <tspan class="cls-8">C</tspan>
            <tspan class="cls-7" x="10.9351" y="0">as</tspan>
            <tspan class="cls-9" x="28.1543" y="0">c</tspan>
            <tspan x="36.9146" y="0">o His</tspan>
            <tspan class="cls-10" x="75.584" y="0">t</tspan>
            <tspan x="81.854" y="0">ó</tspan>
            <tspan class="cls-11" x="91.6792" y="0">r</tspan>
            <tspan x="98.084" y="0">i</tspan>
            <tspan class="cls-12" x="102.5991" y="0">c</tspan>
            <tspan x="111.3589" y="0">o</tspan>
        </text>
        <text class="cls-4" transform="translate(406.3848 295.5913)">Me<tspan class="cls-6" x="23.7896" y="0">r</tspan>
            <tspan x="30.1201" y="0">c</tspan>
            <tspan class="cls-13" x="38.9849" y="0">a</tspan>
            <tspan x="48.3296" y="0">do</tspan>
            <tspan class="cls-5" x="5.6699" y="18">C</tspan>
            <tspan x="16.3799" y="18">ent</tspan>
            <tspan class="cls-9" x="42.7344" y="18">r</tspan>
            <tspan x="49.0947" y="18">al</tspan>
        </text>
        <text class="cls-4" transform="translate(344.6519 556.5913)">Ensa<tspan class="cls-14" x="37.6494" y="0">n</tspan>
            <tspan class="cls-11" x="48.1045" y="0">c</tspan>
            <tspan class="cls-14" x="56.9092" y="0">h</tspan>
            <tspan x="67.3643" y="0">e -</tspan>
            <tspan x="0" y="18">Diput</tspan>
            <tspan class="cls-13" x="44.0845" y="18">a</tspan>
            <tspan x="53.4292" y="18">ción</tspan>
        </text>
    </g>
</svg>