<svg xmlns="http://www.w3.org/2000/svg" viewBox="0 0 1080 1080">
    <defs>
        <style>
            .cls-2{stroke-miterlimit:10;}.cls-2{fill:none;stroke:#fff;stroke-width:8px;}.cls-16,.cls-3{font-size:15px;fill:#fff;font-family:Montserrat-Bold, Montserrat;font-weight:700;}.cls-4{letter-spacing:0.006em;}.cls-5{letter-spacing:-0.005em;}.cls-6{letter-spacing:-0.014em;}.cls-16,.cls-7{letter-spacing:-0.004em;}.cls-8{letter-spacing:-0.009em;}.cls-9{letter-spacing:0em;}.cls-10{letter-spacing:-0.015em;}.cls-11{letter-spacing:-0.017em;}.cls-12{letter-spacing:-0.007em;}.cls-13{letter-spacing:-0.005em;}.cls-14{letter-spacing:-0.009em;}.cls-15{letter-spacing:-0.055em;}.cls-17{letter-spacing:0.006em;}
            .st2{enable-background:new    ;}
            .st3{fill:#FFFFFF;}
        </style>
    </defs>
    <g class="zone" id="4_Ciudad_de_Asis_-_Font-Calent_-_El_Bacarot" data-name="4_Ciudad_de_Asis_-_Font-Calent_-_El_Bacarot">
        <path class="cls-1" d="M483.0269,775.5156c4.0263-7.0464,22.8911-31.6181,24.2519-33.3886L531.3,708.1a125.3251,125.3251,0,0,1,15.5425-16.59l41.7051-37.071c-8.4191-7.6869-34.0942-31.1566-47.2832-43.5213-18.2622-17.1206-8.9956-31.5318-8.5923-32.1368l.0591-.0864,38.9084-55.182a83.549,83.549,0,0,1-12.16.8187c-3.0278,0-5.7534-.1191-7.9536-.2153C550.0952,524.0537,548.86,524,548,524c-4.6909,0-10.3931-1.4531-16.9956-3.1357-4.1494-1.0572-8.44-2.15-12.72-2.9288-7.3721-1.34-47.0205-9.6186-57.5035-16.6074-9.5468-6.3642-7.6269-16.0425-5.2778-20.2705l.1787-.3218.2339-.2832c.1885-.228,18.8887-22.8872,23.6919-30.5727a3.6267,3.6267,0,0,0,.6885-3.0552c-.5518-2.0059-3.1353-3.7446-4.062-4.2344-1.2759-.5957-15.1236-7.063-19.0235-9.0127-4.976-2.4878-4.1547-10.4814-1.2563-26.87.4316-2.44.9614-5.4331,1.0366-6.4936-1.0195-2.6587-9.9253-10.7119-16.9756-14.7408-7.2256-4.1289-3.8921-16.6377-.9511-27.6738.8867-3.3276,2.1015-7.8852,1.998-9.11-.3442-1.7017-6.3633-4.6075-12.4971-3.73-6.126.873-13.5638-2.1714-17.3462-4a56.0218,56.0218,0,0,0-4.8906,4.3689l-63.4209,63.42c-16.084,18.0025-42.5283,48.7466-45.2524,54.8755-3.9541,8.896-30.1167,63.6113-31.5244,66.5547a78.6166,78.6166,0,0,1-10.5938,16.9238l-35.8745,41.8535c-.5064.7857-.1772,1.0328.2373,1.3433,3.8887,2.9165,19.707,13.7944,19.8662,13.9038l58.08,42.0567L401.84,721.2554l76.1255,54.0893.1377.1182c.8355.6933,2.5425,1.5859,3.5215,1.4082C482.0894,776.7871,482.561,776.3306,483.0269,775.5156Z"/>
    </g>
    <g class="zone" id="4_Divina_Pastora" data-name="4_Divina_Pastora">
        <path class="cls-1" d="M467.9043,316.2451c-7.2483,2.7183-45.22,19.0809-51.0612,21.6005,2.7266.9037,5.5334,1.4891,7.591,1.1944,11.1474-1.5893,20.27,4.085,21.4883,10.1753.5088,2.544-.38,6.0855-2.1275,12.6441-1.2021,4.51-4.3828,16.4448-2.7383,18.709C444.5029,382.563,462,394.3364,462,402a59.94,59.94,0,0,1-1.1675,8.1006c-.8354,4.7231-2.7241,15.4018-2.13,18.772,4.896,2.3911,17.85,8.4375,17.9893,8.5029l.0977.0469c.6679.3339,6.5752,3.4311,8.2036,9.2177a11.548,11.548,0,0,1-1.6006,9.48c-4.8062,7.69-21.5654,28.0987-24.03,31.09-.78,1.629-2.2275,6.0718,2.857,9.4615,7.9467,5.2978,42.205,13.1577,54.4965,15.3926,4.5542.8281,8.9825,1.9565,13.2647,3.0478C535.8076,516.5972,541.3125,518,545,518c1.0342,0,2.3506.0576,3.8745.124,8.74.3819,26.9248,1.1748,35.1768-7.8271,11.3828-12.4175,18.8139-17.7769,30.5815-22.0562,9.7932-3.5608,102.5474-37.05,121.8007-44.0013l-12.7851-45.6608c-.0957-.3506-8.9306-32.6069-14.5781-42.02-6.0332-10.0547-22.4892-44.873-23.1875-46.35l-.1777-.4429a6.4452,6.4452,0,0,0-1.4248-2.3413l-.1631.0283-31.8779,4.981c-1.2637.2632-5.9786.9067-16.4551-.9976-10.7984-1.9633-31.6406-4.9458-31.85-4.9755A156.5013,156.5013,0,0,0,584.5,305.5c-12.8916,0-61.5913-.9907-62.0815-1.001.0234.0015-6.7325.063-19.0191,2.8985-12.9082,2.979-23.0146,5.0048-23.1147,5.0249A91.5043,91.5043,0,0,0,467.9043,316.2451Z"/>
    </g>
    <g class="zone" id="4_Tómbola_-_Rabasa" data-name="4_Tómbola_-_Rabasa">
        <path class="cls-1" d="M758.6689,523.6494c-2.9824-9.9419-13.583-49.4365-14.0322-51.1128l-6.04-21.5727c-20.4331,7.3773-111.5369,40.2708-121.2291,43.7954-10.5029,3.8193-16.9092,8.479-27.4185,19.9438a27.5822,27.5822,0,0,1-9.1336,6.4245l-44.4977,63.1092c-.34.562-5.542,9.6948,7.4184,21.8452,13.4507,12.61,39.9572,36.8326,47.747,43.9435l30.734-28.899c2.9244-2.9192,9.4324-8.9139,14.9626-10.3842l123.8492-82.7208A12.12,12.12,0,0,1,758.6689,523.6494Z"/>
    </g>
    <g class="zone" id="4_Los_Ángeles_-_San_Agustín" data-name="4_Los_Ángeles_-_San_Agustín">
        <path class="cls-1" d="M710.9092,697.374l.1689.3369a11.8145,11.8145,0,0,0,1.6407,2.3829c.0634-.1114.1318-.2383.2031-.3829,3.997-7.9931,26.1484-47.49,27.09-49.1679a39.8366,39.8366,0,0,1,14.5459-13.54c8.832-4.9067,79.1612-47.4951,79.87-47.9248l27.2832-16.1562c.4268-.2134,10.5489-5.2442,19.9209-7.3272,8.8047-1.9565,30.5967-7.8945,30.8155-7.9541l.3955-.0869c2.041-.418,1.81-1.8047,1.7119-2.3965-.9483-5.6865-5.6641-27.4292-5.95-28.7471l-1.9961-7.9829c-.3027-.8945-1.5918-1.249-3.543-.9677-6.9541.9931-45.4345,5.8046-47.0693,6.0092l-69.4541,9.4937a37.6279,37.6279,0,0,1-16.156-1.2354L647.7416,613.6437c5.959,8.4636,40.0213,53.3748,62.9391,83.431Z"/>
    </g>
    <g id="_Strokes">
        <path class="cls-2" d="M684.5,302l-32,5s-4,1-15-1-32-5-32-5a157.4058,157.4058,0,0,0-20-1c-13,0-62-1-62-1s-7,0-20,3-23,5-23,5a93.4745,93.4745,0,0,0-13,4c-8,3-52,22-52,22s-6,2-14,10L338,406.5s-42,47-46,56S260.5,529,260.5,529a75.1442,75.1442,0,0,1-10,16l-36,42s-3,4,1,7,20,14,20,14l58,42,104,75,76,54s7,6,11-1,24-33,24-33l24-34a122.1647,122.1647,0,0,1,15-16l45-40L626,623.5s13.5-13.5,16.5-8.5,64,85,64,85,5,10,9,2,27-49,27-49a35.8576,35.8576,0,0,1,13-12c9-5,80-48,80-48l27-16s10-5,19-7,31-8,31-8,6-1,5-7-6-29-6-29l-2-8s-1-5-8-4-47,6-47,6L785,529.5s-18.5,2.5-21.5-7.5-14-51-14-51l-21-75s-9-33-15-43-23-46-23-46S688.5,301,684.5,302Z"/>
        <path class="cls-2" d="M408.8235,336.754S419,342.5,426,341.5s16,2,17,7-10,30-3,34,19,14,19,18-6,28-2,30,19,9,19,9,10,5,5,13-24,31-24,31-5,9,4,15,45,14,56,16,22,6,29,6,31,3,42-9,18-17,29-21,125.2871-45.26,125.2871-45.26"/>
        <path class="cls-2" d="M579.1737,517.4322,534,581.5s-8,12,8,27,50,46,50,46"/>
        <line class="cls-2" x1="639.8633" y1="613.9277" x2="768.8687" y2="527.7627"/>
    </g>
    <g id="Textos" class="text">
        <g class="st2">
            <path class="st3" d="M287.1,571.6c-0.9-0.5-1.5-1.1-2-1.9c-0.5-0.8-0.7-1.8-0.7-2.8c0-1,0.2-2,0.7-2.8c0.5-0.8,1.2-1.5,2-1.9
			c0.9-0.5,1.8-0.7,2.9-0.7c0.9,0,1.7,0.2,2.5,0.5c0.7,0.3,1.4,0.8,1.9,1.4l-1.6,1.4c-0.7-0.8-1.6-1.2-2.6-1.2
			c-0.6,0-1.2,0.1-1.7,0.4c-0.5,0.3-0.9,0.7-1.2,1.2c-0.3,0.5-0.4,1.1-0.4,1.7s0.1,1.2,0.4,1.7c0.3,0.5,0.7,0.9,1.2,1.2
			c0.5,0.3,1.1,0.4,1.7,0.4c1.1,0,1.9-0.4,2.6-1.2l1.6,1.4c-0.5,0.6-1.1,1.1-1.9,1.4c-0.7,0.3-1.6,0.5-2.5,0.5
			C289,572.3,288,572,287.1,571.6z"/>
            <path class="st3" d="M296,562.5c-0.3-0.3-0.4-0.6-0.4-0.9c0-0.4,0.1-0.7,0.4-0.9s0.6-0.4,1-0.4c0.4,0,0.8,0.1,1,0.4
			s0.4,0.5,0.4,0.9c0,0.4-0.1,0.7-0.4,1c-0.3,0.3-0.6,0.4-1,0.4C296.6,562.9,296.2,562.8,296,562.5z M295.8,564h2.3v8.1h-2.3V564z"/>
            <path class="st3" d="M308.5,564v8.1h-2.2v-1c-0.3,0.4-0.7,0.6-1.1,0.8s-0.9,0.3-1.4,0.3c-1.1,0-1.9-0.3-2.5-0.9
			c-0.6-0.6-0.9-1.5-0.9-2.7V564h2.3v4.2c0,1.3,0.5,1.9,1.6,1.9c0.6,0,1-0.2,1.4-0.5s0.5-0.9,0.5-1.6v-4H308.5z"/>
            <path class="st3" d="M318.9,561v11.1h-2.2v-0.9c-0.6,0.7-1.4,1-2.5,1c-0.8,0-1.4-0.2-2.1-0.5c-0.6-0.3-1.1-0.8-1.4-1.5
			c-0.4-0.6-0.5-1.4-0.5-2.2s0.2-1.6,0.5-2.2c0.3-0.6,0.8-1.1,1.4-1.5c0.6-0.3,1.3-0.5,2.1-0.5c1,0,1.8,0.3,2.4,1V561H318.9z
			 M316,569.7c0.4-0.4,0.6-0.9,0.6-1.6s-0.2-1.2-0.6-1.6c-0.4-0.4-0.9-0.6-1.5-0.6c-0.6,0-1.1,0.2-1.5,0.6c-0.4,0.4-0.6,0.9-0.6,1.6
			s0.2,1.2,0.6,1.6c0.4,0.4,0.9,0.6,1.5,0.6C315.1,570.3,315.6,570.1,316,569.7z"/>
        </g>
        <g class="st2">
            <path class="st3" d="M327.2,564.8c0.7,0.6,1,1.5,1,2.7v4.6H326v-1c-0.4,0.8-1.3,1.1-2.5,1.1c-0.6,0-1.2-0.1-1.6-0.3
			c-0.5-0.2-0.8-0.5-1-0.9c-0.2-0.4-0.4-0.8-0.4-1.3c0-0.8,0.3-1.3,0.8-1.8s1.4-0.6,2.6-0.6h1.9c0-0.5-0.2-0.9-0.5-1.2
			c-0.3-0.3-0.8-0.4-1.4-0.4c-0.4,0-0.9,0.1-1.3,0.2c-0.4,0.1-0.8,0.3-1.1,0.5l-0.8-1.6c0.4-0.3,1-0.6,1.6-0.7s1.2-0.3,1.9-0.3
			C325.5,563.9,326.5,564.2,327.2,564.8z M325.2,570.4c0.3-0.2,0.5-0.5,0.7-0.8v-0.8h-1.6c-1,0-1.4,0.3-1.4,0.9
			c0,0.3,0.1,0.5,0.4,0.7c0.2,0.2,0.6,0.3,1,0.3C324.5,570.6,324.9,570.5,325.2,570.4z"/>
        </g>
        <g class="st2">
            <path class="st3" d="M338.6,561v11.1h-2.2v-0.9c-0.6,0.7-1.4,1-2.5,1c-0.8,0-1.4-0.2-2.1-0.5c-0.6-0.3-1.1-0.8-1.4-1.5
			c-0.4-0.6-0.5-1.4-0.5-2.2s0.2-1.6,0.5-2.2c0.3-0.6,0.8-1.1,1.4-1.5c0.6-0.3,1.3-0.5,2.1-0.5c1,0,1.8,0.3,2.4,1V561H338.6z
			 M335.7,569.7c0.4-0.4,0.6-0.9,0.6-1.6s-0.2-1.2-0.6-1.6c-0.4-0.4-0.9-0.6-1.5-0.6c-0.6,0-1.1,0.2-1.5,0.6
			c-0.4,0.4-0.6,0.9-0.6,1.6s0.2,1.2,0.6,1.6c0.4,0.4,0.9,0.6,1.5,0.6C334.8,570.3,335.3,570.1,335.7,569.7z"/>
            <path class="st3" d="M353.2,561v11.1H351v-0.9c-0.6,0.7-1.4,1-2.5,1c-0.8,0-1.4-0.2-2.1-0.5c-0.6-0.3-1.1-0.8-1.4-1.5
			c-0.4-0.6-0.5-1.4-0.5-2.2s0.2-1.6,0.5-2.2c0.3-0.6,0.8-1.1,1.4-1.5c0.6-0.3,1.3-0.5,2.1-0.5c1,0,1.8,0.3,2.4,1V561H353.2z
			 M350.3,569.7c0.4-0.4,0.6-0.9,0.6-1.6s-0.2-1.2-0.6-1.6c-0.4-0.4-0.9-0.6-1.5-0.6c-0.6,0-1.1,0.2-1.5,0.6
			c-0.4,0.4-0.6,0.9-0.6,1.6s0.2,1.2,0.6,1.6c0.4,0.4,0.9,0.6,1.5,0.6C349.5,570.3,350,570.1,350.3,569.7z"/>
            <path class="st3" d="M363.2,568.7h-6.1c0.1,0.5,0.4,0.9,0.8,1.2c0.4,0.3,0.9,0.4,1.5,0.4c0.4,0,0.8-0.1,1.1-0.2
			c0.3-0.1,0.6-0.3,0.9-0.6l1.2,1.3c-0.8,0.9-1.9,1.3-3.3,1.3c-0.9,0-1.7-0.2-2.4-0.5c-0.7-0.4-1.2-0.8-1.6-1.5
			c-0.4-0.6-0.6-1.3-0.6-2.1c0-0.8,0.2-1.5,0.6-2.1c0.4-0.6,0.9-1.1,1.5-1.5s1.4-0.5,2.2-0.5c0.8,0,1.5,0.2,2.1,0.5
			c0.6,0.3,1.1,0.8,1.5,1.5c0.4,0.6,0.5,1.4,0.5,2.2C363.3,568.1,363.3,568.3,363.2,568.7z M357.8,566.1c-0.4,0.3-0.6,0.7-0.7,1.2h4
			c-0.1-0.5-0.3-0.9-0.7-1.2c-0.4-0.3-0.8-0.5-1.3-0.5C358.6,565.7,358.1,565.8,357.8,566.1z"/>
        </g>
        <g class="st2">
            <path class="st3" d="M376.2,569.8h-4.9l-0.9,2.3h-2.5l4.7-10.5h2.4l4.7,10.5h-2.6L376.2,569.8z M375.4,568l-1.7-4l-1.7,4H375.4z"/>
        </g>
        <g class="st2">
            <path class="st3" d="M381.3,572c-0.6-0.2-1.2-0.4-1.5-0.6l0.8-1.7c0.4,0.2,0.8,0.4,1.3,0.6c0.5,0.1,1,0.2,1.5,0.2
			c1,0,1.5-0.2,1.5-0.7c0-0.2-0.1-0.4-0.4-0.5s-0.7-0.2-1.2-0.3c-0.7-0.1-1.2-0.2-1.6-0.3c-0.4-0.1-0.8-0.4-1.1-0.7
			c-0.3-0.3-0.5-0.8-0.5-1.4c0-0.5,0.1-1,0.4-1.4s0.7-0.7,1.3-0.9c0.6-0.2,1.2-0.3,2-0.3c0.6,0,1.1,0.1,1.7,0.2
			c0.6,0.1,1,0.3,1.4,0.5l-0.8,1.7c-0.7-0.4-1.5-0.6-2.3-0.6c-0.5,0-0.9,0.1-1.1,0.2c-0.3,0.1-0.4,0.3-0.4,0.5
			c0,0.3,0.1,0.4,0.4,0.5c0.3,0.1,0.7,0.2,1.3,0.3c0.7,0.1,1.2,0.2,1.6,0.4s0.8,0.4,1.1,0.7c0.3,0.3,0.5,0.8,0.5,1.4
			c0,0.5-0.1,0.9-0.5,1.3c-0.3,0.4-0.7,0.7-1.3,0.9c-0.6,0.2-1.3,0.3-2,0.3C382.6,572.2,381.9,572.1,381.3,572z"/>
            <path class="st3" d="M390.3,560.8h2.5l-2.7,2.2h-1.8L390.3,560.8z M388.5,564h2.3v8.1h-2.3V564z"/>
            <path class="st3" d="M393.7,572c-0.6-0.2-1.2-0.4-1.5-0.6l0.8-1.7c0.4,0.2,0.8,0.4,1.3,0.6c0.5,0.1,1,0.2,1.5,0.2
			c1,0,1.5-0.2,1.5-0.7c0-0.2-0.1-0.4-0.4-0.5s-0.7-0.2-1.2-0.3c-0.7-0.1-1.2-0.2-1.6-0.3c-0.4-0.1-0.8-0.4-1.1-0.7
			c-0.3-0.3-0.5-0.8-0.5-1.4c0-0.5,0.1-1,0.4-1.4s0.7-0.7,1.3-0.9c0.6-0.2,1.2-0.3,2-0.3c0.6,0,1.1,0.1,1.7,0.2
			c0.6,0.1,1,0.3,1.4,0.5l-0.8,1.7c-0.7-0.4-1.5-0.6-2.3-0.6c-0.5,0-0.9,0.1-1.1,0.2c-0.3,0.1-0.4,0.3-0.4,0.5
			c0,0.3,0.1,0.4,0.4,0.5c0.3,0.1,0.7,0.2,1.3,0.3c0.7,0.1,1.2,0.2,1.6,0.4s0.8,0.4,1.1,0.7c0.3,0.3,0.5,0.8,0.5,1.4
			c0,0.5-0.1,0.9-0.5,1.3c-0.3,0.4-0.7,0.7-1.3,0.9c-0.6,0.2-1.3,0.3-2,0.3C395,572.2,394.4,572.1,393.7,572z"/>
            <path class="st3" d="M404.9,566.9h4.2v1.9h-4.2V566.9z"/>
        </g>
        <g class="st2">
            <path class="st3" d="M417.8,563.5v2.8h4.9v1.9h-4.9v3.8h-2.4v-10.5h7.9v1.9H417.8z"/>
        </g>
        <g class="st2">
            <path class="st3" d="M426.2,571.7c-0.7-0.4-1.2-0.8-1.6-1.5c-0.4-0.6-0.6-1.3-0.6-2.1s0.2-1.5,0.6-2.1c0.4-0.6,0.9-1.1,1.6-1.5
			c0.7-0.4,1.4-0.5,2.3-0.5s1.6,0.2,2.3,0.5c0.7,0.4,1.2,0.8,1.6,1.5c0.4,0.6,0.6,1.3,0.6,2.1s-0.2,1.5-0.6,2.1
			c-0.4,0.6-0.9,1.1-1.6,1.5c-0.7,0.4-1.4,0.5-2.3,0.5S426.8,572,426.2,571.7z M429.9,569.7c0.4-0.4,0.6-0.9,0.6-1.6
			s-0.2-1.2-0.6-1.6c-0.4-0.4-0.9-0.6-1.5-0.6s-1.1,0.2-1.5,0.6c-0.4,0.4-0.6,0.9-0.6,1.6s0.2,1.2,0.6,1.6s0.9,0.6,1.5,0.6
			S429.5,570.1,429.9,569.7z"/>
            <path class="st3" d="M441.8,564.8c0.6,0.6,0.9,1.5,0.9,2.7v4.6h-2.3v-4.3c0-0.6-0.1-1.1-0.4-1.4s-0.7-0.5-1.2-0.5
			c-0.6,0-1.1,0.2-1.4,0.5s-0.5,0.9-0.5,1.6v4h-2.3V564h2.2v0.9c0.3-0.3,0.7-0.6,1.2-0.8c0.5-0.2,1-0.3,1.5-0.3
			C440.3,563.9,441.1,564.2,441.8,564.8z"/>
            <path class="st3" d="M450,571.7c-0.2,0.2-0.5,0.3-0.8,0.4c-0.3,0.1-0.7,0.1-1.1,0.1c-1,0-1.7-0.2-2.2-0.7
			c-0.5-0.5-0.8-1.2-0.8-2.2V566h-1.2v-1.8h1.2v-2h2.3v2h2v1.8h-2v3.3c0,0.3,0.1,0.6,0.3,0.8c0.2,0.2,0.4,0.3,0.7,0.3
			c0.4,0,0.7-0.1,0.9-0.3L450,571.7z"/>
        </g>
        <g class="st2">
            <path class="st3" d="M457.9,571.6c-0.9-0.5-1.5-1.1-2-1.9c-0.5-0.8-0.7-1.8-0.7-2.8c0-1,0.2-2,0.7-2.8c0.5-0.8,1.2-1.5,2-1.9
			c0.9-0.5,1.8-0.7,2.9-0.7c0.9,0,1.7,0.2,2.5,0.5c0.7,0.3,1.4,0.8,1.9,1.4l-1.6,1.4c-0.7-0.8-1.6-1.2-2.6-1.2
			c-0.6,0-1.2,0.1-1.7,0.4c-0.5,0.3-0.9,0.7-1.2,1.2c-0.3,0.5-0.4,1.1-0.4,1.7s0.1,1.2,0.4,1.7c0.3,0.5,0.7,0.9,1.2,1.2
			c0.5,0.3,1.1,0.4,1.7,0.4c1.1,0,1.9-0.4,2.6-1.2l1.6,1.4c-0.5,0.6-1.1,1.1-1.9,1.4c-0.7,0.3-1.6,0.5-2.5,0.5
			C459.7,572.3,458.7,572,457.9,571.6z"/>
        </g>
        <g class="st2">
            <path class="st3" d="M472.6,564.8c0.7,0.6,1,1.5,1,2.7v4.6h-2.2v-1c-0.4,0.8-1.3,1.1-2.5,1.1c-0.6,0-1.2-0.1-1.6-0.3
			c-0.5-0.2-0.8-0.5-1-0.9c-0.2-0.4-0.4-0.8-0.4-1.3c0-0.8,0.3-1.3,0.8-1.8s1.4-0.6,2.6-0.6h1.9c0-0.5-0.2-0.9-0.5-1.2
			c-0.3-0.3-0.8-0.4-1.4-0.4c-0.4,0-0.9,0.1-1.3,0.2c-0.4,0.1-0.8,0.3-1.1,0.5l-0.8-1.6c0.4-0.3,1-0.6,1.6-0.7s1.2-0.3,1.9-0.3
			C471,563.9,472,564.2,472.6,564.8z M470.6,570.4c0.3-0.2,0.5-0.5,0.7-0.8v-0.8h-1.6c-1,0-1.4,0.3-1.4,0.9c0,0.3,0.1,0.5,0.4,0.7
			c0.2,0.2,0.6,0.3,1,0.3C470,570.6,470.3,570.5,470.6,570.4z"/>
            <path class="st3" d="M475.8,561h2.3v11.1h-2.3V561z"/>
            <path class="st3" d="M488.1,568.7H482c0.1,0.5,0.4,0.9,0.8,1.2c0.4,0.3,0.9,0.4,1.5,0.4c0.4,0,0.8-0.1,1.1-0.2
			c0.3-0.1,0.6-0.3,0.9-0.6l1.2,1.3c-0.8,0.9-1.9,1.3-3.3,1.3c-0.9,0-1.7-0.2-2.4-0.5c-0.7-0.4-1.2-0.8-1.6-1.5
			c-0.4-0.6-0.6-1.3-0.6-2.1c0-0.8,0.2-1.5,0.6-2.1c0.4-0.6,0.9-1.1,1.5-1.5s1.4-0.5,2.2-0.5c0.8,0,1.5,0.2,2.1,0.5
			c0.6,0.3,1.1,0.8,1.5,1.5c0.4,0.6,0.5,1.4,0.5,2.2C488.2,568.1,488.2,568.3,488.1,568.7z M482.7,566.1c-0.4,0.3-0.6,0.7-0.7,1.2h4
			c-0.1-0.5-0.3-0.9-0.7-1.2c-0.4-0.3-0.8-0.5-1.3-0.5C483.5,565.7,483,565.8,482.7,566.1z"/>
            <path class="st3" d="M497.1,564.8c0.6,0.6,0.9,1.5,0.9,2.7v4.6h-2.3v-4.3c0-0.6-0.1-1.1-0.4-1.4s-0.7-0.5-1.2-0.5
			c-0.6,0-1.1,0.2-1.4,0.5s-0.5,0.9-0.5,1.6v4h-2.3V564h2.2v0.9c0.3-0.3,0.7-0.6,1.2-0.8c0.5-0.2,1-0.3,1.5-0.3
			C495.6,563.9,496.4,564.2,497.1,564.8z"/>
            <path class="st3" d="M505.3,571.7c-0.2,0.2-0.5,0.3-0.8,0.4c-0.3,0.1-0.7,0.1-1.1,0.1c-1,0-1.7-0.2-2.2-0.7
			c-0.5-0.5-0.8-1.2-0.8-2.2V566h-1.2v-1.8h1.2v-2h2.3v2h2v1.8h-2v3.3c0,0.3,0.1,0.6,0.3,0.8c0.2,0.2,0.4,0.3,0.7,0.3
			c0.4,0,0.7-0.1,0.9-0.3L505.3,571.7z"/>
        </g>
        <g class="st2">
            <path class="st3" d="M350.2,584.9h4.2v1.9h-4.2V584.9z"/>
            <path class="st3" d="M368.8,588.1v2h-8.1v-10.5h7.9v1.9h-5.5v2.3h4.9v1.9h-4.9v2.4H368.8z"/>
            <path class="st3" d="M370.6,579h2.3v11.1h-2.3V579z"/>
            <path class="st3" d="M388.6,585.6c0.3,0.4,0.5,1,0.5,1.6c0,0.9-0.4,1.6-1.1,2.1c-0.7,0.5-1.8,0.7-3.1,0.7h-5.4v-10.5h5.1
			c1.3,0,2.3,0.2,2.9,0.7s1,1.2,1,2c0,0.5-0.1,1-0.4,1.4c-0.2,0.4-0.6,0.7-1,0.9C387.8,584.8,388.3,585.1,388.6,585.6z M381.9,581.4
			v2.5h2.4c0.6,0,1.1-0.1,1.4-0.3c0.3-0.2,0.5-0.5,0.5-0.9c0-0.4-0.2-0.7-0.5-0.9s-0.8-0.3-1.4-0.3H381.9z M386.2,587.9
			c0.3-0.2,0.5-0.5,0.5-1c0-0.9-0.6-1.3-1.9-1.3h-2.8v2.6h2.8C385.4,588.3,385.9,588.2,386.2,587.9z"/>
        </g>
        <g class="st2">
            <path class="st3" d="M397,582.8c0.7,0.6,1,1.5,1,2.7v4.6h-2.2v-1c-0.4,0.8-1.3,1.1-2.5,1.1c-0.6,0-1.2-0.1-1.6-0.3
			c-0.5-0.2-0.8-0.5-1-0.9c-0.2-0.4-0.4-0.8-0.4-1.3c0-0.8,0.3-1.3,0.8-1.8s1.4-0.6,2.6-0.6h1.9c0-0.5-0.2-0.9-0.5-1.2
			c-0.3-0.3-0.8-0.4-1.4-0.4c-0.4,0-0.9,0.1-1.3,0.2c-0.4,0.1-0.8,0.3-1.1,0.5l-0.8-1.6c0.4-0.3,1-0.6,1.6-0.7s1.2-0.3,1.9-0.3
			C395.3,581.9,396.3,582.2,397,582.8z M395,588.4c0.3-0.2,0.5-0.5,0.7-0.8v-0.8H394c-1,0-1.4,0.3-1.4,0.9c0,0.3,0.1,0.5,0.4,0.7
			c0.2,0.2,0.6,0.3,1,0.3C394.3,588.6,394.7,588.5,395,588.4z"/>
        </g>
        <g class="st2">
            <path class="st3" d="M401.8,589.7c-0.7-0.4-1.2-0.8-1.6-1.5c-0.4-0.6-0.6-1.3-0.6-2.1s0.2-1.5,0.6-2.1c0.4-0.6,0.9-1.1,1.6-1.5
			c0.7-0.4,1.5-0.5,2.3-0.5c0.9,0,1.6,0.2,2.2,0.5c0.6,0.4,1.1,0.9,1.4,1.5l-1.8,1c-0.4-0.7-1-1.1-1.8-1.1c-0.6,0-1.1,0.2-1.5,0.6
			c-0.4,0.4-0.6,0.9-0.6,1.6s0.2,1.2,0.6,1.6c0.4,0.4,0.9,0.6,1.5,0.6c0.8,0,1.4-0.4,1.8-1.1l1.8,1c-0.3,0.6-0.8,1.1-1.4,1.5
			c-0.6,0.4-1.4,0.5-2.2,0.5C403.2,590.2,402.4,590,401.8,589.7z"/>
            <path class="st3" d="M415.2,582.8c0.7,0.6,1,1.5,1,2.7v4.6H414v-1c-0.4,0.8-1.3,1.1-2.5,1.1c-0.6,0-1.2-0.1-1.6-0.3
			c-0.5-0.2-0.8-0.5-1-0.9c-0.2-0.4-0.4-0.8-0.4-1.3c0-0.8,0.3-1.3,0.8-1.8s1.4-0.6,2.6-0.6h1.9c0-0.5-0.2-0.9-0.5-1.2
			c-0.3-0.3-0.8-0.4-1.4-0.4c-0.4,0-0.9,0.1-1.3,0.2c-0.4,0.1-0.8,0.3-1.1,0.5l-0.8-1.6c0.4-0.3,1-0.6,1.6-0.7s1.2-0.3,1.9-0.3
			C413.5,581.9,414.5,582.2,415.2,582.8z M413.2,588.4c0.3-0.2,0.5-0.5,0.7-0.8v-0.8h-1.6c-1,0-1.4,0.3-1.4,0.9
			c0,0.3,0.1,0.5,0.4,0.7c0.2,0.2,0.6,0.3,1,0.3C412.5,588.6,412.9,588.5,413.2,588.4z"/>
        </g>
        <g class="st2">
            <path class="st3" d="M421.7,582.2c0.5-0.2,1-0.3,1.6-0.3v2.2c-0.3,0-0.4,0-0.5,0c-0.7,0-1.2,0.2-1.6,0.6c-0.4,0.4-0.6,0.9-0.6,1.7
			v3.8h-2.3V582h2.2v1.1C420.8,582.7,421.2,582.4,421.7,582.2z"/>
        </g>
        <g class="st2">
            <path class="st3" d="M426.2,589.7c-0.7-0.4-1.2-0.8-1.6-1.5c-0.4-0.6-0.6-1.3-0.6-2.1s0.2-1.5,0.6-2.1c0.4-0.6,0.9-1.1,1.6-1.5
			c0.7-0.4,1.4-0.5,2.3-0.5s1.6,0.2,2.3,0.5c0.7,0.4,1.2,0.8,1.6,1.5c0.4,0.6,0.6,1.3,0.6,2.1s-0.2,1.5-0.6,2.1
			c-0.4,0.6-0.9,1.1-1.6,1.5c-0.7,0.4-1.4,0.5-2.3,0.5S426.8,590,426.2,589.7z M429.9,587.7c0.4-0.4,0.6-0.9,0.6-1.6
			s-0.2-1.2-0.6-1.6c-0.4-0.4-0.9-0.6-1.5-0.6s-1.1,0.2-1.5,0.6c-0.4,0.4-0.6,0.9-0.6,1.6s0.2,1.2,0.6,1.6s0.9,0.6,1.5,0.6
			S429.6,588.1,429.9,587.7z"/>
            <path class="st3" d="M439.7,589.7c-0.2,0.2-0.5,0.3-0.8,0.4c-0.3,0.1-0.7,0.1-1.1,0.1c-1,0-1.7-0.2-2.2-0.7
			c-0.5-0.5-0.8-1.2-0.8-2.2V584h-1.2v-1.8h1.2v-2h2.3v2h2v1.8h-2v3.3c0,0.3,0.1,0.6,0.3,0.8c0.2,0.2,0.4,0.3,0.7,0.3
			c0.4,0,0.7-0.1,0.9-0.3L439.7,589.7z"/>
        </g>
        <g class="st2">
            <path class="st3" d="M533.9,401.6h4.8c1.1,0,2.1,0.2,3,0.7c0.9,0.4,1.6,1,2,1.8s0.7,1.7,0.7,2.8s-0.2,2-0.7,2.8s-1.2,1.4-2,1.8
			c-0.9,0.4-1.9,0.7-3,0.7h-4.8V401.6z M538.5,410.1c1,0,1.9-0.3,2.5-0.9s0.9-1.4,0.9-2.4s-0.3-1.8-0.9-2.4s-1.5-0.9-2.5-0.9h-2.2
			v6.5H538.5z"/>
            <path class="st3" d="M546.2,402.5c-0.3-0.3-0.4-0.6-0.4-0.9s0.1-0.7,0.4-0.9c0.3-0.3,0.6-0.4,1-0.4c0.4,0,0.8,0.1,1,0.4
			c0.3,0.2,0.4,0.5,0.4,0.9c0,0.4-0.1,0.7-0.4,1c-0.3,0.3-0.6,0.4-1,0.4C546.9,402.9,546.5,402.8,546.2,402.5z M546.1,404h2.3v8.1
			h-2.3V404z"/>
            <path class="st3" d="M558.6,404l-3.4,8.1h-2.4l-3.4-8.1h2.4l2.2,5.5l2.3-5.5H558.6z"/>
            <path class="st3" d="M559.7,402.5c-0.3-0.3-0.4-0.6-0.4-0.9s0.1-0.7,0.4-0.9c0.3-0.3,0.6-0.4,1-0.4s0.8,0.1,1,0.4
			c0.3,0.2,0.4,0.5,0.4,0.9c0,0.4-0.1,0.7-0.4,1c-0.3,0.3-0.6,0.4-1,0.4S560,402.8,559.7,402.5z M559.6,404h2.3v8.1h-2.3V404z"/>
            <path class="st3" d="M571.4,404.8c0.6,0.6,0.9,1.5,0.9,2.7v4.6H570v-4.3c0-0.6-0.1-1.1-0.4-1.4c-0.3-0.3-0.7-0.5-1.2-0.5
			c-0.6,0-1.1,0.2-1.4,0.5c-0.3,0.4-0.5,0.9-0.5,1.6v4h-2.3V404h2.2v0.9c0.3-0.3,0.7-0.6,1.2-0.8c0.5-0.2,1-0.3,1.5-0.3
			C570,403.9,570.8,404.2,571.4,404.8z"/>
            <path class="st3" d="M580.6,404.8c0.7,0.6,1,1.5,1,2.7v4.6h-2.2v-1c-0.4,0.8-1.3,1.1-2.5,1.1c-0.6,0-1.2-0.1-1.6-0.3
			s-0.8-0.5-1-0.9c-0.2-0.4-0.4-0.8-0.4-1.3c0-0.8,0.3-1.3,0.8-1.8c0.6-0.4,1.4-0.6,2.6-0.6h1.9c0-0.5-0.2-0.9-0.5-1.2
			c-0.3-0.3-0.8-0.4-1.4-0.4c-0.4,0-0.9,0.1-1.3,0.2c-0.4,0.1-0.8,0.3-1.1,0.5l-0.8-1.6c0.4-0.3,1-0.5,1.6-0.7s1.2-0.3,1.9-0.3
			C579,403.9,580,404.2,580.6,404.8z M578.6,410.4c0.3-0.2,0.5-0.5,0.7-0.8v-0.8h-1.6c-1,0-1.4,0.3-1.4,0.9c0,0.3,0.1,0.5,0.4,0.7
			c0.2,0.2,0.6,0.3,1,0.3C578,410.6,578.3,410.5,578.6,410.4z"/>
        </g>
        <g class="st2">
            <path class="st3" d="M595.1,402.1c0.7,0.3,1.2,0.8,1.6,1.3s0.6,1.2,0.6,2c0,0.8-0.2,1.4-0.6,2c-0.4,0.6-0.9,1-1.6,1.3
			c-0.7,0.3-1.5,0.5-2.4,0.5h-2.1v2.9h-2.4v-10.5h4.5C593.6,401.6,594.4,401.7,595.1,402.1z M594.2,406.7c0.4-0.3,0.6-0.8,0.6-1.3
			c0-0.6-0.2-1-0.6-1.4c-0.4-0.3-0.9-0.5-1.7-0.5h-2v3.6h2C593.3,407.2,593.8,407.1,594.2,406.7z"/>
        </g>
        <g class="st2">
            <path class="st3" d="M604.9,404.8c0.7,0.6,1,1.5,1,2.7v4.6h-2.2v-1c-0.4,0.8-1.3,1.1-2.5,1.1c-0.6,0-1.2-0.1-1.6-0.3
			s-0.8-0.5-1-0.9c-0.2-0.4-0.4-0.8-0.4-1.3c0-0.8,0.3-1.3,0.8-1.8c0.6-0.4,1.4-0.6,2.6-0.6h1.9c0-0.5-0.2-0.9-0.5-1.2
			c-0.3-0.3-0.8-0.4-1.4-0.4c-0.4,0-0.9,0.1-1.3,0.2c-0.4,0.1-0.8,0.3-1.1,0.5l-0.8-1.6c0.4-0.3,1-0.5,1.6-0.7s1.2-0.3,1.9-0.3
			C603.2,403.9,604.2,404.2,604.9,404.8z M602.9,410.4c0.3-0.2,0.5-0.5,0.7-0.8v-0.8h-1.6c-1,0-1.4,0.3-1.4,0.9
			c0,0.3,0.1,0.5,0.4,0.7c0.2,0.2,0.6,0.3,1,0.3C602.2,410.6,602.6,410.5,602.9,410.4z"/>
            <path class="st3" d="M608.7,412c-0.6-0.2-1.2-0.4-1.5-0.6l0.8-1.7c0.4,0.2,0.8,0.4,1.3,0.6c0.5,0.1,1,0.2,1.5,0.2
			c1,0,1.5-0.2,1.5-0.7c0-0.2-0.1-0.4-0.4-0.5c-0.3-0.1-0.7-0.2-1.2-0.3c-0.7-0.1-1.2-0.2-1.6-0.3c-0.4-0.1-0.8-0.4-1.1-0.7
			s-0.5-0.8-0.5-1.4c0-0.5,0.1-1,0.4-1.4c0.3-0.4,0.7-0.7,1.3-0.9c0.6-0.2,1.2-0.3,2-0.3c0.6,0,1.1,0.1,1.7,0.2
			c0.6,0.1,1,0.3,1.4,0.5l-0.8,1.7c-0.7-0.4-1.5-0.6-2.3-0.6c-0.5,0-0.9,0.1-1.1,0.2s-0.4,0.3-0.4,0.5c0,0.3,0.1,0.4,0.4,0.5
			c0.3,0.1,0.7,0.2,1.3,0.3c0.7,0.1,1.2,0.2,1.6,0.4s0.8,0.4,1.1,0.7c0.3,0.3,0.5,0.8,0.5,1.4c0,0.5-0.2,0.9-0.5,1.3
			c-0.3,0.4-0.7,0.7-1.3,0.9s-1.3,0.3-2,0.3C610,412.2,609.4,412.1,608.7,412z"/>
        </g>
        <g class="st2">
            <path class="st3" d="M621.2,411.7c-0.2,0.2-0.5,0.3-0.8,0.4s-0.7,0.1-1.1,0.1c-1,0-1.7-0.2-2.2-0.7c-0.5-0.5-0.8-1.2-0.8-2.2V406
			H615v-1.8h1.2v-2h2.3v2h2v1.8h-2v3.3c0,0.3,0.1,0.6,0.3,0.8c0.2,0.2,0.4,0.3,0.7,0.3c0.4,0,0.7-0.1,0.9-0.3L621.2,411.7z"/>
        </g>
        <g class="st2">
            <path class="st3" d="M623.8,411.7c-0.7-0.4-1.2-0.8-1.6-1.5s-0.6-1.3-0.6-2.1c0-0.8,0.2-1.5,0.6-2.1s0.9-1.1,1.6-1.5
			c0.7-0.4,1.4-0.5,2.3-0.5s1.6,0.2,2.3,0.5c0.7,0.4,1.2,0.8,1.6,1.5c0.4,0.6,0.6,1.3,0.6,2.1c0,0.8-0.2,1.5-0.6,2.1
			c-0.4,0.6-0.9,1.1-1.6,1.5c-0.7,0.4-1.4,0.5-2.3,0.5S624.5,412,623.8,411.7z M627.5,409.7c0.4-0.4,0.6-0.9,0.6-1.6
			c0-0.7-0.2-1.2-0.6-1.6c-0.4-0.4-0.9-0.6-1.5-0.6s-1.1,0.2-1.5,0.6c-0.4,0.4-0.6,0.9-0.6,1.6c0,0.7,0.2,1.2,0.6,1.6
			c0.4,0.4,0.9,0.6,1.5,0.6S627.2,410.1,627.5,409.7z"/>
        </g>
        <g class="st2">
            <path class="st3" d="M635.4,404.2c0.5-0.2,1-0.3,1.6-0.3v2.2c-0.3,0-0.4,0-0.5,0c-0.7,0-1.2,0.2-1.6,0.6s-0.6,0.9-0.6,1.7v3.8
			h-2.3V404h2.2v1.1C634.6,404.7,634.9,404.4,635.4,404.2z"/>
        </g>
        <g class="st2">
            <path class="st3" d="M644.6,404.8c0.7,0.6,1,1.5,1,2.7v4.6h-2.2v-1c-0.4,0.8-1.3,1.1-2.5,1.1c-0.6,0-1.2-0.1-1.6-0.3
			s-0.8-0.5-1-0.9c-0.2-0.4-0.4-0.8-0.4-1.3c0-0.8,0.3-1.3,0.8-1.8c0.6-0.4,1.4-0.6,2.6-0.6h1.9c0-0.5-0.2-0.9-0.5-1.2
			c-0.3-0.3-0.8-0.4-1.4-0.4c-0.4,0-0.9,0.1-1.3,0.2c-0.4,0.1-0.8,0.3-1.1,0.5l-0.8-1.6c0.4-0.3,1-0.5,1.6-0.7s1.2-0.3,1.9-0.3
			C642.9,403.9,643.9,404.2,644.6,404.8z M642.6,410.4c0.3-0.2,0.5-0.5,0.7-0.8v-0.8h-1.6c-1,0-1.4,0.3-1.4,0.9
			c0,0.3,0.1,0.5,0.4,0.7c0.2,0.2,0.6,0.3,1,0.3C641.9,410.6,642.2,410.5,642.6,410.4z"/>
        </g>
        <g class="st2">
            <path class="st3" d="M582.6,581.1l-2-2.9h-0.1h-2.1v2.9h-2.4v-10.5h4.5c0.9,0,1.7,0.2,2.4,0.5c0.7,0.3,1.2,0.8,1.6,1.3
			s0.6,1.2,0.6,2c0,0.8-0.2,1.5-0.6,2c-0.4,0.6-0.9,1-1.6,1.3l2.4,3.4H582.6z M582,573c-0.4-0.3-0.9-0.5-1.7-0.5h-2v3.7h2
			c0.7,0,1.3-0.2,1.7-0.5s0.6-0.8,0.6-1.4C582.5,573.8,582.4,573.4,582,573z"/>
        </g>
        <g class="st2">
            <path class="st3" d="M592.8,573.8c0.7,0.6,1,1.5,1,2.7v4.6h-2.2v-1c-0.4,0.8-1.3,1.1-2.5,1.1c-0.6,0-1.2-0.1-1.6-0.3
			c-0.5-0.2-0.8-0.5-1-0.9c-0.2-0.4-0.4-0.8-0.4-1.3c0-0.8,0.3-1.3,0.8-1.8c0.6-0.4,1.4-0.6,2.6-0.6h1.9c0-0.5-0.2-0.9-0.5-1.2
			s-0.8-0.4-1.4-0.4c-0.4,0-0.9,0.1-1.3,0.2c-0.4,0.1-0.8,0.3-1.1,0.5l-0.8-1.6c0.4-0.3,1-0.6,1.6-0.7s1.2-0.3,1.9-0.3
			C591.2,572.9,592.1,573.2,592.8,573.8z M590.8,579.4c0.3-0.2,0.5-0.5,0.7-0.8v-0.8h-1.6c-1,0-1.4,0.3-1.4,0.9
			c0,0.3,0.1,0.5,0.4,0.7c0.2,0.2,0.6,0.3,1,0.3C590.2,579.6,590.5,579.5,590.8,579.4z"/>
        </g>
        <g class="st2">
            <path class="st3" d="M602.8,573.4c0.6,0.3,1.1,0.8,1.4,1.5c0.3,0.6,0.5,1.4,0.5,2.2s-0.2,1.6-0.5,2.2c-0.4,0.6-0.8,1.1-1.4,1.5
			c-0.6,0.3-1.3,0.5-2,0.5c-1.1,0-2-0.3-2.5-1v0.9h-2.2V570h2.3v3.9c0.6-0.7,1.4-1,2.4-1C601.5,572.9,602.1,573.1,602.8,573.4z
			 M601.8,578.7c0.4-0.4,0.6-0.9,0.6-1.6s-0.2-1.2-0.6-1.6c-0.4-0.4-0.9-0.6-1.5-0.6s-1.1,0.2-1.5,0.6c-0.4,0.4-0.6,0.9-0.6,1.6
			s0.2,1.2,0.6,1.6s0.9,0.6,1.5,0.6S601.4,579.1,601.8,578.7z"/>
        </g>
        <g class="st2">
            <path class="st3" d="M612.3,573.8c0.7,0.6,1,1.5,1,2.7v4.6h-2.2v-1c-0.4,0.8-1.3,1.1-2.5,1.1c-0.6,0-1.2-0.1-1.6-0.3
			c-0.5-0.2-0.8-0.5-1-0.9c-0.2-0.4-0.4-0.8-0.4-1.3c0-0.8,0.3-1.3,0.8-1.8c0.6-0.4,1.4-0.6,2.6-0.6h1.9c0-0.5-0.2-0.9-0.5-1.2
			c-0.3-0.3-0.8-0.4-1.4-0.4c-0.4,0-0.9,0.1-1.3,0.2c-0.4,0.1-0.8,0.3-1.1,0.5l-0.8-1.6c0.4-0.3,1-0.6,1.6-0.7s1.2-0.3,1.9-0.3
			C610.7,572.9,611.6,573.2,612.3,573.8z M610.3,579.4c0.3-0.2,0.5-0.5,0.7-0.8v-0.8h-1.6c-1,0-1.4,0.3-1.4,0.9
			c0,0.3,0.1,0.5,0.4,0.7c0.2,0.2,0.6,0.3,1,0.3C609.6,579.6,610,579.5,610.3,579.4z"/>
            <path class="st3" d="M616.2,581c-0.6-0.2-1.2-0.4-1.5-0.6l0.8-1.7c0.4,0.2,0.8,0.4,1.3,0.6c0.5,0.1,1,0.2,1.5,0.2
			c1,0,1.5-0.2,1.5-0.7c0-0.2-0.1-0.4-0.4-0.5c-0.3-0.1-0.7-0.2-1.2-0.3c-0.7-0.1-1.2-0.2-1.6-0.3c-0.4-0.1-0.8-0.4-1.1-0.7
			c-0.3-0.3-0.5-0.8-0.5-1.4c0-0.5,0.1-1,0.4-1.4s0.7-0.7,1.3-0.9c0.6-0.2,1.2-0.3,2-0.3c0.6,0,1.1,0.1,1.7,0.2
			c0.6,0.1,1,0.3,1.4,0.5l-0.8,1.7c-0.7-0.4-1.5-0.6-2.3-0.6c-0.5,0-0.9,0.1-1.1,0.2c-0.3,0.1-0.4,0.3-0.4,0.5
			c0,0.3,0.1,0.4,0.4,0.5c0.3,0.1,0.7,0.2,1.3,0.3c0.7,0.1,1.2,0.2,1.6,0.4s0.8,0.4,1.1,0.7s0.5,0.8,0.5,1.4c0,0.5-0.1,0.9-0.5,1.3
			c-0.3,0.4-0.7,0.7-1.3,0.9c-0.6,0.2-1.3,0.3-2,0.3C617.5,581.2,616.8,581.1,616.2,581z"/>
            <path class="st3" d="M629.5,573.8c0.7,0.6,1,1.5,1,2.7v4.6h-2.2v-1c-0.4,0.8-1.3,1.1-2.5,1.1c-0.6,0-1.2-0.1-1.6-0.3
			c-0.5-0.2-0.8-0.5-1-0.9c-0.2-0.4-0.4-0.8-0.4-1.3c0-0.8,0.3-1.3,0.8-1.8c0.6-0.4,1.4-0.6,2.6-0.6h1.9c0-0.5-0.2-0.9-0.5-1.2
			c-0.3-0.3-0.8-0.4-1.4-0.4c-0.4,0-0.9,0.1-1.3,0.2c-0.4,0.1-0.8,0.3-1.1,0.5l-0.8-1.6c0.4-0.3,1-0.6,1.6-0.7s1.2-0.3,1.9-0.3
			C627.9,572.9,628.8,573.2,629.5,573.8z M627.5,579.4c0.3-0.2,0.5-0.5,0.7-0.8v-0.8h-1.6c-1,0-1.4,0.3-1.4,0.9
			c0,0.3,0.1,0.5,0.4,0.7c0.2,0.2,0.6,0.3,1,0.3C626.8,579.6,627.2,579.5,627.5,579.4z"/>
        </g>
        <g class="st2">
            <path class="st3" d="M659.1,513.6h-3.4v-2h9.2v2h-3.4v8.5h-2.4V513.6z"/>
        </g>
        <g class="st2">
            <path class="st3" d="M666.7,521.7c-0.7-0.4-1.2-0.8-1.6-1.5s-0.6-1.3-0.6-2.1c0-0.8,0.2-1.5,0.6-2.1s0.9-1.1,1.6-1.5
			c0.7-0.4,1.4-0.5,2.3-0.5c0.9,0,1.6,0.2,2.3,0.5c0.7,0.4,1.2,0.8,1.6,1.5s0.6,1.3,0.6,2.1c0,0.8-0.2,1.5-0.6,2.1s-0.9,1.1-1.6,1.5
			c-0.7,0.4-1.4,0.5-2.3,0.5C668.2,522.2,667.4,522,666.7,521.7z M670.5,519.7c0.4-0.4,0.6-0.9,0.6-1.6c0-0.7-0.2-1.2-0.6-1.6
			c-0.4-0.4-0.9-0.6-1.5-0.6c-0.6,0-1.1,0.2-1.5,0.6c-0.4,0.4-0.6,0.9-0.6,1.6c0,0.7,0.2,1.2,0.6,1.6c0.4,0.4,0.9,0.6,1.5,0.6
			C669.6,520.3,670.1,520.1,670.5,519.7z M669.6,510.8h2.5l-2.7,2.2h-1.8L669.6,510.8z"/>
            <path class="st3" d="M687.7,514.8c0.6,0.6,0.9,1.5,0.9,2.7v4.6h-2.3v-4.3c0-0.6-0.1-1.1-0.4-1.4c-0.3-0.3-0.6-0.5-1.1-0.5
			c-0.6,0-1,0.2-1.3,0.5c-0.3,0.4-0.5,0.9-0.5,1.6v4h-2.3v-4.3c0-1.3-0.5-1.9-1.5-1.9c-0.5,0-1,0.2-1.3,0.5
			c-0.3,0.4-0.5,0.9-0.5,1.6v4H675V514h2.2v0.9c0.3-0.3,0.7-0.6,1.1-0.8c0.4-0.2,0.9-0.3,1.4-0.3c0.6,0,1.1,0.1,1.5,0.3
			s0.8,0.6,1.1,1c0.3-0.4,0.7-0.7,1.3-1c0.5-0.2,1.1-0.3,1.7-0.3C686.3,513.9,687.1,514.2,687.7,514.8z"/>
            <path class="st3" d="M697.6,514.4c0.6,0.3,1.1,0.8,1.4,1.5c0.3,0.6,0.5,1.4,0.5,2.2s-0.2,1.6-0.5,2.2c-0.4,0.6-0.8,1.1-1.4,1.5
			s-1.3,0.5-2,0.5c-1.1,0-2-0.3-2.5-1v0.9h-2.2V511h2.3v3.9c0.6-0.7,1.4-1,2.4-1C696.3,513.9,696.9,514.1,697.6,514.4z M696.6,519.7
			c0.4-0.4,0.6-0.9,0.6-1.6c0-0.7-0.2-1.2-0.6-1.6c-0.4-0.4-0.9-0.6-1.5-0.6c-0.6,0-1.1,0.2-1.5,0.6c-0.4,0.4-0.6,0.9-0.6,1.6
			c0,0.7,0.2,1.2,0.6,1.6c0.4,0.4,0.9,0.6,1.5,0.6C695.7,520.3,696.2,520.1,696.6,519.7z"/>
            <path class="st3" d="M702.6,521.7c-0.7-0.4-1.2-0.8-1.6-1.5s-0.6-1.3-0.6-2.1c0-0.8,0.2-1.5,0.6-2.1s0.9-1.1,1.6-1.5
			c0.7-0.4,1.4-0.5,2.3-0.5c0.8,0,1.6,0.2,2.3,0.5c0.7,0.4,1.2,0.8,1.6,1.5s0.6,1.3,0.6,2.1c0,0.8-0.2,1.5-0.6,2.1s-0.9,1.1-1.6,1.5
			c-0.7,0.4-1.4,0.5-2.3,0.5C704.1,522.2,703.3,522,702.6,521.7z M706.4,519.7c0.4-0.4,0.6-0.9,0.6-1.6c0-0.7-0.2-1.2-0.6-1.6
			c-0.4-0.4-0.9-0.6-1.5-0.6c-0.6,0-1.1,0.2-1.5,0.6c-0.4,0.4-0.6,0.9-0.6,1.6c0,0.7,0.2,1.2,0.6,1.6c0.4,0.4,0.9,0.6,1.5,0.6
			C705.5,520.3,706,520.1,706.4,519.7z"/>
            <path class="st3" d="M710.9,511h2.3v11.1h-2.3V511z"/>
            <path class="st3" d="M721.6,514.8c0.7,0.6,1,1.5,1,2.7v4.6h-2.2v-1c-0.4,0.8-1.3,1.1-2.5,1.1c-0.6,0-1.2-0.1-1.6-0.3
			s-0.8-0.5-1-0.9c-0.2-0.4-0.4-0.8-0.4-1.3c0-0.8,0.3-1.3,0.8-1.8c0.6-0.4,1.4-0.6,2.6-0.6h1.9c0-0.5-0.2-0.9-0.5-1.2
			c-0.3-0.3-0.8-0.4-1.4-0.4c-0.4,0-0.9,0.1-1.3,0.2c-0.4,0.1-0.8,0.3-1.1,0.5l-0.8-1.6c0.4-0.3,1-0.5,1.6-0.7s1.2-0.3,1.9-0.3
			C719.9,513.9,720.9,514.2,721.6,514.8z M719.6,520.4c0.3-0.2,0.5-0.5,0.7-0.8v-0.8h-1.6c-1,0-1.4,0.3-1.4,0.9
			c0,0.3,0.1,0.5,0.4,0.7c0.2,0.2,0.6,0.3,1,0.3C718.9,520.6,719.3,520.5,719.6,520.4z"/>
        </g>
        <g class="st2">
            <path class="st3" d="M672.9,621.9c-0.8-0.2-1.4-0.5-1.9-0.9l0.8-1.8c0.4,0.3,1,0.6,1.6,0.8s1.2,0.3,1.9,0.3c0.7,0,1.2-0.1,1.5-0.3
			c0.3-0.2,0.5-0.5,0.5-0.8c0-0.3-0.1-0.5-0.3-0.6c-0.2-0.2-0.4-0.3-0.8-0.4c-0.3-0.1-0.7-0.2-1.2-0.3c-0.8-0.2-1.5-0.4-2-0.6
			c-0.5-0.2-0.9-0.5-1.3-0.9c-0.4-0.4-0.5-1-0.5-1.7c0-0.6,0.2-1.2,0.5-1.7c0.3-0.5,0.8-0.9,1.5-1.2c0.7-0.3,1.5-0.4,2.4-0.4
			c0.7,0,1.3,0.1,2,0.2c0.6,0.2,1.2,0.4,1.7,0.7l-0.8,1.8c-1-0.5-1.9-0.8-2.9-0.8c-0.7,0-1.2,0.1-1.5,0.3s-0.5,0.5-0.5,0.9
			c0,0.4,0.2,0.6,0.6,0.8c0.4,0.2,0.9,0.3,1.7,0.5c0.8,0.2,1.5,0.4,2,0.6c0.5,0.2,0.9,0.5,1.3,0.9c0.4,0.4,0.5,1,0.5,1.7
			c0,0.6-0.2,1.1-0.5,1.6c-0.3,0.5-0.8,0.9-1.5,1.2c-0.7,0.3-1.5,0.4-2.4,0.4C674.5,622.3,673.7,622.2,672.9,621.9z"/>
            <path class="st3" d="M687.4,614.8c0.7,0.6,1,1.5,1,2.7v4.6h-2.2v-1c-0.4,0.8-1.3,1.1-2.5,1.1c-0.6,0-1.2-0.1-1.6-0.3
			c-0.5-0.2-0.8-0.5-1-0.9c-0.2-0.4-0.4-0.8-0.4-1.3c0-0.8,0.3-1.3,0.8-1.8c0.6-0.4,1.4-0.6,2.6-0.6h1.9c0-0.5-0.2-0.9-0.5-1.2
			s-0.8-0.4-1.4-0.4c-0.4,0-0.9,0.1-1.3,0.2c-0.4,0.1-0.8,0.3-1.1,0.5l-0.8-1.6c0.4-0.3,1-0.6,1.6-0.7s1.2-0.3,1.9-0.3
			C685.8,613.9,686.8,614.2,687.4,614.8z M685.4,620.4c0.3-0.2,0.5-0.5,0.7-0.8v-0.8h-1.6c-1,0-1.4,0.3-1.4,0.9
			c0,0.3,0.1,0.5,0.4,0.7c0.2,0.2,0.6,0.3,1,0.3C684.8,620.6,685.1,620.5,685.4,620.4z"/>
            <path class="st3" d="M697.9,614.8c0.6,0.6,0.9,1.5,0.9,2.7v4.6h-2.3v-4.3c0-0.6-0.1-1.1-0.4-1.4c-0.3-0.3-0.7-0.5-1.2-0.5
			c-0.6,0-1.1,0.2-1.4,0.5c-0.4,0.4-0.5,0.9-0.5,1.6v4h-2.3V614h2.2v0.9c0.3-0.3,0.7-0.6,1.2-0.8c0.5-0.2,1-0.3,1.5-0.3
			C696.5,613.9,697.3,614.2,697.9,614.8z"/>
        </g>
        <g class="st2">
            <path class="st3" d="M712.2,619.8h-4.9l-0.9,2.3H704l4.7-10.5h2.4l4.7,10.5h-2.5L712.2,619.8z M711.5,618l-1.7-4l-1.7,4H711.5z"/>
        </g>
        <g class="st2">
            <path class="st3" d="M724.9,614v6.7c0,1.5-0.4,2.6-1.2,3.3c-0.8,0.7-1.9,1.1-3.4,1.1c-0.8,0-1.5-0.1-2.2-0.3
			c-0.7-0.2-1.3-0.5-1.7-0.8l0.9-1.7c0.3,0.3,0.8,0.5,1.3,0.7c0.5,0.2,1,0.2,1.6,0.2c0.8,0,1.4-0.2,1.8-0.5s0.6-0.9,0.6-1.7v-0.3
			c-0.6,0.7-1.5,1-2.5,1c-0.7,0-1.4-0.2-2-0.5c-0.6-0.3-1.1-0.8-1.5-1.4c-0.4-0.6-0.5-1.3-0.5-2c0-0.8,0.2-1.4,0.5-2
			c0.4-0.6,0.8-1,1.5-1.4c0.6-0.3,1.3-0.5,2-0.5c1.2,0,2.1,0.4,2.7,1.2v-1H724.9z M722,619.2c0.4-0.4,0.6-0.8,0.6-1.4
			s-0.2-1.1-0.6-1.4c-0.4-0.4-0.9-0.5-1.5-0.5s-1.1,0.2-1.5,0.5c-0.4,0.4-0.6,0.8-0.6,1.4s0.2,1.1,0.6,1.4c0.4,0.4,0.9,0.5,1.5,0.5
			S721.6,619.6,722,619.2z"/>
            <path class="st3" d="M735.2,614v8.1H733v-1c-0.3,0.4-0.7,0.6-1.1,0.8c-0.4,0.2-0.9,0.3-1.4,0.3c-1.1,0-1.9-0.3-2.5-0.9
			c-0.6-0.6-0.9-1.5-0.9-2.7V614h2.3v4.2c0,1.3,0.5,1.9,1.6,1.9c0.6,0,1-0.2,1.3-0.5s0.5-0.9,0.5-1.6v-4H735.2z"/>
            <path class="st3" d="M738.1,622c-0.6-0.2-1.2-0.4-1.5-0.6l0.8-1.7c0.4,0.2,0.8,0.4,1.3,0.6c0.5,0.1,1,0.2,1.5,0.2
			c1,0,1.5-0.2,1.5-0.7c0-0.2-0.1-0.4-0.4-0.5c-0.3-0.1-0.7-0.2-1.2-0.3c-0.7-0.1-1.2-0.2-1.6-0.3c-0.4-0.1-0.8-0.4-1.1-0.7
			c-0.3-0.3-0.5-0.8-0.5-1.4c0-0.5,0.1-1,0.4-1.4s0.7-0.7,1.3-0.9c0.6-0.2,1.2-0.3,2-0.3c0.6,0,1.1,0.1,1.7,0.2
			c0.6,0.1,1,0.3,1.4,0.5l-0.8,1.7c-0.7-0.4-1.5-0.6-2.3-0.6c-0.5,0-0.9,0.1-1.1,0.2c-0.3,0.1-0.4,0.3-0.4,0.5
			c0,0.3,0.1,0.4,0.4,0.5c0.3,0.1,0.7,0.2,1.3,0.3c0.7,0.1,1.2,0.2,1.6,0.4s0.8,0.4,1.1,0.7s0.5,0.8,0.5,1.4c0,0.5-0.1,0.9-0.5,1.3
			c-0.3,0.4-0.7,0.7-1.3,0.9c-0.6,0.2-1.3,0.3-2,0.3C739.4,622.2,738.8,622.1,738.1,622z"/>
            <path class="st3" d="M750.6,621.7c-0.2,0.2-0.5,0.3-0.8,0.4c-0.3,0.1-0.7,0.1-1.1,0.1c-1,0-1.7-0.2-2.2-0.7s-0.8-1.2-0.8-2.2V616
			h-1.2v-1.8h1.2v-2h2.3v2h2v1.8h-2v3.3c0,0.3,0.1,0.6,0.3,0.8c0.2,0.2,0.4,0.3,0.7,0.3c0.4,0,0.7-0.1,0.9-0.3L750.6,621.7z"/>
            <path class="st3" d="M753.7,610.8h2.5l-2.7,2.2h-1.8L753.7,610.8z M751.9,614h2.3v8.1h-2.3V614z"/>
            <path class="st3" d="M763.7,614.8c0.6,0.6,0.9,1.5,0.9,2.7v4.6h-2.3v-4.3c0-0.6-0.1-1.1-0.4-1.4c-0.3-0.3-0.7-0.5-1.2-0.5
			c-0.6,0-1.1,0.2-1.4,0.5c-0.3,0.4-0.5,0.9-0.5,1.6v4h-2.3V614h2.2v0.9c0.3-0.3,0.7-0.6,1.2-0.8c0.5-0.2,1-0.3,1.5-0.3
			C762.3,613.9,763.1,614.2,763.7,614.8z"/>
        </g>
        <g class="st2">
            <path class="st3" d="M786.9,548.6h2.4v8.5h5.3v2h-7.7V548.6z"/>
        </g>
        <g class="st2">
            <path class="st3" d="M797.3,558.7c-0.7-0.4-1.2-0.8-1.6-1.5c-0.4-0.6-0.6-1.3-0.6-2.1s0.2-1.5,0.6-2.1c0.4-0.6,0.9-1.1,1.6-1.5
			c0.7-0.4,1.4-0.5,2.3-0.5c0.8,0,1.6,0.2,2.3,0.5c0.7,0.4,1.2,0.8,1.6,1.5c0.4,0.6,0.6,1.3,0.6,2.1s-0.2,1.5-0.6,2.1
			c-0.4,0.6-0.9,1.1-1.6,1.5c-0.7,0.4-1.4,0.5-2.3,0.5C798.7,559.2,798,559,797.3,558.7z M801,556.7c0.4-0.4,0.6-0.9,0.6-1.6
			s-0.2-1.2-0.6-1.6c-0.4-0.4-0.9-0.6-1.5-0.6c-0.6,0-1.1,0.2-1.5,0.6c-0.4,0.4-0.6,0.9-0.6,1.6s0.2,1.2,0.6,1.6
			c0.4,0.4,0.9,0.6,1.5,0.6C800.2,557.3,800.7,557.1,801,556.7z"/>
            <path class="st3" d="M806.3,559c-0.6-0.2-1.2-0.4-1.5-0.6l0.8-1.7c0.4,0.2,0.8,0.4,1.3,0.6c0.5,0.1,1,0.2,1.5,0.2
			c1,0,1.5-0.2,1.5-0.7c0-0.2-0.1-0.4-0.4-0.5c-0.3-0.1-0.7-0.2-1.2-0.3c-0.7-0.1-1.2-0.2-1.6-0.3c-0.4-0.1-0.8-0.4-1.1-0.7
			c-0.3-0.3-0.5-0.8-0.5-1.4c0-0.5,0.1-1,0.4-1.4s0.7-0.7,1.3-0.9c0.6-0.2,1.2-0.3,2-0.3c0.6,0,1.1,0.1,1.7,0.2
			c0.6,0.1,1,0.3,1.4,0.5l-0.8,1.7c-0.7-0.4-1.5-0.6-2.3-0.6c-0.5,0-0.9,0.1-1.1,0.2c-0.3,0.1-0.4,0.3-0.4,0.5
			c0,0.3,0.1,0.4,0.4,0.5c0.3,0.1,0.7,0.2,1.3,0.3c0.7,0.1,1.2,0.2,1.6,0.4s0.8,0.4,1.1,0.7s0.5,0.8,0.5,1.4c0,0.5-0.1,0.9-0.5,1.3
			c-0.3,0.4-0.7,0.7-1.3,0.9c-0.6,0.2-1.3,0.3-2,0.3C807.6,559.2,806.9,559.1,806.3,559z"/>
            <path class="st3" d="M824.8,556.8H820l-0.9,2.3h-2.5l4.7-10.5h2.4l4.7,10.5h-2.6L824.8,556.8z M824.1,555l-1.7-4l-1.7,4H824.1z
			 M823.1,545.6h2.5l-2.7,2.2h-1.8L823.1,545.6z"/>
        </g>
        <g class="st2">
            <path class="st3" d="M836.6,551.8c0.6,0.6,0.9,1.5,0.9,2.7v4.6h-2.3v-4.3c0-0.6-0.1-1.1-0.4-1.4c-0.3-0.3-0.7-0.5-1.2-0.5
			c-0.6,0-1.1,0.2-1.4,0.5c-0.3,0.4-0.5,0.9-0.5,1.6v4h-2.3V551h2.2v0.9c0.3-0.3,0.7-0.6,1.2-0.8c0.5-0.2,1-0.3,1.5-0.3
			C835.2,550.9,836,551.2,836.6,551.8z"/>
        </g>
        <g class="st2">
            <path class="st3" d="M848,551v6.7c0,1.5-0.4,2.6-1.2,3.3c-0.8,0.7-1.9,1.1-3.4,1.1c-0.8,0-1.5-0.1-2.2-0.3
			c-0.7-0.2-1.3-0.5-1.7-0.8l0.9-1.7c0.3,0.3,0.8,0.5,1.3,0.7c0.5,0.2,1,0.2,1.6,0.2c0.8,0,1.4-0.2,1.8-0.5s0.6-0.9,0.6-1.7v-0.3
			c-0.6,0.7-1.5,1-2.5,1c-0.7,0-1.4-0.2-2-0.5c-0.6-0.3-1.1-0.8-1.5-1.4c-0.4-0.6-0.5-1.3-0.5-2c0-0.8,0.2-1.4,0.5-2
			c0.4-0.6,0.8-1,1.5-1.4c0.6-0.3,1.3-0.5,2-0.5c1.2,0,2.1,0.4,2.7,1.2v-1H848z M845.1,556.2c0.4-0.4,0.6-0.8,0.6-1.4
			s-0.2-1.1-0.6-1.4c-0.4-0.4-0.9-0.5-1.5-0.5s-1.1,0.2-1.5,0.5c-0.4,0.4-0.6,0.8-0.6,1.4s0.2,1.1,0.6,1.4c0.4,0.4,0.9,0.5,1.5,0.5
			S844.7,556.6,845.1,556.2z"/>
            <path class="st3" d="M858.1,555.7H852c0.1,0.5,0.4,0.9,0.8,1.2c0.4,0.3,0.9,0.4,1.5,0.4c0.4,0,0.8-0.1,1.1-0.2
			c0.3-0.1,0.6-0.3,0.9-0.6l1.2,1.3c-0.8,0.9-1.9,1.3-3.3,1.3c-0.9,0-1.7-0.2-2.4-0.5c-0.7-0.4-1.2-0.8-1.6-1.5
			c-0.4-0.6-0.6-1.3-0.6-2.1c0-0.8,0.2-1.5,0.6-2.1c0.4-0.6,0.9-1.1,1.5-1.5c0.7-0.4,1.4-0.5,2.2-0.5c0.8,0,1.5,0.2,2.1,0.5
			s1.1,0.8,1.5,1.5c0.4,0.6,0.5,1.4,0.5,2.2C858.1,555.1,858.1,555.3,858.1,555.7z M852.6,553.1c-0.4,0.3-0.6,0.7-0.7,1.2h4
			c-0.1-0.5-0.3-0.9-0.7-1.2c-0.4-0.3-0.8-0.5-1.3-0.5C853.4,552.7,853,552.8,852.6,553.1z"/>
            <path class="st3" d="M859.7,548h2.3v11.1h-2.3V548z"/>
            <path class="st3" d="M872.1,555.7h-6.1c0.1,0.5,0.4,0.9,0.8,1.2c0.4,0.3,0.9,0.4,1.5,0.4c0.4,0,0.8-0.1,1.1-0.2s0.6-0.3,0.9-0.6
			l1.2,1.3c-0.8,0.9-1.9,1.3-3.3,1.3c-0.9,0-1.7-0.2-2.4-0.5c-0.7-0.4-1.2-0.8-1.6-1.5c-0.4-0.6-0.6-1.3-0.6-2.1
			c0-0.8,0.2-1.5,0.6-2.1c0.4-0.6,0.9-1.1,1.5-1.5c0.7-0.4,1.4-0.5,2.2-0.5c0.8,0,1.5,0.2,2.1,0.5c0.6,0.3,1.1,0.8,1.5,1.5
			c0.4,0.6,0.5,1.4,0.5,2.2C872.1,555.1,872.1,555.3,872.1,555.7z M866.6,553.1c-0.4,0.3-0.6,0.7-0.7,1.2h4
			c-0.1-0.5-0.3-0.9-0.7-1.2s-0.8-0.5-1.3-0.5C867.4,552.7,866.9,552.8,866.6,553.1z"/>
            <path class="st3" d="M874.4,559c-0.6-0.2-1.2-0.4-1.5-0.6l0.8-1.7c0.4,0.2,0.8,0.4,1.3,0.6c0.5,0.1,1,0.2,1.5,0.2
			c1,0,1.5-0.2,1.5-0.7c0-0.2-0.1-0.4-0.4-0.5c-0.3-0.1-0.7-0.2-1.2-0.3c-0.7-0.1-1.2-0.2-1.6-0.3c-0.4-0.1-0.8-0.4-1.1-0.7
			s-0.5-0.8-0.5-1.4c0-0.5,0.1-1,0.4-1.4s0.7-0.7,1.3-0.9c0.6-0.2,1.2-0.3,2-0.3c0.6,0,1.1,0.1,1.7,0.2c0.6,0.1,1,0.3,1.4,0.5
			l-0.8,1.7c-0.7-0.4-1.5-0.6-2.3-0.6c-0.5,0-0.9,0.1-1.1,0.2c-0.3,0.1-0.4,0.3-0.4,0.5c0,0.3,0.1,0.4,0.4,0.5
			c0.3,0.1,0.7,0.2,1.3,0.3c0.7,0.1,1.2,0.2,1.6,0.4s0.8,0.4,1.1,0.7c0.3,0.3,0.5,0.8,0.5,1.4c0,0.5-0.2,0.9-0.5,1.3
			c-0.3,0.4-0.7,0.7-1.3,0.9s-1.3,0.3-2,0.3C875.7,559.2,875,559.1,874.4,559z"/>
        </g>
    </g>
</svg>