<svg xmlns="http://www.w3.org/2000/svg" viewBox="0 0 1080 1080">
    <defs>
        <style>.cls-2{stroke-miterlimit:10;}.cls-2{fill:none;stroke:#fff;stroke-width:8px;}.cls-16,.cls-3{font-size:15px;fill:#fff;font-family:Montserrat-Bold, Montserrat;font-weight:700;}.cls-4{letter-spacing:0.006em;}.cls-5{letter-spacing:-0.005em;}.cls-6{letter-spacing:-0.014em;}.cls-16,.cls-7{letter-spacing:-0.004em;}.cls-8{letter-spacing:-0.009em;}.cls-9{letter-spacing:0em;}.cls-10{letter-spacing:-0.015em;}.cls-11{letter-spacing:-0.017em;}.cls-12{letter-spacing:-0.007em;}.cls-13{letter-spacing:-0.005em;}.cls-14{letter-spacing:-0.009em;}.cls-15{letter-spacing:-0.055em;}.cls-17{letter-spacing:0.006em;}</style>
    </defs>
    <g class="zone" id="4_Ciudad_de_Asis_-_Font-Calent_-_El_Bacarot" data-name="4_Ciudad_de_Asis_-_Font-Calent_-_El_Bacarot">
        <path class="cls-1" d="M483.0269,775.5156c4.0263-7.0464,22.8911-31.6181,24.2519-33.3886L531.3,708.1a125.3251,125.3251,0,0,1,15.5425-16.59l41.7051-37.071c-8.4191-7.6869-34.0942-31.1566-47.2832-43.5213-18.2622-17.1206-8.9956-31.5318-8.5923-32.1368l.0591-.0864,38.9084-55.182a83.549,83.549,0,0,1-12.16.8187c-3.0278,0-5.7534-.1191-7.9536-.2153C550.0952,524.0537,548.86,524,548,524c-4.6909,0-10.3931-1.4531-16.9956-3.1357-4.1494-1.0572-8.44-2.15-12.72-2.9288-7.3721-1.34-47.0205-9.6186-57.5035-16.6074-9.5468-6.3642-7.6269-16.0425-5.2778-20.2705l.1787-.3218.2339-.2832c.1885-.228,18.8887-22.8872,23.6919-30.5727a3.6267,3.6267,0,0,0,.6885-3.0552c-.5518-2.0059-3.1353-3.7446-4.062-4.2344-1.2759-.5957-15.1236-7.063-19.0235-9.0127-4.976-2.4878-4.1547-10.4814-1.2563-26.87.4316-2.44.9614-5.4331,1.0366-6.4936-1.0195-2.6587-9.9253-10.7119-16.9756-14.7408-7.2256-4.1289-3.8921-16.6377-.9511-27.6738.8867-3.3276,2.1015-7.8852,1.998-9.11-.3442-1.7017-6.3633-4.6075-12.4971-3.73-6.126.873-13.5638-2.1714-17.3462-4a56.0218,56.0218,0,0,0-4.8906,4.3689l-63.4209,63.42c-16.084,18.0025-42.5283,48.7466-45.2524,54.8755-3.9541,8.896-30.1167,63.6113-31.5244,66.5547a78.6166,78.6166,0,0,1-10.5938,16.9238l-35.8745,41.8535c-.5064.7857-.1772,1.0328.2373,1.3433,3.8887,2.9165,19.707,13.7944,19.8662,13.9038l58.08,42.0567L401.84,721.2554l76.1255,54.0893.1377.1182c.8355.6933,2.5425,1.5859,3.5215,1.4082C482.0894,776.7871,482.561,776.3306,483.0269,775.5156Z"/>
    </g>
    <g class="zone" id="4_Divina_Pastora" data-name="4_Divina_Pastora">
        <path class="cls-1" d="M467.9043,316.2451c-7.2483,2.7183-45.22,19.0809-51.0612,21.6005,2.7266.9037,5.5334,1.4891,7.591,1.1944,11.1474-1.5893,20.27,4.085,21.4883,10.1753.5088,2.544-.38,6.0855-2.1275,12.6441-1.2021,4.51-4.3828,16.4448-2.7383,18.709C444.5029,382.563,462,394.3364,462,402a59.94,59.94,0,0,1-1.1675,8.1006c-.8354,4.7231-2.7241,15.4018-2.13,18.772,4.896,2.3911,17.85,8.4375,17.9893,8.5029l.0977.0469c.6679.3339,6.5752,3.4311,8.2036,9.2177a11.548,11.548,0,0,1-1.6006,9.48c-4.8062,7.69-21.5654,28.0987-24.03,31.09-.78,1.629-2.2275,6.0718,2.857,9.4615,7.9467,5.2978,42.205,13.1577,54.4965,15.3926,4.5542.8281,8.9825,1.9565,13.2647,3.0478C535.8076,516.5972,541.3125,518,545,518c1.0342,0,2.3506.0576,3.8745.124,8.74.3819,26.9248,1.1748,35.1768-7.8271,11.3828-12.4175,18.8139-17.7769,30.5815-22.0562,9.7932-3.5608,102.5474-37.05,121.8007-44.0013l-12.7851-45.6608c-.0957-.3506-8.9306-32.6069-14.5781-42.02-6.0332-10.0547-22.4892-44.873-23.1875-46.35l-.1777-.4429a6.4452,6.4452,0,0,0-1.4248-2.3413l-.1631.0283-31.8779,4.981c-1.2637.2632-5.9786.9067-16.4551-.9976-10.7984-1.9633-31.6406-4.9458-31.85-4.9755A156.5013,156.5013,0,0,0,584.5,305.5c-12.8916,0-61.5913-.9907-62.0815-1.001.0234.0015-6.7325.063-19.0191,2.8985-12.9082,2.979-23.0146,5.0048-23.1147,5.0249A91.5043,91.5043,0,0,0,467.9043,316.2451Z"/>
    </g>
    <g class="zone" id="4_Tómbola_-_Rabasa" data-name="4_Tómbola_-_Rabasa">
        <path class="cls-1" d="M758.6689,523.6494c-2.9824-9.9419-13.583-49.4365-14.0322-51.1128l-6.04-21.5727c-20.4331,7.3773-111.5369,40.2708-121.2291,43.7954-10.5029,3.8193-16.9092,8.479-27.4185,19.9438a27.5822,27.5822,0,0,1-9.1336,6.4245l-44.4977,63.1092c-.34.562-5.542,9.6948,7.4184,21.8452,13.4507,12.61,39.9572,36.8326,47.747,43.9435l30.734-28.899c2.9244-2.9192,9.4324-8.9139,14.9626-10.3842l123.8492-82.7208A12.12,12.12,0,0,1,758.6689,523.6494Z"/>
    </g>
    <g class="zone" id="4_Los_Ángeles_-_San_Agustín" data-name="4_Los_Ángeles_-_San_Agustín">
        <path class="cls-1" d="M710.9092,697.374l.1689.3369a11.8145,11.8145,0,0,0,1.6407,2.3829c.0634-.1114.1318-.2383.2031-.3829,3.997-7.9931,26.1484-47.49,27.09-49.1679a39.8366,39.8366,0,0,1,14.5459-13.54c8.832-4.9067,79.1612-47.4951,79.87-47.9248l27.2832-16.1562c.4268-.2134,10.5489-5.2442,19.9209-7.3272,8.8047-1.9565,30.5967-7.8945,30.8155-7.9541l.3955-.0869c2.041-.418,1.81-1.8047,1.7119-2.3965-.9483-5.6865-5.6641-27.4292-5.95-28.7471l-1.9961-7.9829c-.3027-.8945-1.5918-1.249-3.543-.9677-6.9541.9931-45.4345,5.8046-47.0693,6.0092l-69.4541,9.4937a37.6279,37.6279,0,0,1-16.156-1.2354L647.7416,613.6437c5.959,8.4636,40.0213,53.3748,62.9391,83.431Z"/>
    </g>
    <g id="_Strokes">
        <path class="cls-2" d="M684.5,302l-32,5s-4,1-15-1-32-5-32-5a157.4058,157.4058,0,0,0-20-1c-13,0-62-1-62-1s-7,0-20,3-23,5-23,5a93.4745,93.4745,0,0,0-13,4c-8,3-52,22-52,22s-6,2-14,10L338,406.5s-42,47-46,56S260.5,529,260.5,529a75.1442,75.1442,0,0,1-10,16l-36,42s-3,4,1,7,20,14,20,14l58,42,104,75,76,54s7,6,11-1,24-33,24-33l24-34a122.1647,122.1647,0,0,1,15-16l45-40L626,623.5s13.5-13.5,16.5-8.5,64,85,64,85,5,10,9,2,27-49,27-49a35.8576,35.8576,0,0,1,13-12c9-5,80-48,80-48l27-16s10-5,19-7,31-8,31-8,6-1,5-7-6-29-6-29l-2-8s-1-5-8-4-47,6-47,6L785,529.5s-18.5,2.5-21.5-7.5-14-51-14-51l-21-75s-9-33-15-43-23-46-23-46S688.5,301,684.5,302Z"/>
        <path class="cls-2" d="M408.8235,336.754S419,342.5,426,341.5s16,2,17,7-10,30-3,34,19,14,19,18-6,28-2,30,19,9,19,9,10,5,5,13-24,31-24,31-5,9,4,15,45,14,56,16,22,6,29,6,31,3,42-9,18-17,29-21,125.2871-45.26,125.2871-45.26"/>
        <path class="cls-2" d="M579.1737,517.4322,534,581.5s-8,12,8,27,50,46,50,46"/>
        <line class="cls-2" x1="639.8633" y1="613.9277" x2="768.8687" y2="527.7627"/>
    </g>
    <g id="Textos" class="text">
        <text class="cls-3" transform="translate(283.7583 572.0913)">Ciud<tspan class="cls-4" x="36.1943" y="0">a</tspan>
            <tspan x="45.5391" y="0">d de </tspan>
            <tspan class="cls-5" x="84.2534" y="0">A</tspan>
            <tspan x="95.6685" y="0">sís - </tspan>
            <tspan class="cls-6" x="130.3926" y="0">F</tspan>
            <tspan x="139.7676" y="0">ont </tspan>
            <tspan class="cls-7" x="170.7275" y="0">C</tspan>
            <tspan x="181.6621" y="0">alent</tspan>
            <tspan x="65.6543" y="18">- El B</tspan>
            <tspan class="cls-4" x="105.9888" y="18">a</tspan>
            <tspan x="115.3335" y="18">ca</tspan>
            <tspan class="cls-8" x="133.4531" y="18">r</tspan>
            <tspan class="cls-9" x="139.7832" y="18">ot</tspan>
        </text>
        <text class="cls-3" transform="translate(532.6519 412.0913)">Divina <tspan class="cls-10" x="54.2544" y="0">P</tspan>
            <tspan x="65.0093" y="0">as</tspan>
            <tspan class="cls-11" x="82.229" y="0">t</tspan>
            <tspan x="88.4985" y="0">o</tspan>
            <tspan class="cls-12" x="98.3237" y="0">r</tspan>
            <tspan x="104.6841" y="0">a</tspan>
        </text>
        <text class="cls-3" transform="translate(574.6519 581.0913)">
            <tspan class="cls-13">R</tspan>
            <tspan x="10.9497" y="0">a</tspan>
            <tspan class="cls-14" x="20.2046" y="0">b</tspan>
            <tspan x="30.4199" y="0">asa</tspan>
        </text>
        <text class="cls-3" transform="translate(655.6519 522.0913)">
            <tspan class="cls-15">T</tspan>
            <tspan x="8.4448" y="0">ómbola</tspan>
        </text>
        <text class="cls-3" transform="translate(670.6519 622.0913)">San <tspan class="cls-5" x="33.4346" y="0">A</tspan>
            <tspan class="cls-9" x="44.8496" y="0">gustín</tspan>
        </text>
        <text class="cls-16" transform="translate(785.6519 559.0913)">L<tspan class="cls-9" x="9" y="0">os Á</tspan>
            <tspan class="cls-17" x="42.5244" y="0">n</tspan>
            <tspan class="cls-9" x="52.9795" y="0">geles</tspan>
        </text>
    </g>
</svg>