<?xml version="1.0" encoding="utf-8"?>
<!-- Generator: Adobe Illustrator 24.0.2, SVG Export Plug-In . SVG Version: 6.00 Build 0)  -->
<svg version="1.1" id="Capa_1" xmlns="http://www.w3.org/2000/svg" xmlns:xlink="http://www.w3.org/1999/xlink" x="0px" y="0px"
	 viewBox="0 0 1080 1080" style="enable-background:new 0 0 1080 1080;" xml:space="preserve">
<style type="text/css">
	.st1{fill:#FFFFFF;}
	.st2{fill:none;stroke:#FFFFFF;stroke-width:8;stroke-linecap:round;stroke-linejoin:round;}
</style>
<g id="4_Nou_Alacant" class="zone">
	<path class="st0" d="M169,479c-4.7,0.5-9.6,1.1-14.1,1.5l-2.1,0.2c-2.8,0.2-5.6,0.5-8.4,1.1c1,5.1,21,82.9,25.9,97.5
		c1.7,5.2,3,10.1,4.1,14c1.1,4.1,2.4,9.2,3.5,10.5c4.6,0.8,28.6,0.8,41.7,0.8c10.3,0,21.8,0.4,30.1,0.7c4,0.1,7.3,0.3,9.2,0.3
		c-1.9-12.5-6.5-43.3-8.8-62c-1.1-8.7-2.2-17.1-3.2-24.8c-1.7-13.3-3.2-24.8-3.8-31.3c-0.1-1.2-0.2-2.4-0.3-3.5
		c-0.3-4-0.6-7.8-2.1-9c-1.1-0.9-3.5-1-5.3-0.8c-10.9,0.9-40.6,2.4-46.7,2.7c-1.3,0.6-2.7,0.9-4.1,0.8
		C181.8,477.5,175.5,478.2,169,479z"/>
</g>
<g id="4_Garbinet_-_Parque_de_las_Avenidas" class="zone">
	<path class="st0" d="M295.4,622.4c16.2,9,46.4,25.8,57,31.5c12.7,6.9,32.6,17.8,42,23c3.6,2,7.9,4.6,12.5,7.4
		c6.9,4.3,14.1,8.7,18.2,10.4c2.4,1.1,4.8,2.5,6.9,4.2c6.8-4.5,26.1-17,31.3-19.6c4.2-2.1,6.9-6.6,13.4-17.5c0.9-1.5,1.9-3.2,3-5
		c3.6-6.1,9-14.2,14.1-22c7.6-11.5,15.4-23.5,17.7-28.6c3.4-7.7,8.6-14.4,15.3-19.6c3-2.2,4.6-3.5,0.8-11
		c-4.7-9.4-19-39.9-23.1-50.3c-4.1-10.2-10.2-31.6-12.2-44.9c-1.4-9.4-5.5-28.3-7.6-37.7c-2.8,0.4-6.7,0.2-12.4-0.4
		c-9.9-1.2-21.4-1.7-30.7-2c-6.7-0.3-12.5-0.5-16.3-1c-9-1-13.6-2.1-17.8-7.6c-2.5-3.4-2.5-3.4-6.8-3.4c-6.7,0-32.6-2.3-40.4-3
		c-8.4-0.8-22.1-3.3-35.2-5.7c-4.4-0.8-8.9-1.6-13.1-2.4c-5.4-0.9-10.2-1.9-14.4-2.7c-9-1.8-16.1-3.2-21.9-3.2c-8,0-17,0.8-26.6,1.7
		l-3,0.3c-2.2,0.2-4.1,0.3-5.7,0.4c-6.2,0.4-7.6,0.5-12.3,3.8c-3.6,2.6-7.7,5.1-11.7,7.6c-3.9,2.4-7.9,4.9-11.3,7.4
		c-7,5-10.5,7.4-15.4,8.6c-0.3,0.1-0.6,0.2-0.9,0.3c-0.1,0.9-0.1,1.9-0.1,2.8c0.3,2.9,0.7,5.8,1.3,8.7c0.8,4.6,1.7,9.3,1.7,12.3
		c0,1,0.1,1.9,0.2,2.9v0.1c10-0.5,33.7-1.7,42.9-2.5c4.9-0.4,8.6,0.5,11.2,2.7c4,3.4,4.4,8.8,4.9,14.5c0.1,1.1,0.2,2.2,0.3,3.4
		c0.6,6.3,2.1,17.8,3.8,31c1,7.7,2.1,16.1,3.2,24.9c2.6,20.5,7.9,55.7,9.3,65c6,2.7,11.9,5.7,17.6,9L295.4,622.4z"/>
</g>
<g id="4_Vistahermosa" class="zone">
	<path class="st0" d="M948.8,471.9c2.5-5.7,1.7-7.5,0-11.9c-2-5-14-38.9-17.1-48.2c-1.4-4.1-3.2-8.5-5-12.8
		c-1.9-4.4-3.6-8.8-5.1-13.4l-0.4-1.4c-1.9-6.7-2.6-8.3-5.4-8.8c-6.7-1.1-23.7-5.5-43.4-11.1c-8.5-2.4-16-4.7-22.6-6.7
		c-9.5-2.9-17-5.1-22.2-6.3c-9.3-2.1-17.6-4.1-25.1-8.4c-7.1-4.1-19.4-12.2-25.2-16.1c-6-3.9-12.2-7.5-18.6-10.8
		c-3.4-1.7-8.9-2.6-16.7-3.6c-1.1-0.1-3.4-0.4-6.5-0.8c-20-2.5-73.2-9.3-84.3-10.2c-12.7-1-15.3-0.9-17.4-0.2
		c-1.4,0.5-14.9,6.4-27.9,12.2c-18,7.9-40.4,17.8-49.8,21.7c-9.8,4-19.5,8.1-26.5,11.2c-5.2,2.2-9.4,4-11.5,4.9
		c-0.8,0.3-1.6,0.6-2.2,0.9c-0.8,0.3-1.8,0.7-2.2,0.9c0,0.2,0,0.4,0,0.5c0,0.8,0,1.9,0.1,3.2c0.3,7.7,0.4,13.8-1.8,17
		c-0.4,0.7-1.1,2-1.9,3.5c-3.2,6.2-5.9,11-9.7,12.9l-12,6c-0.5,0.3-1,0.5-1.5,0.7c-0.5,0.3-1.2,0.6-1.5,0.8c0,0.8,0,1.5,0.2,2.3
		c0.4,2.3,1.1,6.8,1.8,11.9c1.2,8,2.5,17,3.1,19.9c0.1,0.3,0.1,0.7,0.2,1c0.3,1.1,0.4,2.2,0.5,3.4c0.9,4,6.9,31,8.8,43.3
		c2,12.8,7.8,33.3,11.8,43.1c3.9,9.6,17.6,39.3,22.9,49.7c5.6,11.2,2.8,16.5-3.2,21c-5.5,4.3-9.9,10-12.7,16.4
		c-2.5,5.7-10.2,17.4-18.3,29.7c-5.1,7.8-10.4,15.8-13.9,21.7c-1.1,1.8-2.1,3.4-3,5c-7.1,11.9-10.3,17.4-16.7,20.6
		c-4,2-19.2,11.7-28.4,17.7c4.8,4.2,10.7,9.8,18.4,17.2c2,1.9,4.2,4,6.4,6.1c8.4,8,22.5,21.6,36,34.8c18.8,18.2,38.3,37.1,42.8,41.1
		c8,7,18.1,16.1,22.7,20.7c4.2,4.2,9.8,9.4,14.3,13.7c3,2.8,5.4,5.1,6.7,6.3c0.6,0.8,1.4,1.4,2.3,1.9c0.2-0.1,0.4-0.2,0.6-0.4
		c2.7-1.8,27.4-18.5,34.4-23.4c3.6-2.5,6.6-4.5,9.2-6.3c2.6-1.7,4.8-3.2,6.7-4.6c0.4-0.3,0.9-0.7,1.3-1c-0.3-0.8-0.9-1.9-1.5-3
		c-1.1-2.2-3.1-5.6-5.4-9.4c-3.7-6.2-8.3-14-12.6-22.6c-6-11.9-21.8-43.7-24.6-47.4c-2.9-3.9-5.2-8.7,0.4-14.2
		c3.1-3.1,28.1-27.1,38.2-36.1c10.4-9.4,54.7-46.6,65.1-55.1c4.8-3.9,10.2-8.6,15.4-13.2c6.8-5.9,13.2-11.5,17.8-14.9
		c2.1-1.5,4-2.9,5.7-4.1c4.6-3.2,7.9-5.5,9-8.2c2.3-5.9,11-29,11.8-32.5c0.5-2.2,0.3-6.9,0.1-10.3c-0.1-1.8-0.2-3.4-0.2-4.7
		c0-6.6,2.2-8.8,10.4-10c4.2-0.6,20.3-1.8,35.8-3c10.4-0.8,20.2-1.6,24.3-2c5.1-0.5,21.3-1.7,38.6-3c16.4-1.2,33.5-2.5,38.4-3
		c2.7-0.3,5.2-0.5,7.5-0.8c6.5-0.7,11.7-1.2,14.9-1.2c0.8,0,1.1,0,3-4.8l0.3-0.7c1.1-2.7,4.4-9.6,8-17
		C944,482.3,947.4,475.3,948.8,471.9z"/>
</g>
<g id="_Strokes">
	<path class="st1" d="M638.3,304.8c2.7,0,7,0.3,12.6,0.7c11,0.8,66,7.8,84.1,10.1c3.2,0.4,5.4,0.7,6.5,0.8
		c5.8,0.7,12.2,1.6,15.4,3.2c3.9,2,12.6,6.8,18.1,10.5c6.4,4.2,18.2,12.2,25.5,16.3c8,4.6,17,6.8,26.2,8.9
		c5.1,1.1,12.5,3.4,21.9,6.2c6.6,2,14.1,4.2,22.6,6.7c19.8,5.7,37,10.1,43.9,11.2c0.1,0,0.2,0,0.2,0c0.6,0.9,1.4,3.7,2,5.9
		c0.1,0.5,0.3,0.9,0.4,1.4c1.5,4.7,3.2,9.3,5.2,13.8c1.7,4.2,3.6,8.5,4.9,12.5c2.8,8.5,15,43,17.2,48.4c1.6,4.1,1.9,4.7,0.1,8.9
		c-1.4,3.3-4.8,10.2-8,17c-3.7,7.7-7,14.4-8.1,17.2l-0.3,0.7c-0.3,0.8-0.6,1.6-0.9,2.3c-3.3,0.1-7.8,0.6-13.6,1.2
		c-2.3,0.2-4.9,0.5-7.5,0.8c-4.9,0.5-21.9,1.8-38.3,3c-17.3,1.3-33.6,2.5-38.7,3c-4,0.4-13.8,1.2-24.2,2
		c-15.6,1.2-31.7,2.5-36.1,3.1c-8.8,1.3-13.9,3.9-13.9,13.9c0,1.4,0.1,3.2,0.2,5c0.2,2.6,0.4,7.5,0,9.1c-0.8,3.2-9.5,26.5-11.7,32
		c-0.6,1.5-4,3.9-7.6,6.4c-1.7,1.2-3.7,2.6-5.8,4.2c-4.7,3.5-11.2,9.2-18,15.1c-5.2,4.5-10.5,9.2-15.3,13.1
		c-10.5,8.5-54.8,45.8-65.3,55.2c-10.1,9.1-35.2,33.1-38.3,36.3c-8.8,8.8-2.7,16.8-0.8,19.4c2.8,3.8,18.9,36.2,24.3,46.8
		c4.4,8.7,9,16.5,12.7,22.8c2.3,3.8,4.2,7.1,5.3,9.2l0,0c-1.5,1.1-3.2,2.2-5.2,3.5c-2.7,1.8-5.7,3.8-9.3,6.4
		c-6.1,4.4-25.9,17.7-32.4,22.1c-1.3-1.3-3.6-3.5-6.5-6.2c-4.5-4.2-10.1-9.5-14.2-13.6c-4.9-4.9-15.4-14.3-22.9-20.9
		c-4.5-3.9-23.9-22.8-42.7-41c-13.6-13.2-27.7-26.8-36.1-34.8c-2.3-2.2-4.4-4.2-6.4-6.1c-16.9-16.1-25.4-24.2-32.9-27.4
		c-3.8-1.6-11.1-6.1-17.6-10.1c-4.6-2.8-9-5.5-12.6-7.5c-9.5-5.3-29.3-16.2-42.1-23.1c-10.6-5.7-40.7-22.5-56.9-31.5
		c-3.5-2-6.3-3.5-8-4.4c-0.8-0.5-1.7-1-2.6-1.5c-12.5-7-21.1-11.6-27.3-11.6c-1.6,0-5.4-0.1-9.7-0.3c-8.4-0.3-19.9-0.7-30.3-0.7
		c-10.7,0-31.6,0-39-0.5c-0.7-1.9-1.5-5.1-2.3-7.8c-1-3.9-2.4-8.8-4.1-14.2c-4.3-13-20.5-75.7-24.8-93c1.2-0.1,2.6-0.2,3.8-0.4
		l2.1-0.2c4.5-0.4,9.5-1,14.2-1.5c6.2-0.7,12.5-1.4,15.1-1.4c3.8,0,6.8-1.2,8.8-3.5c3.1-3.4,2.6-7.6,2.3-10
		c-0.1-0.8-0.2-1.6-0.2-2.5c0-3.4-0.9-8-1.8-13c-0.5-2.6-1.2-6.5-1.2-7.8c4.5-1.5,8.4-4.2,14.6-8.6c3.3-2.4,7.3-4.8,11.1-7.2
		c4-2.5,8.2-5.1,11.9-7.8c3.8-2.7,4.4-2.7,10.3-3.1c1.7-0.1,3.5-0.2,5.8-0.4l3-0.3c9.5-0.9,18.5-1.7,26.3-1.7
		c5.4,0,12.3,1.4,21.1,3.1c4.3,0.8,9.1,1.8,14.5,2.8c4.2,0.7,8.7,1.6,13.1,2.4c13.9,2.5,27,4.9,35.6,5.7c10,0.9,34.1,3,40.7,3
		c0.8,0,1.5,0,2.3,0.1c0.4,0.5,1,1.3,1.3,1.7c5.2,7,11.5,8.2,20.5,9.2c4,0.4,9.8,0.7,16.6,1c9.2,0.4,20.6,0.9,30.4,2
		c3.1,0.4,6.3,0.6,9.4,0.7c3.9,0,8.8-0.5,11.9-4.4c3.2-4,2.2-8.5,1.6-10.9c-0.1-0.3-0.1-0.6-0.2-0.9c-0.6-2.9-2-12.2-3.1-19.8
		c-0.7-4.7-1.3-8.7-1.7-11.2c0.2-0.1,0.4-0.2,0.6-0.3l12-6c4.8-2.4,7.9-7.8,11.4-14.6c0.6-1.2,1.3-2.6,1.7-3.1
		c2.8-4.2,2.8-10.7,2.4-19.4c0-0.3,0-0.6,0-0.9c0.6-0.2,1.2-0.5,1.9-0.7c2.2-0.9,6.1-2.6,11.6-4.9c7-3,16.7-7.1,26.5-11.1
		c9.5-3.9,31.9-13.8,49.9-21.8c12.7-5.6,25.8-11.4,27.6-12.1C636.1,304.8,637.2,304.7,638.3,304.8 M635.1,305L635.1,305
		 M517.5,353.4L517.5,353.4 M489.2,397.9L489.2,397.9 M192.5,442.4L192.5,442.4 M638.3,296.8c-1.9-0.1-3.9,0.2-5.8,0.8
		c-3,1-61,27-78,34s-33,14-38,16s-7,2-7,6s1,15-1,18s-6,13-10,15l-12,6c-4,2-6,2-5,8s4,27,5,32c0.8,3.9,2.2,6.6-5.5,6.6
		c-2.8,0-5.7-0.3-8.5-0.6c-17-2-38-2-47-3s-12-2-15-6s-4-5-10-5s-29-2-40-3s-31-5-48-8s-28-6-37-6s-19,1-30,2s-13,0-20,5
		s-16,10-23,15s-10,7-14,8s-4,3-4,7s3,16,3,21s2,8-3,8s-19,2-30,3s-15,1-14,6s21,83,26,98s6,26,10,27s27,1,43,1s35,1,40,1
		s17,7,26,12s52,29,65,36s33,18,42,23s24,15,31,18s17,13,37,32s71,69,79,76s18,16,22.5,20.5c7,7,18,17,21,20c1.9,1.9,3.5,3,5.1,3
		c1,0,2.1-0.4,2.9-1c3-2,27.5-18.5,34.5-23.5s12-8,16-11s4-3,1-9s-11-18-18-32s-22-44-25-48s-3-6,0-9s28-27,38-36s54-46,65-55
		s25-22,33-28s14-9,16-14s11-29,12-33s0-12,0-16s0-5,7-6s50-4,60-5s67-5,77-6s18-2,22-2s5-3,7-8s13-27,16-34s2-10,0-15s-14-39-17-48
		s-8-19-10-26s-3-12-9-13s-22-5-43-11s-36-11-45-13s-17-4-24-8s-19-12-25-16c-6.1-4-12.5-7.7-19-11c-4-2-10-3-18-4s-78-10-91-11
		C645,297,641,296.8,638.3,296.8z"/>
	<path class="st2" d="M431.8,703.9c0,0,27.2-17.9,33.2-20.9s9-9,18-24s28-42,32-51c3.1-7.1,7.9-13.3,14-18c4-3,7-6,2-16
		s-19-40-23-50s-10-31-12-44s-8.9-43.5-8.9-43.5"/>
	<path class="st2" d="M263.6,610.4c0,0-6.6-43.4-9.6-67.4s-6-46-7-56s0-18-12-17s-47.7,2.7-47.7,2.7"/>
</g>
<g id="_texto" class="text">
	<g>
		<path class="st1" d="M187,589.1v2.8l4.9,0.1v1.9l-4.9-0.1v3.8h-2.4l0.1-10.5l7.9,0.1v2L187,589.1z"/>
		<path class="st1" d="M193.9,588.1c-0.3-0.3-0.4-0.6-0.4-0.9c0-0.4,0.1-0.7,0.4-0.9c0.3-0.2,0.6-0.4,1.1-0.4c0.4,0,0.8,0.1,1,0.4
			c0.3,0.2,0.4,0.5,0.4,0.9s-0.1,0.7-0.4,1c-0.3,0.3-0.6,0.4-1.1,0.4C194.6,588.5,194.2,588.4,193.9,588.1z M193.8,589.6h2.3
			l-0.1,8.1h-2.3L193.8,589.6z"/>
		<path class="st1" d="M205.6,590.6c0.6,0.6,0.9,1.5,0.9,2.7l-0.1,4.6h-2.3l0.1-4.3c0-0.6-0.1-1.1-0.4-1.4c-0.3-0.3-0.7-0.5-1.2-0.5
			c-0.6,0-1.1,0.2-1.4,0.5c-0.4,0.4-0.5,0.9-0.5,1.6l-0.1,4h-2.3l0.1-8.1h2.2v0.9c0.3-0.3,0.7-0.6,1.2-0.8s1-0.3,1.5-0.3
			C204.2,589.6,205,590,205.6,590.6z"/>
		<path class="st1" d="M216.6,594.6l-6.1-0.1c0.1,0.5,0.4,0.9,0.8,1.2s0.9,0.4,1.5,0.5c0.4,0,0.8-0.1,1.1-0.2
			c0.3-0.1,0.6-0.3,0.9-0.6l1.2,1.4c-0.8,0.9-1.9,1.3-3.3,1.3c-0.9,0-1.7-0.2-2.4-0.6c-0.7-0.4-1.2-0.9-1.6-1.5s-0.6-1.4-0.5-2.2
			c0-0.8,0.2-1.5,0.6-2.1c0.4-0.6,0.9-1.1,1.6-1.5c0.7-0.3,1.4-0.5,2.2-0.5s1.5,0.2,2.1,0.5s1.1,0.8,1.5,1.5
			c0.4,0.6,0.5,1.4,0.5,2.2C216.6,594,216.6,594.2,216.6,594.6z M211.1,592c-0.4,0.3-0.6,0.7-0.7,1.2l4,0.1
			c-0.1-0.5-0.3-0.9-0.6-1.2c-0.4-0.3-0.8-0.5-1.3-0.5C211.9,591.5,211.5,591.7,211.1,592z"/>
		<path class="st1" d="M218.9,597.9c-0.6-0.2-1.1-0.4-1.5-0.6l0.8-1.7c0.4,0.2,0.8,0.4,1.3,0.6c0.5,0.2,1,0.2,1.5,0.2
			c1,0,1.5-0.2,1.5-0.7c0-0.2-0.1-0.4-0.4-0.5c-0.3-0.1-0.7-0.2-1.2-0.3c-0.7-0.1-1.2-0.2-1.6-0.4c-0.4-0.1-0.8-0.4-1.1-0.7
			s-0.5-0.8-0.5-1.4c0-0.5,0.2-1,0.5-1.4s0.7-0.7,1.3-0.9s1.2-0.3,2-0.3c0.6,0,1.1,0.1,1.7,0.2c0.6,0.1,1,0.3,1.4,0.5l-0.8,1.7
			c-0.7-0.4-1.5-0.6-2.3-0.6c-0.5,0-0.9,0.1-1.1,0.2c-0.3,0.1-0.4,0.3-0.4,0.5c0,0.3,0.1,0.4,0.4,0.5c0.3,0.1,0.7,0.2,1.3,0.3
			c0.7,0.1,1.2,0.2,1.6,0.4c0.4,0.1,0.8,0.4,1.1,0.7s0.5,0.8,0.4,1.4c0,0.5-0.2,0.9-0.5,1.3s-0.7,0.7-1.3,0.9s-1.3,0.3-2.1,0.3
			C220.2,598.2,219.5,598.1,218.9,597.9z"/>
		<path class="st1" d="M231.3,597.8c-0.2,0.2-0.5,0.3-0.9,0.4c-0.3,0.1-0.7,0.1-1.1,0.1c-1,0-1.7-0.3-2.2-0.8s-0.8-1.2-0.8-2.2V592
			h-1.2v-1.8h1.2v-2h2.3v2h2v1.8h-2v3.3c0,0.3,0.1,0.6,0.3,0.8s0.4,0.3,0.7,0.3c0.4,0,0.7-0.1,0.9-0.3L231.3,597.8z"/>
		<path class="st1" d="M236.1,590.3c0.5-0.2,1-0.3,1.6-0.3v2.2c-0.3,0-0.4,0-0.5,0c-0.7,0-1.2,0.2-1.6,0.5c-0.4,0.4-0.6,0.9-0.6,1.7
			v3.8h-2.3l0.1-8.1h2.2v1.1C235.2,590.8,235.6,590.5,236.1,590.3z"/>
		<path class="st1" d="M245.2,591.1c0.7,0.6,1,1.5,1,2.7l-0.1,4.6h-2.2v-1c-0.4,0.7-1.3,1.1-2.5,1.1c-0.6,0-1.2-0.1-1.6-0.3
			s-0.8-0.5-1-0.9s-0.4-0.8-0.3-1.3c0-0.8,0.3-1.3,0.9-1.8s1.4-0.6,2.6-0.6h1.9c0-0.5-0.1-0.9-0.4-1.2c-0.3-0.3-0.8-0.4-1.4-0.4
			c-0.4,0-0.9,0.1-1.3,0.2c-0.4,0.1-0.8,0.3-1.1,0.5l-0.8-1.6c0.4-0.3,1-0.5,1.6-0.7s1.3-0.2,1.9-0.2
			C243.6,590.1,244.5,590.5,245.2,591.1z M243.1,596.6c0.3-0.2,0.5-0.5,0.7-0.8V595h-1.6c-1,0-1.4,0.3-1.5,0.9
			c0,0.3,0.1,0.5,0.3,0.7s0.6,0.3,1,0.3C242.5,596.9,242.8,596.8,243.1,596.6z"/>
		<path class="st1" d="M253.4,598.1c-0.2,0.2-0.5,0.3-0.9,0.4c-0.3,0.1-0.7,0.1-1.1,0.1c-1,0-1.7-0.3-2.2-0.8s-0.8-1.2-0.8-2.2v-3.3
			h-1.2v-1.8h1.2v-2h2.3v2h2v1.8h-2v3.3c0,0.3,0.1,0.6,0.3,0.8s0.4,0.3,0.7,0.3c0.4,0,0.7-0.1,0.9-0.3L253.4,598.1z"/>
	</g>
	<g>
		<path class="st1" d="M260.3,498.8l-0.7-4.8l-2.4-0.6l-0.3-2.5l11,3.2l0.3,2.4l-9.8,6.1l-0.3-2.5L260.3,498.8z M262,497.8l3.8-2.2
			l-4.2-1.1L262,497.8z"/>
		<path class="st1" d="M269.7,502l0.3,2.3l-11,1.5l-0.3-2.3L269.7,502z"/>
		<path class="st1" d="M259.9,509.4c0.3-0.7,0.7-1.3,1.3-1.8c0.6-0.5,1.3-0.7,2-0.9c0.8-0.1,1.5,0,2.2,0.3s1.2,0.7,1.7,1.4
			c0.4,0.6,0.7,1.4,0.8,2.2s0,1.6-0.2,2.3c-0.3,0.7-0.7,1.3-1.3,1.8c-0.6,0.5-1.3,0.7-2,0.9c-0.8,0.1-1.5,0-2.2-0.3
			s-1.2-0.7-1.7-1.4s-0.7-1.3-0.8-2.2C259.5,510.9,259.6,510.1,259.9,509.4z M262.4,512.9c0.5,0.3,1,0.4,1.7,0.4
			c0.7-0.1,1.2-0.4,1.5-0.8c0.3-0.4,0.5-1,0.4-1.5s-0.3-1.1-0.8-1.4s-1-0.5-1.7-0.4s-1.2,0.4-1.5,0.8s-0.5,1-0.4,1.6
			C261.6,512.1,261.9,512.6,262.4,512.9z"/>
		<path class="st1" d="M268.8,523.9c-0.5,0.7-1.4,1.1-2.5,1.3l-4.6,0.6l-0.3-2.3l4.2-0.6c0.6-0.1,1.1-0.3,1.4-0.6s0.4-0.7,0.3-1.3
			s-0.3-1-0.7-1.3c-0.4-0.3-1-0.4-1.7-0.3l-4,0.5l-0.3-2.3l8-1.1l0.3,2.2l-0.9,0.1c0.4,0.3,0.7,0.6,0.9,1s0.4,0.9,0.5,1.5
			C269.5,522.4,269.3,523.3,268.8,523.9z"/>
		<path class="st1" d="M262.2,528.7c0.1-0.7,0.2-1.2,0.4-1.6l1.8,0.5c-0.2,0.4-0.3,0.8-0.4,1.4c-0.1,0.5-0.1,1,0,1.5
			c0.1,1,0.4,1.4,0.9,1.4c0.2,0,0.4-0.2,0.4-0.5s0.1-0.7,0.1-1.3c0-0.7,0.1-1.2,0.1-1.7s0.2-0.8,0.5-1.2s0.7-0.6,1.3-0.7
			c0.5-0.1,1,0,1.4,0.3c0.4,0.2,0.8,0.6,1.1,1.2c0.3,0.5,0.5,1.2,0.6,1.9c0.1,0.6,0.1,1.1,0,1.7c0,0.6-0.2,1.1-0.3,1.5l-1.8-0.5
			c0.3-0.8,0.4-1.6,0.3-2.4c-0.1-0.5-0.2-0.9-0.4-1.1c-0.2-0.2-0.4-0.3-0.6-0.3s-0.4,0.2-0.5,0.5s-0.1,0.7-0.1,1.3
			c0,0.7-0.1,1.2-0.1,1.7c-0.1,0.4-0.2,0.8-0.5,1.2s-0.7,0.6-1.3,0.6c-0.5,0.1-1,0-1.4-0.3c-0.4-0.2-0.8-0.6-1.1-1.2
			c-0.3-0.5-0.5-1.2-0.6-2C262.1,530,262.1,529.3,262.2,528.7z"/>
		<path class="st1" d="M263.7,537.3c0.3-0.7,0.7-1.3,1.3-1.8s1.3-0.7,2-0.9c0.8-0.1,1.5,0,2.2,0.3s1.2,0.7,1.7,1.4
			c0.4,0.6,0.7,1.4,0.8,2.2s0,1.6-0.2,2.3c-0.3,0.7-0.7,1.3-1.3,1.8c-0.6,0.5-1.3,0.7-2,0.9s-1.5,0-2.2-0.3s-1.2-0.7-1.7-1.4
			c-0.4-0.6-0.7-1.3-0.8-2.2S263.4,538,263.7,537.3z M266.2,540.8c0.5,0.3,1,0.4,1.7,0.4c0.7-0.1,1.2-0.4,1.5-0.8
			c0.3-0.4,0.5-1,0.4-1.5c-0.1-0.6-0.3-1.1-0.8-1.4c-0.5-0.3-1-0.5-1.7-0.4s-1.2,0.4-1.5,0.8c-0.3,0.4-0.5,1-0.4,1.6
			C265.4,540,265.7,540.5,266.2,540.8z"/>
		<path class="st1" d="M265.8,552c0.3-0.9,0.9-1.7,1.6-2.3c0.8-0.6,1.6-1,2.7-1.1c1-0.1,2,0,2.9,0.4s1.6,1,2.2,1.8s0.9,1.7,1.1,2.8
			c0.1,0.9,0.1,1.7-0.1,2.5s-0.6,1.4-1.1,2l-1.6-1.4c0.7-0.8,1-1.7,0.9-2.8c-0.1-0.6-0.3-1.2-0.7-1.7c-0.4-0.5-0.8-0.8-1.3-1
			s-1.1-0.3-1.8-0.2c-0.6,0.1-1.2,0.3-1.7,0.7s-0.8,0.8-1,1.3s-0.3,1.1-0.2,1.8c0.1,1,0.7,1.9,1.6,2.4l-1.2,1.7
			c-0.7-0.4-1.2-1-1.6-1.7s-0.7-1.5-0.8-2.4C265.3,553.9,265.4,552.9,265.8,552z"/>
		<path class="st1" d="M274.5,565.7c-0.5,0.7-1.3,1.2-2.5,1.4l-4.6,0.6l-0.3-2.2l1-0.1c-0.8-0.3-1.3-1.1-1.4-2.3
			c-0.1-0.6-0.1-1.2,0.1-1.6c0.1-0.5,0.4-0.9,0.7-1.2c0.3-0.3,0.7-0.5,1.2-0.5c0.7-0.1,1.4,0.1,1.9,0.6s0.8,1.3,1,2.5l0.3,1.8
			c0.5-0.1,0.9-0.3,1.1-0.6s0.3-0.8,0.2-1.4c-0.1-0.4-0.2-0.8-0.4-1.2c-0.2-0.4-0.4-0.7-0.7-1l1.5-1.1c0.4,0.4,0.7,0.9,0.9,1.5
			c0.3,0.6,0.4,1.2,0.5,1.8C275.1,564,275,565,274.5,565.7z M268.7,564.5c0.2,0.3,0.5,0.5,0.9,0.5l0.8-0.1l-0.2-1.6
			c-0.1-1-0.5-1.4-1.1-1.3c-0.3,0-0.5,0.2-0.7,0.4c-0.1,0.3-0.2,0.6-0.1,1C268.3,563.9,268.5,564.2,268.7,564.5z"/>
		<path class="st1" d="M275.9,576.1c-0.5,0.7-1.4,1.1-2.5,1.3l-4.6,0.6l-0.3-2.3l4.2-0.6c0.6-0.1,1.1-0.3,1.4-0.6s0.4-0.7,0.3-1.3
			s-0.3-1-0.7-1.3c-0.4-0.3-1-0.4-1.7-0.3l-4,0.5l-0.3-2.3l8-1.1l0.3,2.2l-1,0.1c0.4,0.3,0.7,0.6,0.9,1c0.2,0.4,0.4,0.9,0.5,1.5
			C276.6,574.5,276.4,575.4,275.9,576.1z"/>
		<path class="st1" d="M269.7,581.6c0.3-0.7,0.7-1.3,1.3-1.8c0.6-0.5,1.3-0.7,2-0.9c0.8-0.1,1.5,0,2.2,0.3s1.2,0.7,1.7,1.4
			c0.4,0.6,0.7,1.4,0.8,2.2s0,1.6-0.2,2.3c-0.3,0.7-0.7,1.3-1.3,1.8c-0.6,0.5-1.3,0.7-2,0.9c-0.8,0.1-1.5,0-2.2-0.3
			s-1.2-0.7-1.7-1.4c-0.4-0.6-0.7-1.3-0.8-2.2S269.4,582.3,269.7,581.6z M272.2,585.1c0.5,0.3,1,0.4,1.7,0.4s1.2-0.4,1.5-0.8
			c0.3-0.4,0.5-1,0.4-1.5c-0.1-0.6-0.3-1.1-0.8-1.4c-0.5-0.3-1-0.5-1.7-0.4s-1.2,0.4-1.5,0.8c-0.3,0.4-0.5,1-0.4,1.6
			C271.5,584.3,271.7,584.8,272.2,585.1z"/>
	</g>
	<g>
		<path class="st1" d="M298.1,615.2l-0.4-3.5l-0.1-0.1l-1.9-1l-1.4,2.6l-2.1-1.2l5.1-9.2l4,2.2c0.8,0.4,1.4,1,1.9,1.6
			s0.7,1.2,0.8,1.9c0.1,0.7-0.1,1.4-0.5,2s-0.9,1.2-1.5,1.5s-1.3,0.4-2,0.4l0.4,4.1L298.1,615.2z M301.5,607.8
			c-0.2-0.5-0.6-0.9-1.2-1.2l-1.7-1l-1.8,3.2l1.7,1c0.6,0.4,1.2,0.5,1.7,0.4s0.9-0.4,1.1-0.9C301.6,608.8,301.6,608.3,301.5,607.8z"
			/>
		<path class="st1" d="M303.3,617.6c-0.4-0.6-0.6-1.3-0.7-2.1c0-0.7,0.1-1.5,0.5-2.2s0.9-1.2,1.5-1.6c0.6-0.4,1.3-0.5,2.1-0.5
			c0.8,0,1.5,0.2,2.3,0.6c0.7,0.4,1.3,0.9,1.7,1.6c0.4,0.6,0.6,1.3,0.7,2.1c0,0.7-0.1,1.5-0.5,2.2s-0.9,1.2-1.5,1.6
			c-0.6,0.4-1.3,0.5-2.1,0.5c-0.8,0-1.5-0.2-2.3-0.6C304.3,618.7,303.8,618.2,303.3,617.6z M307.6,617.6c0.5-0.2,1-0.6,1.3-1.1
			c0.3-0.6,0.4-1.2,0.3-1.7s-0.5-1-1-1.2s-1.1-0.3-1.6-0.2c-0.5,0.2-1,0.5-1.3,1.1s-0.4,1.2-0.3,1.7s0.5,1,1,1.2
			C306.5,617.7,307.1,617.8,307.6,617.6z"/>
		<path class="st1" d="M323,616.1l-5.4,9.8l-2-1.1l0.4-0.8c-0.8,0.3-1.8,0.2-2.7-0.3c-0.7-0.4-1.2-0.8-1.6-1.4
			c-0.4-0.6-0.6-1.3-0.6-2s0.2-1.4,0.6-2.2c0.4-0.7,0.9-1.3,1.5-1.7s1.3-0.6,2-0.6s1.4,0.2,2.1,0.5c0.9,0.5,1.5,1.2,1.6,2l1.9-3.4
			L323,616.1z M316.2,622.4c0.5-0.2,1-0.5,1.3-1.1s0.4-1.2,0.3-1.7s-0.5-1-1-1.2c-0.5-0.3-1.1-0.3-1.6-0.2c-0.5,0.2-1,0.5-1.3,1.1
			s-0.4,1.2-0.3,1.7s0.5,1,1,1.2C315.2,622.5,315.7,622.5,316.2,622.4z"/>
		<path class="st1" d="M321.1,627.3c-0.4-0.6-0.6-1.3-0.7-2.1c0-0.7,0.1-1.5,0.5-2.2s0.9-1.2,1.5-1.6c0.6-0.4,1.3-0.5,2.1-0.5
			c0.8,0,1.5,0.2,2.3,0.6c0.7,0.4,1.3,0.9,1.7,1.6c0.4,0.6,0.6,1.3,0.7,2.1c0,0.7-0.1,1.5-0.5,2.2s-0.9,1.2-1.5,1.6
			c-0.6,0.4-1.3,0.5-2.1,0.5c-0.8,0-1.5-0.2-2.3-0.6S321.5,627.9,321.1,627.3z M325.3,627.4c0.5-0.2,1-0.6,1.3-1.1s0.4-1.2,0.3-1.7
			s-0.5-1-1-1.2c-0.5-0.3-1.1-0.3-1.6-0.2c-0.5,0.2-1,0.5-1.3,1.1s-0.4,1.2-0.3,1.7s0.5,1,1,1.2
			C324.2,627.5,324.8,627.5,325.3,627.4z"/>
		<path class="st1" d="M333.5,621.9l2.1,1.1l-5.4,9.8l-2.1-1.1L333.5,621.9z"/>
		<path class="st1" d="M338.1,628.1l1.8,1l-0.9,1.6l-1.8-1l-2.9,5.3l-2.1-1.1l2.9-5.3L334,628l0.9-1.6l1.1,0.6l0.2-0.3
			c0.4-0.8,1-1.3,1.8-1.5c0.7-0.2,1.5-0.1,2.4,0.4c0.3,0.2,0.6,0.4,0.8,0.6s0.4,0.4,0.5,0.7l-1.4,1.2c-0.1-0.3-0.4-0.5-0.7-0.7
			c-0.6-0.3-1.1-0.2-1.5,0.5L338.1,628.1z"/>
		<path class="st1" d="M338.6,636.9c-0.4-0.6-0.6-1.3-0.7-2.1c0-0.7,0.1-1.5,0.5-2.2s0.9-1.2,1.5-1.6c0.6-0.4,1.3-0.5,2.1-0.5
			c0.8,0,1.5,0.2,2.3,0.6c0.7,0.4,1.3,0.9,1.7,1.6c0.4,0.6,0.6,1.3,0.7,2.1s-0.1,1.5-0.5,2.2s-0.9,1.2-1.5,1.6
			c-0.6,0.4-1.3,0.5-2.1,0.5s-1.5-0.2-2.3-0.6C339.6,638.1,339,637.6,338.6,636.9z M342.9,637c0.5-0.2,1-0.6,1.3-1.1
			c0.3-0.6,0.4-1.2,0.3-1.7s-0.5-1-1-1.2c-0.5-0.3-1.1-0.3-1.6-0.2c-0.5,0.2-1,0.5-1.3,1.1s-0.4,1.2-0.3,1.7s0.5,1,1,1.2
			S342.3,637.2,342.9,637z"/>
		<path class="st1" d="M362,637.5l-5.4,9.8l-2-1.1l0.4-0.8c-0.8,0.3-1.8,0.2-2.7-0.3c-0.7-0.4-1.2-0.8-1.6-1.4
			c-0.4-0.6-0.6-1.3-0.6-2s0.2-1.4,0.6-2.2c0.4-0.7,0.9-1.3,1.5-1.7s1.3-0.6,2-0.6s1.4,0.2,2.1,0.5c0.9,0.5,1.5,1.2,1.6,2l1.9-3.4
			L362,637.5z M355.2,643.8c0.5-0.2,1-0.5,1.3-1.1s0.4-1.2,0.3-1.7s-0.5-1-1-1.2c-0.5-0.3-1.1-0.3-1.6-0.2c-0.5,0.2-1,0.5-1.3,1.1
			s-0.4,1.2-0.3,1.7s0.5,1,1,1.2C354.2,643.9,354.7,643.9,355.2,643.8z"/>
		<path class="st1" d="M367,649.1l-5.4-2.9c-0.1,0.5-0.1,1,0.1,1.4c0.2,0.5,0.6,0.8,1.1,1.1c0.4,0.2,0.7,0.3,1.1,0.4
			c0.3,0,0.7,0,1.1-0.1l0.4,1.8c-1.1,0.4-2.3,0.2-3.5-0.5c-0.8-0.4-1.4-1-1.9-1.6s-0.7-1.3-0.7-2.1c0-0.7,0.1-1.5,0.5-2.2
			s0.9-1.2,1.5-1.6c0.6-0.4,1.3-0.6,2.1-0.6c0.7,0,1.5,0.2,2.2,0.6c0.7,0.4,1.2,0.9,1.6,1.5s0.6,1.3,0.6,2s-0.2,1.5-0.6,2.2
			C367.3,648.6,367.2,648.8,367,649.1z M363.5,644.2c-0.5,0.1-0.9,0.3-1.2,0.8l3.5,1.9c0.2-0.5,0.2-0.9,0-1.4
			c-0.2-0.4-0.5-0.8-0.9-1C364.4,644.2,363.9,644.1,363.5,644.2z"/>
		<path class="st1" d="M371.6,655.4c-0.6-0.6-1-1.1-1.2-1.7l1.6-1.2c0.2,0.5,0.6,1,1,1.5s0.9,0.9,1.5,1.2s1.1,0.5,1.5,0.5
			s0.7-0.2,0.8-0.5c0.1-0.2,0.1-0.4,0-0.7c-0.1-0.2-0.2-0.5-0.5-0.7s-0.5-0.5-0.9-0.9c-0.6-0.6-1.1-1-1.4-1.4
			c-0.4-0.4-0.6-0.9-0.7-1.4s0-1.1,0.3-1.7c0.3-0.5,0.7-0.9,1.2-1.2s1.2-0.4,1.9-0.3c0.7,0.1,1.5,0.3,2.3,0.8
			c0.6,0.3,1.1,0.7,1.6,1.2s0.9,0.9,1.1,1.4l-1.5,1.3c-0.6-1-1.3-1.7-2.2-2.1c-0.6-0.3-1.1-0.5-1.5-0.4c-0.4,0-0.7,0.2-0.8,0.5
			c-0.2,0.3-0.1,0.6,0.1,1s0.7,0.8,1.3,1.3c0.6,0.6,1.1,1,1.4,1.4c0.4,0.4,0.6,0.9,0.7,1.4s0,1.1-0.3,1.7c-0.3,0.5-0.7,0.9-1.2,1.2
			s-1.2,0.4-1.9,0.3c-0.7-0.1-1.5-0.3-2.4-0.8C372.9,656.4,372.2,655.9,371.6,655.4z"/>
		<path class="st1" d="M387.8,656.1c0.3,0.8,0.2,1.8-0.4,2.8l-2.2,4l-1.9-1.1l0.5-0.9c-0.7,0.4-1.6,0.4-2.7-0.2
			c-0.5-0.3-1-0.6-1.3-1.1c-0.3-0.4-0.5-0.8-0.5-1.3c0-0.4,0.1-0.9,0.3-1.3c0.4-0.7,0.9-1,1.6-1.1s1.6,0.1,2.6,0.7l1.6,0.9
			c0.2-0.4,0.3-0.9,0.2-1.3s-0.5-0.7-1-1c-0.4-0.2-0.8-0.4-1.2-0.4c-0.4-0.1-0.8-0.1-1.2,0l0.1-1.8c0.5-0.1,1.1,0,1.7,0.1
			s1.2,0.4,1.8,0.7C386.8,654.5,387.5,655.2,387.8,656.1z M383.4,660c0.4,0,0.7-0.1,1-0.4l0.4-0.7l-1.4-0.8
			c-0.8-0.5-1.4-0.4-1.7,0.1c-0.1,0.3-0.2,0.5,0,0.8c0.1,0.3,0.4,0.5,0.7,0.7C382.6,659.9,383,660,383.4,660z"/>
		<path class="st1" d="M392.4,654.2l2.1,1.1l-5.4,9.8L387,664L392.4,654.2z"/>
		<path class="st1" d="M399.9,662.7c0.3,0.8,0.2,1.8-0.4,2.8l-2.2,4l-1.9-1.1l0.5-0.9c-0.7,0.4-1.6,0.4-2.7-0.2
			c-0.5-0.3-1-0.6-1.3-1.1c-0.3-0.4-0.5-0.8-0.5-1.3c0-0.4,0.1-0.9,0.3-1.3c0.4-0.7,0.9-1,1.6-1.1s1.6,0.1,2.6,0.7l1.6,0.9
			c0.2-0.4,0.3-0.9,0.2-1.3c-0.1-0.4-0.5-0.7-1-1c-0.4-0.2-0.8-0.4-1.2-0.4s-0.8-0.1-1.2,0l0.1-1.8c0.5-0.1,1.1,0,1.7,0.1
			s1.2,0.4,1.8,0.7C398.9,661.1,399.6,661.9,399.9,662.7z M395.4,666.6c0.4,0,0.7-0.1,1-0.4l0.4-0.7l-1.4-0.8
			c-0.8-0.5-1.4-0.4-1.7,0.1c-0.1,0.3-0.2,0.5,0,0.8c0.1,0.3,0.4,0.5,0.7,0.7C394.7,666.5,395.1,666.6,395.4,666.6z"/>
		<path class="st1" d="M405.8,672.2l-0.9,1.6l-6.3-3.5l0.7-1.2l5.9-2.3l-3.5-1.9l0.9-1.6l6.1,3.3l-0.7,1.2l-5.9,2.3L405.8,672.2z"/>
		<path class="st1" d="M415.1,671.1c0.3,0.8,0.2,1.8-0.4,2.8l-2.2,4l-1.9-1.1l0.5-0.9c-0.7,0.4-1.6,0.4-2.7-0.2
			c-0.5-0.3-1-0.6-1.3-1.1c-0.3-0.4-0.5-0.8-0.5-1.3c0-0.4,0.1-0.9,0.3-1.3c0.4-0.7,0.9-1,1.6-1.1s1.6,0.1,2.6,0.7l1.6,0.9
			c0.2-0.4,0.3-0.9,0.2-1.3c-0.1-0.4-0.5-0.7-1-1c-0.4-0.2-0.8-0.4-1.2-0.4c-0.4-0.1-0.8-0.1-1.2,0l0.1-1.8c0.5-0.1,1.1,0,1.7,0.1
			s1.2,0.4,1.8,0.7C414.1,669.5,414.8,670.2,415.1,671.1z M410.7,675c0.4,0,0.7-0.1,1-0.4l0.4-0.7l-1.4-0.8
			c-0.8-0.5-1.4-0.4-1.7,0.1c-0.1,0.3-0.2,0.5,0,0.8c0.1,0.3,0.4,0.5,0.7,0.7C410,674.9,410.3,675,410.7,675z"/>
		<path class="st1" d="M421.1,673.7c0.5,0.1,1,0.2,1.6,0.5l-1,1.9c-0.2-0.1-0.4-0.2-0.4-0.3c-0.6-0.3-1.1-0.4-1.7-0.3
			s-1,0.5-1.3,1.2l-1.8,3.3l-2.1-1.1l3.9-7.1l2,1.1l-0.5,0.9C420.1,673.7,420.6,673.6,421.1,673.7z"/>
	</g>
	<g>
		<path class="st1" d="M476.9,702.9c-0.9,0.4-1.8,0.6-2.8,0.6c-1-0.1-1.9-0.4-2.7-1c-0.9-0.6-1.5-1.3-1.9-2.2s-0.5-1.8-0.4-2.8
			s0.5-1.9,1.1-2.8c0.5-0.7,1.1-1.3,1.8-1.7c0.7-0.4,1.4-0.7,2.2-0.7l0.3,2.1c-1.1,0.1-1.9,0.6-2.5,1.5c-0.4,0.5-0.6,1.1-0.6,1.7
			c-0.1,0.6,0,1.1,0.3,1.7s0.6,1,1.2,1.3c0.5,0.4,1.1,0.6,1.7,0.6s1.1,0,1.7-0.3c0.5-0.3,1-0.6,1.3-1.2c0.6-0.9,0.8-1.8,0.5-2.9
			l2.1-0.5c0.2,0.8,0.2,1.5,0.1,2.3s-0.5,1.6-1,2.3C478.6,701.8,477.8,702.4,476.9,702.9z"/>
		<path class="st1" d="M474.6,690.5c-0.4,0.1-0.7,0-1-0.2s-0.5-0.5-0.5-0.9s0-0.7,0.3-1.1s0.5-0.6,0.9-0.7c0.4-0.1,0.7,0,1,0.2
			s0.5,0.5,0.6,0.9s0,0.7-0.3,1.1C475.3,690.2,475,690.4,474.6,690.5z M475.8,691.4l1.3-1.9l6.6,4.6l-1.3,1.9L475.8,691.4z"/>
		<path class="st1" d="M483,681.1l6.6,4.6l-1.3,1.8l-0.8-0.6c0.1,0.5,0.1,0.9,0,1.4s-0.3,0.9-0.6,1.3c-0.6,0.9-1.3,1.4-2.2,1.5
			c-0.9,0.2-1.8-0.1-2.8-0.8l-3.7-2.6l1.3-1.9l3.5,2.4c1.1,0.7,1.9,0.7,2.5-0.2c0.3-0.5,0.4-0.9,0.3-1.4s-0.5-0.9-1-1.4l-3.3-2.3
			L483,681.1z"/>
		<path class="st1" d="M486.5,670.8l9.1,6.4l-1.3,1.8l-0.8-0.5c0.2,0.9,0,1.8-0.6,2.7c-0.4,0.6-1,1.1-1.6,1.4s-1.3,0.4-2,0.4
			s-1.4-0.3-2.1-0.8s-1.2-1-1.5-1.7c-0.3-0.6-0.4-1.3-0.4-2s0.3-1.4,0.8-2c0.6-0.8,1.3-1.3,2.2-1.4l-3.2-2.2L486.5,670.8z
			 M492,678.2c-0.1-0.6-0.4-1-1-1.4s-1.1-0.5-1.7-0.5c-0.6,0.1-1,0.4-1.3,0.9s-0.5,1-0.4,1.6s0.4,1,1,1.4s1.1,0.5,1.7,0.5
			s1-0.4,1.3-0.9C492,679.2,492.1,678.7,492,678.2z"/>
		<path class="st1" d="M494.4,666.2c0.9-0.2,1.8,0,2.8,0.7l3.8,2.6l-1.3,1.8l-0.8-0.6c0.4,0.8,0.2,1.7-0.5,2.7
			c-0.4,0.5-0.8,0.9-1.2,1.1c-0.4,0.3-0.9,0.4-1.3,0.4s-0.9-0.2-1.2-0.4c-0.6-0.4-0.9-1-1-1.7c0-0.7,0.3-1.5,1-2.5l1.1-1.5
			c-0.4-0.3-0.8-0.4-1.2-0.3c-0.4,0.1-0.8,0.4-1.1,0.9c-0.2,0.4-0.4,0.7-0.6,1.2c-0.1,0.4-0.2,0.8-0.2,1.2l-1.8-0.3
			c0-0.5,0.1-1.1,0.3-1.7c0.2-0.6,0.5-1.2,0.9-1.7C492.7,667,493.5,666.4,494.4,666.2z M497.8,671c0-0.4-0.1-0.7-0.3-1l-0.7-0.5
			l-0.9,1.3c-0.5,0.8-0.6,1.4-0.1,1.7c0.2,0.2,0.5,0.2,0.8,0.1c0.3-0.1,0.5-0.3,0.8-0.6C497.6,671.7,497.8,671.4,497.8,671z"/>
		<path class="st1" d="M497.8,654.6l9.1,6.4l-1.3,1.8l-0.8-0.5c0.2,0.9,0,1.8-0.6,2.7c-0.4,0.6-1,1.1-1.6,1.4
			c-0.6,0.3-1.3,0.4-2,0.4c-0.7-0.1-1.4-0.3-2.1-0.8s-1.2-1-1.5-1.7c-0.3-0.6-0.4-1.3-0.4-2c0.1-0.7,0.3-1.4,0.8-2
			c0.6-0.8,1.3-1.3,2.2-1.4l-3.2-2.2L497.8,654.6z M503.3,662c-0.1-0.6-0.4-1-1-1.4s-1.1-0.5-1.7-0.5c-0.6,0.1-1,0.4-1.3,0.9
			s-0.5,1-0.4,1.6s0.4,1,1,1.4s1.1,0.5,1.7,0.5s1-0.4,1.4-0.9C503.3,663.1,503.4,662.6,503.3,662z"/>
		<path class="st1" d="M506.2,642.7l9.1,6.4l-1.3,1.8l-0.8-0.5c0.2,0.9,0,1.8-0.6,2.7c-0.4,0.6-1,1.1-1.6,1.4
			c-0.6,0.3-1.3,0.4-2,0.4c-0.7-0.1-1.4-0.3-2.1-0.8s-1.2-1-1.5-1.7c-0.3-0.6-0.4-1.3-0.4-2s0.3-1.4,0.8-2c0.6-0.8,1.3-1.3,2.2-1.4
			l-3.2-2.2L506.2,642.7z M511.7,650c-0.1-0.6-0.4-1-1-1.4s-1.1-0.5-1.7-0.5c-0.6,0.1-1,0.4-1.3,0.9s-0.5,1-0.4,1.6s0.4,1,1,1.4
			s1.1,0.5,1.7,0.5c0.6-0.1,1-0.4,1.4-0.9C511.7,651.1,511.8,650.6,511.7,650z"/>
		<path class="st1" d="M518.3,638.9l-3.5,5c0.5,0.2,0.9,0.2,1.4,0s0.9-0.5,1.2-1c0.2-0.3,0.4-0.7,0.5-1s0.1-0.7,0-1.1l1.8-0.2
			c0.3,1.1,0,2.3-0.8,3.5c-0.5,0.7-1.1,1.3-1.8,1.7s-1.4,0.5-2.1,0.5c-0.7-0.1-1.4-0.3-2.1-0.8c-0.6-0.5-1.1-1-1.4-1.7
			s-0.4-1.4-0.3-2.1c0.1-0.7,0.4-1.4,0.8-2.1c0.5-0.6,1-1.1,1.6-1.5c0.6-0.3,1.3-0.5,2.1-0.4c0.7,0.1,1.4,0.3,2.1,0.8
			C517.8,638.5,518,638.7,518.3,638.9z M513,641.9c0,0.5,0.2,0.9,0.6,1.2l2.3-3.3c-0.5-0.2-0.9-0.3-1.4-0.2s-0.8,0.4-1.1,0.8
			C513.1,641,513,641.4,513,641.9z"/>
		<path class="st1" d="M515.9,629.9l1.4-2l7,4.9l3-4.3l1.6,1.1l-4.4,6.3L515.9,629.9z"/>
		<path class="st1" d="M531.3,620.3l-3.5,5c0.5,0.2,0.9,0.2,1.4,0s0.9-0.5,1.2-1c0.2-0.3,0.4-0.7,0.5-1s0.1-0.7,0-1.1l1.8-0.2
			c0.3,1.1,0,2.3-0.8,3.5c-0.5,0.7-1.1,1.3-1.8,1.7s-1.4,0.5-2.1,0.5c-0.7-0.1-1.4-0.3-2.1-0.8c-0.6-0.5-1.1-1-1.4-1.7
			s-0.4-1.4-0.3-2.1c0.1-0.7,0.4-1.4,0.8-2.1c0.5-0.6,1-1.1,1.6-1.5c0.6-0.3,1.3-0.5,2.1-0.4c0.7,0.1,1.4,0.3,2.1,0.8
			C530.8,619.9,531,620,531.3,620.3z M526,623.3c0,0.5,0.2,0.9,0.6,1.2l2.3-3.3c-0.5-0.2-0.9-0.3-1.4-0.2s-0.8,0.4-1.1,0.8
			C526.1,622.4,526,622.8,526,623.3z"/>
		<path class="st1" d="M528.3,610.8l1.4-2.1l0.2,3.5l-1,1.5L528.3,610.8z M535.5,619.4c-0.7,0.3-1.4,0.5-2.1,0.4s-1.4-0.3-2.1-0.8
			c-0.7-0.5-1.1-1-1.4-1.7c-0.3-0.7-0.4-1.4-0.3-2.1c0.1-0.8,0.4-1.5,0.9-2.2s1.1-1.2,1.7-1.6c0.7-0.3,1.4-0.5,2.1-0.4
			c0.7,0,1.4,0.3,2.1,0.8c0.7,0.5,1.1,1,1.4,1.7c0.3,0.7,0.4,1.4,0.3,2.1c-0.1,0.8-0.4,1.5-0.9,2.2
			C536.8,618.5,536.2,619.1,535.5,619.4z M536.1,615.2c-0.1-0.5-0.4-1-1-1.4s-1.1-0.5-1.7-0.5c-0.6,0.1-1,0.4-1.3,0.9
			s-0.5,1-0.4,1.6s0.4,1,1,1.4s1.1,0.5,1.7,0.5c0.6-0.1,1-0.4,1.3-0.9C536.1,616.2,536.2,615.7,536.1,615.2z"/>
		<path class="st1" d="M538.8,602.7c0.8-0.2,1.8,0.1,2.7,0.8l3.8,2.7L544,608l-3.5-2.4c-0.5-0.4-1-0.5-1.4-0.5s-0.8,0.3-1.1,0.7
			c-0.3,0.5-0.5,1-0.4,1.5s0.4,1,1,1.4l3.3,2.3l-1.3,1.9l-6.6-4.6l1.3-1.8l0.8,0.5c-0.1-0.4-0.1-0.9,0-1.4s0.3-1,0.6-1.4
			C537.3,603.3,538,602.8,538.8,602.7z"/>
		<path class="st1" d="M491.7,694.8l9.1,6.4l-1.3,1.8l-0.8-0.5c0.2,0.9,0,1.8-0.6,2.7c-0.4,0.6-1,1.1-1.6,1.4
			c-0.6,0.3-1.3,0.4-2,0.4c-0.7-0.1-1.4-0.3-2.1-0.8s-1.2-1-1.5-1.7c-0.3-0.6-0.4-1.3-0.4-2c0.1-0.7,0.3-1.4,0.8-2
			c0.6-0.8,1.3-1.3,2.2-1.4l-3.2-2.2L491.7,694.8z M497.1,702.1c-0.1-0.6-0.4-1-1-1.4s-1.1-0.5-1.7-0.5c-0.6,0.1-1,0.4-1.3,0.9
			s-0.5,1-0.4,1.6s0.4,1,1,1.4s1.1,0.5,1.7,0.5s1-0.4,1.3-0.9C497.1,703.2,497.3,702.7,497.1,702.1z"/>
		<path class="st1" d="M503.8,691l-3.5,5c0.5,0.2,0.9,0.2,1.4,0s0.9-0.5,1.2-1c0.2-0.3,0.4-0.7,0.5-1s0.1-0.7,0-1.1l1.8-0.2
			c0.3,1.1,0,2.3-0.8,3.5c-0.5,0.7-1.1,1.3-1.8,1.7c-0.7,0.4-1.4,0.5-2.1,0.5s-1.4-0.3-2.1-0.8c-0.6-0.5-1.1-1-1.4-1.7
			s-0.4-1.4-0.3-2.1c0.1-0.7,0.4-1.4,0.8-2.1c0.5-0.6,1-1.1,1.6-1.5s1.3-0.5,2.1-0.4c0.7,0.1,1.4,0.3,2.1,0.8
			C503.3,690.6,503.4,690.8,503.8,691z M498.5,694c0,0.5,0.2,0.9,0.6,1.2l2.3-3.3c-0.5-0.2-0.9-0.3-1.4-0.2s-0.8,0.4-1.1,0.8
			C498.6,693.1,498.4,693.5,498.5,694z"/>
		<path class="st1" d="M506.9,674.1l8.6,6l-1.1,1.6l-8.2,0.6l5.2,3.7l-1.4,2l-8.6-6l1.2-1.6l8.2-0.6l-5.2-3.7L506.9,674.1z"/>
		<path class="st1" d="M509.1,672.6c-0.4,0.1-0.7,0-1-0.2s-0.5-0.5-0.5-0.9c-0.1-0.4,0-0.7,0.3-1.1c0.2-0.4,0.5-0.6,0.9-0.7
			c0.4-0.1,0.7,0,1,0.2s0.5,0.5,0.6,0.9s0,0.7-0.3,1.1C509.7,672.3,509.4,672.6,509.1,672.6z M510.2,673.6l1.3-1.9l6.6,4.6l-1.3,1.9
			L510.2,673.6z"/>
		<path class="st1" d="M520,673c-0.7,0.4-1.4,0.5-2.1,0.5c-0.7,0-1.4-0.3-2.1-0.8c-0.7-0.5-1.1-1-1.4-1.7c-0.3-0.7-0.4-1.4-0.3-2.2
			c0.1-0.8,0.4-1.5,0.9-2.2s1.1-1.2,1.7-1.5c0.7-0.3,1.3-0.4,2-0.3l-0.2,2c-0.8-0.1-1.5,0.2-2,0.9c-0.3,0.5-0.5,1-0.4,1.6
			s0.4,1,1,1.4s1.1,0.5,1.7,0.4c0.6-0.1,1-0.4,1.4-0.9c0.5-0.7,0.5-1.4,0.1-2.1l1.9-0.9c0.4,0.6,0.5,1.3,0.4,2s-0.3,1.4-0.8,2.1
			C521.3,672.1,520.7,672.6,520,673z"/>
		<path class="st1" d="M522,658.1c0.9-0.2,1.8,0,2.8,0.7l3.8,2.6l-1.3,1.8l-0.8-0.6c0.4,0.8,0.2,1.7-0.5,2.7
			c-0.4,0.5-0.8,0.9-1.2,1.1c-0.4,0.3-0.9,0.4-1.3,0.4c-0.4,0-0.9-0.2-1.2-0.4c-0.6-0.4-0.9-1-1-1.7c0-0.7,0.3-1.5,1-2.5l1.1-1.5
			c-0.4-0.3-0.8-0.4-1.2-0.3c-0.4,0.1-0.8,0.4-1.1,0.9c-0.2,0.4-0.4,0.7-0.6,1.2c-0.1,0.4-0.2,0.8-0.2,1.2l-1.8-0.3
			c0-0.5,0.1-1.1,0.3-1.7c0.2-0.6,0.5-1.2,0.9-1.7C520.4,658.9,521.2,658.3,522,658.1z M525.5,662.9c0-0.4-0.1-0.7-0.3-1l-0.7-0.5
			l-0.9,1.3c-0.5,0.8-0.6,1.4-0.1,1.7c0.2,0.2,0.5,0.2,0.8,0.1c0.3-0.1,0.5-0.3,0.8-0.6C525.3,663.6,525.4,663.2,525.5,662.9z"/>
		<path class="st1" d="M525.3,652.4c0.1-0.5,0.3-1,0.7-1.5l1.8,1.2c-0.2,0.2-0.3,0.3-0.3,0.4c-0.4,0.5-0.5,1.1-0.4,1.6
			s0.4,1,1.1,1.4l3.1,2.2l-1.3,1.9l-6.6-4.6l1.3-1.8l0.9,0.6C525.2,653.4,525.2,652.9,525.3,652.4z"/>
		<path class="st1" d="M531,645.3c0.9-0.2,1.8,0,2.8,0.7l3.8,2.6l-1.3,1.8l-0.8-0.6c0.4,0.8,0.2,1.7-0.5,2.7
			c-0.4,0.5-0.8,0.9-1.2,1.1c-0.4,0.3-0.9,0.4-1.3,0.4c-0.4,0-0.9-0.2-1.2-0.4c-0.6-0.4-0.9-1-1-1.7c0-0.7,0.3-1.5,1-2.5l1.1-1.5
			c-0.4-0.3-0.8-0.4-1.2-0.3c-0.4,0.1-0.8,0.4-1.1,0.9c-0.2,0.4-0.4,0.7-0.6,1.2c-0.1,0.4-0.2,0.8-0.2,1.2l-1.8-0.3
			c0-0.5,0.1-1.1,0.3-1.7c0.2-0.6,0.5-1.2,0.9-1.7C529.3,646.1,530.1,645.5,531,645.3z M534.4,650.1c0-0.4-0.1-0.7-0.3-1l-0.7-0.5
			l-0.9,1.3c-0.6,0.8-0.6,1.4-0.1,1.7c0.2,0.2,0.5,0.2,0.8,0.1c0.3-0.1,0.5-0.3,0.8-0.6S534.4,650.5,534.4,650.1z"/>
		<path class="st1" d="M537,635.4l5.5,3.9c1.2,0.8,1.9,1.8,2,2.8s-0.2,2.2-1.1,3.4c-0.4,0.6-1,1.2-1.5,1.7c-0.6,0.5-1.1,0.8-1.7,1
			l-0.8-1.7c0.4-0.1,0.9-0.3,1.3-0.7c0.4-0.3,0.8-0.7,1.1-1.1c0.5-0.7,0.7-1.3,0.6-1.8c-0.1-0.5-0.4-1-1-1.4l-0.3-0.2
			c0.2,0.9,0,1.8-0.6,2.7c-0.4,0.6-0.9,1.1-1.6,1.4c-0.6,0.3-1.3,0.5-2,0.4c-0.7,0-1.3-0.3-2-0.7c-0.6-0.4-1.1-1-1.4-1.6
			c-0.3-0.6-0.4-1.3-0.3-2c0.1-0.7,0.3-1.3,0.8-1.9c0.7-1,1.5-1.5,2.5-1.5l-0.8-0.6L537,635.4z M539.6,640.7c-0.1-0.5-0.4-1-0.8-1.3
			c-0.5-0.3-1-0.5-1.5-0.3c-0.5,0.1-1,0.4-1.3,0.9c-0.4,0.5-0.5,1-0.4,1.6c0.1,0.5,0.3,1,0.8,1.3s1,0.4,1.5,0.3
			c0.5-0.1,1-0.4,1.3-0.9C539.5,641.8,539.7,641.3,539.6,640.7z"/>
		<path class="st1" d="M542.9,626.9l6.6,4.6l-1.3,1.8l-0.8-0.6c0.1,0.5,0.1,0.9,0,1.4s-0.3,0.9-0.6,1.3c-0.6,0.9-1.3,1.4-2.2,1.5
			c-0.9,0.2-1.8-0.1-2.8-0.8l-3.7-2.6l1.3-1.9l3.5,2.4c1.1,0.7,1.9,0.7,2.5-0.2c0.3-0.5,0.4-0.9,0.3-1.4c-0.1-0.5-0.4-0.9-1-1.4
			l-3.3-2.3L542.9,626.9z"/>
		<path class="st1" d="M548.3,620.6c0.9-0.2,1.8,0,2.8,0.7l3.8,2.6l-1.3,1.8l-0.8-0.6c0.4,0.8,0.2,1.7-0.5,2.7
			c-0.4,0.5-0.8,0.9-1.2,1.1s-0.9,0.4-1.3,0.4c-0.4,0-0.9-0.2-1.2-0.4c-0.6-0.4-0.9-1-1-1.7s0.3-1.5,1-2.5l1.1-1.5
			c-0.4-0.3-0.8-0.4-1.2-0.3c-0.4,0.1-0.8,0.4-1.1,0.9c-0.2,0.4-0.4,0.7-0.6,1.2c-0.1,0.4-0.2,0.8-0.2,1.2l-1.8-0.3
			c0-0.5,0.1-1.1,0.3-1.7c0.2-0.6,0.5-1.2,0.9-1.7C546.6,621.4,547.4,620.8,548.3,620.6z M551.7,625.4c0-0.4-0.1-0.7-0.3-1l-0.7-0.5
			l-0.9,1.3c-0.6,0.8-0.6,1.4-0.1,1.7c0.2,0.2,0.5,0.2,0.8,0.1s0.5-0.3,0.8-0.6C551.5,626.1,551.7,625.8,551.7,625.4z"/>
	</g>
	<g>
		<path class="st1" d="M503.8,463.2l2.1-2.9v-0.1l-0.7-2l-2.8,0.9l-0.8-2.3l10-3.3l1.4,4.3c0.3,0.9,0.4,1.7,0.3,2.4
			c-0.1,0.7-0.3,1.4-0.7,1.9s-1,0.9-1.7,1.2s-1.4,0.3-2.1,0.1s-1.2-0.5-1.7-1.1l-2.4,3.3L503.8,463.2z M511.2,460.1
			c0.2-0.5,0.1-1-0.1-1.7l-0.6-1.9l-3.5,1.2l0.6,1.9c0.2,0.7,0.6,1.2,1,1.4c0.4,0.3,0.9,0.3,1.5,0.1
			C510.7,460.8,511,460.5,511.2,460.1z"/>
		<path class="st1" d="M514,470.6c-0.3,0.8-1.1,1.4-2.2,1.8l-4.4,1.5l-0.7-2.1l1-0.3c-0.9-0.2-1.5-0.8-1.9-2
			c-0.2-0.6-0.3-1.1-0.2-1.6s0.2-0.9,0.5-1.3c0.3-0.3,0.6-0.6,1.1-0.7c0.7-0.2,1.4-0.2,1.9,0.2c0.6,0.4,1.1,1.2,1.4,2.3l0.6,1.8
			c0.5-0.2,0.8-0.4,1-0.8s0.1-0.9-0.1-1.5c-0.1-0.4-0.3-0.8-0.6-1.1c-0.3-0.3-0.5-0.6-0.9-0.8l1.3-1.3c0.4,0.3,0.8,0.7,1.2,1.3
			c0.4,0.5,0.6,1.1,0.8,1.7C514.3,468.7,514.3,469.8,514,470.6z M508.1,470.5c0.3,0.2,0.6,0.4,1,0.4l0.8-0.3l-0.5-1.5
			c-0.3-0.9-0.8-1.3-1.4-1.1c-0.3,0.1-0.5,0.3-0.6,0.6c-0.1,0.3-0.1,0.6,0.1,1C507.6,469.9,507.8,470.2,508.1,470.5z"/>
		<path class="st1" d="M519,485.6c-0.4,0.8-1.1,1.3-2.3,1.7l-4.4,1.5l-0.7-2.2l4-1.4c0.6-0.2,1-0.5,1.2-0.8c0.2-0.4,0.2-0.8,0.1-1.2
			c-0.2-0.5-0.5-0.9-0.9-1.1s-1-0.2-1.7,0l-3.8,1.3l-0.7-2.2l4-1.4c1.2-0.4,1.6-1.1,1.3-2.1c-0.2-0.5-0.5-0.9-0.9-1.1s-1-0.2-1.7,0
			l-3.8,1.3l-0.7-2.2l7.6-2.6l0.7,2.1l-0.9,0.3c0.4,0.2,0.8,0.4,1.1,0.8s0.5,0.8,0.7,1.3s0.2,1.1,0.2,1.6c-0.1,0.5-0.3,1-0.6,1.4
			c0.5,0.2,0.9,0.5,1.3,0.9c0.4,0.4,0.7,0.9,0.9,1.5C519.4,484,519.4,484.9,519,485.6z"/>
		<path class="st1" d="M514,492.2c0.1-0.8,0.4-1.4,0.9-2s1.1-1,1.9-1.2c0.8-0.3,1.5-0.3,2.2-0.1c0.7,0.2,1.4,0.5,1.9,1
			c0.6,0.5,1,1.2,1.2,2c0.3,0.8,0.3,1.6,0.2,2.3c-0.1,0.7-0.4,1.4-0.9,2s-1.1,1-1.9,1.2c-0.8,0.3-1.5,0.3-2.2,0.1
			c-0.7-0.2-1.4-0.5-1.9-1c-0.6-0.5-1-1.2-1.2-2C513.9,493.7,513.9,493,514,492.2z M517.1,495.1c0.5,0.2,1.1,0.2,1.7,0
			c0.6-0.2,1.1-0.6,1.4-1.1c0.3-0.5,0.3-1,0.1-1.6s-0.5-1-1-1.2s-1.1-0.3-1.7,0c-0.6,0.2-1.1,0.6-1.4,1.1s-0.3,1-0.1,1.6
			C516.2,494.5,516.6,494.9,517.1,495.1z M525.2,491.5l0.8,2.4l-2.9-1.9l-0.6-1.7L525.2,491.5z"/>
		<path class="st1" d="M525.5,504.8c-0.4,0.8-1.1,1.3-2.2,1.7l-4.4,1.5l-0.7-2.2l4-1.4c0.6-0.2,1-0.5,1.2-0.9s0.2-0.8,0.1-1.3
			c-0.2-0.6-0.5-0.9-1-1.2c-0.5-0.2-1-0.2-1.7,0l-3.8,1.3l-0.7-2.2l7.6-2.6l0.7,2.1l-0.9,0.3c0.4,0.2,0.8,0.5,1.1,0.8
			c0.3,0.4,0.6,0.8,0.7,1.3C525.9,503.2,525.8,504,525.5,504.8z"/>
		<path class="st1" d="M524,523.2l6-2l-5.9-1.3l-0.3-1l3.8-4.5l-5.8,2l-0.7-2.2l10-3.3l0.6,1.9l-4.9,5.8l7.4,1.6l0.6,1.9l-9.9,3.4
			L524,523.2z"/>
		<path class="st1" d="M534.3,531.1c-0.3,0.8-1.1,1.4-2.2,1.8l-4.4,1.5l-0.7-2.1l1-0.3c-0.9-0.2-1.5-0.8-1.9-2
			c-0.2-0.6-0.3-1.1-0.2-1.6s0.2-0.9,0.5-1.3c0.3-0.3,0.6-0.6,1.1-0.7c0.7-0.2,1.4-0.2,1.9,0.2c0.6,0.4,1.1,1.2,1.4,2.3l0.6,1.8
			c0.5-0.2,0.8-0.4,1-0.8c0.2-0.4,0.1-0.9-0.1-1.5c-0.1-0.4-0.3-0.8-0.6-1.1s-0.5-0.6-0.9-0.8l1.3-1.3c0.4,0.3,0.8,0.7,1.2,1.3
			c0.4,0.5,0.6,1.1,0.8,1.7C534.6,529.3,534.7,530.3,534.3,531.1z M528.4,531c0.3,0.2,0.6,0.4,1,0.4l0.8-0.3l-0.5-1.5
			c-0.3-0.9-0.8-1.3-1.4-1.1c-0.3,0.1-0.5,0.3-0.6,0.6s-0.1,0.6,0.1,1C527.9,530.4,528.1,530.7,528.4,531z"/>
		<path class="st1" d="M536.9,537c0.3,0.4,0.6,0.9,0.8,1.5l-2,0.7c-0.1-0.3-0.1-0.4-0.1-0.5c-0.2-0.6-0.6-1.1-1-1.3
			c-0.5-0.2-1.1-0.2-1.8,0l-3.6,1.2l-0.7-2.2l7.6-2.6l0.7,2.1l-1,0.3C536.2,536.4,536.6,536.7,536.9,537z"/>
		<path class="st1" d="M531.3,543.7c0.1-0.8,0.4-1.4,0.9-2s1.1-1,1.8-1.2c0.8-0.3,1.5-0.3,2.2-0.1s1.4,0.5,1.9,1.1
			c0.6,0.5,1,1.2,1.2,2c0.3,0.8,0.3,1.6,0.2,2.3s-0.5,1.3-1,1.8l-1.5-1.4c0.6-0.6,0.7-1.3,0.5-2.1c-0.2-0.6-0.5-1-1.1-1.2
			c-0.5-0.3-1.1-0.3-1.7,0c-0.7,0.2-1.1,0.6-1.4,1.1c-0.3,0.5-0.3,1-0.1,1.6c0.3,0.8,0.8,1.2,1.6,1.4l-0.4,2
			c-0.7-0.1-1.3-0.3-1.9-0.8c-0.5-0.5-1-1.1-1.2-1.9C531.3,545.3,531.2,544.5,531.3,543.7z"/>
		<path class="st1" d="M534.1,552c0.1-0.8,0.4-1.4,0.9-2s1.1-1,1.9-1.2c0.8-0.3,1.5-0.3,2.2-0.1s1.4,0.5,1.9,1c0.6,0.5,1,1.2,1.2,2
			c0.3,0.8,0.3,1.6,0.2,2.3s-0.4,1.4-0.9,2s-1.1,1-1.9,1.2c-0.8,0.3-1.5,0.3-2.2,0.1s-1.4-0.5-1.9-1s-1-1.2-1.2-2
			C534,553.5,534,552.8,534.1,552z M537.2,554.9c0.5,0.2,1.1,0.2,1.7,0c0.6-0.2,1.1-0.6,1.4-1.1c0.3-0.5,0.3-1,0.1-1.6s-0.5-1-1-1.2
			s-1.1-0.3-1.7,0c-0.6,0.2-1.1,0.6-1.4,1.1c-0.3,0.5-0.3,1-0.1,1.6C536.3,554.3,536.7,554.7,537.2,554.9z"/>
		<path class="st1" d="M536.7,560.7c0-0.7,0-1.2,0.1-1.6l1.8,0.2c-0.1,0.4-0.1,0.9-0.1,1.4s0.1,1,0.3,1.5c0.3,0.9,0.7,1.3,1.2,1.2
			c0.2-0.1,0.3-0.3,0.3-0.5c0-0.3,0-0.7-0.2-1.3c-0.1-0.7-0.2-1.2-0.2-1.7c0-0.4,0.1-0.9,0.3-1.3c0.2-0.4,0.6-0.7,1.2-0.9
			c0.5-0.2,1-0.2,1.4,0c0.5,0.2,0.9,0.5,1.3,0.9c0.4,0.5,0.7,1.1,1,1.8c0.2,0.5,0.3,1.1,0.4,1.7c0.1,0.6,0,1.1,0,1.5l-1.8-0.2
			c0.2-0.8,0.1-1.6-0.2-2.4c-0.2-0.5-0.3-0.8-0.6-1c-0.2-0.2-0.4-0.3-0.6-0.2c-0.2,0.1-0.4,0.3-0.4,0.6s0,0.7,0.1,1.3
			c0.1,0.7,0.2,1.2,0.2,1.6s-0.1,0.9-0.3,1.3s-0.6,0.7-1.2,0.9c-0.5,0.2-0.9,0.2-1.4,0s-0.9-0.5-1.3-1c-0.4-0.5-0.7-1.1-1-1.8
			C536.9,562,536.7,561.3,536.7,560.7z"/>
	</g>
	<g>
		<path class="st1" d="M572.6,398.9c0.7,0.3,1.2,0.8,1.6,1.3c0.4,0.6,0.6,1.2,0.6,2s-0.2,1.4-0.6,2s-0.9,1-1.6,1.3
			c-0.7,0.3-1.5,0.5-2.4,0.5H568v2.9h-2.4v-10.5h4.5C571.1,398.4,571.9,398.5,572.6,398.9z M571.7,403.5c0.4-0.3,0.6-0.8,0.6-1.3
			c0-0.6-0.2-1-0.6-1.4s-0.9-0.5-1.7-0.5h-2v3.6h2C570.7,404,571.3,403.9,571.7,403.5z"/>
		<path class="st1" d="M582.3,401.6c0.7,0.6,1,1.5,1,2.7v4.6h-2.2v-1c-0.4,0.8-1.3,1.1-2.5,1.1c-0.6,0-1.2-0.1-1.6-0.3
			s-0.8-0.5-1-0.9s-0.4-0.8-0.4-1.3c0-0.8,0.3-1.3,0.8-1.8c0.6-0.4,1.4-0.6,2.6-0.6h1.9c0-0.5-0.2-0.9-0.5-1.2s-0.8-0.4-1.4-0.4
			c-0.4,0-0.9,0.1-1.3,0.2c-0.4,0.1-0.8,0.3-1.1,0.5l-0.8-1.6c0.4-0.3,1-0.5,1.6-0.7s1.2-0.3,1.9-0.3
			C580.7,400.7,581.6,401,582.3,401.6z M580.3,407.2c0.3-0.2,0.5-0.5,0.7-0.8v-0.8h-1.6c-1,0-1.4,0.3-1.4,0.9c0,0.3,0.1,0.5,0.4,0.7
			c0.2,0.2,0.6,0.3,1,0.3C579.6,407.4,580,407.3,580.3,407.2z"/>
		<path class="st1" d="M588.8,401c0.5-0.2,1-0.3,1.6-0.3v2.2c-0.3,0-0.4,0-0.5,0c-0.7,0-1.2,0.2-1.6,0.6c-0.4,0.4-0.6,0.9-0.6,1.7
			v3.8h-2.3v-8.1h2.2v1.1C587.9,401.5,588.3,401.2,588.8,401z"/>
		<path class="st1" d="M599.9,400.8v11h-2.3V408c-0.6,0.6-1.4,1-2.4,1c-0.8,0-1.4-0.2-2.1-0.5c-0.6-0.3-1.1-0.8-1.4-1.5
			c-0.3-0.6-0.5-1.4-0.5-2.2c0-0.8,0.2-1.6,0.5-2.2s0.8-1.1,1.4-1.5c0.6-0.3,1.3-0.5,2.1-0.5c1.1,0,1.9,0.4,2.5,1v-0.9h2.2V400.8z
			 M597.1,406.5c0.4-0.4,0.6-0.9,0.6-1.6s-0.2-1.2-0.6-1.6c-0.4-0.4-0.9-0.6-1.5-0.6s-1.1,0.2-1.5,0.6s-0.6,0.9-0.6,1.6
			s0.2,1.2,0.6,1.6c0.4,0.4,0.9,0.6,1.5,0.6C596.2,407.1,596.7,406.9,597.1,406.5z"/>
		<path class="st1" d="M610.2,400.8v8.1H608v-1c-0.3,0.4-0.7,0.6-1.1,0.8c-0.4,0.2-0.9,0.3-1.4,0.3c-1.1,0-1.9-0.3-2.5-0.9
			s-0.9-1.5-0.9-2.7v-4.6h2.3v4.2c0,1.3,0.5,2,1.6,2c0.6,0,1-0.2,1.4-0.5c0.3-0.4,0.5-0.9,0.5-1.6v-4L610.2,400.8L610.2,400.8z"/>
		<path class="st1" d="M620.3,405.5h-6.1c0.1,0.5,0.4,0.9,0.8,1.2s0.9,0.4,1.5,0.4c0.4,0,0.8-0.1,1.1-0.2s0.6-0.3,0.9-0.6l1.2,1.4
			c-0.8,0.9-1.9,1.3-3.3,1.3c-0.9,0-1.7-0.2-2.4-0.5s-1.2-0.8-1.6-1.5c-0.4-0.6-0.6-1.3-0.6-2.1c0-0.8,0.2-1.5,0.6-2.1
			s0.9-1.1,1.5-1.5c0.7-0.4,1.4-0.5,2.2-0.5s1.5,0.2,2.1,0.5s1.1,0.8,1.5,1.5c0.4,0.6,0.5,1.4,0.5,2.2
			C620.3,404.9,620.3,405.1,620.3,405.5z M614.8,402.9c-0.4,0.3-0.6,0.7-0.7,1.2h4c-0.1-0.5-0.3-0.9-0.7-1.2s-0.8-0.5-1.3-0.5
			C615.6,402.5,615.2,402.6,614.8,402.9z"/>
		<path class="st1" d="M549.6,416.4l-4.5,10.5h-2.4l-4.5-10.5h2.6l3.2,7.5l3.2-7.5H549.6z"/>
		<path class="st1" d="M550.6,417.3c-0.3-0.3-0.4-0.6-0.4-0.9c0-0.4,0.1-0.7,0.4-0.9c0.3-0.2,0.6-0.4,1-0.4s0.8,0.1,1,0.4
			c0.3,0.2,0.4,0.5,0.4,0.9s-0.1,0.7-0.4,1c-0.3,0.3-0.6,0.4-1,0.4C551.2,417.7,550.9,417.6,550.6,417.3z M550.5,418.8h2.3v8.1h-2.3
			V418.8z"/>
		<path class="st1" d="M555.7,426.8c-0.6-0.2-1.2-0.4-1.5-0.6l0.8-1.7c0.4,0.2,0.8,0.4,1.3,0.6c0.5,0.1,1,0.2,1.5,0.2
			c1,0,1.5-0.2,1.5-0.7c0-0.2-0.1-0.4-0.4-0.5c-0.3-0.1-0.7-0.2-1.2-0.3c-0.7-0.1-1.2-0.2-1.6-0.3s-0.8-0.4-1.1-0.7
			s-0.5-0.8-0.5-1.4c0-0.5,0.1-1,0.4-1.4s0.7-0.7,1.3-0.9c0.6-0.2,1.2-0.3,2-0.3c0.6,0,1.1,0.1,1.7,0.2s1,0.3,1.4,0.5l-0.8,1.7
			c-0.7-0.4-1.5-0.6-2.3-0.6c-0.5,0-0.9,0.1-1.1,0.2s-0.4,0.3-0.4,0.5c0,0.3,0.1,0.4,0.4,0.5c0.3,0.1,0.7,0.2,1.3,0.3
			c0.7,0.1,1.2,0.2,1.6,0.4s0.8,0.4,1.1,0.7c0.3,0.3,0.5,0.8,0.5,1.4c0,0.5-0.2,0.9-0.5,1.3s-0.7,0.7-1.3,0.9s-1.3,0.3-2,0.3
			C557,427,556.4,426.9,555.7,426.8z"/>
		<path class="st1" d="M568.2,426.5c-0.2,0.2-0.5,0.3-0.8,0.4s-0.7,0.1-1.1,0.1c-1,0-1.7-0.2-2.2-0.7s-0.8-1.2-0.8-2.2v-3.3H562V419
			h1.2v-2h2.3v2h2v1.8h-2v3.3c0,0.3,0.1,0.6,0.3,0.8s0.4,0.3,0.7,0.3c0.4,0,0.7-0.1,0.9-0.3L568.2,426.5z"/>
		<path class="st1" d="M575.6,419.6c0.7,0.6,1,1.5,1,2.7v4.6h-2.2v-1c-0.4,0.8-1.3,1.1-2.5,1.1c-0.6,0-1.2-0.1-1.6-0.3
			s-0.8-0.5-1-0.9s-0.4-0.8-0.4-1.3c0-0.8,0.3-1.3,0.8-1.8c0.6-0.4,1.4-0.6,2.6-0.6h1.9c0-0.5-0.2-0.9-0.5-1.2
			c-0.3-0.3-0.8-0.4-1.4-0.4c-0.4,0-0.9,0.1-1.3,0.2c-0.4,0.1-0.8,0.3-1.1,0.5l-0.8-1.6c0.4-0.3,1-0.5,1.6-0.7s1.2-0.3,1.9-0.3
			C574,418.7,574.9,419,575.6,419.6z M573.6,425.2c0.3-0.2,0.5-0.5,0.7-0.8v-0.8h-1.6c-1,0-1.4,0.3-1.4,0.9c0,0.3,0.1,0.5,0.4,0.7
			c0.2,0.2,0.6,0.3,1,0.3C573,425.4,573.3,425.3,573.6,425.2z"/>
		<path class="st1" d="M586.1,419.6c0.6,0.6,0.9,1.5,0.9,2.7v4.6h-2.3v-4.3c0-0.6-0.1-1.1-0.4-1.4c-0.3-0.3-0.7-0.5-1.2-0.5
			c-0.6,0-1.1,0.2-1.4,0.5c-0.4,0.4-0.5,0.9-0.5,1.6v4h-2.3v-11.1h2.3v3.9c0.3-0.3,0.7-0.5,1.1-0.7s0.9-0.2,1.4-0.2
			C584.6,418.7,585.5,419,586.1,419.6z"/>
		<path class="st1" d="M597.1,423.5H591c0.1,0.5,0.4,0.9,0.8,1.2s0.9,0.4,1.5,0.4c0.4,0,0.8-0.1,1.1-0.2s0.6-0.3,0.9-0.6l1.2,1.4
			c-0.8,0.9-1.9,1.3-3.3,1.3c-0.9,0-1.7-0.2-2.4-0.5s-1.2-0.8-1.6-1.5c-0.4-0.6-0.6-1.3-0.6-2.1c0-0.8,0.2-1.5,0.6-2.1
			s0.9-1.1,1.5-1.5c0.7-0.4,1.4-0.5,2.2-0.5s1.5,0.2,2.1,0.5s1.1,0.8,1.5,1.5c0.4,0.6,0.5,1.4,0.5,2.2
			C597.1,422.9,597.1,423.1,597.1,423.5z M591.6,420.9c-0.4,0.3-0.6,0.7-0.7,1.2h4c-0.1-0.5-0.3-0.9-0.7-1.2s-0.8-0.5-1.3-0.5
			C592.4,420.5,591.9,420.6,591.6,420.9z"/>
		<path class="st1" d="M602,419c0.5-0.2,1-0.3,1.6-0.3v2.2c-0.3,0-0.4,0-0.5,0c-0.7,0-1.2,0.2-1.6,0.6c-0.4,0.4-0.6,0.9-0.6,1.7v3.8
			h-2.3v-8.1h2.2v1.1C601.2,419.5,601.6,419.2,602,419z"/>
		<path class="st1" d="M617.8,419.6c0.6,0.6,0.9,1.5,0.9,2.7v4.6h-2.3v-4.3c0-0.6-0.1-1.1-0.4-1.4s-0.6-0.5-1.1-0.5s-1,0.2-1.3,0.5
			s-0.5,0.9-0.5,1.6v4h-2.3v-4.3c0-1.3-0.5-1.9-1.5-1.9c-0.5,0-1,0.2-1.3,0.5c-0.3,0.4-0.5,0.9-0.5,1.6v4h-2.3v-8.1h2.2v0.9
			c0.3-0.3,0.7-0.6,1.1-0.8c0.4-0.2,0.9-0.3,1.4-0.3c0.6,0,1.1,0.1,1.5,0.3s0.8,0.6,1.1,1c0.3-0.4,0.7-0.7,1.3-1
			c0.5-0.2,1.1-0.3,1.7-0.3C616.4,418.7,617.2,419,617.8,419.6z"/>
		<path class="st1" d="M622.4,426.5c-0.7-0.4-1.2-0.8-1.6-1.5c-0.4-0.6-0.6-1.3-0.6-2.1c0-0.8,0.2-1.5,0.6-2.1
			c0.4-0.6,0.9-1.1,1.6-1.5c0.7-0.4,1.4-0.5,2.3-0.5s1.6,0.2,2.3,0.5c0.7,0.4,1.2,0.8,1.6,1.5c0.4,0.6,0.6,1.3,0.6,2.1
			c0,0.8-0.2,1.5-0.6,2.1c-0.4,0.6-0.9,1.1-1.6,1.5s-1.4,0.5-2.3,0.5S623.1,426.8,622.4,426.5z M626.2,424.5
			c0.4-0.4,0.6-0.9,0.6-1.6s-0.2-1.2-0.6-1.6c-0.4-0.4-0.9-0.6-1.5-0.6s-1.1,0.2-1.5,0.6s-0.6,0.9-0.6,1.6s0.2,1.2,0.6,1.6
			c0.4,0.4,0.9,0.6,1.5,0.6S625.8,424.9,626.2,424.5z"/>
		<path class="st1" d="M631.5,426.8c-0.6-0.2-1.2-0.4-1.5-0.6l0.8-1.7c0.4,0.2,0.8,0.4,1.3,0.6c0.5,0.1,1,0.2,1.5,0.2
			c1,0,1.5-0.2,1.5-0.7c0-0.2-0.1-0.4-0.4-0.5c-0.3-0.1-0.7-0.2-1.2-0.3c-0.7-0.1-1.2-0.2-1.6-0.3s-0.8-0.4-1.1-0.7
			c-0.3-0.3-0.5-0.8-0.5-1.4c0-0.5,0.1-1,0.4-1.4s0.7-0.7,1.3-0.9c0.6-0.2,1.2-0.3,2-0.3c0.6,0,1.1,0.1,1.7,0.2
			c0.6,0.1,1,0.3,1.4,0.5l-0.8,1.7c-0.7-0.4-1.5-0.6-2.3-0.6c-0.5,0-0.9,0.1-1.1,0.2c-0.3,0.1-0.4,0.3-0.4,0.5
			c0,0.3,0.1,0.4,0.4,0.5c0.3,0.1,0.7,0.2,1.3,0.3c0.7,0.1,1.2,0.2,1.6,0.4s0.8,0.4,1.1,0.7c0.3,0.3,0.5,0.8,0.5,1.4
			c0,0.5-0.2,0.9-0.5,1.3s-0.7,0.7-1.3,0.9c-0.6,0.2-1.3,0.3-2,0.3C632.8,427,632.1,426.9,631.5,426.8z"/>
		<path class="st1" d="M644.8,419.6c0.7,0.6,1,1.5,1,2.7v4.6h-2.2v-1c-0.4,0.8-1.3,1.1-2.5,1.1c-0.6,0-1.2-0.1-1.6-0.3
			s-0.8-0.5-1-0.9s-0.4-0.8-0.4-1.3c0-0.8,0.3-1.3,0.8-1.8c0.6-0.4,1.4-0.6,2.6-0.6h1.9c0-0.5-0.2-0.9-0.5-1.2
			c-0.3-0.3-0.8-0.4-1.4-0.4c-0.4,0-0.9,0.1-1.3,0.2c-0.4,0.1-0.8,0.3-1.1,0.5l-0.8-1.6c0.4-0.3,1-0.5,1.6-0.7s1.2-0.3,1.9-0.3
			C643.2,418.7,644.1,419,644.8,419.6z M642.8,425.2c0.3-0.2,0.5-0.5,0.7-0.8v-0.8h-1.6c-1,0-1.4,0.3-1.4,0.9c0,0.3,0.1,0.5,0.4,0.7
			c0.2,0.2,0.6,0.3,1,0.3C642.2,425.4,642.5,425.3,642.8,425.2z"/>
	</g>
</g>
</svg>
