<?xml version="1.0" encoding="utf-8"?>
<!-- Generator: Adobe Illustrator 24.0.2, SVG Export Plug-In . SVG Version: 6.00 Build 0)  -->
<svg version="1.1" id="Capa_1" xmlns="http://www.w3.org/2000/svg" xmlns:xlink="http://www.w3.org/1999/xlink" x="0px" y="0px"
	 viewBox="0 0 1080 1080" style="enable-background:new 0 0 1080 1080;" xml:space="preserve">
<style type="text/css">
	.st1{fill:none;stroke:#FFFFFF;stroke-width:8;stroke-miterlimit:10;}
	.st2{fill:#FFFFFF;}
</style>
<g class="zone" id="4_Plà_del_Bon_Repos_-_La_Goteta">
	<path class="st0" d="M903.7,315.7c-7.6-8.7-14-15.4-18.4-20.3c-4.8-5.5-10.6-13.4-16.8-20.5c-14.4-16.5-31.4-34.4-40.3-44
		c-3.9-4.2-8.1-9.3-11.9-14c-9.2-11.3-19.2-23.9-28.1-28c-13.1-6-80.7-38-106.1-51.2c-18.6-9.7-43.9-23.1-57.8-29.5
		c-4.4-2-8-3.9-9.1-4.4c-9.9-4.9-16.8-9.2-24.6-13.1c-12.7-6.2-23.4-9-26.9-11.1c-1.3-0.8-5.1-2.8-6.1-2.5c-0.2,0.1-2.1,1.3-3.6,4.4
		c-3.5,7-52.1,99.4-78.3,150l-14.2,27.2c-7,13.5-13.8,27.7-20.3,40.1c-7.3,13.9-13.3,25.3-16.2,30.9c-0.6,1.2-1.9,3-2.5,4
		c-1.6,3-3,7-3,8.3c0,0.5,0.1,3.2,3,4.8c7.4,4.1,16.8,9.2,25.6,14.5c2.9,1.7,5.5,5.5,8,7c2.7,1.6,6.9,2.1,9.2,3.2
		c7.3,4,8.1,2.8,8,6.9c-0.1,2.3,0.1,3.7-1.9,4.5c-2,1.1-19.1,14-33.9,23.7c-15.3,10-30.2,18.3-35.4,21.4c-1.1,0.6-2.9,2.9-3.9,3.5
		c-3.8,2.3-9.4,6.3-11.1,8c6.5,6.9,47.1,53.8,54.8,62.5c6.8,7.7,48.9,55.1,67.1,75.5c3.1,3.5,7.4,7.7,11.7,12.8
		c7.7,9,16.2,19.3,25,28.9c6.4,7,21.9,15.9,31.3,21.1c3.5,1.9,4.7,3.1,6.9,4.4c0.5,0.3,3,1.5,3.6,2.1c13.4-4.2,79.9-24.8,95.2-29.7
		c16-4.9,125.4-33.4,144.3-38.1c1-3.5,3.5-7.7,8-13.2c6.2-7.6,37.7-49.3,62.7-83.8c13.7-18.8,25-35.6,31.2-44
		c6.9-9.3,13.9-17.4,18.6-23.7c7.8-10.5,10.5-17,13.2-20.8c0.5-0.8,2.7-2.1,3.1-2.7c1-1.4,1.3-3.8,1.2-4.3c-0.2-0.9-0.8-3.7-5.6-8.4
		C951.8,369.9,923.8,338.7,903.7,315.7z"/>
</g>
<g class="zone" id="4_Raval_Roig_-_Virgen_del_Socorro">
	<path class="st0" d="M807.6,844.1c7.7-2.9,10.5-5.9,17.9-13.2c2.4-2.4,7.7-6.9,11.2-10.2c7.4-7,16.7-16,19.4-20.1
		c4.2-6.3,20.7-29.9,26.2-37.6l1.4-3.2c5.3-7.4,3.6-8,14.2-5.3c1.8,0.4,6.8,1.6,8.2,2c5.1,1.6,7.8-0.1,12.9-4
		c7.9-6,14.7-12.6,17-14.9c0.1-0.4-0.2-2.5-3-8c-0.4-1-1.9-3.4-2.3-4.3c-2.3-4.2-3-5-1.8-8.7c0.6-2,1-3.5,3-4.4
		c2.8-1.3,5.8-1.8,8.7-2.7c2.6-0.9,5.9-2.8,8.4-3.9c0.2-0.1,1.2-4.1-0.4-2.8c-0.8-1.3-1-2.8-2.1-3.9c-1.8-1.8-3.7-5-6-7.6
		c-2.9-3.4-9.9-8.9-12.2-9.5c-5.9-1.2-44.3-13.7-50-15.5c-7.6-2.6-10-4.2-16.8-17c-2.3-4.1-5.1-7.9-7.6-12.7
		c-4.7-9-8.4-17.3-11.8-22.8c-0.9-1.4-3.8-4.6-4.7-6c-6-9.4-8.7-14.4-9.7-18.4c-0.1-0.3-0.7-0.8-0.8-1.2c1.1-0.4-0.8-1.8-0.9-2.2
		c-23.6,5.9-126.8,31.6-141.7,36.3c-14.1,4.4-72.9,22.8-92.1,28.9c15.2,11.7,54.2,42.7,66.8,52.1c14.9,10.9,13.1,19.2,10.4,33.9
		c-0.8,3.8-1.9,8.5-2.6,13.2c-3.1,22.6-4.6,23-22.8,26.3c-1.7,0.3-5,1.1-7.1,1.5c-22.2,4.4-29.5,1.9-40-1.6
		c-8.5-2.8-16.3-5-30.4,0.1c-4.2,1.5-6.9,5.1-7,5.7c0,0.2,0.8,3.6,6.7,8.3c1.2,1,3,1.6,4.8,3c6.4,4.8,15,12.4,22.9,21.1
		c9.7,10.7,7.5,14.6,4.1,22.4c-0.8,1.8-3.2,4.6-4.1,6.7c-0.9,2.5-0.5,5.6-1.4,8.3c-3.1,10.1-6.8,19.9-16.7,30.6
		c-9.9,10.8-43,54.3-52.4,66.5c0.2,0.3,2.5,3,2.6,3.2c2,3,21.1,31.3,27.7,40.1c1.6,2.1,3.7,5,5.2,7.4c2.1,3.3,6,9.2,7.9,10
		c0.1-0.1,1.4,1.2,1.6,1.2c3.9-3.9,18.4-20.6,28-32.5c5.8-7.3,10.2-13.7,12.6-16.6c1.7-2,3.7-4.7,5.2-7c3.6-5.4,5.8-8.8,14.4-13.1
		c6.1-3.1,14.5-6.8,21.9-10.1c5.7-2.5,11.2-4,14-5.3c6.9-3.4,11.2-5.6,19.7-5.6c1.4,0,4,0.2,5.2,0.3c1.9,0.1,4.9-0.3,6.9-0.6
		c1-4,2.6-14.8,2.6-22.9c0-9.3,0.8-15.2,5.3-19.6c1.6-1.6,4.8-4.7,7.7-8.3c3-3.6,4.4-6.4,5.5-7.4c3.6-3.6,4.7-4.2,9.5-0.9
		c1,0.6,3.7,2.1,4.5,2.8c3.6,3.2,7.7,5,11.8,3.4c4.3-1.6,18.3-7,32.1-12C788.7,851.1,803.3,845.6,807.6,844.1z"/>
</g>
<g class="zone" id="4_San_Antón">
	<path class="st0" d="M501,961.5c4.4-4.2,9.3-8,11.7-9.8c1.7-1.5,3.2-3.2,5.4-3.9c7.2-9.3,42.7-55.9,53.5-67.7
		c8.6-9.3,12-19.4,15-29c0.9-2.9,1.8-5.8,2.8-8.5c0.9-2.5,2.4-4.7,3.2-6.6c3.2-7.3,3.9-10.9-2.1-17.5c-7.2-8-16.8-15.1-23-19.7
		c-1.8-1.4-3.5-2.6-4.7-3.6c-2.5-2-10.2-6.8-8.9-14.1c0.8-4.5,4.2-7,10.9-9.3c15.8-5.6,23.2-4.1,34.2-0.4c9.5,3.2,17.9,5,38.2,1.1
		c2.1-0.4,4-0.6,5.9-1.1c7.7-1.4,12.1-2.8,14-4.8c2.1-2.4,4-8.1,5.3-17.3c0.6-5,0.7-9.3,1.5-13.1c2.7-14.3,2.9-19.9-7.7-27.6
		c-14.7-10.8-63.5-48.6-71.3-54.6c-1-0.1-2.8-0.9-3.6-1.1c-5.9-1-11.6-3.2-18.9-4.7c-16.9-3.5-37-6.9-54.6-7.6
		c-11.6-0.5-27.2-0.8-41.8-1.7c-17.4-1.1-33.2-1.8-39.6-1.8c-11.8,0-21.2-0.2-33.6,1.8c-1.6,0.2-4.1,0.8-5.9,1.1
		c-12.1,1.9-29.8,4.5-35.7,7.8c-1.1,0.6-2.3,1.3-3.4,1.9c-6.8,4-12.7,6.9-18.4,6.9c-3,0-14.9-1.5-35.3-4c-14.7-1.8-29.7-4-39.5-4.9
		c-10-1-18.6-1.8-25.6-2.3c-8.3-0.8-15-0.7-19.6-1.4c-1.2-0.1-2.6-0.3-3.5-0.4c-3-0.2-4.1,0.2-5.7-2.7c-1.9-3.3-0.1-5.4,3.5-12.7
		c3-6,5.5-10.8,8.5-16c2.9-5.1,5.8-11.6,6.2-13.3c0.9-3.3,1.5-28.1,1.6-33.9c-2.7-0.4-10-0.9-19.8-0.9c-14.7,0-42.5,0.6-62.4,0.9
		c-10.7,0.2-17,0-19.3,0c-1.1,0-4.3,0.6-5.2,0.7c-0.1,1.1-1.3,3.2-1.3,4.2c0,3.4,0.9,9.9,1.2,16.9c0.3,8-0.6,16.3-0.6,21.4
		c0,9.3,0.7,15.9,4.5,22.4c1.8,3.1,3.4,7.3,5.8,12c3.3,6.5,6.1,12.4,8.5,16.1l2.3,3.2c4.3,6.3,5.8,7.1,5.8,18.1
		c0,4.5-0.4,28.6-1,56.2c-0.9,38.4-2.3,85.5-2.3,98c0,13.9-1,30.6-1.3,41.5c-0.2,5.8-0.9,9.7-0.9,11.9c0,0.5,0.9,2.7,0.9,3.2
		c0.6-0.3,3.6-1,4.5-1.6c6.7-3.3,16.6-8,25.4-11.8c5.3-2.4,11.1-4.8,12.7-5.6c5.8-2.9,11.4-3.1,21.8-2.1c5.4,0.5,16.1,0.8,26.8,1.4
		c10.2,0.5,20.7,0.7,26.5,1.2c12.7,1.2,17.2,2.5,28.2,8c6.4,3.2,14.1,6,19.9,8.3c3.8,1.5,6.3,3,8.1,3.9c4,1.9,8.4,5.8,16.1,11.6
		c1.5,1.1,4.5,2.7,5.9,3.7c1.6,1.2,4.5,3.5,6.4,5c8,6,18.4,13.5,22.6,16c3.1,1.8,19.2,7.8,29.8,11.2c6.8,2.3,13,3.7,16.1,4.9
		c8.7,3.2,29.7,10.4,39.4,13.6c4,1.3,8.2,2.8,12.9,4.3c7,2.1,12.4,3.7,15.8,5l2.8,0.7c5.6,2.3,11.6,3.8,14.6,1.4
		C493.5,968.4,497,965.1,501,961.5z"/>
</g>
<g id="_Strokes">
	<path class="st1" d="M616.8,102.6C591,89.7,570.7,80,565.3,76.8c-5.4-3.2-9.7-5.4-13.9,3.2c-4.3,8.6-77.2,149.1-92.3,178.1
		c-15,29-32.2,61.1-37.5,71.9c-5.4,10.7-8.6,13.9,1.1,19.3c9.7,5.4,23.6,13.9,34.3,20.4c10.7,6.4,19.3,9.7,15,11.8
		c-4.3,2.1-61.1,39.7-71.9,46.1c-10.7,6.4-19.3,10.7-15,15c4.3,4.3,47.2,52.6,54.7,61.1c7.5,8.6,59,66.5,67.6,76.2
		c8.6,9.7,22.5,26.8,36.5,41.8c13.9,15,57.4,31.6,38.1,28.4s-48.8-11.3-74.6-12.3s-69.7-4.3-81.5-4.3c-11.8,0-21.5,0-34.3,2.1
		c-12.9,2.1-35.4,5.4-42.9,9.7c-7.5,4.3-13.9,8.6-19.3,8.6s-53.6-6.4-75.1-8.6c-21.5-2.1-36.5-3.2-45.1-4.3s-10.7,1.1-4.3-11.8
		c6.4-12.9,15-25.7,16.1-30c1.1-4.3,2.1-29,2.1-33.3c0-4.3-1.1-4.3-23.6-4.3s-76.2,1.1-82.6,1.1s-7.5,0-7.5,7.5
		c0,7.5,1.1,29,1.1,38.6s0,16.1,4.3,23.6c4.3,7.5,11.8,23.6,16.1,30c4.3,6.4,5.4,7.5,5.4,18.2s-3.2,133-3.2,154.5
		c0,21.5-1.1,46.1-1.1,52.6s-2.1,9.7,8.6,4.3c10.7-5.4,33.3-15,37.5-17.2s9.7-3.2,20.4-2.1c10.7,1.1,41.8,2.1,53.6,3.2
		s17.2,2.1,27.9,7.5c10.7,5.4,23.6,9.7,27.9,11.8s13.9,9.7,22.5,16.1c8.6,6.4,22.5,17.2,27.9,20.4c5.4,3.2,37.5,12.9,46.1,16.1
		c8.6,3.2,30,10.7,39.7,13.9s24.7,7.5,30,9.7s12.9,5.4,18.2,1.1c5.4-4.3,17.2-16.1,21.5-19.3c4.3-3.2,6.4-3.2,8.6,0
		s23.6,33.3,30,41.8c6.4,8.6,12.9,23.6,19.3,17.2c6.4-6.4,32.2-39.7,38.6-47.2c6.4-7.5,8.6-15,19.3-20.4c10.7-5.4,29-12.9,35.4-16.1
		c6.4-3.2,11.8-4.3,19.3-4.3c7.5,0,12.9,1.1,13.9-3.2c1.1-4.3,3.2-13.9,3.2-22.5s0-15,3.2-18.2c3.2-3.2,11.8-13.9,13.9-16.1
		c2.1-2.1,4.3-2.1,7.5,0c3.2,2.1,8.6,9.7,17.2,6.4c8.6-3.2,55.8-20.4,64.4-23.6c8.6-3.2,11.8-6.4,19.3-13.9c7.5-7.5,25.7-23.6,30-30
		c4.3-6.4,21.5-31.1,26.8-38.6c5.4-7.5,6.4-9.7,15-7.5c8.6,2.1,11.8,5.4,20.4-1.1c6.3-4.7,12.4-9.7,18.2-15
		c2.1-2.1,1.1-6.4-2.1-12.9c-3.2-6.4-6.4-10.7-2.1-12.9c4.3-2.1,11.8-4.3,16.1-6.4c4.3-2.1,4.3-5.4-1.1-10.7
		c-5.4-5.4-13.9-18.2-19.3-19.3c-5.4-1.1-42.9-12.9-49.3-15c-6.4-2.1-9.7-3.2-16.1-15c-6.4-11.8-15-29-20.4-37.5
		c-5.4-8.6-11.8-18.2-12.9-22.5c-1.1-4.3-3.2-8.6,6.4-20.4c9.7-11.8,76.2-104.1,94.4-128.7c18.2-24.7,29-38.6,33.3-45.1
		c4.3-6.4,7.5-7.5-3.2-18.2c-10.7-10.7-57.9-65.4-74-83.7c-16.1-18.2-44-50.4-56.9-64.4c-12.9-13.9-26.8-35.4-40.8-41.8
		c-13.9-6.4-81.5-38.6-106.2-51.5C658.6,121.9,621.1,104.7,616.8,102.6z"/>
	<path class="st1" d="M829.3,582.1c0,0-128.8,32.2-146,37.5c-17.2,5.4-96.5,30.5-96.5,30.5"/>
	<path class="st1" d="M519.5,950.9c0,0,43.1-56.1,54.9-69c11.8-12.9,13.9-26.8,18.2-38.6c4.3-11.8,9.7-16.1,0-26.8
		c-9.7-10.7-22.5-19.3-27.9-23.6c-5.4-4.3-13.9-12.9,1.1-18.2c15-5.4,22.5-3.2,32.2,0c9.7,3.2,18.2,5.4,39.7,1.1
		c21.5-4.3,23.6-2.1,26.8-25.7c3.2-23.6,9.7-32.2-6.4-44c-16.1-11.8-72.5-55.4-72.5-55.4"/>
</g>
<g id="_txt" class="text">
	<g>
		<path class="st2" d="M716.3,761.8l-2.1-3.1h-0.1h-2.4v3.1h-2.6v-11.3h4.8c1,0,1.8,0.2,2.6,0.5c0.8,0.3,1.3,0.9,1.7,1.4
			c0.4,0.5,0.6,1.3,0.6,2.1c0,0.9-0.2,1.6-0.6,2.1c-0.4,0.6-1,1.1-1.7,1.4l2.6,3.6H716.3z M715.7,753.1c-0.4-0.3-1-0.5-1.8-0.5h-2.1
			v4h2.1c0.8,0,1.4-0.2,1.8-0.5s0.6-0.9,0.6-1.5C716.3,753.9,716.1,753.4,715.7,753.1z"/>
		<path class="st2" d="M727.3,753.9c0.8,0.6,1.1,1.6,1.1,2.9v4.9H726v-1.1c-0.4,0.9-1.4,1.2-2.7,1.2c-0.6,0-1.3-0.1-1.7-0.3
			c-0.4-0.2-0.9-0.5-1.1-1c-0.2-0.4-0.4-0.9-0.4-1.4c0-0.9,0.3-1.4,0.9-1.9c0.6-0.4,1.5-0.6,2.8-0.6h2c0-0.5-0.2-1-0.5-1.3
			c-0.3-0.3-0.9-0.4-1.5-0.4c-0.4,0-1,0.1-1.4,0.2s-0.9,0.3-1.2,0.5l-0.9-1.7c0.4-0.3,1.1-0.5,1.7-0.8s1.3-0.3,2-0.3
			C725.6,753,726.6,753.3,727.3,753.9z M725.1,759.8c0.3-0.2,0.5-0.5,0.8-0.9v-0.9h-1.7c-1.1,0-1.5,0.3-1.5,1c0,0.3,0.1,0.5,0.4,0.8
			c0.2,0.2,0.6,0.3,1.1,0.3C724.5,760.2,724.8,760.1,725.1,759.8z"/>
		<path class="st2" d="M739.1,753.1l-3.6,8.7h-2.6l-3.6-8.7h2.6l2.4,5.9l2.5-5.9H739.1z"/>
		<path class="st2" d="M746.4,753.9c0.8,0.6,1.1,1.6,1.1,2.9v4.9h-2.4v-1.1c-0.4,0.9-1.4,1.2-2.7,1.2c-0.6,0-1.3-0.1-1.7-0.3
			c-0.4-0.2-0.9-0.5-1.1-1c-0.2-0.4-0.4-0.9-0.4-1.4c0-0.9,0.3-1.4,0.9-1.9c0.6-0.4,1.5-0.6,2.8-0.6h2c0-0.5-0.2-1-0.5-1.3
			c-0.3-0.3-0.9-0.4-1.5-0.4c-0.4,0-1,0.1-1.4,0.2c-0.4,0.1-0.9,0.3-1.2,0.5l-0.9-1.7c0.4-0.3,1.1-0.5,1.7-0.8
			c0.6-0.2,1.3-0.3,2-0.3C744.7,753,745.7,753.3,746.4,753.9z M744.2,759.8c0.3-0.2,0.5-0.5,0.8-0.9v-0.9h-1.7c-1.1,0-1.5,0.3-1.5,1
			c0,0.3,0.1,0.5,0.4,0.8c0.2,0.2,0.6,0.3,1.1,0.3C743.6,760.2,743.9,760.1,744.2,759.8z"/>
		<path class="st2" d="M749.8,749.8h2.5v12h-2.5V749.8z"/>
		<path class="st2" d="M766.5,761.8l-2.1-3.1h-0.1H762v3.1h-2.6v-11.3h4.8c1,0,1.8,0.2,2.6,0.5c0.8,0.3,1.3,0.9,1.7,1.4
			c0.4,0.5,0.6,1.3,0.6,2.1c0,0.9-0.2,1.6-0.6,2.1c-0.4,0.6-1,1.1-1.7,1.4l2.6,3.6H766.5z M765.9,753.1c-0.4-0.3-1-0.5-1.8-0.5h-2.1
			v4h2.1c0.8,0,1.4-0.2,1.8-0.5s0.6-0.9,0.6-1.5C766.4,753.9,766.2,753.4,765.9,753.1z"/>
		<path class="st2" d="M772.7,761.3c-0.8-0.4-1.3-0.9-1.7-1.6c-0.4-0.8-0.6-1.4-0.6-2.3c0-0.9,0.2-1.6,0.6-2.3s1-1.2,1.7-1.6
			c0.8-0.4,1.5-0.5,2.5-0.5c1,0,1.7,0.2,2.5,0.5c0.8,0.4,1.3,0.9,1.7,1.6c0.4,0.6,0.6,1.4,0.6,2.3c0,0.9-0.2,1.6-0.6,2.3
			c-0.4,0.6-1,1.2-1.7,1.6c-0.8,0.4-1.5,0.5-2.5,0.5C774.2,761.9,773.4,761.7,772.7,761.3z M776.7,759.2c0.4-0.4,0.6-1,0.6-1.7
			c0-0.8-0.2-1.3-0.6-1.7c-0.4-0.4-1-0.6-1.6-0.6s-1.2,0.2-1.6,0.6c-0.4,0.4-0.6,1-0.6,1.7s0.2,1.3,0.6,1.7c0.4,0.4,1,0.6,1.6,0.6
			S776.3,759.6,776.7,759.2z"/>
		<path class="st2" d="M781.7,751.5c-0.3-0.3-0.4-0.6-0.4-1c0-0.3,0.1-0.8,0.4-1c0.3-0.3,0.6-0.4,1.1-0.4c0.4,0,0.9,0.1,1.1,0.4
			c0.3,0.2,0.4,0.5,0.4,1c0,0.4-0.1,0.8-0.4,1.1c-0.3,0.3-0.6,0.4-1.1,0.4C782.3,752,782,751.7,781.7,751.5z M781.6,753.1h2.5v8.7
			h-2.5V753.1z"/>
		<path class="st2" d="M795.3,753.1v7.2c0,1.6-0.4,2.8-1.3,3.5c-0.9,0.8-2,1.2-3.6,1.2c-0.9,0-1.6-0.1-2.4-0.3
			c-0.8-0.2-1.4-0.5-1.8-0.9l1-1.8c0.3,0.3,0.9,0.5,1.4,0.8s1.1,0.2,1.7,0.2c0.9,0,1.5-0.2,1.9-0.5c0.4-0.3,0.6-1,0.6-1.8v-0.3
			c-0.6,0.8-1.6,1.1-2.8,1.1c-0.8,0-1.5-0.2-2.1-0.5c-0.6-0.3-1.2-0.9-1.6-1.5c-0.4-0.6-0.5-1.4-0.5-2.1c0-0.9,0.2-1.6,0.5-2.1
			c0.4-0.6,0.9-1.1,1.6-1.5c0.8-0.4,1.4-0.5,2.1-0.5c1.3,0,2.3,0.4,2.9,1.3v-1.1h2.4V753.1z M792.2,758.7c0.4-0.4,0.6-0.9,0.6-1.5
			s-0.2-1.2-0.6-1.5c-0.4-0.4-1-0.5-1.6-0.5c-0.6,0-1.2,0.2-1.6,0.5c-0.4,0.4-0.6,0.9-0.6,1.5s0.2,1.2,0.6,1.5
			c0.4,0.4,1,0.5,1.6,0.5C791.2,759.3,791.7,759.1,792.2,758.7z"/>
		<path class="st2" d="M801.8,756.2h4.5v2h-4.5V756.2z"/>
		<path class="st2" d="M691.6,769.8l-4.8,11.3h-2.6l-4.8-11.3h2.8l3.4,8l3.4-8H691.6z"/>
		<path class="st2" d="M692.6,770.8c-0.3-0.3-0.4-0.6-0.4-1c0-0.3,0.1-0.8,0.4-1c0.3-0.3,0.6-0.4,1.1-0.4s0.9,0.1,1.1,0.4
			c0.3,0.2,0.4,0.5,0.4,1c0,0.4-0.1,0.8-0.4,1.1c-0.3,0.3-0.6,0.4-1.1,0.4S692.8,771,692.6,770.8z M692.5,772.4h2.5v8.7h-2.5V772.4z
			"/>
		<path class="st2" d="M700.9,772.6c0.5-0.2,1.1-0.3,1.7-0.3v2.4c-0.3,0-0.4,0-0.5,0c-0.8,0-1.3,0.2-1.7,0.6c-0.4,0.4-0.6,1-0.6,1.8
			v4.1h-2.5v-8.7h2.4v1.2C700,773.1,700.5,772.8,700.9,772.6z"/>
		<path class="st2" d="M713,772.4v7.2c0,1.6-0.4,2.8-1.3,3.5c-0.9,0.8-2,1.2-3.6,1.2c-0.9,0-1.6-0.1-2.4-0.3
			c-0.8-0.2-1.4-0.5-1.8-0.9l1-1.8c0.3,0.3,0.9,0.5,1.4,0.8c0.5,0.2,1.1,0.2,1.7,0.2c0.9,0,1.5-0.2,1.9-0.5c0.4-0.3,0.6-1,0.6-1.8
			v-0.3c-0.6,0.8-1.6,1.1-2.8,1.1c-0.8,0-1.5-0.2-2.1-0.5c-0.6-0.3-1.2-0.9-1.6-1.5c-0.4-0.6-0.5-1.4-0.5-2.1c0-0.9,0.2-1.6,0.5-2.1
			c0.4-0.6,0.9-1.1,1.6-1.5c0.8-0.4,1.4-0.5,2.1-0.5c1.3,0,2.3,0.4,2.9,1.3v-1.1h2.4V772.4z M709.9,778c0.4-0.4,0.6-0.9,0.6-1.5
			s-0.2-1.2-0.6-1.5c-0.4-0.4-1-0.5-1.6-0.5s-1.2,0.2-1.6,0.5c-0.4,0.4-0.6,0.9-0.6,1.5s0.2,1.2,0.6,1.5c0.4,0.4,1,0.5,1.6,0.5
			C708.9,778.6,709.5,778.4,709.9,778z"/>
		<path class="st2" d="M723.8,777.4h-6.5c0.1,0.5,0.4,1,0.9,1.3c0.4,0.3,1,0.4,1.6,0.4c0.4,0,0.9-0.1,1.2-0.2c0.3-0.1,0.6-0.3,1-0.6
			l1.3,1.5c-0.9,1-2,1.4-3.5,1.4c-1,0-1.8-0.2-2.6-0.5c-0.8-0.4-1.3-0.9-1.7-1.6c-0.4-0.8-0.6-1.4-0.6-2.3c0-0.9,0.2-1.6,0.6-2.3
			c0.4-0.6,1-1.2,1.6-1.6c0.8-0.4,1.5-0.5,2.4-0.5c0.9,0,1.6,0.2,2.3,0.5c0.6,0.3,1.2,0.9,1.6,1.6c0.4,0.6,0.5,1.5,0.5,2.4
			C723.8,776.8,723.8,777,723.8,777.4z M717.9,774.6c-0.4,0.3-0.6,0.8-0.8,1.3h4.3c-0.1-0.5-0.3-1-0.8-1.3c-0.4-0.3-0.9-0.5-1.4-0.5
			S718.3,774.3,717.9,774.6z"/>
		<path class="st2" d="M733.4,773.3c0.6,0.6,1,1.6,1,2.9v4.9h-2.5v-4.6c0-0.6-0.1-1.2-0.4-1.5c-0.3-0.3-0.8-0.5-1.3-0.5
			c-0.6,0-1.2,0.2-1.5,0.5c-0.4,0.4-0.5,1-0.5,1.7v4.3h-2.5v-8.7h2.4v1c0.3-0.3,0.8-0.6,1.3-0.9c0.5-0.2,1.1-0.3,1.6-0.3
			C731.9,772.3,732.7,772.6,733.4,773.3z"/>
		<path class="st2" d="M750,769.1v12h-2.4V780c-0.6,0.8-1.5,1.1-2.7,1.1c-0.9,0-1.5-0.2-2.3-0.5c-0.8-0.3-1.2-0.9-1.5-1.6
			c-0.4-0.6-0.5-1.5-0.5-2.4c0-0.9,0.2-1.7,0.5-2.4c0.3-0.6,0.9-1.2,1.5-1.6c0.6-0.4,1.4-0.5,2.3-0.5c1.1,0,1.9,0.3,2.6,1.1V769h2.5
			V769.1z M746.9,778.5c0.4-0.4,0.6-1,0.6-1.7c0-0.8-0.2-1.3-0.6-1.7c-0.4-0.4-1-0.6-1.6-0.6s-1.2,0.2-1.6,0.6s-0.6,1-0.6,1.7
			s0.2,1.3,0.6,1.7c0.4,0.4,1,0.6,1.6,0.6C745.9,779.2,746.5,778.9,746.9,778.5z"/>
		<path class="st2" d="M760.7,777.4h-6.5c0.1,0.5,0.4,1,0.9,1.3c0.4,0.3,1,0.4,1.6,0.4c0.4,0,0.9-0.1,1.2-0.2c0.3-0.1,0.6-0.3,1-0.6
			l1.3,1.5c-0.9,1-2,1.4-3.5,1.4c-1,0-1.8-0.2-2.6-0.5c-0.8-0.4-1.3-0.9-1.7-1.6c-0.4-0.8-0.6-1.4-0.6-2.3c0-0.9,0.2-1.6,0.6-2.3
			c0.4-0.6,1-1.2,1.6-1.6c0.8-0.4,1.5-0.5,2.4-0.5c0.9,0,1.6,0.2,2.3,0.5c0.6,0.3,1.2,0.9,1.6,1.6c0.4,0.6,0.5,1.5,0.5,2.4
			C760.9,776.8,760.7,777,760.7,777.4z M754.8,774.6c-0.4,0.3-0.6,0.8-0.8,1.3h4.3c-0.1-0.5-0.3-1-0.8-1.3c-0.4-0.3-0.9-0.5-1.4-0.5
			S755.3,774.3,754.8,774.6z"/>
		<path class="st2" d="M762.5,769.1h2.5v12h-2.5V769.1z"/>
		<path class="st2" d="M773.2,780.9c-0.9-0.2-1.5-0.5-2-1l0.9-1.9c0.5,0.3,1.1,0.6,1.7,0.9c0.6,0.2,1.3,0.3,2,0.3
			c0.8,0,1.3-0.1,1.6-0.3c0.3-0.2,0.5-0.5,0.5-0.9c0-0.3-0.1-0.5-0.3-0.6c-0.2-0.1-0.4-0.3-0.9-0.4c-0.3-0.1-0.8-0.2-1.3-0.3
			c-0.9-0.2-1.6-0.4-2.1-0.6c-0.5-0.2-1-0.5-1.4-1c-0.4-0.4-0.5-1.1-0.5-1.8c0-0.6,0.2-1.3,0.5-1.8c0.3-0.5,0.9-1,1.6-1.3
			c0.8-0.3,1.6-0.4,2.6-0.4c0.8,0,1.4,0.1,2.1,0.2c0.6,0.2,1.3,0.4,1.8,0.8l-0.9,1.9c-1.1-0.5-2-0.9-3.1-0.9c-0.8,0-1.3,0.1-1.6,0.3
			c-0.3,0.2-0.5,0.5-0.5,1s0.2,0.6,0.6,0.9c0.4,0.2,1,0.3,1.8,0.5c0.9,0.2,1.6,0.4,2.1,0.6c0.5,0.2,1,0.5,1.4,1
			c0.4,0.4,0.5,1.1,0.5,1.8c0,0.6-0.2,1.2-0.5,1.7c-0.3,0.5-0.9,1-1.6,1.3c-0.8,0.3-1.6,0.4-2.6,0.4
			C774.9,781.2,774,781.1,773.2,780.9z"/>
		<path class="st2" d="M783.8,780.7c-0.8-0.4-1.3-0.9-1.7-1.6c-0.4-0.8-0.6-1.4-0.6-2.3c0-0.9,0.2-1.6,0.6-2.3
			c0.4-0.6,1-1.2,1.7-1.6s1.5-0.5,2.5-0.5s1.7,0.2,2.5,0.5c0.8,0.4,1.3,0.9,1.7,1.6c0.4,0.6,0.6,1.4,0.6,2.3c0,0.9-0.2,1.6-0.6,2.3
			c-0.4,0.6-1,1.2-1.7,1.6c-0.8,0.4-1.5,0.5-2.5,0.5S784.6,781,783.8,780.7z M787.9,778.5c0.4-0.4,0.6-1,0.6-1.7
			c0-0.8-0.2-1.3-0.6-1.7c-0.4-0.4-1-0.6-1.6-0.6s-1.2,0.2-1.6,0.6s-0.6,1-0.6,1.7s0.2,1.3,0.6,1.7c0.4,0.4,1,0.6,1.6,0.6
			S787.5,778.9,787.9,778.5z"/>
		<path class="st2" d="M794.4,780.7c-0.8-0.4-1.3-0.9-1.7-1.6c-0.4-0.8-0.6-1.4-0.6-2.3c0-0.9,0.2-1.6,0.6-2.3
			c0.4-0.6,1-1.2,1.7-1.6c0.8-0.4,1.6-0.5,2.5-0.5c0.9,0,1.7,0.2,2.4,0.5c0.6,0.4,1.2,1,1.5,1.6l-1.9,1.1c-0.4-0.8-1.1-1.2-1.9-1.2
			c-0.6,0-1.2,0.2-1.6,0.6s-0.6,1-0.6,1.7s0.2,1.3,0.6,1.7c0.4,0.4,1,0.6,1.6,0.6c0.9,0,1.5-0.4,1.9-1.2l1.9,1.1
			c-0.3,0.6-0.9,1.2-1.5,1.6c-0.6,0.4-1.5,0.5-2.4,0.5C795.9,781.2,795.1,781,794.4,780.7z"/>
		<path class="st2" d="M803.8,780.7c-0.8-0.4-1.3-0.9-1.7-1.6c-0.4-0.8-0.6-1.4-0.6-2.3c0-0.9,0.2-1.6,0.6-2.3
			c0.4-0.6,1-1.2,1.7-1.6s1.5-0.5,2.5-0.5s1.7,0.2,2.5,0.5c0.8,0.4,1.3,0.9,1.7,1.6c0.4,0.6,0.6,1.4,0.6,2.3c0,0.9-0.2,1.6-0.6,2.3
			c-0.4,0.6-1,1.2-1.7,1.6c-0.8,0.4-1.5,0.5-2.5,0.5S804.5,781,803.8,780.7z M807.7,778.5c0.4-0.4,0.6-1,0.6-1.7
			c0-0.8-0.2-1.3-0.6-1.7c-0.4-0.4-1-0.6-1.6-0.6s-1.2,0.2-1.6,0.6s-0.6,1-0.6,1.7s0.2,1.3,0.6,1.7c0.4,0.4,1,0.6,1.6,0.6
			S807.4,778.9,807.7,778.5z"/>
		<path class="st2" d="M816.2,772.6c0.5-0.2,1.1-0.3,1.7-0.3v2.4c-0.3,0-0.4,0-0.5,0c-0.8,0-1.3,0.2-1.7,0.6c-0.4,0.4-0.6,1-0.6,1.8
			v4.1h-2.5v-8.7h2.4v1.2C815.3,773.1,815.7,772.8,816.2,772.6z"/>
		<path class="st2" d="M823.1,772.6c0.5-0.2,1.1-0.3,1.7-0.3v2.4c-0.3,0-0.4,0-0.5,0c-0.8,0-1.3,0.2-1.7,0.6c-0.4,0.4-0.6,1-0.6,1.8
			v4.1h-2.5v-8.7h2.4v1.2C822.2,773.1,822.6,772.8,823.1,772.6z"/>
		<path class="st2" d="M827.9,780.7c-0.8-0.4-1.3-0.9-1.7-1.6c-0.4-0.8-0.6-1.4-0.6-2.3c0-0.9,0.2-1.6,0.6-2.3s1-1.2,1.7-1.6
			c0.8-0.4,1.5-0.5,2.5-0.5c1,0,1.7,0.2,2.5,0.5c0.8,0.4,1.3,0.9,1.7,1.6c0.4,0.6,0.6,1.4,0.6,2.3c0,0.9-0.2,1.6-0.6,2.3
			c-0.4,0.6-1,1.2-1.7,1.6c-0.8,0.4-1.5,0.5-2.5,0.5C829.4,781.2,828.7,781,827.9,780.7z M832,778.5c0.4-0.4,0.6-1,0.6-1.7
			c0-0.8-0.2-1.3-0.6-1.7c-0.4-0.4-1-0.6-1.6-0.6c-0.6,0-1.2,0.2-1.6,0.6c-0.4,0.4-0.6,1-0.6,1.7s0.2,1.3,0.6,1.7s1,0.6,1.6,0.6
			C831,779.2,831.5,778.9,832,778.5z"/>
	</g>
	<g>
		<path class="st2" d="M737.6,511.4h2.6v9.1h5.7v2.1h-8.3V511.4z"/>
		<path class="st2" d="M753.9,514.8c0.8,0.6,1.1,1.6,1.1,2.9v4.9h-2.4v-1.1c-0.4,0.9-1.4,1.2-2.7,1.2c-0.6,0-1.3-0.1-1.7-0.3
			c-0.4-0.2-0.9-0.5-1.1-1c-0.2-0.4-0.4-0.9-0.4-1.4c0-0.9,0.3-1.4,0.9-1.9c0.6-0.4,1.5-0.6,2.8-0.6h2c0-0.5-0.2-1-0.5-1.3
			c-0.3-0.3-0.9-0.4-1.5-0.4c-0.4,0-1,0.1-1.4,0.2c-0.4,0.1-0.9,0.3-1.2,0.5l-0.9-1.7c0.4-0.3,1.1-0.5,1.7-0.8
			c0.6-0.2,1.3-0.3,2-0.3C752.1,514,753.1,514.3,753.9,514.8z M751.7,520.8c0.3-0.2,0.5-0.5,0.8-0.9v-0.9h-1.7c-1.1,0-1.5,0.3-1.5,1
			c0,0.3,0.1,0.5,0.4,0.8c0.2,0.2,0.6,0.3,1.1,0.3C751,521.2,751.4,521,751.7,520.8z"/>
		<path class="st2" d="M769.5,516.9h2.4v4.6c-0.6,0.4-1.3,0.9-2.1,1.1c-0.9,0.2-1.6,0.3-2.5,0.3c-1.2,0-2.3-0.2-3.1-0.8
			c-0.9-0.5-1.7-1.2-2.1-2c-0.5-0.9-0.8-1.9-0.8-3s0.2-2.1,0.8-3c0.5-0.9,1.3-1.6,2.3-2c1-0.4,2-0.8,3.2-0.8c1,0,1.9,0.2,2.7,0.5
			c0.8,0.3,1.5,0.9,2,1.4l-1.7,1.5c-0.9-0.9-1.8-1.3-2.9-1.3c-0.8,0-1.4,0.1-1.9,0.4c-0.5,0.3-1,0.8-1.3,1.3
			c-0.3,0.5-0.4,1.2-0.4,1.9c0,0.8,0.1,1.3,0.4,1.8s0.8,1,1.3,1.3c0.5,0.3,1.2,0.4,1.9,0.4s1.4-0.2,2-0.5v-3.2H769.5z"/>
		<path class="st2" d="M775.8,522.2c-0.8-0.4-1.3-0.9-1.7-1.6c-0.4-0.8-0.6-1.4-0.6-2.3c0-0.9,0.2-1.6,0.6-2.3
			c0.4-0.6,1-1.2,1.7-1.6c0.8-0.4,1.5-0.5,2.5-0.5c1,0,1.7,0.2,2.5,0.5c0.8,0.4,1.3,0.9,1.7,1.6c0.4,0.6,0.6,1.4,0.6,2.3
			c0,0.9-0.2,1.6-0.6,2.3c-0.4,0.6-1,1.2-1.7,1.6c-0.8,0.4-1.5,0.5-2.5,0.5C777.3,522.8,776.5,522.7,775.8,522.2z M779.8,520.1
			c0.4-0.4,0.6-1,0.6-1.7c0-0.8-0.2-1.3-0.6-1.7c-0.4-0.4-1-0.6-1.6-0.6s-1.2,0.2-1.6,0.6c-0.4,0.4-0.6,1-0.6,1.7
			c0,0.8,0.2,1.3,0.6,1.7c0.4,0.4,1,0.6,1.6,0.6S779.4,520.5,779.8,520.1z"/>
		<path class="st2" d="M784.7,510.8h2.5v11.9h-2.5V510.8z"/>
		<path class="st2" d="M798,519.1h-6.5c0.1,0.5,0.4,1,0.9,1.3c0.4,0.3,1,0.4,1.6,0.4c0.4,0,0.9-0.1,1.2-0.2c0.3-0.1,0.6-0.3,1-0.6
			l1.3,1.5c-0.9,1-2,1.4-3.5,1.4c-1,0-1.8-0.2-2.6-0.5c-0.8-0.4-1.3-0.9-1.7-1.6c-0.4-0.8-0.6-1.4-0.6-2.3c0-0.9,0.2-1.6,0.6-2.3
			s1-1.2,1.6-1.6c0.8-0.4,1.5-0.5,2.4-0.5c0.9,0,1.6,0.2,2.3,0.5c0.6,0.3,1.2,0.9,1.6,1.6c0.4,0.6,0.5,1.5,0.5,2.4
			C798,518.5,798,518.7,798,519.1z M792.1,516.3c-0.4,0.3-0.6,0.8-0.8,1.3h4.3c-0.1-0.5-0.3-1-0.8-1.3c-0.4-0.3-0.9-0.5-1.4-0.5
			S792.5,516,792.1,516.3z"/>
		<path class="st2" d="M805.3,522.3c-0.2,0.2-0.5,0.3-0.9,0.4c-0.3,0.1-0.8,0.1-1.2,0.1c-1.1,0-1.8-0.2-2.4-0.8s-0.9-1.3-0.9-2.4
			v-3.5h-1.4v-1.9h1.3v-2.1h2.5v2.1h2.1v1.9h-2.1v3.5c0,0.3,0.1,0.6,0.3,0.9c0.2,0.2,0.4,0.3,0.8,0.3c0.4,0,0.8-0.1,1-0.3
			L805.3,522.3z"/>
		<path class="st2" d="M813.3,514.8c0.8,0.6,1.1,1.6,1.1,2.9v4.9H812v-1.1c-0.4,0.9-1.4,1.2-2.7,1.2c-0.6,0-1.3-0.1-1.7-0.3
			c-0.4-0.2-0.9-0.5-1.1-1c-0.2-0.4-0.4-0.9-0.4-1.4c0-0.9,0.3-1.4,0.9-1.9c0.6-0.4,1.5-0.6,2.8-0.6h2c0-0.5-0.2-1-0.5-1.3
			c-0.3-0.3-0.9-0.4-1.5-0.4c-0.4,0-1,0.1-1.4,0.2c-0.4,0.1-0.9,0.3-1.2,0.5l-0.9-1.7c0.4-0.3,1.1-0.5,1.7-0.8
			c0.6-0.2,1.3-0.3,2-0.3C811.5,514,812.6,514.3,813.3,514.8z M811.2,520.8c0.3-0.2,0.5-0.5,0.8-0.9v-0.9h-1.7c-1.1,0-1.5,0.3-1.5,1
			c0,0.3,0.1,0.5,0.4,0.8c0.2,0.2,0.6,0.3,1.1,0.3C810.4,521.2,810.7,521,811.2,520.8z"/>
	</g>
	<g>
		<path class="st2" d="M433.2,882.2c-1-0.5-1.6-1.2-2.1-2c-0.5-0.9-0.8-1.9-0.8-3s0.2-2.1,0.8-3c0.5-0.9,1.3-1.6,2.1-2
			c0.9-0.4,1.9-0.8,3.1-0.8c1,0,1.8,0.2,2.7,0.5c0.8,0.3,1.5,0.9,2,1.5l-1.7,1.5c-0.8-0.9-1.7-1.3-2.8-1.3c-0.8,0-1.3,0.1-1.8,0.4
			c-0.5,0.3-1,0.8-1.3,1.3c-0.3,0.5-0.4,1.2-0.4,1.8s0.1,1.3,0.4,1.8c0.3,0.5,0.8,1,1.3,1.3c0.5,0.3,1.2,0.4,1.8,0.4
			c1.1,0,2-0.4,2.8-1.3l1.7,1.5c-0.5,0.6-1.2,1.2-2,1.5c-0.8,0.3-1.7,0.5-2.7,0.5C435.3,883,434.2,882.7,433.2,882.2z"/>
		<path class="st2" d="M449.1,874.9c0.8,0.6,1.1,1.6,1.1,2.9v4.9h-2.4v-1.1c-0.4,0.9-1.4,1.2-2.7,1.2c-0.6,0-1.3-0.1-1.7-0.3
			c-0.4-0.2-0.9-0.5-1.1-1s-0.4-0.9-0.4-1.4c0-0.9,0.3-1.4,0.9-1.9c0.6-0.4,1.5-0.6,2.8-0.6h2c0-0.5-0.2-1-0.5-1.3
			c-0.3-0.3-0.9-0.4-1.5-0.4c-0.4,0-1,0.1-1.4,0.2c-0.4,0.1-0.9,0.3-1.2,0.5l-0.9-1.7c0.4-0.3,1.1-0.5,1.7-0.8
			c0.6-0.2,1.3-0.3,2-0.3C447.4,874,448.4,874.3,449.1,874.9z M447,881c0.3-0.2,0.5-0.5,0.8-0.9v-0.9H446c-1.1,0-1.5,0.3-1.5,1
			c0,0.3,0.1,0.5,0.4,0.8c0.2,0.2,0.6,0.3,1.1,0.3C446.3,881.2,446.6,881.2,447,881z"/>
		<path class="st2" d="M453.3,882.7c-0.6-0.2-1.3-0.4-1.6-0.6l0.9-1.8c0.4,0.2,0.9,0.4,1.4,0.6c0.5,0.1,1.1,0.2,1.6,0.2
			c1.1,0,1.6-0.2,1.6-0.8c0-0.2-0.1-0.4-0.4-0.5c-0.3-0.1-0.8-0.2-1.3-0.3c-0.8-0.1-1.3-0.2-1.7-0.3c-0.4-0.1-0.9-0.4-1.2-0.8
			c-0.3-0.3-0.5-0.9-0.5-1.5c0-0.5,0.1-1.1,0.4-1.5s0.8-0.8,1.4-1c0.6-0.2,1.3-0.3,2.1-0.3c0.6,0,1.2,0.1,1.8,0.2
			c0.6,0.1,1.1,0.3,1.5,0.5l-0.9,1.8c-0.8-0.4-1.6-0.6-2.5-0.6c-0.5,0-1,0.1-1.2,0.2c-0.3,0.1-0.4,0.3-0.4,0.5
			c0,0.3,0.1,0.4,0.4,0.5c0.3,0.1,0.8,0.2,1.4,0.3c0.8,0.1,1.3,0.2,1.7,0.4c0.4,0.2,0.9,0.4,1.2,0.8c0.3,0.3,0.5,0.9,0.5,1.5
			c0,0.5-0.2,1-0.5,1.4c-0.3,0.4-0.8,0.8-1.4,1c-0.6,0.2-1.4,0.3-2.1,0.3C454.7,882.9,453.9,882.8,453.3,882.7z"/>
		<path class="st2" d="M466.6,882.4c-0.2,0.2-0.5,0.3-0.9,0.4s-0.8,0.1-1.2,0.1c-1.1,0-1.8-0.2-2.4-0.8s-0.9-1.3-0.9-2.4v-3.5h-1.3
			v-1.9h1.3v-2.1h2.5v2.1h2.1v1.9h-2.1v3.5c0,0.3,0.1,0.6,0.3,0.9c0.2,0.2,0.4,0.3,0.8,0.3c0.4,0,0.8-0.1,1-0.3L466.6,882.4z"/>
		<path class="st2" d="M468.1,872.5c-0.3-0.3-0.4-0.6-0.4-1c0-0.3,0.1-0.8,0.4-1c0.3-0.3,0.6-0.4,1.1-0.4c0.4,0,0.9,0.1,1.1,0.4
			c0.3,0.2,0.4,0.5,0.4,1s-0.1,0.8-0.4,1.1c-0.3,0.3-0.6,0.4-1.1,0.4C468.7,873,468.4,872.8,468.1,872.5z M468,874.1h2.5v8.7H468
			V874.1z"/>
		<path class="st2" d="M472.8,870.9h2.5v11.9h-2.5V870.9z"/>
		<path class="st2" d="M477.8,870.9h2.5v11.9h-2.5V870.9z"/>
		<path class="st2" d="M484.2,882.4c-0.8-0.4-1.3-0.9-1.7-1.6c-0.4-0.8-0.6-1.4-0.6-2.3c0-0.9,0.2-1.6,0.6-2.3
			c0.4-0.6,1-1.2,1.7-1.6s1.5-0.5,2.5-0.5c1,0,1.7,0.2,2.5,0.5c0.8,0.4,1.3,0.9,1.7,1.6c0.4,0.6,0.6,1.4,0.6,2.3
			c0,0.9-0.2,1.6-0.6,2.3c-0.4,0.6-1,1.2-1.7,1.6c-0.8,0.4-1.5,0.5-2.5,0.5C485.7,882.9,484.9,882.7,484.2,882.4z M488.3,880.2
			c0.4-0.4,0.6-1,0.6-1.7c0-0.8-0.2-1.3-0.6-1.7c-0.4-0.4-1-0.6-1.6-0.6s-1.2,0.2-1.6,0.6c-0.4,0.4-0.6,1-0.6,1.7s0.2,1.3,0.6,1.7
			c0.4,0.4,1,0.6,1.6,0.6S487.8,880.6,488.3,880.2z"/>
		<path class="st2" d="M403.5,901.9c-0.9-0.2-1.5-0.5-2-1l0.9-1.9c0.5,0.3,1.1,0.6,1.7,0.9c0.6,0.2,1.3,0.3,2,0.3
			c0.8,0,1.3-0.1,1.6-0.3s0.5-0.5,0.5-0.9c0-0.3-0.1-0.5-0.3-0.6c-0.2-0.1-0.4-0.3-0.9-0.4c-0.3-0.1-0.8-0.2-1.3-0.3
			c-0.9-0.2-1.6-0.4-2.1-0.6c-0.5-0.2-1-0.5-1.4-1c-0.4-0.4-0.5-1.1-0.5-1.8c0-0.6,0.2-1.3,0.5-1.8s0.9-1,1.6-1.3
			c0.8-0.3,1.6-0.4,2.6-0.4c0.8,0,1.4,0.1,2.1,0.2c0.6,0.2,1.3,0.4,1.8,0.8l-0.9,1.9c-1.1-0.5-2-0.9-3.1-0.9c-0.8,0-1.3,0.1-1.6,0.3
			c-0.3,0.2-0.5,0.5-0.5,1c0,0.4,0.2,0.6,0.6,0.9c0.4,0.2,1,0.3,1.8,0.5c0.9,0.2,1.6,0.4,2.1,0.6c0.5,0.2,1,0.5,1.4,1
			c0.4,0.4,0.5,1.1,0.5,1.8c0,0.6-0.2,1.2-0.5,1.7s-0.9,1-1.6,1.3c-0.8,0.3-1.6,0.4-2.6,0.4C405.1,902.3,404.3,902.2,403.5,901.9z"
			/>
		<path class="st2" d="M419.1,894.3c0.8,0.6,1.1,1.6,1.1,2.9v4.9h-2.4V901c-0.4,0.9-1.4,1.2-2.7,1.2c-0.6,0-1.3-0.1-1.7-0.3
			c-0.4-0.2-0.9-0.5-1.1-1s-0.4-0.9-0.4-1.4c0-0.9,0.3-1.4,0.9-1.9c0.6-0.4,1.5-0.6,2.8-0.6h2c0-0.5-0.2-1-0.5-1.3
			c-0.3-0.3-0.9-0.4-1.5-0.4c-0.4,0-1,0.1-1.4,0.2c-0.4,0.1-0.9,0.3-1.2,0.5l-0.9-1.7c0.4-0.3,1.1-0.5,1.7-0.8
			c0.6-0.2,1.3-0.3,2-0.3C417.3,893.3,418.3,893.6,419.1,894.3z M416.9,900.3c0.3-0.2,0.5-0.5,0.8-0.9v-0.9H416
			c-1.1,0-1.5,0.3-1.5,1c0,0.3,0.1,0.5,0.4,0.8c0.2,0.2,0.6,0.3,1.1,0.3C416.2,900.5,416.6,900.5,416.9,900.3z"/>
		<path class="st2" d="M430.2,894.3c0.6,0.6,1,1.6,1,2.9v4.9h-2.5v-4.6c0-0.6-0.1-1.2-0.4-1.5c-0.3-0.3-0.8-0.5-1.3-0.5
			c-0.6,0-1.2,0.2-1.5,0.5c-0.4,0.4-0.5,1-0.5,1.7v4.3h-2.5v-8.7h2.4v1c0.3-0.3,0.8-0.6,1.3-0.9c0.5-0.2,1.1-0.3,1.6-0.3
			C428.7,893.3,429.6,893.6,430.2,894.3z"/>
		<path class="st2" d="M439.1,901.7c-0.2,0.2-0.5,0.3-0.9,0.4s-0.8,0.1-1.2,0.1c-1.1,0-1.8-0.2-2.4-0.8s-0.9-1.3-0.9-2.4v-3.5h-1.3
			v-1.9h1.3v-2.1h2.5v2.1h2.1v1.9h-2.1v3.5c0,0.3,0.1,0.6,0.3,0.9c0.2,0.2,0.4,0.3,0.8,0.3c0.4,0,0.8-0.1,1-0.3L439.1,901.7z"/>
		<path class="st2" d="M447.1,894.3c0.8,0.6,1.1,1.6,1.1,2.9v4.9h-2.4V901c-0.4,0.9-1.4,1.2-2.7,1.2c-0.6,0-1.3-0.1-1.7-0.3
			c-0.4-0.2-0.9-0.5-1.1-1c-0.2-0.4-0.4-0.9-0.4-1.4c0-0.9,0.3-1.4,0.9-1.9c0.6-0.4,1.5-0.6,2.8-0.6h2c0-0.5-0.2-1-0.5-1.3
			c-0.3-0.3-0.9-0.4-1.5-0.4c-0.4,0-1,0.1-1.4,0.2c-0.4,0.1-0.9,0.3-1.2,0.5l-0.9-1.7c0.4-0.3,1.1-0.5,1.7-0.8
			c0.6-0.2,1.3-0.3,2-0.3C445.4,893.3,446.3,893.6,447.1,894.3z M444.9,900.3c0.3-0.2,0.5-0.5,0.8-0.9v-0.9H444
			c-1.1,0-1.5,0.3-1.5,1c0,0.3,0.1,0.5,0.4,0.8c0.2,0.2,0.6,0.3,1.1,0.3C444.2,900.5,444.6,900.5,444.9,900.3z"/>
		<path class="st2" d="M465,897.3c0.3,0.4,0.5,1.1,0.5,1.7c0,1-0.4,1.7-1.2,2.3c-0.8,0.5-1.9,0.8-3.3,0.8h-5.8v-11.3h5.5
			c1.4,0,2.5,0.2,3.1,0.8c0.8,0.5,1.1,1.3,1.1,2.1c0,0.5-0.1,1.1-0.4,1.5c-0.2,0.4-0.6,0.8-1.1,1C464,896.4,464.6,896.7,465,897.3z
			 M457.8,892.8v2.7h2.6c0.6,0,1.2-0.1,1.5-0.3c0.3-0.2,0.5-0.5,0.5-1s-0.2-0.8-0.5-1c-0.3-0.2-0.9-0.3-1.5-0.3h-2.6V892.8z
			 M462.3,899.8c0.3-0.2,0.5-0.5,0.5-1.1c0-1-0.6-1.4-2-1.4h-3v2.8h3C461.4,900.2,462,900.1,462.3,899.8z"/>
		<path class="st2" d="M473.9,894.3c0.8,0.6,1.1,1.6,1.1,2.9v4.9h-2.4V901c-0.4,0.9-1.4,1.2-2.7,1.2c-0.6,0-1.3-0.1-1.7-0.3
			c-0.4-0.2-0.9-0.5-1.1-1s-0.4-0.9-0.4-1.4c0-0.9,0.3-1.4,0.9-1.9c0.6-0.4,1.5-0.6,2.8-0.6h2c0-0.5-0.2-1-0.5-1.3
			c-0.3-0.3-0.9-0.4-1.5-0.4c-0.4,0-1,0.1-1.4,0.2c-0.4,0.1-0.9,0.3-1.2,0.5l-0.9-1.7c0.4-0.3,1.1-0.5,1.7-0.8
			c0.6-0.2,1.3-0.3,2-0.3C472.2,893.3,473.1,893.6,473.9,894.3z M471.7,900.3c0.3-0.2,0.5-0.5,0.8-0.9v-0.9h-1.7
			c-1.1,0-1.5,0.3-1.5,1c0,0.3,0.1,0.5,0.4,0.8c0.2,0.2,0.6,0.3,1.1,0.3C471,900.5,471.4,900.5,471.7,900.3z"/>
		<path class="st2" d="M480.9,893.6c0.5-0.2,1.1-0.3,1.7-0.3v2.4c-0.3,0-0.4,0-0.5,0c-0.8,0-1.3,0.2-1.7,0.6c-0.4,0.4-0.6,1-0.6,1.8
			v4.1h-2.5v-8.7h2.4v1.2C479.9,894.2,480.3,893.8,480.9,893.6z"/>
		<path class="st2" d="M491.4,893.8c0.6,0.3,1.2,0.9,1.5,1.6c0.4,0.6,0.5,1.5,0.5,2.4c0,0.9-0.2,1.7-0.5,2.4
			c-0.3,0.6-0.9,1.2-1.5,1.6c-0.6,0.4-1.4,0.5-2.1,0.5c-1.2,0-2.1-0.3-2.7-1.1v1h-2.4v-11.9h2.5v4.2c0.6-0.8,1.5-1.1,2.6-1.1
			C490,893.3,490.7,893.5,491.4,893.8z M490.3,899.5c0.4-0.4,0.6-1,0.6-1.7s-0.2-1.3-0.6-1.7c-0.4-0.4-1-0.6-1.6-0.6
			s-1.2,0.2-1.6,0.6c-0.4,0.4-0.6,1-0.6,1.7c0,0.8,0.2,1.3,0.6,1.7c0.4,0.4,1,0.6,1.6,0.6C489.4,900.2,490,899.9,490.3,899.5z"/>
		<path class="st2" d="M501.7,894.3c0.8,0.6,1.1,1.6,1.1,2.9v4.9h-2.4V901c-0.4,0.9-1.4,1.2-2.7,1.2c-0.6,0-1.3-0.1-1.7-0.3
			c-0.4-0.2-0.9-0.5-1.1-1s-0.4-0.9-0.4-1.4c0-0.9,0.3-1.4,0.9-1.9c0.6-0.4,1.5-0.6,2.8-0.6h2c0-0.5-0.2-1-0.5-1.3
			c-0.3-0.3-0.9-0.4-1.5-0.4c-0.4,0-1,0.1-1.4,0.2c-0.4,0.1-0.9,0.3-1.2,0.5l-0.9-1.7c0.4-0.3,1.1-0.5,1.7-0.8
			c0.6-0.2,1.3-0.3,2-0.3C499.9,893.3,500.9,893.6,501.7,894.3z M499.5,900.3c0.3-0.2,0.5-0.5,0.8-0.9v-0.9h-1.7
			c-1.1,0-1.5,0.3-1.5,1c0,0.3,0.1,0.5,0.4,0.8c0.2,0.2,0.6,0.3,1.1,0.3C498.8,900.5,499.2,900.5,499.5,900.3z"/>
		<path class="st2" d="M508.5,893.6c0.5-0.2,1.1-0.3,1.7-0.3v2.4c-0.3,0-0.4,0-0.5,0c-0.8,0-1.3,0.2-1.7,0.6c-0.4,0.4-0.6,1-0.6,1.8
			v4.1h-2.5v-8.7h2.4v1.2C507.7,894.2,508.1,893.8,508.5,893.6z"/>
		<path class="st2" d="M518.4,894.3c0.8,0.6,1.1,1.6,1.1,2.9v4.9h-2.4V901c-0.4,0.9-1.4,1.2-2.7,1.2c-0.6,0-1.3-0.1-1.7-0.3
			c-0.4-0.2-0.9-0.5-1.1-1s-0.4-0.9-0.4-1.4c0-0.9,0.3-1.4,0.9-1.9c0.6-0.4,1.5-0.6,2.8-0.6h2c0-0.5-0.2-1-0.5-1.3
			c-0.3-0.3-0.9-0.4-1.5-0.4c-0.4,0-1,0.1-1.4,0.2c-0.4,0.1-0.9,0.3-1.2,0.5l-0.9-1.7c0.4-0.3,1.1-0.5,1.7-0.8
			c0.6-0.2,1.3-0.3,2-0.3C516.6,893.3,517.7,893.6,518.4,894.3z M516.3,900.3c0.3-0.2,0.5-0.5,0.8-0.9v-0.9h-1.7
			c-1.1,0-1.5,0.3-1.5,1c0,0.3,0.1,0.5,0.4,0.8c0.2,0.2,0.6,0.3,1.1,0.3C515.5,900.5,515.9,900.5,516.3,900.3z"/>
	</g>
	<g>
		<path class="st2" d="M192.7,698.4c-0.9-0.2-1.5-0.5-2-1l0.9-1.9c0.5,0.3,1.1,0.6,1.7,0.9c0.6,0.2,1.3,0.3,2,0.3
			c0.8,0,1.3-0.1,1.6-0.3s0.5-0.5,0.5-0.9c0-0.3-0.1-0.5-0.3-0.6c-0.2-0.1-0.4-0.3-0.9-0.4c-0.3-0.1-0.8-0.2-1.3-0.3
			c-0.9-0.2-1.6-0.4-2.1-0.6c-0.5-0.2-1-0.5-1.4-1c-0.4-0.4-0.5-1.1-0.5-1.8c0-0.6,0.2-1.3,0.5-1.8c0.3-0.5,0.9-1,1.6-1.3
			c0.8-0.3,1.6-0.4,2.6-0.4c0.8,0,1.4,0.1,2.1,0.2c0.6,0.2,1.3,0.4,1.8,0.8l-0.9,1.9c-1.1-0.5-2-0.9-3.1-0.9c-0.8,0-1.3,0.1-1.6,0.3
			c-0.3,0.2-0.5,0.5-0.5,1c0,0.4,0.2,0.6,0.6,0.9c0.4,0.2,1,0.3,1.8,0.5c0.9,0.2,1.6,0.4,2.1,0.6c0.5,0.2,1,0.5,1.4,1
			s0.5,1.1,0.5,1.8c0,0.6-0.2,1.2-0.5,1.7s-0.9,1-1.6,1.3c-0.8,0.3-1.6,0.4-2.6,0.4C194.3,698.8,193.5,698.7,192.7,698.4z"/>
		<path class="st2" d="M208.3,690.8c0.8,0.6,1.1,1.6,1.1,2.9v4.9H207v-1.1c-0.4,0.9-1.4,1.2-2.7,1.2c-0.6,0-1.3-0.1-1.7-0.3
			c-0.4-0.2-0.9-0.5-1.1-1c-0.2-0.4-0.4-0.9-0.4-1.4c0-0.9,0.3-1.4,0.9-1.9c0.6-0.4,1.5-0.6,2.8-0.6h2c0-0.5-0.2-1-0.5-1.3
			c-0.3-0.3-0.9-0.4-1.5-0.4c-0.4,0-1,0.1-1.4,0.2c-0.4,0.1-0.9,0.3-1.2,0.5l-0.9-1.7c0.4-0.3,1.1-0.5,1.7-0.8
			c0.6-0.2,1.3-0.3,2-0.3C206.5,689.8,207.5,690.1,208.3,690.8z M206.1,696.8c0.3-0.2,0.5-0.5,0.8-0.9V695h-1.7
			c-1.1,0-1.5,0.3-1.5,1c0,0.3,0.1,0.5,0.4,0.8c0.2,0.2,0.6,0.3,1.1,0.3C205.4,697,205.8,696.9,206.1,696.8z"/>
		<path class="st2" d="M219.4,690.8c0.6,0.6,1,1.6,1,2.9v4.9h-2.5V694c0-0.6-0.1-1.2-0.4-1.5c-0.3-0.3-0.8-0.5-1.3-0.5
			c-0.6,0-1.2,0.2-1.5,0.5c-0.4,0.4-0.5,1-0.5,1.7v4.3h-2.5v-8.6h2.4v1c0.3-0.3,0.8-0.6,1.3-0.9s1.1-0.3,1.6-0.3
			C217.9,689.8,218.8,690.1,219.4,690.8z"/>
		<path class="st2" d="M234.9,696.1h-5.3l-1,2.5H226l5-11.3h2.6l5,11.3H236L234.9,696.1z M234,694.2l-1.8-4.3l-1.8,4.3H234z"/>
		<path class="st2" d="M247.4,690.8c0.6,0.6,1,1.6,1,2.9v4.9h-2.5V694c0-0.6-0.1-1.2-0.4-1.5c-0.3-0.3-0.8-0.5-1.3-0.5
			c-0.6,0-1.2,0.2-1.5,0.5c-0.4,0.4-0.5,1-0.5,1.7v4.3h-2.5v-8.6h2.4v1c0.3-0.3,0.8-0.6,1.3-0.9s1.1-0.3,1.6-0.3
			C245.9,689.8,246.8,690.1,247.4,690.8z"/>
		<path class="st2" d="M256.3,698.2c-0.2,0.2-0.5,0.3-0.9,0.4s-0.8,0.1-1.2,0.1c-1.1,0-1.8-0.2-2.4-0.8s-0.9-1.3-0.9-2.4V692h-1.3
			v-1.9h1.3V688h2.5v2.1h2.1v1.9h-2.1v3.5c0,0.3,0.1,0.6,0.3,0.9c0.2,0.2,0.4,0.3,0.8,0.3c0.4,0,0.8-0.1,1-0.3L256.3,698.2z"/>
		<path class="st2" d="M259.1,698.2c-0.8-0.4-1.3-0.9-1.7-1.6c-0.4-0.8-0.6-1.4-0.6-2.3c0-0.9,0.2-1.6,0.6-2.3
			c0.4-0.6,1-1.2,1.7-1.6c0.8-0.4,1.5-0.5,2.5-0.5s1.7,0.2,2.5,0.5c0.8,0.4,1.3,0.9,1.7,1.6c0.4,0.6,0.6,1.4,0.6,2.3
			c0,0.9-0.2,1.6-0.6,2.3c-0.4,0.6-1,1.2-1.7,1.6c-0.8,0.4-1.5,0.5-2.5,0.5S259.8,698.5,259.1,698.2z M263.1,696
			c0.4-0.4,0.6-1,0.6-1.7c0-0.8-0.2-1.3-0.6-1.7c-0.4-0.4-1-0.6-1.6-0.6c-0.6,0-1.2,0.2-1.6,0.6c-0.4,0.4-0.6,1-0.6,1.7
			s0.2,1.3,0.6,1.7c0.4,0.4,1,0.6,1.6,0.6C262.1,696.7,262.8,696.4,263.1,696z M262.2,686.5h2.7l-2.9,2.4h-1.9L262.2,686.5z"/>
		<path class="st2" d="M275.9,690.8c0.6,0.6,1,1.6,1,2.9v4.9h-2.5V694c0-0.6-0.1-1.2-0.4-1.5c-0.3-0.3-0.8-0.5-1.3-0.5
			c-0.6,0-1.2,0.2-1.5,0.5c-0.4,0.4-0.5,1-0.5,1.7v4.3h-2.5v-8.6h2.4v1c0.3-0.3,0.8-0.6,1.3-0.9s1.1-0.3,1.6-0.3
			C274.3,689.8,275.2,690.1,275.9,690.8z"/>
	</g>
</g>
</svg>
