<?xml version="1.0" encoding="utf-8"?>
<!-- Generator: Adobe Illustrator 24.0.2, SVG Export Plug-In . SVG Version: 6.00 Build 0)  -->
<svg version="1.1" id="Capa_1" xmlns="http://www.w3.org/2000/svg" xmlns:xlink="http://www.w3.org/1999/xlink" x="0px" y="0px"
	 viewBox="0 0 1080 1080" style="enable-background:new 0 0 1080 1080;" xml:space="preserve">
<style type="text/css">
	.st1{fill:none;stroke:#FFFFFF;stroke-width:8;stroke-miterlimit:10;}
	.st2{fill:#FFFFFF;}
</style>
<g id="4_Cabo_de_las_Huertas" class="zone">
	<path class="st0" d="M918.2,1005.7c4.9,0.7,32.9-0.1,39-2.7c2-0.8,3.8-3.3,4.7-6.4c1.3-3.9,0.7-8.1-1.5-11.6
		c-4.9-7.1-30-39.8-46.3-53.6c-3.1-2.7-6.7-5.5-10.4-8.5c-15.8-12.5-33.7-26.8-38.4-44c-5.4-19.7-7-116-6.8-155
		c-19.8-1.7-24.5,7.4-28.3,14.8c-0.4,0.8-0.8,1.5-1.1,2.1c-4.8,8.9-28.2,10.7-47,10.7c-11.1,0-43-7.2-71-13.6
		c-3.5-0.8-7-1.6-10.3-2.3c-27.8-6.3-61.2,1.3-83.3,6.4l-0.9,0.2c-23.6,5.4-79.7,12.2-109.2,12.2c-3,0.2-71.2,3.7-90.3,4.5
		c-18.4,0.7-40.4,7.6-49,15.3c-8.2,7.3-22.7,6.2-35.5,5.2c-4.2-0.3-8.2-0.6-11.7-0.6c-6.5,0-10.1,4-12.1,7.3
		c5.6,0.7,12.3,2,14.9,3.3c1.3,0.4,6.9,1.7,12.3,2.9c23.6,5.3,36.3,8.4,40.2,11.2c1.7,1.2,5.4,3.1,9.3,5.2
		c12.4,6.5,22.2,12,25.2,17.5c2.7,5.2,5.1,10.5,7.2,16c3.5,9.5,3.8,13.7,0.9,16.1c-0.3,0.2-1.5,1.8-0.5,11.1
		c0.4,3.1,4,14.3,7.2,24.3c6.8,20.9,8.7,27.4,8.2,30.3c-0.4,2.4,0.8,8.2,2.9,10.6c0.2,0.3,0.5,0.5,0.8,0.6
		c10.7-0.5,19.5,0.8,26.7,4.2c8.3,3.8,41.2,14.1,58.4,12.8c6.5-0.6,12.9-1.7,19.2-3.2c11.4-2.4,20.4-4.3,23.8,1.9
		c1.2,2.5,2.1,5,2.7,7.7c2.6,9,5.5,17.1,11.5,17.4c3.3,0.2,7.2,0.5,11.3,0.8c10.9,0.8,24.4,1.8,30.9,1.1c6.4-0.7,10.9,1,14.4,2.5
		c2,0.9,4,1.5,6.2,1.8c3,0.3,6.1,0.9,9,1.8c1.9,0.5,4.2,1.2,5,0.9c0.6-0.2,2-0.8,3.4-1.4c7.4-3.3,15.8-7.1,19.9-2.6
		c2.5,2.7,13.8,10.9,17.9,12.8c3.3,1.4,17.7,0.7,22.5-0.9c4.8-1.6,8.5,1,10.9,2.7c1,0.8,2.1,1.4,3.3,1.8c1.4,0.2,3,0.6,5,1.1
		c4.1,1,10.2,2.4,13.1,1.8c1.2-0.3,2.8-1.9,4.2-3.5c2.4-2.6,5.4-5.9,10.1-6.6c1.1-0.2,2.3-0.2,3.4-0.2c7,0,17.1,2.4,19.8,8.6
		c1.2,2.7,13.5,9.5,20.5,10.8c7.2,1.3,18.5,1.2,23-1.2c1-0.5,2.1-1.2,3.2-1.9c4.7-3,10.6-6.7,19.4-2.6c7.2,3.3,13.5,2.2,22.3,0.5
		l0.4-0.1C890,1001.7,917.9,1005.6,918.2,1005.7z"/>
</g>
<g id="4_La_Albufereta" class="zone">
	<path class="st0" d="M16.8,867.1c-2.2,1.4-2.5,2.1-2.5,2.1c0.1,0.5,0.3,0.9,0.6,1.3l1.4,2.5c3.2,5.8,11.2,20.6,14.1,25.4
		c1.3-3,3.4-5.9,7-7.1c3.6-1.3,29.5-13.1,32.3-14.8c1-0.7,4.4-3,8.2-5.7c7.7-5.4,18.3-12.8,23.2-15.7l1.3-0.8
		c5.9-3.3,11.5-7.2,16.5-11.8c3.9-3.5,9.5-7.4,16-11.9c6.4-4.5,13.7-9.5,21.3-15.5c4.8-3.8,10.1-8.4,15.6-13.3
		c12.4-10.9,25.2-22.1,36.4-27c16.2-7.1,48-13.9,57.2-13c0.6,0.1,1.3,0.1,2,0.2c9.6,0.8,22.7,1.9,26.1,10.4
		c2.4,6.1,4.8,10.1,7.1,11.9c2.9-6.1,9.2-13.6,20.2-13.6c3.8,0,7.9,0.3,12.3,0.6c11.2,0.8,24,1.8,29.6-3.2
		c10.2-9.1,33.4-16.5,54-17.3c12.9-0.5,48.3-2.3,70.8-3.5c-6.9-7.2-6.6-17.9-6.4-25.8c0.2-2.3,0.1-4.6-0.2-6.9
		c-1-4.4-5.2-10.9-9.2-17.2c-3.1-4.6-5.9-9.4-8.4-14.3c-13.4-22.8-48.7-82.6-52.8-87.8c-1.7-2.2-5.9-3.2-9.6-4.2
		c-5-1.3-10.7-2.7-12.2-7.9c-1.4-4.7-5.6-19,8.3-33.3c0.9-0.9,1.7-1.8,2.5-2.6c4-4.1,8.2-8.4,8.7-10c-0.4-0.4-0.8-0.7-1.2-1
		c-0.9-0.6-2.3-1.5-4.2-2.8c-26.8-17.6-37.1-26.5-38.1-32.6c-0.3-1.7,0.1-3.4,1.1-4.7c1.7-2,2.5-4.6,2.2-7.2c-0.6-3.2-3.3-6.3-8-9.2
		c-3.6-2.2-34.7-21.7-31.8-38.4l0.4-2.4c0.8-4.4,2.2-12.3,2.3-16.9c-3.3,1.9-9,4.8-17.8,9.2c-23.1,11.7-61.8,31.4-69.3,40.7
		c-12,15-41.6,63.1-42.4,70.2c-1,8.2-11.1,25.9-14.7,31.9c15,36.4,30.1,72.6,31,74.6c2.2,4.6,5.2,8.7,8.9,12.1
		c3,2.9,6.8,6.2,10.1,9.1c2.2,1.9,4.2,3.7,5.7,5.1c0.9,0.7,1.8,1.4,2.7,2.1c3.3,2.4,6.7,4.9,5.6,8.7c-1.1,3.9-5.9,4.3-7.9,4.5
		c-8.5,0.8-86.9,6.5-97.2,5.9l-2-0.1c-9.2-0.6-23.1-1.4-29.5,0.1c-1.7,0.4-3.4,0.7-4.9,1c-0.4,0.1-0.9,0.2-1.4,0.3
		c3.7,3.9,11,11.8,19.2,20.5c12.9,13.8,28.9,31,31.3,33.3c2.7,2.6,6.4,6.2,5.8,10.8c-0.4,2.9-2.3,5.3-5.9,7.3
		c-4.1,2.3-60.2,41.3-97.3,67.1C37.4,852.8,18.8,865.8,16.8,867.1z"/>
</g>
<g id="4_Playa_de_San_Juan" class="zone">
	<path class="st0" d="M727.5,192.6c0.9-5,1.9-10.6,2.3-15.6c0.5-6.7-0.4-8.4-0.6-8.6c-4.2-2.9-15.3-12.8-24.2-20.7
		c-4.4-3.9-8.1-7.3-9.8-8.7c-0.3-0.3-0.6-0.5-0.9-0.7c-3.3,40.3-24.9,304.6-25.5,334.6c-0.2,9.9,0.8,25.4,1.8,41.8
		c3.7,57.8,4.1,85.2-8.2,86.4c-13.7,1.3-90.4,26.2-110.9,35.9c-3.3,1.6-7.9,3.6-13.2,6c-12.4,5.6-29.5,13.3-43.4,20.6
		c-20.3,10.7-23.7,15.3-24.2,16.5c2.3,4.5,4.9,8.9,7.7,13.1c4.6,7.2,8.9,14,10.3,19.6c0.6,2.4,0.5,5.5,0.4,9
		c-0.2,6.8-0.4,15.4,4.2,20.2c2.8,2.9,7.5,4.4,13.9,4.4c28.2,0,84.5-6.8,107.5-12l0.9-0.2c22.8-5.2,57.4-13,86.9-6.4
		c3.3,0.8,6.8,1.5,10.3,2.4c26.3,6,59,13.4,69.2,13.4c23.7,0,38.3-3.4,40-6.5c0.3-0.6,0.7-1.3,1-1.9c3.8-7.5,10.8-21,35.5-19.2
		c0.7-35.6,8.8-217.7,12.1-255.1c1-11.2,2.3-27.1,3.7-43.9c3.5-41.4,7.4-88.3,8.8-98.6c2.3-16.9,0.8-29.1-13.7-34.3
		c-6-2.1-14.2-4.4-22.9-6.8c-18.1-5.1-38.6-10.8-49.5-17.9c-9.5-6.2-27.7-18.3-42.2-28c-9.1-6.1-16.3-10.9-18.6-12.4l-0.4-0.3
		c-5.7-3.7-10.7-6.9-9.9-16.9C726.3,199.6,726.8,196.3,727.5,192.6z"/>
</g>
<g id="4_Alicante_Golf" class="zone">
	<path class="st0" d="M208.8,384.4c-3.2,2.6-9.2,8-15.1,13.2c-6.8,6.1-13.9,12.3-17.1,14.9c-1.2,1-2.5,1.9-3.7,2.8
		c-4.6,3.4-8.9,6.6-12.5,13.4c-1.2,2.4-2.7,5-4.3,7.8c-4.3,7.7-10.2,18.2-10,22.9c0,1,0.1,2,0.1,3c0.2,6.6,0.5,15.6,2.4,19.7
		c1.3,2.8,17.1,41,34.4,82.7c4.8-8.5,10.1-19,10.6-23.5c1.2-10.5,34-61.7,44.1-74.3c7.9-9.9,39.9-26.6,71.9-42.8
		c9.1-4.6,17.7-9,19.3-10.2c3.3-2.4,5.7-1.5,6.9-0.8c4.5,2.8,3.6,10.4,0.7,27.2l-0.4,2.4c-1.3,7.4,13.3,21.2,28.1,30.2
		c6.7,4.1,10.7,9,11.7,14.6c0.7,4.5-0.4,9-3.1,12.6c1.5,2.9,9,9.9,34.4,26.6c1.9,1.3,3.4,2.3,4.3,2.9c1.9,1.3,4.4,3.4,4.7,6.8
		c0.5,4.7-3.3,8.6-10.9,16.4c-0.8,0.8-1.6,1.7-2.5,2.6c-9.4,9.7-8.3,18.7-6.3,25.4c0.5,0.8,4.4,1.8,6.5,2.4c4.9,1.2,10.5,2.7,13.9,7
		c4.5,5.7,37.6,61.8,49.6,82.2c8.6-8.9,31.7-20.4,68.5-37c5.2-2.4,9.8-4.4,13.1-6c21.4-10.2,98.3-35,113.4-36.6
		c0.6-0.6,3.4-4.4,3.5-26.3c0-15.1-1.1-33.7-2.3-51.6c-1.1-16.6-2.1-32.3-1.9-42.5c0.6-30.3,21.7-287.6,25.4-333.6
		c-8,7-61.2,54.3-67.1,59.8l-1.1,1c-9.6,9.3-20.3,17.4-31.8,24.2c-15.7,9.4-42.7,27-52.9,33.6l-1.8,1.2c-1.8,1.1-3.9,2.7-6.1,4.3
		c-11.3,8.1-18.5,12.8-23.9,9.8c-1.1-0.6-7.5-4.2-16.5-9.4c-27-15.3-83-47.3-86.3-48.9c-5.2-2.6-21-16-24.5-19.2
		c-4.5-4.2-8.9-8.4-11.9-11.6c-3.5-3.6-3.6-3.5-5.5-2.3c-1.2,0.7-2.8,1.9-4.5,3.1c-7.1,5.1-13,9-17.2,9.5
		c-3.3,0.4-47.7,8.6-74.2,13.5c-11.8,2.2-20.3,3.7-22.1,4.1c-1.7,0.2-3.4,0.7-5,1.5c0.2,3,1,17.8,1.1,25.8
		c0.1,2.8,0.3,10.3,0.6,19.1c0.7,21,1.3,37.4,1.1,40.7c-0.2,3-0.8,7.4-1.4,12.6c-0.6,4.2-1.1,8.5-1.5,12.5l-0.3,3.2
		c-2.2,22.6-3.4,30.8-5.1,33.4C226.5,363.6,216.1,378.4,208.8,384.4z"/>
</g>
<g id="_Strokes">
	<path class="st1" d="M874.8,461.1c3.3-37.8,10.5-127.9,12.5-142.3s2.3-32-16.4-38.6s-56-14.2-71.5-24.3s-55-36.6-60.8-40.4
		s-9.1-5.7-8.5-13.5s7.5-32.9,1.5-37s-28.7-25-33.8-29.2s-9.5-3.8-13.3-0.6s-62,55-68.1,60.7c-9.7,9.5-20.5,17.8-32.2,24.7
		c-16.8,10.1-46.9,29.7-54.8,34.8s-21.2,16.5-25.9,13.9s-98.5-56.1-102.9-58.3s-19.4-14.8-23.5-18.6s-8.5-8-11.7-11.4
		s-5.7-6-10.5-2.9s-15.2,11.4-20,12s-90.7,16.5-96.5,17.5s-8.5,2.6-8.3,5.1s1,18.1,1.2,26.2s2,54.2,1.8,59.5s-2.1,16.1-2.9,24.9
		s-2.9,31.9-4.8,34.9s-12,17.4-18.9,23.1s-26.3,23.4-32.2,28.1s-12.3,7.9-17.3,17.5s-15.1,25-14.8,32.8s0.3,18.7,2.9,24.3
		s67.3,162.4,69.3,166.7c2.4,5,5.7,9.5,9.8,13.3c5.1,4.8,12.1,10.8,15.8,14.2s12.6,7.5,2.8,8.3s-86.8,6.4-96.6,5.8s-25.1-1.7-32.6,0
		s-14.5,1.7-10.7,5.5s48.5,52.1,52.9,56.3s7.5,7.9,0.7,11.7S19.9,860.3,14.7,863.7s-4.8,5.8-3.2,8.8s13.3,24.4,16.1,29s3.8,7,5,3.2
		c1.2-3.8,2.6-8.2,6.3-9.5s29.8-13.2,33-15.2s24-17,31.3-21.3s11-6.4,18.4-13s21.6-15.1,37.1-27.2s35.5-32.9,51.2-39.8
		s46.9-13.5,55.3-12.7s22.1,1.3,24.7,8s6.7,15.2,13.2,15.6s17,2.3,18.9,3.5s45.9,9.5,51.9,13.7s29.4,14.2,33.3,21.3s11.6,25,9.1,27
		s-2.8,7-1.9,14.6s16.2,49,15.5,53.5s2,16.1,7.9,15.8s15.9-0.3,24.9,3.8s42.5,14.5,60.4,13.2c17.8-1.3,36-9.2,39.2-3.4
		s5,26.5,17.5,27.2s33.6,2.9,42.8,1.9s13.2,3.8,19.9,4.2s12,3.7,15.5,2.5s16.2-8.2,19-5.1s14.6,11.7,19.3,13.7s20.3,0.9,25.3-0.7
		s7.7,3.9,12.3,4.7s14.3,3.9,19.6,2.8s7.9-9.2,14-10.1s17,1.3,19,6s16.2,11.8,23.4,13.2s19.7,1.5,25.6-1.6s10.5-8.3,19-4.4
		s15.8,2.5,25.1,0.7s33,1.2,38.2,1.9s34.1,0,41.1-2.9s10.7-15.8,5-24s-30.9-40.6-46.9-54.4s-42.1-30.6-47.5-50.4
		s-7.2-126.2-6.6-161.3S871.5,498.5,874.8,461.1z"/>
	<path class="st1" d="M690.7,132.8c0,0-25.3,307.2-26,340s11.4,122.9-2.8,124.3s-91.9,26.6-112.2,36.3s-87.7,37.6-82.9,48
		s15.9,23.8,18,32.5s-6.9,36.6,22.4,36.6c29.4,0,85.6-6.9,108.4-12.1s57-13.1,86-6.6s68.4,15.9,80.5,15.9s39.4-1,43.5-8.6
		s9-22.4,37-18.6"/>
	<path class="st1" d="M303,789.6c0,0,3.6-14.8,17.8-14.8s35.2,4.7,44.5-3.6s31.9-15.5,51.5-16.3s90.4-4.5,90.4-4.5"/>
	<path class="st1" d="M466.9,681.3c0,0-48-81.8-53.2-88.4s-19.3-4.8-21.1-10.7s-4.4-17.3,7.3-29.4s15.7-15.3,9.3-19.7
		s-44.9-28.4-40.3-34.3s5.4-14.8-6.9-22.3s-31.9-23-29.9-34.3s5.6-29.7-0.9-24.9s-79.1,38.1-90.5,52.3s-42.2,63.5-43.3,72.3
		s-15.2,32-15.2,32"/>
</g>
<g id="_Texto" class="text">
	<path class="st2" d="M845.4,575.6c0.7-1.4,2.2-2.2,3.7-2.1c0.8,0,1.5,0.3,2.1,0.7c0.6,0.4,1.1,1.1,1.3,1.8c0.3,0.8,0.4,1.7,0.3,2.6
		l-0.1,2.3l3.1,0.2l-0.2,2.6l-11.2-0.7l0.3-4.8C844.8,577.3,845,576.4,845.4,575.6z M850.4,576.9c-0.3-0.4-0.8-0.7-1.4-0.7
		c-0.5-0.1-1.1,0.1-1.5,0.5c-0.4,0.5-0.6,1.1-0.6,1.7l-0.1,2.1l3.9,0.2l0.1-2.1C850.8,578,850.7,577.4,850.4,576.9L850.4,576.9z"/>
	<path class="st2" d="M844.5,571.4l0.1-2.5l11.9,0.7l-0.1,2.5L844.5,571.4z"/>
	<path class="st2" d="M849.3,560.3c0.8-0.7,1.9-1,2.9-0.9l4.9,0.3l-0.1,2.3l-1.1-0.1c0.8,0.6,1.2,1.7,1,2.7c0,0.6-0.2,1.2-0.4,1.7
		c-0.2,0.4-0.6,0.8-1,1.1c-0.4,0.2-0.9,0.3-1.4,0.3c-0.7,0-1.4-0.4-1.8-1c-0.5-0.9-0.7-1.9-0.5-2.8l0.1-2c-0.5-0.1-0.9,0.1-1.3,0.4
		c-0.3,0.4-0.5,0.9-0.5,1.5c0,0.5,0,0.9,0.1,1.4c0.1,0.4,0.3,0.8,0.5,1.2l-1.8,0.8c-0.3-0.5-0.5-1.1-0.7-1.7c-0.1-0.7-0.2-1.4-0.2-2
		C848.1,562.2,848.5,561.2,849.3,560.3z M855.1,562.8c-0.2-0.3-0.5-0.6-0.8-0.8l-0.9-0.1l-0.1,1.7c-0.1,1,0.2,1.6,0.9,1.6
		c0.3,0,0.6-0.1,0.8-0.3c0.2-0.3,0.3-0.6,0.3-1C855.3,563.6,855.3,563.2,855.1,562.8L855.1,562.8z"/>
	<path class="st2" d="M849.1,548.6l8.9,4.4c0.8,0.3,1.5,0.9,2,1.6c0.4,0.6,0.5,1.4,0.5,2.1c0,0.4-0.1,0.9-0.3,1.3
		c-0.1,0.4-0.4,0.7-0.6,1l-1.7-1c0.2-0.2,0.3-0.4,0.4-0.6c0.1-0.2,0.2-0.5,0.2-0.7c0-0.3,0-0.6-0.2-0.8c-0.2-0.3-0.5-0.5-0.8-0.6
		l-0.1,0l-8.9,3.2l0.2-2.6l6-2.1L849,551L849.1,548.6z"/>
	<path class="st2" d="M850.4,541.4c0.8-0.7,1.9-1,2.9-0.9l4.9,0.3l-0.1,2.3l-1.1-0.1c0.8,0.6,1.2,1.7,1,2.7c0,0.6-0.2,1.2-0.4,1.7
		c-0.2,0.4-0.6,0.8-1,1.1c-0.4,0.2-0.9,0.3-1.4,0.3c-0.7,0-1.4-0.4-1.8-1c-0.5-0.9-0.7-1.9-0.5-2.8l0.1-2c-0.5-0.1-0.9,0.1-1.3,0.4
		c-0.3,0.4-0.5,0.9-0.5,1.5c0,0.5,0,0.9,0.1,1.4c0.1,0.4,0.3,0.8,0.5,1.2l-1.8,0.8c-0.3-0.5-0.5-1.1-0.7-1.7c-0.1-0.7-0.2-1.4-0.2-2
		C849.3,543.3,849.7,542.2,850.4,541.4z M856.2,543.9c-0.2-0.3-0.5-0.6-0.8-0.8l-0.9-0.1l-0.1,1.7c-0.1,1,0.2,1.6,0.9,1.6
		c0.3,0,0.6-0.1,0.8-0.3c0.2-0.3,0.3-0.6,0.3-1C856.5,544.6,856.4,544.2,856.2,543.9L856.2,543.9z"/>
	<path class="st2" d="M847.3,524.5l11.9,0.7l-0.1,2.4l-1-0.1c0.7,0.7,1.1,1.7,1,2.8c0,0.8-0.3,1.5-0.7,2.2c-0.4,0.6-1,1.1-1.6,1.4
		c-1.5,0.7-3.2,0.6-4.7-0.3c-0.6-0.4-1.1-1-1.5-1.6c-0.3-0.7-0.5-1.5-0.4-2.2c0-1,0.4-1.9,1.2-2.5l-4.2-0.3L847.3,524.5z
		 M856.4,528.2c-1-0.9-2.4-1-3.5-0.2c-0.9,0.8-1,2.2-0.2,3.1c1,0.9,2.4,1,3.5,0.2C857.1,530.5,857.2,529.1,856.4,528.2z"/>
	<path class="st2" d="M856.2,514.4l-0.4,6.5c0.5-0.1,1-0.3,1.3-0.8c0.4-0.5,0.5-1,0.6-1.6c0-0.4,0-0.8-0.1-1.2
		c-0.1-0.4-0.3-0.7-0.6-1l1.5-1.2c0.9,1,1.3,2.3,1.2,3.6c0,0.9-0.3,1.8-0.7,2.5c-0.4,0.7-1,1.3-1.7,1.6c-0.7,0.4-1.5,0.5-2.3,0.5
		c-0.8,0-1.6-0.3-2.2-0.7c-0.6-0.4-1.2-1-1.5-1.7c-0.7-1.5-0.6-3.2,0.3-4.6c0.4-0.7,1-1.2,1.7-1.5c0.7-0.4,1.6-0.5,2.4-0.4
		C855.6,514.3,855.8,514.3,856.2,514.4z M853.1,520c0.3,0.4,0.8,0.7,1.3,0.8l0.3-4.2c-0.5,0-1,0.3-1.3,0.6c-0.4,0.4-0.6,0.9-0.6,1.4
		C852.7,519.1,852.8,519.6,853.1,520z"/>
	<path class="st2" d="M860.1,507.1c-0.2,0.7-0.6,1.4-1.1,1.9l-1.9-1c0.4-0.5,0.7-1.1,0.9-1.7c0.2-0.6,0.4-1.3,0.4-2
		c0.1-0.6,0-1.1-0.2-1.6c-0.2-0.3-0.5-0.6-0.8-0.6c-0.3,0-0.5,0.1-0.7,0.3c-0.2,0.2-0.4,0.5-0.5,0.8c-0.1,0.3-0.3,0.8-0.4,1.3
		c-0.2,0.7-0.4,1.4-0.7,2.1c-0.2,0.5-0.6,1-1.1,1.3c-0.5,0.4-1.2,0.5-1.8,0.5c-0.6,0-1.2-0.3-1.7-0.6c-0.5-0.4-0.9-1-1.2-1.7
		c-0.3-0.8-0.4-1.7-0.3-2.6c0-0.7,0.2-1.4,0.4-2.1c0.2-0.6,0.5-1.2,0.8-1.7l1.9,0.9c-0.6,0.9-1,2-1.1,3c-0.1,0.6,0,1.1,0.3,1.6
		c0.2,0.3,0.5,0.6,0.9,0.6c0.4,0,0.7-0.2,0.9-0.5c0.3-0.6,0.5-1.2,0.7-1.8c0.2-0.7,0.4-1.4,0.7-2.1c0.2-0.5,0.6-1,1-1.3
		c0.5-0.4,1.2-0.5,1.8-0.5c0.6,0,1.2,0.3,1.7,0.6c0.5,0.4,0.9,1,1.2,1.7c0.3,0.8,0.4,1.7,0.3,2.6
		C860.6,505.4,860.4,506.2,860.1,507.1z"/>
	<path class="st2" d="M853.4,491.2c0.8-0.7,1.9-1,2.9-0.9l4.9,0.3l-0.1,2.3l-1.1-0.1c0.8,0.6,1.2,1.7,1,2.7c0,0.6-0.2,1.2-0.4,1.7
		c-0.2,0.4-0.6,0.8-1,1.1c-0.4,0.2-0.9,0.3-1.4,0.3c-0.7,0-1.4-0.4-1.8-1c-0.5-0.9-0.7-1.9-0.5-2.8l0.1-2c-0.5-0.1-0.9,0.1-1.3,0.4
		c-0.3,0.4-0.5,0.9-0.5,1.5c0,0.5,0,0.9,0.1,1.4c0.1,0.4,0.3,0.8,0.5,1.2l-1.8,0.8c-0.3-0.5-0.5-1.1-0.7-1.7c-0.1-0.7-0.2-1.4-0.2-2
		C852.3,493.1,852.7,492,853.4,491.2z M859.2,493.7c-0.2-0.3-0.5-0.6-0.8-0.8l-0.9-0.1l-0.1,1.7c-0.1,1,0.2,1.6,0.9,1.6
		c0.3,0,0.6-0.1,0.8-0.3c0.2-0.3,0.3-0.6,0.3-1C859.5,494.4,859.4,494,859.2,493.7z"/>
	<path class="st2" d="M854.1,480.1c0.8-0.7,1.9-1,2.9-0.8l4.9,0.3l-0.1,2.5l-4.5-0.3c-0.5-0.1-1.1,0.1-1.6,0.4
		c-0.4,0.3-0.6,0.8-0.6,1.3c-0.1,0.6,0.1,1.1,0.5,1.5c0.5,0.4,1.1,0.7,1.7,0.7l4.2,0.3l-0.1,2.5l-8.6-0.5l0.1-2.4l1,0.1
		c-0.3-0.4-0.6-0.8-0.8-1.3c-0.2-0.5-0.2-1.1-0.2-1.6C853,481.6,853.4,480.7,854.1,480.1z"/>
	<path class="st2" d="M862.1,472.6c-0.3,0.6-0.7,1.1-1.3,1.5l-1.6-1.5c0.8-0.4,1.3-1.2,1.4-2c0.1-1.1-0.5-1.6-1.8-1.7l-5.3-0.3
		l-0.2,3.9l-2.1-0.1l0.4-6.5l7.3,0.4c1.1,0,2.2,0.4,3,1.2c0.7,0.9,1,2,0.9,3.1C862.6,471.3,862.4,472,862.1,472.6z"/>
	<path class="st2" d="M854.7,455l8.6,0.5l-0.1,2.4l-1-0.1c0.3,0.3,0.6,0.8,0.8,1.2c0.2,0.5,0.2,1,0.2,1.5c0,1-0.4,1.9-1.1,2.6
		c-0.8,0.7-1.9,1-2.9,0.8l-4.9-0.3l0.1-2.5l4.5,0.3c1.4,0.1,2.1-0.5,2.2-1.6c0.1-0.5-0.1-1.1-0.5-1.5c-0.5-0.4-1.1-0.7-1.7-0.6
		l-4.2-0.3L854.7,455z"/>
	<path class="st2" d="M856.1,446.2c0.8-0.7,1.9-1,2.9-0.9l4.9,0.3l-0.1,2.3l-1.1-0.1c0.8,0.6,1.2,1.7,1,2.7c0,0.6-0.2,1.2-0.4,1.7
		c-0.2,0.4-0.6,0.8-1,1.1c-0.4,0.2-0.9,0.3-1.4,0.3c-0.7,0-1.4-0.4-1.8-1c-0.5-0.9-0.7-1.9-0.5-2.8l0.1-2c-0.5-0.1-0.9,0.1-1.3,0.4
		c-0.3,0.4-0.5,0.9-0.5,1.5c0,0.5,0,0.9,0.1,1.4c0.1,0.4,0.3,0.8,0.5,1.2l-1.8,0.8c-0.3-0.5-0.5-1.1-0.7-1.7c-0.1-0.7-0.2-1.4-0.2-2
		C855,448.1,855.4,447,856.1,446.2z M861.9,448.6c-0.2-0.3-0.5-0.6-0.8-0.8l-0.9-0.1l-0.1,1.7c-0.1,1,0.2,1.6,0.9,1.6
		c0.3,0,0.6-0.1,0.8-0.3c0.2-0.3,0.3-0.6,0.3-1C862.2,449.4,862.1,449,861.9,448.6L861.9,448.6z"/>
	<path class="st2" d="M856.8,435c0.8-0.7,1.9-1,2.9-0.8l4.9,0.3l-0.1,2.5l-4.5-0.3c-0.5-0.1-1.1,0.1-1.6,0.4
		c-0.4,0.3-0.6,0.8-0.6,1.3c-0.1,0.6,0.1,1.1,0.5,1.5c0.5,0.4,1.1,0.7,1.7,0.7l4.2,0.3l-0.1,2.5l-8.6-0.5l0.1-2.4l1,0.1
		c-0.3-0.4-0.6-0.8-0.8-1.3c-0.2-0.5-0.2-1.1-0.2-1.6C855.7,436.6,856.1,435.7,856.8,435z"/>
	<path class="st2" d="M698.9,719.5l-5.2-0.5l-1.2,2.3l-2.6-0.2l6-10.7l2.5,0.2l4,11.6l-2.7-0.2L698.9,719.5z M698.3,717.5l-1.4-4.4
		l-2.2,4.1L698.3,717.5z"/>
	<path class="st2" d="M712.2,714.5l-4.4,8.2l-2.6-0.2l-2.8-8.9l2.6,0.2l1.8,6l3-5.6L712.2,714.5z"/>
	<path class="st2" d="M722,712.1l-1.1,11.8l-2.4-0.2l0.1-1c-0.7,0.7-1.8,1-2.8,0.9c-0.8-0.1-1.5-0.3-2.1-0.7c-0.6-0.4-1.1-1-1.4-1.7
		c-0.6-1.5-0.5-3.3,0.4-4.7c0.4-0.6,1-1.1,1.7-1.4c0.7-0.3,1.5-0.4,2.2-0.3c1,0,1.9,0.5,2.5,1.3l0.4-4.2L722,712.1z M718.2,721.1
		c0.9-0.9,1-2.4,0.3-3.5c-0.8-0.9-2.2-1.1-3.1-0.3c-0.9,0.9-1,2.4-0.3,3.5C715.8,721.7,717.2,721.8,718.2,721.1L718.2,721.1z"/>
	<path class="st2" d="M730.5,716.9c0.7,0.8,1,1.9,0.8,3l-0.4,4.9l-2.3-0.2l0.1-1.1c-0.7,0.8-1.7,1.2-2.7,1c-0.6,0-1.2-0.2-1.7-0.5
		c-0.4-0.2-0.8-0.6-1-1c-0.2-0.4-0.3-0.9-0.3-1.4c0-0.7,0.4-1.4,1.1-1.8c0.9-0.4,1.9-0.6,2.8-0.4l2,0.2c0.1-0.5-0.1-0.9-0.4-1.3
		c-0.4-0.4-0.9-0.6-1.4-0.6c-0.5,0-0.9,0-1.4,0.1c-0.4,0.1-0.8,0.3-1.2,0.5l-0.7-1.8c0.5-0.3,1.1-0.5,1.8-0.6c0.7-0.1,1.4-0.2,2-0.1
		C728.6,715.7,729.7,716.2,730.5,716.9z M727.8,722.6c0.3-0.2,0.6-0.5,0.8-0.8l0.1-0.9l-1.7-0.2c-1-0.1-1.6,0.2-1.6,0.9
		c0,0.3,0.1,0.6,0.3,0.8c0.3,0.2,0.6,0.4,1,0.4C727.1,722.9,727.5,722.8,727.8,722.6z"/>
	<path class="st2" d="M747.9,721.5c0.3,0.5,0.5,1.2,0.4,1.8c0,0.9-0.5,1.7-1.3,2.2c-1.1,0.5-2.2,0.7-3.4,0.5l-5.8-0.5l1-11.2
		l5.5,0.5c1.1,0,2.2,0.4,3.1,1.1c0.7,0.5,1,1.4,0.9,2.2c-0.1,1-0.7,1.9-1.7,2.3C747.1,720.6,747.6,721,747.9,721.5z M745.1,723.8
		c0.4-0.2,0.6-0.6,0.6-1c0.1-0.9-0.6-1.4-1.9-1.6l-3-0.3l-0.2,2.8l3,0.3C744.1,724,744.6,724,745.1,723.8L745.1,723.8z M741.2,716.4
		L741,719l2.6,0.2c0.5,0.1,1,0,1.5-0.2c0.3-0.2,0.6-0.5,0.6-0.9c0.1-0.4-0.1-0.8-0.4-1c-0.4-0.3-0.9-0.4-1.4-0.5L741.2,716.4z"/>
	<path class="st2" d="M758.5,723.6l-6.5-0.6c0.1,0.5,0.3,1,0.7,1.3c0.5,0.4,1,0.6,1.6,0.6c0.4,0,0.8,0,1.2-0.1
		c0.4-0.1,0.7-0.3,1-0.5l1.2,1.6c-1,0.9-2.3,1.3-3.7,1.1c-0.9-0.1-1.8-0.3-2.5-0.8c-0.7-0.4-1.2-1-1.6-1.7c-0.3-0.7-0.5-1.5-0.4-2.3
		c0.1-0.8,0.3-1.6,0.8-2.2c0.5-0.6,1.1-1.1,1.8-1.4c1.5-0.6,3.2-0.5,4.6,0.4c0.6,0.4,1.1,1,1.5,1.7c0.3,0.8,0.5,1.6,0.4,2.4
		C758.6,723,758.6,723.2,758.5,723.6z M752.9,720.4c-0.4,0.3-0.7,0.7-0.8,1.2l4.2,0.4c0-0.5-0.2-1-0.6-1.4c-0.4-0.4-0.8-0.6-1.4-0.6
		C753.9,720,753.3,720.1,752.9,720.4L752.9,720.4z"/>
	<path class="st2" d="M768.3,720.3c0.6,0.8,0.9,1.9,0.7,2.9l-0.4,4.9l-2.5-0.2l0.4-4.5c0.1-0.5,0-1.1-0.3-1.6
		c-0.3-0.4-0.8-0.6-1.2-0.6c-0.6-0.1-1.1,0.1-1.6,0.4c-0.4,0.4-0.7,1-0.7,1.7l-0.4,4.2l-2.5-0.2l0.8-8.6l2.4,0.2l-0.1,1
		c0.4-0.3,0.8-0.6,1.3-0.7c0.5-0.2,1.1-0.2,1.6-0.1C766.8,719.2,767.7,719.6,768.3,720.3z"/>
	<path class="st2" d="M771.6,719.8l2.5,0.2l-0.8,8.6l-2.5-0.2L771.6,719.8z M771.9,718.2c-0.5-0.6-0.5-1.4,0.1-1.9c0,0,0,0,0.1-0.1
		c0.3-0.2,0.7-0.4,1.2-0.3c0.4,0,0.8,0.2,1.1,0.5c0.3,0.3,0.4,0.6,0.3,1c0,0.4-0.2,0.7-0.5,1c-0.3,0.2-0.7,0.4-1.2,0.3
		C772.6,718.7,772.2,718.5,771.9,718.2L771.9,718.2z"/>
	<path class="st2" d="M785.5,717.8l-1.1,11.8l-2.4-0.2l0.1-1c-0.7,0.7-1.8,1-2.8,0.9c-0.8-0.1-1.5-0.3-2.1-0.7
		c-0.6-0.4-1.1-1-1.4-1.7c-0.6-1.5-0.5-3.3,0.4-4.7c0.4-0.6,1-1.1,1.7-1.4c0.7-0.3,1.5-0.4,2.2-0.3c1,0,1.9,0.5,2.5,1.3l0.4-4.2
		L785.5,717.8z M781.6,726.8c0.9-0.9,1-2.4,0.3-3.5c-0.8-0.9-2.2-1.1-3.1-0.3c-0.9,0.9-1,2.4-0.3,3.5
		C779.2,727.4,780.6,727.5,781.6,726.8z"/>
	<path class="st2" d="M788.4,729.5c-0.7-0.4-1.2-1-1.5-1.7c-0.7-1.5-0.5-3.2,0.4-4.6c0.5-0.6,1.1-1.1,1.8-1.4
		c1.6-0.6,3.4-0.5,4.9,0.4c0.7,0.4,1.2,1,1.5,1.7c0.7,1.5,0.5,3.2-0.4,4.6c-0.5,0.6-1.1,1.1-1.8,1.4c-0.8,0.3-1.6,0.4-2.5,0.3
		C789.9,730.2,789.1,730,788.4,729.5z M792.6,727.7c0.9-0.9,1-2.4,0.3-3.5c-0.4-0.5-0.9-0.8-1.5-0.8c-0.6-0.1-1.2,0.1-1.6,0.5
		c-0.9,0.9-1,2.4-0.3,3.5c0.4,0.5,0.9,0.8,1.5,0.8C791.5,728.3,792.1,728.1,792.6,727.7L792.6,727.7z"/>
	<path class="st2" d="M801.5,722.7c0.6-0.2,1.2-0.2,1.8-0.2l-0.2,2.3c-0.3,0-0.5-0.1-0.6-0.1c-0.6-0.1-1.2,0.1-1.7,0.4
		c-0.5,0.5-0.8,1.1-0.8,1.7l-0.4,4l-2.5-0.2l0.8-8.6l2.4,0.2l-0.1,1.1C800.5,723.1,801,722.8,801.5,722.7z"/>
	<path class="st2" d="M818.2,724.8c0.6,0.8,0.9,1.9,0.7,2.9l-0.4,4.9l-2.5-0.2l0.4-4.5c0.1-0.5,0-1.1-0.3-1.6
		c-0.3-0.4-0.7-0.6-1.2-0.6c-0.5-0.1-1,0.1-1.4,0.4c-0.4,0.4-0.7,1-0.7,1.6l-0.4,4.3l-2.5-0.2l0.4-4.5c0.1-1.3-0.4-2.1-1.4-2.2
		c-0.5-0.1-1,0.1-1.4,0.4c-0.4,0.4-0.7,1-0.7,1.6l-0.4,4.3l-2.5-0.2l0.8-8.6l2.4,0.2l-0.1,1c0.4-0.3,0.8-0.6,1.2-0.7
		c0.5-0.2,1-0.2,1.5-0.1c0.6,0,1.1,0.2,1.6,0.5c0.5,0.3,0.8,0.7,1.1,1.1c0.4-0.4,0.9-0.7,1.4-0.9c0.6-0.2,1.2-0.3,1.8-0.2
		C816.7,723.7,817.6,724.1,818.2,724.8z"/>
	<path class="st2" d="M883.9,971.5c-0.9-0.5-1.6-1.2-2.2-2.1c-1-1.9-1-4.1,0-6c0.5-0.9,1.3-1.6,2.2-2c1-0.5,2-0.7,3.1-0.7
		c0.9,0,1.8,0.2,2.6,0.5c0.8,0.3,1.4,0.8,2,1.5l-1.7,1.5c-0.7-0.8-1.7-1.3-2.8-1.3c-0.6,0-1.3,0.1-1.9,0.4c-0.5,0.3-1,0.7-1.3,1.3
		c-0.6,1.2-0.6,2.5,0,3.7c0.3,0.5,0.7,1,1.3,1.3c0.6,0.3,1.2,0.5,1.9,0.5c1.1,0,2.1-0.5,2.8-1.3l1.7,1.5c-0.5,0.6-1.2,1.2-2,1.5
		c-0.8,0.3-1.7,0.5-2.6,0.5C885.9,972.2,884.8,972,883.9,971.5z"/>
	<path class="st2" d="M894.5,971.7c-0.7-0.4-1.3-0.9-1.7-1.6c-0.8-1.4-0.8-3.2,0-4.6c0.4-0.7,1-1.2,1.7-1.6c1.5-0.7,3.3-0.7,4.9,0
		c0.7,0.4,1.3,0.9,1.7,1.6c0.8,1.4,0.8,3.2,0,4.6c-0.4,0.7-1,1.2-1.7,1.6C897.8,972.4,896,972.4,894.5,971.7L894.5,971.7z
		 M898.5,969.6c0.8-1,0.8-2.5,0-3.5c-0.9-0.9-2.3-0.9-3.2,0c-0.8,1-0.8,2.5,0,3.5C896.3,970.4,897.7,970.4,898.5,969.6L898.5,969.6z
		"/>
	<path class="st2" d="M904.1,972c-0.6-0.1-1.1-0.4-1.6-0.7l0.8-1.8c0.4,0.3,0.9,0.5,1.4,0.6c0.5,0.2,1.1,0.2,1.6,0.2
		c1.1,0,1.6-0.2,1.6-0.8c0-0.3-0.2-0.5-0.4-0.5c-0.4-0.1-0.9-0.2-1.3-0.3c-0.6-0.1-1.2-0.2-1.7-0.4c-0.5-0.1-0.9-0.4-1.2-0.7
		c-0.4-0.4-0.5-1-0.5-1.5c0-0.5,0.2-1,0.5-1.4c0.4-0.4,0.8-0.8,1.4-1c0.7-0.2,1.4-0.4,2.1-0.3c0.6,0,1.2,0.1,1.8,0.2
		c0.5,0.1,1,0.3,1.5,0.6l-0.8,1.8c-0.8-0.4-1.6-0.7-2.5-0.7c-0.4,0-0.8,0-1.2,0.2c-0.2,0.1-0.4,0.3-0.4,0.6c0,0.3,0.2,0.5,0.4,0.6
		c0.4,0.1,0.9,0.3,1.4,0.3c0.6,0.1,1.2,0.2,1.7,0.4c0.4,0.1,0.8,0.4,1.2,0.7c0.3,0.4,0.5,0.9,0.5,1.5c0,0.5-0.2,1-0.5,1.4
		c-0.4,0.4-0.9,0.8-1.4,1c-0.7,0.2-1.4,0.3-2.2,0.3C905.5,972.3,904.8,972.2,904.1,972z"/>
	<path class="st2" d="M917.4,971.8c-0.3,0.2-0.6,0.3-0.9,0.4c-0.4,0.1-0.7,0.1-1.1,0.1c-0.9,0-1.7-0.2-2.4-0.8
		c-0.6-0.6-0.9-1.5-0.8-2.3l0-3.5l-1.3,0l0-1.9l1.3,0l0-2.1l2.5,0l0,2.1l2.1,0l0,1.9l-2.1,0l0,3.5c0,0.3,0.1,0.6,0.3,0.8
		c0.2,0.2,0.5,0.3,0.8,0.3c0.4,0,0.7-0.1,1-0.3L917.4,971.8z"/>
	<path class="st2" d="M925.4,964.5c0.8,0.8,1.1,1.8,1.1,2.9l0,4.9l-2.3,0l0-1.1c-0.6,0.9-1.6,1.3-2.6,1.2c-0.6,0-1.2-0.1-1.7-0.3
		c-0.5-0.2-0.8-0.5-1.1-0.9c-0.3-0.4-0.4-0.9-0.4-1.3c0-0.7,0.3-1.4,0.9-1.9c0.8-0.5,1.8-0.7,2.8-0.7l2,0c0-0.5-0.1-0.9-0.5-1.3
		c-0.4-0.3-1-0.5-1.5-0.5c-0.5,0-0.9,0.1-1.4,0.2c-0.4,0.1-0.8,0.3-1.1,0.6l-0.9-1.8c0.5-0.3,1.1-0.6,1.7-0.8c0.7-0.2,1.3-0.3,2-0.3
		C923.4,963.5,924.5,963.8,925.4,964.5z M923.2,970.5c0.3-0.2,0.6-0.5,0.7-0.9l0-0.9l-1.7,0c-1,0-1.5,0.3-1.5,1
		c0,0.3,0.1,0.6,0.4,0.8c0.3,0.2,0.7,0.3,1,0.3C922.5,970.8,922.9,970.7,923.2,970.5L923.2,970.5z"/>
	<path class="st2" d="M891.2,986.5c0.4,0.5,0.6,1.1,0.5,1.8c0,0.9-0.4,1.8-1.2,2.3c-1,0.6-2.2,0.9-3.3,0.8l-5.8,0l0.1-11.2l5.5,0
		c1.1-0.1,2.2,0.2,3.1,0.8c0.7,0.5,1.1,1.3,1.1,2.1c0,1-0.6,2-1.5,2.5C890.3,985.6,890.9,986,891.2,986.5z M888.6,989
		c0.4-0.2,0.6-0.6,0.5-1c0-0.9-0.7-1.4-2.1-1.4l-3,0l0,2.8l3,0C887.6,989.3,888.2,989.2,888.6,989L888.6,989z M884.1,982l0,2.6
		l2.6,0c0.5,0,1-0.1,1.5-0.3c0.3-0.2,0.5-0.6,0.5-1c0-0.4-0.2-0.8-0.5-1c-0.4-0.2-0.9-0.4-1.5-0.3L884.1,982z"/>
	<path class="st2" d="M893.6,979.4l2.5,0l-0.1,11.9l-2.5,0L893.6,979.4z"/>
	<path class="st2" d="M904.9,983.6c0.8,0.8,1.1,1.8,1.1,2.9l0,4.9l-2.3,0l0-1.1c-0.6,0.9-1.6,1.3-2.6,1.2c-0.6,0-1.2-0.1-1.7-0.3
		c-0.5-0.2-0.8-0.5-1.1-0.9c-0.3-0.4-0.4-0.9-0.4-1.3c0-0.7,0.3-1.4,0.9-1.9c0.8-0.5,1.8-0.7,2.8-0.7l2,0c0-0.5-0.1-0.9-0.5-1.3
		c-0.4-0.3-1-0.5-1.5-0.5c-0.5,0-0.9,0.1-1.4,0.2c-0.4,0.1-0.8,0.3-1.1,0.6l-0.9-1.8c0.5-0.3,1.1-0.6,1.7-0.8c0.7-0.2,1.3-0.3,2-0.3
		C903,982.5,904.1,982.9,904.9,983.6z M902.8,989.5c0.3-0.2,0.6-0.5,0.7-0.9l0-0.9l-1.7,0c-1,0-1.5,0.3-1.5,1c0,0.3,0.1,0.6,0.4,0.8
		c0.3,0.2,0.7,0.3,1,0.3C902,989.8,902.4,989.7,902.8,989.5L902.8,989.5z"/>
	<path class="st2" d="M916.1,983.7c0.7,0.8,1,1.8,1,2.9l0,4.9l-2.5,0l0-4.5c0-0.5-0.1-1.1-0.4-1.5c-0.3-0.4-0.8-0.5-1.3-0.5
		c-0.6,0-1.1,0.2-1.5,0.6c-0.4,0.5-0.6,1.1-0.6,1.7l0,4.3l-2.5,0l0.1-8.6l2.4,0l0,1c0.3-0.4,0.8-0.7,1.2-0.8
		c0.5-0.2,1.1-0.3,1.6-0.3C914.5,982.7,915.4,983,916.1,983.7z"/>
	<path class="st2" d="M921.1,991c-2.1-1.1-3-3.7-1.8-5.9c0.4-0.8,1.1-1.5,1.9-1.9c0.8-0.4,1.6-0.6,2.5-0.5c0.8,0,1.6,0.2,2.4,0.6
		c0.7,0.4,1.2,0.9,1.5,1.6l-1.9,1c-0.4-0.7-1.1-1.2-1.9-1.2c-0.6,0-1.2,0.2-1.6,0.6c-0.9,1-0.9,2.5,0,3.5c0.4,0.4,1,0.7,1.6,0.7
		c0.8,0,1.6-0.4,1.9-1.2l1.9,1.1c-0.3,0.7-0.8,1.2-1.5,1.6c-0.7,0.4-1.6,0.6-2.4,0.6C922.7,991.6,921.8,991.4,921.1,991z"/>
	<path class="st2" d="M935.4,983.8c0.8,0.8,1.1,1.8,1.1,2.9l0,4.9l-2.3,0l0-1.1c-0.6,0.9-1.6,1.3-2.6,1.2c-0.6,0-1.2-0.1-1.7-0.3
		c-0.5-0.2-0.8-0.5-1.1-0.9c-0.3-0.4-0.4-0.9-0.4-1.3c0-0.7,0.3-1.4,0.9-1.9c0.8-0.5,1.8-0.7,2.8-0.7l2,0c0-0.5-0.1-0.9-0.5-1.3
		c-0.4-0.3-1-0.5-1.5-0.5c-0.5,0-0.9,0.1-1.4,0.2c-0.4,0.1-0.8,0.3-1.1,0.6l-0.9-1.8c0.5-0.3,1.1-0.6,1.7-0.8c0.7-0.2,1.3-0.3,2-0.3
		C933.5,982.8,934.6,983.1,935.4,983.8z M933.3,989.7c0.3-0.2,0.6-0.5,0.7-0.9l0-0.9l-1.7,0c-1,0-1.5,0.3-1.5,1
		c0,0.3,0.1,0.6,0.4,0.8c0.3,0.2,0.7,0.3,1,0.3C932.5,990,932.9,989.9,933.3,989.7L933.3,989.7z"/>
	<path class="st2" d="M513.8,769.1l-5.2,0.7l-0.7,2.5l-2.6,0.3l3.5-11.7l2.5-0.3l6.4,10.5l-2.7,0.3L513.8,769.1z M512.7,767.2
		l-2.3-4l-1.2,4.5L512.7,767.2z"/>
	<path class="st2" d="M525.7,761.3l-2.5,9l-2.6,0.3l-4.7-8.1l2.6-0.3l3.1,5.5l1.7-6.1L525.7,761.3z"/>
	<path class="st2" d="M534.7,756.9l1.5,11.8l-2.4,0.3l-0.1-1c-0.6,0.8-1.5,1.4-2.5,1.5c-0.8,0.1-1.5,0-2.3-0.3
		c-0.7-0.3-1.3-0.7-1.7-1.3c-0.9-1.4-1.1-3.1-0.6-4.6c0.3-0.7,0.7-1.3,1.3-1.7c0.6-0.5,1.4-0.7,2.1-0.8c1-0.2,1.9,0.1,2.7,0.7
		l-0.5-4.1L534.7,756.9z M532.9,766.5c0.7-1.1,0.5-2.5-0.4-3.4c-1-0.7-2.4-0.6-3.1,0.4c-0.7,1.1-0.5,2.6,0.4,3.4
		C530.7,767.6,532.1,767.4,532.9,766.5L532.9,766.5z"/>
	<path class="st2" d="M544,759.8c0.9,0.7,1.4,1.6,1.4,2.7l0.6,4.9l-2.3,0.3l-0.1-1.1c-0.5,0.9-1.4,1.5-2.5,1.5
		c-0.6,0.1-1.2,0.1-1.7-0.1c-0.5-0.1-0.9-0.4-1.2-0.8c-0.3-0.4-0.5-0.8-0.6-1.3c-0.1-0.7,0.1-1.5,0.7-2c0.8-0.6,1.7-1,2.7-1l2-0.3
		c0-0.5-0.3-0.9-0.7-1.2c-0.5-0.3-1-0.4-1.5-0.2c-0.5,0.1-0.9,0.2-1.3,0.4c-0.4,0.2-0.7,0.4-1,0.7l-1.1-1.6c0.5-0.4,1-0.7,1.6-1
		c0.6-0.3,1.3-0.4,2-0.5C541.9,759,543.1,759.2,544,759.8z M542.7,766c0.3-0.2,0.5-0.6,0.6-1l-0.1-0.9l-1.7,0.2
		c-1,0.1-1.5,0.5-1.4,1.2c0,0.3,0.2,0.6,0.5,0.7c0.3,0.2,0.7,0.2,1.1,0.1C542,766.3,542.3,766.2,542.7,766z"/>
	<path class="st2" d="M555.2,765.7c-1-0.4-1.8-1-2.4-1.8c-1.3-1.7-1.6-4-0.8-5.9c0.4-0.9,1.1-1.7,1.9-2.3c0.9-0.6,1.9-1,3-1.1
		c0.9-0.1,1.8-0.1,2.7,0.2c0.8,0.2,1.5,0.6,2.1,1.2l-1.5,1.7c-0.8-0.7-1.9-1.1-3-0.9c-0.6,0.1-1.3,0.3-1.8,0.7
		c-0.5,0.4-0.9,0.9-1.1,1.4c-0.5,1.2-0.3,2.6,0.5,3.7c0.4,0.5,0.9,0.9,1.4,1.1c0.6,0.2,1.3,0.3,1.9,0.2c1.1-0.1,2.1-0.7,2.6-1.7
		l1.8,1.3c-0.4,0.7-1.1,1.3-1.8,1.7c-0.8,0.5-1.7,0.7-2.6,0.8C557.2,766.2,556.2,766,555.2,765.7z"/>
	<path class="st2" d="M565.7,764.4c-0.7-0.3-1.4-0.7-1.9-1.3c-1-1.3-1.2-3-0.6-4.5c0.3-0.7,0.8-1.3,1.5-1.8c1.4-0.9,3.2-1.2,4.8-0.6
		c0.7,0.3,1.4,0.7,1.9,1.3c1,1.3,1.2,3,0.6,4.5c-0.3,0.7-0.8,1.3-1.5,1.8c-0.7,0.5-1.5,0.8-2.3,0.9
		C567.4,764.8,566.5,764.7,565.7,764.4z M569.4,761.8c0.7-1.1,0.5-2.5-0.4-3.4c-0.5-0.4-1.1-0.5-1.6-0.4c-0.6,0.1-1.1,0.4-1.5,0.8
		c-0.7,1.1-0.5,2.5,0.4,3.4c0.5,0.4,1.1,0.5,1.7,0.4C568.5,762.6,569.1,762.3,569.4,761.8L569.4,761.8z"/>
	<path class="st2" d="M581.3,755c0.8,0.7,1.3,1.7,1.3,2.7l0.6,4.9l-2.5,0.3l-0.6-4.5c0-0.5-0.3-1.1-0.6-1.5
		c-0.4-0.3-0.9-0.4-1.3-0.3c-0.6,0-1.1,0.3-1.4,0.8c-0.3,0.5-0.5,1.2-0.3,1.8l0.5,4.2l-2.5,0.3l-1.1-8.5l2.4-0.3l0.1,1
		c0.3-0.4,0.7-0.7,1.1-1c0.5-0.3,1-0.4,1.6-0.5C579.5,754.2,580.5,754.5,581.3,755z"/>
	<path class="st2" d="M592.8,749.4l1.5,11.8l-2.4,0.3l-0.1-1c-0.6,0.8-1.5,1.4-2.5,1.5c-0.8,0.1-1.5,0-2.3-0.3
		c-0.7-0.3-1.3-0.7-1.7-1.3c-0.9-1.4-1.1-3.1-0.6-4.6c0.3-0.7,0.7-1.3,1.3-1.7c0.6-0.5,1.4-0.7,2.1-0.8c1-0.2,1.9,0.1,2.7,0.7
		l-0.5-4.1L592.8,749.4z M590.9,759.1c0.7-1.1,0.5-2.5-0.4-3.4c-1-0.7-2.4-0.6-3.1,0.4c-0.7,1.1-0.5,2.5,0.4,3.4
		c0.5,0.4,1.1,0.5,1.7,0.4C590,759.8,590.6,759.5,590.9,759.1z"/>
	<path class="st2" d="M598.2,760.3c-0.7-0.3-1.4-0.7-1.9-1.3c-1-1.3-1.2-3-0.6-4.5c0.3-0.7,0.8-1.3,1.5-1.8c0.7-0.5,1.5-0.8,2.3-0.9
		c0.8-0.1,1.7,0,2.5,0.3c0.7,0.3,1.4,0.7,1.9,1.3c1,1.3,1.2,3,0.6,4.5c-0.3,0.7-0.8,1.3-1.5,1.8
		C601.6,760.6,599.8,760.8,598.2,760.3L598.2,760.3z M601.9,757.7c0.7-1.1,0.5-2.5-0.4-3.4c-0.5-0.4-1.1-0.5-1.6-0.4
		c-0.6,0.1-1.1,0.4-1.5,0.8c-0.7,1.1-0.5,2.5,0.4,3.4c0.5,0.4,1.1,0.5,1.7,0.4C601,758.4,601.5,758.1,601.9,757.7L601.9,757.7z"/>
	<path class="st2" d="M619.5,750.1c0.8,0.7,1.3,1.7,1.3,2.7l0.6,4.9l-2.5,0.3l-0.6-4.5c0-0.5-0.2-1.1-0.6-1.5
		c-0.3-0.3-0.8-0.4-1.3-0.3c-0.5,0-1,0.3-1.3,0.7c-0.3,0.5-0.4,1.1-0.3,1.7l0.5,4.3l-2.5,0.3l-0.6-4.5c-0.2-1.3-0.8-1.9-1.9-1.8
		c-0.5,0-1,0.3-1.3,0.7c-0.3,0.5-0.4,1.1-0.3,1.7l0.5,4.3l-2.5,0.3l-1.1-8.5l2.4-0.3l0.1,1c0.3-0.4,0.6-0.7,1.1-1
		c0.5-0.3,1-0.4,1.5-0.5c0.6-0.1,1.1,0,1.7,0.1c0.5,0.2,1,0.5,1.3,0.9c0.3-0.5,0.7-0.9,1.2-1.2c0.5-0.3,1.1-0.5,1.7-0.6
		C617.7,749.4,618.7,749.6,619.5,750.1z"/>
	<path class="st2" d="M622.4,747.3c-0.6-0.4-0.7-1.3-0.3-1.9c0,0,0-0.1,0.1-0.1c0.3-0.3,0.7-0.5,1.1-0.5c0.4-0.1,0.8,0,1.2,0.2
		c0.3,0.2,0.5,0.5,0.6,0.9c0.1,0.4,0,0.8-0.3,1.1c-0.3,0.3-0.6,0.5-1.1,0.5C623.2,747.6,622.8,747.6,622.4,747.3z M622.5,748.9
		l2.5-0.3l1.1,8.5l-2.5,0.3L622.5,748.9z"/>
	<path class="st2" d="M635.2,748.1c0.8,0.7,1.3,1.7,1.3,2.7l0.6,4.9l-2.5,0.3l-0.6-4.5c0-0.5-0.3-1.1-0.6-1.5
		c-0.4-0.3-0.9-0.4-1.3-0.3c-0.6,0-1.1,0.3-1.4,0.8c-0.3,0.5-0.5,1.2-0.3,1.8l0.5,4.2l-2.5,0.3l-1.1-8.5l2.4-0.3l0.1,1
		c0.3-0.4,0.7-0.7,1.1-1c0.5-0.3,1-0.4,1.6-0.5C633.4,747.4,634.4,747.6,635.2,748.1z"/>
	<path class="st2" d="M644.9,746.9c0.9,0.7,1.4,1.6,1.4,2.7l0.6,4.9l-2.3,0.3l-0.1-1.1c-0.5,0.9-1.4,1.5-2.5,1.5
		c-0.6,0.1-1.2,0-1.7-0.1c-0.5-0.1-0.9-0.4-1.2-0.8c-0.3-0.4-0.5-0.8-0.6-1.3c-0.1-0.7,0.1-1.5,0.7-2c0.8-0.6,1.7-1,2.7-1l2-0.3
		c0-0.5-0.3-0.9-0.7-1.2c-0.5-0.3-1-0.4-1.5-0.2c-0.5,0.1-0.9,0.2-1.3,0.4c-0.4,0.2-0.7,0.4-1,0.7l-1.1-1.6c0.5-0.4,1-0.7,1.6-1
		c0.6-0.3,1.3-0.4,2-0.5C642.8,746.1,643.9,746.3,644.9,746.9z M643.5,753.1c0.3-0.2,0.5-0.6,0.6-1l-0.1-0.9l-1.7,0.2
		c-1,0.1-1.5,0.5-1.4,1.2c0,0.3,0.2,0.6,0.5,0.7c0.3,0.2,0.7,0.2,1.1,0.1C642.8,753.4,643.2,753.3,643.5,753.1z"/>
	<path class="st2" d="M407.7,614.8l-1.8,1.1l-4.5-7.4l9.6-5.8l4.3,7.3l-1.8,1.1l-3-5.1l-2.1,1.2l2.7,4.5l-1.7,1l-2.7-4.5l-2.2,1.3
		L407.7,614.8z"/>
	<path class="st2" d="M417.6,620.2c-0.3,1-1,1.8-1.9,2.3l-4.2,2.5l-1.3-2.1l3.9-2.3c0.5-0.2,0.9-0.7,1.1-1.2c0.1-0.5,0-1-0.2-1.4
		c-0.3-0.5-0.7-0.9-1.3-1c-0.6-0.1-1.3,0-1.8,0.4l-3.7,2.2l-1.3-2.1l7.4-4.4l1.2,2l-0.9,0.5c0.5,0.1,1,0.3,1.4,0.6
		c0.4,0.3,0.8,0.8,1.1,1.2C417.6,618.3,417.8,619.2,417.6,620.2z"/>
	<path class="st2" d="M421.6,625.7c0.5,0.4,0.9,0.8,1.2,1.3l-2,1.2c-0.1-0.3-0.2-0.4-0.3-0.5c-0.3-0.5-0.8-1-1.4-1.1
		c-0.6-0.1-1.3,0-1.9,0.4l-3.5,2.1l-1.3-2.1l7.4-4.4l1.2,2l-1,0.6C420.7,625.2,421.2,625.4,421.6,625.7z"/>
	<path class="st2" d="M423.5,628.4l1.3,2.1l-7.4,4.4l-1.3-2.1L423.5,628.4z M424.9,627.7c0.2-0.7,0.9-1.2,1.6-1c0,0,0.1,0,0.1,0
		c0.4,0.1,0.7,0.4,0.9,0.8c0.2,0.3,0.3,0.8,0.2,1.2c-0.1,0.4-0.3,0.7-0.6,0.9c-0.3,0.2-0.7,0.3-1.1,0.2c-0.4-0.1-0.7-0.4-0.9-0.8
		C424.9,628.5,424.8,628.1,424.9,627.7L424.9,627.7z"/>
	<path class="st2" d="M419.8,638.2c-0.1-0.8,0.1-1.6,0.5-2.3c0.8-1.4,2.3-2.3,3.9-2.3c0.8,0,1.6,0.2,2.2,0.7
		c0.7,0.5,1.3,1.1,1.8,1.8c0.4,0.7,0.7,1.5,0.7,2.3c0,0.8-0.2,1.5-0.6,2.1l-1.9-1.1c0.4-0.7,0.5-1.6,0-2.3c-0.3-0.5-0.8-0.9-1.4-1.1
		c-1.3-0.2-2.6,0.5-3,1.8c-0.1,0.6,0,1.2,0.3,1.7c0.4,0.7,1.2,1.1,2,1.1l0.1,2.2c-0.7,0.1-1.5-0.1-2.1-0.4c-0.7-0.4-1.3-1-1.7-1.7
		C420.1,639.8,419.9,639,419.8,638.2z"/>
	<path class="st2" d="M441,652.6l-12.1,1.6l-1.3-2.2l7.1-9.9l1.4,2.4l-5.1,7l8.6-1.1L441,652.6z"/>
	<path class="st2" d="M441.4,660c-0.3,1-1,1.9-1.9,2.4l-4.2,2.5l-1.2-2l0.9-0.6c-1-0.1-2-0.7-2.4-1.6c-0.3-0.5-0.5-1.1-0.6-1.6
		c-0.1-0.5,0-1,0.2-1.4c0.2-0.4,0.5-0.8,1-1c0.6-0.4,1.4-0.5,2.1-0.2c0.9,0.4,1.6,1.2,2,2l1,1.7c0.4-0.2,0.7-0.6,0.8-1.1
		c0.1-0.5-0.1-1.1-0.4-1.5c-0.2-0.4-0.5-0.7-0.9-1c-0.3-0.3-0.7-0.5-1.1-0.7l1-1.7c0.6,0.3,1.1,0.6,1.5,1.1c0.5,0.5,0.9,1,1.3,1.6
		C441.3,657.8,441.6,658.9,441.4,660z M435.3,661.3c0.3,0.2,0.7,0.2,1.1,0.2l0.8-0.5l-0.9-1.5c-0.5-0.9-1.1-1.1-1.7-0.8
		c-0.3,0.1-0.4,0.4-0.5,0.7c0,0.4,0.1,0.7,0.3,1C434.6,660.8,434.9,661.1,435.3,661.3L435.3,661.3z"/>
	<path class="st2" d="M446.7,660.8l1.3,2.1l-10.2,6.1l-1.3-2.1L446.7,660.8z"/>
	<path class="st2" d="M440.2,672.2c-0.1-0.8,0.1-1.6,0.5-2.3c0.8-1.4,2.3-2.3,3.9-2.3c0.8,0,1.6,0.2,2.2,0.6
		c1.4,0.9,2.4,2.5,2.5,4.2c0,0.8-0.1,1.6-0.5,2.3c-0.8,1.4-2.3,2.3-3.9,2.3c-0.8,0-1.5-0.2-2.2-0.6
		C441.2,675.5,440.3,673.9,440.2,672.2L440.2,672.2z M444.1,674.6c1.3,0.2,2.5-0.6,3-1.8c0.2-0.6,0.1-1.2-0.3-1.7
		c-0.3-0.5-0.8-0.9-1.4-1c-1.3-0.2-2.5,0.6-3,1.8c-0.2,0.6-0.1,1.2,0.3,1.7C443,674.1,443.5,674.4,444.1,674.6L444.1,674.6z"/>
	<path class="st2" d="M453.4,678.8c0.5,0.4,0.9,0.8,1.2,1.3l-2,1.2c-0.1-0.3-0.2-0.4-0.3-0.5c-0.3-0.5-0.8-1-1.4-1.1
		c-0.6-0.1-1.3,0-1.9,0.4l-3.5,2.1l-1.3-2.1l7.4-4.4l1.2,2l-1,0.6C452.5,678.3,453,678.5,453.4,678.8z"/>
	<path class="st2" d="M186.7,526.1c0.6-0.1,1.3,0.1,1.8,0.4c0.8,0.4,1.3,1.3,1.3,2.2c0,1.2-0.4,2.3-1.1,3.3l-3,4.9l-9.6-5.8l2.8-4.7
		c0.5-1,1.3-1.8,2.3-2.3c0.8-0.4,1.7-0.3,2.4,0.2c0.9,0.5,1.4,1.5,1.3,2.6C185.5,526.4,186.1,526.2,186.7,526.1z M179.2,529.9
		l2.3,1.4l1.3-2.2c0.3-0.4,0.5-0.9,0.5-1.4c0-0.4-0.2-0.8-0.6-0.9c-0.3-0.2-0.7-0.3-1.1-0.1c-0.4,0.3-0.8,0.6-1,1.1L179.2,529.9z
		 M187.5,529.6c0-0.4-0.2-0.8-0.6-1c-0.8-0.5-1.5-0.1-2.3,1l-1.6,2.6l2.4,1.4l1.6-2.6C187.3,530.7,187.5,530.1,187.5,529.6
		L187.5,529.6z"/>
	<path class="st2" d="M193.3,517.6l-3.4,5.6c0.5,0.2,1,0.2,1.5-0.1c0.5-0.2,1-0.6,1.2-1.2c0.2-0.3,0.4-0.7,0.4-1.1
		c0.1-0.4,0.1-0.8,0-1.2l1.9-0.4c0.4,1.3,0.1,2.7-0.7,3.8c-0.4,0.8-1.1,1.4-1.8,1.9c-0.7,0.4-1.4,0.7-2.2,0.7
		c-0.8,0-1.6-0.2-2.3-0.7c-0.7-0.4-1.3-1-1.6-1.7c-0.4-0.7-0.5-1.5-0.5-2.2c0.1-1.6,1-3.1,2.4-4c0.7-0.4,1.4-0.6,2.2-0.6
		c0.8,0,1.6,0.3,2.3,0.7C192.8,517.2,193,517.3,193.3,517.6z M187.9,521.1c0.1,0.5,0.4,1,0.8,1.3l2.2-3.6c-0.5-0.2-1-0.2-1.5-0.1
		c-0.5,0.2-0.9,0.5-1.1,0.9C188,520.1,187.8,520.6,187.9,521.1L187.9,521.1z"/>
	<path class="st2" d="M194.7,507.3c1-0.2,2.1,0,2.9,0.6l4.2,2.6l-1.3,2.1l-3.9-2.4c-0.4-0.3-1-0.5-1.5-0.4c-0.5,0.1-0.9,0.4-1.1,0.8
		c-0.3,0.5-0.4,1-0.3,1.6c0.2,0.6,0.6,1.1,1.2,1.4l3.6,2.2l-1.3,2.1l-7.4-4.5l1.2-2l0.9,0.5c-0.1-0.5-0.2-1-0.1-1.5
		c0.1-0.5,0.3-1.1,0.6-1.5C193,508.1,193.8,507.5,194.7,507.3z"/>
	<path class="st2" d="M194.4,503.1c-0.7,0.2-1.5-0.2-1.7-0.9c0,0,0-0.1,0-0.1c-0.1-0.4,0-0.8,0.2-1.2c0.2-0.4,0.5-0.6,0.9-0.8
		c0.3-0.1,0.7-0.1,1,0.1c0.3,0.2,0.6,0.5,0.7,0.9c0.1,0.4,0,0.8-0.2,1.2C195.1,502.7,194.8,503,194.4,503.1z M195.7,504.1l1.3-2.1
		l7.4,4.5l-1.3,2.1L195.7,504.1z"/>
	<path class="st2" d="M206,488.8c1-0.2,2.1,0.1,2.9,0.7l4.2,2.6l-1.3,2.1l-3.9-2.4c-0.4-0.3-1-0.5-1.5-0.4c-0.5,0.1-0.8,0.4-1.1,0.8
		c-0.3,0.4-0.4,1-0.2,1.5c0.2,0.6,0.6,1,1.2,1.3l3.7,2.2l-1.3,2.1l-3.9-2.4c-1.2-0.7-2-0.6-2.6,0.3c-0.3,0.4-0.4,1-0.2,1.5
		c0.2,0.6,0.6,1,1.2,1.3l3.7,2.2l-1.3,2.1l-7.4-4.5l1.2-2l0.8,0.5c-0.1-0.5-0.2-1-0.1-1.4c0.1-0.5,0.3-1,0.5-1.5
		c0.3-0.5,0.7-0.9,1.2-1.2c0.5-0.3,1-0.5,1.5-0.5c-0.2-0.5-0.3-1.1-0.2-1.7c0.1-0.6,0.3-1.2,0.6-1.7C204.3,489.6,205,489,206,488.8z
		"/>
	<path class="st2" d="M211,480.4c1-0.3,2.1,0,3,0.6l4.2,2.6l-1.2,2l-0.9-0.6c0.4,0.9,0.3,2-0.3,2.9c-0.3,0.5-0.7,1-1.2,1.3
		c-0.4,0.3-0.9,0.4-1.4,0.5c-0.5,0-0.9-0.1-1.3-0.4c-0.6-0.4-1.1-1-1.1-1.8c0-1,0.3-1.9,0.9-2.7l1-1.7c-0.4-0.3-0.9-0.4-1.3-0.2
		c-0.5,0.2-0.9,0.6-1.1,1c-0.2,0.4-0.4,0.8-0.5,1.3c-0.1,0.4-0.1,0.8-0.1,1.3l-2-0.1c0-0.6,0-1.2,0.2-1.8c0.2-0.7,0.5-1.3,0.8-1.9
		C209.1,481.6,210,480.8,211,480.4z M215,485.3c0-0.4-0.1-0.8-0.4-1.1l-0.8-0.5l-0.9,1.5c-0.5,0.9-0.5,1.5,0.1,1.8
		c0.3,0.2,0.6,0.2,0.8,0.1c0.3-0.2,0.6-0.4,0.8-0.7C214.9,486.1,215,485.7,215,485.3L215,485.3z"/>
	<path class="st2" d="M216.7,469.5l6.1,3.7c1.2,0.6,2,1.6,2.4,2.9c0.2,1.3-0.1,2.6-0.9,3.7c-0.4,0.7-0.9,1.3-1.5,1.9
		c-0.5,0.5-1.1,0.9-1.7,1.1l-1-1.8c0.5-0.2,0.9-0.5,1.3-0.8c0.4-0.4,0.8-0.8,1.1-1.3c0.4-0.6,0.6-1.3,0.5-1.9
		c-0.2-0.6-0.6-1.2-1.2-1.4l-0.3-0.2c0.3,1,0.1,2-0.5,2.9c-0.4,0.6-0.9,1.2-1.6,1.6c-0.6,0.4-1.3,0.6-2.1,0.6c-1.6,0-3-0.9-3.7-2.3
		c-0.3-0.6-0.5-1.4-0.4-2.1c0-0.8,0.3-1.5,0.7-2.1c0.5-1,1.5-1.6,2.5-1.8l-0.9-0.6L216.7,469.5z M219.8,475
		c-0.3-1.2-1.5-1.9-2.6-1.6c-0.6,0.2-1.1,0.6-1.3,1.1c-0.3,0.5-0.5,1.1-0.4,1.7c0.3,1.2,1.4,1.9,2.6,1.6c0,0,0,0,0,0
		c0.6-0.2,1.1-0.6,1.3-1.1C219.8,476.2,220,475.6,219.8,475L219.8,475z"/>
	<path class="st2" d="M219.9,464.6c0.1-0.6,0.3-1.2,0.6-1.7l2,1.2c-0.2,0.2-0.3,0.4-0.3,0.5c-0.4,0.5-0.5,1.1-0.4,1.7
		c0.2,0.6,0.6,1.2,1.2,1.5l3.5,2.1l-1.3,2.1l-7.4-4.5l1.2-2l1,0.6C219.9,465.6,219.9,465.1,219.9,464.6z"/>
	<path class="st2" d="M230.1,457.2l-3.4,5.6c0.5,0.2,1,0.2,1.5-0.1c0.5-0.2,1-0.6,1.2-1.2c0.2-0.3,0.4-0.7,0.4-1.1
		c0.1-0.4,0.1-0.8,0-1.2l1.9-0.4c0.4,1.3,0.1,2.7-0.7,3.8c-0.4,0.8-1.1,1.4-1.8,1.9c-0.7,0.4-1.4,0.7-2.2,0.7
		c-0.8,0-1.6-0.2-2.3-0.7c-0.7-0.4-1.3-1-1.6-1.7c-0.4-0.7-0.5-1.5-0.5-2.2c0.1-1.6,1-3.1,2.4-4c0.7-0.4,1.4-0.6,2.2-0.6
		c0.8,0,1.6,0.3,2.3,0.7C229.5,456.8,229.7,457,230.1,457.2z M224.7,460.7c0.1,0.5,0.4,1,0.8,1.3l2.2-3.6c-0.5-0.2-1-0.2-1.5-0.1
		c-0.5,0.2-0.9,0.5-1.1,0.9C224.7,459.7,224.6,460.2,224.7,460.7L224.7,460.7z"/>
	<path class="st2" d="M223.9,451.4l1.3-2.1l10.1,6.2l-1.3,2.1L223.9,451.4z"/>
	<path class="st2" d="M226.4,447.3l1.3-2.1l10.1,6.2l-1.3,2.1L226.4,447.3z"/>
	<path class="st2" d="M408.4,191.5c1,1.2,1,2.9,0.2,4.2c-0.4,0.7-0.9,1.2-1.6,1.6c-0.7,0.3-1.4,0.5-2.2,0.4
		c-0.9-0.1-1.7-0.4-2.5-0.9l-2-1.1l-1.5,2.7l-2.3-1.3l5.5-9.7l4.2,2.4C407.2,190.2,407.9,190.8,408.4,191.5z M405.1,195.4
		c0.5-0.1,1-0.5,1.2-0.9c0.3-0.5,0.4-1,0.2-1.6c-0.3-0.6-0.7-1-1.3-1.3l-1.8-1l-1.9,3.4l1.8,1C403.9,195.3,404.5,195.5,405.1,195.4z
		"/>
	<path class="st2" d="M410.8,195.3l2.2,1.2l-4.3,7.5l-2.2-1.2L410.8,195.3z M411.7,194c-0.2-0.7,0.2-1.5,0.9-1.7c0,0,0.1,0,0.1,0
		c0.4-0.1,0.8,0,1.2,0.2c0.4,0.2,0.6,0.5,0.8,0.9c0.1,0.3,0.1,0.7-0.1,1c-0.2,0.3-0.5,0.6-0.9,0.7c-0.4,0.1-0.8,0-1.2-0.2
		C412.1,194.7,411.9,194.4,411.7,194L411.7,194z"/>
	<path class="st2" d="M421.4,202.3c0.2,1,0,2.1-0.6,3l-2.4,4.3l-2.2-1.2l2.2-3.9c0.3-0.5,0.4-1,0.4-1.6c-0.1-0.5-0.4-0.9-0.9-1.1
		c-0.5-0.3-1.1-0.4-1.6-0.2c-0.6,0.2-1.1,0.7-1.3,1.2l-2.1,3.7l-2.2-1.2l4.3-7.5l2.1,1.2l-0.5,0.9c0.5-0.2,1-0.2,1.5-0.1
		c0.5,0.1,1.1,0.3,1.6,0.5C420.5,200.6,421.1,201.4,421.4,202.3z"/>
	<path class="st2" d="M425.4,213c-0.3,0-0.7,0-1-0.1c-0.4-0.1-0.7-0.3-1-0.4c-0.8-0.4-1.4-1-1.7-1.9c-0.2-0.8-0.1-1.7,0.4-2.4
		l1.7-3.1l-1.2-0.7l0.9-1.7l1.2,0.7l1-1.8l2.2,1.2l-1,1.8l1.9,1.1l-0.9,1.7l-1.9-1.1l-1.7,3c-0.2,0.3-0.2,0.6-0.2,0.9
		c0.1,0.3,0.3,0.5,0.5,0.6c0.3,0.2,0.7,0.3,1,0.2L425.4,213z"/>
	<path class="st2" d="M427.8,214.4c-0.4-0.7-0.7-1.4-0.7-2.2c0-1.6,0.9-3.1,2.3-4c0.7-0.4,1.5-0.6,2.2-0.5c0.8,0,1.7,0.3,2.4,0.7
		c0.7,0.4,1.4,1,1.8,1.7c0.4,0.7,0.7,1.4,0.7,2.2c0,1.6-0.9,3.1-2.3,4c-0.7,0.4-1.5,0.6-2.2,0.5
		C430.4,216.7,428.8,215.8,427.8,214.4L427.8,214.4z M432.4,214.5c1.2-0.5,1.9-1.7,1.7-3c-0.1-0.6-0.5-1.1-1-1.3
		c-0.5-0.3-1.1-0.4-1.7-0.2c-1.2,0.5-1.9,1.7-1.7,3c0.1,0.6,0.5,1.1,1.1,1.3C431.2,214.6,431.8,214.7,432.4,214.5L432.4,214.5z"/>
	<path class="st2" d="M442.6,213.6c0.6,0.1,1.2,0.3,1.7,0.6l-1.1,2c-0.2-0.2-0.4-0.3-0.5-0.3c-0.5-0.3-1.2-0.4-1.8-0.3
		c-0.6,0.2-1.1,0.7-1.4,1.3l-2,3.5l-2.2-1.2l4.3-7.5l2.1,1.2l-0.6,1C441.5,213.6,442.1,213.5,442.6,213.6z"/>
	<path class="st2" d="M457.1,219.2c0.9,1.2,1,2.9,0.2,4.2c-0.4,0.7-0.9,1.2-1.6,1.6c-0.7,0.3-1.4,0.5-2.2,0.4
		c-0.9-0.1-1.7-0.4-2.5-0.9l-2-1.1l-1.5,2.7l-2.3-1.3l5.5-9.7l4.2,2.4C455.9,217.9,456.6,218.5,457.1,219.2z M453.8,223.1
		c0.5-0.1,1-0.5,1.2-0.9c0.3-0.5,0.4-1,0.2-1.6c-0.3-0.6-0.7-1-1.3-1.3l-1.8-1l-1.9,3.4l1.8,1C452.6,223,453.2,223.2,453.8,223.1
		L453.8,223.1z"/>
	<path class="st2" d="M464.3,231.5l-5.7-3.2c-0.2,0.5-0.1,1,0.1,1.5c0.3,0.5,0.7,0.9,1.2,1.2c0.3,0.2,0.7,0.3,1.1,0.4
		c0.4,0.1,0.8,0,1.2-0.1l0.4,1.9c-1.3,0.4-2.7,0.2-3.8-0.5c-0.8-0.4-1.5-1-2-1.8c-0.4-0.7-0.7-1.4-0.7-2.2c0-0.8,0.2-1.6,0.6-2.3
		c0.4-0.7,1-1.3,1.6-1.7c0.7-0.4,1.4-0.6,2.2-0.6c1.6,0.1,3.1,0.9,4,2.3c0.4,0.6,0.6,1.4,0.6,2.1c0,0.8-0.2,1.6-0.7,2.3
		C464.7,231,464.5,231.1,464.3,231.5z M460.6,226.2c-0.5,0.1-1,0.4-1.3,0.8l3.7,2.1c0.2-0.5,0.2-1,0-1.5c-0.2-0.5-0.5-0.9-1-1.1
		C461.6,226.2,461.1,226.1,460.6,226.2z M465.2,222.3l2.3,1.3l-3.7,0.6l-1.7-1L465.2,222.3z"/>
	<path class="st2" d="M471.3,229.9c0.6,0.1,1.2,0.3,1.7,0.6l-1.1,2c-0.2-0.2-0.4-0.3-0.5-0.3c-0.5-0.3-1.2-0.4-1.8-0.3
		c-0.6,0.2-1.1,0.7-1.4,1.3l-2,3.5l-2.2-1.2l4.3-7.5l2.1,1.2l-0.6,1C470.3,229.9,470.8,229.9,471.3,229.9z"/>
	<path class="st2" d="M479,239.8l-5.7-3.2c-0.2,0.5-0.1,1,0.1,1.5c0.3,0.5,0.7,0.9,1.2,1.2c0.4,0.2,0.7,0.3,1.1,0.4
		c0.4,0.1,0.8,0,1.2-0.1l0.4,1.9c-1.3,0.4-2.7,0.2-3.8-0.5c-0.8-0.4-1.5-1-2-1.8c-0.4-0.7-0.7-1.4-0.7-2.2c0-0.8,0.2-1.6,0.6-2.3
		c0.4-0.7,1-1.3,1.6-1.7c0.7-0.4,1.4-0.6,2.2-0.6c0.8,0,1.6,0.3,2.3,0.7c0.7,0.4,1.3,0.9,1.7,1.6c0.4,0.6,0.6,1.4,0.6,2.1
		c0,0.8-0.2,1.6-0.7,2.3C479.3,239.3,479.2,239.5,479,239.8z M475.3,234.5c-0.5,0.1-1,0.4-1.3,0.8l3.7,2.1c0.2-0.5,0.2-1,0-1.5
		c-0.2-0.5-0.5-0.9-1-1.1C476.3,234.5,475.8,234.4,475.3,234.5z"/>
	<path class="st2" d="M485.7,245.6l-0.9,1.7l-6.7-3.8l0.7-1.3l6.4-2.3l-3.7-2.1l0.9-1.7l6.5,3.7l-0.7,1.3l-6.4,2.3L485.7,245.6z"/>
	<path class="st2" d="M499.7,249.1l2.1,1.2l-2.2,3.9c-0.8,0.1-1.6,0.1-2.4-0.1c-0.8-0.2-1.6-0.5-2.3-0.9c-1-0.5-1.8-1.3-2.4-2.2
		c-0.6-0.9-0.9-1.9-0.9-2.9c0-2.1,1.1-4.1,3-5.2c0.9-0.5,1.9-0.7,2.9-0.7c1.1,0,2.2,0.4,3.1,0.9c0.8,0.4,1.5,1,2.1,1.8
		c0.5,0.7,0.9,1.4,1,2.2l-2.2,0.5c-0.2-1.1-0.9-2-1.9-2.5c-0.6-0.3-1.2-0.5-1.9-0.6c-0.6,0-1.2,0.1-1.8,0.5
		c-1.1,0.7-1.8,1.9-1.8,3.2c0,0.6,0.2,1.2,0.5,1.7c0.3,0.6,0.8,1,1.4,1.3c0.6,0.4,1.3,0.6,2,0.6L499.7,249.1z"/>
	<path class="st2" d="M505.1,248.9l2.2,1.2l-4.3,7.5l-2.2-1.2L505.1,248.9z M506,247.6c-0.2-0.7,0.2-1.5,0.9-1.7c0,0,0.1,0,0.1,0
		c0.4-0.1,0.8,0,1.2,0.2c0.4,0.2,0.6,0.5,0.8,0.9c0.1,0.3,0.1,0.7-0.1,1c-0.2,0.3-0.5,0.6-0.9,0.7c-0.4,0.1-0.8,0-1.2-0.2
		C506.4,248.3,506.1,248,506,247.6L506,247.6z"/>
	<path class="st2" d="M510.9,248.4l2.2,1.2l-5.9,10.3l-2.2-1.2L510.9,248.4z"/>
	<path class="st2" d="M595,629.9c0.5,0.4,0.9,0.9,1,1.5c0.3,0.9,0.1,1.8-0.4,2.5c-0.8,0.9-1.8,1.5-3,1.7l-5.5,1.7l-3.3-10.7l5.2-1.6
		c1-0.4,2.2-0.5,3.2-0.2c0.8,0.2,1.4,0.9,1.7,1.7c0.3,1,0.1,2.1-0.7,2.8C593.9,629.4,594.5,629.6,595,629.9z M586.9,627.8l0.8,2.5
		l2.5-0.8c0.5-0.1,0.9-0.4,1.3-0.8c0.2-0.3,0.3-0.7,0.2-1.1c-0.1-0.4-0.4-0.7-0.8-0.8c-0.5-0.1-1-0.1-1.5,0.1L586.9,627.8z
		 M593.3,633.1c0.3-0.3,0.3-0.8,0.2-1.1c-0.3-0.9-1.1-1.1-2.4-0.7l-2.9,0.9l0.8,2.6l2.9-0.9C592.4,633.8,592.9,633.5,593.3,633.1
		L593.3,633.1z"/>
	<path class="st2" d="M599.6,624.7c0.5-0.4,1-0.7,1.6-0.8l0.7,2.2c-0.3,0.1-0.5,0.1-0.5,0.1c-0.6,0.1-1.1,0.5-1.4,1.1
		c-0.3,0.6-0.3,1.3,0,1.9l1.2,3.9l-2.4,0.7l-2.5-8.2l2.3-0.7l0.3,1.1C598.9,625.5,599.2,625.1,599.6,624.7z"/>
	<path class="st2" d="M602.3,622c-0.7-0.3-1-1.1-0.6-1.8c0,0,0-0.1,0-0.1c0.2-0.4,0.6-0.6,1-0.7c0.4-0.1,0.8-0.1,1.2,0
		c0.3,0.1,0.6,0.4,0.7,0.8c0.1,0.4,0.1,0.8-0.1,1.1c-0.2,0.4-0.5,0.6-0.9,0.7C603.1,622.2,602.7,622.2,602.3,622z M602.6,623.6
		l2.4-0.7l2.5,8.2l-2.4,0.7L602.6,623.6z"/>
	<path class="st2" d="M615,628.4c-0.2,0.3-0.5,0.5-0.7,0.7c-0.3,0.2-0.7,0.4-1,0.5c-0.8,0.3-1.7,0.3-2.5,0c-0.7-0.4-1.3-1.1-1.5-2
		l-1-3.4l-1.3,0.4l-0.6-1.8l1.3-0.4l-0.6-2l2.4-0.7l0.6,2l2-0.6l0.6,1.8l-2,0.6l1,3.3c0.1,0.3,0.3,0.6,0.5,0.7
		c0.3,0.1,0.6,0.2,0.8,0c0.3-0.1,0.7-0.3,0.9-0.6L615,628.4z"/>
	<path class="st2" d="M620.4,619c1,0.5,1.6,1.4,1.9,2.4l1.5,4.7l-2.2,0.7l-0.3-1c-0.3,1-1.1,1.7-2.2,1.9c-0.6,0.2-1.2,0.3-1.7,0.2
		c-0.5-0.1-1-0.2-1.3-0.6c-0.4-0.3-0.6-0.7-0.8-1.2c-0.2-0.7-0.1-1.5,0.3-2.1c0.6-0.7,1.5-1.3,2.5-1.5l1.9-0.6
		c-0.1-0.5-0.4-0.8-0.8-1.1c-0.5-0.2-1.1-0.2-1.6,0c-0.4,0.1-0.9,0.3-1.2,0.6c-0.4,0.2-0.7,0.5-0.9,0.9l-1.4-1.4
		c0.4-0.5,0.9-0.9,1.4-1.2c0.6-0.4,1.2-0.7,1.9-0.9C618.2,618.6,619.4,618.6,620.4,619z M620.1,625.3c0.3-0.3,0.4-0.7,0.4-1
		l-0.3-0.8l-1.6,0.5c-1,0.3-1.4,0.8-1.2,1.4c0.1,0.3,0.3,0.5,0.6,0.6c0.4,0.1,0.7,0.1,1.1,0C619.5,625.8,619.8,625.6,620.1,625.3
		L620.1,625.3z"/>
	<path class="st2" d="M631,615.7c0.9,0.5,1.5,1.4,1.8,2.4l1.5,4.7l-2.4,0.7l-1.3-4.3c-0.1-0.5-0.4-1-0.9-1.3
		c-0.4-0.2-0.9-0.3-1.4-0.1c-0.5,0.1-1,0.5-1.3,1c-0.2,0.6-0.3,1.2,0,1.8l1.3,4.1l-2.4,0.7l-2.5-8.2l2.3-0.7l0.3,1
		c0.2-0.5,0.5-0.9,0.9-1.2c0.4-0.3,0.9-0.6,1.5-0.8C629.2,615.2,630.2,615.3,631,615.7z"/>
	<path class="st2" d="M633.5,612.4c-0.7-0.3-1-1.1-0.6-1.8c0,0,0-0.1,0-0.1c0.2-0.4,0.6-0.6,1-0.7c0.4-0.1,0.8-0.1,1.2,0
		c0.3,0.1,0.6,0.4,0.7,0.8c0.1,0.4,0.1,0.8-0.1,1.1c-0.2,0.4-0.5,0.6-0.9,0.7C634.3,612.6,633.9,612.5,633.5,612.4z M633.9,613.9
		l2.4-0.7l2.5,8.2l-2.4,0.7L633.9,613.9z"/>
	<path class="st2" d="M645,611.4c1,0.5,1.6,1.4,1.9,2.4l1.5,4.7l-2.2,0.7l-0.3-1c-0.3,1-1.1,1.7-2.2,1.9c-0.6,0.2-1.2,0.3-1.7,0.2
		c-0.5-0.1-1-0.2-1.3-0.6c-0.4-0.3-0.6-0.7-0.8-1.2c-0.2-0.7-0.1-1.5,0.3-2.1c0.6-0.7,1.5-1.3,2.5-1.5l1.9-0.6
		c-0.1-0.5-0.4-0.8-0.8-1.1c-0.5-0.2-1.1-0.2-1.6,0c-0.4,0.1-0.9,0.3-1.2,0.6c-0.4,0.2-0.7,0.5-0.9,0.9l-1.4-1.4
		c0.4-0.5,0.9-0.9,1.4-1.2c0.6-0.4,1.2-0.7,1.9-0.9C642.8,611,643.9,611,645,611.4z M644.7,617.7c0.3-0.3,0.4-0.7,0.4-1l-0.3-0.8
		l-1.6,0.5c-1,0.3-1.4,0.8-1.2,1.4c0.1,0.3,0.3,0.5,0.6,0.6c0.4,0.1,0.7,0.1,1.1,0C644.1,618.2,644.4,618,644.7,617.7L644.7,617.7z"
		/>
	<path class="st2" d="M658.9,411.9l-0.4,5.2l2.3,1.2l-0.2,2.6l-10.8-5.8l0.2-2.6l11.5-4.2l-0.2,2.7L658.9,411.9z M656.8,412.6
		l-4.4,1.5l4.1,2.1L656.8,412.6z"/>
	<path class="st2" d="M653.6,398.7l8.3,4.2l-0.2,2.6l-8.8,3l0.2-2.6l6-2l-5.7-2.9L653.6,398.7z"/>
	<path class="st2" d="M651,388.9l11.8,0.9l-0.2,2.4l-1-0.1c0.7,0.7,1.1,1.7,0.9,2.8c0,0.8-0.3,1.5-0.7,2.2c-0.4,0.6-1,1.1-1.7,1.4
		c-1.5,0.6-3.2,0.5-4.7-0.3c-0.6-0.4-1.1-1-1.4-1.7c-0.3-0.7-0.4-1.5-0.4-2.2c0-1,0.5-1.9,1.2-2.5l-4.2-0.3L651,388.9z M660.1,392.7
		c-0.9-0.9-2.4-1-3.5-0.3c-0.9,0.8-1,2.2-0.2,3.1c0.9,0.9,2.4,1,3.5,0.3C660.8,395,660.9,393.6,660.1,392.7z"/>
	<path class="st2" d="M655.7,380.4c0.8-0.7,1.9-1,2.9-0.9l4.9,0.4l-0.2,2.3l-1.1-0.1c0.8,0.6,1.2,1.7,1,2.7c0,0.6-0.2,1.2-0.5,1.7
		c-0.2,0.4-0.6,0.8-1,1c-0.4,0.2-0.9,0.3-1.4,0.3c-0.7,0-1.4-0.4-1.8-1c-0.5-0.9-0.6-1.9-0.5-2.8l0.1-2c-0.5-0.1-0.9,0.1-1.3,0.4
		c-0.4,0.4-0.5,0.9-0.5,1.5c0,0.5,0,0.9,0.1,1.4c0.1,0.4,0.3,0.8,0.5,1.2l-1.8,0.8c-0.3-0.5-0.5-1.1-0.6-1.7c-0.1-0.7-0.2-1.4-0.1-2
		C654.6,382.3,655,381.2,655.7,380.4z M661.5,383c-0.2-0.3-0.5-0.6-0.8-0.8l-0.9-0.1l-0.1,1.7c-0.1,1,0.2,1.6,0.9,1.6
		c0.3,0,0.6-0.1,0.8-0.3c0.2-0.3,0.3-0.6,0.4-1C661.8,383.7,661.7,383.3,661.5,383L661.5,383z"/>
	<path class="st2" d="M652.9,363.5l11.8,0.9l-0.2,2.4l-1-0.1c0.7,0.7,1.1,1.7,0.9,2.8c0,0.8-0.3,1.5-0.7,2.2c-0.4,0.6-1,1.1-1.7,1.4
		c-1.5,0.6-3.2,0.5-4.7-0.3c-0.6-0.4-1.1-1-1.4-1.7c-0.3-0.7-0.5-1.5-0.4-2.2c0-1,0.5-1.9,1.2-2.5l-4.2-0.3L652.9,363.5z
		 M661.9,367.3c-0.9-0.9-2.4-1-3.5-0.3c-0.9,0.8-1,2.2-0.2,3.1c0.9,0.9,2.4,1,3.5,0.3C662.6,369.6,662.7,368.2,661.9,367.3z"/>
	<path class="st2" d="M661.9,353.5l-0.5,6.5c0.5-0.1,1-0.3,1.3-0.7c0.4-0.5,0.6-1,0.6-1.6c0-0.4,0-0.8-0.1-1.2
		c-0.1-0.4-0.3-0.7-0.6-1l1.5-1.2c0.9,1,1.3,2.3,1.1,3.6c0,0.9-0.3,1.8-0.8,2.5c-0.4,0.7-1,1.2-1.7,1.6c-0.7,0.4-1.5,0.5-2.3,0.4
		c-0.8,0-1.6-0.3-2.2-0.8c-0.6-0.4-1.1-1-1.5-1.8c-0.6-1.5-0.5-3.2,0.3-4.6c0.4-0.6,1-1.2,1.7-1.5c0.7-0.3,1.6-0.5,2.4-0.4
		C661.2,353.4,661.5,353.4,661.9,353.5z M658.7,359.1c0.3,0.4,0.8,0.7,1.3,0.8l0.3-4.2c-0.5,0-1,0.2-1.4,0.6
		c-0.4,0.4-0.6,0.9-0.6,1.4C658.3,358.2,658.4,358.7,658.7,359.1L658.7,359.1z"/>
	<path class="st2" d="M654.1,346.7l0.2-2.5l11.8,0.9l-0.2,2.5L654.1,346.7z"/>
	<path class="st2" d="M659,335.6c0.8-0.7,1.9-1,2.9-0.9l4.9,0.4l-0.2,2.3l-1.1-0.1c0.8,0.6,1.2,1.7,1,2.7c0,0.6-0.2,1.2-0.5,1.7
		c-0.2,0.4-0.6,0.8-1,1c-0.4,0.2-0.9,0.3-1.4,0.3c-0.7,0-1.4-0.4-1.8-1c-0.5-0.9-0.6-1.9-0.5-2.8l0.1-2c-0.5-0.1-0.9,0.1-1.3,0.4
		c-0.4,0.4-0.5,0.9-0.5,1.5c0,0.5,0,0.9,0.1,1.4c0.1,0.4,0.3,0.8,0.5,1.2l-1.8,0.8c-0.3-0.5-0.5-1.1-0.6-1.7c-0.1-0.7-0.2-1.4-0.1-2
		C657.8,337.5,658.2,336.4,659,335.6z M664.7,338.2c-0.2-0.3-0.5-0.6-0.8-0.8l-0.9-0.1l-0.1,1.7c-0.1,1,0.2,1.6,0.9,1.6
		c0.3,0,0.6-0.1,0.8-0.3c0.2-0.3,0.3-0.6,0.4-1C665,338.9,664.9,338.5,664.7,338.2L664.7,338.2z"/>
	<path class="st2" d="M666.9,332c-0.2,0.6-0.4,1.1-0.8,1.6l-1.7-1c0.3-0.4,0.5-0.9,0.7-1.3c0.2-0.5,0.3-1,0.3-1.6
		c0.1-1.1-0.1-1.6-0.7-1.6c-0.3,0-0.5,0.1-0.6,0.4c-0.2,0.4-0.3,0.9-0.4,1.3c-0.1,0.6-0.3,1.2-0.5,1.7c-0.2,0.4-0.5,0.8-0.8,1.1
		c-0.4,0.3-1,0.5-1.5,0.4c-0.5,0-1-0.2-1.4-0.6c-0.4-0.4-0.7-0.9-0.9-1.4c-0.2-0.7-0.3-1.4-0.2-2.2c0-0.6,0.2-1.2,0.3-1.8
		c0.1-0.5,0.4-1,0.7-1.5l1.7,1c-0.5,0.7-0.8,1.6-0.8,2.4c-0.1,0.4,0,0.8,0.1,1.2c0.1,0.2,0.3,0.4,0.5,0.4c0.3,0,0.5-0.1,0.6-0.4
		c0.2-0.4,0.3-0.9,0.4-1.4c0.1-0.6,0.3-1.1,0.5-1.7c0.2-0.4,0.4-0.8,0.8-1.1c0.4-0.3,1-0.5,1.5-0.4c0.5,0,1,0.2,1.4,0.6
		c0.4,0.4,0.7,0.9,0.9,1.5c0.2,0.7,0.3,1.5,0.2,2.2C667.3,330.7,667.1,331.4,666.9,332z"/>
	<path class="st2" d="M657.5,308.6l11.2,0.8l-0.2,2.1l-7.2,5.1l6.8,0.5l-0.2,2.6l-11.2-0.8l0.2-2.1l7.2-5.1l-6.8-0.5L657.5,308.6z"
		/>
	<path class="st2" d="M661.5,299.9c0.8-0.7,1.9-1,2.9-0.9l4.9,0.4l-0.2,2.3l-1.1-0.1c0.8,0.6,1.2,1.7,1,2.7c0,0.6-0.2,1.2-0.5,1.7
		c-0.2,0.4-0.6,0.8-1,1c-0.4,0.2-0.9,0.3-1.4,0.3c-0.7,0-1.4-0.4-1.8-1c-0.5-0.9-0.6-1.9-0.5-2.8l0.1-2c-0.5-0.1-0.9,0.1-1.3,0.4
		c-0.4,0.4-0.5,0.9-0.5,1.5c0,0.5,0,0.9,0.1,1.4c0.1,0.4,0.3,0.8,0.5,1.2l-1.8,0.8c-0.3-0.5-0.5-1.1-0.6-1.7c-0.1-0.7-0.2-1.4-0.1-2
		C660.4,301.8,660.8,300.7,661.5,299.9z M667.3,302.4c-0.2-0.3-0.5-0.6-0.8-0.8l-0.9-0.1l-0.1,1.7c-0.1,1,0.2,1.6,0.9,1.6
		c0.3,0,0.6-0.1,0.8-0.3c0.2-0.3,0.3-0.6,0.4-1C667.6,303.2,667.5,302.8,667.3,302.4L667.3,302.4z"/>
	<path class="st2" d="M669.2,295.3c-0.4,0.7-1,1.2-1.7,1.6c-1.5,0.7-3.2,0.6-4.6-0.3c-0.6-0.5-1.1-1.1-1.4-1.8
		c-0.3-0.8-0.5-1.7-0.4-2.5c0-0.8,0.3-1.6,0.7-2.3c0.4-0.6,1-1.1,1.7-1.4l0.9,2c-0.8,0.3-1.3,1-1.3,1.8c-0.1,0.6,0.1,1.2,0.5,1.7
		c0.9,0.9,2.4,1,3.5,0.3c0.5-0.4,0.7-1,0.8-1.6c0.1-0.8-0.3-1.6-1-2l1.2-1.9c0.7,0.4,1.2,0.9,1.5,1.6c0.3,0.8,0.5,1.6,0.4,2.4
		C669.9,293.7,669.7,294.6,669.2,295.3z"/>
	<path class="st2" d="M660.1,286.7c-0.5,0.5-1.4,0.5-1.9-0.1c0,0,0,0-0.1-0.1c-0.3-0.3-0.4-0.7-0.3-1.1c0-0.4,0.2-0.8,0.5-1.1
		c0.3-0.3,0.6-0.4,1-0.4c0.4,0,0.8,0.2,1,0.5c0.3,0.3,0.4,0.7,0.3,1.1C660.5,286.1,660.4,286.4,660.1,286.7z M661.6,287l0.2-2.5
		l8.6,0.6l-0.2,2.5L661.6,287z"/>
	<path class="st2" d="M670.3,281.1c-0.4,0.7-1,1.2-1.7,1.6c-1.5,0.7-3.2,0.6-4.6-0.3c-0.6-0.5-1.1-1.1-1.5-1.8
		c-0.6-1.6-0.5-3.4,0.4-4.9c0.4-0.7,1-1.2,1.7-1.6c1.5-0.7,3.2-0.6,4.6,0.3c0.6,0.5,1.1,1.1,1.5,1.8c0.3,0.8,0.5,1.6,0.4,2.5
		C670.9,279.6,670.7,280.4,670.3,281.1z M668.4,277c-1-0.9-2.4-1-3.5-0.2c-0.5,0.4-0.7,0.9-0.8,1.5c-0.1,0.6,0.1,1.2,0.5,1.6
		c0.9,0.9,2.4,1,3.5,0.2c0.5-0.4,0.7-0.9,0.8-1.5C669,278,668.8,277.4,668.4,277z"/>
	<path class="st2" d="M664.1,264c0.8-0.6,1.9-0.9,2.9-0.8l4.9,0.4l-0.2,2.5l-4.5-0.3c-0.5-0.1-1.1,0-1.6,0.3
		c-0.4,0.3-0.6,0.8-0.6,1.3c-0.1,0.6,0.1,1.1,0.5,1.5c0.5,0.4,1.1,0.7,1.7,0.7l4.2,0.3l-0.2,2.5l-8.6-0.6l0.2-2.4l1,0.1
		c-0.3-0.4-0.6-0.8-0.7-1.3c-0.2-0.5-0.2-1.1-0.2-1.6C663,265.5,663.4,264.6,664.1,264z"/>
	<path class="st2" d="M669.1,252.6l-0.5,6.5c0.5-0.1,1-0.3,1.3-0.7c0.4-0.5,0.6-1,0.6-1.6c0-0.4,0-0.8-0.1-1.2
		c-0.1-0.4-0.3-0.7-0.6-1l1.5-1.2c0.9,1,1.3,2.3,1.1,3.6c0,0.9-0.3,1.8-0.8,2.5c-0.4,0.7-1,1.2-1.7,1.6c-0.7,0.4-1.5,0.5-2.3,0.4
		c-0.8,0-1.6-0.3-2.2-0.8c-0.6-0.4-1.1-1-1.5-1.8c-0.3-0.7-0.5-1.6-0.4-2.4c0-0.8,0.3-1.6,0.7-2.2c0.4-0.6,1-1.2,1.7-1.5
		c0.7-0.3,1.6-0.5,2.4-0.4C668.5,252.5,668.7,252.5,669.1,252.6z M666,258.2c0.3,0.4,0.8,0.7,1.3,0.8l0.3-4.2c-0.5,0-1,0.2-1.4,0.6
		c-0.4,0.4-0.6,0.9-0.6,1.4C665.5,257.3,665.7,257.8,666,258.2z"/>
	<path class="st2" d="M672.8,250.3c-0.2,0.6-0.4,1.1-0.8,1.6l-1.7-1c0.3-0.4,0.5-0.9,0.7-1.3c0.2-0.5,0.3-1,0.3-1.6
		c0.1-1.1-0.1-1.6-0.7-1.6c-0.3,0-0.5,0.1-0.6,0.4c-0.2,0.4-0.3,0.9-0.4,1.3c-0.1,0.6-0.3,1.2-0.5,1.7c-0.2,0.4-0.5,0.8-0.8,1.1
		c-0.4,0.3-1,0.5-1.5,0.4c-0.5,0-1-0.2-1.4-0.6c-0.4-0.4-0.7-0.9-0.9-1.4c-0.2-0.7-0.3-1.4-0.2-2.2c0-0.6,0.2-1.2,0.3-1.8
		c0.1-0.5,0.4-1,0.7-1.5l1.7,1c-0.5,0.7-0.8,1.6-0.8,2.4c-0.1,0.4,0,0.8,0.1,1.2c0.1,0.2,0.3,0.4,0.5,0.4c0.3,0,0.5-0.1,0.6-0.4
		c0.2-0.4,0.3-0.9,0.4-1.4c0.1-0.6,0.3-1.1,0.5-1.7c0.2-0.4,0.4-0.8,0.8-1.1c0.4-0.3,1-0.5,1.5-0.4c0.5,0,1,0.2,1.4,0.6
		c0.4,0.4,0.7,0.9,0.9,1.5c0.2,0.7,0.3,1.5,0.2,2.2C673.1,249,673,249.7,672.8,250.3z"/>
	<path class="st0" d="M337,818.7c0.7,0.3,1.3,0.8,1.7,1.4c0.8,1.3,0.8,3,0,4.3c-0.4,0.6-1,1.1-1.7,1.4c-0.8,0.3-1.7,0.5-2.6,0.5
		l-2.3,0l0,3.1l-2.6,0l0-11.2l4.8,0C335.3,818.2,336.2,818.4,337,818.7z M336,823.7c0.4-0.4,0.6-0.9,0.6-1.4c0-0.6-0.2-1.1-0.6-1.4
		c-0.5-0.4-1.1-0.5-1.8-0.5l-2.1,0l0,3.9l2.1,0C334.9,824.3,335.5,824.1,336,823.7L336,823.7z"/>
	<path class="st0" d="M341.1,817.5l2.5,0l0,11.9l-2.5,0L341.1,817.5z"/>
	<path class="st0" d="M352.4,821.6c0.8,0.8,1.2,1.8,1.1,2.9l0,4.9l-2.3,0l0-1.1c-0.6,0.9-1.6,1.3-2.6,1.2c-0.6,0-1.2-0.1-1.7-0.3
		c-0.5-0.2-0.8-0.5-1.1-0.9c-0.3-0.4-0.4-0.9-0.4-1.3c0-0.7,0.3-1.4,0.9-1.9c0.8-0.5,1.8-0.8,2.8-0.7l2,0c0-0.5-0.2-0.9-0.5-1.3
		c-0.4-0.3-1-0.5-1.5-0.4c-0.5,0-0.9,0.1-1.4,0.2c-0.4,0.1-0.8,0.3-1.1,0.6l-0.9-1.7c0.5-0.4,1.1-0.6,1.7-0.8c0.7-0.2,1.3-0.3,2-0.3
		C350.5,820.6,351.6,820.9,352.4,821.6z M350.3,827.5c0.3-0.2,0.6-0.5,0.7-0.9l0-0.9l-1.7,0c-1,0-1.5,0.3-1.5,1
		c0,0.3,0.1,0.6,0.4,0.8c0.3,0.2,0.7,0.3,1,0.3C349.6,827.8,350,827.7,350.3,827.5L350.3,827.5z"/>
	<path class="st0" d="M364.2,820.7l-3.9,9.1c-0.3,0.8-0.8,1.6-1.5,2.1c-0.6,0.4-1.4,0.6-2.1,0.6c-0.5,0-0.9-0.1-1.3-0.2
		c-0.4-0.1-0.8-0.3-1.1-0.6l0.9-1.8c0.2,0.2,0.4,0.3,0.7,0.4c0.2,0.1,0.5,0.1,0.7,0.1c0.3,0,0.6-0.1,0.8-0.3
		c0.3-0.2,0.5-0.5,0.6-0.8l0-0.1l-3.8-8.7l2.6,0l2.4,5.8l2.4-5.8L364.2,820.7z"/>
	<path class="st0" d="M371.4,821.5c0.8,0.8,1.2,1.8,1.1,2.9l0,4.9l-2.3,0l0-1.1c-0.6,0.9-1.6,1.3-2.6,1.2c-0.6,0-1.2-0.1-1.7-0.3
		c-0.5-0.2-0.8-0.5-1.1-0.9c-0.3-0.4-0.4-0.9-0.4-1.3c0-0.7,0.3-1.4,0.9-1.9c0.8-0.5,1.8-0.8,2.8-0.7l2,0c0-0.5-0.2-0.9-0.5-1.3
		c-0.4-0.3-1-0.5-1.5-0.4c-0.5,0-0.9,0.1-1.4,0.2c-0.4,0.1-0.8,0.3-1.1,0.6l-0.9-1.7c0.5-0.4,1.1-0.6,1.7-0.8c0.7-0.2,1.3-0.3,2-0.3
		C369.5,820.5,370.6,820.8,371.4,821.5z M369.3,827.5c0.3-0.2,0.6-0.5,0.7-0.9l0-0.9l-1.7,0c-1,0-1.5,0.3-1.5,1
		c0,0.3,0.1,0.6,0.4,0.8c0.3,0.2,0.7,0.3,1,0.3C368.6,827.8,369,827.7,369.3,827.5L369.3,827.5z"/>
	<path class="st0" d="M314.4,846.3l-5.2,0l-1,2.4l-2.7,0l5-11.2l2.6,0l5,11.2l-2.7,0L314.4,846.3z M313.6,844.3l-1.8-4.3l-1.8,4.3
		L313.6,844.3z"/>
	<path class="st0" d="M319.1,836.8l2.5,0l0,11.9l-2.5,0L319.1,836.8z"/>
	<path class="st0" d="M337.5,840.8c0.7,0.8,1,1.8,1,2.9l0,4.9l-2.5,0l0-4.5c0-0.5-0.1-1.1-0.4-1.5c-0.3-0.3-0.8-0.5-1.2-0.5
		c-0.5,0-1,0.2-1.4,0.6c-0.4,0.5-0.6,1.1-0.5,1.7l0,4.3l-2.5,0l0-4.5c0-1.4-0.6-2-1.6-2c-0.5,0-1,0.2-1.4,0.6
		c-0.4,0.5-0.6,1.1-0.5,1.7l0,4.3l-2.5,0l0-8.6l2.4,0l0,1c0.3-0.4,0.7-0.7,1.2-0.8c0.5-0.2,1-0.3,1.5-0.3c0.6,0,1.1,0.1,1.6,0.4
		c0.5,0.2,0.9,0.6,1.2,1c0.4-0.5,0.8-0.8,1.3-1c0.6-0.3,1.2-0.4,1.8-0.4C335.9,839.8,336.8,840.2,337.5,840.8z"/>
	<path class="st0" d="M347.3,840.8c0.8,0.8,1.2,1.8,1.1,2.9l0,4.9l-2.3,0l0-1.1c-0.6,0.9-1.6,1.3-2.6,1.2c-0.6,0-1.2-0.1-1.7-0.3
		c-0.5-0.2-0.8-0.5-1.1-0.9c-0.3-0.4-0.4-0.9-0.4-1.3c0-0.7,0.3-1.4,0.9-1.9c0.8-0.5,1.8-0.8,2.8-0.7l2,0c0-0.5-0.2-0.9-0.5-1.3
		c-0.4-0.3-1-0.5-1.5-0.4c-0.5,0-0.9,0.1-1.4,0.2c-0.4,0.1-0.8,0.3-1.1,0.6l-0.9-1.7c0.5-0.4,1.1-0.6,1.7-0.8c0.7-0.2,1.3-0.3,2-0.3
		C345.3,839.8,346.4,840.1,347.3,840.8z M345.2,846.7c0.3-0.2,0.6-0.5,0.7-0.9l0-0.9l-1.7,0c-1,0-1.5,0.3-1.5,1
		c0,0.3,0.1,0.6,0.4,0.8c0.3,0.2,0.7,0.3,1,0.3C344.4,847,344.8,846.9,345.2,846.7L345.2,846.7z"/>
	<path class="st0" d="M359.4,836.7l0,11.9l-2.4,0l0-1c-0.7,0.8-1.7,1.2-2.7,1.1c-0.8,0-1.5-0.2-2.2-0.5c-0.7-0.4-1.2-0.9-1.5-1.5
		c-0.8-1.5-0.8-3.2,0-4.7c0.4-0.7,0.9-1.2,1.5-1.6c0.7-0.4,1.4-0.6,2.2-0.6c1-0.1,1.9,0.3,2.6,1l0-4.2L359.4,836.7z M356.4,846
		c0.8-1,0.8-2.5,0-3.5c-0.9-0.9-2.3-0.9-3.2,0c-0.8,1-0.8,2.5,0,3.5C354.1,846.9,355.5,846.9,356.4,846z"/>
	<path class="st0" d="M365.4,840.1c0.6-0.2,1.2-0.3,1.8-0.3l0,2.3c-0.3,0-0.5,0-0.6,0c-0.6,0-1.2,0.2-1.7,0.6
		c-0.4,0.5-0.7,1.1-0.6,1.8l0,4.1l-2.5,0l0-8.6l2.4,0l0,1.1C364.5,840.6,364.9,840.3,365.4,840.1z"/>
	<path class="st0" d="M375.1,840.7c0.8,0.8,1.2,1.8,1.1,2.9l0,4.9l-2.3,0l0-1.1c-0.6,0.9-1.6,1.3-2.6,1.2c-0.6,0-1.2-0.1-1.7-0.3
		c-0.5-0.2-0.8-0.5-1.1-0.9c-0.3-0.4-0.4-0.9-0.4-1.3c0-0.7,0.3-1.4,0.9-1.9c0.8-0.5,1.8-0.8,2.8-0.7l2,0c0-0.5-0.2-0.9-0.5-1.3
		c-0.4-0.3-1-0.5-1.5-0.4c-0.5,0-0.9,0.1-1.4,0.2c-0.4,0.1-0.8,0.3-1.1,0.6l-0.9-1.7c0.5-0.4,1.1-0.6,1.7-0.8c0.7-0.2,1.3-0.3,2-0.3
		C373.1,839.7,374.2,840,375.1,840.7z M373,846.6c0.3-0.2,0.6-0.5,0.7-0.9l0-0.9l-1.7,0c-1,0-1.5,0.3-1.5,1c0,0.3,0.1,0.6,0.4,0.8
		c0.3,0.2,0.7,0.3,1,0.3C372.2,847,372.6,846.8,373,846.6L373,846.6z"/>
	<path class="st0" d="M386.8,839.8l-3.6,8.6l-2.6,0l-3.6-8.6l2.6,0l2.4,5.8l2.4-5.9L386.8,839.8z"/>
	<path class="st0" d="M394.1,840.6c0.8,0.8,1.2,1.8,1.1,2.9l0,4.9l-2.3,0l0-1.1c-0.6,0.9-1.6,1.3-2.6,1.2c-0.6,0-1.2-0.1-1.7-0.3
		c-0.5-0.2-0.8-0.5-1.1-0.9c-0.3-0.4-0.4-0.9-0.4-1.3c0-0.7,0.3-1.4,0.9-1.9c0.8-0.5,1.8-0.8,2.8-0.7l2,0c0-0.5-0.2-0.9-0.5-1.3
		c-0.4-0.3-1-0.5-1.5-0.4c-0.5,0-0.9,0.1-1.4,0.2c-0.4,0.1-0.8,0.3-1.1,0.6l-0.9-1.7c0.5-0.4,1.1-0.6,1.7-0.8c0.7-0.2,1.3-0.3,2-0.3
		C392.1,839.6,393.2,840,394.1,840.6z M392,846.6c0.3-0.2,0.6-0.5,0.7-0.9l0-0.9l-1.7,0c-1,0-1.5,0.3-1.5,1c0,0.3,0.1,0.6,0.4,0.8
		c0.3,0.2,0.7,0.3,1,0.3C391.2,846.9,391.6,846.8,392,846.6z"/>
	<path class="st0" d="M88.1,879.1c2.2-0.4,4.3,1,4.7,3.2c0,0.1,0,0.3,0.1,0.4c0,0.7-0.1,1.5-0.5,2.1c-0.5,0.8-1.1,1.4-1.8,1.9
		l-1.8,1.3l1.8,2.5l-2.1,1.5l-6.7-9l3.9-2.9C86.4,879.7,87.2,879.3,88.1,879.1z M90.3,883.7c0.1-0.5,0-1.1-0.4-1.5
		c-0.3-0.5-0.8-0.8-1.3-0.8c-0.6,0-1.2,0.2-1.7,0.7l-1.7,1.3l2.3,3.1l1.7-1.3C89.7,884.8,90.1,884.3,90.3,883.7z"/>
	<path class="st0" d="M90.7,875.8l2-1.5l7.1,9.6l-2,1.5L90.7,875.8z"/>
	<path class="st0" d="M102.2,872.3c1.1,0.2,2,0.8,2.6,1.7l2.9,4l-1.9,1.4l-0.6-0.9c0,1-0.5,2-1.4,2.5c-0.5,0.4-1,0.6-1.6,0.8
		c-0.5,0.1-1,0.1-1.4-0.1c-0.4-0.2-0.8-0.5-1.1-0.9c-0.5-0.6-0.6-1.3-0.4-2.1c0.4-0.9,1-1.7,1.8-2.2l1.6-1.2
		c-0.3-0.4-0.7-0.7-1.1-0.7c-0.5,0-1.1,0.2-1.5,0.5c-0.4,0.3-0.7,0.6-1,1c-0.3,0.3-0.4,0.7-0.6,1.1l-1.8-0.9
		c0.2-0.6,0.5-1.1,0.9-1.6c0.4-0.5,0.9-1,1.5-1.4C100,872.6,101.1,872.3,102.2,872.3z M104,878.3c0.1-0.4,0.2-0.8,0-1.1l-0.5-0.7
		l-1.4,1c-0.8,0.6-1,1.2-0.6,1.7c0.2,0.2,0.5,0.4,0.8,0.4c0.4,0,0.7-0.2,1-0.4C103.6,879,103.9,878.7,104,878.3z"/>
	<path class="st0" d="M111.2,864.7l2.3,9.7c0.3,0.8,0.3,1.7,0.1,2.6c-0.3,0.7-0.7,1.3-1.3,1.7c-0.4,0.3-0.8,0.5-1.2,0.6
		c-0.4,0.1-0.8,0.2-1.2,0.2l-0.3-2c0.3,0,0.5,0,0.8-0.1c0.2-0.1,0.5-0.2,0.7-0.3c0.2-0.2,0.4-0.4,0.5-0.7c0.1-0.3,0.1-0.7,0-1l0-0.1
		l-8.1-4.8l2.1-1.5l5.4,3.3l-1.5-6.1L111.2,864.7z"/>
	<path class="st0" d="M117.5,861c1.1,0.2,2,0.8,2.6,1.7l2.9,4l-1.9,1.4l-0.6-0.9c0,1-0.5,2-1.4,2.5c-0.5,0.4-1,0.6-1.6,0.8
		c-0.5,0.1-1,0.1-1.4-0.1c-0.4-0.2-0.8-0.5-1.1-0.9c-0.5-0.6-0.6-1.3-0.4-2.1c0.4-0.9,1-1.7,1.8-2.2l1.6-1.2
		c-0.3-0.4-0.7-0.7-1.1-0.7c-0.5,0-1.1,0.2-1.5,0.5c-0.4,0.3-0.7,0.6-1,1c-0.3,0.3-0.4,0.7-0.6,1.1l-1.8-0.9
		c0.2-0.6,0.5-1.1,0.9-1.6c0.4-0.5,0.9-1,1.5-1.4C115.3,861.4,116.4,861,117.5,861z M119.3,867.1c0.1-0.4,0.2-0.8,0-1.1l-0.5-0.7
		l-1.4,1c-0.8,0.6-1,1.2-0.6,1.7c0.2,0.2,0.5,0.4,0.8,0.4c0.4,0,0.7-0.2,1-0.4C118.9,867.7,119.2,867.4,119.3,867.1L119.3,867.1z"/>
	<path class="st0" d="M129.4,861.7c-0.7,0.3-1.4,0.4-2.2,0.4l-0.5-2.1c0.6,0,1.3-0.1,1.9-0.3c0.6-0.2,1.2-0.5,1.8-0.9
		c0.5-0.3,0.9-0.7,1.1-1.2c0.2-0.3,0.1-0.7-0.1-1c-0.1-0.2-0.4-0.3-0.6-0.3c-0.3,0-0.6,0-0.9,0.1c-0.3,0.1-0.7,0.3-1.3,0.5
		c-0.7,0.3-1.3,0.5-2,0.8c-0.6,0.2-1.1,0.2-1.7,0c-0.6-0.2-1.2-0.6-1.5-1.1c-0.4-0.5-0.6-1.1-0.6-1.7c0-0.7,0.2-1.4,0.5-2
		c0.5-0.8,1.1-1.4,1.8-1.9c0.6-0.4,1.2-0.8,1.8-1c0.6-0.3,1.2-0.4,1.9-0.5l0.5,2.1c-1.1,0.1-2.1,0.5-3,1.1c-0.5,0.3-0.8,0.7-1.1,1.2
		c-0.1,0.4-0.1,0.8,0.1,1.1c0.2,0.3,0.6,0.4,1,0.3c0.6-0.2,1.2-0.4,1.8-0.6c0.7-0.3,1.4-0.5,2-0.8c0.6-0.2,1.1-0.2,1.7-0.1
		c0.6,0.2,1.2,0.5,1.5,1.1c0.4,0.5,0.6,1.1,0.6,1.7c0,0.7-0.2,1.4-0.5,2c-0.5,0.8-1.1,1.4-1.8,1.9C131,861,130.2,861.4,129.4,861.7z
		"/>
	<path class="st0" d="M141.3,848.7l-5.2,3.9c0.4,0.4,0.9,0.5,1.4,0.5c0.6,0,1.1-0.2,1.6-0.6c0.3-0.2,0.6-0.5,0.8-0.9
		c0.2-0.3,0.3-0.7,0.4-1.1l1.9,0.4c-0.2,1.3-0.9,2.5-2,3.2c-0.7,0.5-1.5,0.9-2.4,1.1c-0.8,0.1-1.6,0.1-2.3-0.2
		c-0.7-0.3-1.4-0.8-1.8-1.5c-0.5-0.6-0.8-1.4-0.9-2.2c-0.1-0.8,0.1-1.6,0.4-2.3c0.7-1.5,2.1-2.5,3.7-2.8c0.8-0.1,1.5,0,2.2,0.3
		c0.8,0.3,1.4,0.9,1.9,1.6C140.9,848.1,141.1,848.3,141.3,848.7z M134.9,849.9c-0.1,0.5,0,1,0.2,1.5l3.4-2.5
		c-0.4-0.4-0.8-0.6-1.3-0.6c-0.5,0-1,0.1-1.4,0.4C135.4,849,135.1,849.4,134.9,849.9z"/>
	<path class="st0" d="M146.8,838.4l4.3,5.8c0.9,1,1.3,2.3,1.1,3.6c-0.3,1.3-1.1,2.4-2.2,3.1c-0.6,0.5-1.3,0.9-2.1,1.2
		c-0.6,0.3-1.3,0.4-2,0.4l-0.3-2c0.5,0,1-0.1,1.5-0.2c0.5-0.2,1-0.4,1.5-0.8c0.6-0.4,1-0.9,1.2-1.6c0.1-0.6-0.1-1.3-0.6-1.8
		l-0.2-0.3c-0.1,1-0.7,1.9-1.6,2.5c-0.6,0.5-1.3,0.8-2.1,0.9c-0.7,0.1-1.5,0-2.1-0.3c-1.4-0.6-2.4-2-2.6-3.5
		c-0.1-0.7,0.1-1.5,0.4-2.1c0.3-0.7,0.8-1.3,1.4-1.7c0.8-0.7,2-1,3-0.7l-0.7-0.9L146.8,838.4z M147.6,844.7c0.2-1.2-0.6-2.3-1.8-2.5
		c-0.6-0.1-1.2,0.1-1.7,0.5c-0.5,0.3-0.8,0.9-1,1.4c-0.2,1.2,0.6,2.3,1.8,2.5c0,0,0,0,0,0c0.6,0.1,1.2-0.1,1.7-0.5
		C147.2,845.8,147.5,845.3,147.6,844.7L147.6,844.7z"/>
	<path class="st0" d="M154.4,833.8c1.1,0.2,2,0.8,2.6,1.7l2.9,4l-1.9,1.4l-0.6-0.9c0,1-0.5,2-1.4,2.5c-0.5,0.4-1,0.6-1.6,0.8
		c-0.5,0.1-1,0.1-1.4-0.1c-0.4-0.2-0.8-0.5-1.1-0.9c-0.5-0.6-0.6-1.3-0.4-2.1c0.4-0.9,1-1.7,1.8-2.2l1.6-1.2
		c-0.3-0.4-0.7-0.7-1.1-0.7c-0.5,0-1.1,0.2-1.5,0.5c-0.4,0.3-0.7,0.6-1,1c-0.3,0.3-0.4,0.7-0.6,1.1l-1.8-0.9
		c0.2-0.6,0.5-1.1,0.9-1.6c0.4-0.5,0.9-1,1.5-1.4C152.2,834.1,153.3,833.7,154.4,833.8z M156.3,839.8c0.1-0.4,0.2-0.8,0-1.1
		l-0.5-0.7l-1.4,1c-0.8,0.6-1,1.2-0.6,1.7c0.2,0.2,0.5,0.4,0.8,0.4c0.4,0,0.7-0.2,1-0.4C155.8,840.5,156.1,840.2,156.3,839.8
		L156.3,839.8z"/>
	<path class="st0" d="M159.6,829.1c0.3-0.5,0.7-1,1.2-1.3l1.4,1.9c-0.2,0.1-0.4,0.3-0.5,0.3c-0.5,0.3-0.9,0.9-1,1.5
		c-0.1,0.7,0.1,1.3,0.6,1.8l2.4,3.3l-2,1.5l-5.1-6.9l1.9-1.4l0.7,0.9C159.2,830.1,159.4,829.6,159.6,829.1z"/>
	<path class="st0" d="M165.1,825.1c0.3-0.5,0.7-1,1.2-1.3l1.4,1.9c-0.2,0.1-0.4,0.3-0.5,0.3c-0.5,0.3-0.9,0.9-1,1.5
		c-0.1,0.7,0.1,1.3,0.6,1.8l2.4,3.3l-2,1.5l-5.1-6.9l1.9-1.4l0.7,0.9C164.7,826,164.9,825.5,165.1,825.1z"/>
	<path class="st0" d="M173.7,828.6c-0.8,0.1-1.6,0-2.3-0.3c-1.5-0.7-2.5-2.1-2.7-3.7c-0.1-0.8,0.1-1.6,0.4-2.3
		c0.8-1.5,2.2-2.6,3.9-2.9c0.8-0.1,1.6,0,2.3,0.3c1.5,0.7,2.5,2.1,2.7,3.7c0.1,0.8-0.1,1.6-0.4,2.3
		C176.9,827.3,175.4,828.3,173.7,828.6L173.7,828.6z M175.7,824.5c0.1-1.3-0.8-2.5-2.1-2.8c-0.6-0.1-1.2,0-1.7,0.4
		c-0.5,0.3-0.8,0.9-0.9,1.5c-0.1,1.3,0.8,2.5,2.1,2.8C174.4,826.6,175.5,825.8,175.7,824.5L175.7,824.5z"/>
	<path class="st0" d="M181.7,823.2c-0.5,0.2-1.1,0.4-1.7,0.4l-0.4-1.9c0.5,0,1-0.2,1.5-0.3c0.5-0.2,1-0.4,1.4-0.8
		c0.8-0.6,1.1-1.2,0.8-1.6c-0.2-0.2-0.4-0.3-0.7-0.2c-0.4,0.1-0.8,0.3-1.2,0.6c-0.5,0.3-1.1,0.5-1.6,0.7c-0.4,0.2-0.9,0.2-1.4,0.1
		c-0.5-0.1-1-0.4-1.3-0.9c-0.3-0.4-0.5-0.9-0.5-1.4c0-0.6,0.2-1.1,0.5-1.6c0.4-0.6,0.9-1.1,1.5-1.6c0.5-0.4,1-0.7,1.6-0.9
		c0.5-0.2,1-0.4,1.5-0.4l0.4,1.9c-0.9,0.1-1.7,0.4-2.4,1c-0.3,0.2-0.6,0.5-0.8,0.9c-0.1,0.2-0.1,0.5,0,0.7c0.2,0.2,0.4,0.3,0.7,0.2
		c0.4-0.2,0.9-0.3,1.3-0.6c0.5-0.3,1.1-0.5,1.6-0.7c0.4-0.2,0.9-0.2,1.4-0.1c0.5,0.1,1,0.4,1.3,0.9c0.3,0.4,0.5,0.9,0.5,1.4
		c0,0.6-0.2,1.1-0.6,1.6c-0.4,0.6-0.9,1.1-1.6,1.6C182.9,822.5,182.3,822.9,181.7,823.2z"/>
	<path class="st0" d="M188.6,808.5c1.1,0.2,2,0.8,2.6,1.7l2.9,4l-1.9,1.4l-0.6-0.9c0,1-0.5,2-1.4,2.5c-0.5,0.4-1,0.6-1.6,0.8
		c-0.5,0.1-1,0.1-1.4-0.1c-0.4-0.2-0.8-0.5-1.1-0.9c-0.5-0.6-0.6-1.3-0.4-2.1c0.4-0.9,1-1.7,1.8-2.2l1.6-1.2
		c-0.3-0.4-0.7-0.7-1.1-0.7c-0.5,0-1.1,0.2-1.5,0.5c-0.4,0.3-0.7,0.6-1,1c-0.3,0.3-0.4,0.7-0.6,1.1l-1.8-0.9
		c0.2-0.6,0.5-1.1,0.9-1.6c0.4-0.5,0.9-1,1.5-1.4C186.4,808.9,187.5,808.5,188.6,808.5z M190.4,814.6c0.1-0.4,0.2-0.8,0-1.1
		l-0.5-0.7l-1.4,1c-0.8,0.6-1,1.2-0.6,1.7c0.2,0.2,0.5,0.4,0.8,0.4c0.4,0,0.7-0.2,1-0.4C190,815.3,190.2,815,190.4,814.6
		L190.4,814.6z"/>
</g>
</svg>
