<?xml version="1.0" encoding="utf-8"?>
<!-- Generator: Adobe Illustrator 24.0.2, SVG Export Plug-In . SVG Version: 6.00 Build 0)  -->
<svg version="1.1" id="Capa_1" xmlns="http://www.w3.org/2000/svg" xmlns:xlink="http://www.w3.org/1999/xlink" x="0px" y="0px"
	 viewBox="0 0 1080 1080" style="enable-background:new 0 0 1080 1080;" xml:space="preserve">
<style type="text/css">
	.st1{fill:none;stroke:#FFFFFF;stroke-width:8;stroke-miterlimit:10;}
	.st2{fill:#FFFFFF;}
</style>
<g class="zone" id="4_Plà_del_Bon_Repos_-_La_Goteta">
	<path class="st0" d="M877.8,331.9c-7.1-8.1-13.2-15.1-17.3-19.7c-4.5-5.1-10.1-11.5-15.9-18.1c-13.4-15.4-28.7-32.8-37-41.8
		c-3.6-3.9-7.3-8.4-10.9-12.8c-8.6-10.5-17.5-21.4-25.8-25.2c-12.2-5.6-75.6-35.8-99.2-48.1c-17.3-9-41.2-20.2-54.1-26.2
		c-4.1-1.9-6.9-3.2-7.9-3.7c-9.2-4.6-17.5-8.7-24.8-12.3c-11.8-5.8-20.2-9.9-23.5-11.9c-1.2-0.7-3.8-2.3-4.7-2
		c-0.2,0.1-1.2,0.5-2.6,3.4c-3.3,6.5-48.7,94.2-73.2,141.3l-12.8,24.8c-6.5,12.6-13.5,25.8-19.6,37.4c-6.8,13-12.7,24.2-15.4,29.5
		c-0.6,1.1-1.1,2.2-1.6,3.1c-1.5,2.8-2.8,5.4-2.8,6.6c0,0.5,1,1.5,3.7,3c6.9,3.8,16.2,9.5,24.4,14.4c2.7,1.6,5.3,3.2,7.7,4.6
		c2.5,1.5,4.8,2.8,6.9,3.9c6.8,3.7,10.2,5.6,10.1,9.4c-0.1,2.1-1.4,3.9-3.3,4.7c-1.9,1-19.1,12.1-32.9,21.1
		c-14.3,9.3-29,18.8-33.8,21.7c-1,0.6-2.1,1.2-3,1.8c-3.5,2.1-8.1,4.8-9.7,6.4c6.1,6.4,43.5,48.5,50.7,56.7c6.3,7.2,46.1,52,63,71
		c2.9,3.3,6.4,7.3,10.4,12.1c7.2,8.4,15.3,18,23.5,26.9c6,6.5,19.4,13.9,28.2,18.8c3.3,1.8,6.1,3.4,8.1,4.6c0.5,0.3,1.2,0.7,1.8,1.2
		c12.5-3.9,73.5-23.2,87.7-27.7c14.9-4.6,116.3-30.1,133.9-34.5c0.9-3.3,3-7.1,7.2-12.2c5.8-7.1,34.9-47.1,58.2-79.2
		c12.8-17.5,23.8-32.7,29.6-40.6c6.4-8.7,11.9-16,16.3-21.9c7.3-9.8,12.1-16.3,14.6-19.9c0.5-0.7,1-1.4,1.4-2
		c0.9-1.3,1.7-2.4,1.6-2.8c-0.2-0.8-1.2-2.7-5.6-7.1C922.3,382.9,896.5,353.4,877.8,331.9z"/>
</g>
<g class="zone" id="4_Raval_Roig_-_Virgen_del_Socorro">
	<path class="st0" d="M788.1,822.8c7.2-2.7,9.7-5.3,16.6-12.1c2.2-2.2,5.3-5.1,8.6-8.2c6.9-6.5,16.4-15.4,18.9-19.2
		c3.9-5.9,20-29,25.1-36.1l0.6-0.9c4.9-6.9,7.7-10.2,17.6-7.7c1.7,0.4,3.1,0.9,4.4,1.3c4.8,1.5,6.4,2,11.2-1.6
		c7.4-5.6,14.3-11.4,16.4-13.5c0.1-0.4,0-2.3-2.6-7.5c-0.4-0.9-0.9-1.7-1.3-2.5c-2.1-3.9-3.8-7.3-2.7-10.7c0.6-1.9,2-3.4,3.8-4.2
		c2.6-1.2,5.2-2.3,7.9-3.2c2.4-0.8,4.8-1.8,7.1-2.8c0.2-0.1,0.4-0.2,0.6-0.3c-0.7-1.2-1.6-2.3-2.6-3.3c-1.7-1.7-3.6-4-5.7-6.5
		c-2.7-3.2-8.2-9.9-10.3-10.4c-5.5-1.1-41.2-12.4-46.5-14.1c-7.1-2.4-10.8-4-17.2-15.9c-2.1-3.8-4.3-8.1-6.7-12.6
		c-4.4-8.4-9-17.1-12.2-22.2c-0.8-1.3-1.7-2.7-2.5-4c-5.6-8.8-9-14.4-9.9-18.1c-0.1-0.3-0.1-0.5-0.2-0.8c-0.1-0.4-0.2-0.8-0.3-1.2
		c-22,5.5-117.5,29.5-131.4,33.8c-13.1,4.1-66,20.8-83.9,26.5c14.2,10.9,49.8,38.3,61.6,47c13.9,10.2,12.2,19.2,9.6,32.9
		c-0.7,3.5-1.4,7.4-2,11.8c-2.9,21.1-5.8,23.2-22.8,26.3c-1.6,0.3-3.4,0.6-5.4,1c-20.7,4.1-29.2,2.1-39-1.1
		c-7.9-2.6-14.2-4.7-27.4,0c-3.9,1.4-5.1,2.8-5.2,3.4c0,0.2-0.2,2.3,5.3,6.7c1.1,0.9,2.5,1.9,4.2,3.2c6,4.5,15,11.2,22.3,19.3
		c9,10,6.2,16.2,3,23.5c-0.7,1.7-1.5,3.5-2.3,5.5c-0.8,2.3-1.6,4.8-2.4,7.3c-2.9,9.4-6.2,20-15.4,30c-9.2,10.1-39.8,49.5-48.6,60.9
		c0.2,0.3,0.4,0.5,0.5,0.7c1.9,2.8,21.7,30.6,27.9,38.8c1.5,2,2.9,4.2,4.3,6.4c2,3.1,5.6,8.7,7.4,9.4c0.1-0.1,0.2-0.2,0.3-0.2
		c3.6-3.6,14.6-17.4,23.5-28.5c5.4-6.8,10.1-12.6,12.3-15.3c1.6-1.9,3-3.8,4.4-5.9c3.4-5,6.9-10.1,14.9-14.1
		c5.7-2.9,13.6-6.3,20.5-9.4c5.3-2.3,9.9-4.4,12.5-5.6c6.4-3.2,11.9-4.4,19.8-4.4c1.3,0,2.5,0,3.6,0.1c1.8,0.1,3.7,0.1,5.5-0.2
		c0.9-3.7,2.8-12.3,2.8-19.9c0-8.7,0-15.7,4.2-19.8c1.5-1.5,4.7-5.3,7.4-8.6c2.8-3.4,4.6-5.5,5.6-6.4c3.4-3.4,7.5-3.6,12-0.5
		c0.9,0.6,1.7,1.3,2.5,2c3.4,3,6,5,9.9,3.5c4-1.5,17.2-6.3,30-11C770.9,829.1,784.1,824.2,788.1,822.8z"/>
</g>
<g class="zone" id="4_San_Antón">
	<path class="st0" d="M502.9,931.5c4.1-3.9,8-7.5,10.2-9.2c1.6-1.4,3.6-2.3,5.6-2.9c6.7-8.7,40.2-52.1,50.3-63.1
		c8-8.7,10.9-18,13.7-27c0.8-2.7,1.6-5.2,2.5-7.7c0.8-2.3,1.7-4.2,2.4-6c3-6.8,3.9-8.8-1.7-15c-6.7-7.5-15.4-13.9-21.1-18.2
		c-1.7-1.3-3.2-2.4-4.4-3.3c-2.3-1.9-9.4-7.5-8.2-14.3c0.7-4.2,4.2-7.4,10.4-9.6c14.7-5.2,22.4-3.4,32.6,0c8.9,3,16.1,4.6,35,0.9
		c2-0.4,3.8-0.7,5.5-1.1c7.2-1.3,10.4-2,12.2-3.9c2-2.2,3-7.2,4.2-15.7c0.6-4.7,1.4-8.7,2.1-12.3c2.5-13.3,3.4-17.8-6.5-25
		C634,688,588.3,652.8,581,647.2c-0.9-0.1-1.8-0.2-2.6-0.4c-5.5-0.9-12-2.3-18.8-3.7c-15.8-3.3-33.8-7.1-50.2-7.8
		c-10.8-0.5-24.9-1.3-38.5-2.1c-16.2-1-31.4-1.9-37.4-1.9c-11,0-19.7,0-31.3,1.9c-1.5,0.2-3.1,0.5-4.8,0.8
		c-11.3,1.8-28.4,4.6-33.9,7.7c-1,0.6-2,1.2-3,1.7c-6.3,3.7-11.7,6.8-17,6.8c-2.8,0-14.5-1.4-33.5-3.7c-13.7-1.7-27.8-3.4-36.9-4.3
		c-9.3-0.9-17.4-1.7-24-2.2c-7.7-0.7-13.8-1.2-18.1-1.8c-1.1-0.1-2.1-0.2-3-0.3c-2.8-0.2-5.8-0.5-7.3-3.2c-1.8-3.1-0.2-6.5,3.2-13.3
		c2.8-5.6,5.9-11,8.7-15.8c2.7-4.8,5.6-9.7,6-11.3c0.8-3.1,1.8-24.2,1.9-29.6c-2.5-0.4-8.9-0.4-18-0.4c-13.7,0-39.1,0.4-57.7,0.7
		c-10,0.2-17.1,0.3-19.3,0.3c-1,0-2.1,0-2.9,0.1c-0.1,1-0.1,2-0.1,2.9c0,3.2,0.2,9.3,0.5,15.8c0.3,7.5,0.5,15.4,0.5,20.2
		c0,8.7,0,13.9,3.5,20c1.7,2.9,3.8,7.1,6,11.5c3.1,6.1,6.6,12.9,8.8,16.3l0.5,0.8c4,5.9,5.1,8.1,5.1,18.4c0,4.2-0.5,26.3-1.1,52
		c-0.8,35.8-1.9,80.4-1.9,92c0,13-0.4,27-0.7,37.2c-0.2,5.4-0.3,9.7-0.3,11.8c0,0.5,0,1,0,1.5c0.6-0.3,1.4-0.6,2.2-1.1
		c6.2-3.1,16.3-7.6,24.5-11.2c4.9-2.2,9-4,10.5-4.8c5.4-2.7,11.5-3.4,21.2-2.4c5,0.5,15.3,1,25.2,1.5c9.5,0.5,19.3,1,24.7,1.5
		c11.8,1.1,17.1,2.2,27.4,7.4c6,3,12.6,5.6,18,7.7c3.5,1.4,6.3,2.5,8,3.3c3.7,1.8,10.4,6.9,17.6,12.3c1.4,1,2.7,2.1,4,3
		c1.5,1.1,3.2,2.4,5,3.8c7.5,5.6,16.8,12.7,20.7,15c2.9,1.7,17.8,6.6,27.7,9.8c6.3,2.1,11.8,3.8,14.7,4.9c8.1,3,27.9,10,36.9,13
		c3.7,1.2,8.2,2.6,12.6,4c6.5,2,12.5,3.9,15.6,5.1l0.5,0.2c5.2,2.1,9.7,3.6,12.5,1.4C495.3,938.5,499.2,934.9,502.9,931.5z"/>
</g>
<g id="_Strokes">
	<path class="st1" d="M611.5,132.5c-24-12-43-21-48-24s-9-5-13,3s-72,139-86,166s-30,57-35,67s-8,13,1,18s22,13,32,19s18,9,14,11
		s-57,37-67,43s-18,10-14,14s44,49,51,57s55,62,63,71s21,25,34,39S597,646,579,643s-45.5-10.5-69.5-11.5s-65-4-76-4s-20,0-32,2
		s-33,5-40,9s-13,8-18,8s-50-6-70-8s-34-3-42-4s-10,1-4-11s14-24,15-28s2-27,2-31s-1-4-22-4s-71,1-77,1s-7,0-7,7s1,27,1,36
		s0,15,4,22s11,22,15,28s5,7,5,17s-3,124-3,144s-1,43-1,49s-2,9,8,4s31-14,35-16s9-3,19-2s39,2,50,3s16,2,26,7s22,9,26,11
		s13,9,21,15s21,16,26,19s35,12,43,15s28,10,37,13s23,7,28,9s12,5,17,1s16-15,20-18s6-3,8,0s22,31,28,39s12,22,18,16s30-37,36-44
		s8-14,18-19s27-12,33-15s11-4,18-4s12,1,13-3s3-13,3-21s0-14,3-17s11-13,13-15s4-2,7,0s8,9,16,6s52-19,60-22s11-6,18-13
		s24-22,28-28s20-29,25-36s6-9,14-7s11,5,19-1c5.9-4.4,11.6-9,17-14c2-2,1-6-2-12s-6-10-2-12s11-4,15-6s4-5-1-10s-13-17-18-18
		s-40-12-46-14s-9-3-15-14s-14-27-19-35s-11-17-12-21s-3-8,6-19s71-97,88-120s27-36,31-42s7-7-3-17s-54-61-69-78s-41-47-53-60
		s-25-33-38-39s-76-36-99-48S615.5,134.5,611.5,132.5z"/>
	<path class="st1" d="M809.6,579.5c0,0-120.1,30-136.1,35s-90,28.4-90,28.4"/>
	<path class="st1" d="M520.8,923.3c0,0,40.2-52.3,51.2-64.3s13-25,17-36s9-15,0-25s-21-18-26-22s-13-12,1-17s21-3,30,0s17,5,37,1
		s22-2,25-24s9-30-6-41s-67.6-51.6-67.6-51.6"/>
</g>
<g id="_txt" class="text">
	<g>
		<path class="st2" d="M704.3,747l-2-2.9h-0.1H700v2.9h-2.4v-10.5h4.5c0.9,0,1.7,0.2,2.4,0.5c0.7,0.3,1.2,0.8,1.6,1.3s0.6,1.2,0.6,2
			c0,0.8-0.2,1.5-0.6,2c-0.4,0.6-0.9,1-1.6,1.3l2.4,3.4H704.3z M703.7,738.9c-0.4-0.3-0.9-0.5-1.7-0.5h-2v3.7h2
			c0.7,0,1.3-0.2,1.7-0.5c0.4-0.3,0.6-0.8,0.6-1.4C704.3,739.7,704.1,739.2,703.7,738.9z"/>
		<path class="st2" d="M714.5,739.7c0.7,0.6,1,1.5,1,2.7v4.6h-2.2v-1c-0.4,0.8-1.3,1.1-2.5,1.1c-0.6,0-1.2-0.1-1.6-0.3
			s-0.8-0.5-1-0.9c-0.2-0.4-0.4-0.8-0.4-1.3c0-0.8,0.3-1.3,0.8-1.8c0.6-0.4,1.4-0.6,2.6-0.6h1.9c0-0.5-0.2-0.9-0.5-1.2
			c-0.3-0.3-0.8-0.4-1.4-0.4c-0.4,0-0.9,0.1-1.3,0.2c-0.4,0.1-0.8,0.3-1.1,0.5l-0.8-1.6c0.4-0.3,1-0.5,1.6-0.7s1.2-0.3,1.9-0.3
			C712.9,738.8,713.9,739.1,714.5,739.7z M712.5,745.2c0.3-0.2,0.5-0.5,0.7-0.8v-0.8h-1.6c-1,0-1.4,0.3-1.4,0.9
			c0,0.3,0.1,0.5,0.4,0.7c0.2,0.2,0.6,0.3,1,0.3C711.9,745.5,712.2,745.4,712.5,745.2z"/>
		<path class="st2" d="M725.5,738.9l-3.4,8.1h-2.4l-3.4-8.1h2.4l2.2,5.5l2.3-5.5H725.5z"/>
		<path class="st2" d="M732.3,739.7c0.7,0.6,1,1.5,1,2.7v4.6h-2.2v-1c-0.4,0.8-1.3,1.1-2.5,1.1c-0.6,0-1.2-0.1-1.6-0.3
			s-0.8-0.5-1-0.9c-0.2-0.4-0.4-0.8-0.4-1.3c0-0.8,0.3-1.3,0.8-1.8c0.6-0.4,1.4-0.6,2.6-0.6h1.9c0-0.5-0.2-0.9-0.5-1.2
			c-0.3-0.3-0.8-0.4-1.4-0.4c-0.4,0-0.9,0.1-1.3,0.2c-0.4,0.1-0.8,0.3-1.1,0.5l-0.8-1.6c0.4-0.3,1-0.5,1.6-0.7s1.2-0.3,1.9-0.3
			C730.7,738.8,731.7,739.1,732.3,739.7z M730.3,745.2c0.3-0.2,0.5-0.5,0.7-0.8v-0.8h-1.6c-1,0-1.4,0.3-1.4,0.9
			c0,0.3,0.1,0.5,0.4,0.7c0.2,0.2,0.6,0.3,1,0.3C729.7,745.5,730,745.4,730.3,745.2z"/>
		<path class="st2" d="M735.5,735.8h2.3V747h-2.3V735.8z"/>
		<path class="st2" d="M751.1,747l-2-2.9h-0.1h-2.1v2.9h-2.4v-10.5h4.5c0.9,0,1.7,0.2,2.4,0.5c0.7,0.3,1.2,0.8,1.6,1.3
			s0.6,1.2,0.6,2c0,0.8-0.2,1.5-0.6,2c-0.4,0.6-0.9,1-1.6,1.3l2.4,3.4H751.1z M750.5,738.9c-0.4-0.3-0.9-0.5-1.7-0.5h-2v3.7h2
			c0.7,0,1.3-0.2,1.7-0.5c0.4-0.3,0.6-0.8,0.6-1.4C751,739.7,750.8,739.2,750.5,738.9z"/>
		<path class="st2" d="M756.8,746.6c-0.7-0.4-1.2-0.8-1.6-1.5s-0.6-1.3-0.6-2.1c0-0.8,0.2-1.5,0.6-2.1s0.9-1.1,1.6-1.5
			c0.7-0.4,1.4-0.5,2.3-0.5s1.6,0.2,2.3,0.5c0.7,0.4,1.2,0.8,1.6,1.5c0.4,0.6,0.6,1.3,0.6,2.1c0,0.8-0.2,1.5-0.6,2.1
			c-0.4,0.6-0.9,1.1-1.6,1.5c-0.7,0.4-1.4,0.5-2.3,0.5S757.5,746.9,756.8,746.6z M760.6,744.6c0.4-0.4,0.6-0.9,0.6-1.6
			c0-0.7-0.2-1.2-0.6-1.6c-0.4-0.4-0.9-0.6-1.5-0.6s-1.1,0.2-1.5,0.6c-0.4,0.4-0.6,0.9-0.6,1.6c0,0.7,0.2,1.2,0.6,1.6
			c0.4,0.4,0.9,0.6,1.5,0.6S760.2,745,760.6,744.6z"/>
		<path class="st2" d="M765.2,737.4c-0.3-0.3-0.4-0.6-0.4-0.9s0.1-0.7,0.4-0.9c0.3-0.3,0.6-0.4,1-0.4s0.8,0.1,1,0.4
			c0.3,0.2,0.4,0.5,0.4,0.9c0,0.4-0.1,0.7-0.4,1c-0.3,0.3-0.6,0.4-1,0.4S765.5,737.6,765.2,737.4z M765.1,738.9h2.3v8.1h-2.3V738.9z
			"/>
		<path class="st2" d="M777.9,738.9v6.7c0,1.5-0.4,2.6-1.2,3.3c-0.8,0.7-1.9,1.1-3.4,1.1c-0.8,0-1.5-0.1-2.2-0.3
			c-0.7-0.2-1.3-0.5-1.7-0.8l0.9-1.7c0.3,0.3,0.8,0.5,1.3,0.7c0.5,0.2,1,0.2,1.6,0.2c0.8,0,1.4-0.2,1.8-0.5s0.6-0.9,0.6-1.7v-0.3
			c-0.6,0.7-1.5,1-2.6,1c-0.7,0-1.4-0.2-2-0.5c-0.6-0.3-1.1-0.8-1.5-1.4c-0.4-0.6-0.5-1.3-0.5-2c0-0.8,0.2-1.5,0.5-2
			c0.4-0.6,0.8-1,1.5-1.4s1.3-0.5,2-0.5c1.2,0,2.1,0.4,2.7,1.2v-1H777.9z M775,744.1c0.4-0.4,0.6-0.8,0.6-1.4s-0.2-1.1-0.6-1.4
			c-0.4-0.4-0.9-0.5-1.5-0.5c-0.6,0-1.1,0.2-1.5,0.5c-0.4,0.4-0.6,0.8-0.6,1.4s0.2,1.1,0.6,1.4c0.4,0.4,0.9,0.5,1.5,0.5
			C774.1,744.7,774.6,744.5,775,744.1z"/>
		<path class="st2" d="M784,741.8h4.2v1.9H784V741.8z"/>
		<path class="st2" d="M681.2,754.5l-4.5,10.5h-2.4l-4.5-10.5h2.6l3.2,7.5l3.2-7.5H681.2z"/>
		<path class="st2" d="M682.2,755.4c-0.3-0.3-0.4-0.6-0.4-0.9s0.1-0.7,0.4-0.9c0.3-0.3,0.6-0.4,1-0.4s0.8,0.1,1,0.4
			c0.3,0.2,0.4,0.5,0.4,0.9c0,0.4-0.1,0.7-0.4,1c-0.3,0.3-0.6,0.4-1,0.4S682.4,755.6,682.2,755.4z M682.1,756.9h2.3v8.1h-2.3V756.9z
			"/>
		<path class="st2" d="M689.9,757.1c0.5-0.2,1-0.3,1.6-0.3v2.2c-0.3,0-0.4,0-0.5,0c-0.7,0-1.2,0.2-1.6,0.6c-0.4,0.4-0.6,0.9-0.6,1.7
			v3.8h-2.3v-8.1h2.2v1.1C689.1,757.6,689.5,757.3,689.9,757.1z"/>
		<path class="st2" d="M701.2,756.9v6.7c0,1.5-0.4,2.6-1.2,3.3c-0.8,0.7-1.9,1.1-3.4,1.1c-0.8,0-1.5-0.1-2.2-0.3
			c-0.7-0.2-1.3-0.5-1.7-0.8l0.9-1.7c0.3,0.3,0.8,0.5,1.3,0.7c0.5,0.2,1,0.2,1.6,0.2c0.8,0,1.4-0.2,1.8-0.5s0.6-0.9,0.6-1.7v-0.3
			c-0.6,0.7-1.5,1-2.6,1c-0.7,0-1.4-0.2-2-0.5c-0.6-0.3-1.1-0.8-1.5-1.4c-0.4-0.6-0.5-1.3-0.5-2c0-0.8,0.2-1.5,0.5-2
			c0.4-0.6,0.8-1,1.5-1.4s1.3-0.5,2-0.5c1.2,0,2.1,0.4,2.7,1.2v-1H701.2z M698.3,762.1c0.4-0.4,0.6-0.8,0.6-1.4s-0.2-1.1-0.6-1.4
			c-0.4-0.4-0.9-0.5-1.5-0.5c-0.6,0-1.1,0.2-1.5,0.5c-0.4,0.4-0.6,0.8-0.6,1.4s0.2,1.1,0.6,1.4c0.4,0.4,0.9,0.5,1.5,0.5
			C697.4,762.7,697.9,762.5,698.3,762.1z"/>
		<path class="st2" d="M711.3,761.6h-6.1c0.1,0.5,0.4,0.9,0.8,1.2c0.4,0.3,0.9,0.4,1.5,0.4c0.4,0,0.8-0.1,1.1-0.2
			c0.3-0.1,0.6-0.3,0.9-0.6l1.2,1.4c-0.8,0.9-1.9,1.3-3.3,1.3c-0.9,0-1.7-0.2-2.4-0.5c-0.7-0.4-1.2-0.8-1.6-1.5s-0.6-1.3-0.6-2.1
			c0-0.8,0.2-1.5,0.6-2.1c0.4-0.6,0.9-1.1,1.5-1.5c0.7-0.4,1.4-0.5,2.2-0.5c0.8,0,1.5,0.2,2.1,0.5c0.6,0.3,1.1,0.8,1.5,1.5
			c0.4,0.6,0.5,1.4,0.5,2.2C711.3,761,711.3,761.2,711.3,761.6z M705.8,759c-0.4,0.3-0.6,0.7-0.7,1.2h4c-0.1-0.5-0.3-0.9-0.7-1.2
			c-0.4-0.3-0.8-0.5-1.3-0.5C706.6,758.5,706.1,758.7,705.8,759z"/>
		<path class="st2" d="M720.2,757.7c0.6,0.6,0.9,1.5,0.9,2.7v4.6h-2.3v-4.3c0-0.6-0.1-1.1-0.4-1.4c-0.3-0.3-0.7-0.5-1.2-0.5
			c-0.6,0-1.1,0.2-1.4,0.5c-0.4,0.4-0.5,0.9-0.5,1.6v4h-2.3v-8.1h2.2v0.9c0.3-0.3,0.7-0.6,1.2-0.8c0.5-0.2,1-0.3,1.5-0.3
			C718.8,756.8,719.6,757.1,720.2,757.7z"/>
		<path class="st2" d="M735.7,753.8V765h-2.2V764c-0.6,0.7-1.4,1-2.5,1c-0.8,0-1.4-0.2-2.1-0.5s-1.1-0.8-1.4-1.5
			c-0.4-0.6-0.5-1.4-0.5-2.2s0.2-1.6,0.5-2.2c0.3-0.6,0.8-1.1,1.4-1.5s1.3-0.5,2.1-0.5c1,0,1.8,0.3,2.4,1v-3.9H735.7z M732.8,762.6
			c0.4-0.4,0.6-0.9,0.6-1.6c0-0.7-0.2-1.2-0.6-1.6c-0.4-0.4-0.9-0.6-1.5-0.6c-0.6,0-1.1,0.2-1.5,0.6c-0.4,0.4-0.6,0.9-0.6,1.6
			c0,0.7,0.2,1.2,0.6,1.6c0.4,0.4,0.9,0.6,1.5,0.6C731.9,763.2,732.4,763,732.8,762.6z"/>
		<path class="st2" d="M745.7,761.6h-6.1c0.1,0.5,0.4,0.9,0.8,1.2c0.4,0.3,0.9,0.4,1.5,0.4c0.4,0,0.8-0.1,1.1-0.2
			c0.3-0.1,0.6-0.3,0.9-0.6l1.2,1.4c-0.8,0.9-1.9,1.3-3.3,1.3c-0.9,0-1.7-0.2-2.4-0.5c-0.7-0.4-1.2-0.8-1.6-1.5s-0.6-1.3-0.6-2.1
			c0-0.8,0.2-1.5,0.6-2.1c0.4-0.6,0.9-1.1,1.5-1.5c0.7-0.4,1.4-0.5,2.2-0.5c0.8,0,1.5,0.2,2.1,0.5c0.6,0.3,1.1,0.8,1.5,1.5
			c0.4,0.6,0.5,1.4,0.5,2.2C745.8,761,745.7,761.2,745.7,761.6z M740.2,759c-0.4,0.3-0.6,0.7-0.7,1.2h4c-0.1-0.5-0.3-0.9-0.7-1.2
			c-0.4-0.3-0.8-0.5-1.3-0.5C741,758.5,740.6,758.7,740.2,759z"/>
		<path class="st2" d="M747.3,753.8h2.3V765h-2.3V753.8z"/>
		<path class="st2" d="M757.3,764.8c-0.8-0.2-1.4-0.5-1.9-0.9l0.8-1.8c0.5,0.3,1,0.6,1.6,0.8c0.6,0.2,1.2,0.3,1.9,0.3
			c0.7,0,1.2-0.1,1.5-0.3s0.5-0.5,0.5-0.8c0-0.3-0.1-0.5-0.3-0.6s-0.4-0.3-0.8-0.4c-0.3-0.1-0.7-0.2-1.2-0.3c-0.8-0.2-1.5-0.4-2-0.6
			c-0.5-0.2-0.9-0.5-1.3-0.9c-0.4-0.4-0.5-1-0.5-1.7c0-0.6,0.2-1.2,0.5-1.7s0.8-0.9,1.5-1.2s1.5-0.4,2.4-0.4c0.7,0,1.3,0.1,2,0.2
			c0.6,0.2,1.2,0.4,1.7,0.7l-0.8,1.8c-1-0.5-1.9-0.8-2.9-0.8c-0.7,0-1.2,0.1-1.5,0.3c-0.3,0.2-0.5,0.5-0.5,0.9
			c0,0.4,0.2,0.6,0.6,0.8s0.9,0.3,1.7,0.5c0.8,0.2,1.5,0.4,2,0.6c0.5,0.2,0.9,0.5,1.3,0.9s0.5,1,0.5,1.7c0,0.6-0.2,1.1-0.5,1.6
			s-0.8,0.9-1.5,1.2s-1.5,0.4-2.4,0.4C758.9,765.1,758.1,765,757.3,764.8z"/>
		<path class="st2" d="M767.2,764.6c-0.7-0.4-1.2-0.8-1.6-1.5s-0.6-1.3-0.6-2.1c0-0.8,0.2-1.5,0.6-2.1s0.9-1.1,1.6-1.5
			c0.7-0.4,1.4-0.5,2.3-0.5s1.6,0.2,2.3,0.5c0.7,0.4,1.2,0.8,1.6,1.5c0.4,0.6,0.6,1.3,0.6,2.1c0,0.8-0.2,1.5-0.6,2.1
			c-0.4,0.6-0.9,1.1-1.6,1.5c-0.7,0.4-1.4,0.5-2.3,0.5S767.9,764.9,767.2,764.6z M771,762.6c0.4-0.4,0.6-0.9,0.6-1.6
			c0-0.7-0.2-1.2-0.6-1.6c-0.4-0.4-0.9-0.6-1.5-0.6s-1.1,0.2-1.5,0.6c-0.4,0.4-0.6,0.9-0.6,1.6c0,0.7,0.2,1.2,0.6,1.6
			c0.4,0.4,0.9,0.6,1.5,0.6S770.6,763,771,762.6z"/>
		<path class="st2" d="M777.1,764.6c-0.7-0.4-1.2-0.8-1.6-1.5s-0.6-1.3-0.6-2.1c0-0.8,0.2-1.5,0.6-2.1s0.9-1.1,1.6-1.5
			c0.7-0.4,1.5-0.5,2.3-0.5c0.8,0,1.6,0.2,2.2,0.5c0.6,0.4,1.1,0.9,1.4,1.5l-1.8,1c-0.4-0.7-1-1.1-1.8-1.1c-0.6,0-1.1,0.2-1.5,0.6
			c-0.4,0.4-0.6,0.9-0.6,1.6c0,0.7,0.2,1.2,0.6,1.6c0.4,0.4,0.9,0.6,1.5,0.6c0.8,0,1.4-0.4,1.8-1.1l1.8,1c-0.3,0.6-0.8,1.1-1.4,1.5
			c-0.6,0.4-1.4,0.5-2.2,0.5C778.5,765.1,777.7,764.9,777.1,764.6z"/>
		<path class="st2" d="M785.8,764.6c-0.7-0.4-1.2-0.8-1.6-1.5s-0.6-1.3-0.6-2.1c0-0.8,0.2-1.5,0.6-2.1s0.9-1.1,1.6-1.5
			c0.7-0.4,1.4-0.5,2.3-0.5s1.6,0.2,2.3,0.5c0.7,0.4,1.2,0.8,1.6,1.5c0.4,0.6,0.6,1.3,0.6,2.1c0,0.8-0.2,1.5-0.6,2.1
			c-0.4,0.6-0.9,1.1-1.6,1.5c-0.7,0.4-1.4,0.5-2.3,0.5S786.5,764.9,785.8,764.6z M789.5,762.6c0.4-0.4,0.6-0.9,0.6-1.6
			c0-0.7-0.2-1.2-0.6-1.6c-0.4-0.4-0.9-0.6-1.5-0.6s-1.1,0.2-1.5,0.6c-0.4,0.4-0.6,0.9-0.6,1.6c0,0.7,0.2,1.2,0.6,1.6
			c0.4,0.4,0.9,0.6,1.5,0.6S789.2,763,789.5,762.6z"/>
		<path class="st2" d="M797.4,757.1c0.5-0.2,1-0.3,1.6-0.3v2.2c-0.3,0-0.4,0-0.5,0c-0.7,0-1.2,0.2-1.6,0.6c-0.4,0.4-0.6,0.9-0.6,1.7
			v3.8h-2.3v-8.1h2.2v1.1C796.6,757.6,796.9,757.3,797.4,757.1z"/>
		<path class="st2" d="M803.8,757.1c0.5-0.2,1-0.3,1.6-0.3v2.2c-0.3,0-0.4,0-0.5,0c-0.7,0-1.2,0.2-1.6,0.6c-0.4,0.4-0.6,0.9-0.6,1.7
			v3.8h-2.3v-8.1h2.2v1.1C803,757.6,803.4,757.3,803.8,757.1z"/>
		<path class="st2" d="M808.3,764.6c-0.7-0.4-1.2-0.8-1.6-1.5s-0.6-1.3-0.6-2.1c0-0.8,0.2-1.5,0.6-2.1s0.9-1.1,1.6-1.5
			c0.7-0.4,1.4-0.5,2.3-0.5s1.6,0.2,2.3,0.5c0.7,0.4,1.2,0.8,1.6,1.5c0.4,0.6,0.6,1.3,0.6,2.1c0,0.8-0.2,1.5-0.6,2.1
			c-0.4,0.6-0.9,1.1-1.6,1.5c-0.7,0.4-1.4,0.5-2.3,0.5S809,764.9,808.3,764.6z M812.1,762.6c0.4-0.4,0.6-0.9,0.6-1.6
			c0-0.7-0.2-1.2-0.6-1.6c-0.4-0.4-0.9-0.6-1.5-0.6s-1.1,0.2-1.5,0.6c-0.4,0.4-0.6,0.9-0.6,1.6c0,0.7,0.2,1.2,0.6,1.6
			c0.4,0.4,0.9,0.6,1.5,0.6S811.7,763,812.1,762.6z"/>
	</g>
	<g>
		<path class="st2" d="M724.1,513.6h2.4v8.5h5.3v2h-7.7V513.6z"/>
		<path class="st2" d="M739.3,516.8c0.7,0.6,1,1.5,1,2.7v4.6h-2.2v-1c-0.4,0.8-1.3,1.1-2.5,1.1c-0.6,0-1.2-0.1-1.6-0.3
			s-0.8-0.5-1-0.9c-0.2-0.4-0.4-0.8-0.4-1.3c0-0.8,0.3-1.3,0.8-1.8c0.6-0.4,1.4-0.6,2.6-0.6h1.9c0-0.5-0.2-0.9-0.5-1.2
			c-0.3-0.3-0.8-0.4-1.4-0.4c-0.4,0-0.9,0.1-1.3,0.2c-0.4,0.1-0.8,0.3-1.1,0.5l-0.8-1.6c0.4-0.3,1-0.5,1.6-0.7s1.2-0.3,1.9-0.3
			C737.6,516,738.6,516.3,739.3,516.8z M737.3,522.4c0.3-0.2,0.5-0.5,0.7-0.8v-0.8h-1.6c-1,0-1.4,0.3-1.4,0.9c0,0.3,0.1,0.5,0.4,0.7
			c0.2,0.2,0.6,0.3,1,0.3C736.6,522.7,737,522.6,737.3,522.4z"/>
		<path class="st2" d="M753.9,518.7h2.2v4.3c-0.6,0.4-1.2,0.8-2,1s-1.5,0.3-2.3,0.3c-1.1,0-2.1-0.2-2.9-0.7s-1.6-1.1-2-1.9
			c-0.5-0.8-0.7-1.8-0.7-2.8s0.2-2,0.7-2.8c0.5-0.8,1.2-1.5,2.1-1.9s1.9-0.7,3-0.7c0.9,0,1.8,0.2,2.5,0.5s1.4,0.8,1.9,1.3l-1.6,1.4
			c-0.8-0.8-1.7-1.2-2.7-1.2c-0.7,0-1.3,0.1-1.8,0.4c-0.5,0.3-0.9,0.7-1.2,1.2c-0.3,0.5-0.4,1.1-0.4,1.8c0,0.7,0.1,1.2,0.4,1.7
			c0.3,0.5,0.7,0.9,1.2,1.2c0.5,0.3,1.1,0.4,1.8,0.4c0.7,0,1.3-0.2,1.9-0.5V518.7z"/>
		<path class="st2" d="M759.7,523.7c-0.7-0.4-1.2-0.8-1.6-1.5s-0.6-1.3-0.6-2.1c0-0.8,0.2-1.5,0.6-2.1s0.9-1.1,1.6-1.5
			c0.7-0.4,1.4-0.5,2.3-0.5s1.6,0.2,2.3,0.5c0.7,0.4,1.2,0.8,1.6,1.5c0.4,0.6,0.6,1.3,0.6,2.1c0,0.8-0.2,1.5-0.6,2.1
			c-0.4,0.6-0.9,1.1-1.6,1.5c-0.7,0.4-1.4,0.5-2.3,0.5S760.4,524.1,759.7,523.7z M763.5,521.7c0.4-0.4,0.6-0.9,0.6-1.6
			c0-0.7-0.2-1.2-0.6-1.6c-0.4-0.4-0.9-0.6-1.5-0.6s-1.1,0.2-1.5,0.6c-0.4,0.4-0.6,0.9-0.6,1.6c0,0.7,0.2,1.2,0.6,1.6
			c0.4,0.4,0.9,0.6,1.5,0.6S763.1,522.1,763.5,521.7z"/>
		<path class="st2" d="M768,513h2.3v11.1H768V513z"/>
		<path class="st2" d="M780.4,520.8h-6.1c0.1,0.5,0.4,0.9,0.8,1.2c0.4,0.3,0.9,0.4,1.5,0.4c0.4,0,0.8-0.1,1.1-0.2
			c0.3-0.1,0.6-0.3,0.9-0.6l1.2,1.4c-0.8,0.9-1.9,1.3-3.3,1.3c-0.9,0-1.7-0.2-2.4-0.5c-0.7-0.4-1.2-0.8-1.6-1.5s-0.6-1.3-0.6-2.1
			c0-0.8,0.2-1.5,0.6-2.1c0.4-0.6,0.9-1.1,1.5-1.5c0.7-0.4,1.4-0.5,2.2-0.5c0.8,0,1.5,0.2,2.1,0.5c0.6,0.3,1.1,0.8,1.5,1.5
			c0.4,0.6,0.5,1.4,0.5,2.2C780.4,520.2,780.4,520.4,780.4,520.8z M774.9,518.2c-0.4,0.3-0.6,0.7-0.7,1.2h4
			c-0.1-0.5-0.3-0.9-0.7-1.2c-0.4-0.3-0.8-0.5-1.3-0.5C775.7,517.7,775.3,517.9,774.9,518.2z"/>
		<path class="st2" d="M787.2,523.8c-0.2,0.2-0.5,0.3-0.8,0.4s-0.7,0.1-1.1,0.1c-1,0-1.7-0.2-2.2-0.7c-0.5-0.5-0.8-1.2-0.8-2.2v-3.3
			H781v-1.8h1.2v-2h2.3v2h2v1.8h-2v3.3c0,0.3,0.1,0.6,0.3,0.8c0.2,0.2,0.4,0.3,0.7,0.3c0.4,0,0.7-0.1,0.9-0.3L787.2,523.8z"/>
		<path class="st2" d="M794.7,516.8c0.7,0.6,1,1.5,1,2.7v4.6h-2.2v-1c-0.4,0.8-1.3,1.1-2.5,1.1c-0.6,0-1.2-0.1-1.6-0.3
			s-0.8-0.5-1-0.9c-0.2-0.4-0.4-0.8-0.4-1.3c0-0.8,0.3-1.3,0.8-1.8c0.6-0.4,1.4-0.6,2.6-0.6h1.9c0-0.5-0.2-0.9-0.5-1.2
			c-0.3-0.3-0.8-0.4-1.4-0.4c-0.4,0-0.9,0.1-1.3,0.2c-0.4,0.1-0.8,0.3-1.1,0.5l-0.8-1.6c0.4-0.3,1-0.5,1.6-0.7s1.2-0.3,1.9-0.3
			C793,516,794,516.3,794.7,516.8z M792.7,522.4c0.3-0.2,0.5-0.5,0.7-0.8v-0.8h-1.6c-1,0-1.4,0.3-1.4,0.9c0,0.3,0.1,0.5,0.4,0.7
			c0.2,0.2,0.6,0.3,1,0.3C792,522.7,792.3,522.6,792.7,522.4z"/>
	</g>
	<g>
		<path class="st2" d="M440.4,859.3c-0.9-0.5-1.5-1.1-2-1.9c-0.5-0.8-0.7-1.8-0.7-2.8s0.2-2,0.7-2.8c0.5-0.8,1.2-1.5,2-1.9
			s1.8-0.7,2.9-0.7c0.9,0,1.7,0.2,2.5,0.5c0.7,0.3,1.4,0.8,1.9,1.4l-1.6,1.4c-0.7-0.8-1.6-1.2-2.6-1.2c-0.7,0-1.2,0.1-1.7,0.4
			s-0.9,0.7-1.2,1.2s-0.4,1.1-0.4,1.7s0.1,1.2,0.4,1.7s0.7,0.9,1.2,1.2s1.1,0.4,1.7,0.4c1,0,1.9-0.4,2.6-1.2l1.6,1.4
			c-0.5,0.6-1.1,1.1-1.9,1.4c-0.7,0.3-1.6,0.5-2.5,0.5C442.3,860,441.3,859.7,440.4,859.3z"/>
		<path class="st2" d="M455.2,852.5c0.7,0.6,1,1.5,1,2.7v4.6H454v-1c-0.4,0.8-1.3,1.1-2.5,1.1c-0.6,0-1.2-0.1-1.6-0.3
			s-0.8-0.5-1-0.9c-0.2-0.4-0.4-0.8-0.4-1.3c0-0.8,0.3-1.3,0.8-1.8c0.6-0.4,1.4-0.6,2.6-0.6h1.9c0-0.5-0.2-0.9-0.5-1.2
			c-0.3-0.3-0.8-0.4-1.4-0.4c-0.4,0-0.9,0.1-1.3,0.2c-0.4,0.1-0.8,0.3-1.1,0.5l-0.8-1.6c0.4-0.3,1-0.5,1.6-0.7s1.2-0.3,1.9-0.3
			C453.6,851.6,454.5,851.9,455.2,852.5z M453.2,858.1c0.3-0.2,0.5-0.5,0.7-0.8v-0.8h-1.6c-1,0-1.4,0.3-1.4,0.9
			c0,0.3,0.1,0.5,0.4,0.7c0.2,0.2,0.6,0.3,1,0.3C452.6,858.3,452.9,858.3,453.2,858.1z"/>
		<path class="st2" d="M459.1,859.7c-0.6-0.2-1.2-0.4-1.5-0.6l0.8-1.7c0.4,0.2,0.8,0.4,1.3,0.6c0.5,0.1,1,0.2,1.5,0.2
			c1,0,1.5-0.2,1.5-0.7c0-0.2-0.1-0.4-0.4-0.5c-0.3-0.1-0.7-0.2-1.2-0.3c-0.7-0.1-1.2-0.2-1.6-0.3c-0.4-0.1-0.8-0.4-1.1-0.7
			c-0.3-0.3-0.5-0.8-0.5-1.4c0-0.5,0.1-1,0.4-1.4c0.3-0.4,0.7-0.7,1.3-0.9c0.6-0.2,1.2-0.3,2-0.3c0.6,0,1.1,0.1,1.7,0.2
			c0.6,0.1,1,0.3,1.4,0.5l-0.8,1.7c-0.7-0.4-1.5-0.6-2.3-0.6c-0.5,0-0.9,0.1-1.1,0.2c-0.3,0.1-0.4,0.3-0.4,0.5
			c0,0.3,0.1,0.4,0.4,0.5c0.3,0.1,0.7,0.2,1.3,0.3c0.7,0.1,1.2,0.2,1.6,0.4s0.8,0.4,1.1,0.7c0.3,0.3,0.5,0.8,0.5,1.4
			c0,0.5-0.2,0.9-0.5,1.3c-0.3,0.4-0.7,0.7-1.3,0.9c-0.6,0.2-1.3,0.3-2,0.3C460.4,859.9,459.7,859.8,459.1,859.7z"/>
		<path class="st2" d="M471.5,859.4c-0.2,0.2-0.5,0.3-0.8,0.4s-0.7,0.1-1.1,0.1c-1,0-1.7-0.2-2.2-0.7c-0.5-0.5-0.8-1.2-0.8-2.2v-3.3
			h-1.2v-1.8h1.2v-2h2.3v2h2v1.8h-2v3.3c0,0.3,0.1,0.6,0.3,0.8c0.2,0.2,0.4,0.3,0.7,0.3c0.4,0,0.7-0.1,0.9-0.3L471.5,859.4z"/>
		<path class="st2" d="M472.9,850.2c-0.3-0.3-0.4-0.6-0.4-0.9s0.1-0.7,0.4-0.9c0.3-0.3,0.6-0.4,1-0.4s0.8,0.1,1,0.4
			c0.3,0.2,0.4,0.5,0.4,0.9c0,0.4-0.1,0.7-0.4,1c-0.3,0.3-0.6,0.4-1,0.4S473.2,850.5,472.9,850.2z M472.8,851.7h2.3v8.1h-2.3V851.7z
			"/>
		<path class="st2" d="M477.3,848.7h2.3v11.1h-2.3V848.7z"/>
		<path class="st2" d="M481.9,848.7h2.3v11.1h-2.3V848.7z"/>
		<path class="st2" d="M487.9,859.4c-0.7-0.4-1.2-0.8-1.6-1.5s-0.6-1.3-0.6-2.1c0-0.8,0.2-1.5,0.6-2.1s0.9-1.1,1.6-1.5
			c0.7-0.4,1.4-0.5,2.3-0.5s1.6,0.2,2.3,0.5c0.7,0.4,1.2,0.8,1.6,1.5c0.4,0.6,0.6,1.3,0.6,2.1c0,0.8-0.2,1.5-0.6,2.1
			c-0.4,0.6-0.9,1.1-1.6,1.5c-0.7,0.4-1.4,0.5-2.3,0.5S488.6,859.7,487.9,859.4z M491.7,857.4c0.4-0.4,0.6-0.9,0.6-1.6
			c0-0.7-0.2-1.2-0.6-1.6c-0.4-0.4-0.9-0.6-1.5-0.6s-1.1,0.2-1.5,0.6c-0.4,0.4-0.6,0.9-0.6,1.6c0,0.7,0.2,1.2,0.6,1.6
			c0.4,0.4,0.9,0.6,1.5,0.6S491.3,857.8,491.7,857.4z"/>
		<path class="st2" d="M412.7,877.6c-0.8-0.2-1.4-0.5-1.9-0.9l0.8-1.8c0.5,0.3,1,0.6,1.6,0.8c0.6,0.2,1.2,0.3,1.9,0.3
			c0.7,0,1.2-0.1,1.5-0.3s0.5-0.5,0.5-0.8c0-0.3-0.1-0.5-0.3-0.6s-0.4-0.3-0.8-0.4c-0.3-0.1-0.7-0.2-1.2-0.3c-0.8-0.2-1.5-0.4-2-0.6
			c-0.5-0.2-0.9-0.5-1.3-0.9c-0.4-0.4-0.5-1-0.5-1.7c0-0.6,0.2-1.2,0.5-1.7s0.8-0.9,1.5-1.2s1.5-0.4,2.4-0.4c0.7,0,1.3,0.1,2,0.2
			c0.6,0.2,1.2,0.4,1.7,0.7l-0.8,1.8c-1-0.5-1.9-0.8-2.9-0.8c-0.7,0-1.2,0.1-1.5,0.3c-0.3,0.2-0.5,0.5-0.5,0.9
			c0,0.4,0.2,0.6,0.6,0.8s0.9,0.3,1.7,0.5c0.8,0.2,1.5,0.4,2,0.6c0.5,0.2,0.9,0.5,1.3,0.9s0.5,1,0.5,1.7c0,0.6-0.2,1.1-0.5,1.6
			s-0.8,0.9-1.5,1.2s-1.5,0.4-2.4,0.4C414.2,878,413.4,877.9,412.7,877.6z"/>
		<path class="st2" d="M427.2,870.5c0.7,0.6,1,1.5,1,2.7v4.6H426v-1c-0.4,0.8-1.3,1.1-2.5,1.1c-0.6,0-1.2-0.1-1.6-0.3
			s-0.8-0.5-1-0.9c-0.2-0.4-0.4-0.8-0.4-1.3c0-0.8,0.3-1.3,0.8-1.8c0.6-0.4,1.4-0.6,2.6-0.6h1.9c0-0.5-0.2-0.9-0.5-1.2
			c-0.3-0.3-0.8-0.4-1.4-0.4c-0.4,0-0.9,0.1-1.3,0.2c-0.4,0.1-0.8,0.3-1.1,0.5l-0.8-1.6c0.4-0.3,1-0.5,1.6-0.7s1.2-0.3,1.9-0.3
			C425.5,869.6,426.5,869.9,427.2,870.5z M425.2,876.1c0.3-0.2,0.5-0.5,0.7-0.8v-0.8h-1.6c-1,0-1.4,0.3-1.4,0.9
			c0,0.3,0.1,0.5,0.4,0.7c0.2,0.2,0.6,0.3,1,0.3C424.5,876.3,424.9,876.3,425.2,876.1z"/>
		<path class="st2" d="M437.6,870.5c0.6,0.6,0.9,1.5,0.9,2.7v4.6h-2.3v-4.3c0-0.6-0.1-1.1-0.4-1.4c-0.3-0.3-0.7-0.5-1.2-0.5
			c-0.6,0-1.1,0.2-1.4,0.5c-0.4,0.4-0.5,0.9-0.5,1.6v4h-2.3v-8.1h2.2v0.9c0.3-0.3,0.7-0.6,1.2-0.8c0.5-0.2,1-0.3,1.5-0.3
			C436.2,869.6,437,869.9,437.6,870.5z"/>
		<path class="st2" d="M445.9,877.4c-0.2,0.2-0.5,0.3-0.8,0.4s-0.7,0.1-1.1,0.1c-1,0-1.7-0.2-2.2-0.7c-0.5-0.5-0.8-1.2-0.8-2.2v-3.3
			h-1.2v-1.8h1.2v-2h2.3v2h2v1.8h-2v3.3c0,0.3,0.1,0.6,0.3,0.8c0.2,0.2,0.4,0.3,0.7,0.3c0.4,0,0.7-0.1,0.9-0.3L445.9,877.4z"/>
		<path class="st2" d="M453.3,870.5c0.7,0.6,1,1.5,1,2.7v4.6h-2.2v-1c-0.4,0.8-1.3,1.1-2.5,1.1c-0.6,0-1.2-0.1-1.6-0.3
			s-0.8-0.5-1-0.9c-0.2-0.4-0.4-0.8-0.4-1.3c0-0.8,0.3-1.3,0.8-1.8c0.6-0.4,1.4-0.6,2.6-0.6h1.9c0-0.5-0.2-0.9-0.5-1.2
			c-0.3-0.3-0.8-0.4-1.4-0.4c-0.4,0-0.9,0.1-1.3,0.2c-0.4,0.1-0.8,0.3-1.1,0.5l-0.8-1.6c0.4-0.3,1-0.5,1.6-0.7s1.2-0.3,1.9-0.3
			C451.7,869.6,452.6,869.9,453.3,870.5z M451.3,876.1c0.3-0.2,0.5-0.5,0.7-0.8v-0.8h-1.6c-1,0-1.4,0.3-1.4,0.9
			c0,0.3,0.1,0.5,0.4,0.7c0.2,0.2,0.6,0.3,1,0.3C450.6,876.3,451,876.3,451.3,876.1z"/>
		<path class="st2" d="M470,873.3c0.3,0.4,0.5,1,0.5,1.6c0,0.9-0.4,1.6-1.1,2.1s-1.8,0.7-3.1,0.7h-5.4v-10.5h5.1
			c1.3,0,2.3,0.2,2.9,0.7c0.7,0.5,1,1.2,1,2c0,0.5-0.1,1-0.4,1.4c-0.2,0.4-0.6,0.7-1,0.9C469.1,872.5,469.6,872.8,470,873.3z
			 M463.3,869.1v2.5h2.4c0.6,0,1.1-0.1,1.4-0.3c0.3-0.2,0.5-0.5,0.5-0.9c0-0.4-0.2-0.7-0.5-0.9c-0.3-0.2-0.8-0.3-1.4-0.3H463.3z
			 M467.5,875.7c0.3-0.2,0.5-0.5,0.5-1c0-0.9-0.6-1.3-1.9-1.3h-2.8v2.6h2.8C466.7,876,467.2,875.9,467.5,875.7z"/>
		<path class="st2" d="M478.3,870.5c0.7,0.6,1,1.5,1,2.7v4.6h-2.2v-1c-0.4,0.8-1.3,1.1-2.5,1.1c-0.6,0-1.2-0.1-1.6-0.3
			s-0.8-0.5-1-0.9c-0.2-0.4-0.4-0.8-0.4-1.3c0-0.8,0.3-1.3,0.8-1.8c0.6-0.4,1.4-0.6,2.6-0.6h1.9c0-0.5-0.2-0.9-0.5-1.2
			c-0.3-0.3-0.8-0.4-1.4-0.4c-0.4,0-0.9,0.1-1.3,0.2c-0.4,0.1-0.8,0.3-1.1,0.5l-0.8-1.6c0.4-0.3,1-0.5,1.6-0.7s1.2-0.3,1.9-0.3
			C476.7,869.6,477.6,869.9,478.3,870.5z M476.3,876.1c0.3-0.2,0.5-0.5,0.7-0.8v-0.8h-1.6c-1,0-1.4,0.3-1.4,0.9
			c0,0.3,0.1,0.5,0.4,0.7c0.2,0.2,0.6,0.3,1,0.3C475.6,876.3,476,876.3,476.3,876.1z"/>
		<path class="st2" d="M484.8,869.9c0.5-0.2,1-0.3,1.6-0.3v2.2c-0.3,0-0.4,0-0.5,0c-0.7,0-1.2,0.2-1.6,0.6c-0.4,0.4-0.6,0.9-0.6,1.7
			v3.8h-2.3v-8.1h2.2v1.1C483.9,870.4,484.3,870.1,484.8,869.9z"/>
		<path class="st2" d="M494.6,870.1c0.6,0.3,1.1,0.8,1.4,1.5c0.4,0.6,0.5,1.4,0.5,2.2s-0.2,1.6-0.5,2.2c-0.3,0.6-0.8,1.1-1.4,1.5
			s-1.3,0.5-2,0.5c-1.1,0-2-0.3-2.5-1v0.9h-2.2v-11.1h2.3v3.9c0.6-0.7,1.4-1,2.4-1C493.3,869.6,494,869.8,494.6,870.1z M493.6,875.4
			c0.4-0.4,0.6-0.9,0.6-1.6c0-0.7-0.2-1.2-0.6-1.6c-0.4-0.4-0.9-0.6-1.5-0.6c-0.6,0-1.1,0.2-1.5,0.6c-0.4,0.4-0.6,0.9-0.6,1.6
			c0,0.7,0.2,1.2,0.6,1.6c0.4,0.4,0.9,0.6,1.5,0.6C492.8,876,493.3,875.8,493.6,875.4z"/>
		<path class="st2" d="M504.2,870.5c0.7,0.6,1,1.5,1,2.7v4.6H503v-1c-0.4,0.8-1.3,1.1-2.5,1.1c-0.6,0-1.2-0.1-1.6-0.3
			s-0.8-0.5-1-0.9c-0.2-0.4-0.4-0.8-0.4-1.3c0-0.8,0.3-1.3,0.8-1.8c0.6-0.4,1.4-0.6,2.6-0.6h1.9c0-0.5-0.2-0.9-0.5-1.2
			c-0.3-0.3-0.8-0.4-1.4-0.4c-0.4,0-0.9,0.1-1.3,0.2c-0.4,0.1-0.8,0.3-1.1,0.5l-0.8-1.6c0.4-0.3,1-0.5,1.6-0.7s1.2-0.3,1.9-0.3
			C502.5,869.6,503.5,869.9,504.2,870.5z M502.2,876.1c0.3-0.2,0.5-0.5,0.7-0.8v-0.8h-1.6c-1,0-1.4,0.3-1.4,0.9
			c0,0.3,0.1,0.5,0.4,0.7c0.2,0.2,0.6,0.3,1,0.3C501.5,876.3,501.9,876.3,502.2,876.1z"/>
		<path class="st2" d="M510.6,869.9c0.5-0.2,1-0.3,1.6-0.3v2.2c-0.3,0-0.4,0-0.5,0c-0.7,0-1.2,0.2-1.6,0.6c-0.4,0.4-0.6,0.9-0.6,1.7
			v3.8h-2.3v-8.1h2.2v1.1C509.8,870.4,510.2,870.1,510.6,869.9z"/>
		<path class="st2" d="M519.8,870.5c0.7,0.6,1,1.5,1,2.7v4.6h-2.2v-1c-0.4,0.8-1.3,1.1-2.5,1.1c-0.6,0-1.2-0.1-1.6-0.3
			s-0.8-0.5-1-0.9c-0.2-0.4-0.4-0.8-0.4-1.3c0-0.8,0.3-1.3,0.8-1.8c0.6-0.4,1.4-0.6,2.6-0.6h1.9c0-0.5-0.2-0.9-0.5-1.2
			c-0.3-0.3-0.8-0.4-1.4-0.4c-0.4,0-0.9,0.1-1.3,0.2c-0.4,0.1-0.8,0.3-1.1,0.5l-0.8-1.6c0.4-0.3,1-0.5,1.6-0.7s1.2-0.3,1.9-0.3
			C518.1,869.6,519.1,869.9,519.8,870.5z M517.8,876.1c0.3-0.2,0.5-0.5,0.7-0.8v-0.8h-1.6c-1,0-1.4,0.3-1.4,0.9
			c0,0.3,0.1,0.5,0.4,0.7c0.2,0.2,0.6,0.3,1,0.3C517.1,876.3,517.5,876.3,517.8,876.1z"/>
	</g>
	<g>
		<path class="st2" d="M216.2,687.9c-0.8-0.2-1.4-0.5-1.9-0.9l0.8-1.8c0.5,0.3,1,0.6,1.6,0.8c0.6,0.2,1.2,0.3,1.9,0.3
			c0.7,0,1.2-0.1,1.5-0.3s0.5-0.5,0.5-0.8c0-0.3-0.1-0.5-0.3-0.6s-0.4-0.3-0.8-0.4c-0.3-0.1-0.7-0.2-1.2-0.3c-0.8-0.2-1.5-0.4-2-0.6
			c-0.5-0.2-0.9-0.5-1.3-0.9c-0.4-0.4-0.5-1-0.5-1.7c0-0.6,0.2-1.2,0.5-1.7s0.8-0.9,1.5-1.2s1.5-0.4,2.4-0.4c0.7,0,1.3,0.1,2,0.2
			c0.6,0.2,1.2,0.4,1.7,0.7l-0.8,1.8c-1-0.5-1.9-0.8-2.9-0.8c-0.7,0-1.2,0.1-1.5,0.3c-0.3,0.2-0.5,0.5-0.5,0.9
			c0,0.4,0.2,0.6,0.6,0.8s0.9,0.3,1.7,0.5c0.8,0.2,1.5,0.4,2,0.6c0.5,0.2,0.9,0.5,1.3,0.9s0.5,1,0.5,1.7c0,0.6-0.2,1.1-0.5,1.6
			s-0.8,0.9-1.5,1.2s-1.5,0.4-2.4,0.4C217.7,688.3,216.9,688.2,216.2,687.9z"/>
		<path class="st2" d="M230.7,680.8c0.7,0.6,1,1.5,1,2.7v4.6h-2.2v-1c-0.4,0.8-1.3,1.1-2.5,1.1c-0.6,0-1.2-0.1-1.6-0.3
			s-0.8-0.5-1-0.9c-0.2-0.4-0.4-0.8-0.4-1.3c0-0.8,0.3-1.3,0.8-1.8c0.6-0.4,1.4-0.6,2.6-0.6h1.9c0-0.5-0.2-0.9-0.5-1.2
			c-0.3-0.3-0.8-0.4-1.4-0.4c-0.4,0-0.9,0.1-1.3,0.2c-0.4,0.1-0.8,0.3-1.1,0.5l-0.8-1.6c0.4-0.3,1-0.5,1.6-0.7s1.2-0.3,1.9-0.3
			C229,679.9,230,680.2,230.7,680.8z M228.7,686.4c0.3-0.2,0.5-0.5,0.7-0.8v-0.8h-1.6c-1,0-1.4,0.3-1.4,0.9c0,0.3,0.1,0.5,0.4,0.7
			c0.2,0.2,0.6,0.3,1,0.3C228,686.6,228.4,686.5,228.7,686.4z"/>
		<path class="st2" d="M241.1,680.8c0.6,0.6,0.9,1.5,0.9,2.7v4.6h-2.3v-4.3c0-0.6-0.1-1.1-0.4-1.4c-0.3-0.3-0.7-0.5-1.2-0.5
			c-0.6,0-1.1,0.2-1.4,0.5c-0.4,0.4-0.5,0.9-0.5,1.6v4h-2.3V680h2.2v0.9c0.3-0.3,0.7-0.6,1.2-0.8c0.5-0.2,1-0.3,1.5-0.3
			C239.7,679.9,240.5,680.2,241.1,680.8z"/>
		<path class="st2" d="M255.5,685.8h-4.9l-0.9,2.3h-2.5l4.7-10.5h2.4l4.7,10.5h-2.5L255.5,685.8z M254.7,684l-1.7-4l-1.7,4H254.7z"
			/>
		<path class="st2" d="M267.2,680.8c0.6,0.6,0.9,1.5,0.9,2.7v4.6h-2.3v-4.3c0-0.6-0.1-1.1-0.4-1.4c-0.3-0.3-0.7-0.5-1.2-0.5
			c-0.6,0-1.1,0.2-1.4,0.5c-0.4,0.4-0.5,0.9-0.5,1.6v4h-2.3V680h2.2v0.9c0.3-0.3,0.7-0.6,1.2-0.8c0.5-0.2,1-0.3,1.5-0.3
			C265.8,679.9,266.6,680.2,267.2,680.8z"/>
		<path class="st2" d="M275.5,687.7c-0.2,0.2-0.5,0.3-0.8,0.4s-0.7,0.1-1.1,0.1c-1,0-1.7-0.2-2.2-0.7c-0.5-0.5-0.8-1.2-0.8-2.2V682
			h-1.2v-1.8h1.2v-2h2.3v2h2v1.8h-2v3.3c0,0.3,0.1,0.6,0.3,0.8c0.2,0.2,0.4,0.3,0.7,0.3c0.4,0,0.7-0.1,0.9-0.3L275.5,687.7z"/>
		<path class="st2" d="M278.1,687.7c-0.7-0.4-1.2-0.8-1.6-1.5s-0.6-1.3-0.6-2.1c0-0.8,0.2-1.5,0.6-2.1s0.9-1.1,1.6-1.5
			c0.7-0.4,1.4-0.5,2.3-0.5s1.6,0.2,2.3,0.5c0.7,0.4,1.2,0.8,1.6,1.5c0.4,0.6,0.6,1.3,0.6,2.1c0,0.8-0.2,1.5-0.6,2.1
			c-0.4,0.6-0.9,1.1-1.6,1.5c-0.7,0.4-1.4,0.5-2.3,0.5S278.7,688,278.1,687.7z M281.8,685.7c0.4-0.4,0.6-0.9,0.6-1.6
			c0-0.7-0.2-1.2-0.6-1.6c-0.4-0.4-0.9-0.6-1.5-0.6s-1.1,0.2-1.5,0.6c-0.4,0.4-0.6,0.9-0.6,1.6c0,0.7,0.2,1.2,0.6,1.6
			c0.4,0.4,0.9,0.6,1.5,0.6S281.5,686.1,281.8,685.7z M281,676.8h2.5l-2.7,2.2H279L281,676.8z"/>
		<path class="st2" d="M293.7,680.8c0.6,0.6,0.9,1.5,0.9,2.7v4.6h-2.3v-4.3c0-0.6-0.1-1.1-0.4-1.4c-0.3-0.3-0.7-0.5-1.2-0.5
			c-0.6,0-1.1,0.2-1.4,0.5c-0.4,0.4-0.5,0.9-0.5,1.6v4h-2.3V680h2.2v0.9c0.3-0.3,0.7-0.6,1.2-0.8c0.5-0.2,1-0.3,1.5-0.3
			C292.2,679.9,293.1,680.2,293.7,680.8z"/>
	</g>
</g>
</svg>
