<svg xmlns="http://www.w3.org/2000/svg" xmlns:xlink="http://www.w3.org/1999/xlink" viewBox="0 0 1080 1080">
    <defs>
        <style>.cls-2{stroke-miterlimit:10;}.cls-2{fill:none;stroke:#fff;stroke-width:8px;}.cls-3{font-size:15px;fill:#fff;font-family:Montserrat-Bold, Montserrat;font-weight:700;}.cls-4{letter-spacing:-0.015em;}.cls-5{fill:url(#Degradado_sin_nombre);}.cls-6{fill:url(#Degradado_sin_nombre-8);}.cls-7{letter-spacing:-0.017em;}.cls-8{letter-spacing:0.006em;}</style>
        <linearGradient id="Degradado_sin_nombre" x1="597.6523" y1="509.2114" x2="671.2109" y2="509.2114" gradientUnits="userSpaceOnUse">
            <stop offset="0" stop-color="#fff"/>
            <stop offset="1"/>
        </linearGradient>
        <linearGradient id="Degradado_sin_nombre-8" x1="522.6519" y1="563.2114" x2="652.3408" y2="563.2114" xlink:href="#Degradado_sin_nombre"/>
    </defs>
    <g class="zone" id="4_Paus" data-name="4_Paus">
        <path class="cls-1" d="M570.2721,448.6241a19.3274,19.3274,0,0,1-5.1007-3.7955c-7.66-7.66-14.836-21.1738-17.9663-30.5635-.2769-.8315-.5127-1.5092-.7129-2.062-.2217.1255-.4561.251-.7031.3745-8.4283,4.2139-15.1665-5.2236-18.044-9.2529-.5464-.7646-1.0576-1.5059-1.5454-2.2129-1.4248-2.0659-3.1977-4.6372-4.084-4.7817-.1025-.0166-1.081-.1055-3.7158,1.87l-2.4805,1.8564c-24.1875,18.0894-37.5766,28.668-39.7959,31.4424l-.1909.2212-64,69-30.104,34.12-.1948.17a3.9929,3.9929,0,0,0-1.2456,1.9921c.0581.21.8882,1.2066,3.8769,2.2027,11.9737,3.9912,50.5826,19.4258,52.22,20.081l51.9874,19.4163c3.5089-9.7855,12.7584-22.9116,14.2171-24.95Z"/>
    </g>
    <g class="zone" id="4_San_Blas_-_Santo_Domingo" data-name="4_San_Blas_-_Santo_Domingo">
        <path class="cls-1" d="M631.2109,587.4224c9.5108-4.7554,29.0938-20.3887,29.29-20.5459l.4414-.3067a57.2072,57.2072,0,0,0,16.6514-17.666l.499-.8125c7.8408-12.7432,11.0859-18.0181,17.6884-22.4194,4.127-2.752,5.5176-3.6787-1.1874-14.5757-8.001-13-18.7188-34.4028-19.1719-35.3071l-.1143-.2505c-.5976-1.3706-4.0918-8.18-12.8721-4.8052-2.5468.9795-4.6425,1.89-6.3261,2.6221-4.3877,1.9057-7.2862,3.165-9.9268,1.0713-2.748-2.1783-2.1347-5.5523-1.1181-11.1421,1.2158-6.6851.0546-8.15-2.0528-10.8106a31.0293,31.0293,0,0,1-2.4414-3.416c-.7744-1.291-2.0713-3.4517-2.7314-3.61-.12-.0289-1.2578-.2188-4.7188,1.9443-4.9306,3.081-9.5889,5.9917-14.3144,4.6626-3.9121-1.1006-6.0874-4.6738-7.3833-7.2656-3.584-7.1685-10.542-19.4283-11.7237-21.503a2.7388,2.7388,0,0,0-3.2133-.5722c-2.52,1.0078-6.5015,6.2622-9.9078,13.0752l-5.1474,10.269c-.0142.0237-.0473.0718-.0674.1038l.0019.0012L509.25,558.3315c-4.3017,5.9978-10.9517,16.5684-13.29,23.1672l23.44,8.7542,88.7612,33.9087a5.0116,5.0116,0,0,0,3.6983-.8091c1.7915-1.33,2.88-4.3037,3.1489-8.602C616.0771,597.6411,619.8008,593.1274,631.2109,587.4224Z"/>
    </g>
    <g id="_Strokes">
        <path class="cls-2" d="M473,429l-64,69-30,34s-8,7,4,11,52,20,52,20l83,31,89,34s11,3,12-13,4-19,14-24,30-21,30-21,10-6,18-19,11-18,17-22,8-7,0-20-19-35-19-35-5-12-18-7-14,8-12-3-2-12-5-17-5-8-13-3-12,7-16-1-12-22-12-22a6.8454,6.8454,0,0,0-8-2c-5,2-10,11-12,15l-5,10s-3,5-10-2-14-20-17-29-3-6-7-4-8-1-13-8-7-12-15-6S477,424,473,429Z"/>
        <path class="cls-2" d="M578,444,506,556s-13.6169,18.9744-14.8085,27.9872"/>
    </g>
    <g id="Textos" class="text">
        <text class="cls-3" transform="translate(463.6519 501.5913)">
            <tspan class="cls-4">P</tspan>
            <tspan x="10.7549" y="0">aus</tspan>
        </text>
        <path class="cls-5" d="M598.0723,512.5562l.8242-1.83a6.1753,6.1753,0,0,0,3.4648,1.0947c1.44,0,2.0254-.48,2.0254-1.125,0-1.9649-6.1055-.6148-6.1055-4.5147,0-1.7851,1.4405-3.27,4.4258-3.27a7.0406,7.0406,0,0,1,3.6446.93l-.75,1.8447a5.9334,5.9334,0,0,0-2.91-.8247c-1.4394,0-1.9941.54-1.9941,1.2,0,1.9351,6.1035.6,6.1035,4.4551,0,1.7549-1.4541,3.2549-4.4541,3.2549A7.48,7.48,0,0,1,598.0723,512.5562Z"/>
        <path class="cls-5" d="M615.4414,508.9863v4.605H613.252v-1.0049a2.65,2.65,0,0,1-2.461,1.125c-1.89,0-3.0137-1.05-3.0137-2.4448,0-1.4253,1.0039-2.415,3.4649-2.415h1.8594c0-1.0049-.6-1.59-1.8594-1.59a3.883,3.883,0,0,0-2.3262.75l-.84-1.6352a6.2047,6.2047,0,0,1,3.48-.9746C614.0166,505.4019,615.4414,506.5415,615.4414,508.9863Zm-2.34,2.0552v-.8252h-1.6055c-1.0947,0-1.4395.4053-1.4395.9453,0,.585.4952.9746,1.32.9746A1.7239,1.7239,0,0,0,613.1016,511.0415Z"/>
        <path class="cls-5" d="M625.8066,508.9717v4.62h-2.34v-4.26c0-1.3051-.6006-1.9047-1.6348-1.9047-1.125,0-1.9355.69-1.9355,2.1748v3.99h-2.34v-8.07h2.2344v.9453a3.535,3.535,0,0,1,2.67-1.0649C624.3662,505.4019,625.8066,506.5117,625.8066,508.9717Z"/>
        <path class="cls-5" d="M641.9609,510.7266c0,1.8149-1.4394,2.8647-4.1992,2.8647h-5.43v-10.5h5.1289c2.625,0,3.9746,1.0947,3.9746,2.73a2.5218,2.5218,0,0,1-1.3945,2.31A2.593,2.593,0,0,1,641.9609,510.7266Zm-7.2148-5.8047v2.4746h2.415c1.1846,0,1.83-.42,1.83-1.2451s-.6455-1.23-1.83-1.23Zm4.7695,5.55c0-.8853-.6738-1.3052-1.9345-1.3052h-2.835v2.5947h2.835C638.8418,511.7612,639.5156,511.3716,639.5156,510.4717Z"/>
        <path class="cls-5" d="M643.6406,502.4619h2.34v11.1294h-2.34Z"/>
        <path class="cls-5" d="M655.2959,508.9863v4.605h-2.19v-1.0049a2.6469,2.6469,0,0,1-2.459,1.125c-1.8906,0-3.0156-1.05-3.0156-2.4448,0-1.4253,1.0058-2.415,3.4648-2.415h1.86c0-1.0049-.6006-1.59-1.86-1.59a3.8747,3.8747,0,0,0-2.3242.75l-.84-1.6352a6.2019,6.2019,0,0,1,3.48-.9746C653.8711,505.4019,655.2959,506.5415,655.2959,508.9863Zm-2.34,2.0552v-.8252h-1.6045c-1.0957,0-1.44.4053-1.44.9453,0,.585.4951.9746,1.3194.9746A1.7252,1.7252,0,0,0,652.9561,511.0415Z"/>
        <path class="cls-5" d="M656.6309,512.8413l.78-1.68a5.5227,5.5227,0,0,0,2.8047.78c1.08,0,1.4854-.2852,1.4854-.7349,0-1.32-4.875.03-4.875-3.1948,0-1.53,1.38-2.61,3.7343-2.61a6.6422,6.6422,0,0,1,3.1055.7045l-.78,1.6651a4.637,4.637,0,0,0-2.3252-.6c-1.05,0-1.5.33-1.5.75,0,1.38,4.875.0449,4.875,3.2251,0,1.5-1.3945,2.5649-3.81,2.5649A6.9263,6.9263,0,0,1,656.6309,512.8413Z"/>
        <text class="cls-3" transform="translate(597.6519 513.5913)">San Blas</text>
        <path class="cls-6" d="M523.0718,566.5562l.8252-1.83a6.174,6.174,0,0,0,3.4648,1.0947c1.44,0,2.0249-.48,2.0249-1.125,0-1.9649-6.105-.6148-6.105-4.5147,0-1.7851,1.44-3.27,4.4248-3.27a7.0425,7.0425,0,0,1,3.6451.93l-.75,1.8447a5.9334,5.9334,0,0,0-2.91-.8247c-1.4394,0-1.9946.54-1.9946,1.2,0,1.9351,6.1045.6,6.1045,4.4551,0,1.7549-1.4546,3.2549-4.4546,3.2549A7.4824,7.4824,0,0,1,523.0718,566.5562Z"/>
        <path class="cls-6" d="M540.4414,562.9863v4.605h-2.19v-1.0049a2.6487,2.6487,0,0,1-2.46,1.125c-1.89,0-3.0146-1.05-3.0146-2.4448,0-1.4253,1.0048-2.415,3.4648-2.415h1.86c0-1.0049-.6-1.59-1.86-1.59a3.8789,3.8789,0,0,0-2.3252.75l-.84-1.6352a6.2031,6.2031,0,0,1,3.48-.9746C539.0166,559.4019,540.4414,560.5415,540.4414,562.9863Zm-2.34,2.0552v-.8252h-1.605c-1.0952,0-1.44.4053-1.44.9453,0,.585.4952.9746,1.32.9746A1.7245,1.7245,0,0,0,538.1016,565.0415Z"/>
        <path class="cls-6" d="M550.8066,562.9717v4.62h-2.34v-4.26c0-1.3051-.6006-1.9047-1.6348-1.9047-1.125,0-1.9355.69-1.9355,2.1748v3.99h-2.34v-8.07h2.2344v.9453a3.535,3.535,0,0,1,2.67-1.0649C549.3662,559.4019,550.8066,560.5117,550.8066,562.9717Z"/>
        <path class="cls-6" d="M558.126,567.2012a3.341,3.341,0,0,1-1.9053.51c-1.9043,0-3.0146-.9751-3.0146-2.895v-3.3149h-1.2452v-1.8h1.2452v-1.9649h2.3408v1.9649h2.01v1.8h-2.01v3.2851a.94.94,0,0,0,1.0039,1.065,1.5745,1.5745,0,0,0,.9453-.3Z"/>
        <path class="cls-6" d="M558.5918,563.5566a4.4414,4.4414,0,1,1,4.4394,4.1548A4.154,4.154,0,0,1,558.5918,563.5566Zm6.4941,0a2.0692,2.0692,0,1,0-2.0547,2.2349A2.0362,2.0362,0,0,0,565.0859,563.5566Z"/>
        <path class="cls-6" d="M573.4258,557.0918h4.7695c3.4356,0,5.791,2.07,5.791,5.25s-2.3554,5.25-5.791,5.25h-4.7695Zm4.65,8.5044a3.26,3.26,0,1,0,0-6.51h-2.2207v6.51Z"/>
        <path class="cls-6" d="M585.0508,563.5566a4.4419,4.4419,0,1,1,4.4394,4.1548A4.154,4.154,0,0,1,585.0508,563.5566Zm6.4941,0a2.0687,2.0687,0,1,0-2.0547,2.2349A2.0362,2.0362,0,0,0,591.5449,563.5566Z"/>
        <path class="cls-6" d="M609.11,562.9717v4.62h-2.34v-4.26c0-1.3051-.585-1.9047-1.53-1.9047-1.05,0-1.7851.6748-1.7851,2.1147v4.05h-2.34v-4.26c0-1.3051-.5547-1.9047-1.5293-1.9047-1.0351,0-1.7695.6748-1.7695,2.1147v4.05h-2.34v-8.07h2.2343v.93a3.2677,3.2677,0,0,1,2.5352-1.05,3.0106,3.0106,0,0,1,2.6543,1.32,3.6277,3.6277,0,0,1,2.91-1.32C607.7305,559.4019,609.11,560.5117,609.11,562.9717Z"/>
        <path class="cls-6" d="M610.9258,557.0918a1.3377,1.3377,0,0,1,1.4551-1.3052,1.3136,1.3136,0,0,1,1.455,1.26,1.4614,1.4614,0,0,1-2.91.0449Zm.2851,2.43h2.34v8.07h-2.34Z"/>
        <path class="cls-6" d="M623.9756,562.9717v4.62h-2.34v-4.26c0-1.3051-.6005-1.9047-1.6347-1.9047-1.125,0-1.9346.69-1.9346,2.1748v3.99h-2.34v-8.07h2.2343v.9453a3.5322,3.5322,0,0,1,2.67-1.0649C622.5352,559.4019,623.9756,560.5117,623.9756,562.9717Z"/>
        <path class="cls-6" d="M634.5059,559.5215v6.72c0,3-1.6211,4.38-4.53,4.38a6.6487,6.6487,0,0,1-3.96-1.11l.93-1.68a4.82,4.82,0,0,0,2.85.915c1.65,0,2.3711-.75,2.3711-2.2046v-.3452a3.3238,3.3238,0,0,1-2.5508,1.0049,3.9019,3.9019,0,1,1,0-7.7993,3.24,3.24,0,0,1,2.67,1.1547v-1.0351Zm-2.3106,3.78a2.1272,2.1272,0,1,0-2.1152,1.98A1.9594,1.9594,0,0,0,632.1953,563.3013Z"/>
        <path class="cls-6" d="M636.08,563.5566a4.4419,4.4419,0,1,1,4.44,4.1548A4.1543,4.1543,0,0,1,636.08,563.5566Zm6.4951,0a2.0687,2.0687,0,1,0-2.0547,2.2349A2.0363,2.0363,0,0,0,642.5752,563.5566Z"/>
        <text class="cls-3" transform="translate(522.6519 567.5913)">San<tspan class="cls-7" x="29.1895" y="0">t</tspan>
            <tspan x="35.4595" y="0">o Domi</tspan>
            <tspan class="cls-8" x="91.9941" y="0">n</tspan>
            <tspan x="102.4487" y="0">go</tspan>
        </text>
    </g>
</svg>