<?xml version="1.0" encoding="utf-8"?>
<!-- Generator: Adobe Illustrator 24.0.2, SVG Export Plug-In . SVG Version: 6.00 Build 0)  -->
<svg version="1.1" id="Capa_1" xmlns="http://www.w3.org/2000/svg" xmlns:xlink="http://www.w3.org/1999/xlink" x="0px" y="0px"
	 viewBox="0 0 1080 1080" style="enable-background:new 0 0 1080 1080;" xml:space="preserve">
<style type="text/css">
	.st1{fill:none;stroke:#FFFFFF;stroke-width:8;stroke-miterlimit:10;}
	.st2{enable-background:new    ;}
	.st3{fill:#FFFFFF;}
</style>
<g class="zone" id="4_Paus" data-name="4_Paus">
	<path class="st0" d="M604.8,349.8c-5.6-2.9-16.1-4-20.4-8.6c-22.7-22.7-43.9-62.7-53.2-90.5c-2.9-7.1-6.1-10.1-6.7-11.8
		c-0.7,0.4-5.8,2.7-6.6,3.1c-24.9,12.5-35.8-11.8-44.3-23.7c-1.6-2.3-3.1-4.5-4.6-6.6c-4.2-6.1-9.5-13.7-12.1-14.2
		c-0.3,0-6.1-4-13.9,1.9l-9.3,5.7c-71.6,53.5-105.4,78.6-112,86.8l-10,9.6L130.3,497.3l-87.6,99.2l-4,7c-1.8,1.6-0.7,8.3-1.3,10.6
		c0.2,0.6,2.6,3.6,11.5,6.5c35.4,11.8,149.7,57.5,154.6,59.4l160.3,59.3c10.4-29,34.6-67.5,38.9-73.6L604.8,349.8z"/>
</g>
<g class="zone" id="4_San_Blas_-_Santo_Domingo" data-name="4_San_Blas_-_Santo_Domingo">
	<path class="st0" d="M769.3,759.1c28.3-14.2,86.4-61,87-61.5l7.3-5.8c20.1-13.8,29.8-29.7,42.4-50.7l1.5-2.4
		c23.3-38.1,27.6-43.8,47.2-56.9c12.3-8.2,16.2-19-3.8-51.6c-23.8-38.9-55.1-101.3-56.5-104l-2.1-3.4c-1.8-4.1-18.9-19.6-32-16.9
		c-7.7-0.6-14.9,3-19.9,5.2c-13,5.7-26.5,12.7-31.2,9.4c-3.5-2.4-0.5-8.3,2.5-25c3.6-20-7.3-32.7-13.6-40.6c-2.6-3.2-5.7-8.4-7.9-12
		c-2.3-3.9-6.9-5.4-8.9-5.8c-0.4-0.1-9.5-0.5-19.8,6c-14.7,9.2-19.8,16.7-33.8,12.8c-11.6-3.3-14.7-18.2-18.6-26
		c-10.7-21.4-26.6-48.2-30.2-54.4c-2.5-2.6-18-3.8-21.2-2.2c-7.5,3-16.8,9.2-26.9,29.5l-15.2,29.1c0,0.1-0.8,1.7-0.9,1.8l-1.1,2.3
		L401.1,668c-12.8,17.9-36.3,55-37.7,73.2l69.6,26l255.1,96.3c3.8,0.7,19.2,2.5,22.4,0.3c5.3-4,13.5-12.6,14.3-25.4
		C727.9,787.2,735.3,776.1,769.3,759.1z"/>
</g>
<g id="_x5F_Strokes">
	<path class="st1" d="M311.8,301.6L130.3,497.3l-85.1,96.4c0,0-22.7,19.9,11.3,31.2S204,681.6,204,681.6l235.4,87.9L691.8,866
		c0,0,31.2,8.5,34-36.9s11.3-53.9,39.7-68.1c28.4-14.2,85.1-59.6,85.1-59.6s28.4-17,51-53.9s31.2-51,48.2-62.4
		c17-11.3,22.7-19.9,0-56.7S896,429.3,896,429.3s-14.2-34-51-19.9s-39.7,22.7-34-8.5s-5.7-34-14.2-48.2s-14.2-22.7-36.9-8.5
		s-34,19.9-45.4-2.8c-11.3-22.7-34-62.4-34-62.4c-5.4-6.7-14.7-9.1-22.7-5.7c-14.2,5.7-28.4,31.2-34,42.5l-14.2,28.4
		c0,0-8.5,14.2-28.4-5.7c-19.9-19.9-39.7-56.7-48.2-82.2s-8.5-17-19.9-11.3c-11.3,5.7-22.7-2.8-36.9-22.7s-19.9-34-42.5-17
		C411.1,222.2,323.2,287.5,311.8,301.6z"/>
	<path class="st1" d="M609.6,344.2L405.4,661.8c0,0-38.6,53.8-42,79.4"/>
</g>
<g id="_x5F_Texto" class="text">
	<g class="st2">
		<path class="st3" d="M190.2,517.5c0.7,0.3,1.2,0.8,1.6,1.3s0.6,1.2,0.6,2c0,0.8-0.2,1.4-0.6,2c-0.4,0.6-0.9,1-1.6,1.3
			c-0.7,0.3-1.5,0.5-2.4,0.5h-2.1v2.9h-2.4v-10.5h4.5C188.7,517.1,189.5,517.2,190.2,517.5z M189.3,522.2c0.4-0.3,0.6-0.8,0.6-1.3
			c0-0.6-0.2-1-0.6-1.4c-0.4-0.3-0.9-0.5-1.7-0.5h-2v3.6h2C188.4,522.7,188.9,522.5,189.3,522.2z"/>
		<path class="st3" d="M194.1,516.4h2.3v11.1h-2.3V516.4z"/>
		<path class="st3" d="M204.7,520.3c0.7,0.6,1,1.5,1,2.7v4.6h-2.2v-1c-0.4,0.8-1.3,1.1-2.5,1.1c-0.6,0-1.2-0.1-1.6-0.3
			s-0.8-0.5-1-0.9c-0.2-0.4-0.4-0.8-0.4-1.3c0-0.8,0.3-1.3,0.8-1.8s1.4-0.6,2.6-0.6h1.9c0-0.5-0.2-0.9-0.5-1.2
			c-0.3-0.3-0.8-0.4-1.4-0.4c-0.4,0-0.9,0.1-1.3,0.2c-0.4,0.1-0.8,0.3-1.1,0.5l-0.8-1.6c0.4-0.3,1-0.5,1.6-0.7s1.2-0.3,1.9-0.3
			C203.1,519.4,204,519.7,204.7,520.3z M202.7,525.8c0.3-0.2,0.5-0.5,0.7-0.8v-0.8h-1.6c-1,0-1.4,0.3-1.4,0.9c0,0.3,0.1,0.5,0.4,0.7
			c0.2,0.2,0.6,0.3,1,0.3C202.1,526.1,202.4,526,202.7,525.8z"/>
		<path class="st3" d="M214.5,525.8v1.8h-7.2v-1.4l4.1-4.9h-4v-1.8h7v1.4l-4.1,4.9H214.5z"/>
		<path class="st3" d="M222.1,520.3c0.7,0.6,1,1.5,1,2.7v4.6h-2.2v-1c-0.4,0.8-1.3,1.1-2.5,1.1c-0.6,0-1.2-0.1-1.6-0.3
			s-0.8-0.5-1-0.9c-0.2-0.4-0.4-0.8-0.4-1.3c0-0.8,0.3-1.3,0.8-1.8s1.4-0.6,2.6-0.6h1.9c0-0.5-0.2-0.9-0.5-1.2
			c-0.3-0.3-0.8-0.4-1.4-0.4c-0.4,0-0.9,0.1-1.3,0.2c-0.4,0.1-0.8,0.3-1.1,0.5l-0.8-1.6c0.4-0.3,1-0.5,1.6-0.7s1.2-0.3,1.9-0.3
			C220.5,519.4,221.4,519.7,222.1,520.3z M220.1,525.8c0.3-0.2,0.5-0.5,0.7-0.8v-0.8h-1.6c-1,0-1.4,0.3-1.4,0.9
			c0,0.3,0.1,0.5,0.4,0.7c0.2,0.2,0.6,0.3,1,0.3C219.5,526.1,219.8,526,220.1,525.8z"/>
		<path class="st3" d="M237.7,516.4v11.1h-2.2v-0.9c-0.6,0.7-1.4,1-2.5,1c-0.8,0-1.4-0.2-2.1-0.5c-0.6-0.3-1.1-0.8-1.4-1.5
			c-0.4-0.6-0.5-1.4-0.5-2.2s0.2-1.6,0.5-2.2c0.3-0.6,0.8-1.1,1.4-1.5c0.6-0.3,1.3-0.5,2.1-0.5c1,0,1.8,0.3,2.4,1v-3.9H237.7z
			 M234.8,525.2c0.4-0.4,0.6-0.9,0.6-1.6c0-0.7-0.2-1.2-0.6-1.6c-0.4-0.4-0.9-0.6-1.5-0.6c-0.6,0-1.1,0.2-1.5,0.6
			c-0.4,0.4-0.6,0.9-0.6,1.6c0,0.7,0.2,1.2,0.6,1.6c0.4,0.4,0.9,0.6,1.5,0.6C233.9,525.8,234.4,525.6,234.8,525.2z"/>
		<path class="st3" d="M247.7,524.2h-6.1c0.1,0.5,0.4,0.9,0.8,1.2c0.4,0.3,0.9,0.4,1.5,0.4c0.4,0,0.8-0.1,1.1-0.2
			c0.3-0.1,0.6-0.3,0.9-0.6l1.2,1.4c-0.8,0.9-1.9,1.3-3.3,1.3c-0.9,0-1.7-0.2-2.4-0.5c-0.7-0.4-1.2-0.8-1.6-1.5s-0.6-1.3-0.6-2.1
			c0-0.8,0.2-1.5,0.6-2.1c0.4-0.6,0.9-1.1,1.5-1.5c0.7-0.4,1.4-0.5,2.2-0.5c0.8,0,1.5,0.2,2.1,0.5c0.6,0.3,1.1,0.8,1.5,1.5
			c0.4,0.6,0.5,1.4,0.5,2.2C247.8,523.6,247.7,523.8,247.7,524.2z M242.2,521.6c-0.4,0.3-0.6,0.7-0.7,1.2h4
			c-0.1-0.5-0.3-0.9-0.7-1.2c-0.4-0.3-0.8-0.5-1.3-0.5C243,521.1,242.6,521.3,242.2,521.6z"/>
	</g>
	<g class="st2">
		<path class="st3" d="M165.9,546.8c-0.6-0.3-1.1-0.6-1.5-1.1l1.4-1.6c0.6,0.8,1.2,1.2,2,1.2c1,0,1.5-0.6,1.5-1.7v-5h-3.7v-2h6.1
			v6.8c0,1.3-0.3,2.3-1,2.9c-0.6,0.6-1.6,1-2.8,1C167.2,547.2,166.5,547,165.9,546.8z"/>
		<path class="st3" d="M182,538.9v8.1h-2.2v-1c-0.3,0.4-0.7,0.6-1.1,0.8c-0.4,0.2-0.9,0.3-1.4,0.3c-1.1,0-1.9-0.3-2.5-0.9
			s-0.9-1.5-0.9-2.7v-4.6h2.3v4.2c0,1.3,0.5,2,1.6,2c0.6,0,1-0.2,1.4-0.5s0.5-0.9,0.5-1.6v-4H182z"/>
		<path class="st3" d="M190.3,539.7c0.7,0.6,1,1.5,1,2.7v4.6h-2.2v-1c-0.4,0.8-1.3,1.1-2.5,1.1c-0.6,0-1.2-0.1-1.6-0.3
			s-0.8-0.5-1-0.9c-0.2-0.4-0.4-0.8-0.4-1.3c0-0.8,0.3-1.3,0.8-1.8s1.4-0.6,2.6-0.6h1.9c0-0.5-0.2-0.9-0.5-1.2
			c-0.3-0.3-0.8-0.4-1.4-0.4c-0.4,0-0.9,0.1-1.3,0.2c-0.4,0.1-0.8,0.3-1.1,0.5l-0.8-1.6c0.4-0.3,1-0.5,1.6-0.7s1.2-0.3,1.9-0.3
			C188.7,538.8,189.7,539.1,190.3,539.7z M188.3,545.2c0.3-0.2,0.5-0.5,0.7-0.8v-0.8h-1.6c-1,0-1.4,0.3-1.4,0.9
			c0,0.3,0.1,0.5,0.4,0.7c0.2,0.2,0.6,0.3,1,0.3C187.7,545.5,188,545.4,188.3,545.2z"/>
		<path class="st3" d="M200.8,539.7c0.6,0.6,0.9,1.5,0.9,2.7v4.6h-2.3v-4.3c0-0.6-0.1-1.1-0.4-1.4c-0.3-0.3-0.7-0.5-1.2-0.5
			c-0.6,0-1.1,0.2-1.4,0.5s-0.5,0.9-0.5,1.6v4h-2.3v-8.1h2.2v0.9c0.3-0.3,0.7-0.6,1.2-0.8c0.5-0.2,1-0.3,1.5-0.3
			C199.4,538.8,200.2,539.1,200.8,539.7z"/>
		<path class="st3" d="M215.2,536.9c0.7,0.3,1.2,0.8,1.6,1.3s0.6,1.2,0.6,2c0,0.8-0.2,1.4-0.6,2c-0.4,0.6-0.9,1-1.6,1.3
			c-0.7,0.3-1.5,0.5-2.4,0.5h-2.1v2.9h-2.4v-10.5h4.5C213.7,536.5,214.5,536.6,215.2,536.9z M214.3,541.6c0.4-0.3,0.6-0.8,0.6-1.3
			c0-0.6-0.2-1-0.6-1.4c-0.4-0.3-0.9-0.5-1.7-0.5h-2v3.6h2C213.4,542.1,213.9,541.9,214.3,541.6z"/>
		<path class="st3" d="M225,539.7c0.7,0.6,1,1.5,1,2.7v4.6h-2.2v-1c-0.4,0.8-1.3,1.1-2.5,1.1c-0.6,0-1.2-0.1-1.6-0.3s-0.8-0.5-1-0.9
			c-0.2-0.4-0.4-0.8-0.4-1.3c0-0.8,0.3-1.3,0.8-1.8s1.4-0.6,2.6-0.6h1.9c0-0.5-0.2-0.9-0.5-1.2c-0.3-0.3-0.8-0.4-1.4-0.4
			c-0.4,0-0.9,0.1-1.3,0.2c-0.4,0.1-0.8,0.3-1.1,0.5l-0.8-1.6c0.4-0.3,1-0.5,1.6-0.7s1.2-0.3,1.9-0.3
			C223.3,538.8,224.3,539.1,225,539.7z M223,545.2c0.3-0.2,0.5-0.5,0.7-0.8v-0.8H222c-1,0-1.4,0.3-1.4,0.9c0,0.3,0.1,0.5,0.4,0.7
			c0.2,0.2,0.6,0.3,1,0.3C222.3,545.5,222.7,545.4,223,545.2z"/>
		<path class="st3" d="M234.9,539.3c0.6,0.3,1.1,0.8,1.4,1.5c0.3,0.6,0.5,1.4,0.5,2.2s-0.2,1.6-0.5,2.2c-0.4,0.6-0.8,1.1-1.4,1.5
			c-0.6,0.3-1.3,0.5-2,0.5c-1.1,0-2-0.3-2.5-1v0.9h-2.2v-11.1h2.3v3.9c0.6-0.7,1.4-1,2.4-1C233.6,538.8,234.3,539,234.9,539.3z
			 M233.9,544.6c0.4-0.4,0.6-0.9,0.6-1.6c0-0.7-0.2-1.2-0.6-1.6c-0.4-0.4-0.9-0.6-1.5-0.6c-0.6,0-1.1,0.2-1.5,0.6
			c-0.4,0.4-0.6,0.9-0.6,1.6c0,0.7,0.2,1.2,0.6,1.6c0.4,0.4,0.9,0.6,1.5,0.6C233,545.2,233.5,545,233.9,544.6z"/>
		<path class="st3" d="M238.4,535.8h2.3V547h-2.3V535.8z"/>
		<path class="st3" d="M244.5,546.6c-0.7-0.4-1.2-0.8-1.6-1.5s-0.6-1.3-0.6-2.1c0-0.8,0.2-1.5,0.6-2.1s0.9-1.1,1.6-1.5
			c0.7-0.4,1.4-0.5,2.3-0.5s1.6,0.2,2.3,0.5c0.7,0.4,1.2,0.8,1.6,1.5s0.6,1.3,0.6,2.1c0,0.8-0.2,1.5-0.6,2.1s-0.9,1.1-1.6,1.5
			c-0.7,0.4-1.4,0.5-2.3,0.5S245.2,546.9,244.5,546.6z M248.3,544.6c0.4-0.4,0.6-0.9,0.6-1.6c0-0.7-0.2-1.2-0.6-1.6
			c-0.4-0.4-0.9-0.6-1.5-0.6s-1.1,0.2-1.5,0.6c-0.4,0.4-0.6,0.9-0.6,1.6c0,0.7,0.2,1.2,0.6,1.6c0.4,0.4,0.9,0.6,1.5,0.6
			S247.9,545,248.3,544.6z"/>
		<path class="st3" d="M257.2,536.5h2.4V547h-2.4V536.5z"/>
		<path class="st3" d="M262.1,536.5h2.4V547h-2.4V536.5z"/>
	</g>
	<g class="st2">
		<path class="st3" d="M424.4,606.7l-2.6,4.1l1.4,2l-1.3,2.1l-6.3-9.6l1.3-2l11.4,1.7l-1.4,2.1L424.4,606.7z M422.4,606.3l-4.3-0.8
			l2.5,3.6L422.4,606.3z"/>
		<path class="st3" d="M426,593.5l4.9,7.2l-1.3,2l-8.6-1.5l1.3-2l5.8,1.1l-3.4-4.9L426,593.5z"/>
		<path class="st3" d="M428.3,584.3l9.4,6l-1.2,1.9l-0.8-0.5c0.3,0.9,0.1,1.8-0.5,2.7c-0.4,0.6-0.9,1.1-1.5,1.5
			c-0.6,0.3-1.3,0.5-2,0.4c-0.7,0-1.4-0.3-2.1-0.7c-0.7-0.5-1.2-1-1.6-1.6c-0.3-0.6-0.5-1.3-0.4-2c0-0.7,0.3-1.4,0.7-2
			c0.6-0.9,1.3-1.4,2.1-1.5l-3.3-2.1L428.3,584.3z M434.1,591.4c-0.1-0.5-0.5-1-1.1-1.4c-0.6-0.4-1.1-0.5-1.7-0.4
			c-0.6,0.1-1,0.4-1.3,0.9c-0.3,0.5-0.4,1-0.3,1.6c0.1,0.5,0.5,1,1.1,1.4c0.6,0.4,1.1,0.5,1.7,0.4c0.6-0.1,1-0.4,1.3-0.9
			C434.1,592.5,434.2,592,434.1,591.4z"/>
		<path class="st3" d="M436,579.4c0.9-0.2,1.8,0,2.8,0.6l3.9,2.5l-1.2,1.8l-0.8-0.5c0.4,0.8,0.3,1.7-0.4,2.7
			c-0.3,0.5-0.7,0.9-1.1,1.2c-0.4,0.3-0.9,0.4-1.3,0.4c-0.4,0-0.9-0.1-1.3-0.4c-0.6-0.4-1-1-1-1.7s0.2-1.6,0.9-2.5l1-1.6
			c-0.4-0.3-0.8-0.4-1.2-0.2c-0.4,0.1-0.8,0.4-1.1,0.9c-0.2,0.4-0.4,0.8-0.5,1.2c-0.1,0.4-0.1,0.8-0.1,1.2l-1.8-0.2
			c0-0.5,0.1-1.1,0.3-1.7c0.2-0.6,0.5-1.2,0.8-1.7C434.4,580.3,435.1,579.6,436,579.4z M439.6,584.1c0-0.4-0.1-0.7-0.3-1l-0.7-0.4
			l-0.9,1.3c-0.5,0.8-0.5,1.4,0,1.7c0.3,0.2,0.5,0.2,0.8,0.1c0.3-0.1,0.5-0.3,0.7-0.7C439.5,584.8,439.6,584.4,439.6,584.1z"/>
		<path class="st3" d="M437.4,571.3l2.6-4c0.6-1,1.3-1.7,2.2-2.2c0.8-0.5,1.7-0.7,2.6-0.7s1.8,0.3,2.7,0.9c0.9,0.6,1.5,1.3,1.9,2.1
			c0.4,0.8,0.5,1.7,0.4,2.7c-0.1,1-0.5,1.9-1.1,2.9l-2.6,4L437.4,571.3z M447.1,572c0.6-0.9,0.8-1.7,0.6-2.6
			c-0.2-0.8-0.6-1.5-1.5-2.1c-0.8-0.5-1.7-0.7-2.5-0.5c-0.8,0.2-1.5,0.8-2.1,1.6l-1.2,1.9l5.5,3.5L447.1,572z"/>
		<path class="st3" d="M453.3,565.2c-0.7,0.4-1.4,0.6-2.1,0.5s-1.4-0.2-2.1-0.7c-0.7-0.4-1.2-1-1.5-1.6c-0.3-0.7-0.5-1.4-0.4-2.1
			c0.1-0.8,0.3-1.5,0.8-2.2c0.5-0.7,1-1.3,1.7-1.6c0.7-0.4,1.4-0.5,2.1-0.5c0.7,0,1.4,0.3,2.1,0.7c0.7,0.4,1.2,1,1.5,1.6
			c0.3,0.7,0.5,1.4,0.4,2.1c-0.1,0.8-0.3,1.5-0.8,2.2C454.6,564.3,454,564.8,453.3,565.2z M453.7,561c-0.1-0.5-0.5-1-1.1-1.4
			c-0.6-0.4-1.1-0.5-1.7-0.4s-1,0.4-1.3,0.9s-0.4,1-0.3,1.6c0.1,0.5,0.5,1,1.1,1.4c0.6,0.4,1.1,0.5,1.7,0.4c0.6-0.1,1-0.4,1.3-0.9
			C453.7,562,453.8,561.5,453.7,561z"/>
		<path class="st3" d="M458.7,556.9c-0.7,0.4-1.4,0.6-2.1,0.5c-0.7,0-1.4-0.2-2.1-0.7c-0.7-0.4-1.2-1-1.5-1.6
			c-0.3-0.7-0.4-1.4-0.4-2.1c0.1-0.8,0.3-1.5,0.8-2.2c0.5-0.7,1-1.2,1.7-1.6c0.6-0.3,1.3-0.5,2-0.3l-0.2,2.1c-0.8,0-1.5,0.3-1.9,0.9
			c-0.3,0.5-0.4,1-0.3,1.6c0.1,0.6,0.5,1,1,1.4c0.6,0.4,1.1,0.5,1.7,0.4c0.6-0.1,1-0.4,1.3-0.9c0.4-0.7,0.4-1.4,0.1-2.1l1.8-1
			c0.4,0.6,0.5,1.3,0.5,2c0,0.7-0.3,1.5-0.8,2.2C459.9,556,459.3,556.5,458.7,556.9z"/>
		<path class="st3" d="M465.5,546.3c0,0.3,0,0.6-0.1,0.9c-0.1,0.3-0.3,0.6-0.5,1c-0.5,0.8-1.1,1.3-1.8,1.5c-0.7,0.2-1.4,0-2.2-0.5
			l-2.8-1.8l-0.7,1l-1.5-1l0.7-1l-1.7-1.1l1.3-2l1.7,1.1l1.1-1.7l1.5,1l-1.1,1.7l2.8,1.8c0.3,0.2,0.6,0.3,0.8,0.2
			c0.3,0,0.5-0.2,0.6-0.5c0.2-0.3,0.3-0.6,0.3-1L465.5,546.3z"/>
		<path class="st3" d="M466.9,544.1c-0.7,0.4-1.4,0.6-2.1,0.5s-1.4-0.2-2.1-0.7c-0.7-0.4-1.2-1-1.5-1.6c-0.3-0.7-0.5-1.4-0.4-2.1
			c0.1-0.8,0.3-1.5,0.8-2.2c0.5-0.7,1-1.3,1.7-1.6c0.7-0.4,1.4-0.5,2.1-0.5c0.7,0,1.4,0.2,2.1,0.7c0.7,0.4,1.2,1,1.5,1.6
			c0.3,0.7,0.5,1.4,0.4,2.1c-0.1,0.8-0.3,1.5-0.8,2.2C468.1,543.2,467.6,543.8,466.9,544.1z M467.3,539.9c-0.1-0.5-0.5-1-1.1-1.4
			c-0.6-0.4-1.1-0.5-1.7-0.4c-0.5,0.1-1,0.4-1.3,0.9c-0.3,0.5-0.4,1-0.3,1.6c0.1,0.5,0.5,1,1.1,1.4c0.6,0.4,1.1,0.5,1.7,0.4
			c0.6-0.1,1-0.4,1.3-0.9S467.4,540.4,467.3,539.9z"/>
		<path class="st3" d="M466.9,530.3c0.1-0.5,0.3-1,0.6-1.5l1.8,1.2c-0.2,0.2-0.3,0.3-0.3,0.4c-0.4,0.6-0.5,1.1-0.4,1.6
			c0.1,0.5,0.5,1,1.1,1.4l3.2,2.1l-1.3,2L465,533l1.2-1.9l0.9,0.6C466.9,531.3,466.9,530.8,466.9,530.3z"/>
		<path class="st3" d="M477.4,528.2c-0.5,0.4-1.1,0.6-1.7,0.6l-0.6-2c1-0.1,1.6-0.4,2-1c0.5-0.8,0.3-1.6-0.7-2.2l-4.2-2.7l-2,3.1
			l-1.6-1.1l3.3-5.1l5.7,3.7c1.1,0.7,1.7,1.5,1.9,2.4c0.2,0.9,0,1.9-0.7,2.9C478.5,527.3,478,527.8,477.4,528.2z"/>
		<path class="st3" d="M474,516.3c-0.4,0.1-0.7,0-1-0.2s-0.5-0.5-0.6-0.8c-0.1-0.4,0-0.7,0.3-1.1c0.2-0.4,0.5-0.6,0.9-0.7
			c0.3-0.1,0.7,0,1,0.1c0.3,0.2,0.5,0.5,0.6,0.9c0.1,0.4,0,0.7-0.2,1.1C474.6,516,474.3,516.2,474,516.3z M475.2,517.2l1.3-2
			l6.8,4.4l-1.3,2L475.2,517.2z"/>
		<path class="st3" d="M485.2,503.1c0.8-0.2,1.7,0.1,2.7,0.7l3.9,2.5l-1.3,2l-3.6-2.3c-0.5-0.3-1-0.5-1.4-0.4
			c-0.4,0.1-0.7,0.3-1,0.7c-0.3,0.5-0.4,0.9-0.3,1.4c0.1,0.5,0.5,0.9,1.1,1.3l3.4,2.2l-1.3,2l-3.6-2.3c-1.1-0.7-1.9-0.6-2.4,0.3
			c-0.3,0.5-0.4,0.9-0.3,1.4c0.1,0.5,0.5,0.9,1.1,1.3l3.4,2.2l-1.3,2l-6.8-4.4l1.2-1.9l0.8,0.5c-0.1-0.4-0.1-0.9-0.1-1.3
			c0.1-0.5,0.3-0.9,0.5-1.4c0.3-0.5,0.7-0.9,1.1-1.1c0.4-0.3,0.9-0.4,1.4-0.4c-0.2-0.5-0.2-1-0.1-1.6s0.3-1.1,0.6-1.6
			C483.7,503.8,484.4,503.3,485.2,503.1z"/>
		<path class="st3" d="M485.9,494.8l1.4-2.1l0.3,3.5l-1,1.5L485.9,494.8z M494.4,496.1l-3.3,5.1c0.5,0.2,1,0.2,1.4,0
			c0.5-0.2,0.9-0.5,1.2-1.1c0.2-0.4,0.4-0.7,0.4-1c0.1-0.3,0.1-0.7,0-1.1l1.8-0.3c0.3,1.1,0.1,2.3-0.7,3.5c-0.5,0.8-1.1,1.3-1.8,1.7
			c-0.7,0.4-1.4,0.6-2.1,0.6c-0.7,0-1.4-0.2-2.1-0.7c-0.7-0.4-1.2-1-1.5-1.6c-0.3-0.7-0.5-1.4-0.4-2.1c0.1-0.7,0.3-1.5,0.7-2.1
			c0.4-0.7,1-1.2,1.6-1.5c0.6-0.4,1.3-0.5,2-0.5c0.7,0,1.4,0.3,2.2,0.7C493.9,495.7,494.1,495.8,494.4,496.1z M489.3,499.3
			c0.1,0.5,0.3,0.9,0.7,1.2l2.2-3.3c-0.5-0.2-0.9-0.2-1.4-0.1c-0.5,0.1-0.8,0.4-1.1,0.9C489.3,498.3,489.2,498.8,489.3,499.3z"/>
		<path class="st3" d="M495.9,486.4c0.8-0.2,1.8,0,2.7,0.7l3.9,2.5l-1.3,2l-3.6-2.3c-0.5-0.3-1-0.5-1.4-0.4
			c-0.4,0.1-0.8,0.3-1.1,0.8c-0.3,0.5-0.4,1-0.3,1.5c0.1,0.5,0.5,0.9,1.1,1.3l3.4,2.2l-1.3,2l-6.8-4.4l1.2-1.9l0.8,0.5
			c-0.1-0.4-0.1-0.9,0-1.4c0.1-0.5,0.3-1,0.6-1.4C494.4,487.1,495.1,486.6,495.9,486.4z"/>
		<path class="st3" d="M505.2,479.3l-3.3,5.1c0.5,0.2,1,0.2,1.4,0c0.5-0.2,0.9-0.5,1.2-1.1c0.2-0.4,0.4-0.7,0.4-1
			c0.1-0.3,0.1-0.7,0-1.1l1.8-0.3c0.3,1.1,0.1,2.3-0.7,3.5c-0.5,0.8-1.1,1.3-1.8,1.7c-0.7,0.4-1.4,0.6-2.1,0.6s-1.4-0.2-2.1-0.7
			c-0.7-0.4-1.2-1-1.5-1.6c-0.3-0.7-0.5-1.4-0.4-2.1c0.1-0.7,0.3-1.5,0.7-2.1c0.4-0.7,1-1.2,1.6-1.5c0.6-0.4,1.3-0.5,2-0.5
			c0.7,0,1.4,0.3,2.2,0.7C504.7,479,504.9,479.1,505.2,479.3z M500,482.5c0.1,0.5,0.3,0.9,0.7,1.2l2.2-3.3c-0.5-0.2-0.9-0.2-1.4-0.1
			c-0.5,0.1-0.8,0.4-1.1,0.9C500.1,481.6,500,482,500,482.5z"/>
		<path class="st3" d="M510.9,473.3l1.5,1l-3.9,6.1l-1.2-0.8l-1.9-6.1l-2.2,3.4l-1.5-1l3.8-5.8l1.2,0.8l1.9,6.1L510.9,473.3z"/>
		<path class="st3" d="M506.8,463.6l2.6-4c0.6-1,1.3-1.7,2.2-2.2c0.8-0.5,1.7-0.7,2.6-0.7s1.8,0.3,2.7,0.9c0.9,0.6,1.5,1.3,1.9,2.1
			c0.4,0.8,0.5,1.7,0.4,2.7c-0.1,1-0.5,1.9-1.1,2.9l-2.6,4L506.8,463.6z M516.5,464.3c0.6-0.9,0.8-1.7,0.6-2.6
			c-0.2-0.8-0.6-1.5-1.5-2.1c-0.8-0.5-1.7-0.7-2.5-0.5c-0.8,0.2-1.5,0.8-2.1,1.6l-1.2,1.9l5.5,3.5L516.5,464.3z"/>
		<path class="st3" d="M513.8,451.4l1.4-2.1l0.3,3.5l-1,1.5L513.8,451.4z M515.5,454.7l1.3-2l6.8,4.4l-1.3,2L515.5,454.7z"/>
		<path class="st3" d="M521.9,446.1c0.9-0.2,1.8,0,2.8,0.6l3.9,2.5l-1.2,1.8l-0.8-0.5c0.4,0.8,0.3,1.7-0.4,2.7
			c-0.3,0.5-0.7,0.9-1.1,1.2c-0.4,0.3-0.9,0.4-1.3,0.4c-0.4,0-0.9-0.1-1.3-0.4c-0.6-0.4-1-1-1-1.7c-0.1-0.7,0.2-1.6,0.9-2.5l1-1.6
			c-0.4-0.3-0.8-0.4-1.2-0.2c-0.4,0.1-0.8,0.4-1.1,0.9c-0.2,0.4-0.4,0.8-0.5,1.2c-0.1,0.4-0.1,0.8-0.1,1.2l-1.8-0.2
			c0-0.5,0.1-1.1,0.3-1.7c0.2-0.6,0.5-1.2,0.8-1.7C520.3,447,521.1,446.4,521.9,446.1z M525.5,450.8c0-0.4-0.1-0.7-0.3-1l-0.7-0.4
			l-0.9,1.3c-0.5,0.8-0.5,1.4,0,1.7c0.3,0.2,0.5,0.2,0.8,0.1c0.3-0.1,0.5-0.3,0.7-0.7C525.4,451.5,525.5,451.2,525.5,450.8z"/>
		<path class="st3" d="M531.8,440.9l1.5,1l-3.9,6.1l-1.2-0.8l-1.9-6.1l-2.2,3.4l-1.5-1l3.8-5.8l1.2,0.8l1.9,6.1L531.8,440.9z"/>
	</g>
	<g class="st2">
		<path class="st3" d="M186.2,470.3c-0.6,0.3-1.2,0.4-1.8,0.3l-0.3-2.1c1,0.1,1.7-0.1,2.2-0.7c0.7-0.7,0.6-1.5-0.3-2.3l-3.7-3.4
			l-2.5,2.7l-1.4-1.3l4.1-4.5l5,4.6c1,0.9,1.5,1.8,1.5,2.7s-0.3,1.8-1.2,2.7C187.3,469.6,186.8,470,186.2,470.3z"/>
		<path class="st3" d="M191.2,453.1l6,5.4l-1.5,1.6l-0.7-0.6c0,0.5,0,0.9-0.2,1.4c-0.2,0.4-0.4,0.8-0.7,1.2
			c-0.7,0.8-1.5,1.2-2.4,1.2s-1.7-0.3-2.6-1.1l-3.4-3.1l1.6-1.7l3.1,2.8c1,0.9,1.8,0.9,2.5,0.1c0.4-0.4,0.5-0.9,0.5-1.4
			c0-0.5-0.3-1-0.9-1.5l-2.9-2.7L191.2,453.1z"/>
		<path class="st3" d="M197.4,447.5c0.9-0.1,1.8,0.3,2.7,1.1l3.4,3.1l-1.5,1.6l-0.7-0.7c0.3,0.8,0,1.7-0.8,2.6
			c-0.4,0.5-0.9,0.8-1.3,1c-0.5,0.2-0.9,0.3-1.3,0.2c-0.4-0.1-0.8-0.3-1.2-0.6c-0.6-0.5-0.8-1.1-0.7-1.8c0.1-0.7,0.5-1.5,1.3-2.4
			l1.3-1.4c-0.4-0.3-0.8-0.5-1.2-0.5c-0.4,0-0.8,0.3-1.2,0.8c-0.3,0.3-0.5,0.7-0.7,1.1c-0.2,0.4-0.3,0.8-0.3,1.2l-1.8-0.5
			c0.1-0.5,0.2-1.1,0.5-1.7c0.3-0.6,0.7-1.1,1.1-1.6C195.6,448.1,196.5,447.6,197.4,447.5z M200.2,452.7c0.1-0.4,0-0.7-0.2-1
			l-0.6-0.6l-1.1,1.2c-0.6,0.7-0.7,1.3-0.3,1.7c0.2,0.2,0.5,0.3,0.8,0.2c0.3-0.1,0.6-0.2,0.8-0.5C199.9,453.4,200.1,453,200.2,452.7
			z"/>
		<path class="st3" d="M204.4,439.7c0.9-0.1,1.7,0.3,2.6,1.1l3.4,3.1l-1.6,1.7l-3.1-2.9c-0.5-0.4-0.9-0.6-1.3-0.7s-0.8,0.2-1.2,0.6
			c-0.4,0.4-0.6,0.9-0.5,1.4c0,0.5,0.3,1,0.8,1.5l2.9,2.7l-1.6,1.7l-6-5.4l1.5-1.7l0.7,0.6c0-0.5,0-0.9,0.2-1.4
			c0.2-0.5,0.4-0.9,0.8-1.3C202.8,440.2,203.6,439.8,204.4,439.7z"/>
		<path class="st3" d="M212.1,427.2c0.7-0.3,1.4-0.4,2-0.3s1.3,0.4,1.9,1c0.6,0.5,0.9,1.1,1.1,1.8c0.2,0.7,0.1,1.3-0.1,2.1
			c-0.2,0.7-0.7,1.4-1.3,2.1l-1.4,1.6l2.1,2l-1.6,1.8l-7.8-7.1l3.1-3.4C210.8,428,211.4,427.5,212.1,427.2z M215,431.1
			c0-0.5-0.2-0.9-0.6-1.3c-0.4-0.4-0.9-0.6-1.4-0.5c-0.5,0.1-1,0.4-1.5,0.9l-1.3,1.5l2.7,2.5l1.3-1.5
			C214.7,432.1,215,431.6,215,431.1z"/>
		<path class="st3" d="M220.7,421.9c0.9-0.1,1.8,0.3,2.7,1.1l3.4,3.1l-1.5,1.6l-0.7-0.7c0.3,0.8,0,1.7-0.8,2.6
			c-0.4,0.5-0.9,0.8-1.3,1c-0.5,0.2-0.9,0.3-1.3,0.2c-0.4-0.1-0.8-0.3-1.2-0.6c-0.6-0.5-0.8-1.1-0.7-1.8c0.1-0.7,0.5-1.5,1.3-2.4
			l1.3-1.4c-0.4-0.3-0.8-0.5-1.2-0.5c-0.4,0-0.8,0.3-1.2,0.8c-0.3,0.3-0.5,0.7-0.7,1.1c-0.2,0.4-0.3,0.8-0.3,1.2l-1.8-0.5
			c0.1-0.5,0.2-1.1,0.5-1.7c0.3-0.6,0.7-1.1,1.1-1.6C219,422.5,219.8,422,220.7,421.9z M223.5,427.1c0.1-0.4,0-0.7-0.2-1l-0.6-0.6
			l-1.1,1.2c-0.6,0.7-0.7,1.3-0.3,1.7c0.2,0.2,0.5,0.3,0.8,0.2c0.3-0.1,0.6-0.2,0.8-0.5C223.2,427.8,223.4,427.5,223.5,427.1z"/>
		<path class="st3" d="M231.4,410.2c0.8,0,1.7,0.3,2.6,1.1l3.4,3.1l-1.6,1.7l-3.1-2.9c-0.5-0.4-0.9-0.7-1.3-0.7
			c-0.4,0-0.8,0.2-1.1,0.5c-0.4,0.4-0.5,0.8-0.5,1.3c0,0.5,0.3,1,0.8,1.4l3,2.7l-1.6,1.7l-3.1-2.9c-0.9-0.9-1.8-0.9-2.4-0.2
			c-0.4,0.4-0.5,0.8-0.5,1.3c0,0.5,0.3,1,0.8,1.4l3,2.7l-1.6,1.7l-6-5.4l1.5-1.7l0.7,0.6c0-0.5,0-0.9,0.2-1.3s0.4-0.9,0.8-1.2
			c0.4-0.4,0.8-0.7,1.3-0.9c0.5-0.2,1-0.2,1.5-0.2c-0.1-0.5,0-1.1,0.1-1.6c0.2-0.5,0.5-1,0.9-1.5
			C229.8,410.6,230.6,410.2,231.4,410.2z"/>
		<path class="st3" d="M237.7,402.7c0.7-0.2,1.4-0.3,2.1-0.1c0.7,0.2,1.4,0.5,2,1.1c0.6,0.6,1,1.2,1.3,1.9c0.2,0.7,0.3,1.4,0.1,2.1
			c-0.2,0.7-0.5,1.3-1,1.9c-0.7,0.8-1.6,1.2-2.5,1.2l0.7,0.6l-1.5,1.7l-8.2-7.5l1.6-1.7l2.9,2.6c-0.1-0.9,0.2-1.7,0.9-2.5
			C236.5,403.3,237.1,402.9,237.7,402.7z M241,406.9c0-0.6-0.3-1.1-0.8-1.5c-0.5-0.5-1-0.7-1.6-0.7c-0.6,0-1,0.2-1.4,0.7
			c-0.4,0.4-0.6,0.9-0.5,1.5c0,0.6,0.3,1.1,0.8,1.5c0.5,0.5,1,0.7,1.6,0.7s1-0.2,1.4-0.7C240.8,408,241,407.5,241,406.9z"/>
		<path class="st3" d="M237.6,397.7l1.6-1.7l8.2,7.5l-1.6,1.7L237.6,397.7z"/>
		<path class="st3" d="M247.6,392.4c0.9-0.1,1.8,0.3,2.7,1.1l3.4,3.1l-1.5,1.6l-0.7-0.7c0.3,0.8,0,1.7-0.8,2.6
			c-0.4,0.5-0.9,0.8-1.3,1c-0.5,0.2-0.9,0.3-1.3,0.2c-0.4-0.1-0.8-0.3-1.2-0.6c-0.6-0.5-0.8-1.1-0.7-1.8s0.5-1.5,1.3-2.4l1.3-1.4
			c-0.4-0.3-0.8-0.5-1.2-0.4c-0.4,0-0.8,0.3-1.2,0.8c-0.3,0.3-0.5,0.7-0.7,1.1c-0.2,0.4-0.3,0.8-0.3,1.2l-1.8-0.5
			c0.1-0.5,0.2-1.1,0.5-1.7c0.3-0.6,0.7-1.1,1.1-1.6C245.8,393,246.7,392.5,247.6,392.4z M250.3,397.7c0.1-0.4,0-0.7-0.2-1l-0.6-0.6
			l-1.1,1.2c-0.6,0.7-0.7,1.3-0.3,1.7c0.2,0.2,0.5,0.3,0.8,0.2c0.3-0.1,0.6-0.2,0.8-0.5C250.1,398.3,250.3,398,250.3,397.7z"/>
		<path class="st3" d="M254.6,384.7c0.9,0,1.7,0.3,2.6,1.1l3.4,3.1l-1.6,1.7l-3.1-2.9c-0.5-0.4-0.9-0.6-1.3-0.7
			c-0.4,0-0.8,0.2-1.2,0.6c-0.4,0.4-0.6,0.9-0.5,1.4c0,0.5,0.3,1,0.8,1.5l2.9,2.7l-1.6,1.7l-6-5.4l1.5-1.7l0.7,0.6
			c0-0.5,0-0.9,0.2-1.4c0.2-0.5,0.4-0.9,0.8-1.3C253,385.2,253.8,384.8,254.6,384.7z"/>
		<path class="st3" d="M262.9,385.9c-0.7,0.3-1.4,0.3-2.2,0.2c-0.7-0.1-1.4-0.5-2-1c-0.6-0.5-1-1.2-1.2-1.9s-0.2-1.4,0-2.2
			c0.2-0.7,0.6-1.4,1.2-2.1c0.6-0.6,1.2-1.1,1.9-1.3c0.7-0.2,1.4-0.2,2.1,0l-0.5,2c-0.8-0.2-1.5,0-2,0.6c-0.4,0.5-0.6,1-0.6,1.5
			c0,0.6,0.3,1.1,0.8,1.5c0.5,0.5,1,0.7,1.6,0.7c0.6,0,1.1-0.3,1.5-0.7c0.5-0.6,0.7-1.3,0.4-2.1l2-0.7c0.3,0.6,0.3,1.3,0.2,2
			c-0.2,0.7-0.5,1.4-1.1,2C264.3,385.2,263.6,385.6,262.9,385.9z"/>
		<path class="st3" d="M268.8,379.4c-0.7,0.3-1.4,0.3-2.2,0.2c-0.7-0.1-1.4-0.5-2-1c-0.6-0.5-1-1.2-1.2-1.9c-0.2-0.7-0.2-1.4,0-2.2
			c0.2-0.7,0.6-1.4,1.1-2c0.6-0.6,1.2-1.1,1.9-1.3c0.7-0.3,1.4-0.3,2.2-0.2s1.4,0.5,2,1c0.6,0.5,1,1.2,1.2,1.9s0.2,1.4,0,2.2
			c-0.2,0.7-0.6,1.4-1.1,2C270.1,378.7,269.5,379.2,268.8,379.4z M269.8,375.3c0-0.6-0.3-1.1-0.8-1.5c-0.5-0.5-1-0.7-1.6-0.7
			s-1,0.2-1.4,0.7s-0.6,0.9-0.6,1.5c0,0.6,0.3,1.1,0.8,1.5c0.5,0.5,1,0.7,1.6,0.7c0.6,0,1-0.2,1.4-0.7S269.9,375.9,269.8,375.3z"/>
		<path class="st3" d="M280.6,363.7l-3.3,3.6l1,2.2l-1.7,1.8l-4.6-10.5l1.6-1.8l10.9,3.6l-1.7,1.9L280.6,363.7z M278.7,363l-4.1-1.5
			l1.8,3.9L278.7,363z"/>
		<path class="st3" d="M284.4,350.9l3.9,8.5c0.4,0.9,0.6,1.7,0.5,2.3c-0.1,0.7-0.4,1.3-0.9,1.8c-0.3,0.3-0.6,0.6-1,0.8
			c-0.4,0.2-0.7,0.3-1.1,0.4l-0.7-1.8c0.2,0,0.5-0.1,0.7-0.2s0.4-0.3,0.6-0.4c0.2-0.2,0.3-0.5,0.4-0.7c0-0.3,0-0.6-0.2-0.9l0-0.1
			l-8.4-2.9l1.6-1.8l5.6,2l-2.5-5.4L284.4,350.9z"/>
		<path class="st3" d="M293.7,347.7l-4.1,4.5c0.4,0.3,0.9,0.3,1.4,0.2c0.5-0.1,0.9-0.4,1.4-0.8c0.3-0.3,0.5-0.6,0.6-1
			s0.2-0.7,0.2-1.1l1.8,0c0.1,1.1-0.3,2.3-1.3,3.3c-0.6,0.7-1.3,1.1-2,1.4c-0.7,0.3-1.5,0.3-2.2,0.2c-0.7-0.1-1.4-0.5-2-1
			c-0.6-0.5-1-1.2-1.2-1.9c-0.2-0.7-0.2-1.4-0.1-2.1c0.2-0.7,0.5-1.4,1.1-2c0.5-0.6,1.1-1,1.8-1.2c0.7-0.2,1.4-0.3,2.1-0.1
			c0.7,0.2,1.4,0.5,2,1.1C293.2,347.3,293.4,347.5,293.7,347.7z M288,350c0,0.5,0.1,0.9,0.5,1.3l2.7-2.9c-0.4-0.3-0.9-0.4-1.3-0.3
			c-0.5,0.1-0.9,0.3-1.2,0.7C288.3,349.1,288.1,349.6,288,350z"/>
		<path class="st3" d="M289,341.3l1.6-1.7l8.2,7.5l-1.6,1.7L289,341.3z"/>
		<path class="st3" d="M299,336c0.9-0.1,1.8,0.3,2.7,1.1l3.4,3.1l-1.5,1.6l-0.7-0.7c0.3,0.8,0,1.7-0.8,2.6c-0.4,0.5-0.9,0.8-1.3,1
			c-0.5,0.2-0.9,0.3-1.3,0.2c-0.4-0.1-0.8-0.3-1.2-0.6c-0.6-0.5-0.8-1.1-0.7-1.8c0.1-0.7,0.5-1.5,1.3-2.4l1.3-1.4
			c-0.4-0.3-0.8-0.5-1.2-0.4c-0.4,0-0.8,0.3-1.2,0.8c-0.3,0.3-0.5,0.7-0.7,1.1c-0.2,0.4-0.3,0.8-0.3,1.2l-1.8-0.5
			c0.1-0.5,0.2-1.1,0.5-1.7c0.3-0.6,0.7-1.1,1.1-1.6C297.3,336.6,298.1,336.1,299,336z M301.8,341.3c0.1-0.4,0-0.7-0.2-1l-0.6-0.6
			l-1.1,1.2c-0.6,0.7-0.7,1.3-0.3,1.7c0.2,0.2,0.5,0.3,0.8,0.2c0.3-0.1,0.6-0.2,0.8-0.5C301.5,341.9,301.7,341.6,301.8,341.3z"/>
	</g>
	<g class="st2">
		<path class="st3" d="M685.4,832.1l-0.5,4.8l2.1,1.2l-0.3,2.5l-9.9-5.8l0.3-2.4l10.9-3.6l-0.3,2.5L685.4,832.1z M683.5,832.7
			l-4.2,1.2l3.8,2.1L683.5,832.7z"/>
		<path class="st3" d="M680.9,819.6l7.7,4.2l-0.3,2.4l-8.4,2.5l0.3-2.4l5.7-1.6l-5.2-2.9L680.9,819.6z"/>
		<path class="st3" d="M678.8,810.3l11.1,1.2l-0.2,2.2l-0.9-0.1c0.6,0.7,0.9,1.5,0.8,2.6c-0.1,0.8-0.3,1.4-0.7,2
			c-0.4,0.6-0.9,1-1.6,1.3c-0.7,0.3-1.4,0.4-2.2,0.3c-0.8-0.1-1.5-0.3-2.1-0.8s-1-0.9-1.3-1.6s-0.4-1.3-0.3-2.1
			c0.1-1,0.5-1.8,1.2-2.3l-3.9-0.4L678.8,810.3z M687.2,814.1c-0.4-0.4-0.9-0.7-1.6-0.8s-1.2,0.1-1.7,0.4c-0.4,0.3-0.7,0.8-0.8,1.4
			c-0.1,0.6,0.1,1.1,0.4,1.5c0.4,0.4,0.9,0.7,1.6,0.8c0.7,0.1,1.2-0.1,1.7-0.4c0.4-0.3,0.7-0.8,0.8-1.4
			C687.7,815.1,687.5,814.6,687.2,814.1z"/>
		<path class="st3" d="M683.5,802.5c0.7-0.6,1.6-0.8,2.8-0.7l4.6,0.5l-0.2,2.2l-1-0.1c0.7,0.5,1,1.4,0.9,2.6
			c-0.1,0.6-0.2,1.1-0.5,1.6c-0.3,0.4-0.6,0.7-1,0.9c-0.4,0.2-0.8,0.3-1.3,0.2c-0.7-0.1-1.3-0.4-1.7-1c-0.4-0.6-0.5-1.5-0.4-2.7
			l0.2-1.8c-0.5-0.1-0.9,0.1-1.2,0.3c-0.3,0.3-0.5,0.7-0.6,1.3c0,0.4,0,0.9,0.1,1.3c0.1,0.4,0.2,0.8,0.4,1.1l-1.7,0.7
			c-0.3-0.5-0.4-1-0.5-1.6c-0.1-0.6-0.1-1.3-0.1-1.9C682.4,804,682.8,803.1,683.5,802.5z M688.8,805.1c-0.2-0.3-0.4-0.6-0.7-0.7
			l-0.8-0.1l-0.2,1.6c-0.1,1,0.2,1.5,0.8,1.5c0.3,0,0.5-0.1,0.7-0.3c0.2-0.2,0.3-0.5,0.4-0.9C689,805.8,688.9,805.4,688.8,805.1z"/>
	</g>
	<g class="st2">
		<path class="st3" d="M705.1,841.2c-0.3,0.7-0.7,1.3-1.1,1.8l-1.7-1c0.4-0.4,0.7-0.9,1-1.5c0.3-0.6,0.4-1.2,0.5-1.8
			c0.1-0.7,0-1.2-0.1-1.6c-0.2-0.3-0.4-0.5-0.8-0.6c-0.2,0-0.5,0-0.6,0.2c-0.2,0.2-0.3,0.4-0.5,0.7c-0.1,0.3-0.3,0.7-0.5,1.2
			c-0.3,0.8-0.5,1.4-0.8,1.9c-0.2,0.5-0.6,0.9-1,1.2c-0.5,0.3-1,0.4-1.7,0.4c-0.6-0.1-1.1-0.3-1.6-0.7c-0.5-0.4-0.8-0.9-1-1.6
			s-0.3-1.5-0.2-2.5c0.1-0.7,0.2-1.3,0.4-1.9c0.2-0.6,0.5-1.2,0.9-1.6l1.8,0.9c-0.6,0.9-1,1.8-1.1,2.8c-0.1,0.7,0,1.2,0.2,1.5
			c0.2,0.3,0.5,0.5,0.8,0.6c0.4,0,0.6-0.1,0.9-0.5c0.2-0.4,0.4-0.9,0.7-1.7c0.3-0.8,0.5-1.4,0.8-1.9s0.6-0.9,1-1.2
			c0.4-0.3,1-0.4,1.7-0.4c0.6,0.1,1.1,0.3,1.6,0.7c0.5,0.4,0.8,0.9,1,1.6c0.2,0.7,0.3,1.5,0.2,2.5
			C705.6,839.7,705.5,840.5,705.1,841.2z"/>
		<path class="st3" d="M699.6,826c0.7-0.6,1.6-0.8,2.8-0.7l4.6,0.5l-0.2,2.2l-1-0.1c0.7,0.5,1,1.4,0.9,2.6c-0.1,0.6-0.2,1.1-0.5,1.6
			c-0.3,0.4-0.6,0.7-1,0.9c-0.4,0.2-0.8,0.3-1.3,0.2c-0.7-0.1-1.3-0.4-1.7-1c-0.4-0.6-0.5-1.5-0.4-2.7l0.2-1.8
			c-0.5-0.1-0.9,0.1-1.2,0.3c-0.3,0.3-0.5,0.7-0.6,1.3c0,0.4,0,0.9,0.1,1.3c0.1,0.4,0.2,0.8,0.4,1.1l-1.7,0.7
			c-0.3-0.5-0.4-1-0.5-1.6c-0.1-0.6-0.1-1.3-0.1-1.9C698.5,827.6,698.9,826.6,699.6,826z M704.9,828.6c-0.2-0.3-0.4-0.6-0.7-0.7
			l-0.8-0.1l-0.2,1.6c-0.1,1,0.2,1.5,0.8,1.5c0.3,0,0.5-0.1,0.7-0.3c0.2-0.2,0.3-0.5,0.4-0.9C705.1,829.3,705.1,828.9,704.9,828.6z"
			/>
		<path class="st3" d="M696.1,822.5l0.2-2.3l11.1,1.2l-0.2,2.3L696.1,822.5z"/>
		<path class="st3" d="M701,812.3c0.7-0.6,1.6-0.8,2.8-0.7l4.6,0.5l-0.2,2.2l-1-0.1c0.7,0.5,1,1.4,0.9,2.6c-0.1,0.6-0.2,1.1-0.5,1.6
			c-0.3,0.4-0.6,0.7-1,0.9s-0.8,0.3-1.3,0.2c-0.7-0.1-1.3-0.4-1.7-1c-0.4-0.6-0.5-1.5-0.4-2.7l0.2-1.8c-0.5-0.1-0.9,0.1-1.2,0.3
			c-0.3,0.3-0.5,0.7-0.6,1.3c0,0.4,0,0.9,0.1,1.3c0.1,0.4,0.2,0.8,0.4,1.1l-1.7,0.7c-0.3-0.5-0.4-1-0.5-1.6
			c-0.1-0.6-0.1-1.3-0.1-1.9C700,813.9,700.4,813,701,812.3z M706.4,814.9c-0.2-0.3-0.4-0.6-0.7-0.7l-0.8-0.1l-0.2,1.6
			c-0.1,1,0.2,1.5,0.8,1.5c0.3,0,0.5-0.1,0.7-0.3s0.3-0.5,0.4-0.9C706.6,815.6,706.5,815.2,706.4,814.9z"/>
		<path class="st3" d="M702.7,796.6c0.7-0.5,1.6-0.7,2.8-0.6l4.6,0.5l-0.2,2.3l-4.2-0.5c-0.6-0.1-1.1,0-1.5,0.2
			c-0.3,0.2-0.5,0.6-0.6,1.1c-0.1,0.5,0.1,1,0.4,1.4s0.8,0.6,1.5,0.6l4,0.4l-0.2,2.3L705,804c-1.3-0.1-1.9,0.3-2.1,1.3
			c-0.1,0.5,0.1,1,0.4,1.3c0.3,0.4,0.8,0.6,1.5,0.6l4,0.4l-0.2,2.3l-8-0.9l0.2-2.2l0.9,0.1c-0.3-0.3-0.5-0.7-0.7-1.2
			s-0.2-0.9-0.1-1.5c0.1-0.6,0.2-1.1,0.5-1.5c0.3-0.4,0.6-0.8,1.1-1c-0.4-0.4-0.7-0.8-0.8-1.3c-0.2-0.5-0.2-1.1-0.2-1.7
			C701.7,797.9,702,797.1,702.7,796.6z"/>
		<path class="st3" d="M703.7,787.5c0.7-0.6,1.6-0.8,2.8-0.7l4.6,0.5l-0.2,2.2l-1-0.1c0.7,0.5,1,1.4,0.9,2.6
			c-0.1,0.6-0.2,1.1-0.5,1.6c-0.3,0.4-0.6,0.7-1,0.9c-0.4,0.2-0.8,0.3-1.3,0.2c-0.7-0.1-1.3-0.4-1.7-1c-0.4-0.6-0.5-1.5-0.4-2.7
			l0.2-1.8c-0.5-0.1-0.9,0.1-1.2,0.3c-0.3,0.3-0.5,0.7-0.6,1.3c0,0.4,0,0.9,0.1,1.3c0.1,0.4,0.2,0.8,0.4,1.1l-1.7,0.7
			c-0.3-0.5-0.4-1-0.5-1.7c-0.1-0.6-0.1-1.3-0.1-1.9C702.6,789,703,788.1,703.7,787.5z M709,790.1c-0.2-0.3-0.4-0.6-0.7-0.7
			l-0.8-0.1l-0.2,1.6c-0.1,1,0.2,1.5,0.8,1.5c0.3,0,0.5-0.1,0.7-0.3c0.2-0.2,0.3-0.5,0.4-0.9C709.2,790.8,709.1,790.4,709,790.1z"/>
		<path class="st3" d="M704.8,777.1c0.7-0.5,1.6-0.8,2.8-0.6l4.6,0.5l-0.2,2.3l-4.2-0.4c-0.6-0.1-1.1,0-1.5,0.3
			c-0.3,0.2-0.5,0.6-0.6,1.2c-0.1,0.6,0.1,1.1,0.4,1.5s0.8,0.6,1.6,0.7l4,0.4l-0.2,2.3l-8-0.9l0.2-2.2l0.9,0.1
			c-0.3-0.3-0.5-0.8-0.7-1.2c-0.1-0.5-0.2-1-0.1-1.5C703.7,778.4,704.1,777.7,704.8,777.1z"/>
		<path class="st3" d="M712.1,773.2c-0.4,0.6-1,1.1-1.6,1.4c-0.7,0.3-1.4,0.4-2.2,0.3c-0.8-0.1-1.5-0.4-2.1-0.8s-1-1-1.3-1.8
			c-0.3-0.7-0.4-1.5-0.3-2.4c0.1-0.8,0.3-1.6,0.8-2.2c0.4-0.6,1-1,1.7-1.2l0.8,1.9c-0.8,0.3-1.2,0.9-1.3,1.7
			c-0.1,0.6,0.1,1.1,0.4,1.6c0.4,0.4,0.9,0.7,1.6,0.8c0.7,0.1,1.2-0.1,1.7-0.4c0.4-0.4,0.7-0.8,0.8-1.4c0.1-0.8-0.2-1.4-0.9-1.9
			l1.2-1.7c0.6,0.4,1.1,0.9,1.3,1.5c0.3,0.7,0.4,1.4,0.3,2.3C712.8,771.8,712.5,772.5,712.1,773.2z"/>
		<path class="st3" d="M706.7,759.1c0.7-0.6,1.6-0.8,2.8-0.7l4.6,0.5l-0.2,2.2l-1-0.1c0.7,0.5,1,1.4,0.9,2.6
			c-0.1,0.6-0.2,1.1-0.5,1.6s-0.6,0.7-1,0.9c-0.4,0.2-0.8,0.3-1.3,0.2c-0.7-0.1-1.3-0.4-1.7-1c-0.4-0.6-0.5-1.5-0.4-2.7l0.2-1.8
			c-0.5-0.1-0.9,0.1-1.2,0.3c-0.3,0.3-0.5,0.7-0.6,1.3c0,0.4,0,0.9,0.1,1.3c0.1,0.4,0.2,0.8,0.4,1.1l-1.7,0.7
			c-0.3-0.5-0.4-1-0.5-1.7c-0.1-0.6-0.1-1.3-0.1-1.9C705.6,760.6,706,759.7,706.7,759.1z M712,761.7c-0.2-0.3-0.4-0.6-0.7-0.7
			l-0.8-0.1l-0.2,1.6c-0.1,1,0.2,1.5,0.8,1.5c0.3,0,0.5-0.1,0.7-0.3c0.2-0.2,0.3-0.5,0.4-0.9C712.2,762.3,712.2,762,712,761.7z"/>
	</g>
	<g class="st2">
		<path class="st3" d="M799.3,718.3l-3.5,3.4l0.9,2.3l-1.8,1.7l-4-10.8l1.7-1.7l10.7,4.3l-1.8,1.8L799.3,718.3z M797.5,717.5l-4-1.7
			l1.6,4L797.5,717.5z"/>
		<path class="st3" d="M803.9,705.8l3.2,8.2l-1.7,1.7l-8.1-3.4l1.7-1.7l5.4,2.4l-2.2-5.5L803.9,705.8z"/>
		<path class="st3" d="M808.2,697.4l7.7,8l-1.6,1.6l-0.6-0.7c0.1,0.9-0.3,1.7-1.1,2.5c-0.5,0.5-1.2,0.9-1.8,1.1
			c-0.7,0.2-1.4,0.2-2.1,0c-0.7-0.2-1.3-0.6-1.9-1.2s-1-1.2-1.1-1.9c-0.2-0.7-0.2-1.4,0-2.1c0.2-0.7,0.6-1.3,1.1-1.8
			c0.7-0.7,1.5-1,2.4-1l-2.7-2.8L808.2,697.4z M812.2,705.6c0-0.6-0.2-1.1-0.7-1.6c-0.5-0.5-1-0.7-1.6-0.8c-0.6,0-1.1,0.2-1.5,0.6
			c-0.4,0.4-0.6,0.9-0.6,1.5c0,0.6,0.2,1.1,0.7,1.6c0.5,0.5,1,0.7,1.6,0.8c0.6,0,1.1-0.2,1.5-0.6C812,706.7,812.2,706.2,812.2,705.6
			z"/>
		<path class="st3" d="M816.8,694.4c0.9,0,1.8,0.4,2.6,1.2l3.2,3.3l-1.6,1.5l-0.7-0.7c0.2,0.8-0.1,1.7-1,2.5
			c-0.4,0.4-0.9,0.7-1.4,0.9c-0.5,0.2-0.9,0.2-1.4,0.1c-0.4-0.1-0.8-0.3-1.1-0.7c-0.5-0.5-0.7-1.2-0.6-1.9c0.1-0.7,0.6-1.5,1.4-2.3
			l1.3-1.3c-0.4-0.4-0.7-0.5-1.2-0.5c-0.4,0-0.8,0.2-1.3,0.7c-0.3,0.3-0.6,0.6-0.8,1c-0.2,0.4-0.3,0.8-0.4,1.1l-1.7-0.6
			c0.1-0.5,0.3-1.1,0.6-1.6c0.3-0.6,0.7-1.1,1.2-1.5C815,694.8,815.9,694.4,816.8,694.4z M819.2,699.7c0.1-0.3,0.1-0.7-0.1-1
			l-0.6-0.6l-1.2,1.1c-0.7,0.7-0.8,1.2-0.4,1.7c0.2,0.2,0.5,0.3,0.7,0.3c0.3,0,0.6-0.2,0.9-0.5C819,700.4,819.1,700.1,819.2,699.7z"
			/>
		<path class="st3" d="M825.3,682.3c0.7-0.3,1.4-0.3,2.1-0.2c0.7,0.2,1.3,0.5,1.8,1.1c0.5,0.6,0.9,1.2,1,1.8c0.1,0.7,0.1,1.4-0.2,2
			c-0.3,0.7-0.8,1.4-1.4,2l-1.5,1.5l2,2.1l-1.7,1.7l-7.3-7.5l3.3-3.2C823.9,683,824.6,682.5,825.3,682.3z M827.9,686.3
			c0.1-0.5-0.1-0.9-0.5-1.4c-0.4-0.4-0.9-0.6-1.4-0.6c-0.5,0-1,0.3-1.5,0.8l-1.4,1.4l2.5,2.6l1.4-1.4
			C827.6,687.3,827.9,686.8,827.9,686.3z"/>
		<path class="st3" d="M830.2,675.8l1.8-1.8l-0.4,3.4l-1.3,1.3L830.2,675.8z M838.2,679l-4.4,4.3c0.4,0.3,0.9,0.4,1.4,0.3
			c0.5-0.1,1-0.3,1.4-0.8c0.3-0.3,0.5-0.6,0.7-0.9s0.2-0.7,0.2-1.1l1.8,0.1c0.1,1.2-0.4,2.2-1.5,3.3c-0.7,0.6-1.4,1.1-2.1,1.3
			c-0.7,0.2-1.5,0.3-2.2,0.1c-0.7-0.2-1.3-0.6-1.9-1.1c-0.5-0.6-0.9-1.2-1.1-1.9s-0.1-1.4,0.1-2.1c0.2-0.7,0.6-1.3,1.2-1.9
			c0.6-0.5,1.2-0.9,1.9-1.1c0.7-0.2,1.4-0.2,2.1,0c0.7,0.2,1.3,0.6,1.9,1.2C837.8,678.6,838,678.7,838.2,679z M832.5,681
			c0,0.5,0.1,0.9,0.4,1.3l2.9-2.8c-0.4-0.3-0.9-0.4-1.3-0.4c-0.5,0-0.9,0.2-1.3,0.6C832.8,680.1,832.5,680.5,832.5,681z"/>
		<path class="st3" d="M838.6,672.3c0.2-0.5,0.5-0.9,1-1.4l1.5,1.6c-0.2,0.2-0.3,0.3-0.4,0.3c-0.5,0.5-0.7,1-0.7,1.5
			c0,0.5,0.2,1.1,0.8,1.6l2.7,2.7l-1.7,1.6l-5.6-5.8l1.6-1.6l0.7,0.8C838.4,673.3,838.4,672.8,838.6,672.3z"/>
		<path class="st3" d="M849.6,668l-4.4,4.3c0.4,0.3,0.9,0.4,1.4,0.3c0.5-0.1,1-0.3,1.4-0.8c0.3-0.3,0.5-0.6,0.7-0.9
			c0.1-0.3,0.2-0.7,0.2-1.1l1.8,0.1c0.1,1.2-0.4,2.2-1.5,3.3c-0.7,0.6-1.4,1.1-2.1,1.3c-0.7,0.2-1.5,0.3-2.2,0.1
			c-0.7-0.2-1.3-0.6-1.9-1.1c-0.5-0.6-0.9-1.2-1.1-1.9c-0.2-0.7-0.1-1.4,0.1-2.1c0.2-0.7,0.6-1.3,1.2-1.9c0.6-0.5,1.2-0.9,1.9-1.1
			c0.7-0.2,1.4-0.2,2.1,0c0.7,0.2,1.3,0.6,1.9,1.2C849.2,667.6,849.3,667.7,849.6,668z M843.8,670c0,0.5,0.1,0.9,0.4,1.3l2.9-2.8
			c-0.4-0.3-0.9-0.4-1.3-0.4c-0.5,0-0.9,0.2-1.3,0.6C844.1,669.1,843.9,669.5,843.8,670z"/>
		<path class="st3" d="M856.5,663.5l1.3,1.3l-5.2,5l-1-1l-0.4-6.3l-2.9,2.8l-1.3-1.3l5-4.8l1,1l0.4,6.3L856.5,663.5z"/>
		<path class="st3" d="M863.3,651.8l1.6-1.5l3,3.1c-0.1,0.7-0.4,1.4-0.7,2.1c-0.4,0.7-0.8,1.3-1.4,1.8c-0.8,0.8-1.6,1.3-2.6,1.5
			c-0.9,0.3-1.9,0.3-2.8,0c-0.9-0.2-1.8-0.7-2.5-1.5c-0.7-0.7-1.2-1.6-1.4-2.5s-0.2-1.9,0.1-2.8c0.3-0.9,0.9-1.8,1.6-2.6
			c0.7-0.6,1.4-1.1,2.1-1.4c0.8-0.3,1.5-0.4,2.3-0.3l-0.1,2.1c-1.1,0-2,0.3-2.8,1c-0.5,0.5-0.8,1-1,1.5c-0.2,0.6-0.2,1.1,0,1.7
			s0.5,1.1,0.9,1.6c0.5,0.5,1,0.8,1.5,0.9c0.6,0.2,1.1,0.2,1.7,0c0.6-0.2,1.1-0.5,1.6-0.9c0.5-0.5,0.9-1,1-1.6L863.3,651.8z"/>
		<path class="st3" d="M869.5,643.2c0.9,0,1.8,0.4,2.6,1.2l3.2,3.3l-1.6,1.5l-0.7-0.7c0.2,0.8-0.1,1.7-1,2.5
			c-0.4,0.4-0.9,0.7-1.4,0.9c-0.5,0.2-0.9,0.2-1.4,0.1c-0.4-0.1-0.8-0.3-1.1-0.7c-0.5-0.5-0.7-1.2-0.6-1.9c0.1-0.7,0.6-1.5,1.4-2.3
			l1.3-1.3c-0.4-0.4-0.7-0.5-1.2-0.5c-0.4,0-0.8,0.2-1.3,0.7c-0.3,0.3-0.6,0.6-0.8,1c-0.2,0.4-0.3,0.8-0.4,1.1l-1.7-0.6
			c0.1-0.5,0.3-1.1,0.6-1.6c0.3-0.5,0.7-1.1,1.2-1.5C867.7,643.7,868.6,643.3,869.5,643.2z M872,648.6c0.1-0.3,0.1-0.7-0.1-1
			l-0.6-0.6l-1.2,1.1c-0.7,0.7-0.8,1.2-0.4,1.7c0.2,0.2,0.5,0.3,0.7,0.3c0.3,0,0.6-0.2,0.9-0.5C871.7,649.3,871.9,648.9,872,648.6z"
			/>
		<path class="st3" d="M869.1,638.3l1.7-1.6l7.7,8l-1.7,1.6L869.1,638.3z"/>
		<path class="st3" d="M878.2,629.4l7.7,8l-1.6,1.6l-0.6-0.7c0.1,0.9-0.3,1.7-1.1,2.5c-0.5,0.5-1.2,0.9-1.8,1.1
			c-0.7,0.2-1.4,0.2-2.1,0c-0.7-0.2-1.3-0.6-1.9-1.2s-1-1.2-1.1-1.9c-0.2-0.7-0.2-1.4,0-2.1c0.2-0.7,0.6-1.3,1.1-1.8
			c0.7-0.7,1.5-1,2.4-1l-2.7-2.8L878.2,629.4z M882.2,637.7c0-0.6-0.2-1.1-0.7-1.6c-0.5-0.5-1-0.7-1.6-0.8s-1.1,0.2-1.5,0.6
			c-0.4,0.4-0.6,0.9-0.6,1.5s0.2,1.1,0.7,1.6c0.5,0.5,1,0.7,1.6,0.8s1.1-0.2,1.5-0.6C882,638.7,882.2,638.3,882.2,637.7z"/>
		<path class="st3" d="M882.9,624.7l1.8-1.8l-0.4,3.4l-1.3,1.3L882.9,624.7z M888.4,634.5c-0.7,0.2-1.5,0.2-2.2,0
			c-0.7-0.2-1.3-0.6-1.9-1.1c-0.6-0.6-0.9-1.2-1.1-1.9c-0.2-0.7-0.1-1.4,0.1-2.2c0.2-0.7,0.7-1.4,1.3-2s1.3-1,2-1.2
			c0.7-0.2,1.4-0.2,2.2,0c0.7,0.2,1.3,0.6,1.9,1.1c0.6,0.6,0.9,1.2,1.1,1.9c0.2,0.7,0.1,1.4-0.1,2.2c-0.2,0.7-0.7,1.4-1.3,2
			S889.1,634.3,888.4,634.5z M889.7,630.5c0-0.6-0.2-1.1-0.7-1.6c-0.5-0.5-1-0.7-1.5-0.8c-0.6,0-1.1,0.2-1.5,0.6s-0.6,0.9-0.6,1.5
			c0,0.6,0.2,1.1,0.7,1.6c0.5,0.5,1,0.7,1.6,0.8c0.6,0,1.1-0.2,1.5-0.6S889.7,631,889.7,630.5z"/>
		<path class="st3" d="M895,628.5c-0.6,0.3-1.1,0.5-1.5,0.6l-0.6-1.7c0.4-0.1,0.9-0.3,1.3-0.5c0.5-0.3,0.9-0.5,1.2-0.9
			c0.7-0.7,0.9-1.2,0.6-1.6c-0.2-0.2-0.4-0.2-0.6-0.1c-0.3,0.1-0.6,0.3-1.1,0.7c-0.5,0.4-1,0.7-1.4,0.9c-0.4,0.2-0.8,0.3-1.3,0.3
			c-0.5,0-0.9-0.2-1.3-0.7c-0.4-0.4-0.6-0.8-0.6-1.3c-0.1-0.5,0-1,0.3-1.6c0.3-0.5,0.7-1.1,1.2-1.6c0.4-0.4,0.9-0.7,1.4-1.1
			c0.5-0.3,0.9-0.5,1.4-0.6l0.6,1.7c-0.8,0.2-1.5,0.6-2.1,1.2c-0.4,0.3-0.6,0.7-0.7,0.9c-0.1,0.3,0,0.5,0.1,0.6
			c0.2,0.2,0.4,0.2,0.7,0.1c0.3-0.1,0.6-0.3,1.1-0.7c0.5-0.4,1-0.7,1.4-0.9c0.4-0.2,0.8-0.3,1.3-0.3c0.5,0,0.9,0.2,1.3,0.7
			c0.3,0.4,0.6,0.8,0.6,1.3c0.1,0.5,0,1-0.3,1.6c-0.3,0.6-0.7,1.1-1.2,1.7C896.1,627.7,895.6,628.1,895,628.5z"/>
	</g>
	<g>
		<g class="st2">
			<path class="st3" d="M511,697.9c0.7,0.3,1.2,0.8,1.6,1.3s0.6,1.2,0.6,2c0,0.8-0.2,1.4-0.6,2c-0.4,0.6-0.9,1-1.6,1.3
				c-0.7,0.3-1.5,0.5-2.4,0.5h-2.1v2.9h-2.4v-10.5h4.5C509.5,697.4,510.3,697.5,511,697.9z M510.1,702.5c0.4-0.3,0.6-0.8,0.6-1.3
				c0-0.6-0.2-1-0.6-1.4c-0.4-0.3-0.9-0.5-1.7-0.5h-2v3.6h2C509.2,703,509.7,702.9,510.1,702.5z"/>
			<path class="st3" d="M514.9,696.8h2.3v11.1h-2.3V696.8z"/>
			<path class="st3" d="M525.5,700.6c0.7,0.6,1,1.5,1,2.7v4.6h-2.2v-1c-0.4,0.8-1.3,1.1-2.5,1.1c-0.6,0-1.2-0.1-1.6-0.3
				s-0.8-0.5-1-0.9c-0.2-0.4-0.4-0.8-0.4-1.3c0-0.8,0.3-1.3,0.8-1.8s1.4-0.6,2.6-0.6h1.9c0-0.5-0.2-0.9-0.5-1.2
				c-0.3-0.3-0.8-0.4-1.4-0.4c-0.4,0-0.9,0.1-1.3,0.2c-0.4,0.1-0.8,0.3-1.1,0.5l-0.8-1.6c0.4-0.3,1-0.5,1.6-0.7s1.2-0.3,1.9-0.3
				C523.9,699.7,524.8,700,525.5,700.6z M523.5,706.2c0.3-0.2,0.5-0.5,0.7-0.8v-0.8h-1.6c-1,0-1.4,0.3-1.4,0.9
				c0,0.3,0.1,0.5,0.4,0.7c0.2,0.2,0.6,0.3,1,0.3C522.9,706.4,523.2,706.3,523.5,706.2z"/>
			<path class="st3" d="M535.3,706.1v1.8h-7.2v-1.4l4.1-4.9h-4v-1.8h7v1.4l-4.1,4.9H535.3z"/>
			<path class="st3" d="M542.9,700.6c0.7,0.6,1,1.5,1,2.7v4.6h-2.2v-1c-0.4,0.8-1.3,1.1-2.5,1.1c-0.6,0-1.2-0.1-1.6-0.3
				s-0.8-0.5-1-0.9c-0.2-0.4-0.4-0.8-0.4-1.3c0-0.8,0.3-1.3,0.8-1.8s1.4-0.6,2.6-0.6h1.9c0-0.5-0.2-0.9-0.5-1.2
				c-0.3-0.3-0.8-0.4-1.4-0.4c-0.4,0-0.9,0.1-1.3,0.2c-0.4,0.1-0.8,0.3-1.1,0.5l-0.8-1.6c0.4-0.3,1-0.5,1.6-0.7s1.2-0.3,1.9-0.3
				C541.3,699.7,542.2,700,542.9,700.6z M540.9,706.2c0.3-0.2,0.5-0.5,0.7-0.8v-0.8H540c-1,0-1.4,0.3-1.4,0.9c0,0.3,0.1,0.5,0.4,0.7
				c0.2,0.2,0.6,0.3,1,0.3C540.3,706.4,540.6,706.3,540.9,706.2z"/>
			<path class="st3" d="M558.5,696.8v11.1h-2.2V707c-0.6,0.7-1.4,1-2.5,1c-0.8,0-1.4-0.2-2.1-0.5s-1.1-0.8-1.4-1.5s-0.5-1.4-0.5-2.2
				s0.2-1.6,0.5-2.2c0.3-0.6,0.8-1.1,1.4-1.5s1.3-0.5,2.1-0.5c1,0,1.8,0.3,2.4,1v-3.9H558.5z M555.6,705.5c0.4-0.4,0.6-0.9,0.6-1.6
				c0-0.7-0.2-1.2-0.6-1.6c-0.4-0.4-0.9-0.6-1.5-0.6c-0.6,0-1.1,0.2-1.5,0.6c-0.4,0.4-0.6,0.9-0.6,1.6c0,0.7,0.2,1.2,0.6,1.6
				c0.4,0.4,0.9,0.6,1.5,0.6C554.7,706.1,555.2,705.9,555.6,705.5z"/>
			<path class="st3" d="M568.5,704.5h-6.1c0.1,0.5,0.4,0.9,0.8,1.2c0.4,0.3,0.9,0.4,1.5,0.4c0.4,0,0.8-0.1,1.1-0.2
				c0.3-0.1,0.6-0.3,0.9-0.6l1.2,1.4c-0.8,0.9-1.9,1.3-3.3,1.3c-0.9,0-1.7-0.2-2.4-0.5c-0.7-0.4-1.2-0.8-1.6-1.5
				c-0.4-0.6-0.6-1.3-0.6-2.1c0-0.8,0.2-1.5,0.6-2.1c0.4-0.6,0.9-1.1,1.5-1.5c0.7-0.4,1.4-0.5,2.2-0.5c0.8,0,1.5,0.2,2.1,0.5
				s1.1,0.8,1.5,1.5c0.4,0.6,0.5,1.4,0.5,2.2C568.6,703.9,568.6,704.1,568.5,704.5z M563,701.9c-0.4,0.3-0.6,0.7-0.7,1.2h4
				c-0.1-0.5-0.3-0.9-0.7-1.2c-0.4-0.3-0.8-0.5-1.3-0.5C563.9,701.5,563.4,701.6,563,701.9z"/>
		</g>
		<g class="st2">
			<path class="st3" d="M506.2,725.5c-0.8-0.2-1.4-0.5-1.9-0.9l0.8-1.8c0.4,0.3,1,0.6,1.6,0.8c0.6,0.2,1.2,0.3,1.9,0.3
				c0.7,0,1.2-0.1,1.5-0.3c0.3-0.2,0.5-0.5,0.5-0.8c0-0.3-0.1-0.5-0.3-0.6c-0.2-0.2-0.4-0.3-0.8-0.4c-0.3-0.1-0.7-0.2-1.2-0.3
				c-0.8-0.2-1.5-0.4-2-0.6c-0.5-0.2-0.9-0.5-1.3-0.9c-0.4-0.4-0.5-1-0.5-1.7c0-0.6,0.2-1.2,0.5-1.7s0.8-0.9,1.5-1.2
				c0.7-0.3,1.5-0.4,2.4-0.4c0.7,0,1.3,0.1,2,0.2c0.6,0.2,1.2,0.4,1.7,0.7l-0.8,1.8c-1-0.5-1.9-0.8-2.9-0.8c-0.7,0-1.2,0.1-1.5,0.3
				c-0.3,0.2-0.5,0.5-0.5,0.9c0,0.4,0.2,0.6,0.6,0.8s0.9,0.3,1.7,0.5c0.8,0.2,1.5,0.4,2,0.6c0.5,0.2,0.9,0.5,1.3,0.9
				c0.4,0.4,0.5,1,0.5,1.7c0,0.6-0.2,1.1-0.5,1.6s-0.8,0.9-1.5,1.2c-0.7,0.3-1.5,0.4-2.4,0.4C507.8,725.8,507,725.7,506.2,725.5z"/>
			<path class="st3" d="M520.7,718.3c0.7,0.6,1,1.5,1,2.7v4.6h-2.2v-1c-0.4,0.8-1.3,1.1-2.5,1.1c-0.6,0-1.2-0.1-1.6-0.3
				s-0.8-0.5-1-0.9c-0.2-0.4-0.4-0.8-0.4-1.3c0-0.8,0.3-1.3,0.8-1.8s1.4-0.6,2.6-0.6h1.9c0-0.5-0.2-0.9-0.5-1.2
				c-0.3-0.3-0.8-0.4-1.4-0.4c-0.4,0-0.9,0.1-1.3,0.2c-0.4,0.1-0.8,0.3-1.1,0.5l-0.8-1.6c0.4-0.3,1-0.5,1.6-0.7s1.2-0.3,1.9-0.3
				C519.1,717.4,520,717.7,520.7,718.3z M518.7,723.9c0.3-0.2,0.5-0.5,0.7-0.8v-0.8h-1.6c-1,0-1.4,0.3-1.4,0.9
				c0,0.3,0.1,0.5,0.4,0.7c0.2,0.2,0.6,0.3,1,0.3C518,724.2,518.4,724.1,518.7,723.9z"/>
			<path class="st3" d="M531.1,718.3c0.6,0.6,0.9,1.5,0.9,2.7v4.6h-2.3v-4.3c0-0.6-0.1-1.1-0.4-1.4c-0.3-0.3-0.7-0.5-1.2-0.5
				c-0.6,0-1.1,0.2-1.4,0.5s-0.5,0.9-0.5,1.6v4h-2.3v-8.1h2.2v0.9c0.3-0.3,0.7-0.6,1.2-0.8c0.5-0.2,1-0.3,1.5-0.3
				C529.7,717.4,530.5,717.7,531.1,718.3z"/>
			<path class="st3" d="M547.7,721.1c0.3,0.4,0.5,1,0.5,1.6c0,0.9-0.4,1.6-1.1,2.1s-1.8,0.7-3.1,0.7h-5.4v-10.5h5.1
				c1.3,0,2.3,0.2,2.9,0.7c0.7,0.5,1,1.2,1,2c0,0.5-0.1,1-0.4,1.4c-0.2,0.4-0.6,0.7-1,0.9C546.9,720.4,547.4,720.7,547.7,721.1z
				 M541,717v2.5h2.4c0.6,0,1.1-0.1,1.4-0.3c0.3-0.2,0.5-0.5,0.5-0.9c0-0.4-0.2-0.7-0.5-0.9c-0.3-0.2-0.8-0.3-1.4-0.3H541z
				 M545.3,723.5c0.3-0.2,0.5-0.5,0.5-1c0-0.9-0.6-1.3-1.9-1.3H541v2.6h2.8C544.5,723.8,545,723.7,545.3,723.5z"/>
			<path class="st3" d="M549.9,714.5h2.3v11.1h-2.3V714.5z"/>
			<path class="st3" d="M560.5,718.3c0.7,0.6,1,1.5,1,2.7v4.6h-2.2v-1c-0.4,0.8-1.3,1.1-2.5,1.1c-0.6,0-1.2-0.1-1.6-0.3
				s-0.8-0.5-1-0.9c-0.2-0.4-0.4-0.8-0.4-1.3c0-0.8,0.3-1.3,0.8-1.8c0.6-0.4,1.4-0.6,2.6-0.6h1.9c0-0.5-0.2-0.9-0.5-1.2
				c-0.3-0.3-0.8-0.4-1.4-0.4c-0.4,0-0.9,0.1-1.3,0.2c-0.4,0.1-0.8,0.3-1.1,0.5l-0.8-1.6c0.4-0.3,1-0.5,1.6-0.7s1.2-0.3,1.9-0.3
				C558.9,717.4,559.9,717.7,560.5,718.3z M558.6,723.9c0.3-0.2,0.5-0.5,0.7-0.8v-0.8h-1.6c-1,0-1.4,0.3-1.4,0.9
				c0,0.3,0.1,0.5,0.4,0.7c0.2,0.2,0.6,0.3,1,0.3C557.9,724.2,558.2,724.1,558.6,723.9z"/>
			<path class="st3" d="M564.4,725.5c-0.6-0.2-1.2-0.4-1.5-0.6l0.8-1.7c0.4,0.2,0.8,0.4,1.3,0.6c0.5,0.1,1,0.2,1.5,0.2
				c1,0,1.5-0.2,1.5-0.7c0-0.2-0.1-0.4-0.4-0.5c-0.3-0.1-0.7-0.2-1.2-0.3c-0.7-0.1-1.2-0.2-1.6-0.3c-0.4-0.1-0.8-0.4-1.1-0.7
				c-0.3-0.3-0.5-0.8-0.5-1.4c0-0.5,0.1-1,0.4-1.4c0.3-0.4,0.7-0.7,1.3-0.9c0.6-0.2,1.2-0.3,2-0.3c0.6,0,1.1,0.1,1.7,0.2
				c0.6,0.1,1,0.3,1.4,0.5l-0.8,1.7c-0.7-0.4-1.5-0.6-2.3-0.6c-0.5,0-0.9,0.1-1.1,0.2s-0.4,0.3-0.4,0.5c0,0.3,0.1,0.4,0.4,0.5
				c0.3,0.1,0.7,0.2,1.3,0.3c0.7,0.1,1.2,0.2,1.6,0.4s0.8,0.4,1.1,0.7s0.5,0.8,0.5,1.4c0,0.5-0.1,0.9-0.5,1.3
				c-0.3,0.4-0.7,0.7-1.3,0.9c-0.6,0.2-1.3,0.3-2,0.3C565.7,725.8,565.1,725.7,564.4,725.5z"/>
		</g>
	</g>
	<g class="st2">
		<path class="st3" d="M663.6,558.7c0.7,0.3,1.2,0.8,1.6,1.3s0.6,1.2,0.6,2c0,0.8-0.2,1.4-0.6,2c-0.4,0.6-0.9,1-1.6,1.3
			c-0.7,0.3-1.5,0.5-2.4,0.5h-2.1v2.9h-2.4v-10.5h4.5C662.1,558.2,662.9,558.4,663.6,558.7z M662.7,563.4c0.4-0.3,0.6-0.8,0.6-1.3
			c0-0.6-0.2-1-0.6-1.4c-0.4-0.3-0.9-0.5-1.7-0.5h-2v3.6h2C661.8,563.8,662.4,563.7,662.7,563.4z"/>
		<path class="st3" d="M673.4,561.4c0.7,0.6,1,1.5,1,2.7v4.6h-2.2v-1c-0.4,0.8-1.3,1.1-2.5,1.1c-0.6,0-1.2-0.1-1.6-0.3
			s-0.8-0.5-1-0.9c-0.2-0.4-0.4-0.8-0.4-1.3c0-0.8,0.3-1.3,0.8-1.8c0.6-0.4,1.4-0.6,2.6-0.6h1.9c0-0.5-0.2-0.9-0.5-1.2
			c-0.3-0.3-0.8-0.4-1.4-0.4c-0.4,0-0.9,0.1-1.3,0.2c-0.4,0.1-0.8,0.3-1.1,0.5l-0.8-1.6c0.4-0.3,1-0.5,1.6-0.7s1.2-0.3,1.9-0.3
			C671.8,560.5,672.7,560.8,673.4,561.4z M671.4,567c0.3-0.2,0.5-0.5,0.7-0.8v-0.8h-1.6c-1,0-1.4,0.3-1.4,0.9c0,0.3,0.1,0.5,0.4,0.7
			c0.2,0.2,0.6,0.3,1,0.3C670.7,567.3,671.1,567.2,671.4,567z"/>
		<path class="st3" d="M679.9,560.8c0.5-0.2,1-0.3,1.6-0.3v2.2c-0.3,0-0.4,0-0.5,0c-0.7,0-1.2,0.2-1.6,0.6c-0.4,0.4-0.6,0.9-0.6,1.7
			v3.8h-2.3v-8.1h2.2v1.1C679,561.3,679.4,561,679.9,560.8z"/>
		<path class="st3" d="M691,560.6v11h-2.3v-3.8c-0.6,0.7-1.4,1-2.4,1c-0.8,0-1.4-0.2-2.1-0.5s-1.1-0.8-1.4-1.5
			c-0.4-0.6-0.5-1.4-0.5-2.2s0.2-1.6,0.5-2.2c0.3-0.6,0.8-1.1,1.4-1.5s1.3-0.5,2.1-0.5c1.1,0,1.9,0.4,2.5,1.1v-0.9H691z
			 M688.1,566.3c0.4-0.4,0.6-0.9,0.6-1.6c0-0.7-0.2-1.2-0.6-1.6c-0.4-0.4-0.9-0.6-1.5-0.6c-0.6,0-1.1,0.2-1.5,0.6
			c-0.4,0.4-0.6,0.9-0.6,1.6c0,0.7,0.2,1.2,0.6,1.6c0.4,0.4,0.9,0.6,1.5,0.6C687.3,566.9,687.8,566.7,688.1,566.3z"/>
		<path class="st3" d="M701.3,560.6v8.1h-2.2v-1c-0.3,0.4-0.7,0.6-1.1,0.8c-0.4,0.2-0.9,0.3-1.4,0.3c-1.1,0-1.9-0.3-2.5-0.9
			s-0.9-1.5-0.9-2.7v-4.6h2.3v4.2c0,1.3,0.5,2,1.6,2c0.6,0,1-0.2,1.4-0.5s0.5-0.9,0.5-1.6v-4H701.3z"/>
		<path class="st3" d="M711.3,565.3h-6.1c0.1,0.5,0.4,0.9,0.8,1.2c0.4,0.3,0.9,0.4,1.5,0.4c0.4,0,0.8-0.1,1.1-0.2s0.6-0.3,0.9-0.6
			l1.2,1.4c-0.8,0.9-1.9,1.3-3.3,1.3c-0.9,0-1.7-0.2-2.4-0.5c-0.7-0.4-1.2-0.8-1.6-1.5s-0.6-1.3-0.6-2.1c0-0.8,0.2-1.5,0.6-2.1
			c0.4-0.6,0.9-1.1,1.5-1.5c0.7-0.4,1.4-0.5,2.2-0.5c0.8,0,1.5,0.2,2.1,0.5c0.6,0.3,1.1,0.8,1.5,1.5c0.4,0.6,0.5,1.4,0.5,2.2
			C711.4,564.7,711.4,565,711.3,565.3z M705.9,562.7c-0.4,0.3-0.6,0.7-0.7,1.2h4c-0.1-0.5-0.3-0.9-0.7-1.2c-0.4-0.3-0.8-0.5-1.3-0.5
			C706.7,562.3,706.2,562.4,705.9,562.7z"/>
		<path class="st3" d="M724.1,568.7l-2-2.9h-0.1h-2.1v2.9h-2.4v-10.5h4.5c0.9,0,1.7,0.2,2.4,0.5c0.7,0.3,1.2,0.8,1.6,1.3
			s0.6,1.2,0.6,2c0,0.8-0.2,1.5-0.6,2c-0.4,0.6-0.9,1-1.6,1.3l2.4,3.4H724.1z M723.4,560.7c-0.4-0.3-0.9-0.5-1.7-0.5h-2v3.7h2
			c0.7,0,1.3-0.2,1.7-0.5s0.6-0.8,0.6-1.4C724,561.4,723.8,561,723.4,560.7z"/>
		<path class="st3" d="M736.4,560.6v8.1h-2.2v-1c-0.3,0.4-0.7,0.6-1.1,0.8c-0.4,0.2-0.9,0.3-1.4,0.3c-1.1,0-1.9-0.3-2.5-0.9
			s-0.9-1.5-0.9-2.7v-4.6h2.3v4.2c0,1.3,0.5,2,1.6,2c0.6,0,1-0.2,1.3-0.5s0.5-0.9,0.5-1.6v-4H736.4z"/>
		<path class="st3" d="M738.6,559.1c-0.3-0.3-0.4-0.6-0.4-0.9s0.1-0.7,0.4-0.9c0.3-0.3,0.6-0.4,1-0.4c0.4,0,0.8,0.1,1,0.4
			c0.3,0.2,0.4,0.5,0.4,0.9c0,0.4-0.1,0.7-0.4,1c-0.3,0.3-0.6,0.4-1,0.4C739.3,559.5,738.9,559.4,738.6,559.1z M738.5,560.6h2.3v8.1
			h-2.3V560.6z"/>
		<path class="st3" d="M749.7,566.9v1.8h-7.2v-1.4l4.1-4.9h-4v-1.8h7v1.4l-4.1,4.9H749.7z"/>
	</g>
	<g class="st2">
		<path class="st3" d="M682.2,577.4v11.1H680v-0.9c-0.6,0.7-1.4,1-2.5,1c-0.8,0-1.4-0.2-2.1-0.5c-0.6-0.3-1.1-0.8-1.4-1.5
			s-0.5-1.4-0.5-2.2s0.2-1.6,0.5-2.2c0.3-0.6,0.8-1.1,1.4-1.5c0.6-0.3,1.3-0.5,2.1-0.5c1,0,1.8,0.3,2.4,1v-3.9H682.2z M679.3,586.2
			c0.4-0.4,0.6-0.9,0.6-1.6c0-0.7-0.2-1.2-0.6-1.6c-0.4-0.4-0.9-0.6-1.5-0.6c-0.6,0-1.1,0.2-1.5,0.6c-0.4,0.4-0.6,0.9-0.6,1.6
			c0,0.7,0.2,1.2,0.6,1.6c0.4,0.4,0.9,0.6,1.5,0.6C678.4,586.8,678.9,586.6,679.3,586.2z"/>
		<path class="st3" d="M692.2,585.2h-6.1c0.1,0.5,0.4,0.9,0.8,1.2c0.4,0.3,0.9,0.4,1.5,0.4c0.4,0,0.8-0.1,1.1-0.2s0.6-0.3,0.9-0.6
			l1.2,1.4c-0.8,0.9-1.9,1.3-3.3,1.3c-0.9,0-1.7-0.2-2.4-0.5c-0.7-0.4-1.2-0.8-1.6-1.5s-0.6-1.3-0.6-2.1c0-0.8,0.2-1.5,0.6-2.1
			c0.4-0.6,0.9-1.1,1.5-1.5c0.7-0.4,1.4-0.5,2.2-0.5c0.8,0,1.5,0.2,2.1,0.5c0.6,0.3,1.1,0.8,1.5,1.5c0.4,0.6,0.5,1.4,0.5,2.2
			C692.3,584.6,692.2,584.8,692.2,585.2z M686.7,582.6c-0.4,0.3-0.6,0.7-0.7,1.2h4c-0.1-0.5-0.3-0.9-0.7-1.2
			c-0.4-0.3-0.8-0.5-1.3-0.5C687.5,582.2,687.1,582.3,686.7,582.6z"/>
		<path class="st3" d="M705.1,586.3h-4.9l-0.9,2.3h-2.5l4.7-10.5h2.4l4.7,10.5h-2.5L705.1,586.3z M704.4,584.5l-1.7-4l-1.7,4H704.4z
			"/>
		<path class="st3" d="M709.6,577.4h2.3v11.1h-2.3V577.4z"/>
		<path class="st3" d="M722.3,577.4v11.1h-2.2v-0.9c-0.6,0.7-1.4,1-2.5,1c-0.8,0-1.4-0.2-2.1-0.5s-1.1-0.8-1.4-1.5
			c-0.4-0.6-0.5-1.4-0.5-2.2s0.2-1.6,0.5-2.2c0.3-0.6,0.8-1.1,1.4-1.5s1.3-0.5,2.1-0.5c1,0,1.8,0.3,2.4,1v-3.9H722.3z M719.4,586.2
			c0.4-0.4,0.6-0.9,0.6-1.6c0-0.7-0.2-1.2-0.6-1.6c-0.4-0.4-0.9-0.6-1.5-0.6c-0.6,0-1.1,0.2-1.5,0.6c-0.4,0.4-0.6,0.9-0.6,1.6
			c0,0.7,0.2,1.2,0.6,1.6c0.4,0.4,0.9,0.6,1.5,0.6C718.5,586.8,719,586.6,719.4,586.2z"/>
		<path class="st3" d="M730.6,581.3c0.7,0.6,1,1.5,1,2.7v4.6h-2.2v-1c-0.4,0.8-1.3,1.1-2.5,1.1c-0.6,0-1.2-0.1-1.6-0.3
			s-0.8-0.5-1-0.9c-0.2-0.4-0.4-0.8-0.4-1.3c0-0.8,0.3-1.3,0.8-1.8c0.6-0.4,1.4-0.6,2.6-0.6h1.9c0-0.5-0.2-0.9-0.5-1.2
			c-0.3-0.3-0.8-0.4-1.4-0.4c-0.4,0-0.9,0.1-1.3,0.2c-0.4,0.1-0.8,0.3-1.1,0.5l-0.8-1.6c0.4-0.3,1-0.5,1.6-0.7s1.2-0.3,1.9-0.3
			C729,580.4,729.9,580.7,730.6,581.3z M728.6,586.8c0.3-0.2,0.5-0.5,0.7-0.8v-0.8h-1.6c-1,0-1.4,0.3-1.4,0.9c0,0.3,0.1,0.5,0.4,0.7
			c0.2,0.2,0.6,0.3,1,0.3C727.9,587.1,728.3,587,728.6,586.8z"/>
	</g>
	<g class="st2">
		<path class="st3" d="M693.7,423.5c-0.9-0.5-1.5-1.1-2-1.9c-0.5-0.8-0.7-1.8-0.7-2.8s0.2-2,0.7-2.8c0.5-0.8,1.2-1.5,2-1.9
			s1.8-0.7,2.9-0.7c0.9,0,1.7,0.2,2.5,0.5c0.7,0.3,1.4,0.8,1.9,1.4l-1.6,1.4c-0.7-0.8-1.6-1.2-2.6-1.2c-0.6,0-1.2,0.1-1.7,0.4
			c-0.5,0.3-0.9,0.7-1.2,1.2c-0.3,0.5-0.4,1.1-0.4,1.7s0.1,1.2,0.4,1.7c0.3,0.5,0.7,0.9,1.2,1.2c0.5,0.3,1.1,0.4,1.7,0.4
			c1.1,0,1.9-0.4,2.6-1.2l1.6,1.4c-0.5,0.6-1.1,1.1-1.9,1.4c-0.7,0.3-1.6,0.5-2.5,0.5C695.5,424.2,694.6,424,693.7,423.5z"/>
		<path class="st3" d="M702.5,414.5c-0.3-0.3-0.4-0.6-0.4-0.9s0.1-0.7,0.4-0.9c0.3-0.3,0.6-0.4,1-0.4s0.8,0.1,1,0.4
			c0.3,0.2,0.4,0.5,0.4,0.9c0,0.4-0.1,0.7-0.4,1c-0.3,0.3-0.6,0.4-1,0.4S702.8,414.7,702.5,414.5z M702.4,416h2.3v8.1h-2.3V416z"/>
		<path class="st3" d="M715.1,416v8.1h-2.2v-1c-0.3,0.4-0.7,0.6-1.1,0.8c-0.4,0.2-0.9,0.3-1.4,0.3c-1.1,0-1.9-0.3-2.5-0.9
			s-0.9-1.5-0.9-2.7V416h2.3v4.2c0,1.3,0.5,2,1.6,2c0.6,0,1-0.2,1.3-0.5s0.5-0.9,0.5-1.6v-4H715.1z"/>
		<path class="st3" d="M725.5,412.9V424h-2.2v-0.9c-0.6,0.7-1.4,1-2.5,1c-0.8,0-1.4-0.2-2.1-0.5s-1.1-0.8-1.4-1.5
			c-0.4-0.6-0.5-1.4-0.5-2.2s0.2-1.6,0.5-2.2c0.3-0.6,0.8-1.1,1.4-1.5s1.3-0.5,2.1-0.5c1,0,1.8,0.3,2.4,1v-3.9H725.5z M722.6,421.6
			c0.4-0.4,0.6-0.9,0.6-1.6c0-0.7-0.2-1.2-0.6-1.6c-0.4-0.4-0.9-0.6-1.5-0.6c-0.6,0-1.1,0.2-1.5,0.6c-0.4,0.4-0.6,0.9-0.6,1.6
			c0,0.7,0.2,1.2,0.6,1.6c0.4,0.4,0.9,0.6,1.5,0.6C721.7,422.2,722.2,422,722.6,421.6z"/>
		<path class="st3" d="M733.8,416.7c0.7,0.6,1,1.5,1,2.7v4.6h-2.2v-1c-0.4,0.8-1.3,1.1-2.5,1.1c-0.6,0-1.2-0.1-1.6-0.3
			s-0.8-0.5-1-0.9c-0.2-0.4-0.4-0.8-0.4-1.3c0-0.8,0.3-1.3,0.8-1.8c0.6-0.4,1.4-0.6,2.6-0.6h1.9c0-0.5-0.2-0.9-0.5-1.2
			c-0.3-0.3-0.8-0.4-1.4-0.4c-0.4,0-0.9,0.1-1.3,0.2c-0.4,0.1-0.8,0.3-1.1,0.5l-0.8-1.6c0.4-0.3,1-0.5,1.6-0.7s1.2-0.3,1.9-0.3
			C732.1,415.8,733.1,416.1,733.8,416.7z M731.8,422.3c0.3-0.2,0.5-0.5,0.7-0.8v-0.8h-1.6c-1,0-1.4,0.3-1.4,0.9
			c0,0.3,0.1,0.5,0.4,0.7c0.2,0.2,0.6,0.3,1,0.3C731.1,422.6,731.5,422.5,731.8,422.3z"/>
		<path class="st3" d="M745.2,412.9V424H743v-0.9c-0.6,0.7-1.4,1-2.5,1c-0.8,0-1.4-0.2-2.1-0.5s-1.1-0.8-1.4-1.5
			c-0.4-0.6-0.5-1.4-0.5-2.2s0.2-1.6,0.5-2.2c0.3-0.6,0.8-1.1,1.4-1.5s1.3-0.5,2.1-0.5c1,0,1.8,0.3,2.4,1v-3.9H745.2z M742.3,421.6
			c0.4-0.4,0.6-0.9,0.6-1.6c0-0.7-0.2-1.2-0.6-1.6c-0.4-0.4-0.9-0.6-1.5-0.6c-0.6,0-1.1,0.2-1.5,0.6c-0.4,0.4-0.6,0.9-0.6,1.6
			c0,0.7,0.2,1.2,0.6,1.6c0.4,0.4,0.9,0.6,1.5,0.6C741.4,422.2,741.9,422,742.3,421.6z"/>
	</g>
	<g class="st2">
		<path class="st3" d="M680.6,431.5h4.8c1.1,0,2.1,0.2,3,0.7c0.9,0.4,1.6,1,2,1.8s0.7,1.7,0.7,2.8s-0.2,2-0.7,2.8s-1.2,1.4-2,1.8
			c-0.9,0.4-1.9,0.7-3,0.7h-4.8V431.5z M685.2,440c1,0,1.9-0.3,2.5-0.9s0.9-1.4,0.9-2.4s-0.3-1.8-0.9-2.4s-1.5-0.9-2.5-0.9H683v6.5
			H685.2z"/>
		<path class="st3" d="M700.7,438.7h-6.1c0.1,0.5,0.4,0.9,0.8,1.2c0.4,0.3,0.9,0.4,1.5,0.4c0.4,0,0.8-0.1,1.1-0.2
			c0.3-0.1,0.6-0.3,0.9-0.6l1.2,1.4c-0.8,0.9-1.9,1.3-3.3,1.3c-0.9,0-1.7-0.2-2.4-0.5c-0.7-0.4-1.2-0.8-1.6-1.5s-0.6-1.3-0.6-2.1
			c0-0.8,0.2-1.5,0.6-2.1c0.4-0.6,0.9-1.1,1.5-1.5c0.7-0.4,1.4-0.5,2.2-0.5c0.8,0,1.5,0.2,2.1,0.5s1.1,0.8,1.5,1.5
			c0.4,0.6,0.5,1.4,0.5,2.2C700.7,438.1,700.7,438.3,700.7,438.7z M695.2,436.1c-0.4,0.3-0.6,0.7-0.7,1.2h4
			c-0.1-0.5-0.3-0.9-0.7-1.2c-0.4-0.3-0.8-0.5-1.3-0.5C696,435.6,695.6,435.8,695.2,436.1z"/>
		<path class="st3" d="M709.1,434.4c0.6,0.3,1.1,0.8,1.4,1.5c0.3,0.6,0.5,1.4,0.5,2.2s-0.2,1.6-0.5,2.2c-0.4,0.6-0.8,1.1-1.4,1.5
			c-0.6,0.3-1.3,0.5-2,0.5c-1,0-1.8-0.3-2.4-1v3.8h-2.3v-11h2.2v0.9c0.6-0.7,1.4-1.1,2.5-1.1C707.8,433.8,708.5,434,709.1,434.4z
			 M708.1,439.6c0.4-0.4,0.6-0.9,0.6-1.6c0-0.7-0.2-1.2-0.6-1.6c-0.4-0.4-0.9-0.6-1.5-0.6s-1.1,0.2-1.5,0.6
			c-0.4,0.4-0.6,0.9-0.6,1.6c0,0.7,0.2,1.2,0.6,1.6c0.4,0.4,0.9,0.6,1.5,0.6S707.7,440,708.1,439.6z"/>
		<path class="st3" d="M714.2,441.6c-0.7-0.4-1.2-0.8-1.6-1.5s-0.6-1.3-0.6-2.1c0-0.8,0.2-1.5,0.6-2.1s0.9-1.1,1.6-1.5
			c0.7-0.4,1.4-0.5,2.3-0.5c0.9,0,1.6,0.2,2.3,0.5c0.7,0.4,1.2,0.8,1.6,1.5s0.6,1.3,0.6,2.1c0,0.8-0.2,1.5-0.6,2.1s-0.9,1.1-1.6,1.5
			c-0.7,0.4-1.4,0.5-2.3,0.5C715.6,442.1,714.9,442,714.2,441.6z M718,439.6c0.4-0.4,0.6-0.9,0.6-1.6c0-0.7-0.2-1.2-0.6-1.6
			c-0.4-0.4-0.9-0.6-1.5-0.6c-0.6,0-1.1,0.2-1.5,0.6c-0.4,0.4-0.6,0.9-0.6,1.6c0,0.7,0.2,1.2,0.6,1.6c0.4,0.4,0.9,0.6,1.5,0.6
			C717.1,440.2,717.6,440,718,439.6z"/>
		<path class="st3" d="M725.8,434.1c0.5-0.2,1-0.3,1.6-0.3v2.2c-0.3,0-0.4,0-0.5,0c-0.7,0-1.2,0.2-1.6,0.6s-0.6,0.9-0.6,1.7v3.8
			h-2.3V434h2.2v1.1C725,434.6,725.4,434.3,725.8,434.1z"/>
		<path class="st3" d="M734.4,441.6c-0.2,0.2-0.5,0.3-0.8,0.4s-0.7,0.1-1.1,0.1c-1,0-1.7-0.2-2.2-0.7c-0.5-0.5-0.8-1.2-0.8-2.2v-3.3
			h-1.2v-1.8h1.2v-2h2.3v2h2v1.8h-2v3.3c0,0.3,0.1,0.6,0.3,0.8c0.2,0.2,0.4,0.3,0.7,0.3c0.4,0,0.7-0.1,0.9-0.3L734.4,441.6z"/>
		<path class="st3" d="M735.8,432.5c-0.3-0.3-0.4-0.6-0.4-0.9s0.1-0.7,0.4-0.9c0.3-0.3,0.6-0.4,1-0.4s0.8,0.1,1,0.4
			c0.3,0.2,0.4,0.5,0.4,0.9c0,0.4-0.1,0.7-0.4,1c-0.3,0.3-0.6,0.4-1,0.4S736.1,432.7,735.8,432.5z M735.7,434h2.3v8.1h-2.3V434z"/>
		<path class="st3" d="M748.2,434l-3.4,8.1h-2.4L739,434h2.4l2.2,5.5l2.3-5.5H748.2z"/>
		<path class="st3" d="M755,434.7c0.7,0.6,1,1.5,1,2.7v4.6h-2.2v-1c-0.4,0.8-1.3,1.1-2.5,1.1c-0.6,0-1.2-0.1-1.6-0.3s-0.8-0.5-1-0.9
			c-0.2-0.4-0.4-0.8-0.4-1.3c0-0.8,0.3-1.3,0.8-1.8c0.6-0.4,1.4-0.6,2.6-0.6h1.9c0-0.5-0.2-0.9-0.5-1.2c-0.3-0.3-0.8-0.4-1.4-0.4
			c-0.4,0-0.9,0.1-1.3,0.2c-0.4,0.1-0.8,0.3-1.1,0.5l-0.8-1.6c0.4-0.3,1-0.5,1.6-0.7s1.2-0.3,1.9-0.3
			C753.4,433.8,754.4,434.1,755,434.7z M753,440.3c0.3-0.2,0.5-0.5,0.7-0.8v-0.8h-1.6c-1,0-1.4,0.3-1.4,0.9c0,0.3,0.1,0.5,0.4,0.7
			c0.2,0.2,0.6,0.3,1,0.3C752.4,440.6,752.7,440.5,753,440.3z"/>
	</g>
	<g class="st2">
		<path class="st3" d="M676.7,302.5l-1.6-3l1.7-0.9l4.3,8.1l-1.7,0.9l-1.6-3l-7.5,4l-1.1-2.1L676.7,302.5z"/>
		<path class="st3" d="M678.7,317.2l-2.9-5.4c-0.4,0.3-0.6,0.8-0.7,1.2c-0.1,0.5,0.1,1,0.3,1.6c0.2,0.4,0.4,0.7,0.7,0.9
			s0.6,0.4,1,0.5l-0.6,1.7c-1.1-0.3-2-1-2.7-2.3c-0.4-0.8-0.7-1.6-0.7-2.4c0-0.8,0.2-1.5,0.5-2.1s0.9-1.1,1.6-1.5
			c0.7-0.4,1.4-0.5,2.1-0.5c0.7,0,1.4,0.3,2,0.7c0.6,0.4,1.1,1,1.5,1.7c0.4,0.7,0.6,1.4,0.6,2.1c0,0.7-0.2,1.4-0.6,2
			c-0.4,0.6-1,1.1-1.7,1.5C679.3,317,679.1,317,678.7,317.2z M678.4,311.1c-0.4-0.2-0.9-0.2-1.4,0l1.9,3.5c0.4-0.3,0.7-0.7,0.8-1.2
			c0.1-0.5,0-0.9-0.2-1.4C679.2,311.6,678.9,311.3,678.4,311.1z"/>
		<path class="st3" d="M687.5,323.6l-7.1,3.8l-1-2l0.8-0.5c-0.5-0.1-0.9-0.3-1.2-0.6c-0.4-0.3-0.7-0.7-0.9-1.1
			c-0.5-0.9-0.6-1.8-0.4-2.7c0.2-0.8,0.9-1.5,2-2.1l4-2.2l1.1,2.1l-3.7,2c-1.1,0.6-1.5,1.4-0.9,2.4c0.3,0.5,0.6,0.8,1.1,0.9
			c0.5,0.1,1,0,1.7-0.3l3.5-1.9L687.5,323.6z"/>
		<path class="st3" d="M691.2,324l1.1,2.1l-9.8,5.3l-1.1-2.1L691.2,324z"/>
		<path class="st3" d="M692.9,335.2c-0.2,0.9-0.8,1.6-1.9,2.2l-4.1,2.2l-1-1.9l0.9-0.5c-0.9,0-1.6-0.6-2.2-1.6
			c-0.3-0.5-0.5-1.1-0.5-1.6c0-0.5,0.1-0.9,0.3-1.3c0.2-0.4,0.5-0.7,0.9-0.9c0.7-0.4,1.3-0.4,2-0.1c0.6,0.3,1.2,1,1.8,2l0.9,1.6
			c0.4-0.2,0.7-0.6,0.8-1c0.1-0.4,0-0.9-0.3-1.4c-0.2-0.4-0.5-0.7-0.8-1c-0.3-0.3-0.6-0.5-1-0.7l1-1.5c0.5,0.2,0.9,0.6,1.4,1.1
			c0.4,0.5,0.8,1,1.1,1.6C692.9,333.4,693.1,334.3,692.9,335.2z M687,336.1c0.3,0.2,0.7,0.2,1,0.2l0.7-0.4l-0.8-1.4
			c-0.5-0.8-1-1.1-1.5-0.8c-0.3,0.1-0.4,0.4-0.5,0.6c0,0.3,0,0.6,0.2,1C686.5,335.6,686.7,335.9,687,336.1z"/>
		<path class="st3" d="M701.6,343.5l-9.8,5.3l-1.1-2l0.8-0.4c-0.9-0.2-1.6-0.8-2.1-1.7c-0.4-0.7-0.5-1.4-0.5-2.1
			c0-0.7,0.2-1.4,0.6-2c0.4-0.6,0.9-1.1,1.7-1.5s1.5-0.6,2.2-0.6c0.7,0,1.4,0.2,2,0.6c0.6,0.4,1.1,0.9,1.4,1.6
			c0.5,0.9,0.6,1.8,0.3,2.6l3.4-1.9L701.6,343.5z M692.6,345.1c0.5,0.2,1.1,0.1,1.7-0.3c0.6-0.3,1-0.8,1.2-1.3
			c0.2-0.5,0.1-1.1-0.2-1.6c-0.3-0.5-0.7-0.9-1.2-1c-0.5-0.2-1.1-0.1-1.7,0.3c-0.6,0.3-1,0.8-1.2,1.3c-0.2,0.5-0.1,1.1,0.2,1.6
			C691.6,344.6,692.1,344.9,692.6,345.1z"/>
		<path class="st3" d="M702.2,352.6c-0.2,0.9-0.8,1.6-1.9,2.2l-4.1,2.2l-1-1.9l0.9-0.5c-0.9,0-1.6-0.6-2.2-1.6
			c-0.3-0.5-0.5-1.1-0.5-1.6c0-0.5,0.1-0.9,0.3-1.3c0.2-0.4,0.5-0.7,0.9-0.9c0.7-0.4,1.3-0.4,2-0.1c0.6,0.3,1.2,1,1.8,2l0.9,1.6
			c0.4-0.2,0.7-0.6,0.8-1c0.1-0.4,0-0.9-0.3-1.4c-0.2-0.4-0.5-0.7-0.8-1s-0.6-0.5-1-0.7l1-1.5c0.5,0.2,0.9,0.6,1.4,1.1
			c0.4,0.5,0.8,1,1.1,1.6C702.2,350.7,702.4,351.7,702.2,352.6z M696.3,353.5c0.3,0.2,0.7,0.3,1,0.2l0.7-0.4l-0.8-1.4
			c-0.5-0.8-1-1.1-1.5-0.8c-0.3,0.1-0.4,0.4-0.5,0.6c0,0.3,0,0.6,0.2,1C695.8,353,696,353.3,696.3,353.5z"/>
	</g>
</g>
</svg>
