<svg xmlns="http://www.w3.org/2000/svg" viewBox="0 0 1080 1080">
    <defs>
        <style>.cls-2{stroke-miterlimit:10;}.cls-2{fill:none;stroke:#fff;stroke-width:8px;}.cls-3{font-size:15px;}.cls-19,.cls-24,.cls-3{fill:#fff;font-family:Montserrat-Bold, Montserrat;font-weight:700;}.cls-4{letter-spacing:-0.004em;}.cls-5{letter-spacing:0em;}.cls-6{letter-spacing:0.006em;}.cls-7{letter-spacing:-0.005em;}.cls-8{letter-spacing:-0.009em;}.cls-9{letter-spacing:0.006em;}.cls-10{letter-spacing:0em;}.cls-11{letter-spacing:-0.015em;}.cls-12{letter-spacing:-0.007em;}.cls-13{letter-spacing:-0.017em;}.cls-14{letter-spacing:-0.004em;}.cls-15{letter-spacing:-0.007em;}.cls-16{letter-spacing:-0.01em;}.cls-17{letter-spacing:-0.028em;}.cls-18{letter-spacing:-0.015em;}.cls-19{font-size:13px;}.cls-20{letter-spacing:-0.01em;}.cls-21{letter-spacing:0em;}.cls-22{letter-spacing:-0.017em;}.cls-23{letter-spacing:-0.004em;}.cls-24{font-size:14px;}.cls-25{letter-spacing:-0.007em;}.cls-26{letter-spacing:-0.005em;}.cls-27{letter-spacing:0.08em;}.cls-28{letter-spacing:-0.007em;}.cls-29{letter-spacing:0.006em;}.cls-30{letter-spacing:-0.004em;}.cls-31{letter-spacing:-0.004em;}.cls-32{letter-spacing:-0.009em;}</style>
    </defs>
    <g class="zone" id="4_Ciudad_Jardín" data-name="4_Ciudad_Jardín">
        <path class="cls-1" d="M294.0811,699.522c6.5433-.6888,23.4359-3.08,42.6687-5.9029-2.3147-14.0285-10-60.4766-11.6722-68.8344-2.1259-10.63-2.1142-18.1309.042-26.7549,1.627-6.5088,1.0611-16.3106.9214-18.3286-.68-2.4024-4.12-14.6973-5.9634-23.9165-1.8139-9.07-2.9331-11.9785-14.3628-12.795-15.6684-1.1191-19.02-9.2128-19.5136-10.7358l-4.9365-14.44-42.8716,9.8139-.7139-.2094a1.155,1.155,0,0,0-.7368.1294c-.0132.0146-1.2842,1.5209.4223,7.9213,3.9527,14.8213,42.606,157.5454,42.9961,158.9849l.2369.874-.1045.5059a2.83,2.83,0,0,0,.99,1.8662C282.6382,698.7539,285.811,700.3916,294.0811,699.522Z"/>
    </g>
    <g class="zone" id="4_Ciudad_del_Remdio_-_Parque_lo_Morant" data-name="4_Ciudad_del_Remdio_-_Parque_lo_Morant">
        <path class="cls-1" d="M419.0542,584.6577c-.228-1.3686-.56-3.4619-.9829-6.1338-3.3057-20.8657-12.0864-76.291-20.7852-98.0385-8.2216-20.5547-8.5923-35.1294-8.9194-47.9888-.0815-3.2119-.1587-6.2456-.3579-9.2305-.8082-12.1243-13.5305-55.4-17.5966-68.9894-9.0437,2.0346-31.3839,7.3082-41.2359,11.8551-12.3965,5.7212-54.7251,40.1236-55.1514,40.47l-.3452.2514c-4.51,2.9444-16.8413,13.0122-14.3848,20.3814,3.4655,10.397,19.31,61.5909,23.8408,76.2465L292.8,531.7505c.144.3179,2.2456,4.5283,12.4854,5.26,16.7587,1.1967,19.539,8.7148,21.6372,19.205,1.9458,9.729,5.8842,23.5474,5.9238,23.6856l.1074.3769.0327.39c.043.5166,1.03,12.7578-1.1059,21.3022-1.8418,7.3677-1.83,13.8853.042,23.2451,1.7249,8.6241,9.4381,55.26,11.743,69.2375,33.9346-5.0191,71.6-10.81,72.2262-10.9064l.24-.0293,18.5919-1.7215C431.853,663.9259,420.78,595.0094,419.0542,584.6577Z"/>
    </g>
    <g class="zone" id="4_Colonia_Requena_-_Virgen_del_Carmen" data-name="4_Colonia_Requena_-_Virgen_del_Carmen">
        <path class="cls-1" d="M489.7109,641.9224c5.6274-2.8137,11.9119-5.946,18.7424-8.5851a114.704,114.704,0,0,1-4.3888-16.622c-1.6778-9.227-6.44-12.2519-15.2139-14.8838a24.37,24.37,0,0,1-15.6455-14.5664l-8.0572-24.1865c-.07-.25-7.059-25.1948-12.979-44.9292-4.84-16.1328-14.2363-15.2329-14.6293-15.186l-24.6954,2.887c5.8392,25.4188,10.8127,56.8026,13.1285,71.4216.4189,2.6445.747,4.7163.9726,6.07,1.747,10.48,13.0347,80.7348,15.7615,97.714L471.39,678.4l.4663.2881c.2969-.5288.9834-2.2906.6539-6.9033C471.4277,656.6279,475.9287,648.8135,489.7109,641.9224Z"/>
    </g>
    <g class="zone" id="4_Juan_XXIII" data-name="4_Juan_XXIII">
        <path class="cls-1" d="M658.4336,648.498c1.1016-.4482,2.61-1.0625,4.8018-1.7929,7.38-2.4575,10.289-.9693,13.33,1.2334a10.7856,10.7856,0,0,0,3.1992,1.7666c3.3418,1.1152,26.8487,1.2812,47.6426.7959,2.8672-.041,69.5352-.982,81.75,1.0532a46.4082,46.4082,0,0,0,6.72.7788,52.8748,52.8748,0,0,0-.36-6.4707c-.9385-10.3223-5.4658-56.5439-5.9551-61.5381-1.3877-4.2563-13.0605-39.9726-16.7168-48.2-4.0068-9.0161-17.3886-58.0415-16.3369-74.874.1494-2.3882.6035-9.6563-.5742-10.91-.79-.84-5.1846-.84-9.4336-.84-2.623,0-5.55.085-8.6484.1748-12.4346.36-27.9112.8086-44.3213-3.2944-20.333-5.083-72.8438-36.1206-75.0694-37.439L569.42,366.917c-.3516-.2241-27.3476-17.3833-50.7607-16.42-24.375.9746-52.045,6.855-52.3218,6.914l-.3418.0581a120.9359,120.9359,0,0,1-36.32-2.0551c-16.7675-3.53-38.0974-4.6224-50.3994-2.7716,4.3462,14.524,16.8556,57.2039,17.7148,70.0914.21,3.1494.2891,6.2627.3731,9.5591.31,12.187.6606,26,8.35,45.2216a169.554,169.554,0,0,1,6.2492,20.501l25.5613-2.9873c1.6768-.2075,16.6377-1.4077,23.3071,20.8223,5.7569,19.1909,12.5157,43.2715,12.9942,44.977l7.9692,23.9073a16.2537,16.2537,0,0,0,10.3545,9.434c10.7588,3.2276,18.4111,8.0538,20.7861,21.1158a107.0079,107.0079,0,0,0,4.0834,15.4433,76.1246,76.1246,0,0,1,17.2316-3.22c17.2236-1.0762,39.0933,3.3491,49.3022,6.1333,10.44,2.8472,32.002,5.8589,41.9473,5.8589,14.4961,0,23.89,2.2012,29.5605,6.9272.8077.6729,1.4581,1.2413,1.9991,1.7134.2392.209.4931.4307.7177.6226C657.9873,648.68,658.2158,648.5864,658.4336,648.498Z"/>
    </g>
    <g id="_Strokes">
        <path class="cls-2" d="M374.5,348.5s-33,7-46,13-56,41-56,41-20,13-16,25,25,80,25,80L280,515l-41.5,9.5s-9-2-5,13,43,159,43,159-1,10,18,8,123-18,123-18l54-5s7,3,6-11,3-20,15-26,26-13,42-14,37,3,48,6,33,6,43,6,21,1,27,6,3,4,12,1,8,1,14,3,49,1,49,1,69-1,81,1,12,1,11-10-6-62-6-62-13-40-17-49-17-57-16-73-1-16-14-16-32,2-52-3-74-37-74-37l-69-42s-28-18-53-17-53,7-53,7a117.8174,117.8174,0,0,1-35-2C411.5,346.5,386.5,345.5,374.5,348.5Z"/>
        <path class="cls-2" d="M374,348s18,59,19,74-1,31,9,56,20,93,22,105,16.35,101.3842,16.35,101.3842"/>
        <path class="cls-2" d="M408.93,501.3976,438,498s13-2,19,18,13,45,13,45l8,24a20.3477,20.3477,0,0,0,13,12c10,3,16,7,18,18a107.995,107.995,0,0,0,5.5922,19.6913"/>
        <path class="cls-2" d="M280.3331,503.7243,290,532s2,7,16,8,16,6,18,16,6,24,6,24,1,12-1,20-2,15,0,25,12.3585,72.986,12.3585,72.986"/>
    </g>
    <g id="Textos" class="text">
        <text class="cls-3" transform="translate(515.6597 591.5913)">Alonso<tspan class="cls-4" x="6.7573" y="18">C</tspan>
            <tspan class="cls-5" x="17.6924" y="18">a</tspan>
            <tspan class="cls-6" x="26.9468" y="18">n</tspan>
            <tspan x="37.4019" y="18">o</tspan>
        </text>
        <text class="cls-3" transform="translate(296.2046 425.5913)">
            <tspan class="cls-7">V</tspan>
            <tspan x="11.1147" y="0">i</tspan>
            <tspan class="cls-8" x="15.6299" y="0">r</tspan>
            <tspan x="21.96" y="0">gen del</tspan>
            <tspan x="5.1978" y="18">Re</tspan>
            <tspan class="cls-9" x="25.6875" y="18">m</tspan>
            <tspan class="cls-10" x="41.5122" y="18">edio</tspan>
        </text>
        <text class="cls-3" transform="translate(351.4219 625.5913)">
            <tspan class="cls-11">P</tspan>
            <tspan x="10.7549" y="0">a</tspan>
            <tspan class="cls-8" x="20.0098" y="0">r</tspan>
            <tspan class="cls-10" x="26.3398" y="0">que</tspan>
            <tspan x="-9.3896" y="18">lo Mo</tspan>
            <tspan class="cls-12" x="33.3447" y="18">r</tspan>
            <tspan x="39.7051" y="18">ant</tspan>
        </text>
        <text class="cls-3" transform="translate(608.1961 631.4385) rotate(3.0015)">An<tspan class="cls-13" x="21.855" y="0">t</tspan>
            <tspan class="cls-5" x="28.125" y="0">onio </tspan>
            <tspan class="cls-7" x="66.8994" y="0">R</tspan>
            <tspan x="77.8491" y="0">a</tspan>
            <tspan class="cls-6" x="87.104" y="0">m</tspan>
            <tspan class="cls-5" x="102.9292" y="0">os </tspan>
            <tspan class="cls-14" x="124.9639" y="0">C</tspan>
            <tspan x="135.8984" y="0">a</tspan>
            <tspan class="cls-4" x="145.1533" y="0">r</tspan>
            <tspan class="cls-15" x="151.5586" y="0">r</tspan>
            <tspan x="157.9185" y="0">atalá</tspan>
        </text>
        <text class="cls-3" transform="translate(305.2781 594.1499) rotate(79.7317)">V Alei<tspan class="cls-16" x="45.4194" y="0">x</tspan>
            <tspan x="54.1943" y="0">a</tspan>
            <tspan class="cls-9" x="63.4492" y="0">n</tspan>
            <tspan x="73.9038" y="0">d</tspan>
            <tspan class="cls-8" x="84.2837" y="0">r</tspan>
            <tspan x="90.6138" y="0">e</tspan>
        </text>
        <text class="cls-3" transform="translate(246.916 557.1582) rotate(74.7227)">
            <tspan class="cls-17">A</tspan>
            <tspan class="cls-18" x="11.0698" y="0">v</tspan>
            <tspan class="cls-5" x="19.8149" y="0">da de N</tspan>
            <tspan class="cls-11" x="79.9038" y="0">ov</tspan>
            <tspan x="98.2485" y="0">elda</tspan>
        </text>
        <text class="cls-19" transform="translate(421.8806 516.6012) rotate(80.648)">
            <tspan class="cls-20">P</tspan>
            <tspan class="cls-21" x="9.3862" y="0">in</tspan>
            <tspan class="cls-22" x="22.2817" y="0">t</tspan>
            <tspan x="27.7158" y="0">or Gas</tspan>
            <tspan class="cls-22" x="70.4595" y="0">t</tspan>
            <tspan class="cls-21" x="75.8936" y="0">ón </tspan>
            <tspan class="cls-23" x="97.0703" y="0">C</tspan>
            <tspan x="106.5469" y="0">as</tspan>
            <tspan class="cls-22" x="121.4707" y="0">t</tspan>
            <tspan x="126.9048" y="0">ello</tspan>
        </text>
        <text class="cls-24" transform="translate(394.5991 367.1079) rotate(80.648)">Ct<tspan class="cls-25" x="16.3516" y="0">r</tspan>
            <tspan x="22.2881" y="0">a. </tspan>
            <tspan class="cls-26" x="38.5557" y="0">V</tspan>
            <tspan x="48.9297" y="0">illa</tspan>
            <tspan class="cls-27" x="70.209" y="0">f</tspan>
            <tspan class="cls-28" x="76.7471" y="0">r</tspan>
            <tspan x="82.6831" y="0">a</tspan>
            <tspan class="cls-29" x="91.3208" y="0">n</tspan>
            <tspan x="101.0786" y="0">ca</tspan>
        </text>
        <text class="cls-24" transform="translate(266.9867 420.7255) rotate(74.3497)">
            <tspan class="cls-30">C</tspan>
            <tspan x="10.2061" y="0">a</tspan>
            <tspan class="cls-31" x="18.8438" y="0">r</tspan>
            <tspan class="cls-32" x="24.8218" y="0">r</tspan>
            <tspan x="30.73" y="0">er del Clot</tspan>
        </text>
    </g>
</svg>