<svg xmlns="http://www.w3.org/2000/svg" viewBox="0 0 1080 1080">
    <defs>
        <style>
			.cls-2{stroke-miterlimit:10;}.cls-2{fill:none;stroke:#fff;stroke-width:8px;}.cls-3{font-size:15px;}.cls-19,.cls-24,.cls-3{fill:#fff;font-family:Montserrat-Bold, Montserrat;font-weight:700;}.cls-4{letter-spacing:-0.004em;}.cls-5{letter-spacing:0em;}.cls-6{letter-spacing:0.006em;}.cls-7{letter-spacing:-0.005em;}.cls-8{letter-spacing:-0.009em;}.cls-9{letter-spacing:0.006em;}.cls-10{letter-spacing:0em;}.cls-11{letter-spacing:-0.015em;}.cls-12{letter-spacing:-0.007em;}.cls-13{letter-spacing:-0.017em;}.cls-14{letter-spacing:-0.004em;}.cls-15{letter-spacing:-0.007em;}.cls-16{letter-spacing:-0.01em;}.cls-17{letter-spacing:-0.028em;}.cls-18{letter-spacing:-0.015em;}.cls-19{font-size:13px;}.cls-20{letter-spacing:-0.01em;}.cls-21{letter-spacing:0em;}.cls-22{letter-spacing:-0.017em;}.cls-23{letter-spacing:-0.004em;}.cls-24{font-size:14px;}.cls-25{letter-spacing:-0.007em;}.cls-26{letter-spacing:-0.005em;}.cls-27{letter-spacing:0.08em;}.cls-28{letter-spacing:-0.007em;}.cls-29{letter-spacing:0.006em;}.cls-30{letter-spacing:-0.004em;}.cls-31{letter-spacing:-0.004em;}.cls-32{letter-spacing:-0.009em;}
			.st2{enable-background:new    ;}
			.st3{fill:#FFFFFF;}
		</style>
    </defs>
    <g class="zone" id="4_Ciudad_Jardín" data-name="4_Ciudad_Jardín">
        <path class="cls-1" d="M294.0811,699.522c6.5433-.6888,23.4359-3.08,42.6687-5.9029-2.3147-14.0285-10-60.4766-11.6722-68.8344-2.1259-10.63-2.1142-18.1309.042-26.7549,1.627-6.5088,1.0611-16.3106.9214-18.3286-.68-2.4024-4.12-14.6973-5.9634-23.9165-1.8139-9.07-2.9331-11.9785-14.3628-12.795-15.6684-1.1191-19.02-9.2128-19.5136-10.7358l-4.9365-14.44-42.8716,9.8139-.7139-.2094a1.155,1.155,0,0,0-.7368.1294c-.0132.0146-1.2842,1.5209.4223,7.9213,3.9527,14.8213,42.606,157.5454,42.9961,158.9849l.2369.874-.1045.5059a2.83,2.83,0,0,0,.99,1.8662C282.6382,698.7539,285.811,700.3916,294.0811,699.522Z"/>
    </g>
    <g class="zone" id="4_Ciudad_del_Remdio_-_Parque_lo_Morant" data-name="4_Ciudad_del_Remdio_-_Parque_lo_Morant">
        <path class="cls-1" d="M419.0542,584.6577c-.228-1.3686-.56-3.4619-.9829-6.1338-3.3057-20.8657-12.0864-76.291-20.7852-98.0385-8.2216-20.5547-8.5923-35.1294-8.9194-47.9888-.0815-3.2119-.1587-6.2456-.3579-9.2305-.8082-12.1243-13.5305-55.4-17.5966-68.9894-9.0437,2.0346-31.3839,7.3082-41.2359,11.8551-12.3965,5.7212-54.7251,40.1236-55.1514,40.47l-.3452.2514c-4.51,2.9444-16.8413,13.0122-14.3848,20.3814,3.4655,10.397,19.31,61.5909,23.8408,76.2465L292.8,531.7505c.144.3179,2.2456,4.5283,12.4854,5.26,16.7587,1.1967,19.539,8.7148,21.6372,19.205,1.9458,9.729,5.8842,23.5474,5.9238,23.6856l.1074.3769.0327.39c.043.5166,1.03,12.7578-1.1059,21.3022-1.8418,7.3677-1.83,13.8853.042,23.2451,1.7249,8.6241,9.4381,55.26,11.743,69.2375,33.9346-5.0191,71.6-10.81,72.2262-10.9064l.24-.0293,18.5919-1.7215C431.853,663.9259,420.78,595.0094,419.0542,584.6577Z"/>
    </g>
    <g class="zone" id="4_Colonia_Requena_-_Virgen_del_Carmen" data-name="4_Colonia_Requena_-_Virgen_del_Carmen">
        <path class="cls-1" d="M489.7109,641.9224c5.6274-2.8137,11.9119-5.946,18.7424-8.5851a114.704,114.704,0,0,1-4.3888-16.622c-1.6778-9.227-6.44-12.2519-15.2139-14.8838a24.37,24.37,0,0,1-15.6455-14.5664l-8.0572-24.1865c-.07-.25-7.059-25.1948-12.979-44.9292-4.84-16.1328-14.2363-15.2329-14.6293-15.186l-24.6954,2.887c5.8392,25.4188,10.8127,56.8026,13.1285,71.4216.4189,2.6445.747,4.7163.9726,6.07,1.747,10.48,13.0347,80.7348,15.7615,97.714L471.39,678.4l.4663.2881c.2969-.5288.9834-2.2906.6539-6.9033C471.4277,656.6279,475.9287,648.8135,489.7109,641.9224Z"/>
    </g>
    <g class="zone" id="4_Juan_XXIII" data-name="4_Juan_XXIII">
        <path class="cls-1" d="M658.4336,648.498c1.1016-.4482,2.61-1.0625,4.8018-1.7929,7.38-2.4575,10.289-.9693,13.33,1.2334a10.7856,10.7856,0,0,0,3.1992,1.7666c3.3418,1.1152,26.8487,1.2812,47.6426.7959,2.8672-.041,69.5352-.982,81.75,1.0532a46.4082,46.4082,0,0,0,6.72.7788,52.8748,52.8748,0,0,0-.36-6.4707c-.9385-10.3223-5.4658-56.5439-5.9551-61.5381-1.3877-4.2563-13.0605-39.9726-16.7168-48.2-4.0068-9.0161-17.3886-58.0415-16.3369-74.874.1494-2.3882.6035-9.6563-.5742-10.91-.79-.84-5.1846-.84-9.4336-.84-2.623,0-5.55.085-8.6484.1748-12.4346.36-27.9112.8086-44.3213-3.2944-20.333-5.083-72.8438-36.1206-75.0694-37.439L569.42,366.917c-.3516-.2241-27.3476-17.3833-50.7607-16.42-24.375.9746-52.045,6.855-52.3218,6.914l-.3418.0581a120.9359,120.9359,0,0,1-36.32-2.0551c-16.7675-3.53-38.0974-4.6224-50.3994-2.7716,4.3462,14.524,16.8556,57.2039,17.7148,70.0914.21,3.1494.2891,6.2627.3731,9.5591.31,12.187.6606,26,8.35,45.2216a169.554,169.554,0,0,1,6.2492,20.501l25.5613-2.9873c1.6768-.2075,16.6377-1.4077,23.3071,20.8223,5.7569,19.1909,12.5157,43.2715,12.9942,44.977l7.9692,23.9073a16.2537,16.2537,0,0,0,10.3545,9.434c10.7588,3.2276,18.4111,8.0538,20.7861,21.1158a107.0079,107.0079,0,0,0,4.0834,15.4433,76.1246,76.1246,0,0,1,17.2316-3.22c17.2236-1.0762,39.0933,3.3491,49.3022,6.1333,10.44,2.8472,32.002,5.8589,41.9473,5.8589,14.4961,0,23.89,2.2012,29.5605,6.9272.8077.6729,1.4581,1.2413,1.9991,1.7134.2392.209.4931.4307.7177.6226C657.9873,648.68,658.2158,648.5864,658.4336,648.498Z"/>
    </g>
    <g id="_Strokes">
        <path class="cls-2" d="M374.5,348.5s-33,7-46,13-56,41-56,41-20,13-16,25,25,80,25,80L280,515l-41.5,9.5s-9-2-5,13,43,159,43,159-1,10,18,8,123-18,123-18l54-5s7,3,6-11,3-20,15-26,26-13,42-14,37,3,48,6,33,6,43,6,21,1,27,6,3,4,12,1,8,1,14,3,49,1,49,1,69-1,81,1,12,1,11-10-6-62-6-62-13-40-17-49-17-57-16-73-1-16-14-16-32,2-52-3-74-37-74-37l-69-42s-28-18-53-17-53,7-53,7a117.8174,117.8174,0,0,1-35-2C411.5,346.5,386.5,345.5,374.5,348.5Z"/>
        <path class="cls-2" d="M374,348s18,59,19,74-1,31,9,56,20,93,22,105,16.35,101.3842,16.35,101.3842"/>
        <path class="cls-2" d="M408.93,501.3976,438,498s13-2,19,18,13,45,13,45l8,24a20.3477,20.3477,0,0,0,13,12c10,3,16,7,18,18a107.995,107.995,0,0,0,5.5922,19.6913"/>
        <path class="cls-2" d="M280.3331,503.7243,290,532s2,7,16,8,16,6,18,16,6,24,6,24,1,12-1,20-2,15,0,25,12.3585,72.986,12.3585,72.986"/>
    </g>
    <g id="Textos" class="text">
        <g class="st2">
            <path class="st3" d="M523.8,589.3h-4.9l-0.9,2.3h-2.5l4.7-10.5h2.4l4.7,10.5h-2.6L523.8,589.3z M523.1,587.5l-1.7-4l-1.7,4H523.1z
			"/>
            <path class="st3" d="M528.2,580.5h2.3v11.1h-2.3V580.5z"/>
            <path class="st3" d="M534.3,591.2c-0.7-0.4-1.2-0.8-1.6-1.5c-0.4-0.6-0.6-1.3-0.6-2.1s0.2-1.5,0.6-2.1c0.4-0.6,0.9-1.1,1.6-1.5
			c0.7-0.4,1.4-0.5,2.3-0.5s1.6,0.2,2.3,0.5c0.7,0.4,1.2,0.8,1.6,1.5c0.4,0.6,0.6,1.3,0.6,2.1s-0.2,1.5-0.6,2.1
			c-0.4,0.6-0.9,1.1-1.6,1.5c-0.7,0.4-1.4,0.5-2.3,0.5S535,591.5,534.3,591.2z M538.1,589.2c0.4-0.4,0.6-0.9,0.6-1.6
			s-0.2-1.2-0.6-1.6c-0.4-0.4-0.9-0.6-1.5-0.6s-1.1,0.2-1.5,0.6c-0.4,0.4-0.6,0.9-0.6,1.6s0.2,1.2,0.6,1.6s0.9,0.6,1.5,0.6
			S537.7,589.6,538.1,589.2z"/>
            <path class="st3" d="M549.9,584.3c0.6,0.6,0.9,1.5,0.9,2.7v4.6h-2.3v-4.3c0-0.6-0.1-1.1-0.4-1.4c-0.3-0.3-0.7-0.5-1.2-0.5
			c-0.6,0-1.1,0.2-1.4,0.5c-0.4,0.4-0.5,0.9-0.5,1.6v4h-2.3v-8.1h2.2v0.9c0.3-0.3,0.7-0.6,1.2-0.8c0.5-0.2,1-0.3,1.5-0.3
			C548.5,583.4,549.3,583.7,549.9,584.3z"/>
            <path class="st3" d="M553.7,591.5c-0.6-0.2-1.2-0.4-1.5-0.6l0.8-1.7c0.4,0.2,0.8,0.4,1.3,0.6c0.5,0.1,1,0.2,1.5,0.2
			c1,0,1.5-0.2,1.5-0.7c0-0.2-0.1-0.4-0.4-0.5c-0.3-0.1-0.7-0.2-1.2-0.3c-0.7-0.1-1.2-0.2-1.6-0.3c-0.4-0.1-0.8-0.4-1.1-0.7
			s-0.5-0.8-0.5-1.4c0-0.5,0.1-1,0.4-1.4s0.7-0.7,1.3-0.9c0.6-0.2,1.2-0.3,2-0.3c0.6,0,1.1,0.1,1.7,0.2c0.6,0.1,1,0.3,1.4,0.5
			l-0.8,1.7c-0.7-0.4-1.5-0.6-2.3-0.6c-0.5,0-0.9,0.1-1.1,0.2c-0.3,0.1-0.4,0.3-0.4,0.5c0,0.3,0.1,0.4,0.4,0.5
			c0.3,0.1,0.7,0.2,1.3,0.3c0.7,0.1,1.2,0.2,1.6,0.4s0.8,0.4,1.1,0.7c0.3,0.3,0.5,0.8,0.5,1.4c0,0.5-0.2,0.9-0.5,1.3
			c-0.3,0.4-0.7,0.7-1.3,0.9s-1.3,0.3-2,0.3C555,591.7,554.3,591.6,553.7,591.5z"/>
            <path class="st3" d="M562.5,591.2c-0.7-0.4-1.2-0.8-1.6-1.5c-0.4-0.6-0.6-1.3-0.6-2.1s0.2-1.5,0.6-2.1c0.4-0.6,0.9-1.1,1.6-1.5
			s1.4-0.5,2.3-0.5c0.9,0,1.6,0.2,2.3,0.5s1.2,0.8,1.6,1.5c0.4,0.6,0.6,1.3,0.6,2.1s-0.2,1.5-0.6,2.1c-0.4,0.6-0.9,1.1-1.6,1.5
			c-0.7,0.4-1.4,0.5-2.3,0.5C563.9,591.7,563.1,591.5,562.5,591.2z M566.2,589.2c0.4-0.4,0.6-0.9,0.6-1.6s-0.2-1.2-0.6-1.6
			c-0.4-0.4-0.9-0.6-1.5-0.6c-0.6,0-1.1,0.2-1.5,0.6c-0.4,0.4-0.6,0.9-0.6,1.6s0.2,1.2,0.6,1.6c0.4,0.4,0.9,0.6,1.5,0.6
			C565.3,589.8,565.8,589.6,566.2,589.2z"/>
        </g>
        <g class="st2">
            <path class="st3" d="M525.8,609.1c-0.9-0.5-1.5-1.1-2-1.9c-0.5-0.8-0.7-1.8-0.7-2.8c0-1,0.2-2,0.7-2.8c0.5-0.8,1.2-1.5,2-1.9
			c0.9-0.5,1.8-0.7,2.9-0.7c0.9,0,1.7,0.2,2.5,0.5c0.7,0.3,1.4,0.8,1.9,1.4l-1.6,1.4c-0.7-0.8-1.6-1.2-2.6-1.2
			c-0.6,0-1.2,0.1-1.7,0.4c-0.5,0.3-0.9,0.7-1.2,1.2c-0.3,0.5-0.4,1.1-0.4,1.7s0.1,1.2,0.4,1.7c0.3,0.5,0.7,0.9,1.2,1.2
			c0.5,0.3,1.1,0.4,1.7,0.4c1.1,0,1.9-0.4,2.6-1.2l1.6,1.4c-0.5,0.6-1.1,1.1-1.9,1.4c-0.7,0.3-1.6,0.5-2.5,0.5
			C527.6,609.8,526.6,609.5,525.8,609.1z"/>
        </g>
        <g class="st2">
            <path class="st3" d="M540.6,602.3c0.7,0.6,1,1.5,1,2.7v4.6h-2.2v-1c-0.4,0.8-1.3,1.1-2.5,1.1c-0.6,0-1.2-0.1-1.6-0.3
			c-0.5-0.2-0.8-0.5-1-0.9c-0.2-0.4-0.4-0.8-0.4-1.3c0-0.8,0.3-1.3,0.8-1.8s1.4-0.6,2.6-0.6h1.9c0-0.5-0.2-0.9-0.5-1.2
			c-0.3-0.3-0.8-0.4-1.4-0.4c-0.4,0-0.9,0.1-1.3,0.2c-0.4,0.1-0.8,0.3-1.1,0.5l-0.8-1.6c0.4-0.3,1-0.6,1.6-0.7s1.2-0.3,1.9-0.3
			C538.9,601.4,539.9,601.7,540.6,602.3z M538.6,607.9c0.3-0.2,0.5-0.5,0.7-0.8v-0.8h-1.6c-1,0-1.4,0.3-1.4,0.9
			c0,0.3,0.1,0.5,0.4,0.7c0.2,0.2,0.6,0.3,1,0.3C537.9,608.1,538.3,608,538.6,607.9z"/>
        </g>
        <g class="st2">
            <path class="st3" d="M551,602.3c0.6,0.6,0.9,1.5,0.9,2.7v4.6h-2.3v-4.3c0-0.6-0.1-1.1-0.4-1.4c-0.3-0.3-0.7-0.5-1.2-0.5
			c-0.6,0-1.1,0.2-1.4,0.5c-0.4,0.4-0.5,0.9-0.5,1.6v4h-2.3v-8.1h2.2v0.9c0.3-0.3,0.7-0.6,1.2-0.8c0.5-0.2,1-0.3,1.5-0.3
			C549.6,601.4,550.4,601.7,551,602.3z"/>
        </g>
        <g class="st2">
            <path class="st3" d="M555.7,609.2c-0.7-0.4-1.2-0.8-1.6-1.5c-0.4-0.6-0.6-1.3-0.6-2.1s0.2-1.5,0.6-2.1c0.4-0.6,0.9-1.1,1.6-1.5
			s1.4-0.5,2.3-0.5c0.9,0,1.6,0.2,2.3,0.5s1.2,0.8,1.6,1.5c0.4,0.6,0.6,1.3,0.6,2.1s-0.2,1.5-0.6,2.1c-0.4,0.6-0.9,1.1-1.6,1.5
			c-0.7,0.4-1.4,0.5-2.3,0.5C557.1,609.7,556.4,609.5,555.7,609.2z M559.5,607.2c0.4-0.4,0.6-0.9,0.6-1.6s-0.2-1.2-0.6-1.6
			c-0.4-0.4-0.9-0.6-1.5-0.6c-0.6,0-1.1,0.2-1.5,0.6c-0.4,0.4-0.6,0.9-0.6,1.6s0.2,1.2,0.6,1.6c0.4,0.4,0.9,0.6,1.5,0.6
			C558.6,607.8,559.1,607.6,559.5,607.2z"/>
        </g>
        <g class="st2">
            <path class="st3" d="M307.5,415.1l-4.5,10.5h-2.4l-4.5-10.5h2.6l3.2,7.5l3.2-7.5H307.5z"/>
        </g>
        <g class="st2">
            <path class="st3" d="M308.5,416c-0.3-0.3-0.4-0.6-0.4-0.9s0.1-0.7,0.4-0.9s0.6-0.4,1-0.4c0.4,0,0.8,0.1,1,0.4
			c0.3,0.2,0.4,0.5,0.4,0.9c0,0.4-0.1,0.7-0.4,1s-0.6,0.4-1,0.4C309.1,416.4,308.8,416.3,308.5,416z M308.4,417.5h2.3v8.1h-2.3
			V417.5z"/>
        </g>
        <g class="st2">
            <path class="st3" d="M316.3,417.7c0.5-0.2,1-0.3,1.6-0.3v2.2c-0.3,0-0.4,0-0.5,0c-0.7,0-1.2,0.2-1.6,0.6c-0.4,0.4-0.6,0.9-0.6,1.7
			v3.8h-2.3v-8.1h2.2v1.1C315.4,418.2,315.8,417.9,316.3,417.7z"/>
        </g>
        <g class="st2">
            <path class="st3" d="M327.6,417.5v6.7c0,1.5-0.4,2.6-1.2,3.3s-1.9,1.1-3.4,1.1c-0.8,0-1.5-0.1-2.2-0.3c-0.7-0.2-1.3-0.5-1.7-0.8
			l0.9-1.7c0.3,0.3,0.8,0.5,1.3,0.7s1,0.2,1.6,0.2c0.8,0,1.4-0.2,1.8-0.5c0.4-0.4,0.6-0.9,0.6-1.7v-0.3c-0.6,0.7-1.5,1-2.5,1
			c-0.7,0-1.4-0.2-2-0.5c-0.6-0.3-1.1-0.8-1.5-1.4s-0.5-1.3-0.5-2c0-0.8,0.2-1.5,0.5-2s0.8-1,1.5-1.4c0.6-0.3,1.3-0.5,2-0.5
			c1.2,0,2.1,0.4,2.7,1.2v-1H327.6z M324.7,422.7c0.4-0.4,0.6-0.8,0.6-1.4s-0.2-1.1-0.6-1.4s-0.9-0.5-1.5-0.5s-1.1,0.2-1.5,0.5
			c-0.4,0.4-0.6,0.8-0.6,1.4s0.2,1.1,0.6,1.4c0.4,0.4,0.9,0.5,1.5,0.5S324.3,423.1,324.7,422.7z"/>
            <path class="st3" d="M337.6,422.2h-6.1c0.1,0.5,0.4,0.9,0.8,1.2c0.4,0.3,0.9,0.4,1.5,0.4c0.4,0,0.8-0.1,1.1-0.2
			c0.3-0.1,0.6-0.3,0.9-0.6l1.2,1.4c-0.8,0.9-1.9,1.3-3.3,1.3c-0.9,0-1.7-0.2-2.4-0.5c-0.7-0.4-1.2-0.8-1.6-1.5s-0.6-1.3-0.6-2.1
			c0-0.8,0.2-1.5,0.6-2.1c0.4-0.6,0.9-1.1,1.5-1.5c0.7-0.4,1.4-0.5,2.2-0.5c0.8,0,1.5,0.2,2.1,0.5c0.6,0.3,1.1,0.8,1.5,1.5
			c0.4,0.6,0.5,1.4,0.5,2.2C337.6,421.6,337.6,421.8,337.6,422.2z M332.1,419.6c-0.4,0.3-0.6,0.7-0.7,1.2h4
			c-0.1-0.5-0.3-0.9-0.7-1.2c-0.4-0.3-0.8-0.5-1.3-0.5C332.9,419.2,332.5,419.3,332.1,419.6z"/>
            <path class="st3" d="M346.5,418.3c0.6,0.6,0.9,1.5,0.9,2.7v4.6h-2.3v-4.3c0-0.6-0.1-1.1-0.4-1.4c-0.3-0.3-0.7-0.5-1.2-0.5
			c-0.6,0-1.1,0.2-1.4,0.5s-0.5,0.9-0.5,1.6v4h-2.3v-8.1h2.2v0.9c0.3-0.3,0.7-0.6,1.2-0.8c0.5-0.2,1-0.3,1.5-0.3
			C345.1,417.4,345.9,417.7,346.5,418.3z"/>
            <path class="st3" d="M362,414.5v11.1h-2.2v-0.9c-0.6,0.7-1.4,1-2.5,1c-0.8,0-1.4-0.2-2.1-0.5c-0.6-0.3-1.1-0.8-1.4-1.5
			c-0.4-0.6-0.5-1.4-0.5-2.2s0.2-1.6,0.5-2.2c0.3-0.6,0.8-1.1,1.4-1.5c0.6-0.3,1.3-0.5,2.1-0.5c1,0,1.8,0.3,2.4,1v-3.9H362z
			 M359.2,423.2c0.4-0.4,0.6-0.9,0.6-1.6c0-0.7-0.2-1.2-0.6-1.6c-0.4-0.4-0.9-0.6-1.5-0.6c-0.6,0-1.1,0.2-1.5,0.6
			c-0.4,0.4-0.6,0.9-0.6,1.6c0,0.7,0.2,1.2,0.6,1.6c0.4,0.4,0.9,0.6,1.5,0.6C358.3,423.8,358.8,423.6,359.2,423.2z"/>
            <path class="st3" d="M372.1,422.2H366c0.1,0.5,0.4,0.9,0.8,1.2c0.4,0.3,0.9,0.4,1.5,0.4c0.4,0,0.8-0.1,1.1-0.2
			c0.3-0.1,0.6-0.3,0.9-0.6l1.2,1.4c-0.8,0.9-1.9,1.3-3.3,1.3c-0.9,0-1.7-0.2-2.4-0.5c-0.7-0.4-1.2-0.8-1.6-1.5s-0.6-1.3-0.6-2.1
			c0-0.8,0.2-1.5,0.6-2.1c0.4-0.6,0.9-1.1,1.5-1.5c0.7-0.4,1.4-0.5,2.2-0.5c0.8,0,1.5,0.2,2.1,0.5c0.6,0.3,1.1,0.8,1.5,1.5
			c0.4,0.6,0.5,1.4,0.5,2.2C372.1,421.6,372.1,421.8,372.1,422.2z M366.6,419.6c-0.4,0.3-0.6,0.7-0.7,1.2h4
			c-0.1-0.5-0.3-0.9-0.7-1.2c-0.4-0.3-0.8-0.5-1.3-0.5C367.4,419.2,366.9,419.3,366.6,419.6z"/>
            <path class="st3" d="M373.7,414.5h2.3v11.1h-2.3V414.5z"/>
        </g>
        <g class="st2">
            <path class="st3" d="M309.3,443.6l-2-2.9h-0.1h-2.1v2.9h-2.4v-10.5h4.5c0.9,0,1.7,0.2,2.4,0.5c0.7,0.3,1.2,0.8,1.6,1.3
			s0.6,1.2,0.6,2c0,0.8-0.2,1.5-0.6,2c-0.4,0.6-0.9,1-1.6,1.3l2.4,3.4H309.3z M308.7,435.5c-0.4-0.3-0.9-0.5-1.7-0.5h-2v3.7h2
			c0.7,0,1.3-0.2,1.7-0.5s0.6-0.8,0.6-1.4C309.3,436.3,309.1,435.9,308.7,435.5z"/>
            <path class="st3" d="M321.4,440.2h-6.1c0.1,0.5,0.4,0.9,0.8,1.2c0.4,0.3,0.9,0.4,1.5,0.4c0.4,0,0.8-0.1,1.1-0.2
			c0.3-0.1,0.6-0.3,0.9-0.6l1.2,1.4c-0.8,0.9-1.9,1.3-3.3,1.3c-0.9,0-1.7-0.2-2.4-0.5c-0.7-0.4-1.2-0.8-1.6-1.5s-0.6-1.3-0.6-2.1
			c0-0.8,0.2-1.5,0.6-2.1c0.4-0.6,0.9-1.1,1.5-1.5c0.7-0.4,1.4-0.5,2.2-0.5c0.8,0,1.5,0.2,2.1,0.5c0.6,0.3,1.1,0.8,1.5,1.5
			c0.4,0.6,0.5,1.4,0.5,2.2C321.4,439.6,321.4,439.8,321.4,440.2z M315.9,437.6c-0.4,0.3-0.6,0.7-0.7,1.2h4
			c-0.1-0.5-0.3-0.9-0.7-1.2c-0.4-0.3-0.8-0.5-1.3-0.5C316.7,437.2,316.3,437.3,315.9,437.6z"/>
        </g>
        <g class="st2">
            <path class="st3" d="M335.7,436.3c0.6,0.6,0.9,1.5,0.9,2.7v4.6h-2.3v-4.3c0-0.6-0.1-1.1-0.4-1.4c-0.3-0.3-0.6-0.5-1.1-0.5
			c-0.6,0-1,0.2-1.3,0.5c-0.3,0.4-0.5,0.9-0.5,1.6v4h-2.3v-4.3c0-1.3-0.5-1.9-1.5-1.9c-0.5,0-1,0.2-1.3,0.5
			c-0.3,0.4-0.5,0.9-0.5,1.6v4H323v-8.1h2.2v0.9c0.3-0.3,0.7-0.6,1.1-0.8s0.9-0.3,1.4-0.3c0.6,0,1.1,0.1,1.5,0.3s0.8,0.6,1.1,1
			c0.3-0.4,0.7-0.7,1.3-1c0.5-0.2,1.1-0.3,1.7-0.3C334.3,435.4,335.1,435.7,335.7,436.3z"/>
        </g>
        <g class="st2">
            <path class="st3" d="M346.7,440.2h-6.1c0.1,0.5,0.4,0.9,0.8,1.2c0.4,0.3,0.9,0.4,1.5,0.4c0.4,0,0.8-0.1,1.1-0.2
			c0.3-0.1,0.6-0.3,0.9-0.6l1.2,1.4c-0.8,0.9-1.9,1.3-3.3,1.3c-0.9,0-1.7-0.2-2.4-0.5c-0.7-0.4-1.2-0.8-1.6-1.5s-0.6-1.3-0.6-2.1
			c0-0.8,0.2-1.5,0.6-2.1c0.4-0.6,0.9-1.1,1.5-1.5c0.7-0.4,1.4-0.5,2.2-0.5c0.8,0,1.5,0.2,2.1,0.5c0.6,0.3,1.1,0.8,1.5,1.5
			c0.4,0.6,0.5,1.4,0.5,2.2C346.7,439.6,346.7,439.8,346.7,440.2z M341.2,437.6c-0.4,0.3-0.6,0.7-0.7,1.2h4
			c-0.1-0.5-0.3-0.9-0.7-1.2c-0.4-0.3-0.8-0.5-1.3-0.5C342,437.2,341.5,437.3,341.2,437.6z"/>
            <path class="st3" d="M356.5,432.5v11.1h-2.2v-0.9c-0.6,0.7-1.4,1-2.5,1c-0.8,0-1.4-0.2-2.1-0.5c-0.6-0.3-1.1-0.8-1.4-1.5
			c-0.4-0.6-0.5-1.4-0.5-2.2s0.2-1.6,0.5-2.2c0.3-0.6,0.8-1.1,1.4-1.5c0.6-0.3,1.3-0.5,2.1-0.5c1,0,1.8,0.3,2.4,1v-3.9H356.5z
			 M353.6,441.2c0.4-0.4,0.6-0.9,0.6-1.6c0-0.7-0.2-1.2-0.6-1.6c-0.4-0.4-0.9-0.6-1.5-0.6c-0.6,0-1.1,0.2-1.5,0.6
			c-0.4,0.4-0.6,0.9-0.6,1.6c0,0.7,0.2,1.2,0.6,1.6c0.4,0.4,0.9,0.6,1.5,0.6C352.7,441.8,353.2,441.6,353.6,441.2z"/>
            <path class="st3" d="M358.8,434c-0.3-0.3-0.4-0.6-0.4-0.9s0.1-0.7,0.4-0.9s0.6-0.4,1-0.4c0.4,0,0.8,0.1,1,0.4
			c0.3,0.2,0.4,0.5,0.4,0.9c0,0.4-0.1,0.7-0.4,1s-0.6,0.4-1,0.4C359.4,434.4,359,434.3,358.8,434z M358.6,435.5h2.3v8.1h-2.3V435.5z
			"/>
            <path class="st3" d="M364.7,443.2c-0.7-0.4-1.2-0.8-1.6-1.5s-0.6-1.3-0.6-2.1c0-0.8,0.2-1.5,0.6-2.1s0.9-1.1,1.6-1.5
			c0.7-0.4,1.4-0.5,2.3-0.5s1.6,0.2,2.3,0.5c0.7,0.4,1.2,0.8,1.6,1.5s0.6,1.3,0.6,2.1c0,0.8-0.2,1.5-0.6,2.1s-0.9,1.1-1.6,1.5
			c-0.7,0.4-1.4,0.5-2.3,0.5S365.4,443.5,364.7,443.2z M368.5,441.2c0.4-0.4,0.6-0.9,0.6-1.6c0-0.7-0.2-1.2-0.6-1.6
			c-0.4-0.4-0.9-0.6-1.5-0.6s-1.1,0.2-1.5,0.6c-0.4,0.4-0.6,0.9-0.6,1.6c0,0.7,0.2,1.2,0.6,1.6c0.4,0.4,0.9,0.6,1.5,0.6
			S368.1,441.6,368.5,441.2z"/>
        </g>
        <g class="st2">
            <path class="st3" d="M359.6,615.6c0.7,0.3,1.2,0.8,1.6,1.3s0.6,1.2,0.6,2c0,0.8-0.2,1.4-0.6,2c-0.4,0.6-0.9,1-1.6,1.3
			c-0.7,0.3-1.5,0.5-2.4,0.5h-2.1v2.9h-2.4v-10.5h4.5C358.1,615.1,358.9,615.2,359.6,615.6z M358.7,620.2c0.4-0.3,0.6-0.8,0.6-1.3
			c0-0.6-0.2-1-0.6-1.4c-0.4-0.3-0.9-0.5-1.7-0.5h-2v3.6h2C357.8,620.7,358.4,620.6,358.7,620.2z"/>
        </g>
        <g class="st2">
            <path class="st3" d="M369.4,618.3c0.7,0.6,1,1.5,1,2.7v4.6h-2.2v-1c-0.4,0.8-1.3,1.1-2.5,1.1c-0.6,0-1.2-0.1-1.6-0.3
			c-0.5-0.2-0.8-0.5-1-0.9c-0.2-0.4-0.4-0.8-0.4-1.3c0-0.8,0.3-1.3,0.8-1.8s1.4-0.6,2.6-0.6h1.9c0-0.5-0.2-0.9-0.5-1.2
			c-0.3-0.3-0.8-0.4-1.4-0.4c-0.4,0-0.9,0.1-1.3,0.2c-0.4,0.1-0.8,0.3-1.1,0.5l-0.8-1.6c0.4-0.3,1-0.6,1.6-0.7s1.2-0.3,1.9-0.3
			C367.8,617.4,368.7,617.7,369.4,618.3z M367.4,623.9c0.3-0.2,0.5-0.5,0.7-0.8v-0.8h-1.6c-1,0-1.4,0.3-1.4,0.9
			c0,0.3,0.1,0.5,0.4,0.7c0.2,0.2,0.6,0.3,1,0.3C366.7,624.1,367.1,624,367.4,623.9z"/>
        </g>
        <g class="st2">
            <path class="st3" d="M375.9,617.7c0.5-0.2,1-0.3,1.6-0.3v2.2c-0.3,0-0.4,0-0.5,0c-0.7,0-1.2,0.2-1.6,0.6c-0.4,0.4-0.6,0.9-0.6,1.7
			v3.8h-2.3v-8.1h2.2v1.1C375,618.2,375.4,617.9,375.9,617.7z"/>
        </g>
        <g class="st2">
            <path class="st3" d="M387,617.5v11h-2.3v-3.8c-0.6,0.7-1.4,1-2.4,1c-0.8,0-1.4-0.2-2.1-0.5c-0.6-0.3-1.1-0.8-1.4-1.5
			c-0.4-0.6-0.5-1.4-0.5-2.2s0.2-1.6,0.5-2.2c0.4-0.6,0.8-1.1,1.4-1.5c0.6-0.3,1.3-0.5,2.1-0.5c1.1,0,1.9,0.4,2.5,1.1v-0.9H387z
			 M384.2,623.2c0.4-0.4,0.6-0.9,0.6-1.6s-0.2-1.2-0.6-1.6c-0.4-0.4-0.9-0.6-1.5-0.6c-0.6,0-1.1,0.2-1.5,0.6
			c-0.4,0.4-0.6,0.9-0.6,1.6s0.2,1.2,0.6,1.6s0.9,0.6,1.5,0.6C383.3,623.8,383.8,623.6,384.2,623.2z"/>
            <path class="st3" d="M397.3,617.5v8.1h-2.2v-1c-0.3,0.4-0.7,0.6-1.1,0.8s-0.9,0.3-1.4,0.3c-1.1,0-1.9-0.3-2.5-0.9
			c-0.6-0.6-0.9-1.5-0.9-2.7v-4.6h2.3v4.2c0,1.3,0.5,1.9,1.6,1.9c0.6,0,1-0.2,1.4-0.5s0.5-0.9,0.5-1.6v-4H397.3z"/>
            <path class="st3" d="M407.4,622.2h-6.1c0.1,0.5,0.4,0.9,0.8,1.2c0.4,0.3,0.9,0.4,1.5,0.4c0.4,0,0.8-0.1,1.1-0.2
			c0.3-0.1,0.6-0.3,0.9-0.6l1.2,1.3c-0.8,0.9-1.9,1.3-3.3,1.3c-0.9,0-1.7-0.2-2.4-0.5c-0.7-0.4-1.2-0.8-1.6-1.5
			c-0.4-0.6-0.6-1.3-0.6-2.1c0-0.8,0.2-1.5,0.6-2.1c0.4-0.6,0.9-1.1,1.5-1.5s1.4-0.5,2.2-0.5c0.8,0,1.5,0.2,2.1,0.5
			c0.6,0.3,1.1,0.8,1.5,1.5c0.4,0.6,0.5,1.4,0.5,2.2C407.4,621.6,407.4,621.8,407.4,622.2z M401.9,619.6c-0.4,0.3-0.6,0.7-0.7,1.2h4
			c-0.1-0.5-0.3-0.9-0.7-1.2c-0.4-0.3-0.8-0.5-1.3-0.5C402.7,619.2,402.2,619.3,401.9,619.6z"/>
        </g>
        <g class="st2">
            <path class="st3" d="M343.1,632.5h2.3v11.1h-2.3V632.5z"/>
            <path class="st3" d="M349.2,643.2c-0.7-0.4-1.2-0.8-1.6-1.5c-0.4-0.6-0.6-1.3-0.6-2.1s0.2-1.5,0.6-2.1c0.4-0.6,0.9-1.1,1.6-1.5
			c0.7-0.4,1.4-0.5,2.3-0.5s1.6,0.2,2.3,0.5c0.7,0.4,1.2,0.8,1.6,1.5c0.4,0.6,0.6,1.3,0.6,2.1s-0.2,1.5-0.6,2.1
			c-0.4,0.6-0.9,1.1-1.6,1.5c-0.7,0.4-1.4,0.5-2.3,0.5S349.9,643.5,349.2,643.2z M352.9,641.2c0.4-0.4,0.6-0.9,0.6-1.6
			s-0.2-1.2-0.6-1.6c-0.4-0.4-0.9-0.6-1.5-0.6s-1.1,0.2-1.5,0.6c-0.4,0.4-0.6,0.9-0.6,1.6s0.2,1.2,0.6,1.6s0.9,0.6,1.5,0.6
			S352.6,641.6,352.9,641.2z"/>
            <path class="st3" d="M371.4,643.6l0-6.3l-3.1,5.2h-1.1l-3.1-5.1v6.2h-2.3v-10.5h2l3.9,6.5l3.9-6.5h2l0,10.5H371.4z"/>
            <path class="st3" d="M377.6,643.2c-0.7-0.4-1.2-0.8-1.6-1.5c-0.4-0.6-0.6-1.3-0.6-2.1s0.2-1.5,0.6-2.1c0.4-0.6,0.9-1.1,1.6-1.5
			c0.7-0.4,1.4-0.5,2.3-0.5s1.6,0.2,2.3,0.5c0.7,0.4,1.2,0.8,1.6,1.5c0.4,0.6,0.6,1.3,0.6,2.1s-0.2,1.5-0.6,2.1
			c-0.4,0.6-0.9,1.1-1.6,1.5c-0.7,0.4-1.4,0.5-2.3,0.5S378.2,643.5,377.6,643.2z M381.3,641.2c0.4-0.4,0.6-0.9,0.6-1.6
			s-0.2-1.2-0.6-1.6c-0.4-0.4-0.9-0.6-1.5-0.6s-1.1,0.2-1.5,0.6c-0.4,0.4-0.6,0.9-0.6,1.6s0.2,1.2,0.6,1.6s0.9,0.6,1.5,0.6
			S381,641.6,381.3,641.2z"/>
        </g>
        <g class="st2">
            <path class="st3" d="M389.2,635.7c0.5-0.2,1-0.3,1.6-0.3v2.2c-0.3,0-0.4,0-0.5,0c-0.7,0-1.2,0.2-1.6,0.6c-0.4,0.4-0.6,0.9-0.6,1.7
			v3.8h-2.3v-8.1h2.2v1.1C388.4,636.2,388.7,635.9,389.2,635.7z"/>
        </g>
        <g class="st2">
            <path class="st3" d="M398.3,636.3c0.7,0.6,1,1.5,1,2.7v4.6h-2.2v-1c-0.4,0.8-1.3,1.1-2.5,1.1c-0.6,0-1.2-0.1-1.6-0.3
			c-0.5-0.2-0.8-0.5-1-0.9c-0.2-0.4-0.4-0.8-0.4-1.3c0-0.8,0.3-1.3,0.8-1.8s1.4-0.6,2.6-0.6h1.9c0-0.5-0.2-0.9-0.5-1.2
			c-0.3-0.3-0.8-0.4-1.4-0.4c-0.4,0-0.9,0.1-1.3,0.2c-0.4,0.1-0.8,0.3-1.1,0.5l-0.8-1.6c0.4-0.3,1-0.6,1.6-0.7s1.2-0.3,1.9-0.3
			C396.7,635.4,397.7,635.7,398.3,636.3z M396.3,641.9c0.3-0.2,0.5-0.5,0.7-0.8v-0.8h-1.6c-1,0-1.4,0.3-1.4,0.9
			c0,0.3,0.1,0.5,0.4,0.7c0.2,0.2,0.6,0.3,1,0.3C395.7,642.1,396,642,396.3,641.9z"/>
            <path class="st3" d="M408.8,636.3c0.6,0.6,0.9,1.5,0.9,2.7v4.6h-2.3v-4.3c0-0.6-0.1-1.1-0.4-1.4s-0.7-0.5-1.2-0.5
			c-0.6,0-1.1,0.2-1.4,0.5s-0.5,0.9-0.5,1.6v4h-2.3v-8.1h2.2v0.9c0.3-0.3,0.7-0.6,1.2-0.8c0.5-0.2,1-0.3,1.5-0.3
			C407.4,635.4,408.2,635.7,408.8,636.3z"/>
            <path class="st3" d="M417,643.2c-0.2,0.2-0.5,0.3-0.8,0.4c-0.3,0.1-0.7,0.1-1.1,0.1c-1,0-1.7-0.2-2.2-0.7
			c-0.5-0.5-0.8-1.2-0.8-2.2v-3.3h-1.2v-1.8h1.2v-2h2.3v2h2v1.8h-2v3.3c0,0.3,0.1,0.6,0.3,0.8c0.2,0.2,0.4,0.3,0.7,0.3
			c0.4,0,0.7-0.1,0.9-0.3L417,643.2z"/>
        </g>
        <g class="st2">
            <path class="st3" d="M616.5,629.6l-4.9-0.3l-1,2.2l-2.5-0.1l5.2-10.2l2.4,0.1l4.1,10.7l-2.5-0.1L616.5,629.6z M615.8,627.7
			l-1.5-4.1l-1.9,3.9L615.8,627.7z"/>
            <path class="st3" d="M628.4,625.2c0.6,0.6,0.8,1.5,0.8,2.7l-0.2,4.6l-2.3-0.1l0.2-4.3c0-0.6-0.1-1.1-0.3-1.5
			c-0.3-0.3-0.7-0.5-1.2-0.5c-0.6,0-1.1,0.1-1.4,0.5c-0.4,0.3-0.6,0.9-0.6,1.6l-0.2,4l-2.3-0.1l0.4-8.1l2.2,0.1l0,0.9
			c0.3-0.3,0.7-0.6,1.2-0.7c0.5-0.2,1-0.2,1.5-0.2C627.1,624.2,627.9,624.6,628.4,625.2z"/>
        </g>
        <g class="st2">
            <path class="st3" d="M636.3,632.5c-0.2,0.2-0.5,0.3-0.9,0.3c-0.3,0.1-0.7,0.1-1.1,0.1c-1-0.1-1.7-0.3-2.2-0.9
			c-0.5-0.5-0.7-1.2-0.7-2.2l0.2-3.3l-1.2-0.1l0.1-1.8l1.2,0.1l0.1-2l2.3,0.1l-0.1,2l2,0.1l-0.1,1.8l-2-0.1l-0.2,3.3
			c0,0.3,0.1,0.6,0.2,0.8c0.2,0.2,0.4,0.3,0.7,0.3c0.4,0,0.7-0.1,1-0.3L636.3,632.5z"/>
        </g>
        <g class="st2">
            <path class="st3" d="M638.9,632.6c-0.7-0.4-1.2-0.9-1.5-1.6c-0.3-0.6-0.5-1.4-0.5-2.2c0-0.8,0.3-1.5,0.7-2.1
			c0.4-0.6,1-1.1,1.7-1.4c0.7-0.3,1.5-0.5,2.3-0.4c0.8,0,1.6,0.3,2.2,0.7c0.6,0.4,1.1,0.9,1.5,1.6c0.3,0.6,0.5,1.4,0.5,2.2
			c0,0.8-0.3,1.5-0.7,2.1c-0.4,0.6-1,1.1-1.7,1.4c-0.7,0.3-1.5,0.5-2.3,0.4C640.3,633.2,639.6,633,638.9,632.6z M642.8,630.8
			c0.4-0.4,0.6-0.9,0.7-1.6c0-0.7-0.1-1.2-0.5-1.7c-0.4-0.4-0.8-0.7-1.4-0.7c-0.6,0-1.1,0.1-1.5,0.5c-0.4,0.4-0.6,0.9-0.7,1.6
			c0,0.7,0.1,1.2,0.5,1.7c0.4,0.4,0.9,0.7,1.4,0.7C641.9,631.4,642.4,631.2,642.8,630.8z"/>
            <path class="st3" d="M654.9,626.6c0.6,0.6,0.8,1.5,0.8,2.7l-0.2,4.6l-2.3-0.1l0.2-4.3c0-0.6-0.1-1.1-0.3-1.5s-0.7-0.5-1.2-0.5
			c-0.6,0-1.1,0.1-1.4,0.5c-0.4,0.3-0.6,0.9-0.6,1.6l-0.2,4l-2.3-0.1l0.4-8.1l2.2,0.1l0,0.9c0.3-0.3,0.7-0.6,1.2-0.7
			c0.5-0.2,1-0.2,1.5-0.2C653.5,625.6,654.3,626,654.9,626.6z"/>
            <path class="st3" d="M657.9,626l2.3,0.1l-0.4,8.1l-2.3-0.1L657.9,626z M658.1,624.5c-0.3-0.3-0.4-0.6-0.4-1c0-0.4,0.2-0.7,0.5-0.9
			c0.3-0.2,0.6-0.3,1.1-0.3c0.4,0,0.8,0.2,1,0.4c0.3,0.3,0.4,0.6,0.4,0.9c0,0.4-0.2,0.7-0.5,0.9c-0.3,0.2-0.6,0.3-1.1,0.3
			C658.7,624.9,658.4,624.7,658.1,624.5z"/>
            <path class="st3" d="M663.6,633.9c-0.7-0.4-1.2-0.9-1.5-1.6s-0.5-1.4-0.5-2.2c0-0.8,0.3-1.5,0.7-2.1c0.4-0.6,1-1.1,1.7-1.4
			c0.7-0.3,1.5-0.5,2.3-0.4c0.8,0,1.6,0.3,2.3,0.7c0.7,0.4,1.1,0.9,1.5,1.6c0.3,0.6,0.5,1.4,0.5,2.2c0,0.8-0.3,1.5-0.7,2.1
			c-0.4,0.6-1,1.1-1.6,1.4c-0.7,0.3-1.5,0.5-2.3,0.4C665,634.5,664.3,634.3,663.6,633.9z M667.5,632.1c0.4-0.4,0.6-0.9,0.7-1.6
			c0-0.7-0.1-1.2-0.5-1.7c-0.4-0.4-0.8-0.7-1.4-0.7c-0.6,0-1.1,0.1-1.5,0.5c-0.4,0.4-0.6,0.9-0.7,1.6c0,0.7,0.1,1.2,0.5,1.7
			c0.4,0.4,0.9,0.7,1.5,0.7C666.6,632.7,667.1,632.5,667.5,632.1z"/>
        </g>
        <g class="st2">
            <path class="st3" d="M682.9,635.4l-1.9-3l-0.1,0l-2.1-0.1l-0.2,2.9l-2.4-0.1l0.5-10.5l4.5,0.2c0.9,0,1.7,0.2,2.4,0.6
			c0.7,0.3,1.2,0.8,1.5,1.4c0.3,0.6,0.5,1.3,0.4,2.1c0,0.8-0.3,1.4-0.7,2c-0.4,0.5-1,0.9-1.7,1.2l2.2,3.5L682.9,635.4z M682.7,627.3
			c-0.4-0.3-0.9-0.5-1.6-0.6l-2-0.1l-0.2,3.7l2,0.1c0.7,0,1.3-0.1,1.7-0.4c0.4-0.3,0.6-0.7,0.6-1.3
			C683.3,628.1,683.1,627.6,682.7,627.3z"/>
        </g>
        <g class="st2">
            <path class="st3" d="M693.5,628.6c0.6,0.6,0.9,1.5,0.9,2.7l-0.2,4.6l-2.2-0.1l0.1-1c-0.5,0.7-1.3,1.1-2.5,1
			c-0.6,0-1.2-0.2-1.6-0.4c-0.4-0.2-0.8-0.5-1-0.9c-0.2-0.4-0.3-0.8-0.3-1.3c0-0.7,0.4-1.3,0.9-1.7c0.6-0.4,1.5-0.6,2.6-0.5l1.9,0.1
			c0-0.5-0.1-0.9-0.4-1.2c-0.3-0.3-0.8-0.5-1.4-0.5c-0.4,0-0.9,0-1.3,0.1c-0.4,0.1-0.8,0.3-1.1,0.5l-0.8-1.7c0.5-0.3,1-0.5,1.6-0.6
			c0.6-0.1,1.3-0.2,1.9-0.2C691.9,627.6,692.9,628,693.5,628.6z M691.2,634.1c0.3-0.2,0.6-0.4,0.7-0.8l0-0.8l-1.6-0.1
			c-1,0-1.5,0.2-1.5,0.9c0,0.3,0.1,0.5,0.3,0.7s0.5,0.3,1,0.3C690.6,634.3,690.9,634.2,691.2,634.1z"/>
        </g>
        <g class="st2">
            <path class="st3" d="M709.4,629.4c0.6,0.6,0.8,1.5,0.8,2.7l-0.2,4.6l-2.3-0.1l0.2-4.3c0-0.6-0.1-1.1-0.3-1.5
			c-0.2-0.3-0.6-0.5-1.1-0.5c-0.5,0-1,0.1-1.3,0.5c-0.3,0.3-0.5,0.9-0.6,1.6l-0.2,4l-2.3-0.1l0.2-4.3c0.1-1.3-0.4-1.9-1.4-2
			c-0.5,0-1,0.1-1.3,0.5c-0.3,0.3-0.5,0.9-0.6,1.6l-0.2,4l-2.3-0.1l0.4-8.1l2.2,0.1l0,0.9c0.3-0.3,0.7-0.6,1.1-0.7
			c0.4-0.2,0.9-0.2,1.4-0.2c0.6,0,1.1,0.2,1.5,0.4c0.4,0.2,0.8,0.6,1.1,1c0.4-0.4,0.8-0.7,1.3-0.9c0.5-0.2,1.1-0.3,1.7-0.3
			C708,628.5,708.8,628.8,709.4,629.4z"/>
        </g>
        <g class="st2">
            <path class="st3" d="M713.6,636.6c-0.7-0.4-1.2-0.9-1.5-1.6c-0.3-0.6-0.5-1.4-0.5-2.2c0-0.8,0.3-1.5,0.7-2.1
			c0.4-0.6,1-1.1,1.7-1.4c0.7-0.3,1.5-0.5,2.3-0.4c0.8,0,1.6,0.3,2.2,0.7s1.1,0.9,1.5,1.6c0.3,0.6,0.5,1.4,0.5,2.2
			c0,0.8-0.3,1.5-0.7,2.1c-0.4,0.6-1,1.1-1.6,1.4c-0.7,0.3-1.5,0.5-2.3,0.4C715,637.2,714.3,636.9,713.6,636.6z M717.5,634.8
			c0.4-0.4,0.6-0.9,0.7-1.6c0-0.7-0.1-1.2-0.5-1.7s-0.8-0.7-1.4-0.7s-1.1,0.1-1.5,0.5c-0.4,0.4-0.6,0.9-0.7,1.6
			c0,0.7,0.1,1.2,0.5,1.7c0.4,0.4,0.9,0.7,1.5,0.7S717.1,635.1,717.5,634.8z"/>
            <path class="st3" d="M722.6,637.3c-0.6-0.2-1.1-0.4-1.5-0.7l0.9-1.6c0.3,0.2,0.8,0.5,1.3,0.6c0.5,0.2,1,0.3,1.5,0.3
			c1,0.1,1.5-0.2,1.5-0.7c0-0.2-0.1-0.4-0.4-0.5c-0.3-0.1-0.7-0.2-1.2-0.3c-0.7-0.1-1.2-0.3-1.6-0.4c-0.4-0.2-0.8-0.4-1.1-0.7
			c-0.3-0.3-0.4-0.8-0.4-1.4c0-0.5,0.2-1,0.5-1.3c0.3-0.4,0.8-0.7,1.3-0.9c0.6-0.2,1.2-0.3,2-0.2c0.6,0,1.1,0.1,1.7,0.3
			c0.6,0.2,1,0.4,1.4,0.6l-0.9,1.6c-0.7-0.4-1.5-0.7-2.3-0.7c-0.5,0-0.9,0-1.1,0.2c-0.3,0.1-0.4,0.3-0.4,0.5c0,0.3,0.1,0.4,0.4,0.5
			c0.3,0.1,0.7,0.2,1.3,0.4c0.7,0.1,1.2,0.3,1.6,0.4c0.4,0.1,0.8,0.4,1.1,0.7c0.3,0.3,0.4,0.8,0.4,1.4c0,0.5-0.2,0.9-0.5,1.3
			c-0.3,0.4-0.8,0.7-1.4,0.8c-0.6,0.2-1.3,0.3-2.1,0.2C723.9,637.6,723.3,637.5,722.6,637.3z"/>
        </g>
        <g class="st2">
            <path class="st3" d="M736.4,637.6c-0.8-0.5-1.5-1.2-1.9-2c-0.5-0.8-0.6-1.8-0.6-2.8c0.1-1,0.4-2,0.9-2.8c0.5-0.8,1.3-1.4,2.1-1.8
			c0.9-0.4,1.9-0.6,2.9-0.5c0.9,0,1.7,0.3,2.4,0.6c0.7,0.4,1.3,0.9,1.8,1.5l-1.6,1.4c-0.7-0.9-1.5-1.3-2.6-1.4
			c-0.6,0-1.2,0.1-1.8,0.3c-0.5,0.3-0.9,0.6-1.3,1.1c-0.3,0.5-0.5,1.1-0.5,1.7c0,0.6,0.1,1.2,0.3,1.8c0.3,0.5,0.6,0.9,1.1,1.3
			c0.5,0.3,1.1,0.5,1.7,0.5c1,0.1,2-0.3,2.7-1.1l1.5,1.5c-0.5,0.6-1.2,1-1.9,1.3c-0.8,0.3-1.6,0.4-2.5,0.3
			C738.2,638.4,737.2,638.2,736.4,637.6z"/>
        </g>
        <g class="st2">
            <path class="st3" d="M751.5,631.6c0.6,0.6,0.9,1.5,0.9,2.7l-0.2,4.6l-2.2-0.1l0.1-1c-0.5,0.7-1.3,1.1-2.5,1
			c-0.6,0-1.2-0.2-1.6-0.4c-0.4-0.2-0.8-0.5-1-0.9c-0.2-0.4-0.3-0.8-0.3-1.3c0-0.7,0.4-1.3,0.9-1.7c0.6-0.4,1.5-0.6,2.6-0.5l1.9,0.1
			c0-0.5-0.1-0.9-0.4-1.2c-0.3-0.3-0.8-0.5-1.4-0.5c-0.4,0-0.9,0-1.3,0.1s-0.8,0.3-1.1,0.5l-0.8-1.7c0.5-0.3,1-0.5,1.6-0.6
			c0.6-0.1,1.3-0.2,1.9-0.2C749.9,630.7,750.9,631,751.5,631.6z M749.2,637.1c0.3-0.2,0.6-0.4,0.7-0.8l0-0.8l-1.6-0.1
			c-1,0-1.5,0.2-1.5,0.9c0,0.3,0.1,0.5,0.3,0.7c0.2,0.2,0.5,0.3,1,0.3C748.5,637.3,748.9,637.3,749.2,637.1z"/>
        </g>
        <g class="st2">
            <path class="st3" d="M758,631.4c0.5-0.2,1-0.2,1.7-0.2l-0.1,2.2c-0.3,0-0.4-0.1-0.5-0.1c-0.7,0-1.2,0.1-1.6,0.5
			c-0.4,0.4-0.6,0.9-0.7,1.7l-0.2,3.8l-2.3-0.1l0.4-8.1l2.2,0.1l-0.1,1.1C757.1,631.8,757.5,631.6,758,631.4z"/>
        </g>
        <g class="st2">
            <path class="st3" d="M764.4,631.7c0.5-0.2,1-0.2,1.7-0.2l-0.1,2.2c-0.3,0-0.4-0.1-0.5-0.1c-0.7,0-1.2,0.1-1.6,0.5
			c-0.4,0.4-0.6,0.9-0.7,1.7l-0.2,3.8l-2.3-0.1l0.4-8.1l2.2,0.1l-0.1,1.1C763.5,632.2,763.9,631.9,764.4,631.7z"/>
        </g>
        <g class="st2">
            <path class="st3" d="M773.5,632.8c0.6,0.6,0.9,1.5,0.9,2.7l-0.2,4.6l-2.2-0.1l0.1-1c-0.5,0.7-1.3,1.1-2.5,1
			c-0.6,0-1.2-0.2-1.6-0.4c-0.4-0.2-0.8-0.5-1-0.9c-0.2-0.4-0.3-0.8-0.3-1.3c0-0.7,0.4-1.3,0.9-1.7c0.6-0.4,1.5-0.6,2.6-0.5l1.9,0.1
			c0-0.5-0.1-0.9-0.4-1.2c-0.3-0.3-0.8-0.5-1.4-0.5c-0.4,0-0.9,0-1.3,0.1c-0.4,0.1-0.8,0.3-1.1,0.5l-0.8-1.7c0.5-0.3,1-0.5,1.6-0.6
			c0.6-0.1,1.3-0.2,1.9-0.2C771.9,631.8,772.8,632.2,773.5,632.8z M771.2,638.3c0.3-0.2,0.6-0.4,0.7-0.8l0-0.8l-1.6-0.1
			c-1,0-1.5,0.2-1.5,0.9c0,0.3,0.1,0.5,0.3,0.7s0.5,0.3,1,0.3C770.5,638.5,770.9,638.4,771.2,638.3z"/>
            <path class="st3" d="M781.4,640.1c-0.2,0.2-0.5,0.3-0.9,0.3c-0.3,0.1-0.7,0.1-1.1,0.1c-1,0-1.7-0.3-2.2-0.9
			c-0.5-0.5-0.7-1.3-0.7-2.2l0.2-3.3l-1.2-0.1l0.1-1.8l1.2,0.1l0.1-2l2.3,0.1l-0.1,2l2,0.1l-0.1,1.8l-2-0.1l-0.2,3.3
			c0,0.3,0.1,0.6,0.2,0.8c0.2,0.2,0.4,0.3,0.7,0.3c0.4,0,0.7-0.1,1-0.3L781.4,640.1z"/>
            <path class="st3" d="M789.2,633.6c0.6,0.6,0.9,1.5,0.9,2.7l-0.2,4.6l-2.2-0.1l0.1-1c-0.5,0.7-1.3,1.1-2.5,1
			c-0.6,0-1.2-0.2-1.6-0.4c-0.4-0.2-0.8-0.5-1-0.9c-0.2-0.4-0.3-0.8-0.3-1.3c0-0.7,0.4-1.3,0.9-1.7c0.6-0.4,1.5-0.6,2.6-0.5l1.9,0.1
			c0-0.5-0.1-0.9-0.4-1.2c-0.3-0.3-0.8-0.5-1.4-0.5c-0.4,0-0.9,0-1.3,0.1s-0.8,0.3-1.1,0.5l-0.8-1.7c0.5-0.3,1-0.5,1.6-0.6
			c0.6-0.1,1.3-0.2,1.9-0.2C787.7,632.6,788.6,633,789.2,633.6z M787,639.1c0.3-0.2,0.6-0.4,0.7-0.8l0-0.8l-1.6-0.1
			c-1,0-1.5,0.2-1.5,0.9c0,0.3,0.1,0.5,0.3,0.7c0.2,0.2,0.5,0.3,1,0.3C786.3,639.3,786.6,639.2,787,639.1z"/>
            <path class="st3" d="M792.6,630l2.3,0.1l-0.6,11.1l-2.3-0.1L792.6,630z"/>
            <path class="st3" d="M803,634.3c0.6,0.6,0.9,1.5,0.9,2.7l-0.2,4.6l-2.2-0.1l0.1-1c-0.5,0.7-1.3,1.1-2.5,1c-0.6,0-1.2-0.2-1.6-0.4
			s-0.8-0.5-1-0.9c-0.2-0.4-0.3-0.8-0.3-1.3c0-0.7,0.4-1.3,0.9-1.7s1.5-0.6,2.6-0.5l1.9,0.1c0-0.5-0.1-0.9-0.4-1.2
			c-0.3-0.3-0.8-0.5-1.4-0.5c-0.4,0-0.9,0-1.3,0.1c-0.4,0.1-0.8,0.3-1.1,0.5l-0.8-1.7c0.5-0.3,1-0.5,1.6-0.6
			c0.6-0.1,1.3-0.2,1.9-0.2C801.4,633.4,802.4,633.7,803,634.3z M800.7,639.8c0.3-0.2,0.6-0.4,0.7-0.8l0-0.8l-1.6-0.1
			c-1-0.1-1.5,0.2-1.5,0.9c0,0.3,0.1,0.5,0.3,0.7c0.2,0.2,0.5,0.3,1,0.3C800,640,800.4,640,800.7,639.8z M801.2,630.3l2.5,0.1
			l-2.8,2l-1.8-0.1L801.2,630.3z"/>
        </g>
        <g class="st2">
            <path class="st3" d="M317.6,603.4l-11.1-2.6l-0.4-2.4l9.5-6.3l0.5,2.6l-6.8,4.5l8,1.9L317.6,603.4z"/>
            <path class="st3" d="M311.7,617l-0.9-4.8l-2.4-0.5l-0.4-2.4l11.2,2.7l0.4,2.4l-9.5,6.5l-0.5-2.5L311.7,617z M313.4,615.9l3.7-2.4
			l-4.3-0.9L313.4,615.9z"/>
            <path class="st3" d="M321.2,619.7l0.4,2.3l-11,2l-0.4-2.3L321.2,619.7z"/>
            <path class="st3" d="M315.8,633.3l-1.1-6c-0.5,0.2-0.8,0.5-1,1c-0.2,0.5-0.3,1-0.2,1.6c0.1,0.4,0.2,0.8,0.4,1.1
			c0.2,0.3,0.4,0.6,0.7,0.8l-1.1,1.5c-1-0.6-1.6-1.6-1.9-3c-0.2-0.9-0.1-1.7,0.1-2.5c0.2-0.8,0.6-1.4,1.2-1.9c0.6-0.5,1.2-0.8,2-0.9
			c0.8-0.1,1.5-0.1,2.2,0.2c0.7,0.3,1.3,0.7,1.7,1.3c0.5,0.6,0.8,1.3,0.9,2.1c0.1,0.8,0.1,1.5-0.1,2.2c-0.2,0.7-0.6,1.3-1.2,1.7
			c-0.6,0.5-1.3,0.8-2.1,0.9C316.4,633.2,316.2,633.2,315.8,633.3z M317.4,627.4c-0.4-0.3-0.8-0.4-1.3-0.4l0.7,3.9
			c0.5-0.2,0.8-0.5,1.1-0.9c0.2-0.4,0.3-0.9,0.2-1.4C318,628.1,317.7,627.7,317.4,627.4z"/>
            <path class="st3" d="M320.7,634l0.4,2.3l-7.9,1.4l-0.4-2.3L320.7,634z M322.2,633.9c0.2-0.3,0.5-0.5,0.8-0.6c0.4-0.1,0.7,0,1,0.2
			c0.3,0.2,0.5,0.5,0.6,1c0.1,0.4,0,0.8-0.2,1.1c-0.2,0.3-0.5,0.5-0.8,0.6c-0.4,0.1-0.7,0-1-0.2c-0.3-0.2-0.5-0.5-0.6-1
			C321.9,634.6,322,634.2,322.2,633.9z"/>
        </g>
        <g class="st2">
            <path class="st3" d="M314.5,645l2.1-2.2l-2.8-1.4l-0.5-2.5l4.6,2.3l3.4-3.7l0.5,2.6l-2,2.1l2.6,1.3l0.4,2.5l-4.4-2.2l-3.5,3.8
			L314.5,645z"/>
        </g>
        <g class="st2">
            <path class="st3" d="M323.4,653.3c-0.5,0.8-1.3,1.3-2.5,1.5l-4.5,0.8l-0.4-2.2l1-0.2c-0.8-0.3-1.3-1-1.5-2.2
			c-0.1-0.6-0.1-1.2,0-1.6c0.1-0.5,0.3-0.9,0.7-1.2c0.3-0.3,0.7-0.5,1.2-0.6c0.7-0.1,1.4,0,1.9,0.5c0.5,0.5,0.9,1.3,1.1,2.5l0.3,1.8
			c0.5-0.1,0.9-0.3,1.1-0.7c0.2-0.4,0.3-0.8,0.2-1.4c-0.1-0.4-0.2-0.8-0.4-1.2c-0.2-0.4-0.4-0.7-0.7-0.9l1.5-1.1
			c0.4,0.4,0.7,0.9,1,1.4c0.3,0.6,0.5,1.2,0.6,1.8C324,651.5,323.9,652.5,323.4,653.3z M317.6,652.3c0.2,0.3,0.5,0.4,0.9,0.5
			l0.8-0.1l-0.3-1.6c-0.2-0.9-0.6-1.4-1.2-1.2c-0.3,0.1-0.5,0.2-0.6,0.5c-0.1,0.3-0.2,0.6-0.1,1C317.2,651.7,317.3,652,317.6,652.3z
			"/>
        </g>
        <g class="st2">
            <path class="st3" d="M325.3,663.6c-0.5,0.7-1.3,1.2-2.5,1.4l-4.5,0.8l-0.4-2.3l4.2-0.8c0.6-0.1,1.1-0.3,1.3-0.7
			c0.3-0.3,0.3-0.8,0.2-1.3c-0.1-0.6-0.4-1-0.8-1.3c-0.4-0.3-1-0.4-1.7-0.2l-3.9,0.7l-0.4-2.3l7.9-1.4l0.4,2.2l-0.9,0.2
			c0.4,0.2,0.7,0.6,1,1c0.3,0.4,0.4,0.9,0.5,1.4C325.9,662,325.7,662.8,325.3,663.6z"/>
        </g>
        <g class="st2">
            <path class="st3" d="M331.1,674l-11,2l-0.4-2.2l0.9-0.2c-0.8-0.4-1.3-1.2-1.5-2.3c-0.1-0.7-0.1-1.5,0.1-2.1
			c0.2-0.7,0.6-1.2,1.2-1.7c0.6-0.5,1.2-0.8,2.1-0.9c0.8-0.1,1.6-0.1,2.2,0.1c0.7,0.2,1.2,0.6,1.7,1.2c0.4,0.5,0.7,1.2,0.9,1.9
			c0.2,1,0,1.9-0.5,2.6l3.9-0.7L331.1,674z M322,672.8c0.5,0.3,1,0.4,1.7,0.3c0.7-0.1,1.2-0.4,1.5-0.9c0.3-0.5,0.4-1,0.3-1.6
			c-0.1-0.6-0.4-1-0.9-1.4c-0.5-0.3-1-0.4-1.7-0.3c-0.7,0.1-1.2,0.4-1.5,0.9c-0.3,0.5-0.4,1-0.3,1.6
			C321.2,672,321.5,672.4,322,672.8z"/>
        </g>
        <g class="st2">
            <path class="st3" d="M328.9,680.1c0.3,0.4,0.5,1,0.6,1.6l-2.1,0.4c0-0.3,0-0.4-0.1-0.5c-0.1-0.7-0.4-1.1-0.8-1.4
			c-0.4-0.3-1-0.4-1.8-0.3l-3.7,0.7l-0.4-2.3l7.9-1.4l0.4,2.2l-1,0.2C328.2,679.3,328.6,679.6,328.9,680.1z"/>
        </g>
        <g class="st2">
            <path class="st3" d="M326.3,691.5l-1.1-6c-0.5,0.2-0.8,0.5-1,1c-0.2,0.5-0.3,1-0.2,1.6c0.1,0.4,0.2,0.8,0.4,1.1
			c0.2,0.3,0.4,0.6,0.7,0.8l-1.1,1.5c-1-0.6-1.6-1.6-1.9-3c-0.2-0.9-0.1-1.7,0.1-2.5c0.2-0.8,0.6-1.4,1.2-1.9c0.6-0.5,1.2-0.8,2-0.9
			c0.8-0.1,1.5-0.1,2.2,0.2c0.7,0.3,1.3,0.7,1.7,1.3c0.5,0.6,0.8,1.3,0.9,2.1c0.1,0.8,0.1,1.5-0.1,2.2c-0.2,0.7-0.6,1.3-1.2,1.7
			c-0.6,0.5-1.3,0.8-2.1,0.9C326.9,691.4,326.7,691.5,326.3,691.5z M327.9,685.7c-0.4-0.3-0.8-0.4-1.3-0.4l0.7,3.9
			c0.5-0.2,0.8-0.5,1.1-0.9c0.2-0.4,0.3-0.9,0.2-1.4C328.5,686.4,328.3,686,327.9,685.7z"/>
        </g>
        <g class="st2">
            <path class="st3" d="M251.2,564.4l-1.3-4.7l-2.4-0.3l-0.7-2.4l11.4,1.7l0.6,2.3l-8.9,7.3l-0.7-2.5L251.2,564.4z M252.8,563.2
			l3.4-2.7l-4.3-0.5L252.8,563.2z"/>
        </g>
        <g class="st2">
            <path class="st3" d="M260,574.5l-8.7-1.2l-0.6-2.3l6.9-5.4l0.6,2.3l-4.7,3.6l5.9,0.8L260,574.5z"/>
        </g>
        <g class="st2">
            <path class="st3" d="M265.3,582.3l-10.7,2.9l-0.6-2.2l0.9-0.2c-0.8-0.4-1.4-1.1-1.7-2.2c-0.2-0.7-0.2-1.4-0.1-2.1
			c0.2-0.7,0.5-1.3,1-1.8c0.5-0.5,1.2-0.9,2-1.1s1.6-0.2,2.3-0.1c0.7,0.2,1.3,0.5,1.8,1c0.5,0.5,0.8,1.1,1,1.9
			c0.3,1,0.2,1.9-0.3,2.6l3.8-1L265.3,582.3z M256.2,581.8c0.5,0.3,1.1,0.3,1.7,0.1c0.7-0.2,1.1-0.5,1.4-1c0.3-0.5,0.4-1,0.2-1.6
			c-0.2-0.6-0.5-1-1-1.3c-0.5-0.3-1.1-0.3-1.7-0.1c-0.7,0.2-1.1,0.5-1.4,1c-0.3,0.5-0.4,1-0.2,1.6
			C255.3,581.1,255.7,581.6,256.2,581.8z"/>
            <path class="st3" d="M263.8,591.3c-0.4,0.8-1.2,1.4-2.3,1.7l-4.4,1.2l-0.6-2.1l1-0.3c-0.8-0.2-1.4-0.9-1.7-2.1
			c-0.2-0.6-0.2-1.1-0.1-1.6c0.1-0.5,0.3-0.9,0.6-1.2c0.3-0.3,0.7-0.6,1.1-0.7c0.7-0.2,1.4-0.1,1.9,0.4c0.6,0.4,1,1.2,1.3,2.4
			l0.5,1.8c0.5-0.1,0.8-0.4,1-0.8c0.2-0.4,0.2-0.9,0-1.5c-0.1-0.4-0.3-0.8-0.5-1.2c-0.2-0.4-0.5-0.7-0.8-0.9l1.4-1.2
			c0.4,0.3,0.8,0.8,1.1,1.3c0.3,0.5,0.6,1.1,0.7,1.8C264.2,589.5,264.2,590.5,263.8,591.3z M257.9,590.9c0.3,0.3,0.6,0.4,1,0.4
			l0.8-0.2l-0.4-1.5c-0.3-0.9-0.7-1.3-1.3-1.1c-0.3,0.1-0.5,0.3-0.6,0.5c-0.1,0.3-0.1,0.6,0,1C257.5,590.3,257.7,590.6,257.9,590.9z
			"/>
            <path class="st3" d="M271.6,605.3l-10.7,2.9l-0.6-2.2l0.9-0.2c-0.8-0.4-1.4-1.1-1.7-2.2c-0.2-0.7-0.2-1.4-0.1-2.1
			c0.2-0.7,0.5-1.3,1-1.8c0.5-0.5,1.2-0.9,2-1.1s1.6-0.2,2.3-0.1c0.7,0.2,1.3,0.5,1.8,1c0.5,0.5,0.8,1.1,1,1.9
			c0.3,1,0.2,1.9-0.3,2.6l3.8-1L271.6,605.3z M262.4,604.9c0.5,0.3,1.1,0.3,1.7,0.1c0.7-0.2,1.1-0.5,1.4-1c0.3-0.5,0.4-1,0.2-1.6
			c-0.2-0.6-0.5-1-1-1.3c-0.5-0.3-1.1-0.3-1.7-0.1c-0.7,0.2-1.1,0.5-1.4,1c-0.3,0.5-0.4,1-0.2,1.6
			C261.6,604.2,262,604.6,262.4,604.9z"/>
            <path class="st3" d="M266.8,617.1l-1.6-5.9c-0.5,0.2-0.8,0.6-0.9,1.1c-0.2,0.5-0.2,1,0,1.6c0.1,0.4,0.3,0.7,0.5,1
			c0.2,0.3,0.5,0.5,0.8,0.7l-1,1.6c-1-0.5-1.8-1.5-2.1-2.9c-0.2-0.9-0.3-1.7-0.1-2.5c0.2-0.8,0.5-1.4,1-2c0.5-0.5,1.1-0.9,1.9-1.1
			c0.8-0.2,1.5-0.2,2.2,0c0.7,0.2,1.3,0.6,1.8,1.1c0.5,0.5,0.9,1.2,1.1,2c0.2,0.8,0.2,1.5,0.1,2.2c-0.2,0.7-0.5,1.3-1,1.8
			c-0.5,0.5-1.2,0.9-2,1.1C267.4,616.9,267.2,617,266.8,617.1z M267.8,611.1c-0.4-0.3-0.8-0.4-1.4-0.3l1,3.8c0.5-0.2,0.8-0.5,1-1
			c0.2-0.4,0.2-0.9,0.1-1.4C268.5,611.7,268.2,611.4,267.8,611.1z"/>
            <path class="st3" d="M277.8,630.3l-10.1,2.8l-0.5-1.9l4.8-6.7l-6.1,1.7l-0.6-2.3l10.1-2.8l0.5,1.9l-4.8,6.7l6.1-1.7L277.8,630.3z"/>
        </g>
        <g class="st2">
            <path class="st3" d="M269.1,636.7c0.2-0.7,0.5-1.4,1-1.9c0.5-0.5,1.1-0.9,1.9-1.1c0.8-0.2,1.5-0.2,2.2,0c0.7,0.2,1.3,0.6,1.8,1.1
			c0.5,0.6,0.9,1.2,1.1,2.1c0.2,0.8,0.3,1.6,0.1,2.3c-0.2,0.7-0.5,1.4-1,1.9c-0.5,0.5-1.1,0.9-1.9,1.1c-0.8,0.2-1.5,0.2-2.2,0
			c-0.7-0.2-1.3-0.6-1.8-1.1c-0.5-0.6-0.9-1.2-1.1-2.1C268.9,638.2,268.9,637.4,269.1,636.7z M272,639.8c0.5,0.3,1.1,0.3,1.7,0.1
			c0.7-0.2,1.1-0.5,1.4-1c0.3-0.5,0.4-1,0.2-1.6s-0.5-1-1-1.3c-0.5-0.3-1.1-0.3-1.7-0.1c-0.7,0.2-1.1,0.5-1.4,1
			c-0.3,0.5-0.4,1-0.2,1.6S271.5,639.5,272,639.8z"/>
            <path class="st3" d="M280.6,649.9l-8.7-1.2l-0.6-2.3l6.9-5.4l0.6,2.3l-4.7,3.6l5.9,0.8L280.6,649.9z"/>
        </g>
        <g class="st2">
            <path class="st3" d="M278.4,659.7l-1.6-5.9c-0.5,0.2-0.8,0.6-0.9,1.1c-0.2,0.5-0.2,1,0,1.6c0.1,0.4,0.3,0.7,0.5,1
			c0.2,0.3,0.5,0.5,0.8,0.7l-1,1.6c-1-0.5-1.8-1.5-2.1-2.9c-0.2-0.9-0.3-1.7-0.1-2.5c0.2-0.8,0.5-1.4,1-2c0.5-0.5,1.1-0.9,1.9-1.1
			c0.8-0.2,1.5-0.2,2.2,0c0.7,0.2,1.3,0.6,1.8,1.1c0.5,0.5,0.9,1.2,1.1,2c0.2,0.8,0.2,1.5,0.1,2.2s-0.5,1.3-1,1.8
			c-0.5,0.5-1.2,0.9-2,1.1C279,659.6,278.8,659.6,278.4,659.7z M279.5,653.7c-0.4-0.3-0.8-0.4-1.4-0.3l1,3.8c0.5-0.2,0.8-0.5,1-1
			c0.2-0.4,0.2-0.9,0.1-1.4C280.1,654.4,279.9,654,279.5,653.7z"/>
            <path class="st3" d="M286.3,659.2l0.6,2.3l-10.7,2.9l-0.6-2.3L286.3,659.2z"/>
            <path class="st3" d="M289.7,671.5l-10.7,2.9l-0.6-2.2l0.9-0.2c-0.8-0.4-1.4-1.1-1.7-2.2c-0.2-0.7-0.2-1.4-0.1-2.1s0.5-1.3,1-1.8
			c0.5-0.5,1.2-0.9,2-1.1s1.6-0.2,2.3-0.1c0.7,0.2,1.3,0.5,1.8,1s0.8,1.1,1,1.9c0.3,1,0.2,1.9-0.3,2.6l3.8-1L289.7,671.5z
			 M280.5,671c0.5,0.3,1.1,0.3,1.7,0.1c0.7-0.2,1.1-0.5,1.4-1c0.3-0.5,0.4-1,0.2-1.6c-0.2-0.6-0.5-1-1-1.3c-0.5-0.3-1.1-0.3-1.7-0.1
			c-0.7,0.2-1.1,0.5-1.4,1c-0.3,0.5-0.4,1-0.2,1.6C279.7,670.3,280,670.7,280.5,671z"/>
            <path class="st3" d="M288.2,680.5c-0.4,0.8-1.2,1.4-2.3,1.7l-4.4,1.2l-0.6-2.1l1-0.3c-0.8-0.2-1.4-0.9-1.7-2.1
			c-0.2-0.6-0.2-1.1-0.1-1.6c0.1-0.5,0.3-0.9,0.6-1.2c0.3-0.3,0.7-0.6,1.1-0.7c0.7-0.2,1.4-0.1,1.9,0.4c0.6,0.4,1,1.2,1.3,2.4
			l0.5,1.8c0.5-0.1,0.8-0.4,1-0.8c0.2-0.4,0.2-0.9,0-1.5c-0.1-0.4-0.3-0.8-0.5-1.2c-0.2-0.4-0.5-0.7-0.8-0.9l1.4-1.2
			c0.4,0.3,0.8,0.8,1.1,1.3s0.6,1.1,0.7,1.8C288.6,678.7,288.6,679.7,288.2,680.5z M282.3,680c0.3,0.3,0.6,0.4,1,0.4l0.8-0.2
			l-0.4-1.5c-0.3-0.9-0.7-1.3-1.3-1.1c-0.3,0.1-0.5,0.3-0.6,0.5c-0.1,0.3-0.1,0.6,0,1C281.8,679.4,282,679.8,282.3,680z"/>
        </g>
        <g class="st2">
            <path class="st3" d="M431.6,522.2c-0.2,0.6-0.5,1.1-0.9,1.5c-0.4,0.4-1,0.7-1.7,0.8c-0.7,0.1-1.3,0-1.8-0.2
			c-0.5-0.2-1-0.6-1.4-1.2c-0.4-0.5-0.6-1.2-0.7-2l-0.3-1.8l-2.5,0.4l-0.3-2.1l9-1.5l0.6,3.9C431.8,520.9,431.8,521.6,431.6,522.2z
			 M427.5,522.1c0.3,0.3,0.7,0.4,1.2,0.3c0.5-0.1,0.9-0.3,1.1-0.7c0.2-0.4,0.3-0.9,0.2-1.5l-0.3-1.7l-3.1,0.5l0.3,1.7
			C426.9,521.4,427.2,521.8,427.5,522.1z"/>
        </g>
        <g class="st2">
            <path class="st3" d="M430.5,525.7l0.3,2l-6.9,1.1l-0.3-2L430.5,525.7z M431.8,525.5c0.2-0.3,0.4-0.4,0.7-0.5
			c0.3-0.1,0.6,0,0.9,0.2c0.3,0.2,0.4,0.5,0.5,0.8c0.1,0.4,0,0.7-0.2,0.9c-0.2,0.3-0.4,0.4-0.7,0.5c-0.3,0.1-0.6,0-0.9-0.2
			c-0.3-0.2-0.4-0.5-0.5-0.8S431.6,525.8,431.8,525.5z"/>
            <path class="st3" d="M431.5,535.9c-0.4,0.6-1.1,1-2.2,1.2l-4,0.7l-0.3-2l3.6-0.6c0.5-0.1,0.9-0.3,1.2-0.6c0.2-0.3,0.3-0.7,0.2-1.1
			c-0.1-0.5-0.3-0.9-0.7-1.1c-0.4-0.2-0.8-0.3-1.5-0.2l-3.4,0.6l-0.3-2l6.9-1.1l0.3,1.9l-0.8,0.1c0.3,0.2,0.6,0.5,0.8,0.9
			c0.2,0.4,0.4,0.8,0.5,1.3C432,534.5,431.9,535.3,431.5,535.9z"/>
        </g>
        <g class="st2">
            <path class="st3" d="M426.7,543.9c-0.2-0.2-0.3-0.4-0.4-0.7c-0.1-0.3-0.2-0.6-0.3-0.9c-0.1-0.8,0-1.5,0.3-2c0.3-0.5,0.9-0.8,1.7-1
			l2.8-0.5l-0.2-1.1l1.5-0.3l0.2,1.1l1.7-0.3l0.3,2l-1.7,0.3l0.3,1.7l-1.5,0.3l-0.3-1.7l-2.8,0.5c-0.3,0-0.5,0.2-0.6,0.3
			c-0.1,0.2-0.2,0.4-0.1,0.7c0.1,0.3,0.2,0.6,0.4,0.8L426.7,543.9z"/>
        </g>
        <g class="st2">
            <path class="st3" d="M427.1,546.1c0.2-0.6,0.6-1.1,1-1.6c0.5-0.4,1.1-0.7,1.8-0.8s1.3-0.1,1.9,0.2c0.6,0.2,1.1,0.6,1.5,1.1
			c0.4,0.5,0.7,1.2,0.8,1.9c0.1,0.7,0.1,1.4-0.1,2s-0.6,1.1-1,1.6c-0.5,0.4-1.1,0.7-1.8,0.8c-0.7,0.1-1.3,0.1-1.9-0.2
			c-0.6-0.2-1.1-0.6-1.5-1.1c-0.4-0.5-0.7-1.1-0.8-1.9C426.9,547.4,426.9,546.8,427.1,546.1z M429.3,549.1c0.4,0.3,0.9,0.4,1.5,0.3
			c0.6-0.1,1-0.3,1.3-0.7c0.3-0.4,0.4-0.8,0.3-1.3c-0.1-0.5-0.3-0.9-0.7-1.2c-0.4-0.3-0.9-0.4-1.5-0.3c-0.6,0.1-1,0.3-1.3,0.7
			c-0.3,0.4-0.4,0.8-0.3,1.4C428.7,548.4,428.9,548.8,429.3,549.1z"/>
            <path class="st3" d="M435.1,555c0.2,0.4,0.4,0.8,0.5,1.4l-1.8,0.3c0-0.2,0-0.4,0-0.5c-0.1-0.6-0.3-1-0.7-1.3
			c-0.4-0.3-0.9-0.4-1.5-0.2l-3.3,0.5l-0.3-2l6.9-1.1l0.3,1.9l-0.9,0.2C434.6,554.4,434.9,554.7,435.1,555z"/>
            <path class="st3" d="M435.1,567.9l0.3,1.9l-3.6,0.6c-0.4-0.4-0.8-0.9-1.1-1.6c-0.3-0.6-0.5-1.2-0.6-1.9c-0.2-0.9-0.1-1.8,0.2-2.6
			c0.3-0.8,0.7-1.5,1.4-2c0.6-0.5,1.4-0.9,2.3-1c0.9-0.1,1.7-0.1,2.5,0.2c0.8,0.3,1.4,0.8,1.9,1.5c0.5,0.7,0.9,1.5,1,2.4
			c0.1,0.8,0.1,1.5,0,2.2c-0.2,0.7-0.5,1.3-0.9,1.8l-1.5-1.1c0.6-0.8,0.8-1.6,0.6-2.5c-0.1-0.6-0.3-1.1-0.6-1.5
			c-0.3-0.4-0.7-0.7-1.2-0.9c-0.5-0.2-1-0.2-1.6-0.1c-0.6,0.1-1,0.3-1.4,0.6c-0.4,0.3-0.7,0.7-0.8,1.2c-0.2,0.5-0.2,1-0.1,1.6
			c0.1,0.6,0.3,1.1,0.7,1.6L435.1,567.9z"/>
            <path class="st3" d="M438.2,576.5c-0.4,0.7-1.1,1.1-2.2,1.2l-3.9,0.6l-0.3-1.9l0.9-0.1c-0.7-0.3-1.1-0.9-1.3-1.9
			c-0.1-0.5-0.1-1,0-1.4c0.1-0.4,0.3-0.8,0.6-1c0.3-0.3,0.6-0.4,1-0.5c0.6-0.1,1.2,0.1,1.6,0.5c0.4,0.4,0.8,1.1,0.9,2.1l0.3,1.6
			c0.4-0.1,0.7-0.3,0.9-0.6c0.2-0.3,0.2-0.7,0.2-1.3c-0.1-0.4-0.2-0.7-0.4-1.1c-0.2-0.3-0.4-0.6-0.6-0.8l1.3-0.9
			c0.3,0.3,0.6,0.8,0.8,1.3c0.2,0.5,0.4,1,0.5,1.6C438.7,575,438.6,575.9,438.2,576.5z M433.1,575.6c0.2,0.2,0.5,0.4,0.8,0.4
			l0.7-0.1l-0.2-1.4c-0.1-0.8-0.5-1.2-1-1.1c-0.3,0-0.4,0.2-0.6,0.4s-0.1,0.5-0.1,0.9C432.8,575.1,432.9,575.4,433.1,575.6z"/>
            <path class="st3" d="M432.6,580.9c0.1-0.6,0.2-1,0.3-1.4l1.5,0.4c-0.1,0.3-0.2,0.7-0.3,1.2c-0.1,0.5,0,0.9,0,1.3
			c0.1,0.8,0.4,1.2,0.8,1.2c0.2,0,0.3-0.2,0.4-0.4c0-0.2,0.1-0.6,0-1.1c0-0.6,0-1.1,0.1-1.4c0.1-0.4,0.2-0.7,0.4-1.1
			c0.2-0.3,0.6-0.5,1.1-0.6c0.4-0.1,0.8,0,1.2,0.2c0.4,0.2,0.7,0.5,1,1c0.3,0.5,0.5,1,0.6,1.7c0.1,0.5,0.1,1,0.1,1.5
			c0,0.5-0.1,0.9-0.2,1.3l-1.5-0.4c0.2-0.7,0.3-1.4,0.2-2.1c-0.1-0.4-0.2-0.7-0.3-0.9c-0.2-0.2-0.3-0.3-0.5-0.2
			c-0.2,0-0.3,0.2-0.4,0.4s-0.1,0.6-0.1,1.1c0,0.6,0,1.1-0.1,1.4c0,0.4-0.2,0.7-0.4,1c-0.2,0.3-0.6,0.5-1.1,0.6
			c-0.4,0.1-0.8,0-1.2-0.2c-0.4-0.2-0.7-0.5-1-1c-0.3-0.5-0.5-1-0.6-1.7C432.5,582,432.5,581.4,432.6,580.9z"/>
        </g>
        <g class="st2">
            <path class="st3" d="M434.5,591.4c-0.2-0.2-0.3-0.4-0.4-0.7c-0.1-0.3-0.2-0.6-0.3-0.9c-0.1-0.8,0-1.5,0.3-2c0.3-0.5,0.9-0.8,1.7-1
			l2.8-0.5l-0.2-1.1l1.5-0.3l0.2,1.1l1.7-0.3l0.3,2l-1.7,0.3l0.3,1.7l-1.5,0.3l-0.3-1.7l-2.8,0.5c-0.3,0-0.5,0.2-0.6,0.3
			c-0.1,0.2-0.2,0.4-0.1,0.7c0.1,0.3,0.2,0.6,0.4,0.8L434.5,591.4z"/>
        </g>
        <g class="st2">
            <path class="st3" d="M434.9,593.7c0.2-0.6,0.6-1.1,1-1.6c0.5-0.4,1.1-0.7,1.8-0.8s1.3-0.1,1.9,0.2c0.6,0.2,1.1,0.6,1.5,1.1
			c0.4,0.5,0.7,1.2,0.8,1.9c0.1,0.7,0.1,1.4-0.1,2s-0.6,1.1-1,1.6c-0.5,0.4-1.1,0.7-1.8,0.8c-0.7,0.1-1.3,0.1-1.9-0.2
			c-0.6-0.2-1.1-0.6-1.5-1.1c-0.4-0.5-0.7-1.1-0.8-1.9C434.7,595,434.7,594.3,434.9,593.7z M437.2,596.6c0.4,0.3,0.9,0.4,1.5,0.3
			c0.6-0.1,1-0.3,1.3-0.7c0.3-0.4,0.4-0.8,0.3-1.3c-0.1-0.5-0.3-0.9-0.7-1.2c-0.4-0.3-0.9-0.4-1.5-0.3c-0.6,0.1-1,0.3-1.3,0.7
			c-0.3,0.4-0.4,0.8-0.3,1.4C436.5,596,436.8,596.3,437.2,596.6z M444.6,594.6l0.4,2.2l-2.2-2l-0.3-1.6L444.6,594.6z"/>
            <path class="st3" d="M443,606.1c-0.4,0.6-1.1,1-2.2,1.2l-4,0.7l-0.3-2l3.6-0.6c0.5-0.1,0.9-0.3,1.2-0.6c0.2-0.3,0.3-0.7,0.2-1.1
			c-0.1-0.5-0.3-0.9-0.7-1.1c-0.4-0.2-0.8-0.3-1.5-0.2l-3.4,0.6l-0.3-2l6.9-1.1l0.3,1.9l-0.8,0.1c0.3,0.2,0.6,0.5,0.8,0.9
			c0.2,0.4,0.4,0.8,0.5,1.3C443.6,604.7,443.4,605.4,443,606.1z"/>
        </g>
        <g class="st2">
            <path class="st3" d="M438.6,615.2c0.3-0.8,0.7-1.5,1.4-2c0.6-0.5,1.4-0.9,2.3-1c0.9-0.1,1.7-0.1,2.5,0.2c0.8,0.3,1.4,0.8,1.9,1.5
			c0.5,0.7,0.9,1.5,1,2.4c0.1,0.8,0.1,1.5-0.1,2.2c-0.2,0.7-0.5,1.3-0.9,1.8l-1.5-1.1c0.6-0.7,0.8-1.5,0.7-2.4
			c-0.1-0.6-0.3-1-0.6-1.4c-0.3-0.4-0.7-0.7-1.2-0.9c-0.5-0.2-1-0.2-1.5-0.1c-0.6,0.1-1,0.3-1.4,0.6s-0.7,0.7-0.9,1.2
			c-0.2,0.5-0.2,1-0.1,1.5c0.1,0.9,0.6,1.6,1.4,2.1l-1,1.5c-0.6-0.3-1.1-0.8-1.5-1.4c-0.4-0.6-0.6-1.3-0.8-2
			C438.2,616.9,438.3,616,438.6,615.2z"/>
        </g>
        <g class="st2">
            <path class="st3" d="M446.5,626.9c-0.4,0.7-1.1,1.1-2.2,1.2l-3.9,0.6l-0.3-1.9l0.9-0.1c-0.7-0.3-1.1-0.9-1.3-1.9
			c-0.1-0.5-0.1-1,0-1.4c0.1-0.4,0.3-0.8,0.6-1c0.3-0.3,0.6-0.4,1-0.5c0.6-0.1,1.2,0.1,1.6,0.5s0.8,1.1,0.9,2.1l0.3,1.6
			c0.4-0.1,0.7-0.3,0.9-0.6c0.2-0.3,0.2-0.7,0.2-1.3c-0.1-0.4-0.2-0.7-0.4-1.1c-0.2-0.3-0.4-0.6-0.6-0.8l1.3-0.9
			c0.3,0.3,0.6,0.8,0.8,1.3c0.2,0.5,0.4,1,0.5,1.6C447,625.4,446.9,626.2,446.5,626.9z M441.4,626c0.2,0.2,0.5,0.4,0.8,0.4l0.7-0.1
			l-0.2-1.4c-0.1-0.8-0.5-1.2-1-1.1c-0.3,0-0.4,0.2-0.6,0.4c-0.1,0.2-0.1,0.5-0.1,0.9C441.1,625.4,441.2,625.7,441.4,626z"/>
            <path class="st3" d="M440.9,631.2c0.1-0.6,0.2-1,0.3-1.4l1.5,0.4c-0.1,0.3-0.2,0.7-0.3,1.2c-0.1,0.5,0,0.9,0,1.3
			c0.1,0.8,0.4,1.2,0.8,1.2c0.2,0,0.3-0.2,0.4-0.4c0-0.2,0.1-0.6,0-1.1c0-0.6,0-1.1,0.1-1.4c0.1-0.4,0.2-0.7,0.4-1.1
			c0.2-0.3,0.6-0.5,1.1-0.6c0.4-0.1,0.8,0,1.2,0.2c0.4,0.2,0.7,0.5,1,1s0.5,1,0.6,1.7c0.1,0.5,0.1,1,0.1,1.5c0,0.5-0.1,0.9-0.2,1.3
			l-1.5-0.4c0.2-0.7,0.3-1.4,0.2-2.1c-0.1-0.4-0.2-0.7-0.3-0.9c-0.2-0.2-0.3-0.3-0.5-0.2c-0.2,0-0.3,0.2-0.4,0.4
			c0,0.2-0.1,0.6-0.1,1.1c0,0.6,0,1.1-0.1,1.4c0,0.4-0.2,0.7-0.4,1c-0.2,0.3-0.6,0.5-1.1,0.6c-0.4,0.1-0.8,0-1.2-0.2
			c-0.4-0.2-0.7-0.5-1-1c-0.3-0.5-0.5-1-0.6-1.7C440.8,632.3,440.8,631.8,440.9,631.2z"/>
        </g>
        <g class="st2">
            <path class="st3" d="M442.8,641.8c-0.2-0.2-0.3-0.4-0.4-0.7c-0.1-0.3-0.2-0.6-0.3-0.9c-0.1-0.8,0-1.5,0.3-2c0.3-0.5,0.9-0.8,1.7-1
			l2.8-0.5l-0.2-1.1l1.5-0.3l0.2,1.1l1.7-0.3l0.3,2l-1.7,0.3l0.3,1.7l-1.5,0.3l-0.3-1.7l-2.8,0.5c-0.3,0-0.5,0.2-0.6,0.3
			c-0.1,0.2-0.2,0.4-0.1,0.7c0.1,0.3,0.2,0.6,0.4,0.8L442.8,641.8z"/>
        </g>
        <g class="st2">
            <path class="st3" d="M446.6,649l-0.9-5.2c-0.4,0.2-0.7,0.4-0.9,0.8c-0.2,0.4-0.2,0.8-0.2,1.4c0.1,0.4,0.2,0.7,0.3,0.9
			c0.2,0.3,0.4,0.5,0.6,0.7l-1,1.3c-0.9-0.5-1.4-1.4-1.6-2.7c-0.1-0.8-0.1-1.5,0.1-2.1c0.2-0.6,0.5-1.2,1-1.6
			c0.5-0.4,1.1-0.7,1.8-0.8c0.7-0.1,1.3-0.1,1.9,0.2c0.6,0.2,1.1,0.6,1.5,1.1s0.7,1.1,0.8,1.8c0.1,0.7,0.1,1.3-0.1,1.9
			c-0.2,0.6-0.5,1.1-1,1.5c-0.5,0.4-1.1,0.7-1.8,0.8C447.2,648.9,447,649,446.6,649z M448.1,643.9c-0.3-0.3-0.7-0.4-1.1-0.4l0.6,3.4
			c0.4-0.1,0.7-0.4,1-0.7c0.2-0.4,0.3-0.7,0.2-1.2C448.6,644.6,448.4,644.2,448.1,643.9z"/>
            <path class="st3" d="M453.5,649.3l0.3,2l-9.5,1.6l-0.3-2L453.5,649.3z"/>
            <path class="st3" d="M454.1,653.1l0.3,2l-9.5,1.6l-0.3-2L454.1,653.1z"/>
            <path class="st3" d="M445.8,659.8c0.2-0.6,0.6-1.1,1-1.6c0.5-0.4,1.1-0.7,1.8-0.8c0.7-0.1,1.3-0.1,1.9,0.2
			c0.6,0.2,1.1,0.6,1.5,1.1s0.7,1.2,0.8,1.9c0.1,0.7,0.1,1.4-0.1,2c-0.2,0.6-0.6,1.1-1,1.6c-0.5,0.4-1.1,0.7-1.8,0.8
			s-1.3,0.1-1.9-0.2c-0.6-0.2-1.1-0.6-1.5-1.1c-0.4-0.5-0.7-1.1-0.8-1.9C445.6,661.1,445.6,660.5,445.8,659.8z M448.1,662.8
			c0.4,0.3,0.9,0.4,1.5,0.3c0.6-0.1,1-0.3,1.3-0.7c0.3-0.4,0.4-0.8,0.3-1.3c-0.1-0.5-0.3-0.9-0.7-1.2c-0.4-0.3-0.9-0.4-1.5-0.3
			c-0.6,0.1-1,0.3-1.3,0.7c-0.3,0.4-0.4,0.8-0.3,1.4S447.7,662.5,448.1,662.8z"/>
        </g>
        <g class="st2">
            <path class="st3" d="M395.6,370.1c0.3-0.9,0.8-1.6,1.5-2.2c0.7-0.6,1.5-1,2.5-1.1c1-0.2,1.9-0.1,2.7,0.3c0.8,0.3,1.5,0.9,2.1,1.6
			c0.6,0.7,0.9,1.6,1.1,2.6c0.1,0.8,0.1,1.6-0.1,2.3s-0.5,1.4-1,1.9l-1.6-1.2c0.6-0.8,0.9-1.7,0.7-2.6c-0.1-0.6-0.3-1.1-0.7-1.5
			c-0.3-0.4-0.8-0.7-1.3-0.9c-0.5-0.2-1.1-0.2-1.7-0.1c-0.6,0.1-1.1,0.3-1.5,0.7c-0.4,0.3-0.7,0.8-0.9,1.3c-0.2,0.5-0.2,1.1-0.1,1.7
			c0.2,1,0.7,1.7,1.5,2.2l-1.1,1.7c-0.6-0.4-1.2-0.9-1.6-1.5c-0.4-0.6-0.7-1.4-0.8-2.2C395.2,371.9,395.3,371,395.6,370.1z"/>
            <path class="st3" d="M397.6,383c-0.2-0.2-0.4-0.4-0.5-0.7c-0.1-0.3-0.2-0.6-0.3-1c-0.1-0.9,0-1.6,0.3-2.2c0.4-0.6,1-0.9,1.9-1.1
			l3.1-0.5l-0.2-1.1l1.7-0.3l0.2,1.1l1.8-0.3l0.4,2.2l-1.8,0.3l0.3,1.9l-1.7,0.3l-0.3-1.9l-3,0.5c-0.3,0.1-0.5,0.2-0.7,0.4
			c-0.1,0.2-0.2,0.4-0.1,0.7c0.1,0.3,0.2,0.6,0.4,0.8L397.6,383z"/>
        </g>
        <g class="st2">
            <path class="st3" d="M405.2,386.1c0.3,0.4,0.4,0.9,0.5,1.5l-2,0.3c0-0.2,0-0.4-0.1-0.5c-0.1-0.6-0.4-1.1-0.8-1.4
			c-0.4-0.3-0.9-0.4-1.6-0.3l-3.5,0.6l-0.4-2.2l7.4-1.2l0.3,2.1l-1,0.2C404.6,385.4,404.9,385.7,405.2,386.1z"/>
        </g>
        <g class="st2">
            <path class="st3" d="M406,394.6c-0.4,0.7-1.2,1.2-2.3,1.3l-4.2,0.7l-0.3-2l0.9-0.2c-0.8-0.3-1.2-1-1.4-2.1c-0.1-0.6-0.1-1.1,0-1.5
			c0.1-0.5,0.3-0.8,0.6-1.1c0.3-0.3,0.7-0.5,1.1-0.5c0.7-0.1,1.3,0.1,1.8,0.5c0.5,0.5,0.8,1.2,1,2.3l0.3,1.7c0.5-0.1,0.8-0.3,1-0.6
			c0.2-0.3,0.3-0.8,0.2-1.3c-0.1-0.4-0.2-0.8-0.4-1.1c-0.2-0.4-0.4-0.7-0.7-0.9l1.4-1c0.4,0.4,0.7,0.8,0.9,1.3
			c0.3,0.5,0.4,1.1,0.5,1.7C406.6,393,406.5,393.9,406,394.6z M400.6,393.6c0.2,0.3,0.5,0.4,0.9,0.5l0.8-0.1l-0.2-1.5
			c-0.1-0.9-0.5-1.3-1.1-1.2c-0.3,0-0.5,0.2-0.6,0.4c-0.1,0.2-0.2,0.6-0.1,0.9C400.3,393.1,400.4,393.4,400.6,393.6z"/>
            <path class="st3" d="M400,398.4c0.2-0.3,0.5-0.5,0.9-0.5c0.4-0.1,0.7,0,1,0.2c0.3,0.2,0.5,0.5,0.5,0.9c0.1,0.4,0,0.7-0.2,1
			c-0.2,0.3-0.5,0.5-0.9,0.5c-0.4,0.1-0.7,0-1-0.2c-0.3-0.2-0.5-0.5-0.5-0.9C399.7,399.1,399.8,398.7,400,398.4z"/>
        </g>
        <g class="st2">
            <path class="st3" d="M412.3,414l-10.4-2.6l-0.4-2.2l9-5.8l0.4,2.4l-6.4,4.1l7.4,1.8L412.3,414z"/>
        </g>
        <g class="st2">
            <path class="st3" d="M410.1,415.2l0.4,2.2l-7.4,1.2l-0.4-2.2L410.1,415.2z M411.5,415c0.2-0.3,0.5-0.5,0.8-0.5
			c0.3-0.1,0.6,0,0.9,0.2c0.3,0.2,0.4,0.5,0.5,0.9c0.1,0.4,0,0.7-0.2,1c-0.2,0.3-0.4,0.5-0.8,0.5c-0.4,0.1-0.7,0-1-0.2
			c-0.3-0.2-0.4-0.5-0.5-0.9C411.3,415.7,411.4,415.3,411.5,415z"/>
            <path class="st3" d="M413.6,418.9l0.4,2.2l-10.2,1.7l-0.4-2.2L413.6,418.9z"/>
            <path class="st3" d="M414.3,423l0.4,2.2l-10.2,1.7l-0.4-2.2L414.3,423z"/>
            <path class="st3" d="M412.4,433.4c-0.4,0.7-1.2,1.2-2.3,1.3l-4.2,0.7l-0.3-2l0.9-0.2c-0.8-0.3-1.2-1-1.4-2.1
			c-0.1-0.6-0.1-1.1,0-1.5c0.1-0.5,0.3-0.8,0.6-1.1c0.3-0.3,0.7-0.5,1.1-0.5c0.7-0.1,1.3,0.1,1.8,0.5c0.5,0.5,0.8,1.2,1,2.3l0.3,1.7
			c0.5-0.1,0.8-0.3,1-0.6c0.2-0.3,0.3-0.8,0.2-1.3c-0.1-0.4-0.2-0.8-0.4-1.1c-0.2-0.4-0.4-0.7-0.7-0.9l1.4-1
			c0.4,0.4,0.7,0.8,0.9,1.3c0.2,0.5,0.4,1.1,0.5,1.7C413,431.8,412.9,432.7,412.4,433.4z M407,432.4c0.2,0.3,0.5,0.4,0.9,0.5
			l0.8-0.1l-0.2-1.5c-0.1-0.9-0.5-1.3-1.1-1.2c-0.3,0-0.5,0.2-0.6,0.4c-0.1,0.2-0.2,0.6-0.1,0.9C406.6,431.8,406.8,432.1,407,432.4z
			"/>
        </g>
        <g class="st2">
            <path class="st3" d="M413.8,438.5l0.3,1.9l-1.7,0.3l-0.3-1.9l-5.6,0.9l-0.4-2.2l5.6-0.9l-0.2-1.1l1.7-0.3l0.2,1.1l0.3-0.1
			c0.8-0.1,1.6,0,2.1,0.4c0.6,0.4,0.9,1.1,1.1,2c0.1,0.3,0.1,0.6,0,0.9c0,0.3-0.1,0.6-0.2,0.8l-1.7-0.3c0.1-0.3,0.2-0.6,0.1-0.9
			c-0.1-0.7-0.5-0.9-1.2-0.8L413.8,438.5z"/>
        </g>
        <g class="st2">
            <path class="st3" d="M415,445.7c0.3,0.4,0.4,0.9,0.5,1.5l-2,0.3c0-0.2,0-0.4-0.1-0.5c-0.1-0.6-0.4-1.1-0.8-1.4
			c-0.4-0.3-0.9-0.4-1.6-0.3l-3.5,0.6l-0.4-2.2l7.4-1.2l0.3,2.1l-1,0.2C414.4,445,414.8,445.3,415,445.7z"/>
        </g>
        <g class="st2">
            <path class="st3" d="M415.8,454.2c-0.4,0.7-1.2,1.2-2.3,1.3l-4.2,0.7l-0.3-2l0.9-0.2c-0.8-0.3-1.2-1-1.4-2.1
			c-0.1-0.6-0.1-1.1,0-1.5c0.1-0.5,0.3-0.8,0.6-1.1c0.3-0.3,0.7-0.5,1.1-0.5c0.7-0.1,1.3,0.1,1.8,0.5c0.5,0.5,0.8,1.2,1,2.3l0.3,1.7
			c0.5-0.1,0.8-0.3,1-0.6c0.2-0.3,0.3-0.8,0.2-1.3c-0.1-0.4-0.2-0.8-0.4-1.1c-0.2-0.4-0.4-0.7-0.7-0.9l1.4-1
			c0.4,0.4,0.7,0.8,0.9,1.3c0.3,0.5,0.4,1.1,0.5,1.7C416.4,452.6,416.3,453.5,415.8,454.2z M410.4,453.2c0.2,0.3,0.5,0.4,0.9,0.5
			l0.8-0.1l-0.2-1.5c-0.1-0.9-0.5-1.3-1.1-1.2c-0.3,0-0.5,0.2-0.6,0.4c-0.1,0.2-0.2,0.6-0.1,0.9C410.1,452.7,410.2,453,410.4,453.2z
			"/>
        </g>
        <g class="st2">
            <path class="st3" d="M417.4,463.9c-0.5,0.7-1.2,1.1-2.3,1.3l-4.3,0.7l-0.4-2.2l3.9-0.6c0.6-0.1,1-0.3,1.3-0.6
			c0.2-0.3,0.3-0.7,0.3-1.2c-0.1-0.5-0.3-0.9-0.7-1.2c-0.4-0.3-0.9-0.3-1.6-0.2l-3.7,0.6l-0.4-2.2l7.4-1.2l0.3,2.1l-0.9,0.1
			c0.4,0.2,0.7,0.5,0.9,0.9s0.4,0.8,0.5,1.4C418,462.4,417.9,463.2,417.4,463.9z"/>
        </g>
        <g class="st2">
            <path class="st3" d="M411.8,469.2c0.2-0.7,0.6-1.3,1.1-1.7s1.2-0.7,1.9-0.9c0.7-0.1,1.4-0.1,2.1,0.2c0.6,0.3,1.2,0.7,1.6,1.3
			c0.4,0.6,0.7,1.3,0.8,2.1c0.1,0.8,0.1,1.5-0.2,2.1c-0.2,0.6-0.6,1.1-1.2,1.5l-1.2-1.5c0.6-0.5,0.9-1.1,0.7-1.8
			c-0.1-0.6-0.4-1-0.8-1.3c-0.4-0.3-1-0.4-1.6-0.3c-0.6,0.1-1.1,0.4-1.4,0.8c-0.3,0.4-0.4,0.9-0.3,1.5c0.1,0.7,0.6,1.2,1.3,1.5
			l-0.6,1.8c-0.6-0.2-1.2-0.5-1.6-1.1c-0.4-0.5-0.7-1.2-0.8-2C411.5,470.7,411.6,469.9,411.8,469.2z"/>
            <path class="st3" d="M420.2,480.5c-0.4,0.7-1.2,1.2-2.3,1.3l-4.2,0.7l-0.3-2l0.9-0.2c-0.8-0.3-1.2-1-1.4-2.1
			c-0.1-0.6-0.1-1.1,0-1.5c0.1-0.5,0.3-0.8,0.6-1.1c0.3-0.3,0.7-0.5,1.1-0.5c0.7-0.1,1.3,0.1,1.8,0.5c0.5,0.5,0.8,1.2,1,2.3l0.3,1.7
			c0.5-0.1,0.8-0.3,1-0.6s0.3-0.8,0.2-1.3c-0.1-0.4-0.2-0.8-0.4-1.1c-0.2-0.4-0.4-0.7-0.7-0.9l1.4-1c0.4,0.4,0.7,0.8,0.9,1.3
			c0.2,0.5,0.4,1.1,0.5,1.7C420.8,478.9,420.6,479.8,420.2,480.5z M414.8,479.6c0.2,0.3,0.5,0.4,0.9,0.5l0.8-0.1l-0.2-1.5
			c-0.1-0.9-0.5-1.3-1.1-1.2c-0.3,0-0.5,0.2-0.6,0.4c-0.1,0.2-0.2,0.6-0.1,0.9C414.4,479,414.5,479.3,414.8,479.6z"/>
        </g>
        <g class="st2">
            <path class="st3" d="M268.3,423.6c0.2-0.9,0.6-1.7,1.2-2.3c0.6-0.7,1.4-1.1,2.3-1.4c0.9-0.3,1.8-0.3,2.7,0
			c0.9,0.2,1.6,0.7,2.3,1.3c0.6,0.7,1.1,1.5,1.4,2.4c0.2,0.8,0.3,1.6,0.2,2.3c-0.1,0.7-0.4,1.4-0.8,2l-1.7-1
			c0.6-0.8,0.7-1.7,0.4-2.7c-0.2-0.6-0.4-1.1-0.8-1.5c-0.4-0.4-0.8-0.6-1.4-0.8c-0.5-0.1-1.1-0.1-1.7,0.1c-0.6,0.2-1.1,0.4-1.5,0.8
			c-0.4,0.4-0.6,0.8-0.8,1.4c-0.1,0.5-0.1,1.1,0.1,1.7c0.3,0.9,0.9,1.6,1.8,2.1l-0.9,1.8c-0.7-0.3-1.2-0.7-1.7-1.3
			c-0.5-0.6-0.8-1.3-1.1-2.1C268.1,425.4,268.1,424.5,268.3,423.6z"/>
        </g>
        <g class="st2">
            <path class="st3" d="M278.1,435.2c-0.4,0.8-1.1,1.3-2.2,1.6l-4.1,1.2l-0.6-2l0.9-0.3c-0.8-0.2-1.3-0.8-1.6-1.9
			c-0.2-0.6-0.2-1.1-0.1-1.5c0.1-0.5,0.2-0.8,0.5-1.2c0.3-0.3,0.6-0.5,1-0.6c0.7-0.2,1.3-0.1,1.8,0.3c0.5,0.4,0.9,1.1,1.2,2.2
			l0.5,1.7c0.5-0.1,0.8-0.4,0.9-0.7c0.2-0.3,0.2-0.8,0-1.4c-0.1-0.4-0.3-0.8-0.5-1.1c-0.2-0.3-0.5-0.6-0.8-0.8l1.3-1.2
			c0.4,0.3,0.7,0.7,1,1.2c0.3,0.5,0.5,1.1,0.7,1.6C278.5,433.5,278.5,434.4,278.1,435.2z M272.6,434.8c0.2,0.2,0.5,0.4,0.9,0.4
			l0.7-0.2l-0.4-1.4c-0.2-0.9-0.6-1.2-1.2-1.1c-0.3,0.1-0.5,0.2-0.6,0.5c-0.1,0.3-0.1,0.6,0,0.9
			C272.2,434.3,272.4,434.6,272.6,434.8z"/>
        </g>
        <g class="st2">
            <path class="st3" d="M280.3,440.9c0.3,0.4,0.5,0.8,0.7,1.4l-1.9,0.5c0-0.2-0.1-0.4-0.1-0.5c-0.2-0.6-0.5-1-0.9-1.3
			c-0.4-0.2-1-0.3-1.7-0.1l-3.4,1l-0.6-2.1l7.3-2l0.6,2l-1,0.3C279.6,440.2,280,440.5,280.3,440.9z"/>
        </g>
        <g class="st2">
            <path class="st3" d="M281.9,446.6c0.3,0.4,0.5,0.8,0.7,1.4l-1.9,0.5c0-0.2-0.1-0.4-0.1-0.5c-0.2-0.6-0.5-1-0.9-1.3
			c-0.4-0.2-1-0.3-1.7-0.1l-3.4,1l-0.6-2.1l7.3-2l0.6,2l-1,0.3C281.2,446,281.6,446.3,281.9,446.6z"/>
        </g>
        <g class="st2">
            <path class="st3" d="M280.6,457.5L279,452c-0.4,0.2-0.7,0.6-0.9,1c-0.2,0.4-0.2,0.9,0,1.5c0.1,0.4,0.3,0.7,0.5,1
			c0.2,0.3,0.4,0.5,0.8,0.7l-0.9,1.5c-1-0.5-1.6-1.4-2-2.7c-0.2-0.8-0.3-1.6-0.1-2.3c0.1-0.7,0.4-1.3,0.9-1.8s1.1-0.9,1.8-1.1
			c0.7-0.2,1.4-0.2,2.1,0c0.7,0.2,1.2,0.5,1.7,1c0.5,0.5,0.8,1.1,1,1.8c0.2,0.7,0.2,1.4,0.1,2.1c-0.1,0.7-0.5,1.2-0.9,1.7
			c-0.5,0.5-1.1,0.8-1.9,1C281.1,457.4,280.9,457.4,280.6,457.5z M281.5,451.9c-0.4-0.2-0.8-0.3-1.3-0.3l1,3.6
			c0.4-0.2,0.7-0.5,0.9-0.9c0.2-0.4,0.2-0.8,0.1-1.3C282.1,452.5,281.9,452.2,281.5,451.9z"/>
            <path class="st3" d="M285.9,460.8c0.3,0.4,0.5,0.8,0.7,1.4l-1.9,0.5c0-0.2-0.1-0.4-0.1-0.5c-0.2-0.6-0.5-1-0.9-1.3
			c-0.4-0.2-1-0.3-1.7-0.1l-3.4,1l-0.6-2.1l7.3-2l0.6,2l-1,0.3C285.2,460.2,285.6,460.5,285.9,460.8z"/>
            <path class="st3" d="M292.7,474l-10,2.8l-0.6-2l0.8-0.2c-0.8-0.3-1.3-1-1.6-2c-0.2-0.7-0.2-1.3-0.1-2c0.2-0.6,0.5-1.2,0.9-1.7
			c0.5-0.5,1.1-0.8,1.8-1s1.4-0.2,2.1-0.1c0.7,0.2,1.2,0.5,1.7,0.9c0.5,0.5,0.8,1,1,1.7c0.3,0.9,0.2,1.7-0.3,2.4l3.5-1L292.7,474z
			 M284.1,473.6c0.5,0.2,1,0.3,1.6,0.1c0.6-0.2,1.1-0.5,1.3-0.9c0.3-0.5,0.3-0.9,0.2-1.5c-0.2-0.5-0.5-0.9-0.9-1.2
			c-0.5-0.2-1-0.3-1.6-0.1s-1,0.5-1.3,0.9c-0.3,0.5-0.3,0.9-0.2,1.5C283.4,473,283.7,473.4,284.1,473.6z"/>
            <path class="st3" d="M288.3,485l-1.5-5.5c-0.4,0.2-0.7,0.6-0.9,1c-0.2,0.4-0.2,0.9,0,1.5c0.1,0.4,0.3,0.7,0.5,1
			c0.2,0.3,0.4,0.5,0.8,0.7l-0.9,1.5c-1-0.5-1.6-1.4-2-2.7c-0.2-0.8-0.3-1.6-0.1-2.3c0.1-0.7,0.4-1.3,0.9-1.8
			c0.5-0.5,1.1-0.9,1.8-1.1c0.7-0.2,1.4-0.2,2.1,0c0.7,0.2,1.2,0.5,1.7,1c0.5,0.5,0.8,1.1,1,1.8c0.2,0.7,0.2,1.4,0.1,2.1
			c-0.1,0.7-0.5,1.2-0.9,1.7c-0.5,0.5-1.1,0.8-1.9,1C288.8,484.9,288.6,484.9,288.3,485z M289.2,479.4c-0.4-0.2-0.8-0.3-1.3-0.3
			l1,3.6c0.4-0.2,0.7-0.5,0.9-0.9c0.2-0.4,0.2-0.8,0.1-1.3C289.8,480,289.6,479.6,289.2,479.4z"/>
            <path class="st3" d="M295.6,484.5l0.6,2.1l-10,2.8l-0.6-2.1L295.6,484.5z"/>
            <path class="st3" d="M288.9,497.1c0.2-0.9,0.6-1.7,1.2-2.3c0.6-0.7,1.4-1.1,2.3-1.4c0.9-0.3,1.8-0.3,2.7,0
			c0.9,0.2,1.6,0.7,2.3,1.3s1.1,1.5,1.4,2.4c0.2,0.8,0.3,1.6,0.2,2.3s-0.4,1.4-0.8,2l-1.7-1c0.6-0.8,0.7-1.7,0.4-2.7
			c-0.2-0.6-0.4-1.1-0.8-1.5c-0.4-0.4-0.8-0.6-1.4-0.8c-0.5-0.1-1.1-0.1-1.7,0.1c-0.6,0.2-1.1,0.4-1.5,0.8c-0.4,0.4-0.6,0.8-0.8,1.4
			c-0.1,0.5-0.1,1.1,0.1,1.7c0.3,0.9,0.9,1.6,1.8,2.1l-0.9,1.8c-0.7-0.3-1.2-0.7-1.7-1.3c-0.5-0.6-0.8-1.3-1.1-2.1
			C288.7,498.9,288.7,497.9,288.9,497.1z"/>
            <path class="st3" d="M300.6,502.2l0.6,2.1l-10,2.8l-0.6-2.1L300.6,502.2z"/>
            <path class="st3" d="M292.5,510.4c0.1-0.7,0.5-1.3,0.9-1.8c0.5-0.5,1.1-0.9,1.8-1.1c0.7-0.2,1.4-0.2,2.1,0c0.7,0.2,1.2,0.5,1.7,1
			c0.5,0.5,0.8,1.2,1.1,1.9c0.2,0.8,0.2,1.5,0.1,2.2c-0.2,0.7-0.5,1.3-0.9,1.8c-0.5,0.5-1.1,0.9-1.8,1.1c-0.7,0.2-1.4,0.2-2.1,0
			c-0.7-0.2-1.2-0.5-1.7-1c-0.5-0.5-0.8-1.2-1.1-1.9C292.4,511.8,292.3,511.1,292.5,510.4z M295.2,513.2c0.5,0.2,1,0.3,1.6,0.1
			c0.6-0.2,1.1-0.5,1.3-0.9c0.3-0.4,0.3-0.9,0.2-1.5c-0.2-0.5-0.5-0.9-0.9-1.2c-0.5-0.2-1-0.3-1.6-0.1c-0.6,0.2-1,0.5-1.3,0.9
			c-0.3,0.5-0.3,0.9-0.2,1.5C294.5,512.6,294.8,513,295.2,513.2z"/>
            <path class="st3" d="M295.9,522.5c-0.2-0.2-0.4-0.4-0.6-0.7c-0.2-0.3-0.3-0.6-0.4-0.9c-0.2-0.9-0.2-1.6,0.1-2.2
			c0.3-0.6,0.9-1,1.7-1.3l3-0.8l-0.3-1.1l1.6-0.5l0.3,1.1l1.8-0.5l0.6,2.1l-1.8,0.5l0.5,1.8l-1.6,0.5l-0.5-1.8l-3,0.8
			c-0.3,0.1-0.5,0.2-0.6,0.4c-0.1,0.2-0.1,0.5-0.1,0.7c0.1,0.3,0.3,0.6,0.5,0.8L295.9,522.5z"/>
        </g>
    </g>
</svg>