<?xml version="1.0" encoding="utf-8"?>
<!-- Generator: Adobe Illustrator 24.0.2, SVG Export Plug-In . SVG Version: 6.00 Build 0)  -->
<svg version="1.1" id="Capa_1" xmlns="http://www.w3.org/2000/svg" xmlns:xlink="http://www.w3.org/1999/xlink" x="0px" y="0px"
	 viewBox="0 0 1080 1080" style="enable-background:new 0 0 1080 1080;" xml:space="preserve">
<style type="text/css">
	.st0{fill:#FFFFFF;}
	<!-- .st1{fill:#EF7048;}
	.st2{fill:#EF9981;} -->
	.st3{fill:none;stroke:#FFFFFF;stroke-width:8;stroke-miterlimit:10;}
</style>
<title>ProvinciaAlicante_2</title>
<g>
	<g id="_DopShadow">
		<path class="st0" d="M442,790c1.7-14.9,4.6-47.1,8-59c2-7,4-17,8-23s10-18,17-18s21,2,31-1s11-6,13-10s1-14-1-22s-7-32-4-44
			s2-18,16-29s18-17,28-12s16,2,17-10s-1-17,2-23s8-11,10-17s30-24,42-32s23-11,45-20s46-23,52-21s18,10,24,4s24-22,19-26s-6-9-1-17
			s17-23,26-26s18,2,23-3s9-7,14-7s9-5,14-13c5.1-7.8,13-13.5,22-16c8-2,18-6,20-13s11-11,15-15s6-7,12-5s11-3,11-9s-8-11-14-14
			s-12-12-13-16s-4-8,2-9s-3-10-8-12s-13-7-19-10s-17-15-24-17s-23-7-27-5s-10,0-17-3s-17-6-17-2s0,17-10,10s-17-19-22-18
			s-23,15-31,16s-12,1-12-5s-3-13-7-14s-8-1-12,2s-15,13-19,13s-13,2-19-2s-16-9-19-9s-8,10-12,12s-15,11-25,14s-17,0-18,2
			s-6,6-13,7s-18,10-23,12s-13,4-24,1s-36-1-38,2s-14,10-12,12s5,6,4,9s1,10,3,12s4,6,15-1s13-7,15-6s3,8,6,10s11,3,11,6s1,11-3,13
			s-33,15-38,17s-19,12-23,12s-12,0-13-5s-7-20-11-21s-9-3-12-6s-5-5-12-5s-12,2-16-1s-23-4-34-1s-18,5-20,4c-3.2-1.5-5.5-4.5-6-8
			c-1-5-6-11-9-13s-8-4-15-4s-14,2-15-1s-5-8-9-7s-14,6-15,9s-2,7,1,13s12,24,14,29s11,9,9,13s-5,11-11,16s-10,9-17,9s-22-2-27,0
			s-8,6-5,10s5,6,5,13s3,17,5,25s3,10,1,15s-8,21-10,26s-1,9,1,14s4,9,1,13s-11,15-15,18s-14,14-18,18s-9,9-9,15s-2,20,0,27
			s7,18,18,23s19,6,27,10s13,9,15,15s7,10,8,14s3,10,2,17s-5,18-8,27s-6,23-10,30s-10,17-14,23s-8,8-6,15s2,17,3,22s2,5,4,12
			s3,11,8,16s13,14,18,22s8,18,13,24s11,11,12,18s6,20,16,31s16,18,26,27s13,13,19,14s10,6,16,9s16,3,18-9s3.3-26.6,10-32
			c5-4,8-10,10-15c1.5-3.7,5-9,7-14c2.6-6.6,3-16,10-16s18-10,20-15S441,799,442,790z"/>
	</g>
	<g id="1_Baix_Segura" class="zone">
		<path class="st1" d="M439,780.7c1.2-11.4,2.7-25.7,4.4-36.9c-8.6-3.2-33.3-12.3-45.9-13.8c-4.4-0.5-8.9-0.7-13.3-0.6
			c-8.4,0-15.7,0-25.3-5.9c-19.9-12.2-32-21-36.9-26.8c-1.7-2-4.4-4.5-7.3-7.2c-9.5-9-15.7-15.3-15.7-21.4c0-5.3,3.8-18.4,6.3-26.5
			c-2.5,0.5-5.4,1-8.7,1.5c-12.8,2-20.9,2.7-24.8,3c-1.3,4.4-2.9,9.1-4.5,13.8c-0.5,1.5-1,3.1-1.5,4.5c-0.9,2.8-1.9,6.1-2.9,9.7
			c-2.2,7.8-4.5,15.9-7.4,21c-3.9,6.8-10,17-14.1,23.2c-1.1,1.6-2.1,2.9-3,4c-2.6,3.3-3.4,4.3-2.5,7.6c1.3,4.7,1.8,10.2,2.3,15.1
			c0.2,2.8,0.5,5.5,0.8,7.2c0.3,1.6,0.8,3.2,1.5,4.7c1,2.3,1.8,4.6,2.5,7l0.2,0.8c1.8,6.3,2.7,9.4,6.8,13.5
			c5.4,5.4,13.5,14.5,18.6,22.7c2.2,3.7,4.2,7.5,5.9,11.4c2.2,4.7,4.3,9.1,6.8,12.1c1,1.3,2.2,2.5,3.3,3.7c4.3,4.7,8.7,9.6,9.6,16.3
			c1,7.1,6.1,19.1,15,28.9c1.5,1.6,2.9,3.2,4.2,4.7c7.6,8.4,13.1,14.5,21.5,22c2.1,1.9,3.9,3.6,5.5,5c6,5.6,8.1,7.4,11.5,8
			c4.6,0.8,8,3.3,11.4,5.7c1.8,1.4,3.7,2.6,5.8,3.7c2.2,1.1,5.7,1.9,8.4,0.5c2-1,3.3-3.3,3.9-6.6c0.3-1.7,0.5-3.4,0.8-5.1
			c1.8-11.7,3.6-23.7,10.6-29.3c4.5-3.6,7.2-9.4,8.8-13.4c0.9-2.2,2-4.3,3.2-6.4c1.4-2.5,2.7-5,3.8-7.6c0.6-1.4,1-3.1,1.5-4.8
			c1.6-5.8,3.9-13.7,12.2-13.7c4.9,0,14.7-8.6,16.3-12.5c0.8-1.9,0.3-10.7,0-16.5c-0.4-6.4-0.7-13.1-0.2-17.5
			C438.3,787,438.6,784,439,780.7z"/>
	</g>
	<g id="1_Baix_Vinalopó" class="zone">
		<path class="st1" d="M446.1,729.9c0.4-1.4,0.8-2.9,1.2-4.5c1.8-6.7,3.7-14.2,7.3-19.6c0.6-1,1.4-2.1,2.1-3.3
			c4.5-7.3,10.2-16.4,18.2-16.4c1.9,0,4.1,0.1,6.6,0.3c6.9,0.4,16.4,0.9,23.2-1.1c7.8-2.3,8.7-4.1,10.2-7.3l0.3-0.7
			c1.1-2.3,1-10.2-1.3-19.2c-0.7-2.7-5.8-24-5-39.1c-7.5-0.6-23.1-2.2-31.8-6.2c-4.6-2.1-9.8-5.2-14.9-8.1
			c-7.2-4.2-14.6-8.6-19.4-9.6l-1.5-0.3c-4.9-1.1-11.2-2.5-15.8-5.6c-4.9,4.7-15.3,14.6-21.4,19.2c-8.7,6.5-18.2,8.7-34.9,10.8
			c-11,1.4-18.9,5.2-27.2,9.2c-3.1,1.5-6.4,3.1-9.8,4.5l-2.1,0.9c-5.2,2.3-10.6,4.3-16,5.8c-3.1,9.6-7.4,24.3-7.4,28.6
			c0,3.1,8.6,11.2,13.2,15.6c3,2.8,5.9,5.5,7.8,7.8c4.4,5.1,16.1,13.6,35.1,25.2c7.7,4.7,13.3,4.7,21.1,4.7
			c4.8-0.1,9.6,0.2,14.3,0.7c12.9,1.6,36.4,10,46.3,13.7C445.2,733.5,445.7,731.5,446.1,729.9z"/>
	</g>
	<g id="1_Vinalopó_Mitjà" class="zone">
		<path class="st1" d="M216.6,512.9c-1.9,2-3.6,3.8-4.8,5c-3.5,3.5-7.8,7.8-7.8,12.2c0,1.9-0.2,4.3-0.4,7.2
			c-0.4,6.1-1,14.4,0.2,18.7c1.6,5.7,5.8,15.9,15.8,20.5c4.6,2.1,9.4,3.8,14.3,5.2c4.4,1.3,8.7,2.9,12.8,4.8
			c8.9,4.5,14.7,10.3,17,17.3c1,2.5,2.4,4.9,4.1,7c1.7,2.4,3.4,4.6,4,7.3c0.1,0.5,0.3,1,0.4,1.5c1.1,4,2.7,10.1,1.7,17
			c-0.1,0.4-0.1,0.8-0.2,1.2c4.3-0.3,11.4-1.1,21.6-2.7c17.4-2.7,21.6-4.5,31.9-8.8l2.1-0.9c3.2-1.3,6.2-2.8,9.3-4.3
			c8.6-4.2,17.4-8.4,29.7-10c15.3-1.9,23.8-3.8,31.1-9.2c6-4.5,16.5-14.6,21.1-19c-0.7-2-1-4.1-0.7-6.2c1.1-10.8,16.2-57,25.3-77.2
			c1.4-3,2.9-6.4,4.6-10c-3.7,1.1-7.5,1.7-11.4,1.7c-0.9,0-1.9,0-2.9-0.1c-15.4-1.1-26.5-8.8-37.1-25.9c-3.2-5.2-6.1-10.6-8.7-16.2
			c-4.5,1.1-13.2,3.5-19.8,7.5c-2.8,1.7-7,4.1-11.9,6.9c-10.4,6-27.8,16-30.3,18.5c-1.7,1.7-22.9,20.7-31.2,22.1
			c-1.9,0.3-3.8,0.4-5.8,0.4c-6.1,0-13.5-1.2-18.7-3.8c-7.3-3.7-11.9-11.8-13.1-17.8c-0.4-1.8-1.9-5-4.5-6c-2.4-1-5.3,0.1-7.7,1.5
			c-0.4,1.1-1,2.2-1.7,3.1l-1,1.4c-5.2,7-11,14.6-14.8,17.4C226.8,502.1,220.9,508.3,216.6,512.9z"/>
	</g>
	<g id="1_Alt_Vinalopó" class="zone">
		<path class="st1" d="M241.8,369.6c0,0.1-0.1,0.4,0.4,1l0.7,0.9c2.7,3.6,5.1,6.7,5.1,14.5c0,5.2,2,12.9,3.7,19.6
			c0.4,1.5,0.8,3,1.1,4.5c0.3,1,0.5,1.9,0.7,2.8c1.6,6.1,2.4,9.1,0.1,14.7c-1,2.5-3,7.8-5,12.9c-2,5.2-4,10.5-5,13.1
			c-1.4,3.6-0.8,6.4,1,11l0.4,1.1c0.5,1.3,1.1,2.6,1.5,3.9c3.5-1.5,7.4-1.5,11-0.2c5.6,2.3,8.5,7.8,9.3,11.9
			c0.8,4.2,4.2,9.9,8.9,12.2c5.3,2.6,14.4,3.5,19.5,2.6c4.2-0.7,21.9-15,26.8-19.9c3-3,15.2-10.1,32-19.8c4.8-2.8,9-5.2,11.8-6.9
			c6.9-4.1,15.4-6.7,20.6-8c-4.8-11.4-8.3-23-9.5-32c-2-14.6-4.1-44-3-56.9c0.2-1.9,0.3-3.5,0.5-5c0.8-8.3,0.9-10.6-0.9-13.6
			c-2.4-3.9-12.2-19.2-16.1-25.1c-9.1,2.4-12.6,3-15.2,1.7c-4.3-2.1-7.3-6.1-8.1-10.8c-0.7-3.7-4.9-8.9-7.3-10.5
			c-1.9-1.3-6-3.3-12.8-3.3c-2,0-4,0.2-6,0.4c-5.2,0.5-11.1,1-12.8-4.1c-0.7-2.1-3.3-4.6-4.2-4.4c-3.5,0.9-10.9,4.9-12.3,6.6
			c-0.8,2.6-1.4,5.3,0.9,9.7c5.2,10.4,12.3,24.7,14.1,29.3c0.5,1.3,2.3,3,3.9,4.4c3.1,2.9,7.4,6.8,4.9,11.8
			c-0.2,0.4-0.4,0.8-0.6,1.3c-2.1,4.4-5.3,11-11.4,16c-0.6,0.5-1.1,0.9-1.6,1.4c-5.4,4.6-10.1,8.5-17.9,8.5c-2.3,0-5.3-0.2-8.4-0.4
			c-3.3-0.2-7.6-0.5-11.1-0.5c-2-0.1-4,0.1-6,0.6C243.3,367.6,242,368.8,241.8,369.6z"/>
	</g>
	<g id="1_Comtat" class="zone">
		<path class="st1" d="M555.6,254.1c-2.6,1.8-5.3,3.3-8.1,4.6c-8.5,3.3-17.8,3.7-26.5,1.1c-9.5-2.6-30.1-1-34,0.9
			c-1.8,2-3.8,3.7-6,5.2c-1.2,1-3,2.3-4.2,3.4c2,2.6,4.4,6.8,3,10.9c-0.4,1.5,0.9,6.7,2,7.9c0.2,0.2,0.4,0.4,0.6,0.7
			c0.9,0.9,1,1.1,1.5,1.1c0.7,0,2.9-0.2,7.9-3.3c11.1-7.1,14.8-8.3,18.9-6.2c2.3,1.1,3.3,3.6,4.3,6.2c0.5,1.3,1.5,3.6,2.1,4.1
			c1.2,0.6,2.4,1.1,3.7,1.5c4,1.4,9.1,3.1,9.1,7.9c0,0.4,0,0.9,0,1.4c0.2,2.4,0.1,4.8-0.2,7.2c9.9,7.7,22.5,15.4,28.2,15.4
			c10.9,0,23,9.3,30.2,18.5c4.1,5.6,7.8,11.4,11.1,17.5c2-1.5,4.4-3.3,7.5-5.3c1.6-1,3.1-2,4.5-3c9.1-6,14.7-9.5,16.8-16.8
			c3.6-11.9,8.1-23.2,16.7-25.7c1.7-0.5,3.4-0.9,4.9-1.3c-4.5-4.3-7.9-9.1-9.7-18.1c-2-10.1-2.3-18.2,2.3-27.6c0.6-1,1-2.2,1.2-3.4
			c-1.1-0.4-2.2-0.7-3.4-0.9c-5.1-1-12.7-2.5-14.2-11.3c-0.7-4-1.6-14.3-2.2-21.3c-0.6,0.4-1.2,0.8-1.9,1.3
			c-5.6,3.8-13.2,8.9-20.8,11.2c-4.8,1.4-9.9,1.9-14.9,1.5c-0.5,0-1.1-0.1-1.6-0.1c-2.6,3.3-8.4,6.8-15.1,7.7
			C566,247.5,560.3,251.1,555.6,254.1z"/>
	</g>
	<g id="1_Marina_Baixa" class="zone">
		<path class="st1" d="M774,369.5c-4.4-2.5-9.1-4.8-13.7-7.1c-10.2-5-19.9-9.8-24.6-16c-3-4.3-5.7-8.8-8.2-13.4
			c-3.8-6.6-8.9-15.7-11.8-17.7c-9.5-6.4-21.5-12-24.4-11.6c-1.5,0.7-4.6,4.1-6.8,6.6c-4.2,4.7-7.8,8.8-11.8,9.5
			c-5.5,1.1-10.5-1.8-15.3-5.5c-2.1,0.4-6,1.2-10.4,2.5c-5.7,1.6-9.7,15.2-11.3,20.3c-3,10.1-10.2,14.8-20.1,21.2
			c-1.4,0.9-2.9,1.9-4.5,2.9c-10.5,7-12,9-16.7,15.4l-1.3,1.7c-5.1,6.8-5.2,11.5-4.2,22.2c0.7,7.3,13.3,9.4,18.7,10.3l1,0.2
			c8.4,1.4,14.5,11.7,13.3,22.4c-0.9,8.1,11.6,19,15.7,22.5c6.2,5.4,18.5,12.6,22.8,15.1c3.6-1.4,7.6-3,12-4.8
			c7.6-3.1,15.4-6.8,22.9-10.4c17.9-8.5,26.7-12.5,31.9-10.7c1.8,0.6,3.5,1.4,5.2,2.2c4.8,2.2,12,5.5,14.7,2.8c0.8-0.8,1.9-1.8,3-3
			c3.6-3.5,14.2-13.7,15.5-17.7c-6.3-5.5-6.7-12.8-1.1-21.6c3.9-6.2,16.1-22.8,27-27.3C787,377.4,780.8,373.3,774,369.5z"/>
	</g>
	<g id="1_Marina_Alta" class="zone">
		<path class="st2" d="M866,341.1c9.6-2.4,16-6.2,17.1-10.2c1.8-6.2,7.3-10.1,11.7-13.3c1.5-1,2.9-2.2,4.3-3.4
			c0.4-0.4,0.8-0.8,1.2-1.2c3.4-3.5,7.2-7.4,14.9-4.8c1.2,0.5,2.5,0.3,3.5-0.5c1.4-1.1,2.3-2.9,2.2-4.7c0-1.1-0.8-5-11.8-10.4
			c-7.1-3.6-13.7-13.6-15-18.6c-0.2-0.6-0.4-1.3-0.7-2c-0.8-2.4-1.9-5.4-0.2-8.3c0.8-1.4,2.1-2.4,3.6-2.9c-1.8-2.1-3.9-3.8-6.4-5
			c-4-1.8-7.9-3.8-11.6-6c-2.6-1.5-5.4-3-7.7-4.1c-2.9-1.5-6.5-4.5-10.3-7.6c-4.3-3.6-9.8-8.2-13-9.1c-0.7-0.2-1.5-0.4-2.3-0.7
			c-12.4-3.6-19.8-5.2-21.9-4.6c-5.8,2.8-13.2,0.1-20.3-2.9c-3.6-1.7-7.5-2.9-11.4-3.6c-0.1,4.2-0.9,10.7-5.5,13.1
			c-3.1,1.6-6.7,0.9-10.8-1.9c-4.3-3.2-8.3-6.8-11.9-10.8c-2.3-2.4-5.8-6.1-7.2-6.5c-1.6,0.5-6.5,3.5-10,5.7
			c-7.7,4.7-15.6,9.6-21.1,10.3c-6,0.8-10.6,1.1-13.7-1.7c-1.9-1.7-2.8-4-2.8-7.3c0-5.2-2.7-9.8-4-10.1c-3.7-0.9-6.2-0.5-8.6,1.3
			c-0.8,0.6-2.1,1.6-3.5,2.8c-9.1,7.4-14,11-17.9,11c-0.7,0-1.7,0.1-2.9,0.2c-5,0.4-12.5,1.1-18.4-2.9c-5.9-3.9-13.5-7.5-16.2-8.2
			c-1.2,1.3-2.3,2.6-3.3,4c-0.9,1.2-1.9,2.4-2.9,3.6c0.4,5.2,1.8,20.9,2.6,25.7c0.5,2.9,2.1,3.6,7.8,4.7c3.1,0.6,7.3,1.4,9.1,5.2
			c1.8,3.6,0.1,7.8-1.3,10.5c-3.3,6.6-3.7,12.2-1.7,22.4c1.8,9,5.2,12.2,10.6,16.7c5.5,4.6,9.6,7.8,12.7,7.1c1.5-0.4,5.2-4.6,7.4-7
			c3.6-4,6.7-7.5,9.9-8.8c7.8-3.1,27.8,9.8,31.7,12.4c4.2,2.8,8.4,9.9,14.3,20.4c2.3,4.3,4.9,8.5,7.7,12.6c3.5,4.7,12.3,9,21.7,13.6
			c4.7,2.3,9.5,4.7,14.1,7.3c8.7,5,17.1,10.5,25.2,16.5c1,0,2,0.1,2.9,0.2c4.1,0.3,6.7,0.4,8.1-1c5.7-5.7,10.8-8.2,16.8-8.2
			c3.2,0,7-5.3,10.6-11.1C847.3,350.2,856,343.8,866,341.1z"/>
	</g>
</g>
</svg>
